<svg version='1.1' xmlns='http://www.w3.org/2000/svg' xmlns:xlink='http://www.w3.org/1999/xlink' x='0px' y='0px' width="680.60" height="432.60" viewBox='0 0 680.60 432.60' xml:space='preserve' > <style>g.day { animation: wave 4s ease 0s infinite normal forwards; transform: translate(0px, 0px); } @keyframes wave { 10% { transform: translate(0px, -24px); } 20% { transform: translate(0px, 0px); } } g[data-week="0"][data-day="0"] { animation-delay: 0.180s; } g[data-week="0"][data-day="1"] { animation-delay: 0.120s; } g[data-week="0"][data-day="2"] { animation-delay: 0.060s; } g[data-week="0"][data-day="3"] { animation-delay: 0.000s; } g[data-week="0"][data-day="4"] { animation-delay: 0.060s; } g[data-week="0"][data-day="5"] { animation-delay: 0.120s; } g[data-week="0"][data-day="6"] { animation-delay: 0.180s; } g[data-week="1"][data-day="0"] { animation-delay: 0.240s; } g[data-week="1"][data-day="1"] { animation-delay: 0.180s; } g[data-week="1"][data-day="2"] { animation-delay: 0.120s; } g[data-week="1"][data-day="3"] { animation-delay: 0.060s; } g[data-week="1"][data-day="4"] { animation-delay: 0.120s; } g[data-week="1"][data-day="5"] { animation-delay: 0.180s; } g[data-week="1"][data-day="6"] { animation-delay: 0.240s; } g[data-week="2"][data-day="0"] { animation-delay: 0.300s; } g[data-week="2"][data-day="1"] { animation-delay: 0.240s; } g[data-week="2"][data-day="2"] { animation-delay: 0.180s; } g[data-week="2"][data-day="3"] { animation-delay: 0.120s; } g[data-week="2"][data-day="4"] { animation-delay: 0.180s; } g[data-week="2"][data-day="5"] { animation-delay: 0.240s; } g[data-week="2"][data-day="6"] { animation-delay: 0.300s; } g[data-week="3"][data-day="0"] { animation-delay: 0.360s; } g[data-week="3"][data-day="1"] { animation-delay: 0.300s; } g[data-week="3"][data-day="2"] { animation-delay: 0.240s; } g[data-week="3"][data-day="3"] { animation-delay: 0.180s; } g[data-week="3"][data-day="4"] { animation-delay: 0.240s; } g[data-week="3"][data-day="5"] { animation-delay: 0.300s; } g[data-week="3"][data-day="6"] { animation-delay: 0.360s; } g[data-week="4"][data-day="0"] { animation-delay: 0.420s; } g[data-week="4"][data-day="1"] { animation-delay: 0.360s; } g[data-week="4"][data-day="2"] { animation-delay: 0.300s; } g[data-week="4"][data-day="3"] { animation-delay: 0.240s; } g[data-week="4"][data-day="4"] { animation-delay: 0.300s; } g[data-week="4"][data-day="5"] { animation-delay: 0.360s; } g[data-week="4"][data-day="6"] { animation-delay: 0.420s; } g[data-week="5"][data-day="0"] { animation-delay: 0.480s; } g[data-week="5"][data-day="1"] { animation-delay: 0.420s; } g[data-week="5"][data-day="2"] { animation-delay: 0.360s; } g[data-week="5"][data-day="3"] { animation-delay: 0.300s; } g[data-week="5"][data-day="4"] { animation-delay: 0.360s; } g[data-week="5"][data-day="5"] { animation-delay: 0.420s; } g[data-week="5"][data-day="6"] { animation-delay: 0.480s; } g[data-week="6"][data-day="0"] { animation-delay: 0.540s; } g[data-week="6"][data-day="1"] { animation-delay: 0.480s; } g[data-week="6"][data-day="2"] { animation-delay: 0.420s; } g[data-week="6"][data-day="3"] { animation-delay: 0.360s; } g[data-week="6"][data-day="4"] { animation-delay: 0.420s; } g[data-week="6"][data-day="5"] { animation-delay: 0.480s; } g[data-week="6"][data-day="6"] { animation-delay: 0.540s; } g[data-week="7"][data-day="0"] { animation-delay: 0.600s; } g[data-week="7"][data-day="1"] { animation-delay: 0.540s; } g[data-week="7"][data-day="2"] { animation-delay: 0.480s; } g[data-week="7"][data-day="3"] { animation-delay: 0.420s; } g[data-week="7"][data-day="4"] { animation-delay: 0.480s; } g[data-week="7"][data-day="5"] { animation-delay: 0.540s; } g[data-week="7"][data-day="6"] { animation-delay: 0.600s; } g[data-week="8"][data-day="0"] { animation-delay: 0.660s; } g[data-week="8"][data-day="1"] { animation-delay: 0.600s; } g[data-week="8"][data-day="2"] { animation-delay: 0.540s; } g[data-week="8"][data-day="3"] { animation-delay: 0.480s; } g[data-week="8"][data-day="4"] { animation-delay: 0.540s; } g[data-week="8"][data-day="5"] { animation-delay: 0.600s; } g[data-week="8"][data-day="6"] { animation-delay: 0.660s; } g[data-week="9"][data-day="0"] { animation-delay: 0.720s; } g[data-week="9"][data-day="1"] { animation-delay: 0.660s; } g[data-week="9"][data-day="2"] { animation-delay: 0.600s; } g[data-week="9"][data-day="3"] { animation-delay: 0.540s; } g[data-week="9"][data-day="4"] { animation-delay: 0.600s; } g[data-week="9"][data-day="5"] { animation-delay: 0.660s; } g[data-week="9"][data-day="6"] { animation-delay: 0.720s; } g[data-week="10"][data-day="0"] { animation-delay: 0.780s; } g[data-week="10"][data-day="1"] { animation-delay: 0.720s; } g[data-week="10"][data-day="2"] { animation-delay: 0.660s; } g[data-week="10"][data-day="3"] { animation-delay: 0.600s; } g[data-week="10"][data-day="4"] { animation-delay: 0.660s; } g[data-week="10"][data-day="5"] { animation-delay: 0.720s; } g[data-week="10"][data-day="6"] { animation-delay: 0.780s; } g[data-week="11"][data-day="0"] { animation-delay: 0.840s; } g[data-week="11"][data-day="1"] { animation-delay: 0.780s; } g[data-week="11"][data-day="2"] { animation-delay: 0.720s; } g[data-week="11"][data-day="3"] { animation-delay: 0.660s; } g[data-week="11"][data-day="4"] { animation-delay: 0.720s; } g[data-week="11"][data-day="5"] { animation-delay: 0.780s; } g[data-week="11"][data-day="6"] { animation-delay: 0.840s; } g[data-week="12"][data-day="0"] { animation-delay: 0.900s; } g[data-week="12"][data-day="1"] { animation-delay: 0.840s; } g[data-week="12"][data-day="2"] { animation-delay: 0.780s; } g[data-week="12"][data-day="3"] { animation-delay: 0.720s; } g[data-week="12"][data-day="4"] { animation-delay: 0.780s; } g[data-week="12"][data-day="5"] { animation-delay: 0.840s; } g[data-week="12"][data-day="6"] { animation-delay: 0.900s; } g[data-week="13"][data-day="0"] { animation-delay: 0.960s; } g[data-week="13"][data-day="1"] { animation-delay: 0.900s; } g[data-week="13"][data-day="2"] { animation-delay: 0.840s; } g[data-week="13"][data-day="3"] { animation-delay: 0.780s; } g[data-week="13"][data-day="4"] { animation-delay: 0.840s; } g[data-week="13"][data-day="5"] { animation-delay: 0.900s; } g[data-week="13"][data-day="6"] { animation-delay: 0.960s; } g[data-week="14"][data-day="0"] { animation-delay: 1.020s; } g[data-week="14"][data-day="1"] { animation-delay: 0.960s; } g[data-week="14"][data-day="2"] { animation-delay: 0.900s; } g[data-week="14"][data-day="3"] { animation-delay: 0.840s; } g[data-week="14"][data-day="4"] { animation-delay: 0.900s; } g[data-week="14"][data-day="5"] { animation-delay: 0.960s; } g[data-week="14"][data-day="6"] { animation-delay: 1.020s; } g[data-week="15"][data-day="0"] { animation-delay: 1.080s; } g[data-week="15"][data-day="1"] { animation-delay: 1.020s; } g[data-week="15"][data-day="2"] { animation-delay: 0.960s; } g[data-week="15"][data-day="3"] { animation-delay: 0.900s; } g[data-week="15"][data-day="4"] { animation-delay: 0.960s; } g[data-week="15"][data-day="5"] { animation-delay: 1.020s; } g[data-week="15"][data-day="6"] { animation-delay: 1.080s; } g[data-week="16"][data-day="0"] { animation-delay: 1.140s; } g[data-week="16"][data-day="1"] { animation-delay: 1.080s; } g[data-week="16"][data-day="2"] { animation-delay: 1.020s; } g[data-week="16"][data-day="3"] { animation-delay: 0.960s; } g[data-week="16"][data-day="4"] { animation-delay: 1.020s; } g[data-week="16"][data-day="5"] { animation-delay: 1.080s; } g[data-week="16"][data-day="6"] { animation-delay: 1.140s; } g[data-week="17"][data-day="0"] { animation-delay: 1.200s; } g[data-week="17"][data-day="1"] { animation-delay: 1.140s; } g[data-week="17"][data-day="2"] { animation-delay: 1.080s; } g[data-week="17"][data-day="3"] { animation-delay: 1.020s; } g[data-week="17"][data-day="4"] { animation-delay: 1.080s; } g[data-week="17"][data-day="5"] { animation-delay: 1.140s; } g[data-week="17"][data-day="6"] { animation-delay: 1.200s; } g[data-week="18"][data-day="0"] { animation-delay: 1.260s; } g[data-week="18"][data-day="1"] { animation-delay: 1.200s; } g[data-week="18"][data-day="2"] { animation-delay: 1.140s; } g[data-week="18"][data-day="3"] { animation-delay: 1.080s; } g[data-week="18"][data-day="4"] { animation-delay: 1.140s; } g[data-week="18"][data-day="5"] { animation-delay: 1.200s; } g[data-week="18"][data-day="6"] { animation-delay: 1.260s; } g[data-week="19"][data-day="0"] { animation-delay: 1.320s; } g[data-week="19"][data-day="1"] { animation-delay: 1.260s; } g[data-week="19"][data-day="2"] { animation-delay: 1.200s; } g[data-week="19"][data-day="3"] { animation-delay: 1.140s; } g[data-week="19"][data-day="4"] { animation-delay: 1.200s; } g[data-week="19"][data-day="5"] { animation-delay: 1.260s; } g[data-week="19"][data-day="6"] { animation-delay: 1.320s; } g[data-week="20"][data-day="0"] { animation-delay: 1.380s; } g[data-week="20"][data-day="1"] { animation-delay: 1.320s; } g[data-week="20"][data-day="2"] { animation-delay: 1.260s; } g[data-week="20"][data-day="3"] { animation-delay: 1.200s; } g[data-week="20"][data-day="4"] { animation-delay: 1.260s; } g[data-week="20"][data-day="5"] { animation-delay: 1.320s; } g[data-week="20"][data-day="6"] { animation-delay: 1.380s; } g[data-week="21"][data-day="0"] { animation-delay: 1.440s; } g[data-week="21"][data-day="1"] { animation-delay: 1.380s; } g[data-week="21"][data-day="2"] { animation-delay: 1.320s; } g[data-week="21"][data-day="3"] { animation-delay: 1.260s; } g[data-week="21"][data-day="4"] { animation-delay: 1.320s; } g[data-week="21"][data-day="5"] { animation-delay: 1.380s; } g[data-week="21"][data-day="6"] { animation-delay: 1.440s; } g[data-week="22"][data-day="0"] { animation-delay: 1.500s; } g[data-week="22"][data-day="1"] { animation-delay: 1.440s; } g[data-week="22"][data-day="2"] { animation-delay: 1.380s; } g[data-week="22"][data-day="3"] { animation-delay: 1.320s; } g[data-week="22"][data-day="4"] { animation-delay: 1.380s; } g[data-week="22"][data-day="5"] { animation-delay: 1.440s; } g[data-week="22"][data-day="6"] { animation-delay: 1.500s; } g[data-week="23"][data-day="0"] { animation-delay: 1.560s; } g[data-week="23"][data-day="1"] { animation-delay: 1.500s; } g[data-week="23"][data-day="2"] { animation-delay: 1.440s; } g[data-week="23"][data-day="3"] { animation-delay: 1.380s; } g[data-week="23"][data-day="4"] { animation-delay: 1.440s; } g[data-week="23"][data-day="5"] { animation-delay: 1.500s; } g[data-week="23"][data-day="6"] { animation-delay: 1.560s; } g[data-week="24"][data-day="0"] { animation-delay: 1.620s; } g[data-week="24"][data-day="1"] { animation-delay: 1.560s; } g[data-week="24"][data-day="2"] { animation-delay: 1.500s; } g[data-week="24"][data-day="3"] { animation-delay: 1.440s; } g[data-week="24"][data-day="4"] { animation-delay: 1.500s; } g[data-week="24"][data-day="5"] { animation-delay: 1.560s; } g[data-week="24"][data-day="6"] { animation-delay: 1.620s; } g[data-week="25"][data-day="0"] { animation-delay: 1.680s; } g[data-week="25"][data-day="1"] { animation-delay: 1.620s; } g[data-week="25"][data-day="2"] { animation-delay: 1.560s; } g[data-week="25"][data-day="3"] { animation-delay: 1.500s; } g[data-week="25"][data-day="4"] { animation-delay: 1.560s; } g[data-week="25"][data-day="5"] { animation-delay: 1.620s; } g[data-week="25"][data-day="6"] { animation-delay: 1.680s; } g[data-week="26"][data-day="0"] { animation-delay: 1.740s; } g[data-week="26"][data-day="1"] { animation-delay: 1.680s; } g[data-week="26"][data-day="2"] { animation-delay: 1.620s; } g[data-week="26"][data-day="3"] { animation-delay: 1.560s; } g[data-week="26"][data-day="4"] { animation-delay: 1.620s; } g[data-week="26"][data-day="5"] { animation-delay: 1.680s; } g[data-week="26"][data-day="6"] { animation-delay: 1.740s; } g[data-week="27"][data-day="0"] { animation-delay: 1.800s; } g[data-week="27"][data-day="1"] { animation-delay: 1.740s; } g[data-week="27"][data-day="2"] { animation-delay: 1.680s; } g[data-week="27"][data-day="3"] { animation-delay: 1.620s; } g[data-week="27"][data-day="4"] { animation-delay: 1.680s; } g[data-week="27"][data-day="5"] { animation-delay: 1.740s; } g[data-week="27"][data-day="6"] { animation-delay: 1.800s; } g[data-week="28"][data-day="0"] { animation-delay: 1.860s; } g[data-week="28"][data-day="1"] { animation-delay: 1.800s; } g[data-week="28"][data-day="2"] { animation-delay: 1.740s; } g[data-week="28"][data-day="3"] { animation-delay: 1.680s; } g[data-week="28"][data-day="4"] { animation-delay: 1.740s; } g[data-week="28"][data-day="5"] { animation-delay: 1.800s; } g[data-week="28"][data-day="6"] { animation-delay: 1.860s; } g[data-week="29"][data-day="0"] { animation-delay: 1.920s; } g[data-week="29"][data-day="1"] { animation-delay: 1.860s; } g[data-week="29"][data-day="2"] { animation-delay: 1.800s; } g[data-week="29"][data-day="3"] { animation-delay: 1.740s; } g[data-week="29"][data-day="4"] { animation-delay: 1.800s; } g[data-week="29"][data-day="5"] { animation-delay: 1.860s; } g[data-week="29"][data-day="6"] { animation-delay: 1.920s; } g[data-week="30"][data-day="0"] { animation-delay: 1.980s; } g[data-week="30"][data-day="1"] { animation-delay: 1.920s; } g[data-week="30"][data-day="2"] { animation-delay: 1.860s; } g[data-week="30"][data-day="3"] { animation-delay: 1.800s; } g[data-week="30"][data-day="4"] { animation-delay: 1.860s; } g[data-week="30"][data-day="5"] { animation-delay: 1.920s; } g[data-week="30"][data-day="6"] { animation-delay: 1.980s; } g[data-week="31"][data-day="0"] { animation-delay: 2.040s; } g[data-week="31"][data-day="1"] { animation-delay: 1.980s; } g[data-week="31"][data-day="2"] { animation-delay: 1.920s; } g[data-week="31"][data-day="3"] { animation-delay: 1.860s; } g[data-week="31"][data-day="4"] { animation-delay: 1.920s; } g[data-week="31"][data-day="5"] { animation-delay: 1.980s; } g[data-week="31"][data-day="6"] { animation-delay: 2.040s; } g[data-week="32"][data-day="0"] { animation-delay: 2.100s; } g[data-week="32"][data-day="1"] { animation-delay: 2.040s; } g[data-week="32"][data-day="2"] { animation-delay: 1.980s; } g[data-week="32"][data-day="3"] { animation-delay: 1.920s; } g[data-week="32"][data-day="4"] { animation-delay: 1.980s; } g[data-week="32"][data-day="5"] { animation-delay: 2.040s; } g[data-week="32"][data-day="6"] { animation-delay: 2.100s; } g[data-week="33"][data-day="0"] { animation-delay: 2.160s; } g[data-week="33"][data-day="1"] { animation-delay: 2.100s; } g[data-week="33"][data-day="2"] { animation-delay: 2.040s; } g[data-week="33"][data-day="3"] { animation-delay: 1.980s; } g[data-week="33"][data-day="4"] { animation-delay: 2.040s; } g[data-week="33"][data-day="5"] { animation-delay: 2.100s; } g[data-week="33"][data-day="6"] { animation-delay: 2.160s; } </style> <defs> </defs> <g transform="translate(116.20000000000002,80)"> <g data-week="0" data-day="0" class="day"><path d="M0.00,12.80 -16.00,4.80 -16.00,8.00 0.00,16.00 z" fill="#b0b1b4"></path><path d="M0.00,12.80 16.00,4.80 16.00,8.00 0.00,16.00 z" fill="#c7c9cc"></path><path d="M0.00,12.80 -16.00,4.80 0.00,-3.20 16.00,4.80 z" fill="#ebedf0"></path></g> <g data-week="0" data-day="1" class="day"><path d="M-16.60,21.40 -32.60,13.40 -32.60,16.60 -16.60,24.60 z" fill="#b0b1b4"></path><path d="M-16.60,21.40 -0.60,13.40 -0.60,16.60 -16.60,24.60 z" fill="#c7c9cc"></path><path d="M-16.60,21.40 -32.60,13.40 -16.60,5.40 -0.60,13.40 z" fill="#ebedf0"></path></g> <g data-week="0" data-day="2" class="day"><path d="M-33.20,30.00 -49.20,22.00 -49.20,25.20 -33.20,33.20 z" fill="#b0b1b4"></path><path d="M-33.20,30.00 -17.20,22.00 -17.20,25.20 -33.20,33.20 z" fill="#c7c9cc"></path><path d="M-33.20,30.00 -49.20,22.00 -33.20,14.00 -17.20,22.00 z" fill="#ebedf0"></path></g> <g data-week="0" data-day="3" class="day"><path d="M-49.80,38.60 -65.80,30.60 -65.80,33.80 -49.80,41.80 z" fill="#b0b1b4"></path><path d="M-49.80,38.60 -33.80,30.60 -33.80,33.80 -49.80,41.80 z" fill="#c7c9cc"></path><path d="M-49.80,38.60 -65.80,30.60 -49.80,22.60 -33.80,30.60 z" fill="#ebedf0"></path></g> <g data-week="0" data-day="4" class="day"><path d="M-66.40,47.20 -82.40,39.20 -82.40,42.40 -66.40,50.40 z" fill="#b0b1b4"></path><path d="M-66.40,47.20 -50.40,39.20 -50.40,42.40 -66.40,50.40 z" fill="#c7c9cc"></path><path d="M-66.40,47.20 -82.40,39.20 -66.40,31.20 -50.40,39.20 z" fill="#ebedf0"></path></g> <g data-week="0" data-day="5" class="day"><path d="M-83.00,55.80 -99.00,47.80 -99.00,51.00 -83.00,59.00 z" fill="#b0b1b4"></path><path d="M-83.00,55.80 -67.00,47.80 -67.00,51.00 -83.00,59.00 z" fill="#c7c9cc"></path><path d="M-83.00,55.80 -99.00,47.80 -83.00,39.80 -67.00,47.80 z" fill="#ebedf0"></path></g> <g data-week="0" data-day="6" class="day"><path d="M-99.60,64.40 -115.60,56.40 -115.60,59.60 -99.60,67.60 z" fill="#b0b1b4"></path><path d="M-99.60,64.40 -83.60,56.40 -83.60,59.60 -99.60,67.60 z" fill="#c7c9cc"></path><path d="M-99.60,64.40 -115.60,56.40 -99.60,48.40 -83.60,56.40 z" fill="#ebedf0"></path></g> <g data-week="1" data-day="0" class="day"><path d="M16.60,8.60 0.60,0.60 0.60,16.60 16.60,24.60 z" fill="#74ae7e"></path><path d="M16.60,8.60 32.60,0.60 32.60,16.60 16.60,24.60 z" fill="#83c68e"></path><path d="M16.60,8.60 0.60,0.60 16.60,-7.40 32.60,0.60 z" fill="#9be9a8"></path></g> <g data-week="1" data-day="1" class="day"><path d="M0.00,30.00 -16.00,22.00 -16.00,25.20 0.00,33.20 z" fill="#b0b1b4"></path><path d="M0.00,30.00 16.00,22.00 16.00,25.20 0.00,33.20 z" fill="#c7c9cc"></path><path d="M0.00,30.00 -16.00,22.00 0.00,14.00 16.00,22.00 z" fill="#ebedf0"></path></g> <g data-week="1" data-day="2" class="day"><path d="M-16.60,38.60 -32.60,30.60 -32.60,33.80 -16.60,41.80 z" fill="#b0b1b4"></path><path d="M-16.60,38.60 -0.60,30.60 -0.60,33.80 -16.60,41.80 z" fill="#c7c9cc"></path><path d="M-16.60,38.60 -32.60,30.60 -16.60,22.60 -0.60,30.60 z" fill="#ebedf0"></path></g> <g data-week="1" data-day="3" class="day"><path d="M-33.20,47.20 -49.20,39.20 -49.20,42.40 -33.20,50.40 z" fill="#b0b1b4"></path><path d="M-33.20,47.20 -17.20,39.20 -17.20,42.40 -33.20,50.40 z" fill="#c7c9cc"></path><path d="M-33.20,47.20 -49.20,39.20 -33.20,31.20 -17.20,39.20 z" fill="#ebedf0"></path></g> <g data-week="1" data-day="4" class="day"><path d="M-49.80,55.80 -65.80,47.80 -65.80,51.00 -49.80,59.00 z" fill="#b0b1b4"></path><path d="M-49.80,55.80 -33.80,47.80 -33.80,51.00 -49.80,59.00 z" fill="#c7c9cc"></path><path d="M-49.80,55.80 -65.80,47.80 -49.80,39.80 -33.80,47.80 z" fill="#ebedf0"></path></g> <g data-week="1" data-day="5" class="day"><path d="M-66.40,64.40 -82.40,56.40 -82.40,59.60 -66.40,67.60 z" fill="#b0b1b4"></path><path d="M-66.40,64.40 -50.40,56.40 -50.40,59.60 -66.40,67.60 z" fill="#c7c9cc"></path><path d="M-66.40,64.40 -82.40,56.40 -66.40,48.40 -50.40,56.40 z" fill="#ebedf0"></path></g> <g data-week="1" data-day="6" class="day"><path d="M-83.00,73.00 -99.00,65.00 -99.00,68.20 -83.00,76.20 z" fill="#b0b1b4"></path><path d="M-83.00,73.00 -67.00,65.00 -67.00,68.20 -83.00,76.20 z" fill="#c7c9cc"></path><path d="M-83.00,73.00 -99.00,65.00 -83.00,57.00 -67.00,65.00 z" fill="#ebedf0"></path></g> <g data-week="2" data-day="0" class="day"><path d="M33.20,30.00 17.20,22.00 17.20,25.20 33.20,33.20 z" fill="#b0b1b4"></path><path d="M33.20,30.00 49.20,22.00 49.20,25.20 33.20,33.20 z" fill="#c7c9cc"></path><path d="M33.20,30.00 17.20,22.00 33.20,14.00 49.20,22.00 z" fill="#ebedf0"></path></g> <g data-week="2" data-day="1" class="day"><path d="M16.60,38.60 0.60,30.60 0.60,33.80 16.60,41.80 z" fill="#b0b1b4"></path><path d="M16.60,38.60 32.60,30.60 32.60,33.80 16.60,41.80 z" fill="#c7c9cc"></path><path d="M16.60,38.60 0.60,30.60 16.60,22.60 32.60,30.60 z" fill="#ebedf0"></path></g> <g data-week="2" data-day="2" class="day"><path d="M0.00,34.40 -16.00,26.40 -16.00,42.40 0.00,50.40 z" fill="#24783a"></path><path d="M0.00,34.40 16.00,26.40 16.00,42.40 0.00,50.40 z" fill="#288842"></path><path d="M0.00,34.40 -16.00,26.40 0.00,18.40 16.00,26.40 z" fill="#30a14e"></path></g> <g data-week="2" data-day="3" class="day"><path d="M-16.60,43.00 -32.60,35.00 -32.60,51.00 -16.60,59.00 z" fill="#30934a"></path><path d="M-16.60,43.00 -0.60,35.00 -0.60,51.00 -16.60,59.00 z" fill="#36a654"></path><path d="M-16.60,43.00 -32.60,35.00 -16.60,27.00 -0.60,35.00 z" fill="#40c463"></path></g> <g data-week="2" data-day="4" class="day"><path d="M-33.20,51.60 -49.20,43.60 -49.20,59.60 -33.20,67.60 z" fill="#74ae7e"></path><path d="M-33.20,51.60 -17.20,43.60 -17.20,59.60 -33.20,67.60 z" fill="#83c68e"></path><path d="M-33.20,51.60 -49.20,43.60 -33.20,35.60 -17.20,43.60 z" fill="#9be9a8"></path></g> <g data-week="2" data-day="5" class="day"><path d="M-49.80,73.00 -65.80,65.00 -65.80,68.20 -49.80,76.20 z" fill="#b0b1b4"></path><path d="M-49.80,73.00 -33.80,65.00 -33.80,68.20 -49.80,76.20 z" fill="#c7c9cc"></path><path d="M-49.80,73.00 -65.80,65.00 -49.80,57.00 -33.80,65.00 z" fill="#ebedf0"></path></g> <g data-week="2" data-day="6" class="day"><path d="M-66.40,68.80 -82.40,60.80 -82.40,76.80 -66.40,84.80 z" fill="#30934a"></path><path d="M-66.40,68.80 -50.40,60.80 -50.40,76.80 -66.40,84.80 z" fill="#36a654"></path><path d="M-66.40,68.80 -82.40,60.80 -66.40,52.80 -50.40,60.80 z" fill="#40c463"></path></g> <g data-week="3" data-day="0" class="day"><path d="M49.80,25.80 33.80,17.80 33.80,33.80 49.80,41.80 z" fill="#18522a"></path><path d="M49.80,25.80 65.80,17.80 65.80,33.80 49.80,41.80 z" fill="#1c5d30"></path><path d="M49.80,25.80 33.80,17.80 49.80,9.80 65.80,17.80 z" fill="#216e39"></path></g> <g data-week="3" data-day="1" class="day"><path d="M33.20,34.40 17.20,26.40 17.20,42.40 33.20,50.40 z" fill="#30934a"></path><path d="M33.20,34.40 49.20,26.40 49.20,42.40 33.20,50.40 z" fill="#36a654"></path><path d="M33.20,34.40 17.20,26.40 33.20,18.40 49.20,26.40 z" fill="#40c463"></path></g> <g data-week="3" data-day="2" class="day"><path d="M16.60,43.00 0.60,35.00 0.60,51.00 16.60,59.00 z" fill="#24783a"></path><path d="M16.60,43.00 32.60,35.00 32.60,51.00 16.60,59.00 z" fill="#288842"></path><path d="M16.60,43.00 0.60,35.00 16.60,27.00 32.60,35.00 z" fill="#30a14e"></path></g> <g data-week="3" data-day="3" class="day"><path d="M0.00,51.60 -16.00,43.60 -16.00,59.60 0.00,67.60 z" fill="#74ae7e"></path><path d="M0.00,51.60 16.00,43.60 16.00,59.60 0.00,67.60 z" fill="#83c68e"></path><path d="M0.00,51.60 -16.00,43.60 0.00,35.60 16.00,43.60 z" fill="#9be9a8"></path></g> <g data-week="3" data-day="4" class="day"><path d="M-16.60,60.20 -32.60,52.20 -32.60,68.20 -16.60,76.20 z" fill="#30934a"></path><path d="M-16.60,60.20 -0.60,52.20 -0.60,68.20 -16.60,76.20 z" fill="#36a654"></path><path d="M-16.60,60.20 -32.60,52.20 -16.60,44.20 -0.60,52.20 z" fill="#40c463"></path></g> <g data-week="3" data-day="5" class="day"><path d="M-33.20,68.80 -49.20,60.80 -49.20,76.80 -33.20,84.80 z" fill="#74ae7e"></path><path d="M-33.20,68.80 -17.20,60.80 -17.20,76.80 -33.20,84.80 z" fill="#83c68e"></path><path d="M-33.20,68.80 -49.20,60.80 -33.20,52.80 -17.20,60.80 z" fill="#9be9a8"></path></g> <g data-week="3" data-day="6" class="day"><path d="M-49.80,77.40 -65.80,69.40 -65.80,85.40 -49.80,93.40 z" fill="#74ae7e"></path><path d="M-49.80,77.40 -33.80,69.40 -33.80,85.40 -49.80,93.40 z" fill="#83c68e"></path><path d="M-49.80,77.40 -65.80,69.40 -49.80,61.40 -33.80,69.40 z" fill="#9be9a8"></path></g> <g data-week="4" data-day="0" class="day"><path d="M66.40,34.40 50.40,26.40 50.40,42.40 66.40,50.40 z" fill="#74ae7e"></path><path d="M66.40,34.40 82.40,26.40 82.40,42.40 66.40,50.40 z" fill="#83c68e"></path><path d="M66.40,34.40 50.40,26.40 66.40,18.40 82.40,26.40 z" fill="#9be9a8"></path></g> <g data-week="4" data-day="1" class="day"><path d="M49.80,43.00 33.80,35.00 33.80,51.00 49.80,59.00 z" fill="#24783a"></path><path d="M49.80,43.00 65.80,35.00 65.80,51.00 49.80,59.00 z" fill="#288842"></path><path d="M49.80,43.00 33.80,35.00 49.80,27.00 65.80,35.00 z" fill="#30a14e"></path></g> <g data-week="4" data-day="2" class="day"><path d="M33.20,51.60 17.20,43.60 17.20,59.60 33.20,67.60 z" fill="#24783a"></path><path d="M33.20,51.60 49.20,43.60 49.20,59.60 33.20,67.60 z" fill="#288842"></path><path d="M33.20,51.60 17.20,43.60 33.20,35.60 49.20,43.60 z" fill="#30a14e"></path></g> <g data-week="4" data-day="3" class="day"><path d="M16.60,60.20 0.60,52.20 0.60,68.20 16.60,76.20 z" fill="#30934a"></path><path d="M16.60,60.20 32.60,52.20 32.60,68.20 16.60,76.20 z" fill="#36a654"></path><path d="M16.60,60.20 0.60,52.20 16.60,44.20 32.60,52.20 z" fill="#40c463"></path></g> <g data-week="4" data-day="4" class="day"><path d="M0.00,68.80 -16.00,60.80 -16.00,76.80 0.00,84.80 z" fill="#74ae7e"></path><path d="M0.00,68.80 16.00,60.80 16.00,76.80 0.00,84.80 z" fill="#83c68e"></path><path d="M0.00,68.80 -16.00,60.80 0.00,52.80 16.00,60.80 z" fill="#9be9a8"></path></g> <g data-week="4" data-day="5" class="day"><path d="M-16.60,77.40 -32.60,69.40 -32.60,85.40 -16.60,93.40 z" fill="#74ae7e"></path><path d="M-16.60,77.40 -0.60,69.40 -0.60,85.40 -16.60,93.40 z" fill="#83c68e"></path><path d="M-16.60,77.40 -32.60,69.40 -16.60,61.40 -0.60,69.40 z" fill="#9be9a8"></path></g> <g data-week="4" data-day="6" class="day"><path d="M-33.20,98.80 -49.20,90.80 -49.20,94.00 -33.20,102.00 z" fill="#b0b1b4"></path><path d="M-33.20,98.80 -17.20,90.80 -17.20,94.00 -33.20,102.00 z" fill="#c7c9cc"></path><path d="M-33.20,98.80 -49.20,90.80 -33.20,82.80 -17.20,90.80 z" fill="#ebedf0"></path></g> <g data-week="5" data-day="0" class="day"><path d="M83.00,43.00 67.00,35.00 67.00,51.00 83.00,59.00 z" fill="#74ae7e"></path><path d="M83.00,43.00 99.00,35.00 99.00,51.00 83.00,59.00 z" fill="#83c68e"></path><path d="M83.00,43.00 67.00,35.00 83.00,27.00 99.00,35.00 z" fill="#9be9a8"></path></g> <g data-week="5" data-day="1" class="day"><path d="M66.40,51.60 50.40,43.60 50.40,59.60 66.40,67.60 z" fill="#74ae7e"></path><path d="M66.40,51.60 82.40,43.60 82.40,59.60 66.40,67.60 z" fill="#83c68e"></path><path d="M66.40,51.60 50.40,43.60 66.40,35.60 82.40,43.60 z" fill="#9be9a8"></path></g> <g data-week="5" data-day="2" class="day"><path d="M49.80,73.00 33.80,65.00 33.80,68.20 49.80,76.20 z" fill="#b0b1b4"></path><path d="M49.80,73.00 65.80,65.00 65.80,68.20 49.80,76.20 z" fill="#c7c9cc"></path><path d="M49.80,73.00 33.80,65.00 49.80,57.00 65.80,65.00 z" fill="#ebedf0"></path></g> <g data-week="5" data-day="3" class="day"><path d="M33.20,68.80 17.20,60.80 17.20,76.80 33.20,84.80 z" fill="#74ae7e"></path><path d="M33.20,68.80 49.20,60.80 49.20,76.80 33.20,84.80 z" fill="#83c68e"></path><path d="M33.20,68.80 17.20,60.80 33.20,52.80 49.20,60.80 z" fill="#9be9a8"></path></g> <g data-week="5" data-day="4" class="day"><path d="M16.60,90.20 0.60,82.20 0.60,85.40 16.60,93.40 z" fill="#b0b1b4"></path><path d="M16.60,90.20 32.60,82.20 32.60,85.40 16.60,93.40 z" fill="#c7c9cc"></path><path d="M16.60,90.20 0.60,82.20 16.60,74.20 32.60,82.20 z" fill="#ebedf0"></path></g> <g data-week="5" data-day="5" class="day"><path d="M0.00,98.80 -16.00,90.80 -16.00,94.00 0.00,102.00 z" fill="#b0b1b4"></path><path d="M0.00,98.80 16.00,90.80 16.00,94.00 0.00,102.00 z" fill="#c7c9cc"></path><path d="M0.00,98.80 -16.00,90.80 0.00,82.80 16.00,90.80 z" fill="#ebedf0"></path></g> <g data-week="5" data-day="6" class="day"><path d="M-16.60,107.40 -32.60,99.40 -32.60,102.60 -16.60,110.60 z" fill="#b0b1b4"></path><path d="M-16.60,107.40 -0.60,99.40 -0.60,102.60 -16.60,110.60 z" fill="#c7c9cc"></path><path d="M-16.60,107.40 -32.60,99.40 -16.60,91.40 -0.60,99.40 z" fill="#ebedf0"></path></g> <g data-week="6" data-day="0" class="day"><path d="M99.60,51.60 83.60,43.60 83.60,59.60 99.60,67.60 z" fill="#30934a"></path><path d="M99.60,51.60 115.60,43.60 115.60,59.60 99.60,67.60 z" fill="#36a654"></path><path d="M99.60,51.60 83.60,43.60 99.60,35.60 115.60,43.60 z" fill="#40c463"></path></g> <g data-week="6" data-day="1" class="day"><path d="M83.00,73.00 67.00,65.00 67.00,68.20 83.00,76.20 z" fill="#b0b1b4"></path><path d="M83.00,73.00 99.00,65.00 99.00,68.20 83.00,76.20 z" fill="#c7c9cc"></path><path d="M83.00,73.00 67.00,65.00 83.00,57.00 99.00,65.00 z" fill="#ebedf0"></path></g> <g data-week="6" data-day="2" class="day"><path d="M66.40,81.60 50.40,73.60 50.40,76.80 66.40,84.80 z" fill="#b0b1b4"></path><path d="M66.40,81.60 82.40,73.60 82.40,76.80 66.40,84.80 z" fill="#c7c9cc"></path><path d="M66.40,81.60 50.40,73.60 66.40,65.60 82.40,73.60 z" fill="#ebedf0"></path></g> <g data-week="6" data-day="3" class="day"><path d="M49.80,90.20 33.80,82.20 33.80,85.40 49.80,93.40 z" fill="#b0b1b4"></path><path d="M49.80,90.20 65.80,82.20 65.80,85.40 49.80,93.40 z" fill="#c7c9cc"></path><path d="M49.80,90.20 33.80,82.20 49.80,74.20 65.80,82.20 z" fill="#ebedf0"></path></g> <g data-week="6" data-day="4" class="day"><path d="M33.20,98.80 17.20,90.80 17.20,94.00 33.20,102.00 z" fill="#b0b1b4"></path><path d="M33.20,98.80 49.20,90.80 49.20,94.00 33.20,102.00 z" fill="#c7c9cc"></path><path d="M33.20,98.80 17.20,90.80 33.20,82.80 49.20,90.80 z" fill="#ebedf0"></path></g> <g data-week="6" data-day="5" class="day"><path d="M16.60,107.40 0.60,99.40 0.60,102.60 16.60,110.60 z" fill="#b0b1b4"></path><path d="M16.60,107.40 32.60,99.40 32.60,102.60 16.60,110.60 z" fill="#c7c9cc"></path><path d="M16.60,107.40 0.60,99.40 16.60,91.40 32.60,99.40 z" fill="#ebedf0"></path></g> <g data-week="6" data-day="6" class="day"><path d="M0.00,103.20 -16.00,95.20 -16.00,111.20 0.00,119.20 z" fill="#30934a"></path><path d="M0.00,103.20 16.00,95.20 16.00,111.20 0.00,119.20 z" fill="#36a654"></path><path d="M0.00,103.20 -16.00,95.20 0.00,87.20 16.00,95.20 z" fill="#40c463"></path></g> <g data-week="7" data-day="0" class="day"><path d="M116.20,60.20 100.20,52.20 100.20,68.20 116.20,76.20 z" fill="#74ae7e"></path><path d="M116.20,60.20 132.20,52.20 132.20,68.20 116.20,76.20 z" fill="#83c68e"></path><path d="M116.20,60.20 100.20,52.20 116.20,44.20 132.20,52.20 z" fill="#9be9a8"></path></g> <g data-week="7" data-day="1" class="day"><path d="M99.60,68.80 83.60,60.80 83.60,76.80 99.60,84.80 z" fill="#74ae7e"></path><path d="M99.60,68.80 115.60,60.80 115.60,76.80 99.60,84.80 z" fill="#83c68e"></path><path d="M99.60,68.80 83.60,60.80 99.60,52.80 115.60,60.80 z" fill="#9be9a8"></path></g> <g data-week="7" data-day="2" class="day"><path d="M83.00,90.20 67.00,82.20 67.00,85.40 83.00,93.40 z" fill="#b0b1b4"></path><path d="M83.00,90.20 99.00,82.20 99.00,85.40 83.00,93.40 z" fill="#c7c9cc"></path><path d="M83.00,90.20 67.00,82.20 83.00,74.20 99.00,82.20 z" fill="#ebedf0"></path></g> <g data-week="7" data-day="3" class="day"><path d="M66.40,98.80 50.40,90.80 50.40,94.00 66.40,102.00 z" fill="#b0b1b4"></path><path d="M66.40,98.80 82.40,90.80 82.40,94.00 66.40,102.00 z" fill="#c7c9cc"></path><path d="M66.40,98.80 50.40,90.80 66.40,82.80 82.40,90.80 z" fill="#ebedf0"></path></g> <g data-week="7" data-day="4" class="day"><path d="M49.80,107.40 33.80,99.40 33.80,102.60 49.80,110.60 z" fill="#b0b1b4"></path><path d="M49.80,107.40 65.80,99.40 65.80,102.60 49.80,110.60 z" fill="#c7c9cc"></path><path d="M49.80,107.40 33.80,99.40 49.80,91.40 65.80,99.40 z" fill="#ebedf0"></path></g> <g data-week="7" data-day="5" class="day"><path d="M33.20,116.00 17.20,108.00 17.20,111.20 33.20,119.20 z" fill="#b0b1b4"></path><path d="M33.20,116.00 49.20,108.00 49.20,111.20 33.20,119.20 z" fill="#c7c9cc"></path><path d="M33.20,116.00 17.20,108.00 33.20,100.00 49.20,108.00 z" fill="#ebedf0"></path></g> <g data-week="7" data-day="6" class="day"><path d="M16.60,111.80 0.60,103.80 0.60,119.80 16.60,127.80 z" fill="#74ae7e"></path><path d="M16.60,111.80 32.60,103.80 32.60,119.80 16.60,127.80 z" fill="#83c68e"></path><path d="M16.60,111.80 0.60,103.80 16.60,95.80 32.60,103.80 z" fill="#9be9a8"></path></g> <g data-week="8" data-day="0" class="day"><path d="M132.80,81.60 116.80,73.60 116.80,76.80 132.80,84.80 z" fill="#b0b1b4"></path><path d="M132.80,81.60 148.80,73.60 148.80,76.80 132.80,84.80 z" fill="#c7c9cc"></path><path d="M132.80,81.60 116.80,73.60 132.80,65.60 148.80,73.60 z" fill="#ebedf0"></path></g> <g data-week="8" data-day="1" class="day"><path d="M116.20,77.40 100.20,69.40 100.20,85.40 116.20,93.40 z" fill="#74ae7e"></path><path d="M116.20,77.40 132.20,69.40 132.20,85.40 116.20,93.40 z" fill="#83c68e"></path><path d="M116.20,77.40 100.20,69.40 116.20,61.40 132.20,69.40 z" fill="#9be9a8"></path></g> <g data-week="8" data-day="2" class="day"><path d="M99.60,98.80 83.60,90.80 83.60,94.00 99.60,102.00 z" fill="#b0b1b4"></path><path d="M99.60,98.80 115.60,90.80 115.60,94.00 99.60,102.00 z" fill="#c7c9cc"></path><path d="M99.60,98.80 83.60,90.80 99.60,82.80 115.60,90.80 z" fill="#ebedf0"></path></g> <g data-week="8" data-day="3" class="day"><path d="M83.00,107.40 67.00,99.40 67.00,102.60 83.00,110.60 z" fill="#b0b1b4"></path><path d="M83.00,107.40 99.00,99.40 99.00,102.60 83.00,110.60 z" fill="#c7c9cc"></path><path d="M83.00,107.40 67.00,99.40 83.00,91.40 99.00,99.40 z" fill="#ebedf0"></path></g> <g data-week="8" data-day="4" class="day"><path d="M66.40,103.20 50.40,95.20 50.40,111.20 66.40,119.20 z" fill="#74ae7e"></path><path d="M66.40,103.20 82.40,95.20 82.40,111.20 66.40,119.20 z" fill="#83c68e"></path><path d="M66.40,103.20 50.40,95.20 66.40,87.20 82.40,95.20 z" fill="#9be9a8"></path></g> <g data-week="8" data-day="5" class="day"><path d="M49.80,124.60 33.80,116.60 33.80,119.80 49.80,127.80 z" fill="#b0b1b4"></path><path d="M49.80,124.60 65.80,116.60 65.80,119.80 49.80,127.80 z" fill="#c7c9cc"></path><path d="M49.80,124.60 33.80,116.60 49.80,108.60 65.80,116.60 z" fill="#ebedf0"></path></g> <g data-week="8" data-day="6" class="day"><path d="M33.20,133.20 17.20,125.20 17.20,128.40 33.20,136.40 z" fill="#b0b1b4"></path><path d="M33.20,133.20 49.20,125.20 49.20,128.40 33.20,136.40 z" fill="#c7c9cc"></path><path d="M33.20,133.20 17.20,125.20 33.20,117.20 49.20,125.20 z" fill="#ebedf0"></path></g> <g data-week="9" data-day="0" class="day"><path d="M149.40,90.20 133.40,82.20 133.40,85.40 149.40,93.40 z" fill="#b0b1b4"></path><path d="M149.40,90.20 165.40,82.20 165.40,85.40 149.40,93.40 z" fill="#c7c9cc"></path><path d="M149.40,90.20 133.40,82.20 149.40,74.20 165.40,82.20 z" fill="#ebedf0"></path></g> <g data-week="9" data-day="1" class="day"><path d="M132.80,98.80 116.80,90.80 116.80,94.00 132.80,102.00 z" fill="#b0b1b4"></path><path d="M132.80,98.80 148.80,90.80 148.80,94.00 132.80,102.00 z" fill="#c7c9cc"></path><path d="M132.80,98.80 116.80,90.80 132.80,82.80 148.80,90.80 z" fill="#ebedf0"></path></g> <g data-week="9" data-day="2" class="day"><path d="M116.20,107.40 100.20,99.40 100.20,102.60 116.20,110.60 z" fill="#b0b1b4"></path><path d="M116.20,107.40 132.20,99.40 132.20,102.60 116.20,110.60 z" fill="#c7c9cc"></path><path d="M116.20,107.40 100.20,99.40 116.20,91.40 132.20,99.40 z" fill="#ebedf0"></path></g> <g data-week="9" data-day="3" class="day"><path d="M99.60,116.00 83.60,108.00 83.60,111.20 99.60,119.20 z" fill="#b0b1b4"></path><path d="M99.60,116.00 115.60,108.00 115.60,111.20 99.60,119.20 z" fill="#c7c9cc"></path><path d="M99.60,116.00 83.60,108.00 99.60,100.00 115.60,108.00 z" fill="#ebedf0"></path></g> <g data-week="9" data-day="4" class="day"><path d="M83.00,111.80 67.00,103.80 67.00,119.80 83.00,127.80 z" fill="#30934a"></path><path d="M83.00,111.80 99.00,103.80 99.00,119.80 83.00,127.80 z" fill="#36a654"></path><path d="M83.00,111.80 67.00,103.80 83.00,95.80 99.00,103.80 z" fill="#40c463"></path></g> <g data-week="9" data-day="5" class="day"><path d="M66.40,133.20 50.40,125.20 50.40,128.40 66.40,136.40 z" fill="#b0b1b4"></path><path d="M66.40,133.20 82.40,125.20 82.40,128.40 66.40,136.40 z" fill="#c7c9cc"></path><path d="M66.40,133.20 50.40,125.20 66.40,117.20 82.40,125.20 z" fill="#ebedf0"></path></g> <g data-week="9" data-day="6" class="day"><path d="M49.80,129.00 33.80,121.00 33.80,137.00 49.80,145.00 z" fill="#74ae7e"></path><path d="M49.80,129.00 65.80,121.00 65.80,137.00 49.80,145.00 z" fill="#83c68e"></path><path d="M49.80,129.00 33.80,121.00 49.80,113.00 65.80,121.00 z" fill="#9be9a8"></path></g> <g data-week="10" data-day="0" class="day"><path d="M166.00,98.80 150.00,90.80 150.00,94.00 166.00,102.00 z" fill="#b0b1b4"></path><path d="M166.00,98.80 182.00,90.80 182.00,94.00 166.00,102.00 z" fill="#c7c9cc"></path><path d="M166.00,98.80 150.00,90.80 166.00,82.80 182.00,90.80 z" fill="#ebedf0"></path></g> <g data-week="10" data-day="1" class="day"><path d="M149.40,107.40 133.40,99.40 133.40,102.60 149.40,110.60 z" fill="#b0b1b4"></path><path d="M149.40,107.40 165.40,99.40 165.40,102.60 149.40,110.60 z" fill="#c7c9cc"></path><path d="M149.40,107.40 133.40,99.40 149.40,91.40 165.40,99.40 z" fill="#ebedf0"></path></g> <g data-week="10" data-day="2" class="day"><path d="M132.80,103.20 116.80,95.20 116.80,111.20 132.80,119.20 z" fill="#30934a"></path><path d="M132.80,103.20 148.80,95.20 148.80,111.20 132.80,119.20 z" fill="#36a654"></path><path d="M132.80,103.20 116.80,95.20 132.80,87.20 148.80,95.20 z" fill="#40c463"></path></g> <g data-week="10" data-day="3" class="day"><path d="M116.20,124.60 100.20,116.60 100.20,119.80 116.20,127.80 z" fill="#b0b1b4"></path><path d="M116.20,124.60 132.20,116.60 132.20,119.80 116.20,127.80 z" fill="#c7c9cc"></path><path d="M116.20,124.60 100.20,116.60 116.20,108.60 132.20,116.60 z" fill="#ebedf0"></path></g> <g data-week="10" data-day="4" class="day"><path d="M99.60,133.20 83.60,125.20 83.60,128.40 99.60,136.40 z" fill="#b0b1b4"></path><path d="M99.60,133.20 115.60,125.20 115.60,128.40 99.60,136.40 z" fill="#c7c9cc"></path><path d="M99.60,133.20 83.60,125.20 99.60,117.20 115.60,125.20 z" fill="#ebedf0"></path></g> <g data-week="10" data-day="5" class="day"><path d="M83.00,141.80 67.00,133.80 67.00,137.00 83.00,145.00 z" fill="#b0b1b4"></path><path d="M83.00,141.80 99.00,133.80 99.00,137.00 83.00,145.00 z" fill="#c7c9cc"></path><path d="M83.00,141.80 67.00,133.80 83.00,125.80 99.00,133.80 z" fill="#ebedf0"></path></g> <g data-week="10" data-day="6" class="day"><path d="M66.40,150.40 50.40,142.40 50.40,145.60 66.40,153.60 z" fill="#b0b1b4"></path><path d="M66.40,150.40 82.40,142.40 82.40,145.60 66.40,153.60 z" fill="#c7c9cc"></path><path d="M66.40,150.40 50.40,142.40 66.40,134.40 82.40,142.40 z" fill="#ebedf0"></path></g> <g data-week="11" data-day="0" class="day"><path d="M182.60,94.60 166.60,86.60 166.60,102.60 182.60,110.60 z" fill="#74ae7e"></path><path d="M182.60,94.60 198.60,86.60 198.60,102.60 182.60,110.60 z" fill="#83c68e"></path><path d="M182.60,94.60 166.60,86.60 182.60,78.60 198.60,86.60 z" fill="#9be9a8"></path></g> <g data-week="11" data-day="1" class="day"><path d="M166.00,116.00 150.00,108.00 150.00,111.20 166.00,119.20 z" fill="#b0b1b4"></path><path d="M166.00,116.00 182.00,108.00 182.00,111.20 166.00,119.20 z" fill="#c7c9cc"></path><path d="M166.00,116.00 150.00,108.00 166.00,100.00 182.00,108.00 z" fill="#ebedf0"></path></g> <g data-week="11" data-day="2" class="day"><path d="M149.40,124.60 133.40,116.60 133.40,119.80 149.40,127.80 z" fill="#b0b1b4"></path><path d="M149.40,124.60 165.40,116.60 165.40,119.80 149.40,127.80 z" fill="#c7c9cc"></path><path d="M149.40,124.60 133.40,116.60 149.40,108.60 165.40,116.60 z" fill="#ebedf0"></path></g> <g data-week="11" data-day="3" class="day"><path d="M132.80,133.20 116.80,125.20 116.80,128.40 132.80,136.40 z" fill="#b0b1b4"></path><path d="M132.80,133.20 148.80,125.20 148.80,128.40 132.80,136.40 z" fill="#c7c9cc"></path><path d="M132.80,133.20 116.80,125.20 132.80,117.20 148.80,125.20 z" fill="#ebedf0"></path></g> <g data-week="11" data-day="4" class="day"><path d="M116.20,141.80 100.20,133.80 100.20,137.00 116.20,145.00 z" fill="#b0b1b4"></path><path d="M116.20,141.80 132.20,133.80 132.20,137.00 116.20,145.00 z" fill="#c7c9cc"></path><path d="M116.20,141.80 100.20,133.80 116.20,125.80 132.20,133.80 z" fill="#ebedf0"></path></g> <g data-week="11" data-day="5" class="day"><path d="M99.60,150.40 83.60,142.40 83.60,145.60 99.60,153.60 z" fill="#b0b1b4"></path><path d="M99.60,150.40 115.60,142.40 115.60,145.60 99.60,153.60 z" fill="#c7c9cc"></path><path d="M99.60,150.40 83.60,142.40 99.60,134.40 115.60,142.40 z" fill="#ebedf0"></path></g> <g data-week="11" data-day="6" class="day"><path d="M83.00,159.00 67.00,151.00 67.00,154.20 83.00,162.20 z" fill="#b0b1b4"></path><path d="M83.00,159.00 99.00,151.00 99.00,154.20 83.00,162.20 z" fill="#c7c9cc"></path><path d="M83.00,159.00 67.00,151.00 83.00,143.00 99.00,151.00 z" fill="#ebedf0"></path></g> <g data-week="12" data-day="0" class="day"><path d="M199.20,116.00 183.20,108.00 183.20,111.20 199.20,119.20 z" fill="#b0b1b4"></path><path d="M199.20,116.00 215.20,108.00 215.20,111.20 199.20,119.20 z" fill="#c7c9cc"></path><path d="M199.20,116.00 183.20,108.00 199.20,100.00 215.20,108.00 z" fill="#ebedf0"></path></g> <g data-week="12" data-day="1" class="day"><path d="M182.60,124.60 166.60,116.60 166.60,119.80 182.60,127.80 z" fill="#b0b1b4"></path><path d="M182.60,124.60 198.60,116.60 198.60,119.80 182.60,127.80 z" fill="#c7c9cc"></path><path d="M182.60,124.60 166.60,116.60 182.60,108.60 198.60,116.60 z" fill="#ebedf0"></path></g> <g data-week="12" data-day="2" class="day"><path d="M166.00,133.20 150.00,125.20 150.00,128.40 166.00,136.40 z" fill="#b0b1b4"></path><path d="M166.00,133.20 182.00,125.20 182.00,128.40 166.00,136.40 z" fill="#c7c9cc"></path><path d="M166.00,133.20 150.00,125.20 166.00,117.20 182.00,125.20 z" fill="#ebedf0"></path></g> <g data-week="12" data-day="3" class="day"><path d="M149.40,141.80 133.40,133.80 133.40,137.00 149.40,145.00 z" fill="#b0b1b4"></path><path d="M149.40,141.80 165.40,133.80 165.40,137.00 149.40,145.00 z" fill="#c7c9cc"></path><path d="M149.40,141.80 133.40,133.80 149.40,125.80 165.40,133.80 z" fill="#ebedf0"></path></g> <g data-week="12" data-day="4" class="day"><path d="M132.80,150.40 116.80,142.40 116.80,145.60 132.80,153.60 z" fill="#b0b1b4"></path><path d="M132.80,150.40 148.80,142.40 148.80,145.60 132.80,153.60 z" fill="#c7c9cc"></path><path d="M132.80,150.40 116.80,142.40 132.80,134.40 148.80,142.40 z" fill="#ebedf0"></path></g> <g data-week="12" data-day="5" class="day"><path d="M116.20,159.00 100.20,151.00 100.20,154.20 116.20,162.20 z" fill="#b0b1b4"></path><path d="M116.20,159.00 132.20,151.00 132.20,154.20 116.20,162.20 z" fill="#c7c9cc"></path><path d="M116.20,159.00 100.20,151.00 116.20,143.00 132.20,151.00 z" fill="#ebedf0"></path></g> <g data-week="12" data-day="6" class="day"><path d="M99.60,167.60 83.60,159.60 83.60,162.80 99.60,170.80 z" fill="#b0b1b4"></path><path d="M99.60,167.60 115.60,159.60 115.60,162.80 99.60,170.80 z" fill="#c7c9cc"></path><path d="M99.60,167.60 83.60,159.60 99.60,151.60 115.60,159.60 z" fill="#ebedf0"></path></g> <g data-week="13" data-day="0" class="day"><path d="M215.80,124.60 199.80,116.60 199.80,119.80 215.80,127.80 z" fill="#b0b1b4"></path><path d="M215.80,124.60 231.80,116.60 231.80,119.80 215.80,127.80 z" fill="#c7c9cc"></path><path d="M215.80,124.60 199.80,116.60 215.80,108.60 231.80,116.60 z" fill="#ebedf0"></path></g> <g data-week="13" data-day="1" class="day"><path d="M199.20,133.20 183.20,125.20 183.20,128.40 199.20,136.40 z" fill="#b0b1b4"></path><path d="M199.20,133.20 215.20,125.20 215.20,128.40 199.20,136.40 z" fill="#c7c9cc"></path><path d="M199.20,133.20 183.20,125.20 199.20,117.20 215.20,125.20 z" fill="#ebedf0"></path></g> <g data-week="13" data-day="2" class="day"><path d="M182.60,141.80 166.60,133.80 166.60,137.00 182.60,145.00 z" fill="#b0b1b4"></path><path d="M182.60,141.80 198.60,133.80 198.60,137.00 182.60,145.00 z" fill="#c7c9cc"></path><path d="M182.60,141.80 166.60,133.80 182.60,125.80 198.60,133.80 z" fill="#ebedf0"></path></g> <g data-week="13" data-day="3" class="day"><path d="M166.00,150.40 150.00,142.40 150.00,145.60 166.00,153.60 z" fill="#b0b1b4"></path><path d="M166.00,150.40 182.00,142.40 182.00,145.60 166.00,153.60 z" fill="#c7c9cc"></path><path d="M166.00,150.40 150.00,142.40 166.00,134.40 182.00,142.40 z" fill="#ebedf0"></path></g> <g data-week="13" data-day="4" class="day"><path d="M149.40,159.00 133.40,151.00 133.40,154.20 149.40,162.20 z" fill="#b0b1b4"></path><path d="M149.40,159.00 165.40,151.00 165.40,154.20 149.40,162.20 z" fill="#c7c9cc"></path><path d="M149.40,159.00 133.40,151.00 149.40,143.00 165.40,151.00 z" fill="#ebedf0"></path></g> <g data-week="13" data-day="5" class="day"><path d="M132.80,167.60 116.80,159.60 116.80,162.80 132.80,170.80 z" fill="#b0b1b4"></path><path d="M132.80,167.60 148.80,159.60 148.80,162.80 132.80,170.80 z" fill="#c7c9cc"></path><path d="M132.80,167.60 116.80,159.60 132.80,151.60 148.80,159.60 z" fill="#ebedf0"></path></g> <g data-week="13" data-day="6" class="day"><path d="M116.20,176.20 100.20,168.20 100.20,171.40 116.20,179.40 z" fill="#b0b1b4"></path><path d="M116.20,176.20 132.20,168.20 132.20,171.40 116.20,179.40 z" fill="#c7c9cc"></path><path d="M116.20,176.20 100.20,168.20 116.20,160.20 132.20,168.20 z" fill="#ebedf0"></path></g> <g data-week="14" data-day="0" class="day"><path d="M232.40,133.20 216.40,125.20 216.40,128.40 232.40,136.40 z" fill="#b0b1b4"></path><path d="M232.40,133.20 248.40,125.20 248.40,128.40 232.40,136.40 z" fill="#c7c9cc"></path><path d="M232.40,133.20 216.40,125.20 232.40,117.20 248.40,125.20 z" fill="#ebedf0"></path></g> <g data-week="14" data-day="1" class="day"><path d="M215.80,141.80 199.80,133.80 199.80,137.00 215.80,145.00 z" fill="#b0b1b4"></path><path d="M215.80,141.80 231.80,133.80 231.80,137.00 215.80,145.00 z" fill="#c7c9cc"></path><path d="M215.80,141.80 199.80,133.80 215.80,125.80 231.80,133.80 z" fill="#ebedf0"></path></g> <g data-week="14" data-day="2" class="day"><path d="M199.20,150.40 183.20,142.40 183.20,145.60 199.20,153.60 z" fill="#b0b1b4"></path><path d="M199.20,150.40 215.20,142.40 215.20,145.60 199.20,153.60 z" fill="#c7c9cc"></path><path d="M199.20,150.40 183.20,142.40 199.20,134.40 215.20,142.40 z" fill="#ebedf0"></path></g> <g data-week="14" data-day="3" class="day"><path d="M182.60,159.00 166.60,151.00 166.60,154.20 182.60,162.20 z" fill="#b0b1b4"></path><path d="M182.60,159.00 198.60,151.00 198.60,154.20 182.60,162.20 z" fill="#c7c9cc"></path><path d="M182.60,159.00 166.60,151.00 182.60,143.00 198.60,151.00 z" fill="#ebedf0"></path></g> <g data-week="14" data-day="4" class="day"><path d="M166.00,167.60 150.00,159.60 150.00,162.80 166.00,170.80 z" fill="#b0b1b4"></path><path d="M166.00,167.60 182.00,159.60 182.00,162.80 166.00,170.80 z" fill="#c7c9cc"></path><path d="M166.00,167.60 150.00,159.60 166.00,151.60 182.00,159.60 z" fill="#ebedf0"></path></g> <g data-week="14" data-day="5" class="day"><path d="M149.40,176.20 133.40,168.20 133.40,171.40 149.40,179.40 z" fill="#b0b1b4"></path><path d="M149.40,176.20 165.40,168.20 165.40,171.40 149.40,179.40 z" fill="#c7c9cc"></path><path d="M149.40,176.20 133.40,168.20 149.40,160.20 165.40,168.20 z" fill="#ebedf0"></path></g> <g data-week="14" data-day="6" class="day"><path d="M132.80,184.80 116.80,176.80 116.80,180.00 132.80,188.00 z" fill="#b0b1b4"></path><path d="M132.80,184.80 148.80,176.80 148.80,180.00 132.80,188.00 z" fill="#c7c9cc"></path><path d="M132.80,184.80 116.80,176.80 132.80,168.80 148.80,176.80 z" fill="#ebedf0"></path></g> <g data-week="15" data-day="0" class="day"><path d="M249.00,141.80 233.00,133.80 233.00,137.00 249.00,145.00 z" fill="#b0b1b4"></path><path d="M249.00,141.80 265.00,133.80 265.00,137.00 249.00,145.00 z" fill="#c7c9cc"></path><path d="M249.00,141.80 233.00,133.80 249.00,125.80 265.00,133.80 z" fill="#ebedf0"></path></g> <g data-week="15" data-day="1" class="day"><path d="M232.40,150.40 216.40,142.40 216.40,145.60 232.40,153.60 z" fill="#b0b1b4"></path><path d="M232.40,150.40 248.40,142.40 248.40,145.60 232.40,153.60 z" fill="#c7c9cc"></path><path d="M232.40,150.40 216.40,142.40 232.40,134.40 248.40,142.40 z" fill="#ebedf0"></path></g> <g data-week="15" data-day="2" class="day"><path d="M215.80,159.00 199.80,151.00 199.80,154.20 215.80,162.20 z" fill="#b0b1b4"></path><path d="M215.80,159.00 231.80,151.00 231.80,154.20 215.80,162.20 z" fill="#c7c9cc"></path><path d="M215.80,159.00 199.80,151.00 215.80,143.00 231.80,151.00 z" fill="#ebedf0"></path></g> <g data-week="15" data-day="3" class="day"><path d="M199.20,167.60 183.20,159.60 183.20,162.80 199.20,170.80 z" fill="#b0b1b4"></path><path d="M199.20,167.60 215.20,159.60 215.20,162.80 199.20,170.80 z" fill="#c7c9cc"></path><path d="M199.20,167.60 183.20,159.60 199.20,151.60 215.20,159.60 z" fill="#ebedf0"></path></g> <g data-week="15" data-day="4" class="day"><path d="M182.60,163.40 166.60,155.40 166.60,171.40 182.60,179.40 z" fill="#30934a"></path><path d="M182.60,163.40 198.60,155.40 198.60,171.40 182.60,179.40 z" fill="#36a654"></path><path d="M182.60,163.40 166.60,155.40 182.60,147.40 198.60,155.40 z" fill="#40c463"></path></g> <g data-week="15" data-day="5" class="day"><path d="M166.00,184.80 150.00,176.80 150.00,180.00 166.00,188.00 z" fill="#b0b1b4"></path><path d="M166.00,184.80 182.00,176.80 182.00,180.00 166.00,188.00 z" fill="#c7c9cc"></path><path d="M166.00,184.80 150.00,176.80 166.00,168.80 182.00,176.80 z" fill="#ebedf0"></path></g> <g data-week="15" data-day="6" class="day"><path d="M149.40,193.40 133.40,185.40 133.40,188.60 149.40,196.60 z" fill="#b0b1b4"></path><path d="M149.40,193.40 165.40,185.40 165.40,188.60 149.40,196.60 z" fill="#c7c9cc"></path><path d="M149.40,193.40 133.40,185.40 149.40,177.40 165.40,185.40 z" fill="#ebedf0"></path></g> <g data-week="16" data-day="0" class="day"><path d="M265.60,150.40 249.60,142.40 249.60,145.60 265.60,153.60 z" fill="#b0b1b4"></path><path d="M265.60,150.40 281.60,142.40 281.60,145.60 265.60,153.60 z" fill="#c7c9cc"></path><path d="M265.60,150.40 249.60,142.40 265.60,134.40 281.60,142.40 z" fill="#ebedf0"></path></g> <g data-week="16" data-day="1" class="day"><path d="M249.00,146.20 233.00,138.20 233.00,154.20 249.00,162.20 z" fill="#74ae7e"></path><path d="M249.00,146.20 265.00,138.20 265.00,154.20 249.00,162.20 z" fill="#83c68e"></path><path d="M249.00,146.20 233.00,138.20 249.00,130.20 265.00,138.20 z" fill="#9be9a8"></path></g> <g data-week="16" data-day="2" class="day"><path d="M232.40,154.80 216.40,146.80 216.40,162.80 232.40,170.80 z" fill="#74ae7e"></path><path d="M232.40,154.80 248.40,146.80 248.40,162.80 232.40,170.80 z" fill="#83c68e"></path><path d="M232.40,154.80 216.40,146.80 232.40,138.80 248.40,146.80 z" fill="#9be9a8"></path></g> <g data-week="16" data-day="3" class="day"><path d="M215.80,163.40 199.80,155.40 199.80,171.40 215.80,179.40 z" fill="#74ae7e"></path><path d="M215.80,163.40 231.80,155.40 231.80,171.40 215.80,179.40 z" fill="#83c68e"></path><path d="M215.80,163.40 199.80,155.40 215.80,147.40 231.80,155.40 z" fill="#9be9a8"></path></g> <g data-week="16" data-day="4" class="day"><path d="M199.20,184.80 183.20,176.80 183.20,180.00 199.20,188.00 z" fill="#b0b1b4"></path><path d="M199.20,184.80 215.20,176.80 215.20,180.00 199.20,188.00 z" fill="#c7c9cc"></path><path d="M199.20,184.80 183.20,176.80 199.20,168.80 215.20,176.80 z" fill="#ebedf0"></path></g> <g data-week="16" data-day="5" class="day"><path d="M182.60,193.40 166.60,185.40 166.60,188.60 182.60,196.60 z" fill="#b0b1b4"></path><path d="M182.60,193.40 198.60,185.40 198.60,188.60 182.60,196.60 z" fill="#c7c9cc"></path><path d="M182.60,193.40 166.60,185.40 182.60,177.40 198.60,185.40 z" fill="#ebedf0"></path></g> <g data-week="16" data-day="6" class="day"><path d="M166.00,202.00 150.00,194.00 150.00,197.20 166.00,205.20 z" fill="#b0b1b4"></path><path d="M166.00,202.00 182.00,194.00 182.00,197.20 166.00,205.20 z" fill="#c7c9cc"></path><path d="M166.00,202.00 150.00,194.00 166.00,186.00 182.00,194.00 z" fill="#ebedf0"></path></g> <g data-week="17" data-day="0" class="day"><path d="M282.20,159.00 266.20,151.00 266.20,154.20 282.20,162.20 z" fill="#b0b1b4"></path><path d="M282.20,159.00 298.20,151.00 298.20,154.20 282.20,162.20 z" fill="#c7c9cc"></path><path d="M282.20,159.00 266.20,151.00 282.20,143.00 298.20,151.00 z" fill="#ebedf0"></path></g> <g data-week="17" data-day="1" class="day"><path d="M265.60,167.60 249.60,159.60 249.60,162.80 265.60,170.80 z" fill="#b0b1b4"></path><path d="M265.60,167.60 281.60,159.60 281.60,162.80 265.60,170.80 z" fill="#c7c9cc"></path><path d="M265.60,167.60 249.60,159.60 265.60,151.60 281.60,159.60 z" fill="#ebedf0"></path></g> <g data-week="17" data-day="2" class="day"><path d="M249.00,163.40 233.00,155.40 233.00,171.40 249.00,179.40 z" fill="#74ae7e"></path><path d="M249.00,163.40 265.00,155.40 265.00,171.40 249.00,179.40 z" fill="#83c68e"></path><path d="M249.00,163.40 233.00,155.40 249.00,147.40 265.00,155.40 z" fill="#9be9a8"></path></g> <g data-week="17" data-day="3" class="day"><path d="M232.40,184.80 216.40,176.80 216.40,180.00 232.40,188.00 z" fill="#b0b1b4"></path><path d="M232.40,184.80 248.40,176.80 248.40,180.00 232.40,188.00 z" fill="#c7c9cc"></path><path d="M232.40,184.80 216.40,176.80 232.40,168.80 248.40,176.80 z" fill="#ebedf0"></path></g> <g data-week="17" data-day="4" class="day"><path d="M215.80,193.40 199.80,185.40 199.80,188.60 215.80,196.60 z" fill="#b0b1b4"></path><path d="M215.80,193.40 231.80,185.40 231.80,188.60 215.80,196.60 z" fill="#c7c9cc"></path><path d="M215.80,193.40 199.80,185.40 215.80,177.40 231.80,185.40 z" fill="#ebedf0"></path></g> <g data-week="17" data-day="5" class="day"><path d="M199.20,202.00 183.20,194.00 183.20,197.20 199.20,205.20 z" fill="#b0b1b4"></path><path d="M199.20,202.00 215.20,194.00 215.20,197.20 199.20,205.20 z" fill="#c7c9cc"></path><path d="M199.20,202.00 183.20,194.00 199.20,186.00 215.20,194.00 z" fill="#ebedf0"></path></g> <g data-week="17" data-day="6" class="day"><path d="M182.60,210.60 166.60,202.60 166.60,205.80 182.60,213.80 z" fill="#b0b1b4"></path><path d="M182.60,210.60 198.60,202.60 198.60,205.80 182.60,213.80 z" fill="#c7c9cc"></path><path d="M182.60,210.60 166.60,202.60 182.60,194.60 198.60,202.60 z" fill="#ebedf0"></path></g> <g data-week="18" data-day="0" class="day"><path d="M298.80,167.60 282.80,159.60 282.80,162.80 298.80,170.80 z" fill="#b0b1b4"></path><path d="M298.80,167.60 314.80,159.60 314.80,162.80 298.80,170.80 z" fill="#c7c9cc"></path><path d="M298.80,167.60 282.80,159.60 298.80,151.60 314.80,159.60 z" fill="#ebedf0"></path></g> <g data-week="18" data-day="1" class="day"><path d="M282.20,163.40 266.20,155.40 266.20,171.40 282.20,179.40 z" fill="#74ae7e"></path><path d="M282.20,163.40 298.20,155.40 298.20,171.40 282.20,179.40 z" fill="#83c68e"></path><path d="M282.20,163.40 266.20,155.40 282.20,147.40 298.20,155.40 z" fill="#9be9a8"></path></g> <g data-week="18" data-day="2" class="day"><path d="M265.60,184.80 249.60,176.80 249.60,180.00 265.60,188.00 z" fill="#b0b1b4"></path><path d="M265.60,184.80 281.60,176.80 281.60,180.00 265.60,188.00 z" fill="#c7c9cc"></path><path d="M265.60,184.80 249.60,176.80 265.60,168.80 281.60,176.80 z" fill="#ebedf0"></path></g> <g data-week="18" data-day="3" class="day"><path d="M249.00,193.40 233.00,185.40 233.00,188.60 249.00,196.60 z" fill="#b0b1b4"></path><path d="M249.00,193.40 265.00,185.40 265.00,188.60 249.00,196.60 z" fill="#c7c9cc"></path><path d="M249.00,193.40 233.00,185.40 249.00,177.40 265.00,185.40 z" fill="#ebedf0"></path></g> <g data-week="18" data-day="4" class="day"><path d="M232.40,202.00 216.40,194.00 216.40,197.20 232.40,205.20 z" fill="#b0b1b4"></path><path d="M232.40,202.00 248.40,194.00 248.40,197.20 232.40,205.20 z" fill="#c7c9cc"></path><path d="M232.40,202.00 216.40,194.00 232.40,186.00 248.40,194.00 z" fill="#ebedf0"></path></g> <g data-week="18" data-day="5" class="day"><path d="M215.80,210.60 199.80,202.60 199.80,205.80 215.80,213.80 z" fill="#b0b1b4"></path><path d="M215.80,210.60 231.80,202.60 231.80,205.80 215.80,213.80 z" fill="#c7c9cc"></path><path d="M215.80,210.60 199.80,202.60 215.80,194.60 231.80,202.60 z" fill="#ebedf0"></path></g> <g data-week="18" data-day="6" class="day"><path d="M199.20,219.20 183.20,211.20 183.20,214.40 199.20,222.40 z" fill="#b0b1b4"></path><path d="M199.20,219.20 215.20,211.20 215.20,214.40 199.20,222.40 z" fill="#c7c9cc"></path><path d="M199.20,219.20 183.20,211.20 199.20,203.20 215.20,211.20 z" fill="#ebedf0"></path></g> <g data-week="19" data-day="0" class="day"><path d="M315.40,176.20 299.40,168.20 299.40,171.40 315.40,179.40 z" fill="#b0b1b4"></path><path d="M315.40,176.20 331.40,168.20 331.40,171.40 315.40,179.40 z" fill="#c7c9cc"></path><path d="M315.40,176.20 299.40,168.20 315.40,160.20 331.40,168.20 z" fill="#ebedf0"></path></g> <g data-week="19" data-day="1" class="day"><path d="M298.80,184.80 282.80,176.80 282.80,180.00 298.80,188.00 z" fill="#b0b1b4"></path><path d="M298.80,184.80 314.80,176.80 314.80,180.00 298.80,188.00 z" fill="#c7c9cc"></path><path d="M298.80,184.80 282.80,176.80 298.80,168.80 314.80,176.80 z" fill="#ebedf0"></path></g> <g data-week="19" data-day="2" class="day"><path d="M282.20,193.40 266.20,185.40 266.20,188.60 282.20,196.60 z" fill="#b0b1b4"></path><path d="M282.20,193.40 298.20,185.40 298.20,188.60 282.20,196.60 z" fill="#c7c9cc"></path><path d="M282.20,193.40 266.20,185.40 282.20,177.40 298.20,185.40 z" fill="#ebedf0"></path></g> <g data-week="19" data-day="3" class="day"><path d="M265.60,202.00 249.60,194.00 249.60,197.20 265.60,205.20 z" fill="#b0b1b4"></path><path d="M265.60,202.00 281.60,194.00 281.60,197.20 265.60,205.20 z" fill="#c7c9cc"></path><path d="M265.60,202.00 249.60,194.00 265.60,186.00 281.60,194.00 z" fill="#ebedf0"></path></g> <g data-week="19" data-day="4" class="day"><path d="M249.00,210.60 233.00,202.60 233.00,205.80 249.00,213.80 z" fill="#b0b1b4"></path><path d="M249.00,210.60 265.00,202.60 265.00,205.80 249.00,213.80 z" fill="#c7c9cc"></path><path d="M249.00,210.60 233.00,202.60 249.00,194.60 265.00,202.60 z" fill="#ebedf0"></path></g> <g data-week="19" data-day="5" class="day"><path d="M232.40,219.20 216.40,211.20 216.40,214.40 232.40,222.40 z" fill="#b0b1b4"></path><path d="M232.40,219.20 248.40,211.20 248.40,214.40 232.40,222.40 z" fill="#c7c9cc"></path><path d="M232.40,219.20 216.40,211.20 232.40,203.20 248.40,211.20 z" fill="#ebedf0"></path></g> <g data-week="19" data-day="6" class="day"><path d="M215.80,227.80 199.80,219.80 199.80,223.00 215.80,231.00 z" fill="#b0b1b4"></path><path d="M215.80,227.80 231.80,219.80 231.80,223.00 215.80,231.00 z" fill="#c7c9cc"></path><path d="M215.80,227.80 199.80,219.80 215.80,211.80 231.80,219.80 z" fill="#ebedf0"></path></g> <g data-week="20" data-day="0" class="day"><path d="M332.00,184.80 316.00,176.80 316.00,180.00 332.00,188.00 z" fill="#b0b1b4"></path><path d="M332.00,184.80 348.00,176.80 348.00,180.00 332.00,188.00 z" fill="#c7c9cc"></path><path d="M332.00,184.80 316.00,176.80 332.00,168.80 348.00,176.80 z" fill="#ebedf0"></path></g> <g data-week="20" data-day="1" class="day"><path d="M315.40,193.40 299.40,185.40 299.40,188.60 315.40,196.60 z" fill="#b0b1b4"></path><path d="M315.40,193.40 331.40,185.40 331.40,188.60 315.40,196.60 z" fill="#c7c9cc"></path><path d="M315.40,193.40 299.40,185.40 315.40,177.40 331.40,185.40 z" fill="#ebedf0"></path></g> <g data-week="20" data-day="2" class="day"><path d="M298.80,202.00 282.80,194.00 282.80,197.20 298.80,205.20 z" fill="#b0b1b4"></path><path d="M298.80,202.00 314.80,194.00 314.80,197.20 298.80,205.20 z" fill="#c7c9cc"></path><path d="M298.80,202.00 282.80,194.00 298.80,186.00 314.80,194.00 z" fill="#ebedf0"></path></g> <g data-week="20" data-day="3" class="day"><path d="M282.20,210.60 266.20,202.60 266.20,205.80 282.20,213.80 z" fill="#b0b1b4"></path><path d="M282.20,210.60 298.20,202.60 298.20,205.80 282.20,213.80 z" fill="#c7c9cc"></path><path d="M282.20,210.60 266.20,202.60 282.20,194.60 298.20,202.60 z" fill="#ebedf0"></path></g> <g data-week="20" data-day="4" class="day"><path d="M265.60,219.20 249.60,211.20 249.60,214.40 265.60,222.40 z" fill="#b0b1b4"></path><path d="M265.60,219.20 281.60,211.20 281.60,214.40 265.60,222.40 z" fill="#c7c9cc"></path><path d="M265.60,219.20 249.60,211.20 265.60,203.20 281.60,211.20 z" fill="#ebedf0"></path></g> <g data-week="20" data-day="5" class="day"><path d="M249.00,227.80 233.00,219.80 233.00,223.00 249.00,231.00 z" fill="#b0b1b4"></path><path d="M249.00,227.80 265.00,219.80 265.00,223.00 249.00,231.00 z" fill="#c7c9cc"></path><path d="M249.00,227.80 233.00,219.80 249.00,211.80 265.00,219.80 z" fill="#ebedf0"></path></g> <g data-week="20" data-day="6" class="day"><path d="M232.40,236.40 216.40,228.40 216.40,231.60 232.40,239.60 z" fill="#b0b1b4"></path><path d="M232.40,236.40 248.40,228.40 248.40,231.60 232.40,239.60 z" fill="#c7c9cc"></path><path d="M232.40,236.40 216.40,228.40 232.40,220.40 248.40,228.40 z" fill="#ebedf0"></path></g> <g data-week="21" data-day="0" class="day"><path d="M348.60,193.40 332.60,185.40 332.60,188.60 348.60,196.60 z" fill="#b0b1b4"></path><path d="M348.60,193.40 364.60,185.40 364.60,188.60 348.60,196.60 z" fill="#c7c9cc"></path><path d="M348.60,193.40 332.60,185.40 348.60,177.40 364.60,185.40 z" fill="#ebedf0"></path></g> <g data-week="21" data-day="1" class="day"><path d="M332.00,202.00 316.00,194.00 316.00,197.20 332.00,205.20 z" fill="#b0b1b4"></path><path d="M332.00,202.00 348.00,194.00 348.00,197.20 332.00,205.20 z" fill="#c7c9cc"></path><path d="M332.00,202.00 316.00,194.00 332.00,186.00 348.00,194.00 z" fill="#ebedf0"></path></g> <g data-week="21" data-day="2" class="day"><path d="M315.40,210.60 299.40,202.60 299.40,205.80 315.40,213.80 z" fill="#b0b1b4"></path><path d="M315.40,210.60 331.40,202.60 331.40,205.80 315.40,213.80 z" fill="#c7c9cc"></path><path d="M315.40,210.60 299.40,202.60 315.40,194.60 331.40,202.60 z" fill="#ebedf0"></path></g> <g data-week="21" data-day="3" class="day"><path d="M298.80,219.20 282.80,211.20 282.80,214.40 298.80,222.40 z" fill="#b0b1b4"></path><path d="M298.80,219.20 314.80,211.20 314.80,214.40 298.80,222.40 z" fill="#c7c9cc"></path><path d="M298.80,219.20 282.80,211.20 298.80,203.20 314.80,211.20 z" fill="#ebedf0"></path></g> <g data-week="21" data-day="4" class="day"><path d="M282.20,227.80 266.20,219.80 266.20,223.00 282.20,231.00 z" fill="#b0b1b4"></path><path d="M282.20,227.80 298.20,219.80 298.20,223.00 282.20,231.00 z" fill="#c7c9cc"></path><path d="M282.20,227.80 266.20,219.80 282.20,211.80 298.20,219.80 z" fill="#ebedf0"></path></g> <g data-week="21" data-day="5" class="day"><path d="M265.60,236.40 249.60,228.40 249.60,231.60 265.60,239.60 z" fill="#b0b1b4"></path><path d="M265.60,236.40 281.60,228.40 281.60,231.60 265.60,239.60 z" fill="#c7c9cc"></path><path d="M265.60,236.40 249.60,228.40 265.60,220.40 281.60,228.40 z" fill="#ebedf0"></path></g> <g data-week="21" data-day="6" class="day"><path d="M249.00,232.20 233.00,224.20 233.00,240.20 249.00,248.20 z" fill="#74ae7e"></path><path d="M249.00,232.20 265.00,224.20 265.00,240.20 249.00,248.20 z" fill="#83c68e"></path><path d="M249.00,232.20 233.00,224.20 249.00,216.20 265.00,224.20 z" fill="#9be9a8"></path></g> <g data-week="22" data-day="0" class="day"><path d="M365.20,202.00 349.20,194.00 349.20,197.20 365.20,205.20 z" fill="#b0b1b4"></path><path d="M365.20,202.00 381.20,194.00 381.20,197.20 365.20,205.20 z" fill="#c7c9cc"></path><path d="M365.20,202.00 349.20,194.00 365.20,186.00 381.20,194.00 z" fill="#ebedf0"></path></g> <g data-week="22" data-day="1" class="day"><path d="M348.60,210.60 332.60,202.60 332.60,205.80 348.60,213.80 z" fill="#b0b1b4"></path><path d="M348.60,210.60 364.60,202.60 364.60,205.80 348.60,213.80 z" fill="#c7c9cc"></path><path d="M348.60,210.60 332.60,202.60 348.60,194.60 364.60,202.60 z" fill="#ebedf0"></path></g> <g data-week="22" data-day="2" class="day"><path d="M332.00,219.20 316.00,211.20 316.00,214.40 332.00,222.40 z" fill="#b0b1b4"></path><path d="M332.00,219.20 348.00,211.20 348.00,214.40 332.00,222.40 z" fill="#c7c9cc"></path><path d="M332.00,219.20 316.00,211.20 332.00,203.20 348.00,211.20 z" fill="#ebedf0"></path></g> <g data-week="22" data-day="3" class="day"><path d="M315.40,227.80 299.40,219.80 299.40,223.00 315.40,231.00 z" fill="#b0b1b4"></path><path d="M315.40,227.80 331.40,219.80 331.40,223.00 315.40,231.00 z" fill="#c7c9cc"></path><path d="M315.40,227.80 299.40,219.80 315.40,211.80 331.40,219.80 z" fill="#ebedf0"></path></g> <g data-week="22" data-day="4" class="day"><path d="M298.80,236.40 282.80,228.40 282.80,231.60 298.80,239.60 z" fill="#b0b1b4"></path><path d="M298.80,236.40 314.80,228.40 314.80,231.60 298.80,239.60 z" fill="#c7c9cc"></path><path d="M298.80,236.40 282.80,228.40 298.80,220.40 314.80,228.40 z" fill="#ebedf0"></path></g> <g data-week="22" data-day="5" class="day"><path d="M282.20,245.00 266.20,237.00 266.20,240.20 282.20,248.20 z" fill="#b0b1b4"></path><path d="M282.20,245.00 298.20,237.00 298.20,240.20 282.20,248.20 z" fill="#c7c9cc"></path><path d="M282.20,245.00 266.20,237.00 282.20,229.00 298.20,237.00 z" fill="#ebedf0"></path></g> <g data-week="22" data-day="6" class="day"><path d="M265.60,253.60 249.60,245.60 249.60,248.80 265.60,256.80 z" fill="#b0b1b4"></path><path d="M265.60,253.60 281.60,245.60 281.60,248.80 265.60,256.80 z" fill="#c7c9cc"></path><path d="M265.60,253.60 249.60,245.60 265.60,237.60 281.60,245.60 z" fill="#ebedf0"></path></g> <g data-week="23" data-day="0" class="day"><path d="M381.80,210.60 365.80,202.60 365.80,205.80 381.80,213.80 z" fill="#b0b1b4"></path><path d="M381.80,210.60 397.80,202.60 397.80,205.80 381.80,213.80 z" fill="#c7c9cc"></path><path d="M381.80,210.60 365.80,202.60 381.80,194.60 397.80,202.60 z" fill="#ebedf0"></path></g> <g data-week="23" data-day="1" class="day"><path d="M365.20,219.20 349.20,211.20 349.20,214.40 365.20,222.40 z" fill="#b0b1b4"></path><path d="M365.20,219.20 381.20,211.20 381.20,214.40 365.20,222.40 z" fill="#c7c9cc"></path><path d="M365.20,219.20 349.20,211.20 365.20,203.20 381.20,211.20 z" fill="#ebedf0"></path></g> <g data-week="23" data-day="2" class="day"><path d="M348.60,227.80 332.60,219.80 332.60,223.00 348.60,231.00 z" fill="#b0b1b4"></path><path d="M348.60,227.80 364.60,219.80 364.60,223.00 348.60,231.00 z" fill="#c7c9cc"></path><path d="M348.60,227.80 332.60,219.80 348.60,211.80 364.60,219.80 z" fill="#ebedf0"></path></g> <g data-week="23" data-day="3" class="day"><path d="M332.00,236.40 316.00,228.40 316.00,231.60 332.00,239.60 z" fill="#b0b1b4"></path><path d="M332.00,236.40 348.00,228.40 348.00,231.60 332.00,239.60 z" fill="#c7c9cc"></path><path d="M332.00,236.40 316.00,228.40 332.00,220.40 348.00,228.40 z" fill="#ebedf0"></path></g> <g data-week="23" data-day="4" class="day"><path d="M315.40,245.00 299.40,237.00 299.40,240.20 315.40,248.20 z" fill="#b0b1b4"></path><path d="M315.40,245.00 331.40,237.00 331.40,240.20 315.40,248.20 z" fill="#c7c9cc"></path><path d="M315.40,245.00 299.40,237.00 315.40,229.00 331.40,237.00 z" fill="#ebedf0"></path></g> <g data-week="23" data-day="5" class="day"><path d="M298.80,253.60 282.80,245.60 282.80,248.80 298.80,256.80 z" fill="#b0b1b4"></path><path d="M298.80,253.60 314.80,245.60 314.80,248.80 298.80,256.80 z" fill="#c7c9cc"></path><path d="M298.80,253.60 282.80,245.60 298.80,237.60 314.80,245.60 z" fill="#ebedf0"></path></g> <g data-week="23" data-day="6" class="day"><path d="M282.20,262.20 266.20,254.20 266.20,257.40 282.20,265.40 z" fill="#b0b1b4"></path><path d="M282.20,262.20 298.20,254.20 298.20,257.40 282.20,265.40 z" fill="#c7c9cc"></path><path d="M282.20,262.20 266.20,254.20 282.20,246.20 298.20,254.20 z" fill="#ebedf0"></path></g> <g data-week="24" data-day="0" class="day"><path d="M398.40,219.20 382.40,211.20 382.40,214.40 398.40,222.40 z" fill="#b0b1b4"></path><path d="M398.40,219.20 414.40,211.20 414.40,214.40 398.40,222.40 z" fill="#c7c9cc"></path><path d="M398.40,219.20 382.40,211.20 398.40,203.20 414.40,211.20 z" fill="#ebedf0"></path></g> <g data-week="24" data-day="1" class="day"><path d="M381.80,227.80 365.80,219.80 365.80,223.00 381.80,231.00 z" fill="#b0b1b4"></path><path d="M381.80,227.80 397.80,219.80 397.80,223.00 381.80,231.00 z" fill="#c7c9cc"></path><path d="M381.80,227.80 365.80,219.80 381.80,211.80 397.80,219.80 z" fill="#ebedf0"></path></g> <g data-week="24" data-day="2" class="day"><path d="M365.20,236.40 349.20,228.40 349.20,231.60 365.20,239.60 z" fill="#b0b1b4"></path><path d="M365.20,236.40 381.20,228.40 381.20,231.60 365.20,239.60 z" fill="#c7c9cc"></path><path d="M365.20,236.40 349.20,228.40 365.20,220.40 381.20,228.40 z" fill="#ebedf0"></path></g> <g data-week="24" data-day="3" class="day"><path d="M348.60,245.00 332.60,237.00 332.60,240.20 348.60,248.20 z" fill="#b0b1b4"></path><path d="M348.60,245.00 364.60,237.00 364.60,240.20 348.60,248.20 z" fill="#c7c9cc"></path><path d="M348.60,245.00 332.60,237.00 348.60,229.00 364.60,237.00 z" fill="#ebedf0"></path></g> <g data-week="24" data-day="4" class="day"><path d="M332.00,253.60 316.00,245.60 316.00,248.80 332.00,256.80 z" fill="#b0b1b4"></path><path d="M332.00,253.60 348.00,245.60 348.00,248.80 332.00,256.80 z" fill="#c7c9cc"></path><path d="M332.00,253.60 316.00,245.60 332.00,237.60 348.00,245.60 z" fill="#ebedf0"></path></g> <g data-week="24" data-day="5" class="day"><path d="M315.40,262.20 299.40,254.20 299.40,257.40 315.40,265.40 z" fill="#b0b1b4"></path><path d="M315.40,262.20 331.40,254.20 331.40,257.40 315.40,265.40 z" fill="#c7c9cc"></path><path d="M315.40,262.20 299.40,254.20 315.40,246.20 331.40,254.20 z" fill="#ebedf0"></path></g> <g data-week="24" data-day="6" class="day"><path d="M298.80,270.80 282.80,262.80 282.80,266.00 298.80,274.00 z" fill="#b0b1b4"></path><path d="M298.80,270.80 314.80,262.80 314.80,266.00 298.80,274.00 z" fill="#c7c9cc"></path><path d="M298.80,270.80 282.80,262.80 298.80,254.80 314.80,262.80 z" fill="#ebedf0"></path></g> <g data-week="25" data-day="0" class="day"><path d="M415.00,215.00 399.00,207.00 399.00,223.00 415.00,231.00 z" fill="#74ae7e"></path><path d="M415.00,215.00 431.00,207.00 431.00,223.00 415.00,231.00 z" fill="#83c68e"></path><path d="M415.00,215.00 399.00,207.00 415.00,199.00 431.00,207.00 z" fill="#9be9a8"></path></g> <g data-week="25" data-day="1" class="day"><path d="M398.40,236.40 382.40,228.40 382.40,231.60 398.40,239.60 z" fill="#b0b1b4"></path><path d="M398.40,236.40 414.40,228.40 414.40,231.60 398.40,239.60 z" fill="#c7c9cc"></path><path d="M398.40,236.40 382.40,228.40 398.40,220.40 414.40,228.40 z" fill="#ebedf0"></path></g> <g data-week="25" data-day="2" class="day"><path d="M381.80,245.00 365.80,237.00 365.80,240.20 381.80,248.20 z" fill="#b0b1b4"></path><path d="M381.80,245.00 397.80,237.00 397.80,240.20 381.80,248.20 z" fill="#c7c9cc"></path><path d="M381.80,245.00 365.80,237.00 381.80,229.00 397.80,237.00 z" fill="#ebedf0"></path></g> <g data-week="25" data-day="3" class="day"><path d="M365.20,253.60 349.20,245.60 349.20,248.80 365.20,256.80 z" fill="#b0b1b4"></path><path d="M365.20,253.60 381.20,245.60 381.20,248.80 365.20,256.80 z" fill="#c7c9cc"></path><path d="M365.20,253.60 349.20,245.60 365.20,237.60 381.20,245.60 z" fill="#ebedf0"></path></g> <g data-week="25" data-day="4" class="day"><path d="M348.60,262.20 332.60,254.20 332.60,257.40 348.60,265.40 z" fill="#b0b1b4"></path><path d="M348.60,262.20 364.60,254.20 364.60,257.40 348.60,265.40 z" fill="#c7c9cc"></path><path d="M348.60,262.20 332.60,254.20 348.60,246.20 364.60,254.20 z" fill="#ebedf0"></path></g> <g data-week="25" data-day="5" class="day"><path d="M332.00,270.80 316.00,262.80 316.00,266.00 332.00,274.00 z" fill="#b0b1b4"></path><path d="M332.00,270.80 348.00,262.80 348.00,266.00 332.00,274.00 z" fill="#c7c9cc"></path><path d="M332.00,270.80 316.00,262.80 332.00,254.80 348.00,262.80 z" fill="#ebedf0"></path></g> <g data-week="25" data-day="6" class="day"><path d="M315.40,279.40 299.40,271.40 299.40,274.60 315.40,282.60 z" fill="#b0b1b4"></path><path d="M315.40,279.40 331.40,271.40 331.40,274.60 315.40,282.60 z" fill="#c7c9cc"></path><path d="M315.40,279.40 299.40,271.40 315.40,263.40 331.40,271.40 z" fill="#ebedf0"></path></g> <g data-week="26" data-day="0" class="day"><path d="M431.60,236.40 415.60,228.40 415.60,231.60 431.60,239.60 z" fill="#b0b1b4"></path><path d="M431.60,236.40 447.60,228.40 447.60,231.60 431.60,239.60 z" fill="#c7c9cc"></path><path d="M431.60,236.40 415.60,228.40 431.60,220.40 447.60,228.40 z" fill="#ebedf0"></path></g> <g data-week="26" data-day="1" class="day"><path d="M415.00,245.00 399.00,237.00 399.00,240.20 415.00,248.20 z" fill="#b0b1b4"></path><path d="M415.00,245.00 431.00,237.00 431.00,240.20 415.00,248.20 z" fill="#c7c9cc"></path><path d="M415.00,245.00 399.00,237.00 415.00,229.00 431.00,237.00 z" fill="#ebedf0"></path></g> <g data-week="26" data-day="2" class="day"><path d="M398.40,253.60 382.40,245.60 382.40,248.80 398.40,256.80 z" fill="#b0b1b4"></path><path d="M398.40,253.60 414.40,245.60 414.40,248.80 398.40,256.80 z" fill="#c7c9cc"></path><path d="M398.40,253.60 382.40,245.60 398.40,237.60 414.40,245.60 z" fill="#ebedf0"></path></g> <g data-week="26" data-day="3" class="day"><path d="M381.80,262.20 365.80,254.20 365.80,257.40 381.80,265.40 z" fill="#b0b1b4"></path><path d="M381.80,262.20 397.80,254.20 397.80,257.40 381.80,265.40 z" fill="#c7c9cc"></path><path d="M381.80,262.20 365.80,254.20 381.80,246.20 397.80,254.20 z" fill="#ebedf0"></path></g> <g data-week="26" data-day="4" class="day"><path d="M365.20,270.80 349.20,262.80 349.20,266.00 365.20,274.00 z" fill="#b0b1b4"></path><path d="M365.20,270.80 381.20,262.80 381.20,266.00 365.20,274.00 z" fill="#c7c9cc"></path><path d="M365.20,270.80 349.20,262.80 365.20,254.80 381.20,262.80 z" fill="#ebedf0"></path></g> <g data-week="26" data-day="5" class="day"><path d="M348.60,279.40 332.60,271.40 332.60,274.60 348.60,282.60 z" fill="#b0b1b4"></path><path d="M348.60,279.40 364.60,271.40 364.60,274.60 348.60,282.60 z" fill="#c7c9cc"></path><path d="M348.60,279.40 332.60,271.40 348.60,263.40 364.60,271.40 z" fill="#ebedf0"></path></g> <g data-week="26" data-day="6" class="day"><path d="M332.00,288.00 316.00,280.00 316.00,283.20 332.00,291.20 z" fill="#b0b1b4"></path><path d="M332.00,288.00 348.00,280.00 348.00,283.20 332.00,291.20 z" fill="#c7c9cc"></path><path d="M332.00,288.00 316.00,280.00 332.00,272.00 348.00,280.00 z" fill="#ebedf0"></path></g> <g data-week="27" data-day="0" class="day"><path d="M448.20,245.00 432.20,237.00 432.20,240.20 448.20,248.20 z" fill="#b0b1b4"></path><path d="M448.20,245.00 464.20,237.00 464.20,240.20 448.20,248.20 z" fill="#c7c9cc"></path><path d="M448.20,245.00 432.20,237.00 448.20,229.00 464.20,237.00 z" fill="#ebedf0"></path></g> <g data-week="27" data-day="1" class="day"><path d="M431.60,253.60 415.60,245.60 415.60,248.80 431.60,256.80 z" fill="#b0b1b4"></path><path d="M431.60,253.60 447.60,245.60 447.60,248.80 431.60,256.80 z" fill="#c7c9cc"></path><path d="M431.60,253.60 415.60,245.60 431.60,237.60 447.60,245.60 z" fill="#ebedf0"></path></g> <g data-week="27" data-day="2" class="day"><path d="M415.00,262.20 399.00,254.20 399.00,257.40 415.00,265.40 z" fill="#b0b1b4"></path><path d="M415.00,262.20 431.00,254.20 431.00,257.40 415.00,265.40 z" fill="#c7c9cc"></path><path d="M415.00,262.20 399.00,254.20 415.00,246.20 431.00,254.20 z" fill="#ebedf0"></path></g> <g data-week="27" data-day="3" class="day"><path d="M398.40,270.80 382.40,262.80 382.40,266.00 398.40,274.00 z" fill="#b0b1b4"></path><path d="M398.40,270.80 414.40,262.80 414.40,266.00 398.40,274.00 z" fill="#c7c9cc"></path><path d="M398.40,270.80 382.40,262.80 398.40,254.80 414.40,262.80 z" fill="#ebedf0"></path></g> <g data-week="27" data-day="4" class="day"><path d="M381.80,279.40 365.80,271.40 365.80,274.60 381.80,282.60 z" fill="#b0b1b4"></path><path d="M381.80,279.40 397.80,271.40 397.80,274.60 381.80,282.60 z" fill="#c7c9cc"></path><path d="M381.80,279.40 365.80,271.40 381.80,263.40 397.80,271.40 z" fill="#ebedf0"></path></g> <g data-week="27" data-day="5" class="day"><path d="M365.20,288.00 349.20,280.00 349.20,283.20 365.20,291.20 z" fill="#b0b1b4"></path><path d="M365.20,288.00 381.20,280.00 381.20,283.20 365.20,291.20 z" fill="#c7c9cc"></path><path d="M365.20,288.00 349.20,280.00 365.20,272.00 381.20,280.00 z" fill="#ebedf0"></path></g> <g data-week="27" data-day="6" class="day"><path d="M348.60,296.60 332.60,288.60 332.60,291.80 348.60,299.80 z" fill="#b0b1b4"></path><path d="M348.60,296.60 364.60,288.60 364.60,291.80 348.60,299.80 z" fill="#c7c9cc"></path><path d="M348.60,296.60 332.60,288.60 348.60,280.60 364.60,288.60 z" fill="#ebedf0"></path></g> <g data-week="28" data-day="0" class="day"><path d="M464.80,253.60 448.80,245.60 448.80,248.80 464.80,256.80 z" fill="#b0b1b4"></path><path d="M464.80,253.60 480.80,245.60 480.80,248.80 464.80,256.80 z" fill="#c7c9cc"></path><path d="M464.80,253.60 448.80,245.60 464.80,237.60 480.80,245.60 z" fill="#ebedf0"></path></g> <g data-week="28" data-day="1" class="day"><path d="M448.20,262.20 432.20,254.20 432.20,257.40 448.20,265.40 z" fill="#b0b1b4"></path><path d="M448.20,262.20 464.20,254.20 464.20,257.40 448.20,265.40 z" fill="#c7c9cc"></path><path d="M448.20,262.20 432.20,254.20 448.20,246.20 464.20,254.20 z" fill="#ebedf0"></path></g> <g data-week="28" data-day="2" class="day"><path d="M431.60,270.80 415.60,262.80 415.60,266.00 431.60,274.00 z" fill="#b0b1b4"></path><path d="M431.60,270.80 447.60,262.80 447.60,266.00 431.60,274.00 z" fill="#c7c9cc"></path><path d="M431.60,270.80 415.60,262.80 431.60,254.80 447.60,262.80 z" fill="#ebedf0"></path></g> <g data-week="28" data-day="3" class="day"><path d="M415.00,279.40 399.00,271.40 399.00,274.60 415.00,282.60 z" fill="#b0b1b4"></path><path d="M415.00,279.40 431.00,271.40 431.00,274.60 415.00,282.60 z" fill="#c7c9cc"></path><path d="M415.00,279.40 399.00,271.40 415.00,263.40 431.00,271.40 z" fill="#ebedf0"></path></g> <g data-week="28" data-day="4" class="day"><path d="M398.40,288.00 382.40,280.00 382.40,283.20 398.40,291.20 z" fill="#b0b1b4"></path><path d="M398.40,288.00 414.40,280.00 414.40,283.20 398.40,291.20 z" fill="#c7c9cc"></path><path d="M398.40,288.00 382.40,280.00 398.40,272.00 414.40,280.00 z" fill="#ebedf0"></path></g> <g data-week="28" data-day="5" class="day"><path d="M381.80,296.60 365.80,288.60 365.80,291.80 381.80,299.80 z" fill="#b0b1b4"></path><path d="M381.80,296.60 397.80,288.60 397.80,291.80 381.80,299.80 z" fill="#c7c9cc"></path><path d="M381.80,296.60 365.80,288.60 381.80,280.60 397.80,288.60 z" fill="#ebedf0"></path></g> <g data-week="28" data-day="6" class="day"><path d="M365.20,292.40 349.20,284.40 349.20,300.40 365.20,308.40 z" fill="#30934a"></path><path d="M365.20,292.40 381.20,284.40 381.20,300.40 365.20,308.40 z" fill="#36a654"></path><path d="M365.20,292.40 349.20,284.40 365.20,276.40 381.20,284.40 z" fill="#40c463"></path></g> <g data-week="29" data-day="0" class="day"><path d="M481.40,249.40 465.40,241.40 465.40,257.40 481.40,265.40 z" fill="#30934a"></path><path d="M481.40,249.40 497.40,241.40 497.40,257.40 481.40,265.40 z" fill="#36a654"></path><path d="M481.40,249.40 465.40,241.40 481.40,233.40 497.40,241.40 z" fill="#40c463"></path></g> <g data-week="29" data-day="1" class="day"><path d="M464.80,270.80 448.80,262.80 448.80,266.00 464.80,274.00 z" fill="#b0b1b4"></path><path d="M464.80,270.80 480.80,262.80 480.80,266.00 464.80,274.00 z" fill="#c7c9cc"></path><path d="M464.80,270.80 448.80,262.80 464.80,254.80 480.80,262.80 z" fill="#ebedf0"></path></g> <g data-week="29" data-day="2" class="day"><path d="M448.20,279.40 432.20,271.40 432.20,274.60 448.20,282.60 z" fill="#b0b1b4"></path><path d="M448.20,279.40 464.20,271.40 464.20,274.60 448.20,282.60 z" fill="#c7c9cc"></path><path d="M448.20,279.40 432.20,271.40 448.20,263.40 464.20,271.40 z" fill="#ebedf0"></path></g> <g data-week="29" data-day="3" class="day"><path d="M431.60,288.00 415.60,280.00 415.60,283.20 431.60,291.20 z" fill="#b0b1b4"></path><path d="M431.60,288.00 447.60,280.00 447.60,283.20 431.60,291.20 z" fill="#c7c9cc"></path><path d="M431.60,288.00 415.60,280.00 431.60,272.00 447.60,280.00 z" fill="#ebedf0"></path></g> <g data-week="29" data-day="4" class="day"><path d="M415.00,296.60 399.00,288.60 399.00,291.80 415.00,299.80 z" fill="#b0b1b4"></path><path d="M415.00,296.60 431.00,288.60 431.00,291.80 415.00,299.80 z" fill="#c7c9cc"></path><path d="M415.00,296.60 399.00,288.60 415.00,280.60 431.00,288.60 z" fill="#ebedf0"></path></g> <g data-week="29" data-day="5" class="day"><path d="M398.40,292.40 382.40,284.40 382.40,300.40 398.40,308.40 z" fill="#30934a"></path><path d="M398.40,292.40 414.40,284.40 414.40,300.40 398.40,308.40 z" fill="#36a654"></path><path d="M398.40,292.40 382.40,284.40 398.40,276.40 414.40,284.40 z" fill="#40c463"></path></g> <g data-week="29" data-day="6" class="day"><path d="M381.80,313.80 365.80,305.80 365.80,309.00 381.80,317.00 z" fill="#b0b1b4"></path><path d="M381.80,313.80 397.80,305.80 397.80,309.00 381.80,317.00 z" fill="#c7c9cc"></path><path d="M381.80,313.80 365.80,305.80 381.80,297.80 397.80,305.80 z" fill="#ebedf0"></path></g> <g data-week="30" data-day="0" class="day"><path d="M498.00,258.00 482.00,250.00 482.00,266.00 498.00,274.00 z" fill="#74ae7e"></path><path d="M498.00,258.00 514.00,250.00 514.00,266.00 498.00,274.00 z" fill="#83c68e"></path><path d="M498.00,258.00 482.00,250.00 498.00,242.00 514.00,250.00 z" fill="#9be9a8"></path></g> <g data-week="30" data-day="1" class="day"><path d="M481.40,266.60 465.40,258.60 465.40,274.60 481.40,282.60 z" fill="#74ae7e"></path><path d="M481.40,266.60 497.40,258.60 497.40,274.60 481.40,282.60 z" fill="#83c68e"></path><path d="M481.40,266.60 465.40,258.60 481.40,250.60 497.40,258.60 z" fill="#9be9a8"></path></g> <g data-week="30" data-day="2" class="day"><path d="M464.80,288.00 448.80,280.00 448.80,283.20 464.80,291.20 z" fill="#b0b1b4"></path><path d="M464.80,288.00 480.80,280.00 480.80,283.20 464.80,291.20 z" fill="#c7c9cc"></path><path d="M464.80,288.00 448.80,280.00 464.80,272.00 480.80,280.00 z" fill="#ebedf0"></path></g> <g data-week="30" data-day="3" class="day"><path d="M448.20,296.60 432.20,288.60 432.20,291.80 448.20,299.80 z" fill="#b0b1b4"></path><path d="M448.20,296.60 464.20,288.60 464.20,291.80 448.20,299.80 z" fill="#c7c9cc"></path><path d="M448.20,296.60 432.20,288.60 448.20,280.60 464.20,288.60 z" fill="#ebedf0"></path></g> <g data-week="30" data-day="4" class="day"><path d="M431.60,305.20 415.60,297.20 415.60,300.40 431.60,308.40 z" fill="#b0b1b4"></path><path d="M431.60,305.20 447.60,297.20 447.60,300.40 431.60,308.40 z" fill="#c7c9cc"></path><path d="M431.60,305.20 415.60,297.20 431.60,289.20 447.60,297.20 z" fill="#ebedf0"></path></g> <g data-week="30" data-day="5" class="day"><path d="M415.00,301.00 399.00,293.00 399.00,309.00 415.00,317.00 z" fill="#30934a"></path><path d="M415.00,301.00 431.00,293.00 431.00,309.00 415.00,317.00 z" fill="#36a654"></path><path d="M415.00,301.00 399.00,293.00 415.00,285.00 431.00,293.00 z" fill="#40c463"></path></g> <g data-week="30" data-day="6" class="day"><path d="M398.40,322.40 382.40,314.40 382.40,317.60 398.40,325.60 z" fill="#b0b1b4"></path><path d="M398.40,322.40 414.40,314.40 414.40,317.60 398.40,325.60 z" fill="#c7c9cc"></path><path d="M398.40,322.40 382.40,314.40 398.40,306.40 414.40,314.40 z" fill="#ebedf0"></path></g> <g data-week="31" data-day="0" class="day"><path d="M514.60,266.60 498.60,258.60 498.60,274.60 514.60,282.60 z" fill="#24783a"></path><path d="M514.60,266.60 530.60,258.60 530.60,274.60 514.60,282.60 z" fill="#288842"></path><path d="M514.60,266.60 498.60,258.60 514.60,250.60 530.60,258.60 z" fill="#30a14e"></path></g> <g data-week="31" data-day="1" class="day"><path d="M498.00,275.20 482.00,267.20 482.00,283.20 498.00,291.20 z" fill="#18522a"></path><path d="M498.00,275.20 514.00,267.20 514.00,283.20 498.00,291.20 z" fill="#1c5d30"></path><path d="M498.00,275.20 482.00,267.20 498.00,259.20 514.00,267.20 z" fill="#216e39"></path></g> <g data-week="31" data-day="2" class="day"><path d="M481.40,283.80 465.40,275.80 465.40,291.80 481.40,299.80 z" fill="#30934a"></path><path d="M481.40,283.80 497.40,275.80 497.40,291.80 481.40,299.80 z" fill="#36a654"></path><path d="M481.40,283.80 465.40,275.80 481.40,267.80 497.40,275.80 z" fill="#40c463"></path></g> <g data-week="31" data-day="3" class="day"><path d="M464.80,292.40 448.80,284.40 448.80,300.40 464.80,308.40 z" fill="#24783a"></path><path d="M464.80,292.40 480.80,284.40 480.80,300.40 464.80,308.40 z" fill="#288842"></path><path d="M464.80,292.40 448.80,284.40 464.80,276.40 480.80,284.40 z" fill="#30a14e"></path></g> <g data-week="31" data-day="4" class="day"><path d="M448.20,301.00 432.20,293.00 432.20,309.00 448.20,317.00 z" fill="#18522a"></path><path d="M448.20,301.00 464.20,293.00 464.20,309.00 448.20,317.00 z" fill="#1c5d30"></path><path d="M448.20,301.00 432.20,293.00 448.20,285.00 464.20,293.00 z" fill="#216e39"></path></g> <g data-week="31" data-day="5" class="day"><path d="M431.60,309.60 415.60,301.60 415.60,317.60 431.60,325.60 z" fill="#74ae7e"></path><path d="M431.60,309.60 447.60,301.60 447.60,317.60 431.60,325.60 z" fill="#83c68e"></path><path d="M431.60,309.60 415.60,301.60 431.60,293.60 447.60,301.60 z" fill="#9be9a8"></path></g> <g data-week="31" data-day="6" class="day"><path d="M415.00,331.00 399.00,323.00 399.00,326.20 415.00,334.20 z" fill="#b0b1b4"></path><path d="M415.00,331.00 431.00,323.00 431.00,326.20 415.00,334.20 z" fill="#c7c9cc"></path><path d="M415.00,331.00 399.00,323.00 415.00,315.00 431.00,323.00 z" fill="#ebedf0"></path></g> <g data-week="32" data-day="0" class="day"><path d="M531.20,275.20 515.20,267.20 515.20,283.20 531.20,291.20 z" fill="#30934a"></path><path d="M531.20,275.20 547.20,267.20 547.20,283.20 531.20,291.20 z" fill="#36a654"></path><path d="M531.20,275.20 515.20,267.20 531.20,259.20 547.20,267.20 z" fill="#40c463"></path></g> <g data-week="32" data-day="1" class="day"><path d="M514.60,296.60 498.60,288.60 498.60,291.80 514.60,299.80 z" fill="#b0b1b4"></path><path d="M514.60,296.60 530.60,288.60 530.60,291.80 514.60,299.80 z" fill="#c7c9cc"></path><path d="M514.60,296.60 498.60,288.60 514.60,280.60 530.60,288.60 z" fill="#ebedf0"></path></g> <g data-week="32" data-day="2" class="day"><path d="M498.00,305.20 482.00,297.20 482.00,300.40 498.00,308.40 z" fill="#b0b1b4"></path><path d="M498.00,305.20 514.00,297.20 514.00,300.40 498.00,308.40 z" fill="#c7c9cc"></path><path d="M498.00,305.20 482.00,297.20 498.00,289.20 514.00,297.20 z" fill="#ebedf0"></path></g> <g data-week="32" data-day="3" class="day"><path d="M481.40,313.80 465.40,305.80 465.40,309.00 481.40,317.00 z" fill="#b0b1b4"></path><path d="M481.40,313.80 497.40,305.80 497.40,309.00 481.40,317.00 z" fill="#c7c9cc"></path><path d="M481.40,313.80 465.40,305.80 481.40,297.80 497.40,305.80 z" fill="#ebedf0"></path></g> <g data-week="32" data-day="4" class="day"><path d="M464.80,309.60 448.80,301.60 448.80,317.60 464.80,325.60 z" fill="#74ae7e"></path><path d="M464.80,309.60 480.80,301.60 480.80,317.60 464.80,325.60 z" fill="#83c68e"></path><path d="M464.80,309.60 448.80,301.60 464.80,293.60 480.80,301.60 z" fill="#9be9a8"></path></g> <g data-week="32" data-day="5" class="day"><path d="M448.20,331.00 432.20,323.00 432.20,326.20 448.20,334.20 z" fill="#b0b1b4"></path><path d="M448.20,331.00 464.20,323.00 464.20,326.20 448.20,334.20 z" fill="#c7c9cc"></path><path d="M448.20,331.00 432.20,323.00 448.20,315.00 464.20,323.00 z" fill="#ebedf0"></path></g> <g data-week="32" data-day="6" class="day"><path d="M431.60,339.60 415.60,331.60 415.60,334.80 431.60,342.80 z" fill="#b0b1b4"></path><path d="M431.60,339.60 447.60,331.60 447.60,334.80 431.60,342.80 z" fill="#c7c9cc"></path><path d="M431.60,339.60 415.60,331.60 431.60,323.60 447.60,331.60 z" fill="#ebedf0"></path></g> <g data-week="33" data-day="0" class="day"><path d="M547.80,296.60 531.80,288.60 531.80,291.80 547.80,299.80 z" fill="#b0b1b4"></path><path d="M547.80,296.60 563.80,288.60 563.80,291.80 547.80,299.80 z" fill="#c7c9cc"></path><path d="M547.80,296.60 531.80,288.60 547.80,280.60 563.80,288.60 z" fill="#ebedf0"></path></g> </g> </svg>