<?xml version="1.0" encoding="UTF-8"?>
<!DOCTYPE svg PUBLIC "-//W3C//DTD SVG 1.1//EN" "http://www.w3.org/Graphics/SVG/1.1/DTD/svg11.dtd">
<svg xmlns="http://www.w3.org/2000/svg" version="1.1" width="241px" height="396px" style="shape-rendering:geometricPrecision; text-rendering:geometricPrecision; image-rendering:optimizeQuality; fill-rule:evenodd; clip-rule:evenodd" xmlns:xlink="http://www.w3.org/1999/xlink">
<g><path style="opacity:1" fill="#fdfdfd" d="M -0.5,-0.5 C 79.8333,-0.5 160.167,-0.5 240.5,-0.5C 240.5,131.5 240.5,263.5 240.5,395.5C 160.167,395.5 79.8333,395.5 -0.5,395.5C -0.5,263.5 -0.5,131.5 -0.5,-0.5 Z"/></g>
<g><path style="opacity:1" fill="#0d0c0b" d="M 152.5,100.5 C 156.62,100.977 160.62,101.977 164.5,103.5C 169.975,104.489 175.642,104.822 181.5,104.5C 181.815,100.629 181.482,96.9619 180.5,93.5C 180.706,89.1018 180.373,84.7685 179.5,80.5C 177.702,77.1691 177.036,73.5025 177.5,69.5C 185.833,69.5 194.167,69.5 202.5,69.5C 202.964,73.5025 202.298,77.1691 200.5,80.5C 199.671,85.453 199.337,90.453 199.5,95.5C 198.523,98.2869 198.19,101.287 198.5,104.5C 202.702,104.817 206.702,104.483 210.5,103.5C 213.082,103.975 215.082,103.308 216.5,101.5C 219.833,101.5 223.167,101.5 226.5,101.5C 226.663,103.857 226.497,106.19 226,108.5C 225.617,107.944 225.117,107.611 224.5,107.5C 223.656,105.241 221.989,104.241 219.5,104.5C 219.665,107.518 219.498,110.518 219,113.5C 218.503,111.19 218.337,108.857 218.5,106.5C 214.958,106.187 211.625,106.521 208.5,107.5C 204.167,107.5 199.833,107.5 195.5,107.5C 195.5,108.167 195.5,108.833 195.5,109.5C 194.167,110.167 193.167,111.167 192.5,112.5C 199.655,113.329 206.989,113.829 214.5,114C 207.144,114.169 199.811,114.669 192.5,115.5C 194.109,118.894 196.776,120.227 200.5,119.5C 202.262,120.262 203.262,121.596 203.5,123.5C 201.833,123.5 200.167,123.5 198.5,123.5C 198.5,124.5 198.5,125.5 198.5,126.5C 197.542,126.953 196.708,127.619 196,128.5C 195.206,125.529 194.539,122.529 194,119.5C 193.617,118.944 193.117,118.611 192.5,118.5C 192.167,117.5 191.5,116.833 190.5,116.5C 188.629,116.859 187.129,117.859 186,119.5C 184.649,134.504 183.649,149.504 183,164.5C 183.333,163.833 183.667,163.167 184,162.5C 185.383,156.165 186.383,149.165 187,141.5C 187.5,149.493 187.666,157.493 187.5,165.5C 184.941,165.198 182.607,165.532 180.5,166.5C 180.5,167.833 180.5,169.167 180.5,170.5C 186.833,170.5 193.167,170.5 199.5,170.5C 199.5,169.167 199.5,167.833 199.5,166.5C 198.737,165.732 197.737,165.232 196.5,165C 195.748,164.329 195.414,163.496 195.5,162.5C 197.101,163.643 197.767,162.976 197.5,160.5C 196.588,151.861 196.255,143.194 196.5,134.5C 197.167,134.833 197.833,135.167 198.5,135.5C 199.655,150.242 201.322,165.075 203.5,180C 203.467,185.406 201.134,189.406 196.5,192C 204.505,195.337 208.505,201.337 208.5,210C 208.139,216.143 206.639,221.977 204,227.5C 202.261,229.741 200.094,231.408 197.5,232.5C 196.333,268.829 196.167,305.162 197,341.5C 201.281,346.164 201.615,351.164 198,356.5C 196.758,357.872 195.258,358.872 193.5,359.5C 192.676,362.785 192.176,366.118 192,369.5C 188.303,372.738 184.136,375.238 179.5,377C 173.852,378.329 168.185,379.496 162.5,380.5C 156.31,381.143 150.31,382.143 144.5,383.5C 116.426,385.322 88.4262,384.655 60.5,381.5C 58.4855,380.076 56.1522,379.41 53.5,379.5C 44.9116,379.119 37.4116,376.119 31,370.5C 30.3333,366.167 30.3333,361.833 31,357.5C 32.8126,354.612 34.4792,351.612 36,348.5C 41.9958,345.11 47.8292,341.443 53.5,337.5C 54.6256,336.192 54.6256,334.858 53.5,333.5C 51.251,328.414 50.251,323.081 50.5,317.5C 52.6379,311.04 55.6379,305.04 59.5,299.5C 57.246,295.993 55.246,292.327 53.5,288.5C 55.6495,282.911 57.6495,277.245 59.5,271.5C 58.6475,268.316 56.9808,265.65 54.5,263.5C 50.4306,260.562 49.0973,261.562 50.5,266.5C 49.6857,268.273 48.3524,268.773 46.5,268C 41.5079,263.836 38.1746,258.669 36.5,252.5C 33.7081,252.548 31.8747,251.215 31,248.5C 27.1588,235.786 25.1588,222.786 25,209.5C 22.6667,208.5 21,206.833 20,204.5C 17.8184,196.623 17.1517,188.623 18,180.5C 20.428,177.402 23.428,175.069 27,173.5C 27.6648,168.476 27.4982,163.476 26.5,158.5C 27.2744,152.764 30.6077,149.764 36.5,149.5C 39.5,150 42.5,150.5 45.5,151C 47.492,151.574 48.992,152.741 50,154.5C 57.4115,145.253 65.9115,137.253 75.5,130.5C 76.8221,130.33 77.9887,130.663 79,131.5C 79.4828,130.552 79.6495,129.552 79.5,128.5C 78.5,128.5 77.5,128.5 76.5,128.5C 73.6926,123.559 70.8593,118.559 68,113.5C 67.3333,110.167 67.3333,106.833 68,103.5C 69.1986,100.982 70.3653,98.4823 71.5,96C 71.0566,94.175 70.7233,92.3417 70.5,90.5C 70.5905,87.8478 69.9238,85.5145 68.5,83.5C 67.5535,76.7676 66.2202,70.1009 64.5,63.5C 65.0476,61.444 66.2142,59.7774 68,58.5C 68.6256,56.2865 68.4589,54.1199 67.5,52C 73.0572,41.7741 80.7238,33.4408 90.5,27C 96.1777,23.1595 102.178,19.8261 108.5,17C 123.406,21.0541 136.239,28.8875 147,40.5C 149,43.1667 151,45.8333 153,48.5C 153.333,51.8333 153.667,55.1667 154,58.5C 156.016,59.8387 157.183,61.6721 157.5,64C 155.305,74.5269 152.972,85.0269 150.5,95.5C 150.437,97.5139 151.103,99.1806 152.5,100.5 Z"/></g>
<g><path style="opacity:1" fill="#b3ab9a" d="M 147.5,54.5 C 141.482,59.6228 134.482,62.6228 126.5,63.5C 125.833,63.5 125.167,63.5 124.5,63.5C 124.189,62.5222 123.522,61.8555 122.5,61.5C 121.494,61.9377 121.494,62.6043 122.5,63.5C 121.042,64.782 119.708,64.782 118.5,63.5C 117.833,61.1667 117.167,58.8333 116.5,56.5C 118.816,57.3596 121.149,57.8596 123.5,58C 126.525,55.968 129.192,53.6347 131.5,51C 129.846,48.0125 127.513,45.6792 124.5,44C 121.668,43.6736 119.001,44.1736 116.5,45.5C 119.285,39.0313 117.452,34.0313 111,30.5C 104.548,34.0313 102.715,39.0313 105.5,45.5C 102.999,44.1736 100.332,43.6736 97.5,44C 94.4875,45.6792 92.1541,48.0125 90.5,51C 92.85,53.6826 95.5167,56.0159 98.5,58C 100.851,57.8596 103.184,57.3596 105.5,56.5C 105.296,58.6854 104.63,60.6854 103.5,62.5C 103.38,63.5862 102.713,64.2528 101.5,64.5C 100.833,64.1667 100.167,63.8333 99.5,63.5C 100.506,62.6043 100.506,61.9377 99.5,61.5C 98.4777,61.8555 97.811,62.5222 97.5,63.5C 97.1667,63.5 96.8333,63.5 96.5,63.5C 88.1646,62.8355 80.8313,59.8355 74.5,54.5C 73.4017,53.3991 73.235,52.0657 74,50.5C 77.799,45.6994 81.9657,41.1994 86.5,37C 91.3331,37.4284 95.9998,38.4284 100.5,40C 98.5,38.6667 96.5,37.3333 94.5,36C 92.9926,35.1627 92.4926,33.9961 93,32.5C 98.2547,27.8716 104.255,24.5382 111,22.5C 117.423,25.0453 123.423,28.3787 129,32.5C 129.667,33.1667 129.667,33.8333 129,34.5C 118.787,41.1008 119.287,41.9341 130.5,37C 132.167,36.3333 133.833,36.3333 135.5,37C 140.034,41.1994 144.201,45.6994 148,50.5C 148.765,52.0657 148.598,53.3991 147.5,54.5 Z"/></g>
<g><path style="opacity:1" fill="#1d1b19" d="M 118.5,63.5 C 116.23,66.3667 113.73,69.0334 111,71.5C 107.914,68.9208 105.414,65.9208 103.5,62.5C 104.63,60.6854 105.296,58.6854 105.5,56.5C 103.184,57.3596 100.851,57.8596 98.5,58C 95.5167,56.0159 92.85,53.6826 90.5,51C 92.1541,48.0125 94.4875,45.6792 97.5,44C 100.332,43.6736 102.999,44.1736 105.5,45.5C 102.715,39.0313 104.548,34.0313 111,30.5C 117.452,34.0313 119.285,39.0313 116.5,45.5C 119.001,44.1736 121.668,43.6736 124.5,44C 127.513,45.6792 129.846,48.0125 131.5,51C 129.192,53.6347 126.525,55.968 123.5,58C 121.149,57.8596 118.816,57.3596 116.5,56.5C 117.167,58.8333 117.833,61.1667 118.5,63.5 Z"/></g>
<g><path style="opacity:1" fill="#6d675b" d="M 110.5,32.5 C 113.196,34.1992 115.196,36.5326 116.5,39.5C 114.771,41.8511 114.104,44.5178 114.5,47.5C 117.181,47.5379 119.681,46.8713 122,45.5C 125.051,46.5461 127.551,48.3794 129.5,51C 125.383,55.6586 120.383,56.8253 114.5,54.5C 114.581,57.7164 115.081,60.7164 116,63.5C 112.667,64.8333 109.333,64.8333 106,63.5C 106.919,60.7164 107.419,57.7164 107.5,54.5C 104.159,55.0053 100.826,55.1719 97.5,55C 92.0085,50.7511 92.8418,47.5844 100,45.5C 102.21,47.1109 104.71,47.7776 107.5,47.5C 107.896,44.5178 107.229,41.8511 105.5,39.5C 106.931,36.9613 108.597,34.6279 110.5,32.5 Z"/></g>
<g><path style="opacity:1" fill="#6e695d" d="M 74.5,54.5 C 80.8313,59.8355 88.1646,62.8355 96.5,63.5C 90.5116,67.2531 84.345,70.9197 78,74.5C 76.1985,67.957 75.0318,61.2904 74.5,54.5 Z"/></g>
<g><path style="opacity:1" fill="#716b5f" d="M 147.5,54.5 C 146.66,60.8586 145.66,67.1919 144.5,73.5C 137.89,71.1968 131.89,67.8635 126.5,63.5C 134.482,62.6228 141.482,59.6228 147.5,54.5 Z"/></g>
<g><path style="opacity:1" fill="#666055" d="M 71.5,61.5 C 72.6491,61.7911 73.3158,62.6244 73.5,64C 74.9621,70.3106 76.2954,76.6439 77.5,83C 77.3865,84.2798 76.7199,85.1131 75.5,85.5C 73.8354,78.8577 72.1688,72.191 70.5,65.5C 70.8457,64.1508 71.179,62.8175 71.5,61.5 Z"/></g>
<g><path style="opacity:1" fill="#6b6559" d="M 103.5,62.5 C 105.414,65.9208 107.914,68.9208 111,71.5C 113.73,69.0334 116.23,66.3667 118.5,63.5C 119.708,64.782 121.042,64.782 122.5,63.5C 121.494,62.6043 121.494,61.9377 122.5,61.5C 123.522,61.8555 124.189,62.5222 124.5,63.5C 129.57,70.0763 135.237,76.243 141.5,82C 138.328,81.8317 135.328,80.8317 132.5,79C 129.117,75.0719 125.617,71.2386 122,67.5C 122.418,70.5214 123.585,73.3547 125.5,76C 116.163,75.2341 106.83,75.4008 97.5,76.5C 98.0084,73.1485 99.3418,70.1485 101.5,67.5C 101.167,67.1667 100.833,66.8333 100.5,66.5C 97.3916,71.1115 93.725,75.2782 89.5,79C 86.4954,80.354 83.4954,81.354 80.5,82C 87.062,75.9691 92.7286,69.8024 97.5,63.5C 97.811,62.5222 98.4777,61.8555 99.5,61.5C 100.506,61.9377 100.506,62.6043 99.5,63.5C 100.167,63.8333 100.833,64.1667 101.5,64.5C 102.713,64.2528 103.38,63.5862 103.5,62.5 Z"/></g>
<g><path style="opacity:1" fill="#666156" d="M 148.5,61.5 C 150.022,62.1909 151.022,63.3576 151.5,65C 149.936,71.8591 148.269,78.6925 146.5,85.5C 145.054,84.8291 144.388,83.6624 144.5,82C 146.157,75.217 147.49,68.3837 148.5,61.5 Z"/></g>
<g><path style="opacity:1" fill="#a2a2a2" d="M 177.5,69.5 C 177.036,73.5025 177.702,77.1691 179.5,80.5C 178.5,80.5 177.5,80.5 176.5,80.5C 176.185,76.6286 176.518,72.9619 177.5,69.5 Z"/></g>
<g><path style="opacity:1" fill="#7b7b7b" d="M 202.5,69.5 C 203.482,72.9619 203.815,76.6286 203.5,80.5C 202.5,80.5 201.5,80.5 200.5,80.5C 202.298,77.1691 202.964,73.5025 202.5,69.5 Z"/></g>
<g><path style="opacity:1" fill="#8f897b" d="M 199.5,74.5 C 193.167,74.5 186.833,74.5 180.5,74.5C 183.258,73.1818 186.424,72.5152 190,72.5C 193.576,72.5152 196.742,73.1818 199.5,74.5 Z"/></g>
<g><path style="opacity:1" fill="#635c53" d="M 180.5,74.5 C 186.833,74.5 193.167,74.5 199.5,74.5C 196.742,75.8182 193.576,76.4848 190,76.5C 186.424,76.4848 183.258,75.8182 180.5,74.5 Z"/></g>
<g><path style="opacity:1" fill="#373029" d="M 195.5,107.5 C 194.265,107.721 193.265,108.388 192.5,109.5C 191.501,99.1881 191.168,88.8548 191.5,78.5C 193.167,78.5 194.833,78.5 196.5,78.5C 196.482,88.1802 196.148,97.8468 195.5,107.5 Z"/></g>
<g><path style="opacity:1" fill="#6e685c" d="M 185.5,107.5 C 186.907,98.2554 186.573,88.9221 184.5,79.5C 183.571,80.6888 183.238,82.0222 183.5,83.5C 182.549,82.0813 182.216,80.4147 182.5,78.5C 184.792,78.2436 186.959,78.5769 189,79.5C 189.667,90.1667 189.667,100.833 189,111.5C 187.624,110.295 186.458,108.962 185.5,107.5 Z"/></g>
<g><path style="opacity:1" fill="#342f28" d="M 139.5,91.5 C 136.517,96.9318 137.183,101.932 141.5,106.5C 142.518,104.406 143.518,102.406 144.5,100.5C 145.1,101.9 146.1,102.9 147.5,103.5C 146.178,103.33 145.011,103.663 144,104.5C 141.015,110.483 139.849,116.816 140.5,123.5C 139.978,121.781 138.978,120.448 137.5,119.5C 138.884,116.692 139.551,113.692 139.5,110.5C 137.18,104.571 136.18,98.5713 136.5,92.5C 124.457,86.7893 111.79,84.956 98.5,87C 95.4289,88.2957 92.4289,89.4623 89.5,90.5C 88.5655,91.5676 88.2322,92.901 88.5,94.5C 87.5,94.5 86.5,94.5 85.5,94.5C 85.5,95.5 85.5,96.5 85.5,97.5C 84.2099,101.753 83.2099,106.087 82.5,110.5C 82.3845,113.409 83.0512,116.075 84.5,118.5C 82.9724,119.802 81.9724,121.469 81.5,123.5C 82.1513,116.816 80.9846,110.483 78,104.5C 76.6439,103.62 75.1439,103.286 73.5,103.5C 75.2191,102.978 76.5525,101.978 77.5,100.5C 77.8333,100.5 78.1667,100.5 78.5,100.5C 78.5652,102.696 79.2319,104.696 80.5,106.5C 82.9693,102.91 83.9693,98.9104 83.5,94.5C 82.9329,92.302 82.9329,89.9686 83.5,87.5C 84.675,87.719 85.675,87.3857 86.5,86.5C 85.3112,85.5713 83.9778,85.238 82.5,85.5C 83.9187,84.5489 85.5853,84.2155 87.5,84.5C 87.5,85.5 87.5,86.5 87.5,87.5C 102.9,82.0313 118.233,82.198 133.5,88C 135.692,88.926 137.692,90.0927 139.5,91.5 Z"/></g>
<g><path style="opacity:1" fill="#a49c8d" d="M 185.5,107.5 C 184.616,99.6653 183.95,91.6653 183.5,83.5C 183.238,82.0222 183.571,80.6888 184.5,79.5C 186.573,88.9221 186.907,98.2554 185.5,107.5 Z"/></g>
<g><path style="opacity:1" fill="#8f8f8f" d="M 68.5,83.5 C 69.9238,85.5145 70.5905,87.8478 70.5,90.5C 69.0762,88.4855 68.4095,86.1522 68.5,83.5 Z"/></g>
<g><path style="opacity:1" fill="#6b6863" d="M 82.5,85.5 C 83.9778,85.238 85.3112,85.5713 86.5,86.5C 85.675,87.3857 84.675,87.719 83.5,87.5C 82.9329,89.9686 82.9329,92.302 83.5,94.5C 79.686,94.6509 78.0193,96.6509 78.5,100.5C 78.1667,100.5 77.8333,100.5 77.5,100.5C 77.1924,98.076 77.5258,95.7427 78.5,93.5C 79.8304,90.8001 81.1637,88.1335 82.5,85.5 Z"/></g>
<g><path style="opacity:1" fill="#a6a5a1" d="M 89.5,90.5 C 92.7641,94.9388 91.4307,97.2722 85.5,97.5C 85.5,96.5 85.5,95.5 85.5,94.5C 86.5,94.5 87.5,94.5 88.5,94.5C 88.2322,92.901 88.5655,91.5676 89.5,90.5 Z"/></g>
<g><path style="opacity:1" fill="#9f9889" d="M 83.5,94.5 C 83.9693,98.9104 82.9693,102.91 80.5,106.5C 79.2319,104.696 78.5652,102.696 78.5,100.5C 78.0193,96.6509 79.686,94.6509 83.5,94.5 Z"/></g>
<g><path style="opacity:1" fill="#a09889" d="M 139.5,91.5 C 143.69,92.8818 145.357,95.8818 144.5,100.5C 143.518,102.406 142.518,104.406 141.5,106.5C 137.183,101.932 136.517,96.9318 139.5,91.5 Z"/></g>
<g><path style="opacity:1" fill="#7f7f7f" d="M 152.5,100.5 C 156.5,100.5 160.5,100.5 164.5,100.5C 164.5,101.5 164.5,102.5 164.5,103.5C 160.62,101.977 156.62,100.977 152.5,100.5 Z"/></g>
<g><path style="opacity:1" fill="#6c665b" d="M 137.5,119.5 C 136.599,120.29 135.932,121.29 135.5,122.5C 133.983,122.511 132.816,123.177 132,124.5C 130.873,127.377 130.206,130.377 130,133.5C 127.742,136.299 125.075,137.632 122,137.5C 120.549,139.464 118.716,140.797 116.5,141.5C 115.488,139.124 113.655,138.124 111,138.5C 108.578,138.482 106.412,139.149 104.5,140.5C 102.617,140.124 101.117,139.124 100,137.5C 99.6667,138.167 99.3333,138.833 99,139.5C 96.6667,137.5 94.3333,135.5 92,133.5C 91.2177,130.69 90.3844,128.023 89.5,125.5C 87.4202,123.427 85.7536,121.093 84.5,118.5C 83.0512,116.075 82.3845,113.409 82.5,110.5C 83.2099,106.087 84.2099,101.753 85.5,97.5C 91.4307,97.2722 92.7641,94.9388 89.5,90.5C 92.4289,89.4623 95.4289,88.2957 98.5,87C 111.79,84.956 124.457,86.7893 136.5,92.5C 136.18,98.5713 137.18,104.571 139.5,110.5C 139.551,113.692 138.884,116.692 137.5,119.5 Z"/></g>
<g><path style="opacity:1" fill="#0f0e0c" d="M 119.5,95.5 C 124.751,95.8597 129.084,98.0264 132.5,102C 129.306,101.231 125.973,100.731 122.5,100.5C 115.738,102.652 114.738,100.986 119.5,95.5 Z"/></g>
<g><path style="opacity:1" fill="#0c0c0a" d="M 97.5,95.5 C 102.322,94.8359 104.822,96.8359 105,101.5C 100.2,100.481 95.3664,100.315 90.5,101C 92.54,98.6642 94.8733,96.8308 97.5,95.5 Z"/></g>
<g><path style="opacity:1" fill="#9a9a9a" d="M 180.5,93.5 C 181.482,96.9619 181.815,100.629 181.5,104.5C 175.642,104.822 169.975,104.489 164.5,103.5C 169.833,103.5 175.167,103.5 180.5,103.5C 180.5,100.167 180.5,96.8333 180.5,93.5 Z"/></g>
<g><path style="opacity:1" fill="#898989" d="M 199.5,95.5 C 199.5,98.1667 199.5,100.833 199.5,103.5C 203.167,103.5 206.833,103.5 210.5,103.5C 206.702,104.483 202.702,104.817 198.5,104.5C 198.19,101.287 198.523,98.2869 199.5,95.5 Z"/></g>
<g><path style="opacity:1" fill="#201d1a" d="M 96.5,102.5 C 98.8568,102.337 101.19,102.503 103.5,103C 103.046,105.715 101.546,107.548 99,108.5C 95.708,107.449 94.8746,105.449 96.5,102.5 Z"/></g>
<g><path style="opacity:1" fill="#25231e" d="M 118.5,103.5 C 119.097,102.861 119.93,102.528 121,102.5C 123.824,103.054 126.657,103.554 129.5,104C 132.019,105.957 132.019,107.291 129.5,108C 130.205,106.443 129.539,105.277 127.5,104.5C 123.837,109.944 120.837,109.611 118.5,103.5 Z"/></g>
<g><path style="opacity:1" fill="#6b665a" d="M 73.5,103.5 C 75.1439,103.286 76.6439,103.62 78,104.5C 80.9846,110.483 82.1513,116.816 81.5,123.5C 77.4779,122.599 76.8112,120.766 79.5,118C 79,117.5 78.5,117 78,116.5C 77.6667,113.5 77.3333,110.5 77,107.5C 76.3333,106.167 75.6667,106.167 75,107.5C 74.6667,109.5 74.3333,111.5 74,113.5C 73.5017,110.183 73.335,106.85 73.5,103.5 Z"/></g>
<g><path style="opacity:1" fill="#9e9787" d="M 168.5,107.5 C 174.098,107.156 179.432,107.822 184.5,109.5C 177.137,109.831 169.803,109.497 162.5,108.5C 164.396,107.534 166.396,107.201 168.5,107.5 Z"/></g>
<g><path style="opacity:1" fill="#9e9788" d="M 195.5,107.5 C 199.833,107.5 204.167,107.5 208.5,107.5C 211.247,107.187 213.914,107.52 216.5,108.5C 209.532,109.497 202.532,109.83 195.5,109.5C 195.5,108.833 195.5,108.167 195.5,107.5 Z"/></g>
<g><path style="opacity:1" fill="#696459" d="M 156.5,104.5 C 157.833,104.5 159.167,104.5 160.5,104.5C 160.5,110.833 160.5,117.167 160.5,123.5C 159.167,123.5 157.833,123.5 156.5,123.5C 156.5,117.167 156.5,110.833 156.5,104.5 Z"/></g>
<g><path style="opacity:1" fill="#3f3830" d="M 168.5,107.5 C 166.396,107.201 164.396,107.534 162.5,108.5C 169.803,109.497 177.137,109.831 184.5,109.5C 183.682,110.409 182.016,110.909 179.5,111C 181.833,111.333 184.167,111.667 186.5,112C 178.173,112.5 169.84,112.666 161.5,112.5C 161.5,110.5 161.5,108.5 161.5,106.5C 164.059,106.198 166.393,106.532 168.5,107.5 Z"/></g>
<g><path style="opacity:1" fill="#6d675d" d="M 224.5,107.5 C 222.158,108.211 221.825,109.544 223.5,111.5C 223.5,114.167 223.5,116.833 223.5,119.5C 222.288,118.77 221.288,117.77 220.5,116.5C 219.614,117.325 219.281,118.325 219.5,119.5C 216.888,117.948 215.555,115.614 215.5,112.5C 207.833,112.5 200.167,112.5 192.5,112.5C 193.167,111.167 194.167,110.167 195.5,109.5C 202.532,109.83 209.532,109.497 216.5,108.5C 213.914,107.52 211.247,107.187 208.5,107.5C 211.625,106.521 214.958,106.187 218.5,106.5C 218.337,108.857 218.503,111.19 219,113.5C 219.498,110.518 219.665,107.518 219.5,104.5C 221.989,104.241 223.656,105.241 224.5,107.5 Z"/></g>
<g><path style="opacity:1" fill="#6c665b" d="M 147.5,103.5 C 148.434,104.568 148.768,105.901 148.5,107.5C 147.153,106.829 145.986,106.829 145,107.5C 144.667,110.5 144.333,113.5 144,116.5C 143.167,117.333 142.333,118.167 141.5,119C 142.756,119.417 143.423,120.25 143.5,121.5C 143.027,122.906 142.027,123.573 140.5,123.5C 139.849,116.816 141.015,110.483 144,104.5C 145.011,103.663 146.178,103.33 147.5,103.5 Z"/></g>
<g><path style="opacity:1" fill="#3c3831" d="M 148.5,107.5 C 148.482,112.848 146.815,117.514 143.5,121.5C 143.423,120.25 142.756,119.417 141.5,119C 142.333,118.167 143.167,117.333 144,116.5C 144.333,113.5 144.667,110.5 145,107.5C 145.986,106.829 147.153,106.829 148.5,107.5 Z"/></g>
<g><path style="opacity:1" fill="#4f4a42" d="M 162.5,115.5 C 170.676,114.179 179.009,114.179 187.5,115.5C 186.687,116.814 185.687,117.981 184.5,119C 177.901,120.496 171.234,120.829 164.5,120C 167.5,119.667 170.5,119.333 173.5,119C 172.167,118.667 170.833,118.333 169.5,118C 171.5,117.667 173.5,117.333 175.5,117C 171.23,115.925 166.897,115.425 162.5,115.5 Z"/></g>
<g><path style="opacity:1" fill="#24211d" d="M 192.5,112.5 C 200.167,112.5 207.833,112.5 215.5,112.5C 215.555,115.614 216.888,117.948 219.5,119.5C 219.539,120.583 219.873,121.583 220.5,122.5C 222.396,123.466 224.396,123.799 226.5,123.5C 226.5,124.5 226.5,125.5 226.5,126.5C 224.801,126.66 223.134,126.494 221.5,126C 219.402,123.146 217.069,120.479 214.5,118C 211.044,116.877 208.21,117.71 206,120.5C 205.059,118.939 203.892,117.605 202.5,116.5C 201.081,117.005 200.415,118.005 200.5,119.5C 196.776,120.227 194.109,118.894 192.5,115.5C 199.811,114.669 207.144,114.169 214.5,114C 206.989,113.829 199.655,113.329 192.5,112.5 Z"/></g>
<g><path style="opacity:1" fill="#161615" d="M 223.5,111.5 C 226.075,113.845 227.075,116.845 226.5,120.5C 225.209,120.737 224.209,120.404 223.5,119.5C 223.5,116.833 223.5,114.167 223.5,111.5 Z"/></g>
<g><path style="opacity:1" fill="#f4f4f4" d="M 153.5,126.5 C 156.962,127.482 160.629,127.815 164.5,127.5C 164.5,126.5 164.5,125.5 164.5,124.5C 169.975,123.511 175.642,123.178 181.5,123.5C 181.399,136.575 180.399,149.575 178.5,162.5C 169.793,150.625 159.46,140.125 147.5,131C 141.093,131.4 140.927,129.9 147,126.5C 148.497,122.835 150.497,119.502 153,116.5C 153.498,119.817 153.665,123.15 153.5,126.5 Z"/></g>
<g><path style="opacity:1" fill="#898887" d="M 216.5,101.5 C 219.962,100.518 223.629,100.185 227.5,100.5C 227.5,109.5 227.5,118.5 227.5,127.5C 223.833,127.5 220.167,127.5 216.5,127.5C 216.5,126.5 216.5,125.5 216.5,124.5C 213.615,124.806 210.948,124.473 208.5,123.5C 206.833,123.5 205.167,123.5 203.5,123.5C 203.262,121.596 202.262,120.262 200.5,119.5C 200.415,118.005 201.081,117.005 202.5,116.5C 203.892,117.605 205.059,118.939 206,120.5C 208.21,117.71 211.044,116.877 214.5,118C 217.069,120.479 219.402,123.146 221.5,126C 223.134,126.494 224.801,126.66 226.5,126.5C 226.5,125.5 226.5,124.5 226.5,123.5C 224.396,123.799 222.396,123.466 220.5,122.5C 219.873,121.583 219.539,120.583 219.5,119.5C 219.281,118.325 219.614,117.325 220.5,116.5C 221.288,117.77 222.288,118.77 223.5,119.5C 224.209,120.404 225.209,120.737 226.5,120.5C 227.075,116.845 226.075,113.845 223.5,111.5C 221.825,109.544 222.158,108.211 224.5,107.5C 225.117,107.611 225.617,107.944 226,108.5C 226.497,106.19 226.663,103.857 226.5,101.5C 223.167,101.5 219.833,101.5 216.5,101.5 Z"/></g>
<g><path style="opacity:1" fill="#10100f" d="M 208.5,123.5 C 208.484,121.516 209.484,120.516 211.5,120.5C 213,120.453 214,121.119 214.5,122.5C 212.604,123.466 210.604,123.799 208.5,123.5 Z"/></g>
<g><path style="opacity:1" fill="#3c372f" d="M 103.5,117.5 C 104.404,118.209 104.737,119.209 104.5,120.5C 107.271,122.086 110.271,122.586 113.5,122C 115.14,120.605 116.64,119.105 118,117.5C 119.188,118.563 119.688,119.897 119.5,121.5C 116.518,122.406 113.685,123.74 111,125.5C 108.236,123.873 105.403,122.54 102.5,121.5C 102.433,120.041 102.766,118.708 103.5,117.5 Z"/></g>
<g><path style="opacity:1" fill="#909090" d="M 164.5,124.5 C 164.5,125.5 164.5,126.5 164.5,127.5C 160.629,127.815 156.962,127.482 153.5,126.5C 157.502,126.964 161.169,126.298 164.5,124.5 Z"/></g>
<g><path style="opacity:1" fill="#979797" d="M 76.5,128.5 C 77.5,128.5 78.5,128.5 79.5,128.5C 79.6495,129.552 79.4828,130.552 79,131.5C 77.9887,130.663 76.8221,130.33 75.5,130.5C 75.8333,129.833 76.1667,129.167 76.5,128.5 Z"/></g>
<g><path style="opacity:1" fill="#68645c" d="M 192.5,118.5 C 193.117,118.611 193.617,118.944 194,119.5C 194.539,122.529 195.206,125.529 196,128.5C 196.708,127.619 197.542,126.953 198.5,126.5C 198.5,129.5 198.5,132.5 198.5,135.5C 197.833,135.167 197.167,134.833 196.5,134.5C 196.53,133.503 196.03,132.836 195,132.5C 193.85,133.424 192.85,133.424 192,132.5C 191.185,127.648 191.352,122.981 192.5,118.5 Z"/></g>
<g><path style="opacity:1" fill="#332d26" d="M 135.5,122.5 C 132.855,124.938 131.688,127.938 132,131.5C 133.166,128.497 134.833,125.83 137,123.5C 137.18,126.309 136.513,128.976 135,131.5C 129.038,136.55 122.871,141.217 116.5,145.5C 116.5,144.167 116.5,142.833 116.5,141.5C 118.716,140.797 120.549,139.464 122,137.5C 125.075,137.632 127.742,136.299 130,133.5C 130.206,130.377 130.873,127.377 132,124.5C 132.816,123.177 133.983,122.511 135.5,122.5 Z"/></g>
<g><path style="opacity:1" fill="#3d3a33" d="M 190.5,116.5 C 191.5,116.833 192.167,117.5 192.5,118.5C 191.352,122.981 191.185,127.648 192,132.5C 192.85,133.424 193.85,133.424 195,132.5C 196.03,132.836 196.53,133.503 196.5,134.5C 196.255,143.194 196.588,151.861 197.5,160.5C 197.767,162.976 197.101,163.643 195.5,162.5C 194.993,157.131 194.159,151.798 193,146.5C 192.829,151.864 192.329,157.198 191.5,162.5C 190.501,147.181 190.167,131.848 190.5,116.5 Z"/></g>
<g><path style="opacity:1" fill="#6e695d" d="M 116.5,141.5 C 116.5,142.833 116.5,144.167 116.5,145.5C 113.038,146.482 109.371,146.815 105.5,146.5C 106.555,139.344 110.221,137.677 116.5,141.5 Z"/></g>
<g><path style="opacity:1" fill="#858073" d="M 148.5,140.5 C 152.161,140.426 152.828,141.426 150.5,143.5C 149.081,142.995 148.415,141.995 148.5,140.5 Z"/></g>
<g><path style="opacity:1" fill="#948d7f" d="M 70.5,140.5 C 74.2998,140.819 74.4665,141.819 71,143.5C 69.2716,142.648 69.105,141.648 70.5,140.5 Z"/></g>
<g><path style="opacity:1" fill="#332e27" d="M 89.5,125.5 C 90.3844,128.023 91.2177,130.69 92,133.5C 94.3333,135.5 96.6667,137.5 99,139.5C 99.3333,138.833 99.6667,138.167 100,137.5C 101.117,139.124 102.617,140.124 104.5,140.5C 106.412,139.149 108.578,138.482 111,138.5C 113.655,138.124 115.488,139.124 116.5,141.5C 110.221,137.677 106.555,139.344 105.5,146.5C 103.863,144.684 102.363,142.684 101,140.5C 100.282,141.451 99.4491,141.617 98.5,141C 94.6667,137.833 90.8333,134.667 87,131.5C 85.6859,128.911 85.0192,126.244 85,123.5C 86.7134,124.878 88.0467,126.545 89,128.5C 89.4828,127.552 89.6495,126.552 89.5,125.5 Z"/></g>
<g><path style="opacity:1" fill="#666156" d="M 75.5,136.5 C 76.8222,139.768 77.4888,143.435 77.5,147.5C 77.3333,151.167 77.1667,154.833 77,158.5C 75.1551,156.65 73.1551,156.317 71,157.5C 70.3828,156.551 70.5494,155.718 71.5,155C 67.9499,152.697 67.6166,150.03 70.5,147C 70.3552,146.228 70.0219,145.561 69.5,145C 71.676,144.837 73.5093,144.004 75,142.5C 74.744,140.398 74.9107,138.398 75.5,136.5 Z"/></g>
<g><path style="opacity:1" fill="#36342e" d="M 83.5,137.5 C 84.224,139.218 84.8906,141.052 85.5,143C 81.7698,143.658 79.7698,145.824 79.5,149.5C 79.3359,146.813 79.5026,144.146 80,141.5C 80.6054,139.519 81.6054,139.185 83,140.5C 83.4828,139.552 83.6495,138.552 83.5,137.5 Z"/></g>
<g><path style="opacity:1" fill="#3a332b" d="M 127.5,146.5 C 127.631,145.761 127.464,145.094 127,144.5C 116.259,156.455 105.592,156.455 95,144.5C 94.5357,145.094 94.369,145.761 94.5,146.5C 93.2121,144.965 93.2121,143.299 94.5,141.5C 98.0122,143.757 101.346,146.257 104.5,149C 108.5,149.667 112.5,149.667 116.5,149C 120.951,146.217 125.117,143.05 129,139.5C 129.068,141.995 128.568,144.328 127.5,146.5 Z"/></g>
<g><path style="opacity:1" fill="#a69f8f" d="M 66.5,144.5 C 69.0708,146.101 69.0708,147.767 66.5,149.5C 65.7132,148.758 65.0465,147.925 64.5,147C 65.3805,146.292 66.0472,145.458 66.5,144.5 Z"/></g>
<g><path style="opacity:1" fill="#656055" d="M 127.5,146.5 C 124.938,149.583 123.604,152.917 123.5,156.5C 121.442,157.933 119.108,158.6 116.5,158.5C 110.494,159.11 104.827,158.11 99.5,155.5C 96.6386,154.763 95.6386,153.096 96.5,150.5C 95.3698,149.378 94.7031,148.044 94.5,146.5C 94.369,145.761 94.5357,145.094 95,144.5C 105.592,156.455 116.259,156.455 127,144.5C 127.464,145.094 127.631,145.761 127.5,146.5 Z"/></g>
<g><path style="opacity:1" fill="#968f81" d="M 153.5,145.5 C 157.541,145.502 158.208,146.835 155.5,149.5C 153.889,148.68 153.222,147.346 153.5,145.5 Z"/></g>
<g><path style="opacity:1" fill="#615d53" d="M 87.5,146.5 C 86.2101,147.058 85.3768,148.058 85,149.5C 84.1072,148.289 83.2739,148.289 82.5,149.5C 81.2528,151.323 80.5861,153.323 80.5,155.5C 80.5,157.833 80.5,160.167 80.5,162.5C 79.5151,158.366 79.1818,154.032 79.5,149.5C 79.7698,145.824 81.7698,143.658 85.5,143C 84.8906,141.052 84.224,139.218 83.5,137.5C 84.0915,134.917 84.7582,134.917 85.5,137.5C 86.3284,140.479 86.9951,143.479 87.5,146.5 Z"/></g>
<g><path style="opacity:1" fill="#6a6459" d="M 153.5,152.5 C 150.863,154.491 148.196,156.491 145.5,158.5C 144.181,151.323 144.181,143.99 145.5,136.5C 146.5,136.833 147.167,137.5 147.5,138.5C 146.165,142.689 147.832,144.856 152.5,145C 151.978,145.561 151.645,146.228 151.5,147C 152.856,148.567 153.523,150.4 153.5,152.5 Z"/></g>
<g><path style="opacity:1" fill="#8e887b" d="M 87.5,146.5 C 90.4253,158.943 93.7586,171.276 97.5,183.5C 96.8333,186.5 96.1667,189.5 95.5,192.5C 96.8592,181.926 94.1926,172.592 87.5,164.5C 89.7678,162.09 90.1011,159.423 88.5,156.5C 88.7778,154.654 88.1112,153.32 86.5,152.5C 85.5745,153.641 84.7412,153.641 84,152.5C 82.9609,153.71 81.7942,154.71 80.5,155.5C 80.5861,153.323 81.2528,151.323 82.5,149.5C 83.2739,148.289 84.1072,148.289 85,149.5C 85.3768,148.058 86.2101,147.058 87.5,146.5 Z"/></g>
<g><path style="opacity:1" fill="#a8a090" d="M 64.5,150.5 C 62.1002,153.903 59.1002,156.57 55.5,158.5C 56.8115,154.996 58.8115,151.83 61.5,149C 62.9976,148.415 63.9976,148.915 64.5,150.5 Z"/></g>
<g><path style="opacity:1" fill="#686357" d="M 32.5,154.5 C 34.1667,154.5 35.8333,154.5 37.5,154.5C 38.1164,162.198 38.1164,169.865 37.5,177.5C 35.8067,175.973 33.9734,174.64 32,173.5C 31.2098,167.085 31.3765,160.752 32.5,154.5 Z"/></g>
<g><path style="opacity:1" fill="#a8a091" d="M 166.5,158.5 C 163.545,155.884 160.545,153.218 157.5,150.5C 158.002,148.915 159.002,148.415 160.5,149C 163.188,151.83 165.188,154.996 166.5,158.5 Z"/></g>
<g><path style="opacity:1" fill="#6b6559" d="M 39.5,154.5 C 41.4672,154.261 43.3005,154.594 45,155.5C 45.6667,161.833 45.6667,168.167 45,174.5C 44,175.167 43,175.833 42,176.5C 40.3452,169.261 39.5118,161.928 39.5,154.5 Z"/></g>
<g><path style="opacity:1" fill="#141311" d="M 128.5,197.5 C 127.833,197.5 127.167,197.5 126.5,197.5C 126.365,190.138 126.698,182.804 127.5,175.5C 129.547,171.762 131.88,168.095 134.5,164.5C 131.087,159.25 132.42,156.75 138.5,157C 139.894,157.956 140.561,159.289 140.5,161C 137.06,168.047 133.226,174.88 129,181.5C 128.333,182.833 128.333,184.167 129,185.5C 130.34,182.798 131.673,180.131 133,177.5C 132.301,182.264 130.968,186.931 129,191.5C 128.505,193.473 128.338,195.473 128.5,197.5 Z"/></g>
<g><path style="opacity:1" fill="#979182" d="M 99.5,155.5 C 104.827,158.11 110.494,159.11 116.5,158.5C 113.038,159.482 109.371,159.815 105.5,159.5C 102.853,159.071 100.853,157.738 99.5,155.5 Z"/></g>
<g><path style="opacity:1" fill="#a19a8a" d="M 66.5,153.5 C 68.3079,154.918 68.9746,156.918 68.5,159.5C 70.0603,159.481 71.5603,159.148 73,158.5C 74.0588,158.63 74.8921,159.13 75.5,160C 73.7505,161.319 71.7505,161.819 69.5,161.5C 69.4208,162.93 69.7542,164.264 70.5,165.5C 69.7112,167.488 68.5445,167.821 67,166.5C 66.51,165.207 66.3433,163.873 66.5,162.5C 58.5,161.5 58.5,160.5 66.5,159.5C 65.7249,157.388 65.7249,155.388 66.5,153.5 Z"/></g>
<g><path style="opacity:1" fill="#2b2a26" d="M 123.5,156.5 C 124.686,157.961 124.686,159.295 123.5,160.5C 123.631,159.761 123.464,159.094 123,158.5C 116.322,162.596 109.489,163.263 102.5,160.5C 103.791,160.737 104.791,160.404 105.5,159.5C 109.371,159.815 113.038,159.482 116.5,158.5C 119.108,158.6 121.442,157.933 123.5,156.5 Z"/></g>
<g><path style="opacity:1" fill="#1a1815" d="M 190.5,116.5 C 190.167,131.848 190.501,147.181 191.5,162.5C 192.329,157.198 192.829,151.864 193,146.5C 194.159,151.798 194.993,157.131 195.5,162.5C 195.414,163.496 195.748,164.329 196.5,165C 197.737,165.232 198.737,165.732 199.5,166.5C 193.167,166.5 186.833,166.5 180.5,166.5C 182.607,165.532 184.941,165.198 187.5,165.5C 187.666,157.493 187.5,149.493 187,141.5C 186.383,149.165 185.383,156.165 184,162.5C 183.667,163.167 183.333,163.833 183,164.5C 183.649,149.504 184.649,134.504 186,119.5C 187.129,117.859 188.629,116.859 190.5,116.5 Z"/></g>
<g><path style="opacity:1" fill="#b0a898" d="M 102.5,160.5 C 109.489,163.263 116.322,162.596 123,158.5C 123.464,159.094 123.631,159.761 123.5,160.5C 122.272,165.536 120.939,170.536 119.5,175.5C 118.264,177.611 116.764,179.611 115,181.5C 114.667,181.167 114.333,180.833 114,180.5C 110.841,183.341 108.508,182.674 107,178.5C 106.667,179.167 106.333,179.833 106,180.5C 104.811,178.767 103.644,177.1 102.5,175.5C 100.683,169.919 99.5161,164.252 99,158.5C 100.113,159.305 101.279,159.972 102.5,160.5 Z"/></g>
<g><path style="opacity:1" fill="#a69e8f" d="M 51.5,160.5 C 52.4959,160.414 53.3292,160.748 54,161.5C 54.9445,165.494 55.7779,169.494 56.5,173.5C 54.323,173.586 52.323,174.253 50.5,175.5C 48.9563,170.247 49.2896,165.247 51.5,160.5 Z"/></g>
<g><path style="opacity:1" fill="#696459" d="M 76.5,160.5 C 77.8117,162.743 78.4783,165.41 78.5,168.5C 78.1667,171.167 77.8333,173.833 77.5,176.5C 75.9291,175.691 74.2624,175.357 72.5,175.5C 71.1736,172.999 70.6736,170.332 71,167.5C 73.3045,165.46 75.1378,163.126 76.5,160.5 Z"/></g>
<g><path style="opacity:1" fill="#6b655a" d="M 64.5,150.5 C 65.0431,150.56 65.3764,150.893 65.5,151.5C 63.9137,153.173 63.2471,155.173 63.5,157.5C 55.3015,160.677 55.6348,163.011 64.5,164.5C 64.393,166.903 65.393,168.736 67.5,170C 66.1111,171.957 64.6111,173.79 63,175.5C 61.7753,175.138 60.6086,174.638 59.5,174C 58.0871,168.848 56.7538,163.682 55.5,158.5C 59.1002,156.57 62.1002,153.903 64.5,150.5 Z"/></g>
<g><path style="opacity:1" fill="#6a6459" d="M 143.5,161.5 C 147.594,163.092 150.594,165.925 152.5,170C 149.938,172.733 147.271,175.233 144.5,177.5C 143.512,172.36 143.179,167.026 143.5,161.5 Z"/></g>
<g><path style="opacity:1" fill="#635e53" d="M 156.5,150.5 C 156.833,150.5 157.167,150.5 157.5,150.5C 160.545,153.218 163.545,155.884 166.5,158.5C 166.5,158.833 166.5,159.167 166.5,159.5C 164.876,165.669 163.376,172.002 162,178.5C 158.785,176.286 156.285,173.452 154.5,170C 156.607,168.736 157.607,166.903 157.5,164.5C 166.365,163.011 166.699,160.677 158.5,157.5C 158.6,154.892 157.933,152.558 156.5,150.5 Z"/></g>
<g><path style="opacity:1" fill="#a8a091" d="M 139.5,175.5 C 135.4,185.07 132.4,195.07 130.5,205.5C 129.91,206.766 129.41,208.099 129,209.5C 128.501,205.514 128.334,201.514 128.5,197.5C 128.338,195.473 128.505,193.473 129,191.5C 130.968,186.931 132.301,182.264 133,177.5C 131.673,180.131 130.34,182.798 129,185.5C 128.333,184.167 128.333,182.833 129,181.5C 133.226,174.88 137.06,168.047 140.5,161C 140.561,159.289 139.894,157.956 138.5,157C 132.42,156.75 131.087,159.25 134.5,164.5C 131.88,168.095 129.547,171.762 127.5,175.5C 130.214,162.021 133.548,148.688 137.5,135.5C 137.833,135.833 138.167,136.167 138.5,136.5C 136.778,140.201 136.611,143.868 138,147.5C 138.915,146.672 139.581,145.672 140,144.5C 142.131,154.964 141.965,165.297 139.5,175.5 Z"/></g>
<g><path style="opacity:1" fill="#cdc8be" d="M 171.5,161.5 C 172.511,163.402 172.678,165.402 172,167.5C 170.883,167.665 169.716,167.998 168.5,168.5C 167.702,168.043 167.369,167.376 167.5,166.5C 167.5,165.5 167.5,164.5 167.5,163.5C 168.287,161.896 169.62,161.229 171.5,161.5 Z"/></g>
<g><path style="opacity:1" fill="#a79f90" d="M 88.5,156.5 C 81.1718,157.373 79.6718,161.039 84,167.5C 89.4895,172.329 92.4895,178.329 93,185.5C 92,183.167 91,180.833 90,178.5C 89.3457,177.304 88.8457,177.304 88.5,178.5C 93.1299,188.005 94.6299,198.005 93,208.5C 90.5647,200.367 88.0647,192.367 85.5,184.5C 83.0013,177.342 81.3346,170.008 80.5,162.5C 80.5,160.167 80.5,157.833 80.5,155.5C 81.7942,154.71 82.9609,153.71 84,152.5C 84.7412,153.641 85.5745,153.641 86.5,152.5C 88.1112,153.32 88.7778,154.654 88.5,156.5 Z"/></g>
<g><path style="opacity:1" fill="#706a5e" d="M 180.5,166.5 C 186.833,166.5 193.167,166.5 199.5,166.5C 199.5,167.833 199.5,169.167 199.5,170.5C 193.167,170.5 186.833,170.5 180.5,170.5C 180.5,169.167 180.5,167.833 180.5,166.5 Z"/></g>
<g><path style="opacity:1" fill="#a0998a" d="M 144.5,179.5 C 144.5,179.167 144.5,178.833 144.5,178.5C 146.717,177.631 149.05,177.298 151.5,177.5C 151.5,175.833 151.5,174.167 151.5,172.5C 152.5,172.5 153.5,172.5 154.5,172.5C 154.167,174.5 153.833,176.5 153.5,178.5C 155.924,178.192 158.257,178.526 160.5,179.5C 159.252,181.69 157.586,182.023 155.5,180.5C 154.988,182.851 153.988,184.851 152.5,186.5C 151.5,186.167 150.833,185.5 150.5,184.5C 151.246,183.264 151.579,181.93 151.5,180.5C 149.05,180.702 146.717,180.369 144.5,179.5 Z"/></g>
<g><path style="opacity:1" fill="#918a7e" d="M 171.5,161.5 C 173.197,163.305 174.03,165.639 174,168.5C 175.011,167.663 176.178,167.33 177.5,167.5C 176.92,171.81 176.586,176.143 176.5,180.5C 175.883,180.611 175.383,180.944 175,181.5C 174.529,179.754 173.862,178.087 173,176.5C 171.984,177.634 171.317,177.301 171,175.5C 171.817,178.603 171.317,181.603 169.5,184.5C 170.428,185.768 170.595,187.101 170,188.5C 169.658,186.381 168.825,186.047 167.5,187.5C 167.37,184.971 167.37,182.305 167.5,179.5C 167.167,179.167 166.833,178.833 166.5,178.5C 165.818,179.243 165.151,179.909 164.5,180.5C 164.87,175.578 165.87,170.911 167.5,166.5C 167.369,167.376 167.702,168.043 168.5,168.5C 169.716,167.998 170.883,167.665 172,167.5C 172.678,165.402 172.511,163.402 171.5,161.5 Z"/></g>
<g><path style="opacity:1" fill="#2d2822" d="M 113.5,210.5 C 113.724,212.787 114.391,214.953 115.5,217C 115.241,218.261 114.574,219.261 113.5,220C 114.406,221.699 114.739,223.533 114.5,225.5C 113.566,228.656 112.899,231.989 112.5,235.5C 111.648,244.32 110.648,244.486 109.5,236C 109.833,235 110.167,234 110.5,233C 108.419,230.182 108.085,227.182 109.5,224C 106.833,222 106.833,220 109.5,218C 108.142,217.066 106.808,216.232 105.5,215.5C 106.586,215.38 107.253,214.713 107.5,213.5C 102.911,193.235 97.411,173.235 91,153.5C 89.3423,147.554 88.3423,141.554 88,135.5C 96.4843,163.618 104.151,191.952 111,220.5C 111.738,217.009 112.571,213.675 113.5,210.5 Z"/></g>
<g><path style="opacity:1" fill="#6c665b" d="M 26.5,194.5 C 27.1342,195.947 28.3009,196.613 30,196.5C 31.9836,196.259 33.8169,195.592 35.5,194.5C 36.735,195.34 37.735,196.34 38.5,197.5C 44.3429,191.745 49.3429,185.245 53.5,178C 56.579,176.91 58.9124,177.743 60.5,180.5C 58,183.5 55.5,186.5 53,189.5C 51.8328,195.348 49.3328,200.514 45.5,205C 38.4608,208.434 31.6274,208.267 25,204.5C 22.0464,197.443 21.0464,190.11 22,182.5C 30.7446,174.555 34.7446,176.555 34,188.5C 29.5113,191.797 26.5113,190.797 25,185.5C 22.801,189.022 23.301,192.022 26.5,194.5 Z"/></g>
<g><path style="opacity:1" fill="#272420" d="M 139.5,175.5 C 139.827,177.488 140.16,179.488 140.5,181.5C 138.285,189.472 136.285,197.472 134.5,205.5C 133.167,205.5 131.833,205.5 130.5,205.5C 132.4,195.07 135.4,185.07 139.5,175.5 Z"/></g>
<g><path style="opacity:1" fill="#a7a090" d="M 67.5,172.5 C 68.5,172.5 69.5,172.5 70.5,172.5C 70.5,174.167 70.5,175.833 70.5,177.5C 72.5,177.5 74.5,177.5 76.5,177.5C 76.5,178.5 76.5,179.5 76.5,180.5C 74.5,180.5 72.5,180.5 70.5,180.5C 70.4208,181.93 70.7542,183.264 71.5,184.5C 70.1667,187.167 68.8333,187.167 67.5,184.5C 68.2458,183.264 68.5792,181.93 68.5,180.5C 67.0222,180.762 65.6888,180.429 64.5,179.5C 65.325,178.614 66.325,178.281 67.5,178.5C 67.5,176.5 67.5,174.5 67.5,172.5 Z"/></g>
<g><path style="opacity:1" fill="#726c60" d="M 186.5,172.5 C 198.71,170.637 202.543,175.303 198,186.5C 196.758,187.872 195.258,188.872 193.5,189.5C 192.614,190.325 192.281,191.325 192.5,192.5C 190.833,192.5 189.167,192.5 187.5,192.5C 187.719,191.325 187.386,190.325 186.5,189.5C 182.106,187.694 180.106,184.361 180.5,179.5C 180.408,175.265 182.408,172.931 186.5,172.5 Z"/></g>
<g><path style="opacity:1" fill="#b7ae9d" d="M 189.5,173.5 C 195.699,172.153 198.199,174.487 197,180.5C 194.599,181.602 192.099,181.769 189.5,181C 186.914,178.506 186.914,176.006 189.5,173.5 Z"/></g>
<g><path style="opacity:1" fill="#6c665b" d="M 102.5,175.5 C 103.644,177.1 104.811,178.767 106,180.5C 106.333,179.833 106.667,179.167 107,178.5C 108.508,182.674 110.841,183.341 114,180.5C 114.333,180.833 114.667,181.167 115,181.5C 116.764,179.611 118.264,177.611 119.5,175.5C 116.173,184.984 113.34,194.651 111,204.5C 108.589,194.67 105.755,185.004 102.5,175.5 Z"/></g>
<g><path style="opacity:1" fill="#6a6559" d="M 142.5,180.5 C 144.315,181.63 146.315,182.296 148.5,182.5C 149.36,184.816 149.86,187.149 150,189.5C 148.5,191.667 146.667,193.5 144.5,195C 143.184,195.528 142.517,195.028 142.5,193.5C 142.5,189.167 142.5,184.833 142.5,180.5 Z"/></g>
<g><path style="opacity:1" fill="#696358" d="M 79.5,195.5 C 77.8297,195.249 76.3297,194.582 75,193.5C 74.6667,193.833 74.3333,194.167 74,194.5C 73.6162,191.94 72.7829,189.606 71.5,187.5C 72.9313,186.22 73.5979,184.553 73.5,182.5C 75.4835,182.617 77.1502,181.95 78.5,180.5C 79.4941,185.456 79.8275,190.456 79.5,195.5 Z"/></g>
<g><path style="opacity:1" fill="#6b655a" d="M 68.5,187.5 C 67.5387,191.456 65.2053,194.123 61.5,195.5C 61.335,192.15 61.5017,188.817 62,185.5C 62.6891,184.643 63.5224,183.977 64.5,183.5C 65.5213,185.188 66.8546,186.521 68.5,187.5 Z"/></g>
<g><path style="opacity:1" fill="#afa797" d="M 167.5,187.5 C 167.539,188.583 167.873,189.583 168.5,190.5C 167.833,190.833 167.167,191.167 166.5,191.5C 167.33,194.016 168.33,196.35 169.5,198.5C 168.242,200.687 167.242,203.02 166.5,205.5C 165.378,207.288 165.211,209.288 166,211.5C 166.333,210.833 166.667,210.167 167,209.5C 167.175,214.019 167.675,218.353 168.5,222.5C 173.272,225.451 177.605,229.118 181.5,233.5C 177.591,236.288 174.091,235.622 171,231.5C 168.682,228.531 167.182,225.198 166.5,221.5C 166.217,220.711 165.717,220.044 165,219.5C 164.355,223.362 164.521,227.196 165.5,231C 165.299,233.111 164.633,234.945 163.5,236.5C 163.058,232.846 162.724,229.179 162.5,225.5C 162.051,210.427 162.717,195.427 164.5,180.5C 165.151,179.909 165.818,179.243 166.5,178.5C 166.833,178.833 167.167,179.167 167.5,179.5C 167.37,182.305 167.37,184.971 167.5,187.5 Z"/></g>
<g><path style="opacity:1" fill="#a29883" d="M 180.5,189.5 C 184.06,191.283 184.06,192.283 180.5,192.5C 180.5,191.5 180.5,190.5 180.5,189.5 Z"/></g>
<g><path style="opacity:1" fill="#342e26" d="M 38.5,197.5 C 37.735,196.34 36.735,195.34 35.5,194.5C 33.8169,195.592 31.9836,196.259 30,196.5C 28.3009,196.613 27.1342,195.947 26.5,194.5C 34.5622,195.758 38.5622,192.425 38.5,184.5C 44.5519,183.314 45.0519,184.981 40,189.5C 38.9207,192.063 38.4207,194.729 38.5,197.5 Z"/></g>
<g><path style="opacity:1" fill="#2d2822" d="M 119.5,197.5 C 119.082,198.222 118.416,198.722 117.5,199C 119.787,201.243 119.953,203.743 118,206.5C 116.385,207.386 114.885,208.386 113.5,209.5C 119.988,185.85 126.488,162.183 133,138.5C 133.763,135.937 134.263,135.937 134.5,138.5C 130.051,158.076 124.718,177.41 118.5,196.5C 118.624,197.107 118.957,197.44 119.5,197.5 Z"/></g>
<g><path style="opacity:1" fill="#46433c" d="M 176.5,180.5 C 176.387,183.049 177.054,185.382 178.5,187.5C 177.282,187.109 176.448,187.776 176,189.5C 175.667,188.833 175.333,188.167 175,187.5C 173.153,191.193 171.32,194.86 169.5,198.5C 168.33,196.35 167.33,194.016 166.5,191.5C 167.167,191.167 167.833,190.833 168.5,190.5C 167.873,189.583 167.539,188.583 167.5,187.5C 168.825,186.047 169.658,186.381 170,188.5C 170.595,187.101 170.428,185.768 169.5,184.5C 171.317,181.603 171.817,178.603 171,175.5C 171.317,177.301 171.984,177.634 173,176.5C 173.862,178.087 174.529,179.754 175,181.5C 175.383,180.944 175.883,180.611 176.5,180.5 Z"/></g>
<g><path style="opacity:1" fill="#9d9688" d="M 74.5,199.5 C 71.5133,199.422 70.8466,200.589 72.5,203C 71.9931,205.341 70.8265,205.841 69,204.5C 68.5065,202.866 68.3398,201.199 68.5,199.5C 65.9179,199.975 63.9179,199.308 62.5,197.5C 64.3792,196.659 66.3792,196.325 68.5,196.5C 69.5,188.5 70.5,188.5 71.5,196.5C 73.2259,196.185 74.8925,196.019 76.5,196C 77.8398,198.149 77.1731,199.316 74.5,199.5 Z"/></g>
<g><path style="opacity:1" fill="#201f1c" d="M 68.5,187.5 C 69.2216,187.918 69.7216,188.584 70,189.5C 70.2784,188.584 70.7784,187.918 71.5,187.5C 72.7829,189.606 73.6162,191.94 74,194.5C 74.3333,194.167 74.6667,193.833 75,193.5C 76.3297,194.582 77.8297,195.249 79.5,195.5C 79.1961,196.15 78.8627,196.817 78.5,197.5C 79.7385,200.469 80.4052,203.636 80.5,207C 80.3333,209.833 80.1667,212.667 80,215.5C 79.5831,216.756 78.7498,217.423 77.5,217.5C 76.0821,215.692 74.0821,215.025 71.5,215.5C 71.2627,214.209 71.596,213.209 72.5,212.5C 72.8425,214.225 73.8425,214.725 75.5,214C 74.8333,213.667 74.1667,213.333 73.5,213C 73.7284,212.601 74.0618,212.435 74.5,212.5C 76.1703,212.751 77.6703,213.418 79,214.5C 79.6667,209.5 79.6667,204.5 79,199.5C 77.5913,200.781 76.0913,201.781 74.5,202.5C 73.375,201.652 73.375,200.652 74.5,199.5C 77.1731,199.316 77.8398,198.149 76.5,196C 74.8925,196.019 73.2259,196.185 71.5,196.5C 70.5,188.5 69.5,188.5 68.5,196.5C 66.3792,196.325 64.3792,196.659 62.5,197.5C 62.1667,196.833 61.8333,196.167 61.5,195.5C 65.2053,194.123 67.5387,191.456 68.5,187.5 Z"/></g>
<g><path style="opacity:1" fill="#39322b" d="M 196.5,197.5 C 192.5,197.5 188.5,197.5 184.5,197.5C 184.5,200.833 184.5,204.167 184.5,207.5C 181.556,206.412 178.556,206.412 175.5,207.5C 174.971,203.649 175.638,200.149 177.5,197C 184.014,196.18 190.347,196.347 196.5,197.5 Z"/></g>
<g><path style="opacity:1" fill="#6f695e" d="M 196.5,197.5 C 199.428,198.591 201.594,200.591 203,203.5C 204.263,211.18 203.263,218.513 200,225.5C 197.592,228.62 194.426,229.953 190.5,229.5C 188.656,227.721 187.99,225.388 188.5,222.5C 191.258,221.033 190.925,220.367 187.5,220.5C 187.5,217.5 187.5,214.5 187.5,211.5C 188.675,211.719 189.675,211.386 190.5,210.5C 190.376,209.893 190.043,209.56 189.5,209.5C 187.716,209.107 186.05,208.441 184.5,207.5C 184.5,204.167 184.5,200.833 184.5,197.5C 188.5,197.5 192.5,197.5 196.5,197.5 Z"/></g>
<g><path style="opacity:1" fill="#6c665b" d="M 74.5,212.5 C 74.2779,210.393 73.2779,208.726 71.5,207.5C 72.7629,205.971 73.7629,204.305 74.5,202.5C 76.0913,201.781 77.5913,200.781 79,199.5C 79.6667,204.5 79.6667,209.5 79,214.5C 77.6703,213.418 76.1703,212.751 74.5,212.5 Z"/></g>
<g><path style="opacity:1" fill="#1c1a17" d="M 88.5,156.5 C 90.1011,159.423 89.7678,162.09 87.5,164.5C 94.1926,172.592 96.8592,181.926 95.5,192.5C 95.287,199.211 95.6204,205.877 96.5,212.5C 96.7549,214.967 97.7549,216.967 99.5,218.5C 99.762,219.978 99.4287,221.311 98.5,222.5C 97.8933,222.376 97.56,222.043 97.5,221.5C 96.2496,216.698 94.9163,217.031 93.5,222.5C 89.6902,209.951 85.8568,197.285 82,184.5C 81.3333,182.833 81.3333,181.167 82,179.5C 82.9344,183.637 84.2678,187.637 86,191.5C 86.0178,189.203 85.8511,186.869 85.5,184.5C 88.0647,192.367 90.5647,200.367 93,208.5C 94.6299,198.005 93.1299,188.005 88.5,178.5C 88.8457,177.304 89.3457,177.304 90,178.5C 91,180.833 92,183.167 93,185.5C 92.4895,178.329 89.4895,172.329 84,167.5C 79.6718,161.039 81.1718,157.373 88.5,156.5 Z"/></g>
<g><path style="opacity:1" fill="#6b6559" d="M 62.5,201.5 C 71.2169,204.906 71.5503,208.906 63.5,213.5C 62.5091,209.555 62.1758,205.555 62.5,201.5 Z"/></g>
<g><path style="opacity:1" fill="#a39c8c" d="M 88.5,218.5 C 88.631,219.239 88.4643,219.906 88,220.5C 87.5814,219.328 86.9147,218.328 86,217.5C 85.7645,219.119 84.9311,220.119 83.5,220.5C 83.6716,219.508 83.3382,218.842 82.5,218.5C 82.3337,211.825 82.5004,205.158 83,198.5C 85.5511,204.984 87.3844,211.651 88.5,218.5 Z"/></g>
<g><path style="opacity:1" fill="#0e0e0d" d="M 101.5,215.5 C 100.778,215.918 100.278,216.584 100,217.5C 98.5949,214.381 98.0949,211.048 98.5,207.5C 98.7086,206.078 99.2086,204.745 100,203.5C 100.333,203.833 100.667,204.167 101,204.5C 101.499,208.152 101.665,211.818 101.5,215.5 Z"/></g>
<g><path style="opacity:1" fill="#383129" d="M 49.5,206.5 C 50.1524,207.449 50.4857,208.615 50.5,210C 49.6691,213.828 48.8358,217.661 48,221.5C 44.8654,227.7 41.1988,228.034 37,222.5C 35.1425,219.428 33.9758,216.095 33.5,212.5C 39.7277,212.649 45.061,210.649 49.5,206.5 Z"/></g>
<g><path style="opacity:1" fill="#635e55" d="M 98.5,207.5 C 98.0949,211.048 98.5949,214.381 100,217.5C 100.278,216.584 100.778,215.918 101.5,215.5C 101.369,216.239 101.536,216.906 102,217.5C 102.419,216.328 103.085,215.328 104,214.5C 104.987,219.712 103.487,221.045 99.5,218.5C 97.7549,216.967 96.7549,214.967 96.5,212.5C 97.1667,210.833 97.8333,209.167 98.5,207.5 Z"/></g>
<g><path style="opacity:1" fill="#a7a091" d="M 139.5,218.5 C 138.566,219.568 138.232,220.901 138.5,222.5C 137.504,222.414 136.671,222.748 136,223.5C 136.305,221.557 136.305,219.557 136,217.5C 134.853,219.731 133.853,222.065 133,224.5C 132.536,223.906 132.369,223.239 132.5,222.5C 133.5,217.833 134.5,213.167 135.5,208.5C 135.833,207.833 136.167,207.167 136.5,206.5C 137.143,203.802 137.976,201.135 139,198.5C 139.5,205.158 139.666,211.825 139.5,218.5 Z"/></g>
<g><path style="opacity:1" fill="#7a7469" d="M 168.5,222.5 C 167.675,218.353 167.175,214.019 167,209.5C 166.667,210.167 166.333,210.833 166,211.5C 165.211,209.288 165.378,207.288 166.5,205.5C 166.351,206.552 166.517,207.552 167,208.5C 168,206.833 169,205.167 170,203.5C 170.699,205.074 170.365,206.407 169,207.5C 168.501,212.489 168.334,217.489 168.5,222.5 Z"/></g>
<g><path style="opacity:1" fill="#1d1c19" d="M 156.5,150.5 C 157.933,152.558 158.6,154.892 158.5,157.5C 166.699,160.677 166.365,163.011 157.5,164.5C 157.607,166.903 156.607,168.736 154.5,170C 156.285,173.452 158.785,176.286 162,178.5C 163.376,172.002 164.876,165.669 166.5,159.5C 166.232,161.099 166.566,162.432 167.5,163.5C 167.5,164.5 167.5,165.5 167.5,166.5C 165.87,170.911 164.87,175.578 164.5,180.5C 162.717,195.427 162.051,210.427 162.5,225.5C 161.833,215.5 161.167,205.5 160.5,195.5C 160.011,196.995 159.345,198.329 158.5,199.5C 159.278,200.156 159.944,200.989 160.5,202C 160.43,202.765 160.097,203.265 159.5,203.5C 159.225,201.242 158.225,200.908 156.5,202.5C 155.167,204.167 153.833,205.833 152.5,207.5C 154.004,210.553 156.338,212.553 159.5,213.5C 159.167,214.167 158.833,214.833 158.5,215.5C 156.5,215.5 154.5,215.5 152.5,215.5C 152.421,214.07 152.754,212.736 153.5,211.5C 152.167,208.833 150.833,208.833 149.5,211.5C 150.246,212.736 150.579,214.07 150.5,215.5C 147.918,215.025 145.918,215.692 144.5,217.5C 143.25,217.423 142.417,216.756 142,215.5C 141.833,212.667 141.667,209.833 141.5,207C 141.595,203.636 142.262,200.469 143.5,197.5C 141.62,196.286 141.287,194.952 142.5,193.5C 142.517,195.028 143.184,195.528 144.5,195C 146.667,193.5 148.5,191.667 150,189.5C 149.86,187.149 149.36,184.816 148.5,182.5C 146.315,182.296 144.315,181.63 142.5,180.5C 142.842,179.662 143.508,179.328 144.5,179.5C 146.717,180.369 149.05,180.702 151.5,180.5C 151.579,181.93 151.246,183.264 150.5,184.5C 150.833,185.5 151.5,186.167 152.5,186.5C 153.988,184.851 154.988,182.851 155.5,180.5C 157.586,182.023 159.252,181.69 160.5,179.5C 158.257,178.526 155.924,178.192 153.5,178.5C 153.833,176.5 154.167,174.5 154.5,172.5C 153.5,172.5 152.5,172.5 151.5,172.5C 151.5,174.167 151.5,175.833 151.5,177.5C 149.05,177.298 146.717,177.631 144.5,178.5C 144.5,178.167 144.5,177.833 144.5,177.5C 147.271,175.233 149.938,172.733 152.5,170C 150.594,165.925 147.594,163.092 143.5,161.5C 144.551,160.778 145.218,159.778 145.5,158.5C 148.196,156.491 150.863,154.491 153.5,152.5C 154.778,152.218 155.778,151.551 156.5,150.5 Z"/></g>
<g><path style="opacity:1" fill="#6a6459" d="M 159.5,203.5 C 159.5,206.833 159.5,210.167 159.5,213.5C 156.338,212.553 154.004,210.553 152.5,207.5C 153.833,205.833 155.167,204.167 156.5,202.5C 158.225,200.908 159.225,201.242 159.5,203.5 Z"/></g>
<g><path style="opacity:1" fill="#6c665a" d="M 142.5,199.5 C 146.46,200.815 149.127,203.482 150.5,207.5C 148.244,208.421 147.244,210.088 147.5,212.5C 145.61,212.297 144.11,212.963 143,214.5C 142.501,209.511 142.334,204.511 142.5,199.5 Z"/></g>
<g><path style="opacity:1" fill="#a29a8b" d="M 158.5,199.5 C 156.5,199.167 154.5,198.833 152.5,198.5C 152.519,200.06 152.852,201.56 153.5,203C 152.246,206.284 150.913,206.284 149.5,203C 150.38,201.644 150.714,200.144 150.5,198.5C 149.07,198.421 147.736,198.754 146.5,199.5C 143.833,198.167 143.833,196.833 146.5,195.5C 147.736,196.246 149.07,196.579 150.5,196.5C 151.5,188.5 152.5,188.5 153.5,196.5C 155.167,196.5 156.833,196.5 158.5,196.5C 158.5,197.5 158.5,198.5 158.5,199.5 Z"/></g>
<g><path style="opacity:1" fill="#696458" d="M 160.5,195.5 C 158.883,194.962 157.216,194.629 155.5,194.5C 155.753,192.173 155.086,190.173 153.5,188.5C 155.057,184.934 157.723,182.934 161.5,182.5C 161.073,186.824 160.739,191.158 160.5,195.5 Z"/></g>
<g><path style="opacity:1" fill="#a69e8e" d="M 153.5,153.5 C 154.995,153.415 155.995,154.081 156.5,155.5C 155.754,156.736 155.421,158.07 155.5,159.5C 157.5,159.5 159.5,159.5 161.5,159.5C 161.5,160.5 161.5,161.5 161.5,162.5C 159.5,162.5 157.5,162.5 155.5,162.5C 155.884,164.665 155.217,166.332 153.5,167.5C 152.5,167.167 151.833,166.5 151.5,165.5C 152.246,164.264 152.579,162.93 152.5,161.5C 150.25,161.819 148.25,161.319 146.5,160C 147.108,159.13 147.941,158.63 149,158.5C 150.44,159.148 151.94,159.481 153.5,159.5C 153.5,157.5 153.5,155.5 153.5,153.5 Z"/></g>
<g><path style="opacity:1" fill="#363028" d="M 189.5,209.5 C 190.043,209.56 190.376,209.893 190.5,210.5C 189.675,211.386 188.675,211.719 187.5,211.5C 187.5,214.5 187.5,217.5 187.5,220.5C 179.607,221.606 176.607,218.273 178.5,210.5C 182.371,210.815 186.038,210.482 189.5,209.5 Z"/></g>
<g><path style="opacity:1" fill="#aba393" d="M 57.5,243.5 C 54.6899,246.41 51.3565,247.91 47.5,248C 52.0519,246.412 54.8852,243.245 56,238.5C 55.2603,234.002 55.427,229.502 56.5,225C 56.3333,223.5 56.1667,222 56,220.5C 55.2828,221.044 54.7828,221.711 54.5,222.5C 53.3146,229.185 49.4813,233.518 43,235.5C 37.5732,233.31 34.5732,229.31 34,223.5C 37.0183,228.873 41.5183,231.039 47.5,230C 48.5,229.167 49.5,228.333 50.5,227.5C 49.9747,226.808 49.3081,226.308 48.5,226C 50.6515,223.531 52.1515,220.698 53,217.5C 53.3333,213.167 53.6667,208.833 54,204.5C 55.9814,206.359 56.9814,208.692 57,211.5C 57.7432,206.523 57.2432,201.69 55.5,197C 55.305,194.226 56.305,192.059 58.5,190.5C 59.9907,208.221 59.6573,225.888 57.5,243.5 Z"/></g>
<g><path style="opacity:1" fill="#81807e" d="M 126.5,197.5 C 127.167,197.5 127.833,197.5 128.5,197.5C 128.334,201.514 128.501,205.514 129,209.5C 129.41,208.099 129.91,206.766 130.5,205.5C 131.833,205.5 133.167,205.5 134.5,205.5C 134.842,206.338 135.508,206.672 136.5,206.5C 136.167,207.167 135.833,207.833 135.5,208.5C 133.712,208.215 132.045,208.548 130.5,209.5C 131.5,210.833 132.5,212.167 133.5,213.5C 133.376,214.107 133.043,214.44 132.5,214.5C 130.284,213.797 128.451,212.464 127,210.5C 126.617,211.056 126.117,211.389 125.5,211.5C 126.383,206.897 126.717,202.23 126.5,197.5 Z"/></g>
<g><path style="opacity:1" fill="#a69f8f" d="M 72.5,212.5 C 71.596,213.209 71.2627,214.209 71.5,215.5C 74.0821,215.025 76.0821,215.692 77.5,217.5C 75.5,217.5 73.5,217.5 71.5,217.5C 71.6495,218.552 71.4828,219.552 71,220.5C 70.7679,219.263 70.2679,218.263 69.5,217.5C 67.0731,218.974 64.7398,218.807 62.5,217C 64.5938,215.648 66.9272,215.148 69.5,215.5C 69.1854,213.774 69.0187,212.107 69,210.5C 71.1489,209.16 72.3155,209.827 72.5,212.5 Z"/></g>
<g><path style="opacity:1" fill="#a19a8b" d="M 158.5,215.5 C 157.868,218.492 156.201,219.159 153.5,217.5C 152.614,218.325 152.281,219.325 152.5,220.5C 150.952,220.179 150.285,219.179 150.5,217.5C 148.5,217.5 146.5,217.5 144.5,217.5C 145.918,215.692 147.918,215.025 150.5,215.5C 150.579,214.07 150.246,212.736 149.5,211.5C 150.833,208.833 152.167,208.833 153.5,211.5C 152.754,212.736 152.421,214.07 152.5,215.5C 154.5,215.5 156.5,215.5 158.5,215.5 Z"/></g>
<g><path style="opacity:1" fill="#666157" d="M 69.5,217.5 C 70.2679,218.263 70.7679,219.263 71,220.5C 71.4828,219.552 71.6495,218.552 71.5,217.5C 73.5,217.5 75.5,217.5 77.5,217.5C 76.0813,218.451 74.4147,218.784 72.5,218.5C 72.5,220.167 72.5,221.833 72.5,223.5C 71.5,223.5 70.5,223.5 69.5,223.5C 69.5,221.5 69.5,219.5 69.5,217.5 Z"/></g>
<g><path style="opacity:1" fill="#7f7e7a" d="M 97.5,221.5 C 97.0461,223.259 97.0461,225.259 97.5,227.5C 96.0245,225.993 94.6912,224.327 93.5,222.5C 94.9163,217.031 96.2496,216.698 97.5,221.5 Z"/></g>
<g><path style="opacity:1" fill="#352f27" d="M 141.5,218.5 C 143.315,219.63 145.315,220.296 147.5,220.5C 147.586,222.677 148.253,224.677 149.5,226.5C 148.05,227.85 147.383,229.516 147.5,231.5C 145.516,231.383 143.85,232.05 142.5,233.5C 141.506,228.544 141.173,223.544 141.5,218.5 Z"/></g>
<g><path style="opacity:1" fill="#362f27" d="M 158.5,219.5 C 160.135,223.926 160.635,228.593 160,233.5C 156.5,232 154,229.5 152.5,226C 154.607,224.736 155.607,222.903 155.5,220.5C 156.791,220.737 157.791,220.404 158.5,219.5 Z"/></g>
<g><path style="opacity:1" fill="#5c574d" d="M 144.5,217.5 C 146.5,217.5 148.5,217.5 150.5,217.5C 150.285,219.179 150.952,220.179 152.5,220.5C 152.5,221.5 152.5,222.5 152.5,223.5C 151.5,223.5 150.5,223.5 149.5,223.5C 149.5,221.833 149.5,220.167 149.5,218.5C 147.585,218.784 145.919,218.451 144.5,217.5 Z"/></g>
<g><path style="opacity:1" fill="#363028" d="M 62.5,219.5 C 71.5801,224.063 71.4135,228.73 62,233.5C 61.8306,228.839 61.9973,224.172 62.5,219.5 Z"/></g>
<g><path style="opacity:1" fill="#3b342c" d="M 188.5,222.5 C 187.99,225.388 188.656,227.721 190.5,229.5C 184.12,231.637 180.786,229.304 180.5,222.5C 183.167,222.5 185.833,222.5 188.5,222.5 Z"/></g>
<g><path style="opacity:1" fill="#6e685e" d="M 88.5,218.5 C 89.6118,220.599 90.2785,222.933 90.5,225.5C 90.631,226.239 90.4643,226.906 90,227.5C 88.6483,222.298 87.4817,222.298 86.5,227.5C 85.8076,226.975 85.3076,226.308 85,225.5C 84.6667,227.5 84.3333,229.5 84,231.5C 83.5014,227.848 83.3347,224.182 83.5,220.5C 84.9311,220.119 85.7645,219.119 86,217.5C 86.9147,218.328 87.5814,219.328 88,220.5C 88.4643,219.906 88.631,219.239 88.5,218.5 Z"/></g>
<g><path style="opacity:1" fill="#4d4941" d="M 138.5,222.5 C 138.665,225.85 138.498,229.183 138,232.5C 137.16,229.536 136.16,229.203 135,231.5C 134.333,228.833 133.667,228.833 133,231.5C 132.667,230.833 132.333,230.167 132,229.5C 131.099,232.52 130.266,235.52 129.5,238.5C 129.003,241.989 128.003,245.323 126.5,248.5C 126.167,248.167 125.833,247.833 125.5,247.5C 127.672,239.002 130.005,230.668 132.5,222.5C 132.369,223.239 132.536,223.906 133,224.5C 133.853,222.065 134.853,219.731 136,217.5C 136.305,219.557 136.305,221.557 136,223.5C 136.671,222.748 137.504,222.414 138.5,222.5 Z"/></g>
<g><path style="opacity:1" fill="#26231e" d="M 125.5,211.5 C 126.117,211.389 126.617,211.056 127,210.5C 128.451,212.464 130.284,213.797 132.5,214.5C 128.429,224.763 125.262,235.429 123,246.5C 122.692,247.308 122.192,247.975 121.5,248.5C 120.473,247.209 119.473,247.209 118.5,248.5C 121.353,237.447 124.686,226.614 128.5,216C 128.167,215.167 127.833,214.333 127.5,213.5C 126.066,214.936 124.9,216.602 124,218.5C 120.793,216.312 119.793,213.312 121,209.5C 121.333,207.833 121.667,206.167 122,204.5C 123.344,207.436 124.511,209.769 125.5,211.5 Z"/></g>
<g><path style="opacity:1" fill="#37342f" d="M 82.5,218.5 C 83.3382,218.842 83.6716,219.508 83.5,220.5C 83.3347,224.182 83.5014,227.848 84,231.5C 84.3333,229.5 84.6667,227.5 85,225.5C 85.3076,226.308 85.8076,226.975 86.5,227.5C 87.4817,222.298 88.6483,222.298 90,227.5C 90.4643,226.906 90.631,226.239 90.5,225.5C 91.404,226.209 91.7373,227.209 91.5,228.5C 88.925,230.845 87.925,233.845 88.5,237.5C 87.609,238.11 86.609,238.443 85.5,238.5C 86.2341,237.292 86.5674,235.959 86.5,234.5C 84.8007,234.527 83.4674,235.194 82.5,236.5C 82.5,230.5 82.5,224.5 82.5,218.5 Z"/></g>
<g><path style="opacity:1" fill="#645e54" d="M 150.5,228.5 C 152.308,229.918 152.975,231.918 152.5,234.5C 153.93,234.579 155.264,234.246 156.5,233.5C 159.167,234.833 159.167,236.167 156.5,237.5C 155.264,236.754 153.93,236.421 152.5,236.5C 152.421,237.93 152.754,239.264 153.5,240.5C 152.167,243.167 150.833,243.167 149.5,240.5C 150.246,239.264 150.579,237.93 150.5,236.5C 148.94,236.519 147.44,236.852 146,237.5C 142.667,236.167 142.667,234.833 146,233.5C 147.44,234.148 148.94,234.481 150.5,234.5C 149.725,232.388 149.725,230.388 150.5,228.5 Z"/></g>
<g><path style="opacity:1" fill="#6e6960" d="M 57.5,243.5 C 56.8885,246.337 55.8885,249.004 54.5,251.5C 54.7573,253.692 55.7573,255.359 57.5,256.5C 57.3505,257.552 57.5172,258.552 58,259.5C 61.7142,261.713 64.5475,264.713 66.5,268.5C 61.772,268.625 58.4387,266.458 56.5,262C 55.552,261.517 54.552,261.351 53.5,261.5C 53.7692,259.571 53.2692,257.905 52,256.5C 50.3149,258.017 48.8149,259.684 47.5,261.5C 45.8333,258.833 44.1667,256.167 42.5,253.5C 43.376,252.749 44.376,252.249 45.5,252C 43.2827,250.732 41.2827,249.232 39.5,247.5C 44.1409,246.026 48.1409,243.526 51.5,240C 50.1667,240 48.8333,240 47.5,240C 52.7421,235.07 55.0754,229.236 54.5,222.5C 54.7828,221.711 55.2828,221.044 56,220.5C 56.1667,222 56.3333,223.5 56.5,225C 55.427,229.502 55.2603,234.002 56,238.5C 54.8852,243.245 52.0519,246.412 47.5,248C 51.3565,247.91 54.6899,246.41 57.5,243.5 Z"/></g>
<g><path style="opacity:1" fill="#716b5f" d="M 166.5,221.5 C 166.123,227.865 168.123,233.698 172.5,239C 171.167,239 169.833,239 168.5,239C 170.539,241.374 172.872,243.374 175.5,245C 178.572,245.456 181.572,245.456 184.5,245C 182.043,248.058 179.043,250.392 175.5,252C 176.938,252.219 178.271,252.719 179.5,253.5C 177.833,256.167 176.167,258.833 174.5,261.5C 168.418,254.327 164.752,245.994 163.5,236.5C 164.633,234.945 165.299,233.111 165.5,231C 164.521,227.196 164.355,223.362 165,219.5C 165.717,220.044 166.217,220.711 166.5,221.5 Z"/></g>
<g><path style="opacity:1" fill="#666056" d="M 76.5,233.5 C 79.2296,234.991 79.063,236.325 76,237.5C 74.6439,236.62 73.1439,236.286 71.5,236.5C 71.4208,237.93 71.7542,239.264 72.5,240.5C 72.1667,241.5 71.5,242.167 70.5,242.5C 69.5344,240.604 69.2011,238.604 69.5,236.5C 66.9179,236.975 64.9179,236.308 63.5,234.5C 65.3881,233.725 67.3881,233.725 69.5,234.5C 69.5,232.5 69.5,230.5 69.5,228.5C 70.5,228.5 71.5,228.5 72.5,228.5C 72.1667,230.5 71.8333,232.5 71.5,234.5C 73.2915,234.634 74.9582,234.301 76.5,233.5 Z"/></g>
<g><path style="opacity:1" fill="#28241f" d="M 82.5,236.5 C 81.3488,239.596 81.6821,242.596 83.5,245.5C 83.1667,245.5 82.8333,245.5 82.5,245.5C 80.0997,242.76 77.0997,241.927 73.5,243C 71.5489,246.787 68.5489,249.287 64.5,250.5C 63.2807,249.737 62.2807,248.737 61.5,247.5C 60.8182,248.243 60.1515,248.909 59.5,249.5C 58.8288,243.809 60.1622,238.809 63.5,234.5C 64.9179,236.308 66.9179,236.975 69.5,236.5C 69.2011,238.604 69.5344,240.604 70.5,242.5C 71.5,242.167 72.1667,241.5 72.5,240.5C 71.7542,239.264 71.4208,237.93 71.5,236.5C 73.1439,236.286 74.6439,236.62 76,237.5C 79.063,236.325 79.2296,234.991 76.5,233.5C 77.2389,233.631 77.9056,233.464 78.5,233C 77.4366,231.812 76.1033,231.312 74.5,231.5C 74.6168,229.516 73.9501,227.85 72.5,226.5C 73.7472,224.677 74.4139,222.677 74.5,220.5C 76.4835,220.617 78.1502,219.95 79.5,218.5C 80.7888,224.19 80.7888,229.857 79.5,235.5C 80.325,236.386 81.325,236.719 82.5,236.5 Z"/></g>
<g><path style="opacity:1" fill="#898885" d="M 91.5,228.5 C 95.7009,228.442 96.2009,229.442 93,231.5C 92.5172,232.448 92.3505,233.448 92.5,234.5C 94.8056,234.007 97.139,233.674 99.5,233.5C 99.5,234.5 99.5,235.5 99.5,236.5C 96.7702,236.473 94.2702,237.14 92,238.5C 90.7441,238.352 89.5774,238.018 88.5,237.5C 87.925,233.845 88.925,230.845 91.5,228.5 Z"/></g>
<g><path style="opacity:1" fill="#423f39" d="M 193.5,343.5 C 192.833,343.5 192.5,343.167 192.5,342.5C 193.16,306.818 192.493,271.484 190.5,236.5C 190.167,236.5 189.833,236.5 189.5,236.5C 188.833,236.5 188.167,236.5 187.5,236.5C 188.828,234.255 190.661,233.922 193,235.5C 193.5,271.498 193.667,307.498 193.5,343.5 Z"/></g>
<g><path style="opacity:1" fill="#24221e" d="M 139.5,218.5 C 139.832,227.525 139.498,236.525 138.5,245.5C 137.226,242.633 136.393,239.633 136,236.5C 135.781,237.938 135.281,239.271 134.5,240.5C 133.808,239.975 133.308,239.308 133,238.5C 131.908,240.931 130.741,240.931 129.5,238.5C 130.266,235.52 131.099,232.52 132,229.5C 132.333,230.167 132.667,230.833 133,231.5C 133.667,228.833 134.333,228.833 135,231.5C 136.16,229.203 137.16,229.536 138,232.5C 138.498,229.183 138.665,225.85 138.5,222.5C 138.232,220.901 138.566,219.568 139.5,218.5 Z"/></g>
<g><path style="opacity:1" fill="#878173" d="M 189.5,236.5 C 189.833,236.5 190.167,236.5 190.5,236.5C 189.84,272.182 190.507,307.516 192.5,342.5C 192.5,343.167 192.833,343.5 193.5,343.5C 194.167,343.5 194.5,343.833 194.5,344.5C 194.299,348.35 192.466,349.35 189,347.5C 188.411,349.863 186.911,350.863 184.5,350.5C 184.5,349.167 184.5,347.833 184.5,346.5C 186.716,346.725 188.383,345.892 189.5,344C 188.906,343.536 188.239,343.369 187.5,343.5C 187.5,343.167 187.5,342.833 187.5,342.5C 188.302,341.048 188.802,339.382 189,337.5C 189.5,303.835 189.667,270.168 189.5,236.5 Z"/></g>
<g><path style="opacity:1" fill="#b2aa99" d="M 190.5,236.5 C 192.493,271.484 193.16,306.818 192.5,342.5C 190.507,307.516 189.84,272.182 190.5,236.5 Z"/></g>
<g><path style="opacity:1" fill="#362f28" d="M 160.5,236.5 C 161.958,240.273 162.458,244.273 162,248.5C 161.261,249.574 160.261,250.241 159,250.5C 156.193,249.244 154.026,247.244 152.5,244.5C 154.549,241.118 157.215,238.451 160.5,236.5 Z"/></g>
<g><path style="opacity:1" fill="#676257" d="M 187.5,236.5 C 188.167,236.5 188.833,236.5 189.5,236.5C 189.667,270.168 189.5,303.835 189,337.5C 188.802,339.382 188.302,341.048 187.5,342.5C 187.5,307.167 187.5,271.833 187.5,236.5 Z"/></g>
<g><path style="opacity:1" fill="#a6a093" d="M 127.5,175.5 C 126.698,182.804 126.365,190.138 126.5,197.5C 126.717,202.23 126.383,206.897 125.5,211.5C 124.511,209.769 123.344,207.436 122,204.5C 121.667,206.167 121.333,207.833 121,209.5C 119.793,213.312 120.793,216.312 124,218.5C 124.9,216.602 126.066,214.936 127.5,213.5C 127.833,214.333 128.167,215.167 128.5,216C 124.686,226.614 121.353,237.447 118.5,248.5C 113.684,249.65 108.684,249.816 103.5,249C 102.645,246.564 101.979,244.064 101.5,241.5C 101.011,240.005 100.345,238.671 99.5,237.5C 99.5,237.167 99.5,236.833 99.5,236.5C 99.5,235.5 99.5,234.5 99.5,233.5C 99.0293,231.421 98.3627,229.421 97.5,227.5C 97.0461,225.259 97.0461,223.259 97.5,221.5C 97.56,222.043 97.8933,222.376 98.5,222.5C 99.4287,221.311 99.762,219.978 99.5,218.5C 103.487,221.045 104.987,219.712 104,214.5C 103.085,215.328 102.419,216.328 102,217.5C 101.536,216.906 101.369,216.239 101.5,215.5C 101.665,211.818 101.499,208.152 101,204.5C 100.667,204.167 100.333,203.833 100,203.5C 99.2086,204.745 98.7086,206.078 98.5,207.5C 97.8333,209.167 97.1667,210.833 96.5,212.5C 95.6204,205.877 95.287,199.211 95.5,192.5C 96.1667,189.5 96.8333,186.5 97.5,183.5C 101.103,193.91 103.769,204.577 105.5,215.5C 106.808,216.232 108.142,217.066 109.5,218C 106.833,220 106.833,222 109.5,224C 108.085,227.182 108.419,230.182 110.5,233C 110.167,234 109.833,235 109.5,236C 110.648,244.486 111.648,244.32 112.5,235.5C 113.167,237.167 113.833,238.833 114.5,240.5C 115.189,241.774 116.023,241.774 117,240.5C 116.872,237.514 116.872,234.514 117,231.5C 119.36,228.64 121.527,225.64 123.5,222.5C 122.998,221.479 122.332,221.312 121.5,222C 119.934,224.326 118.268,226.492 116.5,228.5C 115.094,228.027 114.427,227.027 114.5,225.5C 114.739,223.533 114.406,221.699 113.5,220C 114.574,219.261 115.241,218.261 115.5,217C 114.391,214.953 113.724,212.787 113.5,210.5C 113.5,210.167 113.5,209.833 113.5,209.5C 114.885,208.386 116.385,207.386 118,206.5C 119.953,203.743 119.787,201.243 117.5,199C 118.416,198.722 119.082,198.222 119.5,197.5C 122.368,190.227 125.035,182.894 127.5,175.5 Z"/></g>
<g><path style="opacity:1" fill="#1c1b19" d="M 114.5,240.5 C 113.99,236.187 114.657,232.187 116.5,228.5C 118.268,226.492 119.934,224.326 121.5,222C 122.332,221.312 122.998,221.479 123.5,222.5C 121.527,225.64 119.36,228.64 117,231.5C 116.872,234.514 116.872,237.514 117,240.5C 116.023,241.774 115.189,241.774 114.5,240.5 Z"/></g>
<g><path style="opacity:1" fill="#646057" d="M 114.5,225.5 C 114.427,227.027 115.094,228.027 116.5,228.5C 114.657,232.187 113.99,236.187 114.5,240.5C 113.833,238.833 113.167,237.167 112.5,235.5C 112.899,231.989 113.566,228.656 114.5,225.5 Z"/></g>
<g><path style="opacity:1" fill="#171615" d="M 105.5,234.5 C 106.725,235.152 107.392,236.319 107.5,238C 107.037,242.424 106.037,242.591 104.5,238.5C 104.846,237.151 105.179,235.817 105.5,234.5 Z"/></g>
<g><path style="opacity:1" fill="#1e1d1b" d="M 120.5,229.5 C 121.801,231.456 121.301,233.123 119,234.5C 118.387,232.505 118.887,230.838 120.5,229.5 Z"/></g>
<g><path style="opacity:1" fill="#363431" d="M 100.5,230.5 C 102.074,230.937 103.241,231.937 104,233.5C 104.667,234.167 104.667,234.833 104,235.5C 102.198,234.211 101.031,232.544 100.5,230.5 Z"/></g>
<g><path style="opacity:1" fill="#222220" d="M 101.5,224.5 C 104.532,225.999 106.032,228.332 106,231.5C 103.418,229.772 101.918,227.439 101.5,224.5 Z"/></g>
<g><path style="opacity:1" fill="#373028" d="M 141.5,237.5 C 143.315,238.63 145.315,239.296 147.5,239.5C 147.393,241.903 148.393,243.736 150.5,245C 148.393,246.264 147.393,248.097 147.5,250.5C 145.097,250.393 143.264,251.393 142,253.5C 141.501,248.177 141.334,242.844 141.5,237.5 Z"/></g>
<g><path style="opacity:1" fill="#72716e" d="M 99.5,237.5 C 100.345,238.671 101.011,240.005 101.5,241.5C 99.5286,242.823 97.5286,244.156 95.5,245.5C 96.5896,246.609 96.5896,247.609 95.5,248.5C 94.3652,246.293 93.6985,243.96 93.5,241.5C 96.3373,241.316 98.3373,239.982 99.5,237.5 Z"/></g>
<g><path style="opacity:1" fill="#777776" d="M 85.5,238.5 C 86.6072,242.048 88.2738,245.381 90.5,248.5C 90.1667,249.5 89.5,250.167 88.5,250.5C 87.1455,248.479 85.4788,246.812 83.5,245.5C 81.6821,242.596 81.3488,239.596 82.5,236.5C 83.4674,235.194 84.8007,234.527 86.5,234.5C 86.5674,235.959 86.2341,237.292 85.5,238.5 Z"/></g>
<g><path style="opacity:1" fill="#858380" d="M 82.5,245.5 C 82.6107,246.117 82.944,246.617 83.5,247C 81.0232,248.643 78.6898,250.476 76.5,252.5C 76.8333,253.5 77.5,254.167 78.5,254.5C 80.1331,252.497 82.1331,251.164 84.5,250.5C 84.0387,253.303 82.7053,255.637 80.5,257.5C 76.4922,256.155 72.4922,255.488 68.5,255.5C 68.1667,255.667 67.8333,255.833 67.5,256C 68.8228,256.816 69.4894,257.983 69.5,259.5C 67.1348,257.14 64.4681,255.14 61.5,253.5C 60.1482,254.524 58.8149,255.524 57.5,256.5C 57.767,254.035 58.4336,251.701 59.5,249.5C 60.1515,248.909 60.8182,248.243 61.5,247.5C 62.2807,248.737 63.2807,249.737 64.5,250.5C 68.5489,249.287 71.5489,246.787 73.5,243C 77.0997,241.927 80.0997,242.76 82.5,245.5 Z"/></g>
<g><path style="opacity:1" fill="#403932" d="M 75.5,245.5 C 76.675,245.281 77.675,245.614 78.5,246.5C 74.1355,252.061 73.1355,251.728 75.5,245.5 Z"/></g>
<g><path style="opacity:1" fill="#605b51" d="M 150.5,247.5 C 153.084,248.048 154.084,249.715 153.5,252.5C 154.873,252.343 156.207,252.51 157.5,253C 155.044,254.487 152.878,256.32 151,258.5C 150.517,257.552 150.351,256.552 150.5,255.5C 149.07,255.421 147.736,255.754 146.5,256.5C 143.833,255.167 143.833,253.833 146.5,252.5C 147.736,253.246 149.07,253.579 150.5,253.5C 150.065,251.297 150.065,249.297 150.5,247.5 Z"/></g>
<g><path style="opacity:1" fill="#332e29" d="M 80.5,257.5 C 80.7989,259.604 80.4656,261.604 79.5,263.5C 77.9246,262.544 76.258,261.877 74.5,261.5C 74.719,260.325 74.3857,259.325 73.5,258.5C 72.2638,259.246 70.9305,259.579 69.5,259.5C 69.4894,257.983 68.8228,256.816 67.5,256C 67.8333,255.833 68.1667,255.667 68.5,255.5C 72.4922,255.488 76.4922,256.155 80.5,257.5 Z"/></g>
<g><path style="opacity:1" fill="#8d8d8d" d="M 183.5,340.5 C 183.831,313.328 183.498,286.328 182.5,259.5C 182.783,258.711 183.283,258.044 184,257.5C 184.83,285.336 184.664,313.003 183.5,340.5 Z"/></g>
<g><path style="opacity:1" fill="#727272" d="M 54.5,263.5 C 52.9699,264.211 51.6366,265.211 50.5,266.5C 49.0973,261.562 50.4306,260.562 54.5,263.5 Z"/></g>
<g><path style="opacity:1" fill="#f9f9f9" d="M 182.5,259.5 C 183.498,286.328 183.831,313.328 183.5,340.5C 182.294,343.139 180.294,343.972 177.5,343C 172.43,341.16 169.763,337.994 169.5,333.5C 173.292,332.34 177.126,331.34 181,330.5C 181.5,323.842 181.666,317.175 181.5,310.5C 177.5,310.5 173.5,310.5 169.5,310.5C 167.376,306.542 165.043,302.709 162.5,299C 165.283,296.095 167.283,292.761 168.5,289C 166.275,282.83 163.942,276.664 161.5,270.5C 163.529,268.142 165.529,265.808 167.5,263.5C 169.316,264.815 170.983,266.315 172.5,268C 177.091,266.929 180.424,264.096 182.5,259.5 Z"/></g>
<g><path style="opacity:1" fill="#aca494" d="M 150.5,261.5 C 152.927,262.279 152.927,263.446 150.5,265C 151.167,265.333 151.833,265.667 152.5,266C 151.016,267.574 149.349,268.907 147.5,270C 149.32,269.524 150.987,269.691 152.5,270.5C 149.469,273.687 145.969,276.353 142,278.5C 141.333,274.5 141.333,270.5 142,266.5C 144.943,264.948 147.777,263.281 150.5,261.5 Z"/></g>
<g><path style="opacity:1" fill="#a69f91" d="M 69.5,259.5 C 70.9305,259.579 72.2638,259.246 73.5,258.5C 74.3857,259.325 74.719,260.325 74.5,261.5C 74.0618,261.435 73.7284,261.601 73.5,262C 75.0758,264.077 77.0758,265.577 79.5,266.5C 80.8333,270.5 80.8333,274.5 79.5,278.5C 74.9563,275.4 70.623,272.067 66.5,268.5C 64.5475,264.713 61.7142,261.713 58,259.5C 57.5172,258.552 57.3505,257.552 57.5,256.5C 58.8149,255.524 60.1482,254.524 61.5,253.5C 64.4681,255.14 67.1348,257.14 69.5,259.5 Z"/></g>
<g><path style="opacity:1" fill="#968f80" d="M 152.5,270.5 C 150.987,269.691 149.32,269.524 147.5,270C 149.349,268.907 151.016,267.574 152.5,266C 151.833,265.667 151.167,265.333 150.5,265C 152.927,263.446 152.927,262.279 150.5,261.5C 155.066,258.443 159.233,254.776 163,250.5C 164.457,253.366 164.79,256.366 164,259.5C 160.298,263.37 156.464,267.037 152.5,270.5 Z"/></g>
<g><path style="opacity:1" fill="#6e685c" d="M 142.5,284.5 C 141.969,286.624 140.635,288.124 138.5,289C 139.094,289.464 139.761,289.631 140.5,289.5C 139.791,290.404 138.791,290.737 137.5,290.5C 136.209,290.263 135.209,290.596 134.5,291.5C 117.118,293.1 99.7843,292.767 82.5,290.5C 82.5,290.167 82.5,289.833 82.5,289.5C 83.552,289.649 84.552,289.483 85.5,289C 84.0577,288.623 83.0577,287.79 82.5,286.5C 83.4959,286.414 84.3292,286.748 85,287.5C 85.4992,282.845 85.6658,278.179 85.5,273.5C 89.2924,273.726 92.9591,274.56 96.5,276C 109.969,277.05 123.302,276.217 136.5,273.5C 136.334,278.179 136.501,282.845 137,287.5C 138.78,286.361 140.614,285.361 142.5,284.5 Z"/></g>
<g><path style="opacity:1" fill="#989183" d="M 156.5,274.5 C 159.306,275.707 159.972,277.707 158.5,280.5C 156.914,278.827 156.247,276.827 156.5,274.5 Z"/></g>
<g><path style="opacity:1" fill="#a09989" d="M 64.5,274.5 C 66.7327,276.217 66.7327,278.217 64.5,280.5C 63.4808,278.54 63.4808,276.54 64.5,274.5 Z"/></g>
<g><path style="opacity:1" fill="#afa796" d="M 140.5,289.5 C 139.761,289.631 139.094,289.464 138.5,289C 140.635,288.124 141.969,286.624 142.5,284.5C 145.57,283.064 146.737,284.064 146,287.5C 144.275,288.464 142.441,289.131 140.5,289.5 Z"/></g>
<g><path style="opacity:1" fill="#aba393" d="M 82.5,286.5 C 83.0577,287.79 84.0577,288.623 85.5,289C 84.552,289.483 83.552,289.649 82.5,289.5C 81.8333,289.5 81.1667,289.5 80.5,289.5C 79.2921,288.766 77.9587,288.433 76.5,288.5C 76.2148,286.712 76.5481,285.045 77.5,283.5C 79.0287,284.763 80.6954,285.763 82.5,286.5 Z"/></g>
<g><path style="opacity:1" fill="#373028" d="M 80.5,289.5 C 81.1667,289.5 81.8333,289.5 82.5,289.5C 82.5,289.833 82.5,290.167 82.5,290.5C 84.2308,292.057 86.8974,292.89 90.5,293C 97.1585,293.61 103.825,294.11 110.5,294.5C 119.963,294.329 127.963,293.329 134.5,291.5C 135.209,290.596 136.209,290.263 137.5,290.5C 145.08,290.998 152.413,289.331 159.5,285.5C 159.827,291.35 157.161,295.183 151.5,297C 154.759,294.978 156.259,292.145 156,288.5C 151.265,290.227 146.432,291.727 141.5,293C 138.882,297.951 135.216,301.951 130.5,305C 117.818,306.89 105.151,306.89 92.5,305C 87.7842,301.951 84.1176,297.951 81.5,293C 76.0739,291.628 70.7405,290.294 65.5,289C 67.069,292.572 69.4024,295.572 72.5,298C 66.7473,295.901 63.5806,291.735 63,285.5C 68.5946,288.887 74.428,290.221 80.5,289.5 Z"/></g>
<g><path style="opacity:1" fill="#171512" d="M 82.5,290.5 C 99.7843,292.767 117.118,293.1 134.5,291.5C 127.963,293.329 119.963,294.329 110.5,294.5C 103.825,294.11 97.1585,293.61 90.5,293C 86.8974,292.89 84.2308,292.057 82.5,290.5 Z"/></g>
<g><path style="opacity:1" fill="#b1a898" d="M 78.5,307.5 C 83.2717,307.367 83.4384,308.7 79,311.5C 78.4163,314.257 78.7496,316.923 80,319.5C 84.1568,323.852 88.3234,327.186 92.5,329.5C 89.7628,329.599 87.0961,329.265 84.5,328.5C 84.6107,327.883 84.944,327.383 85.5,327C 83.9698,325.88 82.3032,325.046 80.5,324.5C 73.9178,322.035 71.7511,317.368 74,310.5C 75.129,308.859 76.629,307.859 78.5,307.5 Z"/></g>
<g><path style="opacity:1" fill="#706a5e" d="M 78.5,307.5 C 83.4567,306.461 88.4567,306.961 93.5,309C 109.151,310.251 124.651,309.418 140,306.5C 141.707,306.508 143.207,306.842 144.5,307.5C 142.801,307.34 141.134,307.506 139.5,308C 144.626,310.553 145.793,314.386 143,319.5C 139.233,323.952 134.733,327.286 129.5,329.5C 129.5,329.833 129.5,330.167 129.5,330.5C 117.167,330.5 104.833,330.5 92.5,330.5C 92.5,330.167 92.5,329.833 92.5,329.5C 88.3234,327.186 84.1568,323.852 80,319.5C 78.7496,316.923 78.4163,314.257 79,311.5C 83.4384,308.7 83.2717,307.367 78.5,307.5 Z"/></g>
<g><path style="opacity:1" fill="#a69f8f" d="M 144.5,307.5 C 149.261,309.616 150.761,313.283 149,318.5C 146.913,322.302 143.746,324.802 139.5,326C 146.274,324.64 152.94,322.973 159.5,321C 155.801,323.51 151.801,325.343 147.5,326.5C 142.218,327.756 136.885,328.756 131.5,329.5C 130.833,329.5 130.167,329.5 129.5,329.5C 134.733,327.286 139.233,323.952 143,319.5C 145.793,314.386 144.626,310.553 139.5,308C 141.134,307.506 142.801,307.34 144.5,307.5 Z"/></g>
<g><path style="opacity:1" fill="#dadadb" d="M 169.5,310.5 C 173.5,310.5 177.5,310.5 181.5,310.5C 181.666,317.175 181.5,323.842 181,330.5C 177.126,331.34 173.292,332.34 169.5,333.5C 169.833,332.167 170.167,330.833 170.5,329.5C 171.451,328.081 171.784,326.415 171.5,324.5C 172.468,322.393 172.802,320.059 172.5,317.5C 172.011,316.005 171.345,314.671 170.5,313.5C 170.443,312.391 170.11,311.391 169.5,310.5 Z"/></g>
<g><path style="opacity:1" fill="#8c8578" d="M 61.5,308.5 C 62.3138,310.631 62.8138,312.964 63,315.5C 64.9252,316.88 66.7585,318.38 68.5,320C 65.4512,319.222 62.6179,317.722 60,315.5C 59.3911,312.935 59.8911,310.601 61.5,308.5 Z"/></g>
<g><path style="opacity:1" fill="#857f72" d="M 160.5,307.5 C 165.528,314.251 163.861,318.084 155.5,319C 157.609,317.859 159.442,316.359 161,314.5C 161.334,312.153 161.167,309.819 160.5,307.5 Z"/></g>
<g><path style="opacity:1" fill="#86878b" d="M 170.5,313.5 C 171.345,314.671 172.011,316.005 172.5,317.5C 171.167,317.5 169.833,317.5 168.5,317.5C 168.762,318.978 168.429,320.311 167.5,321.5C 165.775,317.773 166.775,315.107 170.5,313.5 Z"/></g>
<g><path style="opacity:1" fill="#7d786c" d="M 80.5,324.5 C 82.3032,325.046 83.9698,325.88 85.5,327C 84.944,327.383 84.6107,327.883 84.5,328.5C 82.7839,328.371 81.1172,328.038 79.5,327.5C 73.6473,326.605 68.314,324.438 63.5,321C 68.3283,322.63 73.3283,324.13 78.5,325.5C 79.4164,325.457 80.0831,325.124 80.5,324.5 Z"/></g>
<g><path style="opacity:1" fill="#6f6f72" d="M 171.5,324.5 C 171.784,326.415 171.451,328.081 170.5,329.5C 170.322,328.305 169.989,327.138 169.5,326C 169.836,324.97 170.503,324.47 171.5,324.5 Z"/></g>
<g><path style="opacity:1" fill="#b8b8b8" d="M 50.5,317.5 C 50.251,323.081 51.251,328.414 53.5,333.5C 49.6204,328.695 48.6204,323.362 50.5,317.5 Z"/></g>
<g><path style="opacity:1" fill="#231f1a" d="M 144.5,340.5 C 143.737,339.732 142.737,339.232 141.5,339C 143.246,338.529 144.913,337.862 146.5,337C 144.122,336.026 144.456,335.359 147.5,335C 145.744,334.798 144.078,334.298 142.5,333.5C 145.076,332.117 144.742,331.283 141.5,331C 143.788,330.178 146.122,329.511 148.5,329C 144.15,328.999 139.817,329.499 135.5,330.5C 133.955,330.489 132.622,330.156 131.5,329.5C 136.885,328.756 142.218,327.756 147.5,326.5C 147.735,327.097 148.235,327.43 149,327.5C 153.779,326.574 158.446,325.241 163,323.5C 163.5,323.833 164,324.167 164.5,324.5C 162.959,328.322 160.959,331.822 158.5,335C 153.924,337.124 149.257,338.957 144.5,340.5 Z"/></g>
<g><path style="opacity:1" fill="#352f27" d="M 79.5,327.5 C 81.1172,328.038 82.7839,328.371 84.5,328.5C 87.0961,329.265 89.7628,329.599 92.5,329.5C 92.5,329.833 92.5,330.167 92.5,330.5C 97.6939,331.967 103.694,332.634 110.5,332.5C 117.631,332.599 123.965,331.933 129.5,330.5C 129.5,330.167 129.5,329.833 129.5,329.5C 130.167,329.5 130.833,329.5 131.5,329.5C 132.622,330.156 133.955,330.489 135.5,330.5C 139.817,329.499 144.15,328.999 148.5,329C 146.122,329.511 143.788,330.178 141.5,331C 144.742,331.283 145.076,332.117 142.5,333.5C 144.078,334.298 145.744,334.798 147.5,335C 144.456,335.359 144.122,336.026 146.5,337C 144.913,337.862 143.246,338.529 141.5,339C 142.737,339.232 143.737,339.732 144.5,340.5C 120.676,346.328 97.0092,345.828 73.5,339C 69.5544,337.694 65.8878,335.861 62.5,333.5C 60.7301,330.327 59.8968,326.994 60,323.5C 60.9277,325.335 62.0944,325.668 63.5,324.5C 68.7597,327.088 74.093,328.088 79.5,327.5 Z"/></g>
<g><path style="opacity:1" fill="#181613" d="M 92.5,330.5 C 104.833,330.5 117.167,330.5 129.5,330.5C 123.965,331.933 117.631,332.599 110.5,332.5C 103.694,332.634 97.6939,331.967 92.5,330.5 Z"/></g>
<g><path style="opacity:1" fill="#706a5e" d="M 72.5,342.5 C 82.2826,345.551 92.2826,347.718 102.5,349C 94.145,352.845 85.8117,356.678 77.5,360.5C 72.0657,358.234 68.0657,354.4 65.5,349C 67.7083,346.622 70.0416,344.456 72.5,342.5 Z"/></g>
<g><path style="opacity:1" fill="#6f695d" d="M 150.5,342.5 C 153.318,344.487 155.652,346.987 157.5,350C 154.707,354.737 150.707,358.07 145.5,360C 145.728,360.399 146.062,360.565 146.5,360.5C 135.368,362.302 124.035,363.135 112.5,363C 119.68,357.909 126.68,352.576 133.5,347C 139.098,345.181 144.764,343.681 150.5,342.5 Z"/></g>
<g><path style="opacity:1" fill="#867f73" d="M 56.5,341.5 C 57.2389,341.369 57.9056,341.536 58.5,342C 55.3119,344.432 52.3119,347.099 49.5,350C 50.8333,351 52.1667,352 53.5,353C 51.4021,352.968 49.4021,352.301 47.5,351C 46.5494,350.282 46.3828,349.449 47,348.5C 50.5013,346.512 53.668,344.178 56.5,341.5 Z"/></g>
<g><path style="opacity:1" fill="#9d9587" d="M 72.5,342.5 C 70.0416,344.456 67.7083,346.622 65.5,349C 68.0657,354.4 72.0657,358.234 77.5,360.5C 76.1667,360.5 74.8333,360.5 73.5,360.5C 65.8483,359.739 58.5149,357.905 51.5,355C 56.6752,356.43 62.0085,357.097 67.5,357C 65.2462,355.623 63.0795,354.123 61,352.5C 60.3333,351.5 60.3333,350.5 61,349.5C 63.5366,346.628 66.3699,344.128 69.5,342C 70.7494,341.26 71.7494,341.427 72.5,342.5 Z"/></g>
<g><path style="opacity:1" fill="#a79f90" d="M 155.5,356.5 C 151.639,357.541 151.639,358.541 155.5,359.5C 152.545,360.159 149.545,360.492 146.5,360.5C 146.062,360.565 145.728,360.399 145.5,360C 150.707,358.07 154.707,354.737 157.5,350C 155.652,346.987 153.318,344.487 150.5,342.5C 151.251,341.427 152.251,341.26 153.5,342C 156.63,344.128 159.463,346.628 162,349.5C 162.667,350.5 162.667,351.5 162,352.5C 159.948,354.058 157.781,355.392 155.5,356.5 Z"/></g>
<g><path style="opacity:1" fill="#6d675c" d="M 187.5,343.5 C 188.239,343.369 188.906,343.536 189.5,344C 188.383,345.892 186.716,346.725 184.5,346.5C 184.5,347.833 184.5,349.167 184.5,350.5C 186.911,350.863 188.411,349.863 189,347.5C 192.466,349.35 194.299,348.35 194.5,344.5C 198.561,348.507 198.228,352.34 193.5,356C 184.934,357.108 181.767,353.608 184,345.5C 184.816,344.177 185.983,343.511 187.5,343.5 Z"/></g>
<g><path style="opacity:1" fill="#6b655a" d="M 108.5,348.5 C 110.527,348.338 112.527,348.505 114.5,349C 109.457,353.712 104.123,358.045 98.5,362C 93.6495,362.934 88.9828,362.601 84.5,361C 92.7814,357.029 100.781,352.862 108.5,348.5 Z"/></g>
<g><path style="opacity:1" fill="#6d685e" d="M 155.5,359.5 C 151.639,358.541 151.639,357.541 155.5,356.5C 159.809,357.532 164.142,357.032 168.5,355C 168.167,354.667 167.833,354.333 167.5,354C 169.5,352.667 171.5,351.333 173.5,350C 170.312,347.568 167.312,344.901 164.5,342C 164.833,341.833 165.167,341.667 165.5,341.5C 169.382,343.934 173.048,346.601 176.5,349.5C 174.543,351.485 172.21,352.985 169.5,354C 170.167,354.333 170.833,354.667 171.5,355C 166.367,357.194 161.034,358.694 155.5,359.5 Z"/></g>
<g><path style="opacity:1" fill="#383129" d="M 155.5,361.5 C 156.009,362.341 155.343,362.841 153.5,363C 157.185,363.914 156.852,364.581 152.5,365C 154.5,365.333 156.5,365.667 158.5,366C 157.5,366.333 156.5,366.667 155.5,367C 156.167,367.167 156.833,367.333 157.5,367.5C 160.629,365.784 163.296,366.284 165.5,369C 164.328,369.353 163.162,369.187 162,368.5C 160.278,368.611 160.112,369.111 161.5,370C 156.81,370.503 152.143,371.17 147.5,372C 153.329,371.598 158.996,371.765 164.5,372.5C 135.585,375.381 106.585,376.215 77.5,375C 70.7467,374.716 64.0801,373.882 57.5,372.5C 60.977,371.677 64.6437,371.177 68.5,371C 66.913,370.138 65.2464,369.471 63.5,369C 65.087,368.138 66.7536,367.471 68.5,367C 67.1667,366.667 65.8333,366.333 64.5,366C 67.6229,365.794 70.6229,365.127 73.5,364C 69.7741,362.957 70.1074,362.457 74.5,362.5C 101.531,365.347 128.531,365.013 155.5,361.5 Z"/></g>
<g><path style="opacity:1" fill="#27221d" d="M 73.5,360.5 C 74.8333,360.5 76.1667,360.5 77.5,360.5C 76.5,361.167 75.5,361.833 74.5,362.5C 70.1074,362.457 69.7741,362.957 73.5,364C 70.6229,365.127 67.6229,365.794 64.5,366C 65.8333,366.333 67.1667,366.667 68.5,367C 66.7536,367.471 65.087,368.138 63.5,369C 65.2464,369.471 66.913,370.138 68.5,371C 64.6437,371.177 60.977,371.677 57.5,372.5C 53.3792,371.865 49.3792,370.698 45.5,369C 46.3081,368.692 46.9747,368.192 47.5,367.5C 43.3634,366.067 40.6967,363.234 39.5,359C 39.6659,356.836 40.8326,355.669 43,355.5C 51.7672,357.82 60.6005,359.82 69.5,361.5C 71.0451,361.489 72.3784,361.156 73.5,360.5 Z"/></g>
<g><path style="opacity:1" fill="#211e19" d="M 164.5,372.5 C 158.996,371.765 153.329,371.598 147.5,372C 152.143,371.17 156.81,370.503 161.5,370C 160.112,369.111 160.278,368.611 162,368.5C 163.162,369.187 164.328,369.353 165.5,369C 163.296,366.284 160.629,365.784 157.5,367.5C 156.833,367.333 156.167,367.167 155.5,367C 156.5,366.667 157.5,366.333 158.5,366C 156.5,365.667 154.5,365.333 152.5,365C 156.852,364.581 157.185,363.914 153.5,363C 155.343,362.841 156.009,362.341 155.5,361.5C 163.346,359.392 171.346,357.392 179.5,355.5C 180.442,355.608 181.275,355.941 182,356.5C 183.12,359.999 182.287,362.833 179.5,365C 180.167,365.333 180.833,365.667 181.5,366C 176.491,369.838 170.824,372.004 164.5,372.5 Z"/></g>
<g><path style="opacity:1" fill="#7f7f7f" d="M 53.5,379.5 C 56.1522,379.41 58.4855,380.076 60.5,381.5C 57.8478,381.59 55.5145,380.924 53.5,379.5 Z"/></g>
<g><path style="opacity:1" fill="#acacac" d="M 162.5,380.5 C 156.82,382.6 150.82,383.6 144.5,383.5C 150.31,382.143 156.31,381.143 162.5,380.5 Z"/></g>
</svg>
