<?xml version="1.0" encoding="UTF-8"?>
<!DOCTYPE svg PUBLIC "-//W3C//DTD SVG 1.1//EN" "http://www.w3.org/Graphics/SVG/1.1/DTD/svg11.dtd">
<svg xmlns="http://www.w3.org/2000/svg" version="1.1" width="218px" height="372px" style="shape-rendering:geometricPrecision; text-rendering:geometricPrecision; image-rendering:optimizeQuality; fill-rule:evenodd; clip-rule:evenodd" xmlns:xlink="http://www.w3.org/1999/xlink">
<g><path style="opacity:1" fill="#fdfdfd" d="M -0.5,-0.5 C 72.1667,-0.5 144.833,-0.5 217.5,-0.5C 217.5,123.5 217.5,247.5 217.5,371.5C 144.833,371.5 72.1667,371.5 -0.5,371.5C -0.5,247.5 -0.5,123.5 -0.5,-0.5 Z"/></g>
<g><path style="opacity:1" fill="#0c0b0a" d="M 152.5,34.5 C 151.677,39.3394 153.677,41.6728 158.5,41.5C 159.167,42.1667 159.833,42.8333 160.5,43.5C 158.649,44.8664 158.316,46.533 159.5,48.5C 160.417,47.8728 161.417,47.5394 162.5,47.5C 159.422,52.6525 156.589,57.9859 154,63.5C 154.166,68.2631 152.999,72.5964 150.5,76.5C 154.935,83.2786 154.268,89.4453 148.5,95C 148.667,95.5 148.833,96 149,96.5C 152.516,98.9264 155.849,101.593 159,104.5C 161.595,108.76 162.095,113.26 160.5,118C 162.345,120.528 163.512,123.361 164,126.5C 166.686,127.676 169.019,129.343 171,131.5C 174.072,136.395 176.905,141.395 179.5,146.5C 180.748,147.04 181.915,147.707 183,148.5C 184.092,153.14 185.092,157.807 186,162.5C 193.298,169.311 200.965,175.644 209,181.5C 211.515,185.086 212.015,188.919 210.5,193C 211.601,195.035 212.268,197.202 212.5,199.5C 211.122,204.399 210.288,209.399 210,214.5C 208.214,217.902 205.881,220.902 203,223.5C 200.814,227.714 198.814,232.047 197,236.5C 195.89,238.037 194.39,238.703 192.5,238.5C 194.126,243.643 194.626,248.976 194,254.5C 192.242,256.765 190.075,258.432 187.5,259.5C 184.833,259.167 182.167,258.833 179.5,258.5C 177.833,258.5 176.167,258.5 174.5,258.5C 174.253,266 170.753,271.333 164,274.5C 162.517,277.323 161.017,280.157 159.5,283C 162.466,287.767 165.3,292.601 168,297.5C 169.423,305.284 168.257,312.618 164.5,319.5C 168.83,323.651 173.83,326.818 179.5,329C 183.373,331.52 185.54,335.02 186,339.5C 186.667,340.167 187.333,340.833 188,341.5C 188.667,345.5 188.667,349.5 188,353.5C 185.417,355.698 182.584,357.531 179.5,359C 172.113,361.196 164.779,363.029 157.5,364.5C 152.269,364.444 147.269,365.111 142.5,366.5C 117.818,367.988 93.1509,367.822 68.5,366C 58.2409,365.268 48.2409,363.268 38.5,360C 34.5808,358.46 31.0808,356.293 28,353.5C 27.3333,349.5 27.3333,345.5 28,341.5C 29.8126,338.612 31.4792,335.612 33,332.5C 38.1548,328.45 43.6548,324.95 49.5,322C 50.5742,321.261 51.2409,320.261 51.5,319C 48.4592,312.865 47.2926,306.365 48,299.5C 50.5811,294.003 53.4145,288.67 56.5,283.5C 54.3588,280.033 52.6921,276.366 51.5,272.5C 44.9867,270.472 41.6534,265.972 41.5,259C 37.7087,258.409 34.0421,258.909 30.5,260.5C 21.7737,256.827 19.4404,250.66 23.5,242C 19.022,235.546 15.1887,228.712 12,221.5C 9.62555,219.461 7.62555,217.128 6,214.5C 4.08238,204.171 4.08238,193.837 6,183.5C 8.88405,180.315 12.0507,177.482 15.5,175C 19.123,173.895 22.7897,172.895 26.5,172C 28.1553,169.493 28.9886,166.659 29,163.5C 30.417,162.922 31.2504,161.922 31.5,160.5C 39.0002,158.812 39.3336,156.145 32.5,152.5C 32.5,151.5 32.5,150.5 32.5,149.5C 34.0174,149.511 35.1841,150.177 36,151.5C 37.9927,153.818 39.1594,156.484 39.5,159.5C 40.8734,159.343 42.2068,159.51 43.5,160C 38.8251,162.821 34.8251,166.321 31.5,170.5C 30.0384,171.458 28.7051,172.624 27.5,174C 30.0467,174.552 32.0467,175.886 33.5,178C 31.6183,178.198 29.9516,178.698 28.5,179.5C 22.6311,179.684 17.4645,181.684 13,185.5C 12.3333,186.833 12.3333,188.167 13,189.5C 14.438,186.15 16.6047,184.483 19.5,184.5C 18.4019,185.397 18.4019,186.23 19.5,187C 14.8232,189.979 12.3232,194.146 12,199.5C 13.331,197.004 15.1644,195.004 17.5,193.5C 19.3684,192.737 21.0351,191.737 22.5,190.5C 28.492,189.226 34.492,189.226 40.5,190.5C 42.0016,189.349 43.6683,189.349 45.5,190.5C 43.684,188.183 41.684,186.016 39.5,184C 43.0252,183.342 45.8586,184.509 48,187.5C 48.8854,190 50.0521,192.333 51.5,194.5C 55.1667,192.333 58.8333,190.167 62.5,188C 60.4328,187.464 58.5994,187.964 57,189.5C 55.6012,188.773 54.1012,188.273 52.5,188C 53.8333,187.333 53.8333,186.667 52.5,186C 50.0503,187.126 48.0503,186.459 46.5,184C 46.9558,180.566 47.9558,177.066 49.5,173.5C 49.5,172.833 49.8333,172.5 50.5,172.5C 52.1405,171.853 53.4739,170.853 54.5,169.5C 56.8688,172.125 59.0354,171.792 61,168.5C 60.1852,170.431 59.6852,172.598 59.5,175C 59.5376,178.888 60.7042,179.388 63,176.5C 62.5783,179.098 62.5783,181.764 63,184.5C 65.6,188.713 68.4333,192.713 71.5,196.5C 74.3941,193.03 75.2274,189.03 74,184.5C 73.5814,185.672 72.9147,186.672 72,187.5C 71.8333,187 71.6667,186.5 71.5,186C 73.1784,183.802 74.1784,181.302 74.5,178.5C 74.1667,177.167 73.8333,175.833 73.5,174.5C 72.5,175.833 71.5,177.167 70.5,178.5C 70.1667,178.167 69.8333,177.833 69.5,177.5C 72.4287,174.554 72.0953,173.387 68.5,174C 70.5018,172.981 72.5018,172.148 74.5,171.5C 75.4972,171.53 76.1639,171.03 76.5,170C 72.1503,165.976 68.9836,161.142 67,155.5C 60.7577,154.046 57.5911,150.046 57.5,143.5C 56.4538,141.264 55.1205,139.264 53.5,137.5C 53.56,136.957 53.8933,136.624 54.5,136.5C 56.1933,138.027 58.0266,139.36 60,140.5C 59.7975,144.77 60.9642,148.437 63.5,151.5C 64.8775,152.234 66.3775,152.901 68,153.5C 68.3333,153.167 68.6667,152.833 69,152.5C 69.1335,155.525 70.1335,158.192 72,160.5C 72.4828,159.552 72.6495,158.552 72.5,157.5C 73.5,156.833 74.5,156.167 75.5,155.5C 75.5,155.833 75.5,156.167 75.5,156.5C 74.1453,159.797 74.6453,160.13 77,157.5C 77.5513,159.353 76.8847,160.687 75,161.5C 74.5781,167.121 76.2448,167.788 80,163.5C 80.4643,164.094 80.631,164.761 80.5,165.5C 78.5589,167.011 78.0589,169.011 79,171.5C 80.1667,172.667 81.3333,173.833 82.5,175C 83.7494,175.74 84.7494,175.573 85.5,174.5C 85.5,174.167 85.5,173.833 85.5,173.5C 86.6499,172.15 87.3166,172.316 87.5,174C 87.0217,175.303 86.355,176.469 85.5,177.5C 82.9818,183.634 84.8152,187.967 91,190.5C 92,192.5 93,194.5 94,196.5C 94.5046,194.482 95.0046,192.482 95.5,190.5C 96.2947,185.851 96.4614,181.184 96,176.5C 94.3745,179.128 92.3745,181.461 90,183.5C 89.8333,183 89.6667,182.5 89.5,182C 91.2628,179.502 92.9295,177.002 94.5,174.5C 96.2726,173.686 96.7726,172.352 96,170.5C 93.6078,167.772 91.6078,164.772 90,161.5C 86.2172,158.268 82.2172,155.268 78,152.5C 76.7985,149.29 74.7985,146.623 72,144.5C 71.5172,143.552 71.3505,142.552 71.5,141.5C 69.901,141.232 68.5676,141.566 67.5,142.5C 66.1417,143.626 64.8084,143.626 63.5,142.5C 64.7701,141.712 65.7701,140.712 66.5,139.5C 67.4778,139.189 68.1445,138.522 68.5,137.5C 64.532,133.616 61.8653,128.95 60.5,123.5C 57.4026,124.771 57.0693,126.271 59.5,128C 58.944,128.383 58.6107,128.883 58.5,129.5C 56.8639,130.749 55.6972,132.416 55,134.5C 54.5073,131.015 53.0073,130.515 50.5,133C 49.695,134.113 49.0283,135.279 48.5,136.5C 47.0459,138.437 45.3793,140.103 43.5,141.5C 42.4489,140.778 41.7822,139.778 41.5,138.5C 43.1558,135.861 44.8224,133.195 46.5,130.5C 48.0712,128.585 50.0712,127.585 52.5,127.5C 52.3398,125.801 52.5065,124.134 53,122.5C 54.353,121.315 55.5197,119.981 56.5,118.5C 54.0204,114.612 53.8538,110.612 56,106.5C 59.5623,102.321 63.3956,98.4875 67.5,95C 62.9713,89.3726 62.3046,83.2059 65.5,76.5C 62.9646,72.2567 61.7979,67.59 62,62.5C 59.3498,57.5366 56.5165,52.7033 53.5,48C 57.4502,41.3903 62.1169,35.3903 67.5,30C 79.621,19.0416 92.9543,9.87491 107.5,2.5C 124.765,10.116 139.765,20.7826 152.5,34.5 Z"/></g>
<g><path style="opacity:1" fill="#b2a999" d="M 114.5,12.5 C 115.71,12.9321 116.71,13.5987 117.5,14.5C 115.542,17.4712 113.542,20.4712 111.5,23.5C 108.763,23.4013 106.096,23.7347 103.5,24.5C 106.142,20.8516 108.809,17.1849 111.5,13.5C 112.325,12.6143 113.325,12.281 114.5,12.5 Z"/></g>
<g><path style="opacity:1" fill="#0a0a08" d="M 100.5,16.5 C 97.731,23.5823 96.8976,30.9156 98,38.5C 98.9989,42.366 100.832,45.6993 103.5,48.5C 99.3379,49.2565 95.1713,49.9232 91,50.5C 90.2352,50.4301 89.7352,50.0967 89.5,49.5C 91.1667,48.5 92.5,47.1667 93.5,45.5C 95.6017,37.9082 94.6017,30.4082 90.5,23C 93.3707,20.0682 96.704,17.9016 100.5,16.5 Z"/></g>
<g><path style="opacity:1" fill="#0a0a08" d="M 126.5,22.5 C 122.638,27.9184 121.138,33.9184 122,40.5C 123.768,41.6819 123.935,43.0152 122.5,44.5C 123.277,47.1122 124.944,48.9455 127.5,50C 122.513,50.0025 117.513,49.6692 112.5,49C 116.699,44.7191 118.699,39.5524 118.5,33.5C 118.747,30.0613 118.414,26.728 117.5,23.5C 116.943,21.0509 116.943,18.7175 117.5,16.5C 120.357,18.7583 123.357,20.7583 126.5,22.5 Z"/></g>
<g><path style="opacity:1" fill="#575349" d="M 100.5,13.5 C 101.625,14.6522 101.625,15.6522 100.5,16.5C 96.704,17.9016 93.3707,20.0682 90.5,23C 94.6017,30.4082 95.6017,37.9082 93.5,45.5C 92.8166,43.8235 91.4832,43.1568 89.5,43.5C 92.3843,41.7325 93.7176,39.0658 93.5,35.5C 92.6681,30.8378 91.0015,26.5045 88.5,22.5C 91.9049,18.7692 95.9049,15.7692 100.5,13.5 Z"/></g>
<g><path style="opacity:1" fill="#736d61" d="M 117.5,14.5 C 121.41,16.0875 124.743,18.4208 127.5,21.5C 127.5,22.1667 127.167,22.5 126.5,22.5C 123.357,20.7583 120.357,18.7583 117.5,16.5C 116.943,18.7175 116.943,21.0509 117.5,23.5C 116.167,24.1667 115.167,25.1667 114.5,26.5C 113.167,25.8333 112.167,24.8333 111.5,23.5C 113.542,20.4712 115.542,17.4712 117.5,14.5 Z"/></g>
<g><path style="opacity:1" fill="#aca493" d="M 117.5,23.5 C 118.414,26.728 118.747,30.0613 118.5,33.5C 117.778,33.9175 117.278,34.5842 117,35.5C 116.768,34.2625 116.268,33.2625 115.5,32.5C 115.5,31.8333 115.5,31.1667 115.5,30.5C 114.766,29.2921 114.433,27.9587 114.5,26.5C 115.167,25.1667 116.167,24.1667 117.5,23.5 Z"/></g>
<g><path style="opacity:1" fill="#0e0d0c" d="M 115.5,30.5 C 115.5,31.1667 115.5,31.8333 115.5,32.5C 115.5,35.1667 115.5,37.8333 115.5,40.5C 114.778,40.0825 114.278,39.4158 114,38.5C 112.957,43.2226 110.124,45.0559 105.5,44C 101.201,37.7053 101.534,31.7053 106.5,26C 107.833,25.3333 109.167,25.3333 110.5,26C 111.651,28.2003 113.318,29.7003 115.5,30.5 Z"/></g>
<g><path style="opacity:1" fill="#938c7e" d="M 105.5,29.5 C 106.5,29.5 107.5,29.5 108.5,29.5C 108.424,33.3837 109.09,37.0504 110.5,40.5C 109.5,40.5 108.5,40.5 107.5,40.5C 107.657,39.1266 107.49,37.7932 107,36.5C 104.318,34.6233 103.818,32.2899 105.5,29.5 Z"/></g>
<g><path style="opacity:1" fill="#6b655a" d="M 88.5,43.5 C 86.1975,45.978 84.0308,48.6447 82,51.5C 81.4719,52.816 81.9719,53.4827 83.5,53.5C 78.2098,54.9754 73.2098,57.3087 68.5,60.5C 65.943,56.3924 63.6097,52.0591 61.5,47.5C 66.1289,41.2034 71.4623,35.5367 77.5,30.5C 78.6493,35.1361 80.6493,39.3028 83.5,43C 85.1341,43.4935 86.8008,43.6602 88.5,43.5 Z"/></g>
<g><path style="opacity:1" fill="#6d675c" d="M 114.5,12.5 C 113.325,12.281 112.325,12.6143 111.5,13.5C 108.809,17.1849 106.142,20.8516 103.5,24.5C 99.7841,31.0859 99.6174,37.7526 103,44.5C 108.946,49.1212 113.112,47.7878 115.5,40.5C 115.5,37.8333 115.5,35.1667 115.5,32.5C 116.268,33.2625 116.768,34.2625 117,35.5C 117.278,34.5842 117.778,33.9175 118.5,33.5C 118.699,39.5524 116.699,44.7191 112.5,49C 117.513,49.6692 122.513,50.0025 127.5,50C 124.944,48.9455 123.277,47.1122 122.5,44.5C 125.713,44.81 128.713,44.4767 131.5,43.5C 135.88,40.4308 138.213,36.0975 138.5,30.5C 144.48,34.6462 149.646,39.6462 154,45.5C 155.087,48.6139 154.254,50.9472 151.5,52.5C 151.22,55.7265 149.887,58.3932 147.5,60.5C 140.901,55.7997 133.567,52.9663 125.5,52C 112.472,50.0201 99.4723,50.1867 86.5,52.5C 86.8102,50.8564 87.8102,49.8564 89.5,49.5C 89.7352,50.0967 90.2352,50.4301 91,50.5C 95.1713,49.9232 99.3379,49.2565 103.5,48.5C 100.832,45.6993 98.9989,42.366 98,38.5C 96.8976,30.9156 97.731,23.5823 100.5,16.5C 101.625,15.6522 101.625,14.6522 100.5,13.5C 104.846,8.57925 109.513,8.24592 114.5,12.5 Z"/></g>
<g><path style="opacity:1" fill="#444039" d="M 127.5,21.5 C 128.043,21.56 128.376,21.8933 128.5,22.5C 125.549,26.5692 123.549,31.0692 122.5,36C 123.262,41.2673 126.262,43.7673 131.5,43.5C 128.713,44.4767 125.713,44.81 122.5,44.5C 123.935,43.0152 123.768,41.6819 122,40.5C 121.138,33.9184 122.638,27.9184 126.5,22.5C 127.167,22.5 127.5,22.1667 127.5,21.5 Z"/></g>
<g><path style="opacity:1" fill="#413d36" d="M 111.5,23.5 C 112.167,24.8333 113.167,25.8333 114.5,26.5C 114.433,27.9587 114.766,29.2921 115.5,30.5C 113.318,29.7003 111.651,28.2003 110.5,26C 109.167,25.3333 107.833,25.3333 106.5,26C 101.534,31.7053 101.201,37.7053 105.5,44C 110.124,45.0559 112.957,43.2226 114,38.5C 114.278,39.4158 114.778,40.0825 115.5,40.5C 113.112,47.7878 108.946,49.1212 103,44.5C 99.6174,37.7526 99.7841,31.0859 103.5,24.5C 106.096,23.7347 108.763,23.4013 111.5,23.5 Z"/></g>
<g><path style="opacity:1" fill="#818181" d="M 152.5,34.5 C 155.219,36.2193 157.219,38.5526 158.5,41.5C 153.677,41.6728 151.677,39.3394 152.5,34.5 Z"/></g>
<g><path style="opacity:1" fill="#a9a191" d="M 88.5,43.5 C 88.8333,43.5 89.1667,43.5 89.5,43.5C 91.4832,43.1568 92.8166,43.8235 93.5,45.5C 92.5,47.1667 91.1667,48.5 89.5,49.5C 87.8102,49.8564 86.8102,50.8564 86.5,52.5C 85.791,53.404 84.791,53.7373 83.5,53.5C 81.9719,53.4827 81.4719,52.816 82,51.5C 84.0308,48.6447 86.1975,45.978 88.5,43.5 Z"/></g>
<g><path style="opacity:1" fill="#100f0e" d="M 151.5,52.5 C 150.19,54.4346 148.857,56.4346 147.5,58.5C 144.995,56.7467 142.329,55.2467 139.5,54C 141.115,53.9378 142.448,53.7711 143.5,53.5C 145.316,51.8816 146.649,49.8816 147.5,47.5C 148.987,44.788 148.321,42.6213 145.5,41C 148.436,41.8931 150.936,43.7264 153,46.5C 153.322,48.6889 152.822,50.6889 151.5,52.5 Z"/></g>
<g><path style="opacity:1" fill="#1a1917" d="M 70.5,39.5 C 71.0431,39.56 71.3764,39.8933 71.5,40.5C 68.4223,42.791 67.9223,45.4576 70,48.5C 70.4935,46.8659 70.6602,45.1992 70.5,43.5C 76.2038,43.1464 78.0371,45.813 76,51.5C 74.9326,52.1905 73.7659,52.6905 72.5,53C 74.1667,53.3333 75.8333,53.6667 77.5,54C 74.344,54.9372 71.5106,56.4372 69,58.5C 66.1809,54.8763 64.5142,50.8763 64,46.5C 66.0329,43.9698 68.1996,41.6365 70.5,39.5 Z"/></g>
<g><path style="opacity:1" fill="#7c7c7c" d="M 160.5,43.5 C 161.674,44.5137 162.34,45.847 162.5,47.5C 161.417,47.5394 160.417,47.8728 159.5,48.5C 158.316,46.533 158.649,44.8664 160.5,43.5 Z"/></g>
<g><path style="opacity:1" fill="#33312b" d="M 147.5,47.5 C 146.649,49.8816 145.316,51.8816 143.5,53.5C 138.039,49.9795 138.206,46.6461 144,43.5C 145.771,44.3471 146.937,45.6805 147.5,47.5 Z"/></g>
<g><path style="opacity:1" fill="#696358" d="M 142.5,60.5 C 141.448,60.3505 140.448,60.5172 139.5,61C 140.696,61.6543 140.696,62.1543 139.5,62.5C 128.814,58.0435 117.647,56.0435 106,56.5C 101.833,56.6667 97.6667,56.8333 93.5,57C 85.9027,58.9391 78.5694,60.7725 71.5,62.5C 72.343,60.8267 73.6763,59.66 75.5,59C 95.281,52.4841 115.281,51.8174 135.5,57C 138.069,57.8984 140.402,59.065 142.5,60.5 Z"/></g>
<g><path style="opacity:1" fill="#655f55" d="M 106.5,58.5 C 104.001,61.1686 101.668,64.0019 99.5,67C 100.448,67.4828 101.448,67.6495 102.5,67.5C 96.9111,68.2007 91.2444,69.2007 85.5,70.5C 84.9733,67.6916 84.9733,65.025 85.5,62.5C 84.0188,65.407 82.6855,68.407 81.5,71.5C 81.1667,71.1667 80.8333,70.8333 80.5,70.5C 81.9459,68.3821 82.6126,66.0488 82.5,63.5C 74.9811,64.5217 71.1478,68.855 71,76.5C 70.5045,74.5273 70.3379,72.5273 70.5,70.5C 70.5,69.8333 70.5,69.1667 70.5,68.5C 74.4068,64.7113 79.0735,62.2113 84.5,61C 91.707,59.066 99.0403,58.2327 106.5,58.5 Z"/></g>
<g><path style="opacity:1" fill="#1a1916" d="M 142.5,60.5 C 145.936,61.6022 147.936,63.9356 148.5,67.5C 147.702,70.9551 146.369,73.9551 144.5,76.5C 140.931,74.8815 137.264,73.5481 133.5,72.5C 116.512,68.557 99.5119,68.557 82.5,72.5C 82.5,73.5 82.5,74.5 82.5,75.5C 98.1656,72.8572 113.832,72.8572 129.5,75.5C 118.013,75.617 106.347,75.7837 94.5,76C 90.9101,76.3106 87.5767,77.144 84.5,78.5C 83.7784,78.9175 83.2784,79.5842 83,80.5C 82.5831,79.244 81.7498,78.5774 80.5,78.5C 74.631,80.0552 70.9643,83.3885 69.5,88.5C 66.7425,84.7647 67.0759,81.2647 70.5,78C 69.1857,75.3953 69.1857,72.8953 70.5,70.5C 70.3379,72.5273 70.5045,74.5273 71,76.5C 71.1478,68.855 74.9811,64.5217 82.5,63.5C 82.6126,66.0488 81.9459,68.3821 80.5,70.5C 80.8333,70.8333 81.1667,71.1667 81.5,71.5C 82.6855,68.407 84.0188,65.407 85.5,62.5C 84.9733,65.025 84.9733,67.6916 85.5,70.5C 91.2444,69.2007 96.9111,68.2007 102.5,67.5C 105.5,67.5 108.5,67.5 111.5,67.5C 118.143,68.3849 124.81,69.0516 131.5,69.5C 130.161,60.4194 130.995,60.4194 134,69.5C 134.651,67.765 134.485,66.0983 133.5,64.5C 135.413,63.9488 137.413,63.7821 139.5,64C 131.179,60.5691 122.513,58.7358 113.5,58.5C 111.167,58.5 108.833,58.5 106.5,58.5C 99.0403,58.2327 91.707,59.066 84.5,61C 79.0735,62.2113 74.4068,64.7113 70.5,68.5C 69.7784,68.0825 69.2784,67.4158 69,66.5C 68.6667,67.5 68.3333,68.5 68,69.5C 67.2075,66.1397 68.3741,63.8064 71.5,62.5C 78.5694,60.7725 85.9027,58.9391 93.5,57C 97.6667,56.8333 101.833,56.6667 106,56.5C 117.647,56.0435 128.814,58.0435 139.5,62.5C 140.696,62.1543 140.696,61.6543 139.5,61C 140.448,60.5172 141.448,60.3505 142.5,60.5 Z"/></g>
<g><path style="opacity:1" fill="#696459" d="M 133.5,72.5 C 133.87,76.1859 132.537,77.1859 129.5,75.5C 113.832,72.8572 98.1656,72.8572 82.5,75.5C 82.5,74.5 82.5,73.5 82.5,72.5C 99.5119,68.557 116.512,68.557 133.5,72.5 Z"/></g>
<g><path style="opacity:1" fill="#b2aa99" d="M 106.5,58.5 C 108.833,58.5 111.167,58.5 113.5,58.5C 112.496,59.6828 111.662,61.0161 111,62.5C 107.68,58.4637 106.347,59.1304 107,64.5C 107.388,65.428 108.055,66.0946 109,66.5C 111.784,64.7201 114.284,62.5535 116.5,60C 117.5,59.3333 118.5,59.3333 119.5,60C 116.938,62.733 114.271,65.233 111.5,67.5C 108.5,67.5 105.5,67.5 102.5,67.5C 101.448,67.6495 100.448,67.4828 99.5,67C 101.668,64.0019 104.001,61.1686 106.5,58.5 Z"/></g>
<g><path style="opacity:1" fill="#6c675c" d="M 113.5,58.5 C 122.513,58.7358 131.179,60.5691 139.5,64C 137.413,63.7821 135.413,63.9488 133.5,64.5C 134.485,66.0983 134.651,67.765 134,69.5C 130.995,60.4194 130.161,60.4194 131.5,69.5C 124.81,69.0516 118.143,68.3849 111.5,67.5C 114.271,65.233 116.938,62.733 119.5,60C 118.5,59.3333 117.5,59.3333 116.5,60C 114.284,62.5535 111.784,64.7201 109,66.5C 108.055,66.0946 107.388,65.428 107,64.5C 106.347,59.1304 107.68,58.4637 111,62.5C 111.662,61.0161 112.496,59.6828 113.5,58.5 Z"/></g>
<g><path style="opacity:1" fill="#3a352e" d="M 133.5,72.5 C 137.264,73.5481 140.931,74.8815 144.5,76.5C 148.171,79.293 149.338,82.9597 148,87.5C 147.667,85.5 147.333,83.5 147,81.5C 143.586,77.3709 139.419,75.3709 134.5,75.5C 137.319,76.7427 139.986,78.2427 142.5,80C 139.84,79.5238 137.174,78.6905 134.5,77.5C 133.141,78.6243 132.141,79.9577 131.5,81.5C 131.5,80.1667 131.5,78.8333 131.5,77.5C 123.192,78.3944 114.858,78.3944 106.5,77.5C 99.0971,77.5123 91.7638,78.179 84.5,79.5C 84.5,79.1667 84.5,78.8333 84.5,78.5C 87.5767,77.144 90.9101,76.3106 94.5,76C 106.347,75.7837 118.013,75.617 129.5,75.5C 132.537,77.1859 133.87,76.1859 133.5,72.5 Z"/></g>
<g><path style="opacity:1" fill="#6f695d" d="M 131.5,81.5 C 132.696,85.9684 133.862,90.3017 135,94.5C 137.417,102.15 135.084,107.483 128,110.5C 121.922,108.456 116.588,105.122 112,100.5C 111.51,101.793 111.343,103.127 111.5,104.5C 112.5,104.5 113.5,104.5 114.5,104.5C 113.273,107.565 111.107,109.899 108,111.5C 106.005,109.77 103.838,108.437 101.5,107.5C 101.5,106.5 101.5,105.5 101.5,104.5C 102.5,104.5 103.5,104.5 104.5,104.5C 105.014,102.488 105.18,100.488 105,98.5C 100.398,105.809 93.8983,109.643 85.5,110C 82.6216,107.408 80.955,104.241 80.5,100.5C 81.4687,94.416 83.1354,88.5827 85.5,83C 85.0109,81.8615 84.6775,80.6948 84.5,79.5C 91.7638,78.179 99.0971,77.5123 106.5,77.5C 114.858,78.3944 123.192,78.3944 131.5,77.5C 131.5,78.8333 131.5,80.1667 131.5,81.5 Z"/></g>
<g><path style="opacity:1" fill="#191815" d="M 85.5,86.5 C 91.9501,87.5757 98.2834,88.909 104.5,90.5C 104.222,92.3464 104.889,93.6798 106.5,94.5C 107.814,85.2589 108.48,85.2589 108.5,94.5C 109.5,94.5 110.5,94.5 111.5,94.5C 111.5,93.1667 111.5,91.8333 111.5,90.5C 116.14,91.264 120.14,90.0974 123.5,87C 125.833,86.3333 128.167,86.3333 130.5,87C 130.833,88 131.167,89 131.5,90C 128.301,90.4008 125.301,91.2341 122.5,92.5C 122.297,94.6382 121.297,96.3049 119.5,97.5C 119.977,98.4776 120.643,99.3109 121.5,100C 121.167,100.167 120.833,100.333 120.5,100.5C 117.733,98.7005 114.899,97.0338 112,95.5C 109.333,96.8333 106.667,96.8333 104,95.5C 101.502,97.417 98.8349,99.0836 96,100.5C 95.5,100.333 95,100.167 94.5,100C 95.91,99.6322 96.91,98.7989 97.5,97.5C 95.5,96.1667 93.8333,94.5 92.5,92.5C 91.8333,93.5 91.1667,94.5 90.5,95.5C 89.269,94.3493 89.269,93.1827 90.5,92C 88.6494,91.1628 86.8161,90.3295 85,89.5C 84.5304,88.4232 84.6971,87.4232 85.5,86.5 Z"/></g>
<g><path style="opacity:1" fill="#555047" d="M 73.5,86.5 C 74.4972,86.4701 75.1639,86.9701 75.5,88C 75.1223,89.6349 74.4556,91.1349 73.5,92.5C 72.3058,90.4844 72.3058,88.4844 73.5,86.5 Z"/></g>
<g><path style="opacity:1" fill="#2d2821" d="M 134.5,79.5 C 138.78,79.4458 141.114,81.4458 141.5,85.5C 138.316,85.3322 137.816,86.6655 140,89.5C 140.483,88.552 140.649,87.552 140.5,86.5C 143.488,86.1547 144.821,87.488 144.5,90.5C 144.217,93.7423 143.383,94.0756 142,91.5C 141.333,92.8333 141.333,94.1667 142,95.5C 146.296,99.9184 150.296,104.585 154,109.5C 154.667,111.167 154.667,112.833 154,114.5C 153.257,112.355 152.424,112.189 151.5,114C 152.459,116.12 152.626,118.287 152,120.5C 148.934,117.375 147.267,113.708 147,109.5C 148.247,111.881 148.58,111.547 148,108.5C 144.095,100.77 139.595,93.437 134.5,86.5C 135.167,86.1667 135.833,85.8333 136.5,85.5C 133.61,84.1627 132.943,82.1627 134.5,79.5 Z"/></g>
<g><path style="opacity:1" fill="#645f54" d="M 66.5,139.5 C 66.2435,137.224 64.9102,136.057 62.5,136C 63.8333,135.333 63.8333,134.667 62.5,134C 61.5509,133.383 60.7175,133.549 60,134.5C 59.6886,133.258 60.1886,132.258 61.5,131.5C 60.9953,130.081 59.9953,129.415 58.5,129.5C 58.6107,128.883 58.944,128.383 59.5,128C 57.0693,126.271 57.4026,124.771 60.5,123.5C 61.8653,128.95 64.532,133.616 68.5,137.5C 68.1445,138.522 67.4778,139.189 66.5,139.5 Z"/></g>
<g><path style="opacity:1" fill="#2b2620" d="M 80.5,78.5 C 81.7498,78.5774 82.5831,79.244 83,80.5C 83.2784,79.5842 83.7784,78.9175 84.5,78.5C 84.5,78.8333 84.5,79.1667 84.5,79.5C 84.6775,80.6948 85.0109,81.8615 85.5,83C 83.1354,88.5827 81.4687,94.416 80.5,100.5C 80.955,104.241 82.6216,107.408 85.5,110C 93.8983,109.643 100.398,105.809 105,98.5C 105.18,100.488 105.014,102.488 104.5,104.5C 103.5,104.5 102.5,104.5 101.5,104.5C 101.5,105.5 101.5,106.5 101.5,107.5C 101.709,108.922 102.209,110.255 103,111.5C 104.147,110.542 105.147,110.875 106,112.5C 106.46,114.714 105.793,115.381 104,114.5C 101.503,116.328 99.17,118.328 97,120.5C 95.4815,120.943 94.3148,120.276 93.5,118.5C 92.1575,119.902 91.3242,119.569 91,117.5C 90.6075,120.633 89.7741,123.633 88.5,126.5C 89.4341,128.939 90.6007,131.272 92,133.5C 92.9603,129.702 94.2936,126.035 96,122.5C 97.0495,121.483 98.2161,121.316 99.5,122C 99.1314,125.497 99.6314,128.997 101,132.5C 101.822,129.883 102.322,127.216 102.5,124.5C 104.916,124.039 106.75,122.706 108,120.5C 109.78,122.346 111.78,124.013 114,125.5C 114.974,123.122 115.641,123.456 116,126.5C 116.494,124.866 116.66,123.199 116.5,121.5C 121.096,122.812 123.429,125.978 123.5,131C 124.01,132.826 124.844,132.993 126,131.5C 126.945,135.114 127.612,138.781 128,142.5C 128.837,136.163 129.503,136.497 130,143.5C 130.667,140.833 130.667,138.167 130,135.5C 128.386,128.166 126.886,120.833 125.5,113.5C 127.595,112.771 129.428,113.437 131,115.5C 131.862,113.913 132.529,112.246 133,110.5C 134,109.167 135,109.167 136,110.5C 137.434,105.419 137.767,100.086 137,94.5C 140.561,103.445 144.061,112.445 147.5,121.5C 147.333,122.167 147.167,122.833 147,123.5C 146.185,121.377 145.185,119.377 144,117.5C 145.905,122.597 146.571,127.93 146,133.5C 143.768,137.395 141.268,141.062 138.5,144.5C 137.856,138.704 136.689,133.037 135,127.5C 136.247,134.399 136.58,141.399 136,148.5C 132.852,151.989 129.019,154.323 124.5,155.5C 124.54,158.425 123.707,161.091 122,163.5C 121.333,164.833 120.667,164.833 120,163.5C 119.218,166.076 117.718,168.076 115.5,169.5C 114.679,166.553 114.179,163.553 114,160.5C 112.363,175.071 111.363,175.071 111,160.5C 110.608,164.528 110.108,168.528 109.5,172.5C 108.5,172.5 107.5,172.5 106.5,172.5C 105.849,158.511 105.349,144.511 105,130.5C 103.093,143.52 103.26,156.52 105.5,169.5C 105.167,170.167 104.833,170.833 104.5,171.5C 103.692,169.577 103.192,167.577 103,165.5C 102.453,170.348 101.12,170.682 99,166.5C 98.6667,166.833 98.3333,167.167 98,167.5C 97.5172,166.552 97.3505,165.552 97.5,164.5C 96.5,164.5 95.5,164.5 94.5,164.5C 93.5785,161.874 92.5785,159.207 91.5,156.5C 87.742,154.539 84.242,152.205 81,149.5C 80.6667,143.833 80.3333,138.167 80,132.5C 79.488,136.573 78.6547,140.573 77.5,144.5C 72.7904,139.413 69.9571,133.413 69,126.5C 68.6667,127.5 68.3333,128.5 68,129.5C 68.1766,125.804 68.5099,122.137 69,118.5C 67.6011,121.363 66.6011,124.363 66,127.5C 65.3405,124.953 65.5071,122.453 66.5,120C 66.3333,119.5 66.1667,119 66,118.5C 64.7684,121.23 63.935,121.063 63.5,118C 63.7065,116.634 64.0398,115.301 64.5,114C 63.5182,113.619 62.8515,112.786 62.5,111.5C 62.8988,109.803 63.3988,108.137 64,106.5C 71.1127,101.561 75.6127,94.8947 77.5,86.5C 76.675,85.6143 75.675,85.281 74.5,85.5C 74.3505,84.448 74.5172,83.448 75,82.5C 76.8121,81.0229 78.6455,79.6896 80.5,78.5 Z"/></g>
<g><path style="opacity:1" fill="#3d3830" d="M 116.5,121.5 C 114.983,121.511 113.816,122.177 113,123.5C 111.812,122.437 111.312,121.103 111.5,119.5C 109.167,119.5 106.833,119.5 104.5,119.5C 104.416,124.467 103.082,124.8 100.5,120.5C 103.167,118.833 105.833,117.167 108.5,115.5C 111.463,117.331 114.13,119.331 116.5,121.5 Z"/></g>
<g><path style="opacity:1" fill="#645f55" d="M 156.5,128.5 C 153.58,130.718 153.914,132.385 157.5,133.5C 156.271,134.281 154.938,134.781 153.5,135C 153.833,135.333 154.167,135.667 154.5,136C 152.714,136.196 151.381,137.029 150.5,138.5C 152.781,140.394 153.948,142.728 154,145.5C 152.591,144.219 151.091,143.219 149.5,142.5C 150.239,142.631 150.906,142.464 151.5,142C 149.876,140.883 148.876,139.383 148.5,137.5C 152.194,133.138 154.528,128.138 155.5,122.5C 158.858,124.192 159.191,126.192 156.5,128.5 Z"/></g>
<g><path style="opacity:1" fill="#6e695e" d="M 57.5,143.5 C 57.5911,150.046 60.7577,154.046 67,155.5C 68.9836,161.142 72.1503,165.976 76.5,170C 76.1639,171.03 75.4972,171.53 74.5,171.5C 72.2202,170.253 69.8868,168.92 67.5,167.5C 68.4279,166.232 68.5946,164.899 68,163.5C 66.294,161.295 64.794,158.962 63.5,156.5C 60.9013,160.641 60.2346,160.474 61.5,156C 59.8067,155.516 58.4733,156.016 57.5,157.5C 57.1667,157.5 56.8333,157.5 56.5,157.5C 57.0283,156.279 57.695,155.113 58.5,154C 57.3333,152.833 56.1667,151.667 55,150.5C 54,151.833 53,153.167 52,154.5C 51.3698,152.097 52.2031,150.263 54.5,149C 53.0267,148.29 52.3601,147.124 52.5,145.5C 54.5542,145.635 56.2209,144.968 57.5,143.5 Z"/></g>
<g><path style="opacity:1" fill="#a49d8f" d="M 58.5,129.5 C 59.9953,129.415 60.9953,130.081 61.5,131.5C 60.1886,132.258 59.6886,133.258 60,134.5C 60.7175,133.549 61.5509,133.383 62.5,134C 63.8333,134.667 63.8333,135.333 62.5,136C 64.9102,136.057 66.2435,137.224 66.5,139.5C 65.7701,140.712 64.7701,141.712 63.5,142.5C 64.8084,143.626 66.1417,143.626 67.5,142.5C 71.3448,144.665 72.0115,147.498 69.5,151C 67.5273,151.495 65.5273,151.662 63.5,151.5C 60.9642,148.437 59.7975,144.77 60,140.5C 58.0266,139.36 56.1933,138.027 54.5,136.5C 53.8933,136.624 53.56,136.957 53.5,137.5C 52.4168,137.539 51.4168,137.873 50.5,138.5C 49.8182,137.757 49.1515,137.091 48.5,136.5C 49.0283,135.279 49.695,134.113 50.5,133C 53.0073,130.515 54.5073,131.015 55,134.5C 55.6972,132.416 56.8639,130.749 58.5,129.5 Z"/></g>
<g><path style="opacity:1" fill="#a59d8d" d="M 156.5,128.5 C 161.588,132.219 161.754,136.219 157,140.5C 154.505,139.238 154.172,139.571 156,141.5C 156.882,147.082 154.715,150.749 149.5,152.5C 147.973,152.573 146.973,151.906 146.5,150.5C 146.047,149.542 145.381,148.708 144.5,148C 145.397,145.689 146.73,143.856 148.5,142.5C 148.833,142.5 149.167,142.5 149.5,142.5C 151.091,143.219 152.591,144.219 154,145.5C 153.948,142.728 152.781,140.394 150.5,138.5C 151.381,137.029 152.714,136.196 154.5,136C 154.167,135.667 153.833,135.333 153.5,135C 154.938,134.781 156.271,134.281 157.5,133.5C 153.914,132.385 153.58,130.718 156.5,128.5 Z"/></g>
<g><path style="opacity:1" fill="#b8b2a7" d="M 48.5,136.5 C 49.1515,137.091 49.8182,137.757 50.5,138.5C 51.4168,137.873 52.4168,137.539 53.5,137.5C 55.1205,139.264 56.4538,141.264 57.5,143.5C 56.2209,144.968 54.5542,145.635 52.5,145.5C 52.3601,147.124 53.0267,148.29 54.5,149C 52.2031,150.263 51.3698,152.097 52,154.5C 53,153.167 54,151.833 55,150.5C 56.1667,151.667 57.3333,152.833 58.5,154C 57.695,155.113 57.0283,156.279 56.5,157.5C 55.5178,158.141 54.5178,158.807 53.5,159.5C 51.0629,158.197 48.8962,156.53 47,154.5C 46.3017,150.202 44.8017,146.202 42.5,142.5C 42.6236,141.893 42.9569,141.56 43.5,141.5C 45.3793,140.103 47.0459,138.437 48.5,136.5 Z"/></g>
<g><path style="opacity:1" fill="#645f54" d="M 67.5,142.5 C 68.5676,141.566 69.901,141.232 71.5,141.5C 71.3505,142.552 71.5172,143.552 72,144.5C 74.7985,146.623 76.7985,149.29 78,152.5C 82.2172,155.268 86.2172,158.268 90,161.5C 91.6078,164.772 93.6078,167.772 96,170.5C 96.7726,172.352 96.2726,173.686 94.5,174.5C 94.4226,173.25 93.756,172.417 92.5,172C 92.8333,171.667 93.1667,171.333 93.5,171C 92.4366,169.812 91.1033,169.312 89.5,169.5C 89.7845,167.585 89.4511,165.919 88.5,164.5C 88.6309,163.624 88.2975,162.957 87.5,162.5C 86.549,163.326 85.549,163.492 84.5,163C 85.731,161.817 85.731,160.651 84.5,159.5C 81.7238,158.911 79.3904,157.578 77.5,155.5C 76.8165,155.863 76.1499,156.196 75.5,156.5C 75.5,156.167 75.5,155.833 75.5,155.5C 76.1514,153.189 75.3181,151.189 73,149.5C 71.2572,152.156 71.0905,154.822 72.5,157.5C 72.6495,158.552 72.4828,159.552 72,160.5C 70.1335,158.192 69.1335,155.525 69,152.5C 68.6667,152.833 68.3333,153.167 68,153.5C 66.3775,152.901 64.8775,152.234 63.5,151.5C 65.5273,151.662 67.5273,151.495 69.5,151C 72.0115,147.498 71.3448,144.665 67.5,142.5 Z"/></g>
<g><path style="opacity:1" fill="#aba393" d="M 161.5,158.5 C 157.946,156.018 157.78,153.351 161,150.5C 166.123,155.765 166.623,155.265 162.5,149C 163.428,148.612 164.095,147.945 164.5,147C 162.854,144.405 162.187,141.572 162.5,138.5C 162.192,136.076 162.526,133.743 163.5,131.5C 169.986,135.771 172.486,141.438 171,148.5C 170,147.5 169,146.5 168,145.5C 167.833,145.833 167.667,146.167 167.5,146.5C 171.142,153.893 169.142,157.893 161.5,158.5 Z"/></g>
<g><path style="opacity:1" fill="#a8a191" d="M 75.5,155.5 C 74.5,156.167 73.5,156.833 72.5,157.5C 71.0905,154.822 71.2572,152.156 73,149.5C 75.3181,151.189 76.1514,153.189 75.5,155.5 Z"/></g>
<g><path style="opacity:1" fill="#a9a49a" d="M 46.5,159.5 C 44.5211,162.146 42.1878,164.479 39.5,166.5C 37.1633,168.666 34.6633,170.666 32,172.5C 31.5357,171.906 31.369,171.239 31.5,170.5C 34.8251,166.321 38.8251,162.821 43.5,160C 42.2068,159.51 40.8734,159.343 39.5,159.5C 39.1594,156.484 37.9927,153.818 36,151.5C 35.1841,150.177 34.0174,149.511 32.5,149.5C 32.8102,147.856 33.8102,146.856 35.5,146.5C 36.0621,150.028 37.7287,152.028 40.5,152.5C 37.6494,149.717 37.9828,147.384 41.5,145.5C 43.9305,146.806 43.5972,147.806 40.5,148.5C 41.6222,151.736 43.1222,152.069 45,149.5C 45.5288,151.585 45.0288,153.418 43.5,155C 44.3146,156.643 45.3146,158.143 46.5,159.5 Z"/></g>
<g><path style="opacity:1" fill="#999283" d="M 145.5,151.5 C 145.905,155.048 145.405,158.381 144,161.5C 143.767,159.22 142.934,157.22 141.5,155.5C 140.702,155.957 140.369,156.624 140.5,157.5C 138.38,156.15 138.547,154.483 141,152.5C 141.423,153.956 142.256,154.456 143.5,154C 142.253,152.506 142.253,151.006 143.5,149.5C 144.182,150.243 144.849,150.909 145.5,151.5 Z"/></g>
<g><path style="opacity:1" fill="#9c9c9c" d="M 32.5,152.5 C 39.3336,156.145 39.0002,158.812 31.5,160.5C 31.4013,157.763 31.7347,155.096 32.5,152.5 Z"/></g>
<g><path style="opacity:1" fill="#1f1d1b" d="M 41.5,138.5 C 41.7822,139.778 42.4489,140.778 43.5,141.5C 42.9569,141.56 42.6236,141.893 42.5,142.5C 44.8017,146.202 46.3017,150.202 47,154.5C 48.8962,156.53 51.0629,158.197 53.5,159.5C 54.5178,158.807 55.5178,158.141 56.5,157.5C 56.8333,157.5 57.1667,157.5 57.5,157.5C 54.8851,161.009 53.8851,165.009 54.5,169.5C 53.4739,170.853 52.1405,171.853 50.5,172.5C 50.665,169.15 50.4983,165.817 50,162.5C 48.9609,161.29 47.7942,160.29 46.5,159.5C 45.3146,158.143 44.3146,156.643 43.5,155C 45.0288,153.418 45.5288,151.585 45,149.5C 43.1222,152.069 41.6222,151.736 40.5,148.5C 43.5972,147.806 43.9305,146.806 41.5,145.5C 37.9828,147.384 37.6494,149.717 40.5,152.5C 37.7287,152.028 36.0621,150.028 35.5,146.5C 37.4763,143.911 39.4763,141.245 41.5,138.5 Z"/></g>
<g><path style="opacity:1" fill="#666156" d="M 148.5,142.5 C 146.73,143.856 145.397,145.689 144.5,148C 145.381,148.708 146.047,149.542 146.5,150.5C 145.833,150.5 145.5,150.833 145.5,151.5C 144.849,150.909 144.182,150.243 143.5,149.5C 142.253,151.006 142.253,152.506 143.5,154C 142.256,154.456 141.423,153.956 141,152.5C 138.547,154.483 138.38,156.15 140.5,157.5C 141.742,159.346 141.409,159.679 139.5,158.5C 136.054,157.366 133.054,158.2 130.5,161C 131.863,163.129 131.529,163.629 129.5,162.5C 127.829,164.51 127.162,166.843 127.5,169.5C 121.934,169.503 120.767,171.503 124,175.5C 123.266,172.041 124.266,171.707 127,174.5C 127.667,175.5 127.667,176.5 127,177.5C 126.282,176.549 125.449,176.383 124.5,177C 125.823,177.816 126.489,178.983 126.5,180.5C 122.584,177.783 120.751,174.116 121,169.5C 123.955,165.756 126.789,161.922 129.5,158C 136.805,154.695 142.139,149.361 145.5,142C 146.749,141.26 147.749,141.427 148.5,142.5 Z"/></g>
<g><path style="opacity:1" fill="#1f1d1a" d="M 146.5,150.5 C 146.973,151.906 147.973,152.573 149.5,152.5C 146.995,154.186 146.162,156.519 147,159.5C 147.383,158.944 147.883,158.611 148.5,158.5C 145.666,162.176 142.999,166.009 140.5,170C 141.385,172.157 143.052,172.99 145.5,172.5C 145.833,172.5 146.167,172.5 146.5,172.5C 145.449,173.222 144.782,174.222 144.5,175.5C 143.275,176.152 142.608,177.319 142.5,179C 142.439,181.279 143.105,183.279 144.5,185C 143.898,186.563 143.065,186.396 142,184.5C 141.503,186.81 141.337,189.143 141.5,191.5C 140.833,191.5 140.5,191.833 140.5,192.5C 139.163,190.651 138.497,188.484 138.5,186C 139.203,183.171 139.37,180.338 139,177.5C 137.738,181.313 137.071,185.313 137,189.5C 133.686,192.217 133.686,194.884 137,197.5C 138.596,198.048 139.763,197.382 140.5,195.5C 141.289,195.783 141.956,196.283 142.5,197C 140.264,197.734 138.931,199.234 138.5,201.5C 139.831,204.896 141.165,208.229 142.5,211.5C 141.757,212.182 141.091,212.849 140.5,213.5C 139.407,211.651 138.074,209.984 136.5,208.5C 135.163,204.155 133.829,199.822 132.5,195.5C 132.5,195.167 132.5,194.833 132.5,194.5C 133.785,188.706 134.618,182.706 135,176.5C 137.168,175.178 137.001,174.511 134.5,174.5C 135.172,173.733 136.005,173.066 137,172.5C 137.422,169.764 137.422,167.098 137,164.5C 138.079,166.394 139.413,166.727 141,165.5C 141.6,162.905 141.1,160.571 139.5,158.5C 141.409,159.679 141.742,159.346 140.5,157.5C 140.369,156.624 140.702,155.957 141.5,155.5C 142.934,157.22 143.767,159.22 144,161.5C 145.405,158.381 145.905,155.048 145.5,151.5C 145.5,150.833 145.833,150.5 146.5,150.5 Z"/></g>
<g><path style="opacity:1" fill="#90897b" d="M 172.5,151.5 C 174.017,151.511 175.184,152.177 176,153.5C 176.495,155.473 176.662,157.473 176.5,159.5C 175.127,159.343 173.793,159.51 172.5,160C 177.823,163.855 182.823,168.022 187.5,172.5C 186.719,174.322 185.552,174.989 184,174.5C 183.303,172.416 182.136,170.749 180.5,169.5C 176.787,166.116 173.121,162.783 169.5,159.5C 172.172,157.609 173.172,154.942 172.5,151.5 Z"/></g>
<g><path style="opacity:1" fill="#3b352d" d="M 172.5,151.5 C 173.172,154.942 172.172,157.609 169.5,159.5C 168.685,160.429 167.852,161.429 167,162.5C 166.502,165.817 166.335,169.15 166.5,172.5C 165.883,172.389 165.383,172.056 165,171.5C 162.821,164.687 164.821,159.687 171,156.5C 171.198,154.618 171.698,152.952 172.5,151.5 Z"/></g>
<g><path style="opacity:1" fill="#ada595" d="M 88.5,164.5 C 87.307,166.054 86.1404,167.721 85,169.5C 84.4209,170.928 84.5876,172.262 85.5,173.5C 85.5,173.833 85.5,174.167 85.5,174.5C 82.1698,172.579 80.5032,169.579 80.5,165.5C 80.631,164.761 80.4643,164.094 80,163.5C 76.2448,167.788 74.5781,167.121 75,161.5C 76.8847,160.687 77.5513,159.353 77,157.5C 74.6453,160.13 74.1453,159.797 75.5,156.5C 76.1499,156.196 76.8165,155.863 77.5,155.5C 79.3904,157.578 81.7238,158.911 84.5,159.5C 85.731,160.651 85.731,161.817 84.5,163C 85.549,163.492 86.549,163.326 87.5,162.5C 88.2975,162.957 88.6309,163.624 88.5,164.5 Z"/></g>
<g><path style="opacity:1" fill="#6b6559" d="M 46.5,159.5 C 47.7942,160.29 48.9609,161.29 50,162.5C 50.4983,165.817 50.665,169.15 50.5,172.5C 49.8333,172.5 49.5,172.833 49.5,173.5C 46.9222,174.775 45.0888,176.775 44,179.5C 42.103,177.984 39.9363,177.317 37.5,177.5C 36.7611,177.631 36.0944,177.464 35.5,177C 38.3807,175.749 40.214,173.583 41,170.5C 42.3639,171.258 43.5305,170.758 44.5,169C 44.6192,167.719 44.1192,166.552 43,165.5C 41.9887,166.337 40.8221,166.67 39.5,166.5C 42.1878,164.479 44.5211,162.146 46.5,159.5 Z"/></g>
<g><path style="opacity:1" fill="#6d675c" d="M 169.5,159.5 C 173.121,162.783 176.787,166.116 180.5,169.5C 179.448,169.649 178.448,169.483 177.5,169C 175.983,167.315 174.316,165.815 172.5,164.5C 172.167,165 171.833,165.5 171.5,166C 172.424,167.15 172.424,168.15 171.5,169C 174.514,171.019 177.18,173.352 179.5,176C 177.942,176.21 176.609,176.71 175.5,177.5C 174.518,178.141 173.518,178.807 172.5,179.5C 171.866,177.228 170.532,175.561 168.5,174.5C 167.5,174.167 166.833,173.5 166.5,172.5C 166.335,169.15 166.502,165.817 167,162.5C 167.852,161.429 168.685,160.429 169.5,159.5 Z"/></g>
<g><path style="opacity:1" fill="#6d675c" d="M 162.5,138.5 C 162.187,141.572 162.854,144.405 164.5,147C 164.095,147.945 163.428,148.612 162.5,149C 166.623,155.265 166.123,155.765 161,150.5C 157.78,153.351 157.946,156.018 161.5,158.5C 160.833,158.5 160.5,158.833 160.5,159.5C 159.163,158.685 158.163,157.518 157.5,156C 154.741,155.023 152.741,155.856 151.5,158.5C 152.347,159.845 153.513,160.845 155,161.5C 155.667,162.833 155.667,164.167 155,165.5C 154.101,163.484 152.767,161.817 151,160.5C 148.446,162.603 147.946,165.103 149.5,168C 147.167,169 144.833,170 142.5,171C 143.737,171.232 144.737,171.732 145.5,172.5C 143.052,172.99 141.385,172.157 140.5,170C 142.999,166.009 145.666,162.176 148.5,158.5C 148.433,155.234 150.099,153.734 153.5,154C 154.667,152.833 155.833,151.667 157,150.5C 158.257,146.125 160.091,142.125 162.5,138.5 Z"/></g>
<g><path style="opacity:1" fill="#676257" d="M 80.5,165.5 C 80.5032,169.579 82.1698,172.579 85.5,174.5C 84.7494,175.573 83.7494,175.74 82.5,175C 81.3333,173.833 80.1667,172.667 79,171.5C 78.0589,169.011 78.5589,167.011 80.5,165.5 Z"/></g>
<g><path style="opacity:1" fill="#514c44" d="M 37.5,177.5 C 39.9795,179.103 42.6462,180.603 45.5,182C 40.7073,182.651 36.0406,182.151 31.5,180.5C 30.791,179.596 29.791,179.263 28.5,179.5C 29.9516,178.698 31.6183,178.198 33.5,178C 32.0467,175.886 30.0467,174.552 27.5,174C 28.7051,172.624 30.0384,171.458 31.5,170.5C 31.369,171.239 31.5357,171.906 32,172.5C 34.6633,170.666 37.1633,168.666 39.5,166.5C 40.8221,166.67 41.9887,166.337 43,165.5C 44.1192,166.552 44.6192,167.719 44.5,169C 43.5305,170.758 42.3639,171.258 41,170.5C 40.214,173.583 38.3807,175.749 35.5,177C 36.0944,177.464 36.7611,177.631 37.5,177.5 Z"/></g>
<g><path style="opacity:1" fill="#3b342c" d="M 81.5,194.5 C 80.1424,189.277 79.1424,183.944 78.5,178.5C 77.6143,179.325 77.281,180.325 77.5,181.5C 76.2355,179.228 76.4022,176.895 78,174.5C 79,175.167 80,175.833 81,176.5C 81.5822,180.824 82.0822,185.157 82.5,189.5C 82.4932,191.369 82.1599,193.036 81.5,194.5 Z"/></g>
<g><path style="opacity:1" fill="#514d46" d="M 146.5,172.5 C 147.962,173.458 149.295,174.624 150.5,176C 148.953,176.333 147.62,175.833 146.5,174.5C 146.167,174.833 145.833,175.167 145.5,175.5C 147.139,176.916 147.973,178.583 148,180.5C 146.198,179.211 145.031,177.544 144.5,175.5C 144.782,174.222 145.449,173.222 146.5,172.5 Z"/></g>
<g><path style="opacity:1" fill="#635d53" d="M 101.5,175.5 C 101.56,174.957 101.893,174.624 102.5,174.5C 104.311,175.739 106.311,176.406 108.5,176.5C 110.921,175.928 113.254,175.428 115.5,175C 113.317,177.35 110.984,179.517 108.5,181.5C 106.147,179.477 103.814,177.477 101.5,175.5 Z"/></g>
<g><path style="opacity:1" fill="#aaa292" d="M 160.5,159.5 C 162.432,162.177 162.932,165.177 162,168.5C 159.932,172.311 157.599,172.311 155,168.5C 155.691,170.593 156.524,172.76 157.5,175C 155.575,177.763 154.408,180.93 154,184.5C 150.554,188.105 147.721,192.105 145.5,196.5C 143.448,195.389 142.114,193.723 141.5,191.5C 141.337,189.143 141.503,186.81 142,184.5C 143.065,186.396 143.898,186.563 144.5,185C 143.105,183.279 142.439,181.279 142.5,179C 142.608,177.319 143.275,176.152 144.5,175.5C 145.031,177.544 146.198,179.211 148,180.5C 147.973,178.583 147.139,176.916 145.5,175.5C 145.833,175.167 146.167,174.833 146.5,174.5C 147.62,175.833 148.953,176.333 150.5,176C 149.295,174.624 147.962,173.458 146.5,172.5C 146.167,172.5 145.833,172.5 145.5,172.5C 144.737,171.732 143.737,171.232 142.5,171C 144.833,170 147.167,169 149.5,168C 147.946,165.103 148.446,162.603 151,160.5C 152.767,161.817 154.101,163.484 155,165.5C 155.667,164.167 155.667,162.833 155,161.5C 153.513,160.845 152.347,159.845 151.5,158.5C 152.741,155.856 154.741,155.023 157.5,156C 158.163,157.518 159.163,158.685 160.5,159.5 Z"/></g>
<g><path style="opacity:1" fill="#a1998a" d="M 88.5,164.5 C 89.4511,165.919 89.7845,167.585 89.5,169.5C 91.1033,169.312 92.4366,169.812 93.5,171C 93.1667,171.333 92.8333,171.667 92.5,172C 93.756,172.417 94.4226,173.25 94.5,174.5C 92.9295,177.002 91.2628,179.502 89.5,182C 89.6667,182.5 89.8333,183 90,183.5C 92.3745,181.461 94.3745,179.128 96,176.5C 96.4614,181.184 96.2947,185.851 95.5,190.5C 94.325,190.719 93.325,190.386 92.5,189.5C 93.4279,188.232 93.5946,186.899 93,185.5C 91,188.167 89,188.167 87,185.5C 86.1785,182.883 85.6785,180.216 85.5,177.5C 86.355,176.469 87.0217,175.303 87.5,174C 87.3166,172.316 86.6499,172.15 85.5,173.5C 84.5876,172.262 84.4209,170.928 85,169.5C 86.1404,167.721 87.307,166.054 88.5,164.5 Z"/></g>
<g><path style="opacity:1" fill="#a49c8d" d="M 139.5,158.5 C 141.1,160.571 141.6,162.905 141,165.5C 139.413,166.727 138.079,166.394 137,164.5C 137.422,167.098 137.422,169.764 137,172.5C 136.005,173.066 135.172,173.733 134.5,174.5C 134.167,174.5 133.833,174.5 133.5,174.5C 131.857,174.52 130.524,173.853 129.5,172.5C 128.592,173.79 128.759,175.123 130,176.5C 130.667,179.5 130.667,182.5 130,185.5C 127.778,188.044 125.611,188.044 123.5,185.5C 122.269,186.651 122.269,187.817 123.5,189C 122.552,189.483 121.552,189.649 120.5,189.5C 119.726,185.125 119.726,180.792 120.5,176.5C 122.121,178.624 123.954,180.624 126,182.5C 126.464,181.906 126.631,181.239 126.5,180.5C 126.489,178.983 125.823,177.816 124.5,177C 125.449,176.383 126.282,176.549 127,177.5C 127.667,176.5 127.667,175.5 127,174.5C 124.266,171.707 123.266,172.041 124,175.5C 120.767,171.503 121.934,169.503 127.5,169.5C 127.162,166.843 127.829,164.51 129.5,162.5C 131.529,163.629 131.863,163.129 130.5,161C 133.054,158.2 136.054,157.366 139.5,158.5 Z"/></g>
<g><path style="opacity:1" fill="#504b43" d="M 180.5,169.5 C 182.136,170.749 183.303,172.416 184,174.5C 185.552,174.989 186.719,174.322 187.5,172.5C 188.627,173.122 189.627,173.955 190.5,175C 184.339,176.134 183.673,177.634 188.5,179.5C 187.209,179.263 186.209,179.596 185.5,180.5C 182.135,181.04 178.802,181.706 175.5,182.5C 174.127,182.657 172.793,182.49 171.5,182C 173.67,180.414 176.004,179.08 178.5,178C 177.552,177.517 176.552,177.351 175.5,177.5C 176.609,176.71 177.942,176.21 179.5,176C 177.18,173.352 174.514,171.019 171.5,169C 172.424,168.15 172.424,167.15 171.5,166C 171.833,165.5 172.167,165 172.5,164.5C 174.316,165.815 175.983,167.315 177.5,169C 178.448,169.483 179.448,169.649 180.5,169.5 Z"/></g>
<g><path style="opacity:1" fill="#767064" d="M 28.5,179.5 C 29.791,179.263 30.791,179.596 31.5,180.5C 30.7611,180.369 30.0944,180.536 29.5,181C 32.5117,181.78 35.3451,182.947 38,184.5C 38.5281,185.816 38.0281,186.483 36.5,186.5C 36.0831,185.876 35.4164,185.543 34.5,185.5C 31.8546,186.108 29.1879,186.608 26.5,187C 24.6763,187.66 23.343,188.827 22.5,190.5C 21.0351,191.737 19.3684,192.737 17.5,193.5C 20.1994,187.636 24.8661,184.469 31.5,184C 27.4761,183.503 23.4761,183.669 19.5,184.5C 16.6047,184.483 14.438,186.15 13,189.5C 12.3333,188.167 12.3333,186.833 13,185.5C 17.4645,181.684 22.6311,179.684 28.5,179.5 Z"/></g>
<g><path style="opacity:1" fill="#7a7468" d="M 185.5,180.5 C 186.209,179.596 187.209,179.263 188.5,179.5C 194.566,179.966 199.733,182.299 204,186.5C 204.454,191.522 203.62,191.522 201.5,186.5C 199.775,184.908 198.775,185.242 198.5,187.5C 195.386,183.915 191.386,182.748 186.5,184C 189.583,185.139 192.583,186.472 195.5,188C 197.464,189.451 198.797,191.284 199.5,193.5C 197.085,192.695 194.751,191.695 192.5,190.5C 192.489,188.983 191.823,187.816 190.5,187C 185.98,185.92 181.647,185.42 177.5,185.5C 180.753,183.771 183.419,182.104 185.5,180.5 Z"/></g>
<g><path style="opacity:1" fill="#27231d" d="M 168.5,174.5 C 170.532,175.561 171.866,177.228 172.5,179.5C 173.518,178.807 174.518,178.141 175.5,177.5C 176.552,177.351 177.552,177.517 178.5,178C 176.004,179.08 173.67,180.414 171.5,182C 172.793,182.49 174.127,182.657 175.5,182.5C 173.18,183.418 171.013,184.752 169,186.5C 168.194,189.446 166.861,192.112 165,194.5C 161.584,192.208 158.084,190.041 154.5,188C 156.898,187.626 159.231,187.626 161.5,188C 162.174,186.249 162.507,184.583 162.5,183C 160.5,183 158.5,183 156.5,183C 159.569,181.09 162.569,181.09 165.5,183C 164.833,183.333 164.167,183.667 163.5,184C 165.5,187.333 167.5,187.333 169.5,184C 169.848,181.275 169.182,178.608 167.5,176C 168.056,175.617 168.389,175.117 168.5,174.5 Z"/></g>
<g><path style="opacity:1" fill="#28231e" d="M 49.5,173.5 C 47.9558,177.066 46.9558,180.566 46.5,184C 48.0503,186.459 50.0503,187.126 52.5,186C 53.8333,186.667 53.8333,187.333 52.5,188C 54.1012,188.273 55.6012,188.773 57,189.5C 58.5994,187.964 60.4328,187.464 62.5,188C 58.8333,190.167 55.1667,192.333 51.5,194.5C 50.0521,192.333 48.8854,190 48,187.5C 45.8586,184.509 43.0252,183.342 39.5,184C 41.684,186.016 43.684,188.183 45.5,190.5C 43.6683,189.349 42.0016,189.349 40.5,190.5C 39.2511,188.864 37.5844,187.697 35.5,187C 35.7284,186.601 36.0618,186.435 36.5,186.5C 38.0281,186.483 38.5281,185.816 38,184.5C 35.3451,182.947 32.5117,181.78 29.5,181C 30.0944,180.536 30.7611,180.369 31.5,180.5C 36.0406,182.151 40.7073,182.651 45.5,182C 42.6462,180.603 39.9795,179.103 37.5,177.5C 39.9363,177.317 42.103,177.984 44,179.5C 45.0888,176.775 46.9222,174.775 49.5,173.5 Z"/></g>
<g><path style="opacity:1" fill="#a79f8f" d="M 198.5,187.5 C 201.449,190.558 203.783,194.058 205.5,198C 205.333,198.5 205.167,199 205,199.5C 202.96,197.63 201.127,195.63 199.5,193.5C 198.797,191.284 197.464,189.451 195.5,188C 192.583,186.472 189.583,185.139 186.5,184C 191.386,182.748 195.386,183.915 198.5,187.5 Z"/></g>
<g><path style="opacity:1" fill="#a79f8f" d="M 17.5,193.5 C 15.1644,195.004 13.331,197.004 12,199.5C 12.3232,194.146 14.8232,189.979 19.5,187C 18.4019,186.23 18.4019,185.397 19.5,184.5C 23.4761,183.669 27.4761,183.503 31.5,184C 24.8661,184.469 20.1994,187.636 17.5,193.5 Z"/></g>
<g><path style="opacity:1" fill="#a9a191" d="M 74.5,171.5 C 72.5018,172.148 70.5018,172.981 68.5,174C 72.0953,173.387 72.4287,174.554 69.5,177.5C 69.8333,177.833 70.1667,178.167 70.5,178.5C 71.5,177.167 72.5,175.833 73.5,174.5C 73.8333,175.833 74.1667,177.167 74.5,178.5C 74.1784,181.302 73.1784,183.802 71.5,186C 71.6667,186.5 71.8333,187 72,187.5C 72.9147,186.672 73.5814,185.672 74,184.5C 75.2274,189.03 74.3941,193.03 71.5,196.5C 68.4333,192.713 65.6,188.713 63,184.5C 62.5783,181.764 62.5783,179.098 63,176.5C 60.7042,179.388 59.5376,178.888 59.5,175C 59.6852,172.598 60.1852,170.431 61,168.5C 59.0354,171.792 56.8688,172.125 54.5,169.5C 53.8851,165.009 54.8851,161.009 57.5,157.5C 58.4733,156.016 59.8067,155.516 61.5,156C 60.2346,160.474 60.9013,160.641 63.5,156.5C 64.794,158.962 66.294,161.295 68,163.5C 68.5946,164.899 68.4279,166.232 67.5,167.5C 69.8868,168.92 72.2202,170.253 74.5,171.5 Z"/></g>
<g><path style="opacity:1" fill="#645f54" d="M 85.5,177.5 C 85.6785,180.216 86.1785,182.883 87,185.5C 89,188.167 91,188.167 93,185.5C 93.5946,186.899 93.4279,188.232 92.5,189.5C 93.325,190.386 94.325,190.719 95.5,190.5C 95.0046,192.482 94.5046,194.482 94,196.5C 93,194.5 92,192.5 91,190.5C 84.8152,187.967 82.9818,183.634 85.5,177.5 Z"/></g>
<g><path style="opacity:1" fill="#423c34" d="M 177.5,185.5 C 181.647,185.42 185.98,185.92 190.5,187C 191.823,187.816 192.489,188.983 192.5,190.5C 187.331,189.257 182.165,189.257 177,190.5C 175.989,190.108 175.489,189.441 175.5,188.5C 174.252,189.04 173.085,189.707 172,190.5C 172.906,188.103 174.74,186.437 177.5,185.5 Z"/></g>
<g><path style="opacity:1" fill="#4c473e" d="M 36.5,186.5 C 36.0618,186.435 35.7284,186.601 35.5,187C 37.5844,187.697 39.2511,188.864 40.5,190.5C 34.492,189.226 28.492,189.226 22.5,190.5C 23.343,188.827 24.6763,187.66 26.5,187C 29.1879,186.608 31.8546,186.108 34.5,185.5C 35.4164,185.543 36.0831,185.876 36.5,186.5 Z"/></g>
<g><path style="opacity:1" fill="#655f54" d="M 81.5,194.5 C 79.7,193.395 78.5334,194.061 78,196.5C 77.3623,195.391 76.8623,194.225 76.5,193C 77.3942,189.224 77.7275,185.39 77.5,181.5C 77.281,180.325 77.6143,179.325 78.5,178.5C 79.1424,183.944 80.1424,189.277 81.5,194.5 Z"/></g>
<g><path style="opacity:1" fill="#656055" d="M 133.5,174.5 C 131.817,178.205 130.984,182.205 131,186.5C 126.35,188.804 123.683,192.471 123,197.5C 121.731,195.007 120.898,192.34 120.5,189.5C 121.552,189.649 122.552,189.483 123.5,189C 122.269,187.817 122.269,186.651 123.5,185.5C 125.611,188.044 127.778,188.044 130,185.5C 130.667,182.5 130.667,179.5 130,176.5C 128.759,175.123 128.592,173.79 129.5,172.5C 130.524,173.853 131.857,174.52 133.5,174.5 Z"/></g>
<g><path style="opacity:1" fill="#f3f3f3" d="M 61.5,194.5 C 66.5948,197.859 68.9282,202.692 68.5,209C 69.212,215.076 66.8786,219.576 61.5,222.5C 61.1667,221.5 60.8333,220.5 60.5,219.5C 61.6488,216.564 62.1488,213.564 62,210.5C 59.4861,207.322 56.9861,204.156 54.5,201C 56.6652,198.669 58.9985,196.502 61.5,194.5 Z"/></g>
<g><path style="opacity:1" fill="#59544a" d="M 140.5,192.5 C 140.5,193.5 140.5,194.5 140.5,195.5C 139.763,197.382 138.596,198.048 137,197.5C 133.686,194.884 133.686,192.217 137,189.5C 137.071,185.313 137.738,181.313 139,177.5C 139.37,180.338 139.203,183.171 138.5,186C 138.497,188.484 139.163,190.651 140.5,192.5 Z"/></g>
<g><path style="opacity:1" fill="#938d7f" d="M 196.5,196.5 C 195.761,196.369 195.094,196.536 194.5,197C 195.451,197.718 195.617,198.551 195,199.5C 194.005,198.934 193.172,198.267 192.5,197.5C 193.738,197.19 193.738,196.69 192.5,196C 180.572,191.54 172.238,195.04 167.5,206.5C 171.87,207.409 176.203,208.409 180.5,209.5C 182.912,209.694 183.912,211.027 183.5,213.5C 177.514,210.561 171.181,208.728 164.5,208C 166.761,205.228 168.261,202.062 169,198.5C 175.101,192.934 182.268,191.101 190.5,193C 192.727,193.941 194.727,195.108 196.5,196.5 Z"/></g>
<g><path style="opacity:1" fill="#b7ae9d" d="M 19.5,196.5 C 20.7348,196.721 21.7348,197.388 22.5,198.5C 23.1067,198.376 23.44,198.043 23.5,197.5C 29.2037,196.058 34.8703,196.225 40.5,198C 42.5402,200.185 43.8736,202.685 44.5,205.5C 40.3159,205.592 36.9826,207.259 34.5,210.5C 32.9519,210.821 32.2852,211.821 32.5,213.5C 31.7095,214.401 30.7095,215.068 29.5,215.5C 24.4419,210.382 20.1086,204.715 16.5,198.5C 17.5,197.833 18.5,197.167 19.5,196.5 Z"/></g>
<g><path style="opacity:1" fill="#1e1d1b" d="M 34.5,210.5 C 36.9826,207.259 40.3159,205.592 44.5,205.5C 43.8736,202.685 42.5402,200.185 40.5,198C 34.8703,196.225 29.2037,196.058 23.5,197.5C 23.9528,196.542 24.6195,195.708 25.5,195C 30.9042,194.228 36.2375,194.561 41.5,196C 42.9308,196.465 44.0975,197.299 45,198.5C 45.8854,201 47.0521,203.333 48.5,205.5C 43.8304,207.168 39.1637,208.834 34.5,210.5 Z"/></g>
<g><path style="opacity:1" fill="#918b7d" d="M 117.5,193.5 C 118.043,193.56 118.376,193.893 118.5,194.5C 117.474,196.831 116.14,198.831 114.5,200.5C 112.519,202.144 110.519,203.81 108.5,205.5C 105.814,203.144 103.147,200.811 100.5,198.5C 100.167,197.5 99.5,196.833 98.5,196.5C 97.5876,195.262 97.4209,193.928 98,192.5C 101.509,196.209 105.009,199.875 108.5,203.5C 111.522,200.147 114.522,196.813 117.5,193.5 Z"/></g>
<g><path style="opacity:1" fill="#37322a" d="M 117.5,193.5 C 118.472,192.249 119.139,192.582 119.5,194.5C 121.517,203.221 124.517,211.555 128.5,219.5C 126.983,219.489 125.816,218.823 125,217.5C 122.285,212.029 119.951,206.362 118,200.5C 116.855,199.316 115.688,199.316 114.5,200.5C 116.14,198.831 117.474,196.831 118.5,194.5C 118.376,193.893 118.043,193.56 117.5,193.5 Z"/></g>
<g><path style="opacity:1" fill="#1e1d1b" d="M 192.5,197.5 C 186.502,195.873 180.668,196.206 175,198.5C 173.882,200.765 173.049,203.099 172.5,205.5C 175.754,205.794 178.421,207.127 180.5,209.5C 176.203,208.409 171.87,207.409 167.5,206.5C 172.238,195.04 180.572,191.54 192.5,196C 193.738,196.69 193.738,197.19 192.5,197.5 Z"/></g>
<g><path style="opacity:1" fill="#b7ae9d" d="M 192.5,197.5 C 193.172,198.267 194.005,198.934 195,199.5C 195.617,198.551 195.451,197.718 194.5,197C 195.094,196.536 195.761,196.369 196.5,196.5C 197.71,196.932 198.71,197.599 199.5,198.5C 199.046,201.14 197.879,203.473 196,205.5C 193.032,209.174 189.866,212.507 186.5,215.5C 185.29,215.068 184.29,214.401 183.5,213.5C 183.912,211.027 182.912,209.694 180.5,209.5C 178.421,207.127 175.754,205.794 172.5,205.5C 173.049,203.099 173.882,200.765 175,198.5C 180.668,196.206 186.502,195.873 192.5,197.5 Z"/></g>
<g><path style="opacity:1" fill="#36342f" d="M 86.5,215.5 C 86.6068,213.621 86.1068,213.288 85,214.5C 84.3076,213.975 83.8076,213.308 83.5,212.5C 84.154,210.885 84.654,209.218 85,207.5C 85.6914,209.891 86.6914,209.891 88,207.5C 89.4356,204.857 89.6023,202.19 88.5,199.5C 87.5258,201.743 87.1924,204.076 87.5,206.5C 86.448,206.649 85.448,206.483 84.5,206C 86.6621,203.478 86.9955,200.645 85.5,197.5C 84.8165,197.137 84.1499,196.804 83.5,196.5C 83.8567,194.411 84.5233,192.411 85.5,190.5C 87.4812,191.105 87.8146,192.105 86.5,193.5C 87.0149,195.225 87.6816,196.892 88.5,198.5C 90.5354,196.088 91.5354,196.755 91.5,200.5C 90.9563,202.674 90.9563,204.674 91.5,206.5C 90.0449,209.755 88.3782,212.755 86.5,215.5 Z"/></g>
<g><path style="opacity:1" fill="#9a9385" d="M 132.5,195.5 C 133.829,199.822 135.163,204.155 136.5,208.5C 135.542,208.047 134.708,207.381 134,206.5C 133.784,204.616 133.117,202.949 132,201.5C 132.263,202.951 132.096,204.284 131.5,205.5C 130.041,201.86 130.374,198.527 132.5,195.5 Z"/></g>
<g><path style="opacity:1" fill="#eaeaea" d="M 152.5,195.5 C 156.44,195.803 159.44,197.636 161.5,201C 160.083,204.416 157.916,207.249 155,209.5C 155.27,213.869 155.104,218.202 154.5,222.5C 151.81,220.644 149.644,218.311 148,215.5C 147.333,210.833 147.333,206.167 148,201.5C 150.102,199.905 151.602,197.905 152.5,195.5 Z"/></g>
<g><path style="opacity:1" fill="#928b7e" d="M 32.5,213.5 C 32.2852,211.821 32.9519,210.821 34.5,210.5C 39.1637,208.834 43.8304,207.168 48.5,205.5C 47.0521,203.333 45.8854,201 45,198.5C 44.0975,197.299 42.9308,196.465 41.5,196C 36.2375,194.561 30.9042,194.228 25.5,195C 24.6195,195.708 23.9528,196.542 23.5,197.5C 23.44,198.043 23.1067,198.376 22.5,198.5C 21.7348,197.388 20.7348,196.721 19.5,196.5C 23.0634,193.702 27.2301,192.369 32,192.5C 42.393,192.389 48.893,197.389 51.5,207.5C 44.8831,208.644 38.5498,210.644 32.5,213.5 Z"/></g>
<g><path style="opacity:1" fill="#6c675c" d="M 100.5,198.5 C 103.147,200.811 105.814,203.144 108.5,205.5C 110.519,203.81 112.519,202.144 114.5,200.5C 115.688,199.316 116.855,199.316 118,200.5C 119.951,206.362 122.285,212.029 125,217.5C 125.816,218.823 126.983,219.489 128.5,219.5C 129.124,219.917 129.457,220.584 129.5,221.5C 128.612,223.155 128.112,224.822 128,226.5C 129.813,226.747 131.647,227.08 133.5,227.5C 133.114,231.85 130.781,233.517 126.5,232.5C 126.5,231.167 126.5,229.833 126.5,228.5C 115.512,229.416 104.512,229.583 93.5,229C 92.1667,228.667 90.8333,228.333 89.5,228C 91.6124,226.783 91.2791,225.617 88.5,224.5C 92.4659,216.889 95.6326,208.889 98,200.5C 98.4169,199.244 99.2502,198.577 100.5,198.5 Z"/></g>
<g><path style="opacity:1" fill="#6b665a" d="M 199.5,198.5 C 203.825,202.441 205.159,207.107 203.5,212.5C 202.024,210.231 200.524,207.898 199,205.5C 196.026,207.5 193.526,210 191.5,213C 192.477,214.682 193.144,216.516 193.5,218.5C 190.519,218.818 188.185,217.818 186.5,215.5C 189.866,212.507 193.032,209.174 196,205.5C 197.879,203.473 199.046,201.14 199.5,198.5 Z"/></g>
<g><path style="opacity:1" fill="#767165" d="M 83.5,196.5 C 84.1499,196.804 84.8165,197.137 85.5,197.5C 86.9955,200.645 86.6621,203.478 84.5,206C 85.448,206.483 86.448,206.649 87.5,206.5C 87.1924,204.076 87.5258,201.743 88.5,199.5C 89.6023,202.19 89.4356,204.857 88,207.5C 86.6914,209.891 85.6914,209.891 85,207.5C 84.654,209.218 84.154,210.885 83.5,212.5C 83.8076,213.308 84.3076,213.975 85,214.5C 86.1068,213.288 86.6068,213.621 86.5,215.5C 83.2196,220.781 79.5529,225.781 75.5,230.5C 74.3121,229.316 73.1455,229.316 72,230.5C 71.5357,229.906 71.369,229.239 71.5,228.5C 72.5852,224.246 75.2518,221.413 79.5,220C 80.1667,218.667 80.8333,217.333 81.5,216C 80.354,215.355 79.354,214.522 78.5,213.5C 75.3881,216.28 73.0548,219.614 71.5,223.5C 70.675,224.386 69.675,224.719 68.5,224.5C 71.7801,219.38 75.2801,214.38 79,209.5C 81.0792,205.347 82.5792,201.014 83.5,196.5 Z"/></g>
<g><path style="opacity:1" fill="#655f55" d="M 16.5,198.5 C 20.1086,204.715 24.4419,210.382 29.5,215.5C 29.5,216.167 29.1667,216.5 28.5,216.5C 27.1882,215.855 26.1882,214.855 25.5,213.5C 24.3112,212.571 22.9778,212.238 21.5,212.5C 21.7163,210.319 20.883,208.653 19,207.5C 16.5818,208.433 14.7485,210.433 13.5,213.5C 11.615,211.205 11.115,208.538 12,205.5C 13.0259,202.761 14.5259,200.428 16.5,198.5 Z"/></g>
<g><path style="opacity:1" fill="#47433c" d="M 203.5,212.5 C 201.163,215.681 198.996,219.014 197,222.5C 196.508,221.451 196.674,220.451 197.5,219.5C 196.311,218.571 194.978,218.238 193.5,218.5C 193.144,216.516 192.477,214.682 191.5,213C 193.526,210 196.026,207.5 199,205.5C 200.524,207.898 202.024,210.231 203.5,212.5 Z"/></g>
<g><path style="opacity:1" fill="#3a332b" d="M 98.5,196.5 C 99.5,196.833 100.167,197.5 100.5,198.5C 99.2502,198.577 98.4169,199.244 98,200.5C 95.6326,208.889 92.4659,216.889 88.5,224.5C 87.3734,223.878 86.3734,223.045 85.5,222C 90.6558,214.52 94.3225,206.354 96.5,197.5C 96.9569,196.702 97.6236,196.369 98.5,196.5 Z"/></g>
<g><path style="opacity:1" fill="#a9a191" d="M 36.5,215.5 C 36.5,214.833 36.5,214.167 36.5,213.5C 42.6902,210.376 49.0235,209.876 55.5,212C 48.9229,212.004 42.5896,213.171 36.5,215.5 Z"/></g>
<g><path style="opacity:1" fill="#a09889" d="M 179.5,213.5 C 179.672,214.492 179.338,215.158 178.5,215.5C 172.742,213.222 166.742,212.055 160.5,212C 166.961,209.978 173.294,210.478 179.5,213.5 Z"/></g>
<g><path style="opacity:1" fill="#0e0e0c" d="M 71.5,228.5 C 70.7321,229.263 70.2321,230.263 70,231.5C 69.338,229.187 68.838,226.854 68.5,224.5C 69.675,224.719 70.675,224.386 71.5,223.5C 73.0548,219.614 75.3881,216.28 78.5,213.5C 79.354,214.522 80.354,215.355 81.5,216C 80.8333,217.333 80.1667,218.667 79.5,220C 75.2518,221.413 72.5852,224.246 71.5,228.5 Z"/></g>
<g><path style="opacity:1" fill="#403d36" d="M 28.5,216.5 C 28.3893,217.117 28.056,217.617 27.5,218C 24.5,218.333 21.5,218.667 18.5,219C 20.8781,221.211 21.8781,223.711 21.5,226.5C 19.0731,221.971 16.4064,217.638 13.5,213.5C 14.7485,210.433 16.5818,208.433 19,207.5C 20.883,208.653 21.7163,210.319 21.5,212.5C 22.9778,212.238 24.3112,212.571 25.5,213.5C 26.1882,214.855 27.1882,215.855 28.5,216.5 Z"/></g>
<g><path style="opacity:1" fill="#a69e8f" d="M 173.5,216.5 C 170.359,217.321 167.025,217.821 163.5,218C 162.868,221.27 162.201,224.437 161.5,227.5C 160.833,227.167 160.167,226.833 159.5,226.5C 160.114,222.865 160.448,219.198 160.5,215.5C 164.931,215.231 169.265,215.564 173.5,216.5 Z"/></g>
<g><path style="opacity:1" fill="#625c52" d="M 36.5,213.5 C 36.5,214.167 36.5,214.833 36.5,215.5C 29.8842,218.793 25.8842,224.127 24.5,231.5C 22.9982,227.845 23.4982,224.511 26,221.5C 29.2603,218.46 32.7603,215.794 36.5,213.5 Z"/></g>
<g><path style="opacity:1" fill="#716b5f" d="M 42.5,216.5 C 45.9619,217.482 49.6286,217.815 53.5,217.5C 53.3359,220.187 53.5026,222.854 54,225.5C 54.2784,226.416 54.7784,227.082 55.5,227.5C 49.1153,231.045 43.782,235.879 39.5,242C 38.2068,242.49 36.8734,242.657 35.5,242.5C 33.9185,235.613 33.2518,228.613 33.5,221.5C 35.7158,218.556 38.7158,216.889 42.5,216.5 Z"/></g>
<g><path style="opacity:1" fill="#716b5f" d="M 173.5,216.5 C 176.682,217.594 179.682,218.928 182.5,220.5C 183.89,227.662 183.223,234.662 180.5,241.5C 179.833,241.833 179.167,242.167 178.5,242.5C 173.161,237.163 167.495,232.163 161.5,227.5C 162.201,224.437 162.868,221.27 163.5,218C 167.025,217.821 170.359,217.321 173.5,216.5 Z"/></g>
<g><path style="opacity:1" fill="#5d584e" d="M 179.5,213.5 C 184.369,215.859 188.535,219.193 192,223.5C 194.121,226.457 193.954,229.124 191.5,231.5C 190.371,223.387 186.038,218.054 178.5,215.5C 179.338,215.158 179.672,214.492 179.5,213.5 Z"/></g>
<g><path style="opacity:1" fill="#9e9788" d="M 56.5,224.5 C 56.7373,225.791 56.404,226.791 55.5,227.5C 54.7784,227.082 54.2784,226.416 54,225.5C 53.5026,222.854 53.3359,220.187 53.5,217.5C 49.6286,217.815 45.9619,217.482 42.5,216.5C 51.7559,211.683 56.4225,214.349 56.5,224.5 Z"/></g>
<g><path style="opacity:1" fill="#a7a6a3" d="M 124.5,220.5 C 128.701,220.442 129.201,221.442 126,223.5C 125.517,224.448 125.351,225.448 125.5,226.5C 124.5,226.5 123.5,226.5 122.5,226.5C 122.253,224.142 122.919,222.142 124.5,220.5 Z"/></g>
<g><path style="opacity:1" fill="#38312a" d="M 182.5,220.5 C 186.661,224.164 188.661,228.83 188.5,234.5C 188.434,239.2 187.434,243.7 185.5,248C 186.732,251.39 187.566,251.223 188,247.5C 189.072,250.553 188.072,252.553 185,253.5C 181.713,253.13 178.713,252.13 176,250.5C 174.006,241.664 168.839,235.331 160.5,231.5C 159.548,229.955 159.215,228.288 159.5,226.5C 160.167,226.833 160.833,227.167 161.5,227.5C 167.495,232.163 173.161,237.163 178.5,242.5C 179.167,242.167 179.833,241.833 180.5,241.5C 183.223,234.662 183.89,227.662 182.5,220.5 Z"/></g>
<g><path style="opacity:1" fill="#39332b" d="M 33.5,221.5 C 33.2518,228.613 33.9185,235.613 35.5,242.5C 36.8734,242.657 38.2068,242.49 39.5,242C 43.782,235.879 49.1153,231.045 55.5,227.5C 56.404,226.791 56.7373,225.791 56.5,224.5C 57.6225,226.288 57.7891,228.288 57,230.5C 47.7026,234.629 41.8692,241.629 39.5,251.5C 36.6875,252.219 33.8541,252.886 31,253.5C 27.7454,252.468 26.912,250.468 28.5,247.5C 29.1667,248.167 29.8333,248.833 30.5,249.5C 30.8333,249.167 31.1667,248.833 31.5,248.5C 28.7641,241.812 27.9308,234.812 29,227.5C 29.5661,224.771 31.0661,222.771 33.5,221.5 Z"/></g>
<g><path style="opacity:1" fill="#656055" d="M 132.5,194.5 C 132.5,194.833 132.5,195.167 132.5,195.5C 130.374,198.527 130.041,201.86 131.5,205.5C 132.096,204.284 132.263,202.951 132,201.5C 133.117,202.949 133.784,204.616 134,206.5C 134.708,207.381 135.542,208.047 136.5,208.5C 138.074,209.984 139.407,211.651 140.5,213.5C 144.541,220.05 149.541,225.883 155.5,231C 160.554,233.389 165.054,236.555 169,240.5C 170.289,242.055 170.956,243.721 171,245.5C 168.936,242.726 166.436,240.893 163.5,240C 167.175,242.828 169.842,246.328 171.5,250.5C 169.299,247.979 166.966,245.479 164.5,243C 163.833,242.333 163.167,242.333 162.5,243C 164.937,244.279 165.437,245.779 164,247.5C 162.378,245.094 160.211,243.261 157.5,242C 158.793,241.51 160.127,241.343 161.5,241.5C 161.046,238.86 159.879,236.527 158,234.5C 156.477,232.38 154.644,232.047 152.5,233.5C 151.858,230.203 150.691,229.869 149,232.5C 147.731,231.095 147.231,229.429 147.5,227.5C 145.312,222.983 142.145,218.316 138,213.5C 136.513,215.272 136.18,217.272 137,219.5C 139.333,221.5 141.667,223.5 144,225.5C 145.009,227.025 145.509,228.692 145.5,230.5C 145.389,231.117 145.056,231.617 144.5,232C 146.041,233.371 147.375,234.871 148.5,236.5C 144.598,234.107 141.098,231.107 138,227.5C 133.943,222.442 130.276,217.108 127,211.5C 125.494,206.254 125.161,200.921 126,195.5C 127.698,198.61 128.698,201.943 129,205.5C 129.27,201.627 129.77,197.794 130.5,194C 128.064,192.668 128.064,191.501 130.5,190.5C 131.172,191.949 131.839,193.282 132.5,194.5 Z"/></g>
<g><path style="opacity:1" fill="#0e0d0c" d="M 147.5,227.5 C 146.833,228.5 146.167,229.5 145.5,230.5C 145.509,228.692 145.009,227.025 144,225.5C 141.667,223.5 139.333,221.5 137,219.5C 136.18,217.272 136.513,215.272 138,213.5C 142.145,218.316 145.312,222.983 147.5,227.5 Z"/></g>
<g><path style="opacity:1" fill="#544f46" d="M 68.5,224.5 C 68.838,226.854 69.338,229.187 70,231.5C 70.2321,230.263 70.7321,229.263 71.5,228.5C 71.369,229.239 71.5357,229.906 72,230.5C 73.1455,229.316 74.3121,229.316 75.5,230.5C 67.3162,237.033 59.8162,244.366 53,252.5C 51.107,255.618 49.7736,258.951 49,262.5C 47.526,258.662 46.526,254.662 46,250.5C 45.3457,251.696 44.8457,251.696 44.5,250.5C 45.6405,248.922 46.1405,247.256 46,245.5C 45.0853,246.328 44.4186,247.328 44,248.5C 43.3333,247.5 43.3333,246.5 44,245.5C 45.9773,242.688 48.144,240.022 50.5,237.5C 56.8828,233.647 62.8828,229.314 68.5,224.5 Z"/></g>
<g><path style="opacity:1" fill="#161512" d="M 64.5,230.5 C 66.8324,231.162 67.4991,232.495 66.5,234.5C 63.4541,238.561 59.4541,240.895 54.5,241.5C 55.382,238.844 56.7153,236.344 58.5,234C 60.8953,231.855 63.062,232.022 65,234.5C 65.195,233.181 65.0283,231.847 64.5,230.5 Z"/></g>
<g><path style="opacity:1" fill="#575349" d="M 90.5,231.5 C 102.167,231.5 113.833,231.5 125.5,231.5C 126.824,237.777 127.824,244.11 128.5,250.5C 115.164,251.809 101.831,251.809 88.5,250.5C 89.1009,244.158 89.7676,237.824 90.5,231.5 Z"/></g>
<g><path style="opacity:1" fill="#030302" d="M 92.5,233.5 C 103.167,233.5 113.833,233.5 124.5,233.5C 125.441,238.733 125.441,243.9 124.5,249C 113.505,249.5 102.505,249.667 91.5,249.5C 91.3243,244.12 91.6576,238.787 92.5,233.5 Z"/></g>
<g><path style="opacity:1" fill="#a9a191" d="M 82.5,248.5 C 81.1565,255.389 79.4899,262.222 77.5,269C 79.7848,271.471 82.4515,273.304 85.5,274.5C 84.1667,274.5 82.8333,274.5 81.5,274.5C 80.791,273.596 79.791,273.263 78.5,273.5C 76.0339,273.101 74.0339,271.935 72.5,270C 75.219,263.013 77.219,255.846 78.5,248.5C 79.8333,248.5 81.1667,248.5 82.5,248.5 Z"/></g>
<g><path style="opacity:1" fill="#706a5f" d="M 82.5,248.5 C 85.1094,248.83 86.7761,250.33 87.5,253C 101.571,255.294 115.571,254.961 129.5,252C 130.337,250.989 130.67,249.822 130.5,248.5C 131.833,248.5 133.167,248.5 134.5,248.5C 135.747,254.993 137.08,261.493 138.5,268C 138.415,269.107 138.081,270.107 137.5,271C 134.931,271.898 132.598,273.065 130.5,274.5C 115.458,277.144 100.458,277.144 85.5,274.5C 82.4515,273.304 79.7848,271.471 77.5,269C 79.4899,262.222 81.1565,255.389 82.5,248.5 Z"/></g>
<g><path style="opacity:1" fill="#9e9788" d="M 66.5,245.5 C 67.4972,245.47 68.1639,245.97 68.5,247C 66.5636,253.032 64.2303,258.866 61.5,264.5C 60.3861,263.277 60.2195,261.944 61,260.5C 62.5468,255.356 64.3801,250.356 66.5,245.5 Z"/></g>
<g><path style="opacity:1" fill="#3d3a33" d="M 147.5,227.5 C 147.231,229.429 147.731,231.095 149,232.5C 150.691,229.869 151.858,230.203 152.5,233.5C 154.644,232.047 156.477,232.38 158,234.5C 159.879,236.527 161.046,238.86 161.5,241.5C 160.127,241.343 158.793,241.51 157.5,242C 160.211,243.261 162.378,245.094 164,247.5C 165.437,245.779 164.937,244.279 162.5,243C 163.167,242.333 163.833,242.333 164.5,243C 166.966,245.479 169.299,247.979 171.5,250.5C 170.916,253.245 169.582,255.578 167.5,257.5C 168.52,259.432 168.687,261.432 168,263.5C 166.81,258.787 164.81,254.453 162,250.5C 157.297,245.965 152.797,241.298 148.5,236.5C 147.375,234.871 146.041,233.371 144.5,232C 145.056,231.617 145.389,231.117 145.5,230.5C 146.167,229.5 146.833,228.5 147.5,227.5 Z"/></g>
<g><path style="opacity:1" fill="#9c9586" d="M 147.5,245.5 C 149.124,245.36 150.29,246.027 151,247.5C 152.049,251.265 153.382,254.932 155,258.5C 155.667,260.5 155.667,262.5 155,264.5C 152.347,258.211 149.847,251.878 147.5,245.5 Z"/></g>
<g><path style="opacity:1" fill="#767676" d="M 179.5,258.5 C 182.167,258.833 184.833,259.167 187.5,259.5C 184.707,260.746 182.04,260.413 179.5,258.5 Z"/></g>
<g><path style="opacity:1" fill="#aaa292" d="M 130.5,274.5 C 132.598,273.065 134.931,271.898 137.5,271C 138.081,270.107 138.415,269.107 138.5,268C 137.08,261.493 135.747,254.993 134.5,248.5C 135.91,247.172 137.076,247.505 138,249.5C 139.833,256.333 141.667,263.167 143.5,270C 142.556,271.477 141.223,272.477 139.5,273C 136.522,273.696 133.522,274.196 130.5,274.5 Z"/></g>
<g><path style="opacity:1" fill="#373028" d="M 78.5,273.5 C 79.791,273.263 80.791,273.596 81.5,274.5C 83.2438,276.163 86.5771,276.996 91.5,277C 113.629,279.515 135.129,277.015 156,269.5C 157.257,269.85 157.591,270.517 157,271.5C 154.689,276.478 151.189,279.978 146.5,282C 149.04,279.795 151.207,277.295 153,274.5C 153.688,273.668 153.521,273.002 152.5,272.5C 147.417,273.972 142.417,275.639 137.5,277.5C 134.641,282.526 130.641,286.359 125.5,289C 114.167,289.667 102.833,289.667 91.5,289C 85.585,286.753 81.2517,282.753 78.5,277C 73.7352,275.801 69.0686,274.301 64.5,272.5C 64.2218,275.795 65.5551,278.628 68.5,281C 65.1994,280.052 62.6994,277.885 61,274.5C 60.5983,273.128 60.0983,271.795 59.5,270.5C 59.8333,270.167 60.1667,269.833 60.5,269.5C 66.3815,272.477 72.3815,273.811 78.5,273.5 Z"/></g>
<g><path style="opacity:1" fill="#aba393" d="M 74.5,291.5 C 75.8734,291.343 77.2068,291.51 78.5,292C 74.7647,295.884 74.598,300.051 78,304.5C 81.3143,307.818 85.1476,310.318 89.5,312C 88.552,312.483 87.552,312.649 86.5,312.5C 82.4764,311.962 78.4764,311.295 74.5,310.5C 76.6715,309.755 79.0048,309.588 81.5,310C 79.5932,308.878 77.5932,308.045 75.5,307.5C 69.7032,304.207 68.2032,299.54 71,293.5C 71.8159,292.177 72.9826,291.511 74.5,291.5 Z"/></g>
<g><path style="opacity:1" fill="#716b5f" d="M 74.5,291.5 C 80.1614,290.131 85.8281,290.631 91.5,293C 106.287,294.034 120.954,293.201 135.5,290.5C 136.914,292.054 138.581,293.388 140.5,294.5C 141.52,296.432 141.687,298.432 141,300.5C 137.632,306.203 132.799,310.037 126.5,312C 127.094,312.464 127.761,312.631 128.5,312.5C 114.5,315.167 100.5,315.167 86.5,312.5C 87.552,312.649 88.552,312.483 89.5,312C 85.1476,310.318 81.3143,307.818 78,304.5C 74.598,300.051 74.7647,295.884 78.5,292C 77.2068,291.51 75.8734,291.343 74.5,291.5 Z"/></g>
<g><path style="opacity:1" fill="#a8a090" d="M 135.5,290.5 C 143.678,289.842 147.178,293.509 146,301.5C 144.093,305.039 141.26,307.539 137.5,309C 141.566,308.82 145.566,307.986 149.5,306.5C 150.167,306.667 150.833,306.833 151.5,307C 149.593,308.122 147.593,308.955 145.5,309.5C 139.94,311.038 134.274,312.038 128.5,312.5C 127.761,312.631 127.094,312.464 126.5,312C 132.799,310.037 137.632,306.203 141,300.5C 141.687,298.432 141.52,296.432 140.5,294.5C 138.581,293.388 136.914,292.054 135.5,290.5 Z"/></g>
<g><path style="opacity:1" fill="#888275" d="M 59.5,290.5 C 60.0936,292.091 60.0936,293.924 59.5,296C 59.6846,298.761 61.018,300.761 63.5,302C 55.7275,300.811 54.3942,296.978 59.5,290.5 Z"/></g>
<g><path style="opacity:1" fill="#847f72" d="M 156.5,290.5 C 158.666,292.452 159.999,294.952 160.5,298C 157.708,300.902 154.375,303.069 150.5,304.5C 149.304,304.154 149.304,303.654 150.5,303C 156.931,301.008 158.931,296.841 156.5,290.5 Z"/></g>
<g><path style="opacity:1" fill="#7b7569" d="M 75.5,307.5 C 77.5932,308.045 79.5932,308.878 81.5,310C 79.0048,309.588 76.6715,309.755 74.5,310.5C 69.0487,309.404 64.0487,307.237 59.5,304C 64.0149,305.559 68.6815,307.059 73.5,308.5C 74.4164,308.457 75.0831,308.124 75.5,307.5 Z"/></g>
<g><path style="opacity:1" fill="#373129" d="M 148.5,320.5 C 141.651,323.884 134.318,326.051 126.5,327C 106.627,330.106 87.294,328.272 68.5,321.5C 69.1494,320.394 69.4827,319.394 69.5,318.5C 70.7678,319.428 72.1011,319.595 73.5,319C 70.9365,318.237 70.9365,317.737 73.5,317.5C 79.7631,318.733 79.7631,317.899 73.5,315C 75.9528,314.262 78.4528,313.762 81,313.5C 99.331,316.148 117.664,316.148 136,313.5C 138.185,313.921 140.351,314.421 142.5,315C 141.692,315.308 141.025,315.808 140.5,316.5C 142.078,317.298 143.744,317.798 145.5,318C 142.456,318.359 142.122,319.026 144.5,320C 143.833,320.333 143.167,320.667 142.5,321C 144.488,321.18 146.488,321.014 148.5,320.5 Z"/></g>
<g><path style="opacity:1" fill="#231f1a" d="M 74.5,310.5 C 78.4764,311.295 82.4764,311.962 86.5,312.5C 100.5,315.167 114.5,315.167 128.5,312.5C 134.274,312.038 139.94,311.038 145.5,309.5C 145.917,310.124 146.584,310.457 147.5,310.5C 151.882,309.624 156.215,308.624 160.5,307.5C 160.22,310.287 158.887,312.453 156.5,314C 157.451,314.718 157.617,315.551 157,316.5C 154.603,318.782 151.769,320.116 148.5,320.5C 146.488,321.014 144.488,321.18 142.5,321C 143.167,320.667 143.833,320.333 144.5,320C 142.122,319.026 142.456,318.359 145.5,318C 143.744,317.798 142.078,317.298 140.5,316.5C 141.025,315.808 141.692,315.308 142.5,315C 140.351,314.421 138.185,313.921 136,313.5C 117.664,316.148 99.331,316.148 81,313.5C 78.4528,313.762 75.9528,314.262 73.5,315C 79.7631,317.899 79.7631,318.733 73.5,317.5C 70.9365,317.737 70.9365,318.237 73.5,319C 72.1011,319.595 70.7678,319.428 69.5,318.5C 69.4827,319.394 69.1494,320.394 68.5,321.5C 65.4965,320.582 62.6632,319.249 60,317.5C 59.3411,314.833 58.1744,312 56.5,309C 56.8333,308.5 57.1667,308 57.5,307.5C 63.2009,309.693 68.8676,310.693 74.5,310.5 Z"/></g>
<g><path style="opacity:1" fill="#706a5e" d="M 146.5,325.5 C 149.469,327.478 151.802,330.144 153.5,333.5C 151.334,337.831 148,340.998 143.5,343C 144.094,343.464 144.761,343.631 145.5,343.5C 136.356,344.882 127.023,345.882 117.5,346.5C 114.975,346.497 112.641,346.163 110.5,345.5C 117.291,340.548 123.958,335.382 130.5,330C 135.868,328.492 141.201,326.992 146.5,325.5 Z"/></g>
<g><path style="opacity:1" fill="#6f695d" d="M 69.5,325.5 C 79.3838,329.511 89.7172,331.678 100.5,332C 91.0642,336.718 81.3975,340.885 71.5,344.5C 71.5,344.167 71.5,343.833 71.5,343.5C 72.2389,343.631 72.9056,343.464 73.5,343C 68.8457,340.676 65.179,337.342 62.5,333C 64.8816,330.491 67.2149,327.991 69.5,325.5 Z"/></g>
<g><path style="opacity:1" fill="#827c70" d="M 168.5,335.5 C 169.303,334.577 169.47,333.577 169,332.5C 166.261,329.882 163.427,327.382 160.5,325C 164.977,326.916 169.311,329.416 173.5,332.5C 172.312,334.262 170.645,335.262 168.5,335.5 Z"/></g>
<g><path style="opacity:1" fill="#8b8477" d="M 54.5,324.5 C 56.8418,324.775 56.8418,325.608 54.5,327C 51.0634,330.035 47.3968,332.535 43.5,334.5C 43.281,333.325 43.6143,332.325 44.5,331.5C 47.8998,329.144 51.2331,326.811 54.5,324.5 Z"/></g>
<g><path style="opacity:1" fill="#a9a191" d="M 146.5,325.5 C 151.984,326.139 155.984,328.972 158.5,334C 156.502,337.513 153.502,339.846 149.5,341C 152.475,341.044 155.475,340.877 158.5,340.5C 159.167,340.5 159.5,340.833 159.5,341.5C 157.139,341.674 154.806,342.007 152.5,342.5C 150.194,342.993 147.861,343.326 145.5,343.5C 144.761,343.631 144.094,343.464 143.5,343C 148,340.998 151.334,337.831 153.5,333.5C 151.802,330.144 149.469,327.478 146.5,325.5 Z"/></g>
<g><path style="opacity:1" fill="#686357" d="M 106.5,331.5 C 108.199,331.34 109.866,331.506 111.5,332C 106.5,336.333 101.5,340.667 96.5,345C 91.1357,345.829 85.8023,345.663 80.5,344.5C 89.5286,340.652 98.1953,336.319 106.5,331.5 Z"/></g>
<g><path style="opacity:1" fill="#9a9384" d="M 69.5,325.5 C 67.2149,327.991 64.8816,330.491 62.5,333C 65.179,337.342 68.8457,340.676 73.5,343C 72.9056,343.464 72.2389,343.631 71.5,343.5C 65.8333,342.833 60.1667,342.167 54.5,341.5C 52.9812,340.59 51.3146,339.757 49.5,339C 50,338.833 50.5,338.667 51,338.5C 56.1288,339.938 61.2955,340.772 66.5,341C 62.8609,339.364 59.8609,337.03 57.5,334C 60.2833,329.442 64.2833,326.609 69.5,325.5 Z"/></g>
<g><path style="opacity:1" fill="#555148" d="M 168.5,335.5 C 168.082,336.222 167.416,336.722 166.5,337C 168.301,337.317 168.634,337.984 167.5,339C 164.92,340.144 162.253,340.978 159.5,341.5C 159.5,340.833 159.167,340.5 158.5,340.5C 162.875,339.653 166.208,337.986 168.5,335.5 Z"/></g>
<g><path style="opacity:1" fill="#25211c" d="M 162.5,355.5 C 157.332,354.812 151.998,354.646 146.5,355C 159.551,352.452 159.551,351.119 146.5,351C 147.634,349.984 147.301,349.317 145.5,349C 150.833,348.333 150.833,347.667 145.5,347C 148.529,346.461 151.529,345.794 154.5,345C 144.849,345.747 135.183,346.747 125.5,348C 113.326,348.826 101.326,348.66 89.5,347.5C 96.7808,348.071 103.781,347.405 110.5,345.5C 112.641,346.163 114.975,346.497 117.5,346.5C 127.023,345.882 136.356,344.882 145.5,343.5C 147.861,343.326 150.194,342.993 152.5,342.5C 153.274,343.147 154.274,343.48 155.5,343.5C 162.553,342.037 169.553,340.371 176.5,338.5C 179.193,340.073 180.026,342.407 179,345.5C 178.101,349.151 175.934,351.651 172.5,353C 169.111,353.776 165.778,354.609 162.5,355.5 Z"/></g>
<g><path style="opacity:1" fill="#231f1a" d="M 54.5,341.5 C 60.1667,342.167 65.8333,342.833 71.5,343.5C 71.5,343.833 71.5,344.167 71.5,344.5C 70.5084,344.328 69.8417,344.662 69.5,345.5C 66.9272,344.445 64.2605,344.278 61.5,345C 62.8333,346 64.1667,347 65.5,348C 62.1667,348 58.8333,348 55.5,348C 57.6079,348.36 59.6079,349.027 61.5,350C 60.1011,350.595 58.7678,350.428 57.5,349.5C 55.8333,350.333 54.1667,351.167 52.5,352C 53.8989,352.595 55.2322,352.428 56.5,351.5C 58.5563,353.019 60.8896,353.853 63.5,354C 59.0037,354.852 54.6704,354.352 50.5,352.5C 49.7025,352.957 49.3691,353.624 49.5,354.5C 46.6887,354.174 44.022,353.341 41.5,352C 42.3081,351.692 42.9747,351.192 43.5,350.5C 41.1921,349.359 39.3587,347.692 38,345.5C 37.8598,343.479 37.6932,341.645 37.5,340C 38.1079,339.13 38.9412,338.63 40,338.5C 44.6939,340.205 49.5272,341.205 54.5,341.5 Z"/></g>
<g><path style="opacity:1" fill="#373029" d="M 69.5,345.5 C 76.1153,346.635 82.7819,347.302 89.5,347.5C 101.326,348.66 113.326,348.826 125.5,348C 135.183,346.747 144.849,345.747 154.5,345C 151.529,345.794 148.529,346.461 145.5,347C 150.833,347.667 150.833,348.333 145.5,349C 147.301,349.317 147.634,349.984 146.5,351C 159.551,351.119 159.551,352.452 146.5,355C 151.998,354.646 157.332,354.812 162.5,355.5C 124.747,361.149 87.0808,360.816 49.5,354.5C 49.3691,353.624 49.7025,352.957 50.5,352.5C 54.6704,354.352 59.0037,354.852 63.5,354C 60.8896,353.853 58.5563,353.019 56.5,351.5C 55.2322,352.428 53.8989,352.595 52.5,352C 54.1667,351.167 55.8333,350.333 57.5,349.5C 58.7678,350.428 60.1011,350.595 61.5,350C 59.6079,349.027 57.6079,348.36 55.5,348C 58.8333,348 62.1667,348 65.5,348C 64.1667,347 62.8333,346 61.5,345C 64.2605,344.278 66.9272,344.445 69.5,345.5 Z"/></g>
<g><path style="opacity:1" fill="#b2b2b2" d="M 157.5,364.5 C 152.731,365.889 147.731,366.556 142.5,366.5C 147.269,365.111 152.269,364.444 157.5,364.5 Z"/></g>
</svg>
