<?xml version="1.0" encoding="UTF-8"?>
<!DOCTYPE svg PUBLIC "-//W3C//DTD SVG 1.1//EN" "http://www.w3.org/Graphics/SVG/1.1/DTD/svg11.dtd">
<svg xmlns="http://www.w3.org/2000/svg" version="1.1" width="316px" height="398px" style="shape-rendering:geometricPrecision; text-rendering:geometricPrecision; image-rendering:optimizeQuality; fill-rule:evenodd; clip-rule:evenodd" xmlns:xlink="http://www.w3.org/1999/xlink">
<g><path style="opacity:1" fill="#fefefe" d="M -0.5,-0.5 C 104.833,-0.5 210.167,-0.5 315.5,-0.5C 315.5,132.167 315.5,264.833 315.5,397.5C 210.167,397.5 104.833,397.5 -0.5,397.5C -0.5,264.833 -0.5,132.167 -0.5,-0.5 Z"/></g>
<g><path style="opacity:1" fill="#0c0b0a" d="M 190.5,51.5 C 189.677,56.3394 191.677,58.6728 196.5,58.5C 197.167,59.1667 197.833,59.8333 198.5,60.5C 196.649,61.8664 196.316,63.533 197.5,65.5C 198.417,64.8728 199.417,64.5394 200.5,64.5C 197.422,69.6525 194.589,74.9859 192,80.5C 192.166,85.2631 190.999,89.5964 188.5,93.5C 192.935,100.279 192.268,106.445 186.5,112C 186.667,112.5 186.833,113 187,113.5C 190.516,115.926 193.849,118.593 197,121.5C 199.595,125.76 200.095,130.26 198.5,135C 200.345,137.528 201.512,140.361 202,143.5C 204.686,144.676 207.019,146.343 209,148.5C 212.072,153.395 214.905,158.395 217.5,163.5C 218.748,164.04 219.915,164.707 221,165.5C 222.092,170.14 223.092,174.807 224,179.5C 231.298,186.311 238.965,192.644 247,198.5C 249.515,202.086 250.015,205.919 248.5,210C 249.601,212.035 250.268,214.202 250.5,216.5C 249.122,221.399 248.288,226.399 248,231.5C 246.214,234.902 243.881,237.902 241,240.5C 238.814,244.714 236.814,249.047 235,253.5C 233.89,255.037 232.39,255.703 230.5,255.5C 232.126,260.643 232.626,265.976 232,271.5C 230.242,273.765 228.075,275.432 225.5,276.5C 222.833,276.167 220.167,275.833 217.5,275.5C 215.833,275.5 214.167,275.5 212.5,275.5C 212.253,283 208.753,288.333 202,291.5C 200.517,294.323 199.017,297.157 197.5,300C 200.466,304.767 203.3,309.601 206,314.5C 207.423,322.284 206.257,329.618 202.5,336.5C 206.83,340.651 211.83,343.818 217.5,346C 221.373,348.52 223.54,352.02 224,356.5C 224.667,357.167 225.333,357.833 226,358.5C 226.667,362.5 226.667,366.5 226,370.5C 223.417,372.698 220.584,374.531 217.5,376C 210.113,378.196 202.779,380.029 195.5,381.5C 190.269,381.444 185.269,382.111 180.5,383.5C 155.818,384.988 131.151,384.822 106.5,383C 96.2409,382.268 86.2409,380.268 76.5,377C 72.5808,375.46 69.0808,373.293 66,370.5C 65.3333,366.5 65.3333,362.5 66,358.5C 67.8126,355.612 69.4792,352.612 71,349.5C 76.1548,345.45 81.6548,341.95 87.5,339C 88.5742,338.261 89.2409,337.261 89.5,336C 86.4592,329.865 85.2926,323.365 86,316.5C 88.5811,311.003 91.4145,305.67 94.5,300.5C 92.3588,297.033 90.6921,293.366 89.5,289.5C 82.9867,287.472 79.6534,282.972 79.5,276C 75.7087,275.409 72.0421,275.909 68.5,277.5C 59.7737,273.827 57.4404,267.66 61.5,259C 57.022,252.546 53.1887,245.712 50,238.5C 47.6255,236.461 45.6255,234.128 44,231.5C 42.0824,221.171 42.0824,210.837 44,200.5C 46.884,197.315 50.0507,194.482 53.5,192C 57.123,190.895 60.7897,189.895 64.5,189C 66.1553,186.493 66.9886,183.659 67,180.5C 68.417,179.922 69.2504,178.922 69.5,177.5C 77.0002,175.812 77.3336,173.145 70.5,169.5C 70.5,168.5 70.5,167.5 70.5,166.5C 72.0174,166.511 73.1841,167.177 74,168.5C 75.9927,170.818 77.1594,173.484 77.5,176.5C 78.8734,176.343 80.2068,176.51 81.5,177C 76.8251,179.821 72.8251,183.321 69.5,187.5C 68.0384,188.458 66.7051,189.624 65.5,191C 68.0467,191.552 70.0467,192.886 71.5,195C 63.9026,195.531 57.0693,198.031 51,202.5C 50.3333,203.833 50.3333,205.167 51,206.5C 51.9906,205.061 53.324,204.061 55,203.5C 55.4643,204.094 55.631,204.761 55.5,205.5C 51.6369,208.185 49.8035,211.852 50,216.5C 51.331,214.004 53.1644,212.004 55.5,210.5C 62.7117,206.448 70.3783,205.448 78.5,207.5C 80.0016,206.349 81.6683,206.349 83.5,207.5C 81.684,205.183 79.684,203.016 77.5,201C 81.0252,200.342 83.8586,201.509 86,204.5C 86.8854,207 88.0521,209.333 89.5,211.5C 93.1667,209.333 96.8333,207.167 100.5,205C 98.4328,204.464 96.5994,204.964 95,206.5C 93.6012,205.773 92.1012,205.273 90.5,205C 91.8333,204.333 91.8333,203.667 90.5,203C 88.0503,204.126 86.0503,203.459 84.5,201C 84.9558,197.566 85.9558,194.066 87.5,190.5C 87.5,189.833 87.8333,189.5 88.5,189.5C 90.1405,188.853 91.4739,187.853 92.5,186.5C 94.8688,189.125 97.0354,188.792 99,185.5C 98.1852,187.431 97.6852,189.598 97.5,192C 97.5376,195.888 98.7042,196.388 101,193.5C 100.578,196.098 100.578,198.764 101,201.5C 103.6,205.713 106.433,209.713 109.5,213.5C 112.394,210.03 113.227,206.03 112,201.5C 111.581,202.672 110.915,203.672 110,204.5C 109.833,204 109.667,203.5 109.5,203C 111.178,200.802 112.178,198.302 112.5,195.5C 112.167,194.167 111.833,192.833 111.5,191.5C 110.5,192.833 109.5,194.167 108.5,195.5C 108.167,195.167 107.833,194.833 107.5,194.5C 110.429,191.554 110.095,190.387 106.5,191C 108.502,189.981 110.502,189.148 112.5,188.5C 113.497,188.53 114.164,188.03 114.5,187C 110.15,182.976 106.984,178.142 105,172.5C 98.7577,171.046 95.5911,167.046 95.5,160.5C 94.3415,158.26 93.0082,156.094 91.5,154C 93.8605,154.798 96.1939,155.965 98.5,157.5C 97.8073,161.794 98.8073,165.461 101.5,168.5C 102.878,169.234 104.378,169.901 106,170.5C 106.333,170.167 106.667,169.833 107,169.5C 107.133,172.525 108.133,175.192 110,177.5C 110.483,176.552 110.649,175.552 110.5,174.5C 111.5,173.833 112.5,173.167 113.5,172.5C 113.5,172.833 113.5,173.167 113.5,173.5C 112.145,176.797 112.645,177.13 115,174.5C 115.484,176.193 114.984,177.527 113.5,178.5C 112.328,183.997 113.828,184.663 118,180.5C 118.563,181.725 118.23,182.725 117,183.5C 115.824,187.26 116.99,190.093 120.5,192C 121.749,192.74 122.749,192.573 123.5,191.5C 123.5,191.167 123.5,190.833 123.5,190.5C 125.203,189.34 125.869,190.007 125.5,192.5C 124.5,192.833 123.833,193.5 123.5,194.5C 120.982,200.634 122.815,204.967 129,207.5C 130,209.5 131,211.5 132,213.5C 132.505,211.482 133.005,209.482 133.5,207.5C 134.295,202.851 134.461,198.184 134,193.5C 132.374,196.128 130.374,198.461 128,200.5C 127.517,199.552 127.351,198.552 127.5,197.5C 129.819,194.693 132.153,191.86 134.5,189C 133.652,187.334 132.652,185.834 131.5,184.5C 129.758,181.357 127.758,178.357 125.5,175.5C 121.911,174.125 118.744,172.125 116,169.5C 114.799,166.29 112.799,163.623 110,161.5C 109.517,160.552 109.351,159.552 109.5,158.5C 107.901,158.232 106.568,158.566 105.5,159.5C 104.142,160.626 102.808,160.626 101.5,159.5C 102.77,158.712 103.77,157.712 104.5,156.5C 105.478,156.189 106.145,155.522 106.5,154.5C 102.532,150.616 99.8653,145.95 98.5,140.5C 95.4026,141.771 95.0693,143.271 97.5,145C 96.944,145.383 96.6107,145.883 96.5,146.5C 94.8639,147.749 93.6972,149.416 93,151.5C 92.5073,148.015 91.0073,147.515 88.5,150C 86.2493,153.067 83.916,155.9 81.5,158.5C 80.4489,157.778 79.7822,156.778 79.5,155.5C 81.1558,152.861 82.8224,150.195 84.5,147.5C 86.0712,145.585 88.0712,144.585 90.5,144.5C 90.3398,142.801 90.5065,141.134 91,139.5C 92.353,138.315 93.5197,136.981 94.5,135.5C 92.0204,131.612 91.8538,127.612 94,123.5C 97.5623,119.321 101.396,115.487 105.5,112C 100.971,106.373 100.305,100.206 103.5,93.5C 100.965,89.2567 99.7979,84.59 100,79.5C 97.3498,74.5366 94.5165,69.7033 91.5,65C 95.4502,58.3903 100.117,52.3903 105.5,47C 117.621,36.0416 130.954,26.8749 145.5,19.5C 162.765,27.116 177.765,37.7826 190.5,51.5 Z"/></g>
<g><path style="opacity:1" fill="#787266" d="M 152.5,29.5 C 151.325,29.281 150.325,29.6143 149.5,30.5C 146.809,34.1849 144.142,37.8516 141.5,41.5C 138.638,46.7638 137.805,52.4305 139,58.5C 140.406,61.4086 142.572,63.4086 145.5,64.5C 144.833,65.5 144.167,66.5 143.5,67.5C 137.157,68.0846 130.824,68.7512 124.5,69.5C 124.81,67.8564 125.81,66.8564 127.5,66.5C 127.735,67.0967 128.235,67.4301 129,67.5C 133.171,66.9232 137.338,66.2565 141.5,65.5C 135.863,58.5114 134.029,50.5114 136,41.5C 136.941,38.846 137.774,36.1794 138.5,33.5C 139.625,32.6522 139.625,31.6522 138.5,30.5C 142.846,25.5792 147.513,25.2459 152.5,29.5 Z"/></g>
<g><path style="opacity:1" fill="#b2a999" d="M 152.5,29.5 C 153.71,29.9321 154.71,30.5987 155.5,31.5C 153.542,34.4712 151.542,37.4712 149.5,40.5C 146.763,40.4013 144.096,40.7347 141.5,41.5C 144.142,37.8516 146.809,34.1849 149.5,30.5C 150.325,29.6143 151.325,29.281 152.5,29.5 Z"/></g>
<g><path style="opacity:1" fill="#0a0a08" d="M 138.5,33.5 C 137.774,36.1794 136.941,38.846 136,41.5C 134.029,50.5114 135.863,58.5114 141.5,65.5C 137.338,66.2565 133.171,66.9232 129,67.5C 128.235,67.4301 127.735,67.0967 127.5,66.5C 129.167,65.5 130.5,64.1667 131.5,62.5C 133.602,54.9082 132.602,47.4082 128.5,40C 131.371,37.0682 134.704,34.9016 138.5,33.5 Z"/></g>
<g><path style="opacity:1" fill="#0a0a08" d="M 164.5,39.5 C 160.638,44.9184 159.138,50.9184 160,57.5C 161.768,58.6819 161.935,60.0152 160.5,61.5C 161.277,64.1122 162.944,65.9455 165.5,67C 160.513,67.0025 155.513,66.6692 150.5,66C 154.699,61.7191 156.699,56.5524 156.5,50.5C 156.747,47.0613 156.414,43.728 155.5,40.5C 154.943,38.0509 154.943,35.7175 155.5,33.5C 158.357,35.7583 161.357,37.7583 164.5,39.5 Z"/></g>
<g><path style="opacity:1" fill="#575349" d="M 138.5,30.5 C 139.625,31.6522 139.625,32.6522 138.5,33.5C 134.704,34.9016 131.371,37.0682 128.5,40C 132.602,47.4082 133.602,54.9082 131.5,62.5C 130.817,60.8235 129.483,60.1568 127.5,60.5C 130.384,58.7325 131.718,56.0658 131.5,52.5C 130.668,47.8378 129.001,43.5045 126.5,39.5C 129.905,35.7692 133.905,32.7692 138.5,30.5 Z"/></g>
<g><path style="opacity:1" fill="#736d61" d="M 155.5,31.5 C 159.41,33.0875 162.743,35.4208 165.5,38.5C 165.5,39.1667 165.167,39.5 164.5,39.5C 161.357,37.7583 158.357,35.7583 155.5,33.5C 154.943,35.7175 154.943,38.0509 155.5,40.5C 154.167,41.1667 153.167,42.1667 152.5,43.5C 151.167,42.8333 150.167,41.8333 149.5,40.5C 151.542,37.4712 153.542,34.4712 155.5,31.5 Z"/></g>
<g><path style="opacity:1" fill="#aca493" d="M 155.5,40.5 C 156.414,43.728 156.747,47.0613 156.5,50.5C 155.778,50.9175 155.278,51.5842 155,52.5C 154.768,51.2625 154.268,50.2625 153.5,49.5C 153.5,48.8333 153.5,48.1667 153.5,47.5C 152.766,46.2921 152.433,44.9587 152.5,43.5C 153.167,42.1667 154.167,41.1667 155.5,40.5 Z"/></g>
<g><path style="opacity:1" fill="#0e0d0c" d="M 153.5,47.5 C 153.5,48.1667 153.5,48.8333 153.5,49.5C 153.5,52.1667 153.5,54.8333 153.5,57.5C 152.778,57.0825 152.278,56.4158 152,55.5C 150.957,60.2226 148.124,62.0559 143.5,61C 139.201,54.7053 139.534,48.7053 144.5,43C 145.833,42.3333 147.167,42.3333 148.5,43C 149.651,45.2003 151.318,46.7003 153.5,47.5 Z"/></g>
<g><path style="opacity:1" fill="#938c7e" d="M 143.5,46.5 C 144.5,46.5 145.5,46.5 146.5,46.5C 146.424,50.3837 147.09,54.0504 148.5,57.5C 147.5,57.5 146.5,57.5 145.5,57.5C 145.657,56.1266 145.49,54.7932 145,53.5C 142.318,51.6233 141.818,49.2899 143.5,46.5 Z"/></g>
<g><path style="opacity:1" fill="#6b655a" d="M 126.5,60.5 C 124.197,62.978 122.031,65.6447 120,68.5C 119.472,69.816 119.972,70.4827 121.5,70.5C 116.21,71.9754 111.21,74.3087 106.5,77.5C 103.943,73.3924 101.61,69.0591 99.5,64.5C 104.129,58.2034 109.462,52.5367 115.5,47.5C 116.649,52.1361 118.649,56.3028 121.5,60C 123.134,60.4935 124.801,60.6602 126.5,60.5 Z"/></g>
<g><path style="opacity:1" fill="#696459" d="M 189.5,69.5 C 189.22,72.7265 187.887,75.3932 185.5,77.5C 181.446,74.8061 177.112,72.6394 172.5,71C 162.99,68.6029 153.323,67.4362 143.5,67.5C 144.167,66.5 144.833,65.5 145.5,64.5C 150.044,64.2881 152.711,61.9548 153.5,57.5C 153.5,54.8333 153.5,52.1667 153.5,49.5C 154.268,50.2625 154.768,51.2625 155,52.5C 155.278,51.5842 155.778,50.9175 156.5,50.5C 156.699,56.5524 154.699,61.7191 150.5,66C 155.513,66.6692 160.513,67.0025 165.5,67C 162.944,65.9455 161.277,64.1122 160.5,61.5C 163.713,61.81 166.713,61.4767 169.5,60.5C 173.88,57.4308 176.213,53.0975 176.5,47.5C 182.48,51.6462 187.646,56.6462 192,62.5C 193.087,65.6139 192.254,67.9472 189.5,69.5 Z"/></g>
<g><path style="opacity:1" fill="#444039" d="M 165.5,38.5 C 166.043,38.56 166.376,38.8933 166.5,39.5C 163.549,43.5692 161.549,48.0692 160.5,53C 161.262,58.2673 164.262,60.7673 169.5,60.5C 166.713,61.4767 163.713,61.81 160.5,61.5C 161.935,60.0152 161.768,58.6819 160,57.5C 159.138,50.9184 160.638,44.9184 164.5,39.5C 165.167,39.5 165.5,39.1667 165.5,38.5 Z"/></g>
<g><path style="opacity:1" fill="#413d36" d="M 149.5,40.5 C 150.167,41.8333 151.167,42.8333 152.5,43.5C 152.433,44.9587 152.766,46.2921 153.5,47.5C 151.318,46.7003 149.651,45.2003 148.5,43C 147.167,42.3333 145.833,42.3333 144.5,43C 139.534,48.7053 139.201,54.7053 143.5,61C 148.124,62.0559 150.957,60.2226 152,55.5C 152.278,56.4158 152.778,57.0825 153.5,57.5C 152.711,61.9548 150.044,64.2881 145.5,64.5C 142.572,63.4086 140.406,61.4086 139,58.5C 137.805,52.4305 138.638,46.7638 141.5,41.5C 144.096,40.7347 146.763,40.4013 149.5,40.5 Z"/></g>
<g><path style="opacity:1" fill="#818181" d="M 190.5,51.5 C 193.219,53.2193 195.219,55.5526 196.5,58.5C 191.677,58.6728 189.677,56.3394 190.5,51.5 Z"/></g>
<g><path style="opacity:1" fill="#322f2a" d="M 110.5,70.5 C 109.11,69.1007 108.11,67.4341 107.5,65.5C 108.451,64.0813 108.784,62.4147 108.5,60.5C 114.204,60.1464 116.037,62.813 114,68.5C 112.698,69.0848 111.531,69.7515 110.5,70.5 Z"/></g>
<g><path style="opacity:1" fill="#a9a191" d="M 126.5,60.5 C 126.833,60.5 127.167,60.5 127.5,60.5C 129.483,60.1568 130.817,60.8235 131.5,62.5C 130.5,64.1667 129.167,65.5 127.5,66.5C 125.81,66.8564 124.81,67.8564 124.5,69.5C 123.791,70.404 122.791,70.7373 121.5,70.5C 119.972,70.4827 119.472,69.816 120,68.5C 122.031,65.6447 124.197,62.978 126.5,60.5 Z"/></g>
<g><path style="opacity:1" fill="#100f0e" d="M 189.5,69.5 C 188.19,71.4346 186.857,73.4346 185.5,75.5C 182.995,73.7467 180.329,72.2467 177.5,71C 179.115,70.9378 180.448,70.7711 181.5,70.5C 183.316,68.8816 184.649,66.8816 185.5,64.5C 186.987,61.788 186.321,59.6213 183.5,58C 186.436,58.8931 188.936,60.7264 191,63.5C 191.322,65.6889 190.822,67.6889 189.5,69.5 Z"/></g>
<g><path style="opacity:1" fill="#11100e" d="M 107.5,65.5 C 108.11,67.4341 109.11,69.1007 110.5,70.5C 112.199,70.3398 113.866,70.5065 115.5,71C 112.344,71.9372 109.511,73.4372 107,75.5C 104.777,72.2208 102.943,68.7208 101.5,65C 103.272,61.5594 105.772,58.7261 109,56.5C 108.537,58.5259 107.704,60.5259 106.5,62.5C 106.685,63.5837 107.018,64.5837 107.5,65.5 Z"/></g>
<g><path style="opacity:1" fill="#7c7c7c" d="M 198.5,60.5 C 199.674,61.5137 200.34,62.847 200.5,64.5C 199.417,64.5394 198.417,64.8728 197.5,65.5C 196.316,63.533 196.649,61.8664 198.5,60.5 Z"/></g>
<g><path style="opacity:1" fill="#33312b" d="M 185.5,64.5 C 184.649,66.8816 183.316,68.8816 181.5,70.5C 176.039,66.9795 176.206,63.6461 182,60.5C 183.771,61.3471 184.937,62.6805 185.5,64.5 Z"/></g>
<g><path style="opacity:1" fill="#656055" d="M 180.5,77.5 C 179.448,77.3505 178.448,77.5172 177.5,78C 178.696,78.6543 178.696,79.1543 177.5,79.5C 166.814,75.0435 155.647,73.0435 144,73.5C 139.833,73.6667 135.667,73.8333 131.5,74C 123.903,75.9391 116.569,77.7725 109.5,79.5C 110.343,77.8267 111.676,76.66 113.5,76C 133.281,69.4841 153.281,68.8174 173.5,74C 176.069,74.8984 178.402,76.065 180.5,77.5 Z"/></g>
<g><path style="opacity:1" fill="#655f55" d="M 144.5,75.5 C 142.001,78.1686 139.668,81.0019 137.5,84C 138.448,84.4828 139.448,84.6495 140.5,84.5C 134.911,85.2007 129.244,86.2007 123.5,87.5C 122.973,84.6916 122.973,82.025 123.5,79.5C 122.019,82.407 120.685,85.407 119.5,88.5C 119.167,88.1667 118.833,87.8333 118.5,87.5C 119.946,85.3821 120.613,83.0488 120.5,80.5C 112.981,81.5217 109.148,85.855 109,93.5C 108.505,91.5273 108.338,89.5273 108.5,87.5C 108.5,86.8333 108.5,86.1667 108.5,85.5C 112.407,81.7113 117.074,79.2113 122.5,78C 129.707,76.066 137.04,75.2327 144.5,75.5 Z"/></g>
<g><path style="opacity:1" fill="#1a1916" d="M 180.5,77.5 C 183.936,78.6022 185.936,80.9356 186.5,84.5C 185.702,87.9551 184.369,90.9551 182.5,93.5C 178.931,91.8815 175.264,90.5481 171.5,89.5C 154.512,85.557 137.512,85.557 120.5,89.5C 120.5,90.5 120.5,91.5 120.5,92.5C 136.166,89.8572 151.832,89.8572 167.5,92.5C 156.013,92.617 144.347,92.7837 132.5,93C 129.123,93.4517 125.789,94.1184 122.5,95C 121.874,95.7504 121.374,96.5838 121,97.5C 120.583,96.244 119.75,95.5774 118.5,95.5C 112.631,97.0552 108.964,100.388 107.5,105.5C 104.743,101.765 105.076,98.2647 108.5,95C 107.186,92.3953 107.186,89.8953 108.5,87.5C 108.338,89.5273 108.505,91.5273 109,93.5C 109.148,85.855 112.981,81.5217 120.5,80.5C 120.613,83.0488 119.946,85.3821 118.5,87.5C 118.833,87.8333 119.167,88.1667 119.5,88.5C 120.685,85.407 122.019,82.407 123.5,79.5C 122.973,82.025 122.973,84.6916 123.5,87.5C 129.244,86.2007 134.911,85.2007 140.5,84.5C 143.5,84.5 146.5,84.5 149.5,84.5C 156.143,85.3849 162.81,86.0516 169.5,86.5C 168.161,77.4194 168.995,77.4194 172,86.5C 172.651,84.765 172.485,83.0983 171.5,81.5C 173.413,80.9488 175.413,80.7821 177.5,81C 169.179,77.5691 160.513,75.7358 151.5,75.5C 149.167,75.5 146.833,75.5 144.5,75.5C 137.04,75.2327 129.707,76.066 122.5,78C 117.074,79.2113 112.407,81.7113 108.5,85.5C 107.778,85.0825 107.278,84.4158 107,83.5C 106.667,84.5 106.333,85.5 106,86.5C 105.207,83.1397 106.374,80.8064 109.5,79.5C 116.569,77.7725 123.903,75.9391 131.5,74C 135.667,73.8333 139.833,73.6667 144,73.5C 155.647,73.0435 166.814,75.0435 177.5,79.5C 178.696,79.1543 178.696,78.6543 177.5,78C 178.448,77.5172 179.448,77.3505 180.5,77.5 Z"/></g>
<g><path style="opacity:1" fill="#b2aa99" d="M 144.5,75.5 C 146.833,75.5 149.167,75.5 151.5,75.5C 150.496,76.6828 149.662,78.0161 149,79.5C 145.68,75.4637 144.347,76.1304 145,81.5C 145.388,82.428 146.055,83.0946 147,83.5C 149.784,81.7201 152.284,79.5535 154.5,77C 155.5,76.3333 156.5,76.3333 157.5,77C 154.938,79.733 152.271,82.233 149.5,84.5C 146.5,84.5 143.5,84.5 140.5,84.5C 139.448,84.6495 138.448,84.4828 137.5,84C 139.668,81.0019 142.001,78.1686 144.5,75.5 Z"/></g>
<g><path style="opacity:1" fill="#6c675c" d="M 151.5,75.5 C 160.513,75.7358 169.179,77.5691 177.5,81C 175.413,80.7821 173.413,80.9488 171.5,81.5C 172.485,83.0983 172.651,84.765 172,86.5C 168.995,77.4194 168.161,77.4194 169.5,86.5C 162.81,86.0516 156.143,85.3849 149.5,84.5C 152.271,82.233 154.938,79.733 157.5,77C 156.5,76.3333 155.5,76.3333 154.5,77C 152.284,79.5535 149.784,81.7201 147,83.5C 146.055,83.0946 145.388,82.428 145,81.5C 144.347,76.1304 145.68,75.4637 149,79.5C 149.662,78.0161 150.496,76.6828 151.5,75.5 Z"/></g>
<g><path style="opacity:1" fill="#696459" d="M 171.5,89.5 C 171.87,93.1859 170.537,94.1859 167.5,92.5C 151.832,89.8572 136.166,89.8572 120.5,92.5C 120.5,91.5 120.5,90.5 120.5,89.5C 137.512,85.557 154.512,85.557 171.5,89.5 Z"/></g>
<g><path style="opacity:1" fill="#2d2821" d="M 179.5,102.5 C 176.316,102.332 175.816,103.666 178,106.5C 178.483,105.552 178.649,104.552 178.5,103.5C 181.488,103.155 182.821,104.488 182.5,107.5C 182.217,110.742 181.383,111.076 180,108.5C 179.333,109.833 179.333,111.167 180,112.5C 184.296,116.918 188.296,121.585 192,126.5C 192.667,128.167 192.667,129.833 192,131.5C 191.257,129.355 190.424,129.189 189.5,131C 190.459,133.12 190.626,135.287 190,137.5C 189.051,135.907 187.885,134.574 186.5,133.5C 185.986,131.634 185.32,129.8 184.5,128C 184.944,126.238 185.444,126.405 186,128.5C 186.667,127.5 186.667,126.5 186,125.5C 182.095,117.77 177.595,110.437 172.5,103.5C 173.167,103.167 173.833,102.833 174.5,102.5C 170.873,100.536 170.707,98.5359 174,96.5C 177.706,96.9095 179.539,98.9095 179.5,102.5 Z"/></g>
<g><path style="opacity:1" fill="#6f695d" d="M 169.5,98.5 C 170.696,102.968 171.862,107.302 173,111.5C 174.711,117.694 173.211,122.86 168.5,127C 166.866,127.494 165.199,127.66 163.5,127.5C 158.657,124.808 154.157,121.475 150,117.5C 149.51,118.793 149.343,120.127 149.5,121.5C 150.5,121.5 151.5,121.5 152.5,121.5C 151.298,124.056 149.631,126.389 147.5,128.5C 144.58,127.558 141.914,126.224 139.5,124.5C 139.5,123.5 139.5,122.5 139.5,121.5C 140.5,121.5 141.5,121.5 142.5,121.5C 143.014,119.488 143.18,117.488 143,115.5C 138.398,122.809 131.898,126.643 123.5,127C 119.232,123.891 117.566,119.725 118.5,114.5C 118.833,113.833 119.167,113.167 119.5,112.5C 120.758,109.306 121.424,105.973 121.5,102.5C 123.676,101.287 124.009,99.62 122.5,97.5C 125.066,96.4532 127.733,95.7865 130.5,95.5C 143.513,94.8355 156.513,94.5021 169.5,94.5C 169.5,95.8333 169.5,97.1667 169.5,98.5 Z"/></g>
<g><path style="opacity:1" fill="#191715" d="M 123.5,103.5 C 129.95,104.576 136.283,105.909 142.5,107.5C 142.222,109.346 142.889,110.68 144.5,111.5C 145.814,102.259 146.48,102.259 146.5,111.5C 147.5,111.5 148.5,111.5 149.5,111.5C 149.5,110.167 149.5,108.833 149.5,107.5C 154.14,108.264 158.14,107.097 161.5,104C 163.833,103.333 166.167,103.333 168.5,104C 168.833,105 169.167,106 169.5,107C 166.301,107.401 163.301,108.234 160.5,109.5C 160.297,111.638 159.297,113.305 157.5,114.5C 157.977,115.478 158.643,116.311 159.5,117C 159.167,117.167 158.833,117.333 158.5,117.5C 155.733,115.701 152.899,114.034 150,112.5C 147.333,113.833 144.667,113.833 142,112.5C 139.502,114.417 136.835,116.084 134,117.5C 133.5,117.333 133,117.167 132.5,117C 133.91,116.632 134.91,115.799 135.5,114.5C 133.5,113.167 131.833,111.5 130.5,109.5C 129.833,110.5 129.167,111.5 128.5,112.5C 127.269,111.349 127.269,110.183 128.5,109C 126.649,108.163 124.816,107.329 123,106.5C 122.53,105.423 122.697,104.423 123.5,103.5 Z"/></g>
<g><path style="opacity:1" fill="#2f2a24" d="M 171.5,89.5 C 175.264,90.5481 178.931,91.8815 182.5,93.5C 186.171,96.293 187.338,99.9597 186,104.5C 185.506,102.866 185.34,101.199 185.5,99.5C 182.209,94.8019 177.876,92.4686 172.5,92.5C 175.319,93.7427 177.986,95.2427 180.5,97C 177.84,96.5238 175.174,95.6905 172.5,94.5C 171.141,95.6243 170.141,96.9577 169.5,98.5C 169.5,97.1667 169.5,95.8333 169.5,94.5C 156.513,94.5021 143.513,94.8355 130.5,95.5C 127.733,95.7865 125.066,96.4532 122.5,97.5C 124.009,99.62 123.676,101.287 121.5,102.5C 115.744,109.115 110.911,116.449 107,124.5C 106.504,126.035 106.67,127.535 107.5,129C 106.609,131.279 105.609,133.446 104.5,135.5C 102.999,138.174 101.999,138.007 101.5,135C 101.706,133.634 102.04,132.301 102.5,131C 101.518,130.619 100.852,129.786 100.5,128.5C 100.899,126.803 101.399,125.137 102,123.5C 106.178,120.018 109.678,116.018 112.5,111.5C 110.655,109.464 110.155,107.13 111,104.5C 111.75,103.874 112.584,103.374 113.5,103C 112.483,101.951 112.316,100.784 113,99.5C 114.812,98.0229 116.645,96.6896 118.5,95.5C 119.75,95.5774 120.583,96.244 121,97.5C 121.374,96.5838 121.874,95.7504 122.5,95C 125.789,94.1184 129.123,93.4517 132.5,93C 144.347,92.7837 156.013,92.617 167.5,92.5C 170.537,94.1859 171.87,93.1859 171.5,89.5 Z"/></g>
<g><path style="opacity:1" fill="#1c1915" d="M 121.5,102.5 C 121.424,105.973 120.758,109.306 119.5,112.5C 118.732,111.737 118.232,110.737 118,109.5C 116.242,110.469 115.742,111.636 116.5,113C 114.681,115.056 114.015,117.223 114.5,119.5C 112.64,124.666 110.473,129.666 108,134.5C 107.667,134.167 107.333,133.833 107,133.5C 106.292,134.381 105.458,135.047 104.5,135.5C 105.609,133.446 106.609,131.279 107.5,129C 106.67,127.535 106.504,126.035 107,124.5C 110.911,116.449 115.744,109.115 121.5,102.5 Z"/></g>
<g><path style="opacity:1" fill="#171512" d="M 185.5,99.5 C 184.71,100.609 184.21,101.942 184,103.5C 182.726,98.939 181.226,98.6057 179.5,102.5C 179.539,98.9095 177.706,96.9095 174,96.5C 170.707,98.5359 170.873,100.536 174.5,102.5C 173.833,102.833 173.167,103.167 172.5,103.5C 177.595,110.437 182.095,117.77 186,125.5C 186.667,126.5 186.667,127.5 186,128.5C 185.444,126.405 184.944,126.238 184.5,128C 185.32,129.8 185.986,131.634 186.5,133.5C 188.35,137.645 188.85,141.979 188,146.5C 187.667,144.5 187.333,142.5 187,140.5C 186.193,144.449 185.693,144.449 185.5,140.5C 182.311,130.723 178.811,121.056 175,111.5C 175.767,117.086 175.434,122.419 174,127.5C 173.282,126.549 172.449,126.383 171.5,127C 170.671,128.816 169.837,130.649 169,132.5C 167.428,130.437 165.595,129.771 163.5,130.5C 164.886,137.833 166.386,145.166 168,152.5C 168.667,155.167 168.667,157.833 168,160.5C 167.503,153.497 166.837,153.163 166,159.5C 165.612,155.781 164.945,152.114 164,148.5C 162.844,149.993 162.01,149.826 161.5,148C 161.429,142.978 159.096,139.812 154.5,138.5C 154.66,140.199 154.494,141.866 154,143.5C 153.641,140.456 152.974,140.122 152,142.5C 149.667,141.5 148,139.833 147,137.5C 146.5,154.83 146.333,172.163 146.5,189.5C 146.167,189.5 145.833,189.5 145.5,189.5C 145.667,172.163 145.5,154.83 145,137.5C 144.55,140.106 143.05,141.439 140.5,141.5C 140.322,144.216 139.822,146.883 139,149.5C 137.34,146.23 137.006,142.897 138,139.5C 136.667,138.167 135.333,138.167 134,139.5C 132.294,143.035 130.96,146.702 130,150.5C 129.586,150.043 129.086,149.709 128.5,149.5C 127.504,154.134 126.671,158.8 126,163.5C 125.333,158.167 124.667,158.167 124,163.5C 123.668,158.146 124.001,152.813 125,147.5C 126.82,141.972 127.987,136.306 128.5,130.5C 128.154,129.304 127.654,129.304 127,130.5C 126.333,131.833 125.667,133.167 125,134.5C 123.654,131.751 122.32,131.417 121,133.5C 120.982,131.203 121.149,128.869 121.5,126.5C 120.5,126.5 119.5,126.5 118.5,126.5C 118.649,125.448 118.483,124.448 118,123.5C 117.346,124.696 116.846,124.696 116.5,123.5C 117.833,121.5 117.833,119.5 116.5,117.5C 116.942,116.261 117.609,115.261 118.5,114.5C 117.566,119.725 119.232,123.891 123.5,127C 131.898,126.643 138.398,122.809 143,115.5C 143.18,117.488 143.014,119.488 142.5,121.5C 141.5,121.5 140.5,121.5 139.5,121.5C 139.5,122.5 139.5,123.5 139.5,124.5C 141.914,126.224 144.58,127.558 147.5,128.5C 149.925,128.684 149.925,129.351 147.5,130.5C 151.725,132.982 155.891,135.649 160,138.5C 160.667,135.833 161.333,135.833 162,138.5C 162.667,135.833 162.667,133.167 162,130.5C 161,129.167 160,129.167 159,130.5C 158.517,129.552 158.351,128.552 158.5,127.5C 156.833,127.5 155.167,127.5 153.5,127.5C 153.351,126.448 153.517,125.448 154,124.5C 156.943,126.223 160.11,127.223 163.5,127.5C 165.199,127.66 166.866,127.494 168.5,127C 173.211,122.86 174.711,117.694 173,111.5C 171.862,107.302 170.696,102.968 169.5,98.5C 170.141,96.9577 171.141,95.6243 172.5,94.5C 175.174,95.6905 177.84,96.5238 180.5,97C 177.986,95.2427 175.319,93.7427 172.5,92.5C 177.876,92.4686 182.209,94.8019 185.5,99.5 Z"/></g>
<g><path style="opacity:1" fill="#29241e" d="M 163.5,127.5 C 160.11,127.223 156.943,126.223 154,124.5C 153.517,125.448 153.351,126.448 153.5,127.5C 155.167,127.5 156.833,127.5 158.5,127.5C 158.351,128.552 158.517,129.552 159,130.5C 160,129.167 161,129.167 162,130.5C 162.667,133.167 162.667,135.833 162,138.5C 161.333,135.833 160.667,135.833 160,138.5C 155.891,135.649 151.725,132.982 147.5,130.5C 149.925,129.351 149.925,128.684 147.5,128.5C 149.631,126.389 151.298,124.056 152.5,121.5C 151.5,121.5 150.5,121.5 149.5,121.5C 149.343,120.127 149.51,118.793 150,117.5C 154.157,121.475 158.657,124.808 163.5,127.5 Z"/></g>
<g><path style="opacity:1" fill="#3d3830" d="M 154.5,138.5 C 152.983,138.511 151.816,139.177 151,140.5C 149.812,139.437 149.312,138.103 149.5,136.5C 147.167,136.5 144.833,136.5 142.5,136.5C 142.416,141.467 141.082,141.8 138.5,137.5C 141.167,135.833 143.833,134.167 146.5,132.5C 149.463,134.331 152.13,136.331 154.5,138.5 Z"/></g>
<g><path style="opacity:1" fill="#2f2922" d="M 119.5,112.5 C 119.167,113.167 118.833,113.833 118.5,114.5C 117.609,115.261 116.942,116.261 116.5,117.5C 117.833,119.5 117.833,121.5 116.5,123.5C 116.846,124.696 117.346,124.696 118,123.5C 118.483,124.448 118.649,125.448 118.5,126.5C 119.5,126.5 120.5,126.5 121.5,126.5C 121.149,128.869 120.982,131.203 121,133.5C 122.32,131.417 123.654,131.751 125,134.5C 125.667,133.167 126.333,131.833 127,130.5C 127.654,129.304 128.154,129.304 128.5,130.5C 127.987,136.306 126.82,141.972 125,147.5C 124.001,152.813 123.668,158.146 124,163.5C 124.667,158.167 125.333,158.167 126,163.5C 126.671,158.8 127.504,154.134 128.5,149.5C 129.086,149.709 129.586,150.043 130,150.5C 130.96,146.702 132.294,143.035 134,139.5C 135.333,138.167 136.667,138.167 138,139.5C 137.006,142.897 137.34,146.23 139,149.5C 139.822,146.883 140.322,144.216 140.5,141.5C 143.05,141.439 144.55,140.106 145,137.5C 145.5,154.83 145.667,172.163 145.5,189.5C 143.85,175.708 143.017,161.708 143,147.5C 141.093,160.52 141.26,173.52 143.5,186.5C 143.167,187.167 142.833,187.833 142.5,188.5C 141.692,186.577 141.192,184.577 141,182.5C 140.361,187.27 139.195,187.603 137.5,183.5C 136.527,181.932 136.36,180.265 137,178.5C 137.556,180.595 138.056,180.762 138.5,179C 137.526,169.847 137.359,160.68 138,151.5C 137.667,152.833 137.333,154.167 137,155.5C 136.333,153.5 135.667,151.5 135,149.5C 134.08,152.101 133.413,154.768 133,157.5C 132.517,156.552 132.351,155.552 132.5,154.5C 131.5,154.5 130.5,154.5 129.5,154.5C 128.637,160.455 128.303,166.455 128.5,172.5C 124.94,171.136 121.773,169.136 119,166.5C 118.667,160.833 118.333,155.167 118,149.5C 117.488,153.573 116.655,157.573 115.5,161.5C 110.79,156.413 107.957,150.413 107,143.5C 106.667,144.5 106.333,145.5 106,146.5C 105.833,145.833 105.667,145.167 105.5,144.5C 106.501,141.518 107.001,138.518 107,135.5C 105.601,138.363 104.601,141.363 104,144.5C 103.505,141.469 103.671,138.469 104.5,135.5C 105.458,135.047 106.292,134.381 107,133.5C 107.333,133.833 107.667,134.167 108,134.5C 110.473,129.666 112.64,124.666 114.5,119.5C 114.015,117.223 114.681,115.056 116.5,113C 115.742,111.636 116.242,110.469 118,109.5C 118.232,110.737 118.732,111.737 119.5,112.5 Z"/></g>
<g><path style="opacity:1" fill="#645f54" d="M 104.5,156.5 C 104.244,154.224 102.91,153.057 100.5,153C 101.833,152.333 101.833,151.667 100.5,151C 99.4232,150.53 98.4232,150.697 97.5,151.5C 97.7214,150.265 98.3881,149.265 99.5,148.5C 98.9953,147.081 97.9953,146.415 96.5,146.5C 96.6107,145.883 96.944,145.383 97.5,145C 95.0693,143.271 95.4026,141.771 98.5,140.5C 99.8653,145.95 102.532,150.616 106.5,154.5C 106.145,155.522 105.478,156.189 104.5,156.5 Z"/></g>
<g><path style="opacity:1" fill="#2d2821" d="M 185.5,140.5 C 184.249,138.618 183.082,136.618 182,134.5C 183.905,139.597 184.571,144.93 184,150.5C 181.768,154.395 179.268,158.062 176.5,161.5C 175.856,155.704 174.689,150.037 173,144.5C 174.247,151.399 174.58,158.399 174,165.5C 170.852,168.989 167.019,171.323 162.5,172.5C 162.54,175.425 161.707,178.091 160,180.5C 159.333,181.833 158.667,181.833 158,180.5C 157.218,183.076 155.718,185.076 153.5,186.5C 152.679,183.553 152.179,180.553 152,177.5C 150.363,192.071 149.363,192.071 149,177.5C 148.924,181.796 148.091,185.796 146.5,189.5C 146.333,172.163 146.5,154.83 147,137.5C 148,139.833 149.667,141.5 152,142.5C 152.974,140.122 153.641,140.456 154,143.5C 154.494,141.866 154.66,140.199 154.5,138.5C 159.096,139.812 161.429,142.978 161.5,148C 162.01,149.826 162.844,149.993 164,148.5C 164.945,152.114 165.612,155.781 166,159.5C 166.837,153.163 167.503,153.497 168,160.5C 168.667,157.833 168.667,155.167 168,152.5C 166.386,145.166 164.886,137.833 163.5,130.5C 165.595,129.771 167.428,130.437 169,132.5C 169.837,130.649 170.671,128.816 171.5,127C 172.449,126.383 173.282,126.549 174,127.5C 175.434,122.419 175.767,117.086 175,111.5C 178.811,121.056 182.311,130.723 185.5,140.5 Z"/></g>
<g><path style="opacity:1" fill="#a09889" d="M 194.5,145.5 C 199.588,149.219 199.754,153.219 195,157.5C 192.505,156.238 192.172,156.571 194,158.5C 194.819,163.026 193.319,166.526 189.5,169C 187.326,169.877 185.659,169.377 184.5,167.5C 184.047,166.542 183.381,165.708 182.5,165C 183.397,162.689 184.73,160.856 186.5,159.5C 186.833,159.5 187.167,159.5 187.5,159.5C 189.091,160.219 190.591,161.219 192,162.5C 191.948,159.728 190.781,157.394 188.5,155.5C 189.381,154.029 190.714,153.196 192.5,153C 192.167,152.667 191.833,152.333 191.5,152C 196.07,151.45 196.403,150.283 192.5,148.5C 192.942,147.261 193.609,146.261 194.5,145.5 Z"/></g>
<g><path style="opacity:1" fill="#645f55" d="M 194.5,145.5 C 193.609,146.261 192.942,147.261 192.5,148.5C 196.403,150.283 196.07,151.45 191.5,152C 191.833,152.333 192.167,152.667 192.5,153C 190.714,153.196 189.381,154.029 188.5,155.5C 190.781,157.394 191.948,159.728 192,162.5C 190.591,161.219 189.091,160.219 187.5,159.5C 188.239,159.631 188.906,159.464 189.5,159C 187.876,157.883 186.876,156.383 186.5,154.5C 190.194,150.138 192.528,145.138 193.5,139.5C 196.858,141.192 197.191,143.192 194.5,145.5 Z"/></g>
<g><path style="opacity:1" fill="#aea595" d="M 199.5,175.5 C 195.946,173.018 195.78,170.351 199,167.5C 204.123,172.765 204.623,172.265 200.5,166C 201.428,165.612 202.095,164.945 202.5,164C 200.854,161.405 200.187,158.572 200.5,155.5C 200.192,153.076 200.526,150.743 201.5,148.5C 207.986,152.771 210.486,158.438 209,165.5C 208,164.5 207,163.5 206,162.5C 205.833,162.833 205.667,163.167 205.5,163.5C 209.142,170.893 207.142,174.893 199.5,175.5 Z"/></g>
<g><path style="opacity:1" fill="#6e695e" d="M 95.5,160.5 C 95.5911,167.046 98.7577,171.046 105,172.5C 106.984,178.142 110.15,182.976 114.5,187C 114.164,188.03 113.497,188.53 112.5,188.5C 110.22,187.253 107.887,185.92 105.5,184.5C 106.428,183.232 106.595,181.899 106,180.5C 104.294,178.295 102.794,175.962 101.5,173.5C 98.9013,177.641 98.2346,177.474 99.5,173C 97.8067,172.516 96.4733,173.016 95.5,174.5C 95.1667,174.5 94.8333,174.5 94.5,174.5C 95.0283,173.279 95.695,172.113 96.5,171C 95.3333,169.833 94.1667,168.667 93,167.5C 92,168.833 91,170.167 90,171.5C 89.3698,169.097 90.2031,167.263 92.5,166C 91.0267,165.29 90.3601,164.124 90.5,162.5C 92.5542,162.635 94.2209,161.968 95.5,160.5 Z"/></g>
<g><path style="opacity:1" fill="#b4aea3" d="M 96.5,146.5 C 97.9953,146.415 98.9953,147.081 99.5,148.5C 98.3881,149.265 97.7214,150.265 97.5,151.5C 99.4748,153.362 99.8081,155.362 98.5,157.5C 96.1939,155.965 93.8605,154.798 91.5,154C 93.0082,156.094 94.3415,158.26 95.5,160.5C 94.2209,161.968 92.5542,162.635 90.5,162.5C 90.3601,164.124 91.0267,165.29 92.5,166C 90.2031,167.263 89.3698,169.097 90,171.5C 91,170.167 92,168.833 93,167.5C 94.1667,168.667 95.3333,169.833 96.5,171C 95.695,172.113 95.0283,173.279 94.5,174.5C 93.5178,175.141 92.5178,175.807 91.5,176.5C 89.0629,175.197 86.8962,173.53 85,171.5C 84.3017,167.202 82.8017,163.202 80.5,159.5C 80.6236,158.893 80.9569,158.56 81.5,158.5C 83.916,155.9 86.2493,153.067 88.5,150C 91.0073,147.515 92.5073,148.015 93,151.5C 93.6972,149.416 94.8639,147.749 96.5,146.5 Z"/></g>
<g><path style="opacity:1" fill="#9d9687" d="M 104.5,156.5 C 103.77,157.712 102.77,158.712 101.5,159.5C 102.808,160.626 104.142,160.626 105.5,159.5C 109.345,161.665 110.011,164.498 107.5,168C 105.527,168.495 103.527,168.662 101.5,168.5C 98.8073,165.461 97.8073,161.794 98.5,157.5C 99.8081,155.362 99.4748,153.362 97.5,151.5C 98.4232,150.697 99.4232,150.53 100.5,151C 101.833,151.667 101.833,152.333 100.5,153C 102.91,153.057 104.244,154.224 104.5,156.5 Z"/></g>
<g><path style="opacity:1" fill="#625d53" d="M 105.5,159.5 C 106.568,158.566 107.901,158.232 109.5,158.5C 109.351,159.552 109.517,160.552 110,161.5C 112.799,163.623 114.799,166.29 116,169.5C 118.744,172.125 121.911,174.125 125.5,175.5C 127.758,178.357 129.758,181.357 131.5,184.5C 130.417,184.539 129.417,184.873 128.5,185.5C 127.828,184.051 127.161,182.718 126.5,181.5C 126.631,180.624 126.298,179.957 125.5,179.5C 124.549,180.326 123.549,180.492 122.5,180C 123.731,178.817 123.731,177.651 122.5,176.5C 119.724,175.911 117.39,174.578 115.5,172.5C 114.817,172.863 114.15,173.196 113.5,173.5C 113.5,173.167 113.5,172.833 113.5,172.5C 114.151,170.189 113.318,168.189 111,166.5C 109.257,169.156 109.091,171.822 110.5,174.5C 110.649,175.552 110.483,176.552 110,177.5C 108.133,175.192 107.133,172.525 107,169.5C 106.667,169.833 106.333,170.167 106,170.5C 104.378,169.901 102.878,169.234 101.5,168.5C 103.527,168.662 105.527,168.495 107.5,168C 110.011,164.498 109.345,161.665 105.5,159.5 Z"/></g>
<g><path style="opacity:1" fill="#a8a191" d="M 113.5,172.5 C 112.5,173.167 111.5,173.833 110.5,174.5C 109.091,171.822 109.257,169.156 111,166.5C 113.318,168.189 114.151,170.189 113.5,172.5 Z"/></g>
<g><path style="opacity:1" fill="#999283" d="M 183.5,168.5 C 183.905,172.048 183.405,175.381 182,178.5C 181.767,176.22 180.934,174.22 179.5,172.5C 178.702,172.957 178.369,173.624 178.5,174.5C 176.38,173.15 176.547,171.483 179,169.5C 179.423,170.956 180.256,171.456 181.5,171C 180.253,169.506 180.253,168.006 181.5,166.5C 182.182,167.243 182.849,167.909 183.5,168.5 Z"/></g>
<g><path style="opacity:1" fill="#9c9c9c" d="M 70.5,169.5 C 77.3336,173.145 77.0002,175.812 69.5,177.5C 69.4013,174.763 69.7347,172.096 70.5,169.5 Z"/></g>
<g><path style="opacity:1" fill="#1f1d1b" d="M 79.5,155.5 C 79.7822,156.778 80.4489,157.778 81.5,158.5C 80.9569,158.56 80.6236,158.893 80.5,159.5C 82.8017,163.202 84.3017,167.202 85,171.5C 86.8962,173.53 89.0629,175.197 91.5,176.5C 92.5178,175.807 93.5178,175.141 94.5,174.5C 94.8333,174.5 95.1667,174.5 95.5,174.5C 92.8851,178.009 91.8851,182.009 92.5,186.5C 91.4739,187.853 90.1405,188.853 88.5,189.5C 88.665,186.15 88.4983,182.817 88,179.5C 86.9609,178.29 85.7942,177.29 84.5,176.5C 83.3146,175.143 82.3146,173.643 81.5,172C 83.0288,170.418 83.5288,168.585 83,166.5C 81.1222,169.069 79.6222,168.736 78.5,165.5C 81.5972,164.806 81.9305,163.806 79.5,162.5C 75.9828,164.384 75.6494,166.717 78.5,169.5C 75.7287,169.028 74.0621,167.028 73.5,163.5C 75.4763,160.911 77.4763,158.245 79.5,155.5 Z"/></g>
<g><path style="opacity:1" fill="#3b352d" d="M 210.5,168.5 C 211.172,171.942 210.172,174.609 207.5,176.5C 206.685,177.429 205.852,178.429 205,179.5C 204.502,182.817 204.335,186.15 204.5,189.5C 203.883,189.389 203.383,189.056 203,188.5C 200.821,181.687 202.821,176.687 209,173.5C 209.198,171.618 209.698,169.952 210.5,168.5 Z"/></g>
<g><path style="opacity:1" fill="#a1998a" d="M 210.5,168.5 C 212.017,168.511 213.184,169.177 214,170.5C 214.495,172.473 214.662,174.473 214.5,176.5C 213.127,176.343 211.793,176.51 210.5,177C 214.423,178.943 217.423,181.776 219.5,185.5C 219.5,186.167 219.167,186.5 218.5,186.5C 214.787,183.116 211.121,179.783 207.5,176.5C 210.172,174.609 211.172,171.942 210.5,168.5 Z"/></g>
<g><path style="opacity:1" fill="#a29c90" d="M 84.5,176.5 C 79.9069,180.917 75.0736,185.25 70,189.5C 69.5357,188.906 69.369,188.239 69.5,187.5C 72.8251,183.321 76.8251,179.821 81.5,177C 80.2068,176.51 78.8734,176.343 77.5,176.5C 77.1594,173.484 75.9927,170.818 74,168.5C 73.1841,167.177 72.0174,166.511 70.5,166.5C 70.8102,164.856 71.8102,163.856 73.5,163.5C 74.0621,167.028 75.7287,169.028 78.5,169.5C 75.6494,166.717 75.9828,164.384 79.5,162.5C 81.9305,163.806 81.5972,164.806 78.5,165.5C 79.6222,168.736 81.1222,169.069 83,166.5C 83.5288,168.585 83.0288,170.418 81.5,172C 82.3146,173.643 83.3146,175.143 84.5,176.5 Z"/></g>
<g><path style="opacity:1" fill="#aaa292" d="M 112.5,188.5 C 110.502,189.148 108.502,189.981 106.5,191C 110.095,190.387 110.429,191.554 107.5,194.5C 107.833,194.833 108.167,195.167 108.5,195.5C 109.5,194.167 110.5,192.833 111.5,191.5C 111.833,192.833 112.167,194.167 112.5,195.5C 112.178,198.302 111.178,200.802 109.5,203C 109.667,203.5 109.833,204 110,204.5C 110.915,203.672 111.581,202.672 112,201.5C 113.227,206.03 112.394,210.03 109.5,213.5C 106.433,209.713 103.6,205.713 101,201.5C 100.578,198.764 100.578,196.098 101,193.5C 98.7042,196.388 97.5376,195.888 97.5,192C 97.6852,189.598 98.1852,187.431 99,185.5C 97.0354,188.792 94.8688,189.125 92.5,186.5C 91.8851,182.009 92.8851,178.009 95.5,174.5C 96.4733,173.016 97.8067,172.516 99.5,173C 98.2346,177.474 98.9013,177.641 101.5,173.5C 102.794,175.962 104.294,178.295 106,180.5C 106.595,181.899 106.428,183.232 105.5,184.5C 107.887,185.92 110.22,187.253 112.5,188.5 Z"/></g>
<g><path style="opacity:1" fill="#aca494" d="M 198.5,176.5 C 200.432,179.177 200.932,182.177 200,185.5C 197.932,189.311 195.599,189.311 193,185.5C 192.655,187.201 193.322,188.534 195,189.5C 195.667,191.167 195.667,192.833 195,194.5C 191.821,200.554 188.321,206.554 184.5,212.5C 183.132,213.594 181.965,213.26 181,211.5C 179.517,208.298 179.183,204.964 180,201.5C 181.065,203.396 181.898,203.563 182.5,202C 181.105,200.279 180.439,198.279 180.5,196C 180.608,194.319 181.275,193.152 182.5,192.5C 183.031,194.544 184.198,196.211 186,197.5C 185.973,195.583 185.139,193.916 183.5,192.5C 183.833,192.167 184.167,191.833 184.5,191.5C 185.62,192.833 186.953,193.333 188.5,193C 187.295,191.624 185.962,190.458 184.5,189.5C 184.167,189.5 183.833,189.5 183.5,189.5C 182.737,188.732 181.737,188.232 180.5,188C 182.833,187 185.167,186 187.5,185C 185.946,182.103 186.446,179.603 189,177.5C 190.767,178.817 192.101,180.484 193,182.5C 193.667,181.167 193.667,179.833 193,178.5C 189.309,177.325 188.809,175.492 191.5,173C 192.833,172.333 194.167,172.333 195.5,173C 196.163,174.518 197.163,175.685 198.5,176.5 Z"/></g>
<g><path style="opacity:1" fill="#8f887a" d="M 123.5,191.5 C 122.749,192.573 121.749,192.74 120.5,192C 116.99,190.093 115.824,187.26 117,183.5C 118.23,182.725 118.563,181.725 118,180.5C 113.828,184.663 112.328,183.997 113.5,178.5C 114.822,178.33 115.989,178.663 117,179.5C 117.423,178.044 118.256,177.544 119.5,178C 118.366,179.016 118.699,179.683 120.5,180C 119.39,182.737 119.223,185.571 120,188.5C 120.759,190.063 121.926,191.063 123.5,191.5 Z"/></g>
<g><path style="opacity:1" fill="#221e19" d="M 137.5,183.5 C 135.797,184.66 135.131,183.993 135.5,181.5C 134.5,181.5 133.5,181.5 132.5,181.5C 131.548,178.303 130.215,175.303 128.5,172.5C 128.303,166.455 128.637,160.455 129.5,154.5C 130.5,154.5 131.5,154.5 132.5,154.5C 132.351,155.552 132.517,156.552 133,157.5C 133.413,154.768 134.08,152.101 135,149.5C 135.667,151.5 136.333,153.5 137,155.5C 137.333,154.167 137.667,152.833 138,151.5C 137.359,160.68 137.526,169.847 138.5,179C 138.056,180.762 137.556,180.595 137,178.5C 136.36,180.265 136.527,181.932 137.5,183.5 Z"/></g>
<g><path style="opacity:1" fill="#6d675c" d="M 207.5,176.5 C 211.121,179.783 214.787,183.116 218.5,186.5C 217.448,186.649 216.448,186.483 215.5,186C 213.983,184.315 212.316,182.815 210.5,181.5C 210.167,182 209.833,182.5 209.5,183C 210.424,184.15 210.424,185.15 209.5,186C 212.514,188.019 215.18,190.352 217.5,193C 215.942,193.21 214.609,193.71 213.5,194.5C 212.518,195.141 211.518,195.807 210.5,196.5C 209.866,194.228 208.532,192.561 206.5,191.5C 205.5,191.167 204.833,190.5 204.5,189.5C 204.335,186.15 204.502,182.817 205,179.5C 205.852,178.429 206.685,177.429 207.5,176.5 Z"/></g>
<g><path style="opacity:1" fill="#b2a999" d="M 126.5,181.5 C 125.307,183.054 124.14,184.721 123,186.5C 122.421,187.928 122.588,189.262 123.5,190.5C 123.5,190.833 123.5,191.167 123.5,191.5C 121.926,191.063 120.759,190.063 120,188.5C 119.223,185.571 119.39,182.737 120.5,180C 118.699,179.683 118.366,179.016 119.5,178C 118.256,177.544 117.423,178.044 117,179.5C 115.989,178.663 114.822,178.33 113.5,178.5C 114.984,177.527 115.484,176.193 115,174.5C 112.645,177.13 112.145,176.797 113.5,173.5C 114.15,173.196 114.817,172.863 115.5,172.5C 117.39,174.578 119.724,175.911 122.5,176.5C 123.731,177.651 123.731,178.817 122.5,180C 123.549,180.492 124.549,180.326 125.5,179.5C 126.298,179.957 126.631,180.624 126.5,181.5 Z"/></g>
<g><path style="opacity:1" fill="#6d675c" d="M 200.5,155.5 C 200.187,158.572 200.854,161.405 202.5,164C 202.095,164.945 201.428,165.612 200.5,166C 204.623,172.265 204.123,172.765 199,167.5C 195.78,170.351 195.946,173.018 199.5,175.5C 198.833,175.5 198.5,175.833 198.5,176.5C 197.163,175.685 196.163,174.518 195.5,173C 194.167,172.333 192.833,172.333 191.5,173C 188.809,175.492 189.309,177.325 193,178.5C 193.667,179.833 193.667,181.167 193,182.5C 192.101,180.484 190.767,178.817 189,177.5C 186.446,179.603 185.946,182.103 187.5,185C 185.167,186 182.833,187 180.5,188C 181.737,188.232 182.737,188.732 183.5,189.5C 181.052,189.99 179.385,189.157 178.5,187C 180.471,183.454 182.971,180.287 186,177.5C 185.436,173.21 187.269,171.043 191.5,171C 192.667,169.833 193.833,168.667 195,167.5C 196.257,163.125 198.091,159.125 200.5,155.5 Z"/></g>
<g><path style="opacity:1" fill="#686257" d="M 186.5,159.5 C 184.73,160.856 183.397,162.689 182.5,165C 183.381,165.708 184.047,166.542 184.5,167.5C 183.833,167.5 183.5,167.833 183.5,168.5C 182.849,167.909 182.182,167.243 181.5,166.5C 180.253,168.006 180.253,169.506 181.5,171C 180.256,171.456 179.423,170.956 179,169.5C 176.547,171.483 176.38,173.15 178.5,174.5C 179.742,176.346 179.409,176.679 177.5,175.5C 174.054,174.366 171.054,175.2 168.5,178C 169.863,180.129 169.529,180.629 167.5,179.5C 165.829,181.51 165.162,183.843 165.5,186.5C 159.934,186.503 158.767,188.503 162,192.5C 161.266,189.041 162.266,188.707 165,191.5C 165.667,192.5 165.667,193.5 165,194.5C 164.282,193.549 163.449,193.383 162.5,194C 163.823,194.816 164.489,195.983 164.5,197.5C 160.584,194.783 158.751,191.116 159,186.5C 161.955,182.756 164.789,178.922 167.5,175C 174.805,171.695 180.139,166.361 183.5,159C 184.749,158.26 185.749,158.427 186.5,159.5 Z"/></g>
<g><path style="opacity:1" fill="#4e4a42" d="M 218.5,186.5 C 219.167,186.5 219.5,186.167 219.5,185.5C 222.603,187.423 225.603,189.59 228.5,192C 222.339,193.134 221.673,194.634 226.5,196.5C 225.209,196.263 224.209,196.596 223.5,197.5C 220.135,198.04 216.802,198.706 213.5,199.5C 212.127,199.657 210.793,199.49 209.5,199C 211.67,197.414 214.004,196.08 216.5,195C 215.552,194.517 214.552,194.351 213.5,194.5C 214.609,193.71 215.942,193.21 217.5,193C 215.18,190.352 212.514,188.019 209.5,186C 210.424,185.15 210.424,184.15 209.5,183C 209.833,182.5 210.167,182 210.5,181.5C 212.316,182.815 213.983,184.315 215.5,186C 216.448,186.483 217.448,186.649 218.5,186.5 Z"/></g>
<g><path style="opacity:1" fill="#888174" d="M 126.5,181.5 C 127.161,182.718 127.828,184.051 128.5,185.5C 129.417,184.873 130.417,184.539 131.5,184.5C 132.652,185.834 133.652,187.334 134.5,189C 132.153,191.86 129.819,194.693 127.5,197.5C 127.204,195.597 126.537,193.93 125.5,192.5C 125.869,190.007 125.203,189.34 123.5,190.5C 122.588,189.262 122.421,187.928 123,186.5C 124.14,184.721 125.307,183.054 126.5,181.5 Z"/></g>
<g><path style="opacity:1" fill="#3b342c" d="M 119.5,211.5 C 118.142,206.277 117.142,200.944 116.5,195.5C 115.614,196.325 115.281,197.325 115.5,198.5C 114.236,196.228 114.402,193.895 116,191.5C 117,192.167 118,192.833 119,193.5C 119.582,197.824 120.082,202.157 120.5,206.5C 120.493,208.369 120.16,210.036 119.5,211.5 Z"/></g>
<g><path style="opacity:1" fill="#514d46" d="M 184.5,189.5 C 185.962,190.458 187.295,191.624 188.5,193C 186.953,193.333 185.62,192.833 184.5,191.5C 184.167,191.833 183.833,192.167 183.5,192.5C 185.139,193.916 185.973,195.583 186,197.5C 184.198,196.211 183.031,194.544 182.5,192.5C 182.782,191.222 183.449,190.222 184.5,189.5 Z"/></g>
<g><path style="opacity:1" fill="#635d53" d="M 139.5,192.5 C 139.56,191.957 139.893,191.624 140.5,191.5C 142.311,192.739 144.311,193.406 146.5,193.5C 148.921,192.928 151.254,192.428 153.5,192C 151.317,194.35 148.984,196.517 146.5,198.5C 144.147,196.477 141.814,194.477 139.5,192.5 Z"/></g>
<g><path style="opacity:1" fill="#6c665a" d="M 177.5,194.5 C 176.352,199.517 176.352,204.517 177.5,209.5C 176.139,213.3 175.139,212.967 174.5,208.5C 175.21,204.196 175.71,199.863 176,195.5C 176.383,194.944 176.883,194.611 177.5,194.5 Z"/></g>
<g><path style="opacity:1" fill="#aaa292" d="M 125.5,192.5 C 126.537,193.93 127.204,195.597 127.5,197.5C 127.351,198.552 127.517,199.552 128,200.5C 130.374,198.461 132.374,196.128 134,193.5C 134.461,198.184 134.295,202.851 133.5,207.5C 132.325,207.719 131.325,207.386 130.5,206.5C 131.428,205.232 131.595,203.899 131,202.5C 129,205.167 127,205.167 125,202.5C 124.178,199.883 123.678,197.216 123.5,194.5C 123.833,193.5 124.5,192.833 125.5,192.5 Z"/></g>
<g><path style="opacity:1" fill="#a49c8d" d="M 177.5,175.5 C 179.1,177.571 179.6,179.905 179,182.5C 177.413,183.727 176.079,183.394 175,181.5C 175.422,184.098 175.422,186.764 175,189.5C 173.887,190.305 172.721,190.972 171.5,191.5C 169.857,191.52 168.524,190.853 167.5,189.5C 166.592,190.79 166.759,192.123 168,193.5C 168.667,196.5 168.667,199.5 168,202.5C 165.778,205.044 163.611,205.044 161.5,202.5C 160.269,203.651 160.269,204.817 161.5,206C 160.552,206.483 159.552,206.649 158.5,206.5C 157.726,202.125 157.726,197.792 158.5,193.5C 160.121,195.624 161.954,197.624 164,199.5C 164.464,198.906 164.631,198.239 164.5,197.5C 164.489,195.983 163.823,194.816 162.5,194C 163.449,193.383 164.282,193.549 165,194.5C 165.667,193.5 165.667,192.5 165,191.5C 162.266,188.707 161.266,189.041 162,192.5C 158.767,188.503 159.934,186.503 165.5,186.5C 165.162,183.843 165.829,181.51 167.5,179.5C 169.529,180.629 169.863,180.129 168.5,178C 171.054,175.2 174.054,174.366 177.5,175.5 Z"/></g>
<g><path style="opacity:1" fill="#3a342d" d="M 177.5,194.5 C 176.883,194.611 176.383,194.944 176,195.5C 175.71,199.863 175.21,204.196 174.5,208.5C 175.139,212.967 176.139,213.3 177.5,209.5C 178.219,211.091 179.219,212.591 180.5,214C 179.069,214.465 177.903,215.299 177,216.5C 177,219.167 177,221.833 177,224.5C 172.017,214.621 170.684,204.287 173,193.5C 175.601,190.696 177.101,191.029 177.5,194.5 Z"/></g>
<g><path style="opacity:1" fill="#635d53" d="M 84.5,176.5 C 85.7942,177.29 86.9609,178.29 88,179.5C 88.4983,182.817 88.665,186.15 88.5,189.5C 87.8333,189.5 87.5,189.833 87.5,190.5C 84.9222,191.775 83.0888,193.775 82,196.5C 80.087,194.813 77.9203,194.313 75.5,195C 78.147,196.299 80.8137,197.632 83.5,199C 78.087,199.306 72.7536,198.973 67.5,198C 71.0046,198.657 74.0046,200.157 76.5,202.5C 75.624,203.251 74.624,203.751 73.5,204C 75.5844,204.697 77.2511,205.864 78.5,207.5C 70.3783,205.448 62.7117,206.448 55.5,210.5C 58.1994,204.636 62.8661,201.469 69.5,201C 65.4285,200.342 61.4285,200.675 57.5,202C 57.9889,203.552 57.3223,204.719 55.5,205.5C 55.631,204.761 55.4643,204.094 55,203.5C 53.324,204.061 51.9906,205.061 51,206.5C 50.3333,205.167 50.3333,203.833 51,202.5C 57.0693,198.031 63.9026,195.531 71.5,195C 70.0467,192.886 68.0467,191.552 65.5,191C 66.7051,189.624 68.0384,188.458 69.5,187.5C 69.369,188.239 69.5357,188.906 70,189.5C 75.0736,185.25 79.9069,180.917 84.5,176.5 Z"/></g>
<g><path style="opacity:1" fill="#28231e" d="M 87.5,190.5 C 85.9558,194.066 84.9558,197.566 84.5,201C 86.0503,203.459 88.0503,204.126 90.5,203C 91.8333,203.667 91.8333,204.333 90.5,205C 92.1012,205.273 93.6012,205.773 95,206.5C 96.5994,204.964 98.4328,204.464 100.5,205C 96.8333,207.167 93.1667,209.333 89.5,211.5C 88.0521,209.333 86.8854,207 86,204.5C 83.8586,201.509 81.0252,200.342 77.5,201C 79.684,203.016 81.684,205.183 83.5,207.5C 81.6683,206.349 80.0016,206.349 78.5,207.5C 77.2511,205.864 75.5844,204.697 73.5,204C 74.624,203.751 75.624,203.251 76.5,202.5C 74.0046,200.157 71.0046,198.657 67.5,198C 72.7536,198.973 78.087,199.306 83.5,199C 80.8137,197.632 78.147,196.299 75.5,195C 77.9203,194.313 80.087,194.813 82,196.5C 83.0888,193.775 84.9222,191.775 87.5,190.5 Z"/></g>
<g><path style="opacity:1" fill="#a79f8f" d="M 236.5,204.5 C 239.449,207.558 241.783,211.058 243.5,215C 243.333,215.5 243.167,216 243,216.5C 240.96,214.63 239.127,212.63 237.5,210.5C 236.797,208.284 235.464,206.451 233.5,205C 230.583,203.472 227.583,202.139 224.5,201C 229.386,199.748 233.386,200.915 236.5,204.5 Z"/></g>
<g><path style="opacity:1" fill="#a79f8f" d="M 55.5,210.5 C 53.1644,212.004 51.331,214.004 50,216.5C 49.8035,211.852 51.6369,208.185 55.5,205.5C 57.3223,204.719 57.9889,203.552 57.5,202C 61.4285,200.675 65.4285,200.342 69.5,201C 62.8661,201.469 58.1994,204.636 55.5,210.5 Z"/></g>
<g><path style="opacity:1" fill="#645f54" d="M 123.5,194.5 C 123.678,197.216 124.178,199.883 125,202.5C 127,205.167 129,205.167 131,202.5C 131.595,203.899 131.428,205.232 130.5,206.5C 131.325,207.386 132.325,207.719 133.5,207.5C 133.005,209.482 132.505,211.482 132,213.5C 131,211.5 130,209.5 129,207.5C 122.815,204.967 120.982,200.634 123.5,194.5 Z"/></g>
<g><path style="opacity:1" fill="#2a251f" d="M 206.5,191.5 C 208.532,192.561 209.866,194.228 210.5,196.5C 211.518,195.807 212.518,195.141 213.5,194.5C 214.552,194.351 215.552,194.517 216.5,195C 214.004,196.08 211.67,197.414 209.5,199C 210.793,199.49 212.127,199.657 213.5,199.5C 211.18,200.418 209.013,201.752 207,203.5C 206.194,206.446 204.861,209.112 203,211.5C 199.584,209.208 196.084,207.041 192.5,205C 194.898,204.626 197.231,204.626 199.5,205C 200.174,203.249 200.507,201.583 200.5,200C 198.5,200 196.5,200 194.5,200C 197.569,198.09 200.569,198.09 203.5,200C 202.833,200.333 202.167,200.667 201.5,201C 203.5,204.333 205.5,204.333 207.5,201C 207.848,198.275 207.182,195.608 205.5,193C 206.056,192.617 206.389,192.117 206.5,191.5 Z"/></g>
<g><path style="opacity:1" fill="#423c34" d="M 215.5,202.5 C 219.647,202.42 223.98,202.92 228.5,204C 229.823,204.816 230.489,205.983 230.5,207.5C 225.331,206.257 220.165,206.257 215,207.5C 213.989,207.108 213.489,206.441 213.5,205.5C 212.252,206.04 211.085,206.707 210,207.5C 210.906,205.103 212.74,203.437 215.5,202.5 Z"/></g>
<g><path style="opacity:1" fill="#655f54" d="M 119.5,211.5 C 117.7,210.395 116.533,211.061 116,213.5C 115.362,212.391 114.862,211.225 114.5,210C 115.394,206.224 115.728,202.39 115.5,198.5C 115.281,197.325 115.614,196.325 116.5,195.5C 117.142,200.944 118.142,206.277 119.5,211.5 Z"/></g>
<g><path style="opacity:1" fill="#676257" d="M 171.5,191.5 C 169.817,195.205 168.984,199.205 169,203.5C 164.35,205.804 161.683,209.471 161,214.5C 159.731,212.007 158.898,209.34 158.5,206.5C 159.552,206.649 160.552,206.483 161.5,206C 160.269,204.817 160.269,203.651 161.5,202.5C 163.611,205.044 165.778,205.044 168,202.5C 168.667,199.5 168.667,196.5 168,193.5C 166.759,192.123 166.592,190.79 167.5,189.5C 168.524,190.853 169.857,191.52 171.5,191.5 Z"/></g>
<g><path style="opacity:1" fill="#726c60" d="M 223.5,197.5 C 224.209,196.596 225.209,196.263 226.5,196.5C 232.566,196.966 237.733,199.299 242,203.5C 242.454,208.522 241.62,208.522 239.5,203.5C 237.775,201.908 236.775,202.242 236.5,204.5C 233.386,200.915 229.386,199.748 224.5,201C 227.583,202.139 230.583,203.472 233.5,205C 235.464,206.451 236.797,208.284 237.5,210.5C 235.085,209.695 232.751,208.695 230.5,207.5C 230.489,205.983 229.823,204.816 228.5,204C 223.98,202.92 219.647,202.42 215.5,202.5C 218.753,200.771 221.419,199.104 223.5,197.5 Z"/></g>
<g><path style="opacity:1" fill="#f3f3f3" d="M 99.5,211.5 C 104.595,214.859 106.928,219.692 106.5,226C 107.212,232.076 104.879,236.576 99.5,239.5C 99.1667,238.5 98.8333,237.5 98.5,236.5C 99.6488,233.564 100.149,230.564 100,227.5C 97.4861,224.322 94.9861,221.156 92.5,218C 94.6652,215.669 96.9985,213.502 99.5,211.5 Z"/></g>
<g><path style="opacity:1" fill="#938d7f" d="M 234.5,213.5 C 233.761,213.369 233.094,213.536 232.5,214C 233.451,214.718 233.617,215.551 233,216.5C 232.005,215.934 231.172,215.267 230.5,214.5C 231.738,214.19 231.738,213.69 230.5,213C 218.572,208.54 210.238,212.04 205.5,223.5C 209.87,224.409 214.203,225.409 218.5,226.5C 220.912,226.694 221.912,228.027 221.5,230.5C 215.514,227.561 209.181,225.728 202.5,225C 204.761,222.228 206.261,219.062 207,215.5C 213.101,209.934 220.268,208.101 228.5,210C 230.727,210.941 232.727,212.108 234.5,213.5 Z"/></g>
<g><path style="opacity:1" fill="#b7ae9d" d="M 57.5,213.5 C 58.7348,213.721 59.7348,214.388 60.5,215.5C 61.1067,215.376 61.44,215.043 61.5,214.5C 67.2037,213.058 72.8703,213.225 78.5,215C 80.5402,217.185 81.8736,219.685 82.5,222.5C 78.3159,222.592 74.9826,224.259 72.5,227.5C 70.9519,227.821 70.2852,228.821 70.5,230.5C 69.7095,231.401 68.7095,232.068 67.5,232.5C 62.4419,227.382 58.1086,221.715 54.5,215.5C 55.5,214.833 56.5,214.167 57.5,213.5 Z"/></g>
<g><path style="opacity:1" fill="#1e1d1b" d="M 72.5,227.5 C 74.9826,224.259 78.3159,222.592 82.5,222.5C 81.8736,219.685 80.5402,217.185 78.5,215C 72.8703,213.225 67.2037,213.058 61.5,214.5C 61.9528,213.542 62.6195,212.708 63.5,212C 68.9042,211.228 74.2375,211.561 79.5,213C 80.9308,213.465 82.0975,214.299 83,215.5C 83.8854,218 85.0521,220.333 86.5,222.5C 81.8304,224.168 77.1637,225.834 72.5,227.5 Z"/></g>
<g><path style="opacity:1" fill="#918b7d" d="M 155.5,210.5 C 156.043,210.56 156.376,210.893 156.5,211.5C 155.474,213.831 154.14,215.831 152.5,217.5C 150.519,219.144 148.519,220.81 146.5,222.5C 143.814,220.144 141.147,217.811 138.5,215.5C 138.167,214.5 137.5,213.833 136.5,213.5C 135.588,212.262 135.421,210.928 136,209.5C 139.509,213.209 143.009,216.875 146.5,220.5C 149.522,217.147 152.522,213.813 155.5,210.5 Z"/></g>
<g><path style="opacity:1" fill="#1e1d1b" d="M 230.5,214.5 C 224.502,212.873 218.668,213.206 213,215.5C 211.882,217.765 211.049,220.099 210.5,222.5C 213.754,222.794 216.421,224.127 218.5,226.5C 214.203,225.409 209.87,224.409 205.5,223.5C 210.238,212.04 218.572,208.54 230.5,213C 231.738,213.69 231.738,214.19 230.5,214.5 Z"/></g>
<g><path style="opacity:1" fill="#b7ae9d" d="M 230.5,214.5 C 231.172,215.267 232.005,215.934 233,216.5C 233.617,215.551 233.451,214.718 232.5,214C 233.094,213.536 233.761,213.369 234.5,213.5C 235.71,213.932 236.71,214.599 237.5,215.5C 237.046,218.14 235.879,220.473 234,222.5C 231.032,226.174 227.866,229.507 224.5,232.5C 223.29,232.068 222.29,231.401 221.5,230.5C 221.912,228.027 220.912,226.694 218.5,226.5C 216.421,224.127 213.754,222.794 210.5,222.5C 211.049,220.099 211.882,217.765 213,215.5C 218.668,213.206 224.502,212.873 230.5,214.5 Z"/></g>
<g><path style="opacity:1" fill="#36342f" d="M 124.5,232.5 C 124.607,230.621 124.107,230.288 123,231.5C 122.308,230.975 121.808,230.308 121.5,229.5C 122.154,227.885 122.654,226.218 123,224.5C 123.691,226.891 124.691,226.891 126,224.5C 127.436,221.857 127.602,219.19 126.5,216.5C 125.526,218.743 125.192,221.076 125.5,223.5C 124.448,223.649 123.448,223.483 122.5,223C 124.662,220.478 124.995,217.645 123.5,214.5C 122.817,214.137 122.15,213.804 121.5,213.5C 121.857,211.411 122.523,209.411 123.5,207.5C 125.481,208.105 125.815,209.105 124.5,210.5C 125.015,212.225 125.682,213.892 126.5,215.5C 128.535,213.088 129.535,213.755 129.5,217.5C 128.956,219.674 128.956,221.674 129.5,223.5C 128.045,226.755 126.378,229.755 124.5,232.5 Z"/></g>
<g><path style="opacity:1" fill="#9a9385" d="M 170.5,212.5 C 171.829,216.822 173.163,221.155 174.5,225.5C 173.542,225.047 172.708,224.381 172,223.5C 171.784,221.616 171.117,219.949 170,218.5C 170.263,219.951 170.096,221.284 169.5,222.5C 168.041,218.86 168.374,215.527 170.5,212.5 Z"/></g>
<g><path style="opacity:1" fill="#eaeaea" d="M 190.5,212.5 C 194.44,212.803 197.44,214.636 199.5,218C 198.083,221.416 195.916,224.249 193,226.5C 193.27,230.869 193.104,235.202 192.5,239.5C 189.81,237.644 187.644,235.311 186,232.5C 185.333,227.833 185.333,223.167 186,218.5C 188.102,216.905 189.602,214.905 190.5,212.5 Z"/></g>
<g><path style="opacity:1" fill="#928b7e" d="M 70.5,230.5 C 70.2852,228.821 70.9519,227.821 72.5,227.5C 77.1637,225.834 81.8304,224.168 86.5,222.5C 85.0521,220.333 83.8854,218 83,215.5C 82.0975,214.299 80.9308,213.465 79.5,213C 74.2375,211.561 68.9042,211.228 63.5,212C 62.6195,212.708 61.9528,213.542 61.5,214.5C 61.44,215.043 61.1067,215.376 60.5,215.5C 59.7348,214.388 58.7348,213.721 57.5,213.5C 61.0634,210.702 65.2301,209.369 70,209.5C 80.393,209.389 86.893,214.389 89.5,224.5C 82.8831,225.644 76.5498,227.644 70.5,230.5 Z"/></g>
<g><path style="opacity:1" fill="#6e685d" d="M 138.5,215.5 C 140.408,219.08 143.074,222.08 146.5,224.5C 149.266,222.741 151.266,220.407 152.5,217.5C 153.688,216.316 154.855,216.316 156,217.5C 157.951,223.362 160.285,229.029 163,234.5C 163.816,235.823 164.983,236.489 166.5,236.5C 167.124,236.917 167.457,237.584 167.5,238.5C 166.612,240.155 166.112,241.822 166,243.5C 167.813,243.747 169.647,244.08 171.5,244.5C 171.114,248.85 168.781,250.517 164.5,249.5C 164.5,248.167 164.5,246.833 164.5,245.5C 153.512,246.416 142.512,246.583 131.5,246C 130.167,245.667 128.833,245.333 127.5,245C 129.612,243.783 129.279,242.617 126.5,241.5C 130.466,233.889 133.633,225.889 136,217.5C 136.417,216.244 137.25,215.577 138.5,215.5 Z"/></g>
<g><path style="opacity:1" fill="#383630" d="M 138.5,215.5 C 141.147,217.811 143.814,220.144 146.5,222.5C 148.519,220.81 150.519,219.144 152.5,217.5C 151.266,220.407 149.266,222.741 146.5,224.5C 143.074,222.08 140.408,219.08 138.5,215.5 Z"/></g>
<g><path style="opacity:1" fill="#6d675c" d="M 237.5,215.5 C 241.825,219.441 243.159,224.107 241.5,229.5C 240.024,227.231 238.524,224.898 237,222.5C 234.026,224.5 231.526,227 229.5,230C 230.477,231.682 231.144,233.516 231.5,235.5C 228.519,235.818 226.185,234.818 224.5,232.5C 227.866,229.507 231.032,226.174 234,222.5C 235.879,220.473 237.046,218.14 237.5,215.5 Z"/></g>
<g><path style="opacity:1" fill="#797468" d="M 121.5,213.5 C 122.15,213.804 122.817,214.137 123.5,214.5C 124.995,217.645 124.662,220.478 122.5,223C 123.448,223.483 124.448,223.649 125.5,223.5C 125.192,221.076 125.526,218.743 126.5,216.5C 127.602,219.19 127.436,221.857 126,224.5C 124.691,226.891 123.691,226.891 123,224.5C 122.654,226.218 122.154,227.885 121.5,229.5C 121.808,230.308 122.308,230.975 123,231.5C 124.107,230.288 124.607,230.621 124.5,232.5C 122.975,235.563 120.975,238.23 118.5,240.5C 118.631,239.761 118.464,239.094 118,238.5C 116,239.833 114,241.167 112,242.5C 111.383,243.449 111.549,244.282 112.5,245C 111.053,247.49 110.053,247.657 109.5,245.5C 110.585,241.246 113.252,238.413 117.5,237C 118.167,235.667 118.833,234.333 119.5,233C 118.354,232.355 117.354,231.522 116.5,230.5C 113.388,233.28 111.055,236.614 109.5,240.5C 108.675,241.386 107.675,241.719 106.5,241.5C 109.78,236.38 113.28,231.38 117,226.5C 119.079,222.347 120.579,218.014 121.5,213.5 Z"/></g>
<g><path style="opacity:1" fill="#655f55" d="M 54.5,215.5 C 58.1086,221.715 62.4419,227.382 67.5,232.5C 67.5,233.167 67.1667,233.5 66.5,233.5C 65.1882,232.855 64.1882,231.855 63.5,230.5C 62.3112,229.571 60.9778,229.238 59.5,229.5C 59.7163,227.319 58.883,225.653 57,224.5C 54.5818,225.433 52.7485,227.433 51.5,230.5C 49.615,228.205 49.115,225.538 50,222.5C 51.0259,219.761 52.5259,217.428 54.5,215.5 Z"/></g>
<g><path style="opacity:1" fill="#38322a" d="M 155.5,210.5 C 156.472,209.249 157.139,209.582 157.5,211.5C 159.517,220.221 162.517,228.555 166.5,236.5C 164.983,236.489 163.816,235.823 163,234.5C 160.285,229.029 157.951,223.362 156,217.5C 154.855,216.316 153.688,216.316 152.5,217.5C 154.14,215.831 155.474,213.831 156.5,211.5C 156.376,210.893 156.043,210.56 155.5,210.5 Z"/></g>
<g><path style="opacity:1" fill="#47433c" d="M 241.5,229.5 C 239.163,232.681 236.996,236.014 235,239.5C 234.508,238.451 234.674,237.451 235.5,236.5C 234.311,235.571 232.978,235.238 231.5,235.5C 231.144,233.516 230.477,231.682 229.5,230C 231.526,227 234.026,224.5 237,222.5C 238.524,224.898 240.024,227.231 241.5,229.5 Z"/></g>
<g><path style="opacity:1" fill="#3a332b" d="M 136.5,213.5 C 137.5,213.833 138.167,214.5 138.5,215.5C 137.25,215.577 136.417,216.244 136,217.5C 133.633,225.889 130.466,233.889 126.5,241.5C 125.373,240.878 124.373,240.045 123.5,239C 128.656,231.52 132.322,223.354 134.5,214.5C 134.957,213.702 135.624,213.369 136.5,213.5 Z"/></g>
<g><path style="opacity:1" fill="#a9a191" d="M 74.5,232.5 C 74.5,231.833 74.5,231.167 74.5,230.5C 80.6902,227.376 87.0235,226.876 93.5,229C 86.9229,229.004 80.5896,230.171 74.5,232.5 Z"/></g>
<g><path style="opacity:1" fill="#a09889" d="M 217.5,230.5 C 217.672,231.492 217.338,232.158 216.5,232.5C 210.742,230.222 204.742,229.055 198.5,229C 204.961,226.978 211.294,227.478 217.5,230.5 Z"/></g>
<g><path style="opacity:1" fill="#605b51" d="M 170.5,212.5 C 168.374,215.527 168.041,218.86 169.5,222.5C 170.096,221.284 170.263,219.951 170,218.5C 171.117,219.949 171.784,221.616 172,223.5C 172.708,224.381 173.542,225.047 174.5,225.5C 179.983,233.578 186.317,241.078 193.5,248C 198.554,250.389 203.054,253.555 207,257.5C 208.289,259.055 208.956,260.721 209,262.5C 206.936,259.726 204.436,257.893 201.5,257C 205.175,259.828 207.842,263.328 209.5,267.5C 207.299,264.979 204.966,262.479 202.5,260C 201.833,259.333 201.167,259.333 200.5,260C 202.937,261.279 203.437,262.779 202,264.5C 200.378,262.094 198.211,260.261 195.5,259C 195.728,258.601 196.062,258.435 196.5,258.5C 197.5,258.5 198.5,258.5 199.5,258.5C 198.53,255.339 196.863,252.506 194.5,250C 193.101,249.405 191.768,249.572 190.5,250.5C 189.749,249.624 189.249,248.624 189,247.5C 188.292,248.381 187.458,249.047 186.5,249.5C 185.699,247.958 185.366,246.292 185.5,244.5C 183.312,239.983 180.145,235.316 176,230.5C 174.513,232.272 174.18,234.272 175,236.5C 177.333,238.5 179.667,240.5 182,242.5C 183.009,244.025 183.509,245.692 183.5,247.5C 183.389,248.117 183.056,248.617 182.5,249C 184.041,250.371 185.375,251.871 186.5,253.5C 182.598,251.107 179.098,248.107 176,244.5C 171.943,239.442 168.276,234.108 165,228.5C 163.494,223.254 163.161,217.921 164,212.5C 165.698,215.61 166.698,218.943 167,222.5C 167.27,218.627 167.77,214.794 168.5,211C 166.064,209.668 166.064,208.501 168.5,207.5C 169.322,209.139 169.989,210.805 170.5,212.5 Z"/></g>
<g><path style="opacity:1" fill="#0e0d0c" d="M 185.5,244.5 C 184.833,245.5 184.167,246.5 183.5,247.5C 183.509,245.692 183.009,244.025 182,242.5C 179.667,240.5 177.333,238.5 175,236.5C 174.18,234.272 174.513,232.272 176,230.5C 180.145,235.316 183.312,239.983 185.5,244.5 Z"/></g>
<g><path style="opacity:1" fill="#46423b" d="M 66.5,233.5 C 66.3893,234.117 66.056,234.617 65.5,235C 62.5,235.333 59.5,235.667 56.5,236C 58.8781,238.211 59.8781,240.711 59.5,243.5C 57.0731,238.971 54.4064,234.638 51.5,230.5C 52.7485,227.433 54.5818,225.433 57,224.5C 58.883,225.653 59.7163,227.319 59.5,229.5C 60.9778,229.238 62.3112,229.571 63.5,230.5C 64.1882,231.855 65.1882,232.855 66.5,233.5 Z"/></g>
<g><path style="opacity:1" fill="#0e0e0c" d="M 109.5,245.5 C 108.732,246.263 108.232,247.263 108,248.5C 107.338,246.187 106.838,243.854 106.5,241.5C 107.675,241.719 108.675,241.386 109.5,240.5C 111.055,236.614 113.388,233.28 116.5,230.5C 117.354,231.522 118.354,232.355 119.5,233C 118.833,234.333 118.167,235.667 117.5,237C 113.252,238.413 110.585,241.246 109.5,245.5 Z"/></g>
<g><path style="opacity:1" fill="#a69e8f" d="M 211.5,233.5 C 208.359,234.321 205.025,234.821 201.5,235C 200.868,238.27 200.201,241.437 199.5,244.5C 198.833,244.167 198.167,243.833 197.5,243.5C 198.114,239.865 198.448,236.198 198.5,232.5C 202.931,232.231 207.265,232.564 211.5,233.5 Z"/></g>
<g><path style="opacity:1" fill="#625c52" d="M 74.5,230.5 C 74.5,231.167 74.5,231.833 74.5,232.5C 67.8842,235.793 63.8842,241.127 62.5,248.5C 60.9982,244.845 61.4982,241.511 64,238.5C 67.2603,235.46 70.7603,232.794 74.5,230.5 Z"/></g>
<g><path style="opacity:1" fill="#716b5f" d="M 80.5,233.5 C 83.9619,234.482 87.6286,234.815 91.5,234.5C 91.3359,237.187 91.5026,239.854 92,242.5C 92.2784,243.416 92.7784,244.082 93.5,244.5C 87.1153,248.045 81.782,252.879 77.5,259C 76.2068,259.49 74.8734,259.657 73.5,259.5C 71.9185,252.613 71.2518,245.613 71.5,238.5C 73.7158,235.556 76.7158,233.889 80.5,233.5 Z"/></g>
<g><path style="opacity:1" fill="#716b5f" d="M 211.5,233.5 C 214.682,234.594 217.682,235.928 220.5,237.5C 221.89,244.662 221.223,251.662 218.5,258.5C 217.833,258.833 217.167,259.167 216.5,259.5C 211.161,254.163 205.495,249.163 199.5,244.5C 200.201,241.437 200.868,238.27 201.5,235C 205.025,234.821 208.359,234.321 211.5,233.5 Z"/></g>
<g><path style="opacity:1" fill="#5d584e" d="M 217.5,230.5 C 222.369,232.859 226.535,236.193 230,240.5C 232.121,243.457 231.954,246.124 229.5,248.5C 228.371,240.387 224.038,235.054 216.5,232.5C 217.338,232.158 217.672,231.492 217.5,230.5 Z"/></g>
<g><path style="opacity:1" fill="#9e9788" d="M 94.5,241.5 C 94.7373,242.791 94.404,243.791 93.5,244.5C 92.7784,244.082 92.2784,243.416 92,242.5C 91.5026,239.854 91.3359,237.187 91.5,234.5C 87.6286,234.815 83.9619,234.482 80.5,233.5C 89.7559,228.683 94.4225,231.349 94.5,241.5 Z"/></g>
<g><path style="opacity:1" fill="#a7a6a3" d="M 162.5,237.5 C 166.701,237.442 167.201,238.442 164,240.5C 163.517,241.448 163.351,242.448 163.5,243.5C 162.5,243.5 161.5,243.5 160.5,243.5C 160.253,241.142 160.919,239.142 162.5,237.5 Z"/></g>
<g><path style="opacity:1" fill="#38312a" d="M 220.5,237.5 C 224.661,241.164 226.661,245.83 226.5,251.5C 226.434,256.2 225.434,260.7 223.5,265C 224.732,268.39 225.566,268.223 226,264.5C 227.072,267.553 226.072,269.553 223,270.5C 219.713,270.13 216.713,269.13 214,267.5C 212.006,258.664 206.839,252.331 198.5,248.5C 197.548,246.955 197.215,245.288 197.5,243.5C 198.167,243.833 198.833,244.167 199.5,244.5C 205.495,249.163 211.161,254.163 216.5,259.5C 217.167,259.167 217.833,258.833 218.5,258.5C 221.223,251.662 221.89,244.662 220.5,237.5 Z"/></g>
<g><path style="opacity:1" fill="#39332b" d="M 71.5,238.5 C 71.2518,245.613 71.9185,252.613 73.5,259.5C 74.8734,259.657 76.2068,259.49 77.5,259C 81.782,252.879 87.1153,248.045 93.5,244.5C 94.404,243.791 94.7373,242.791 94.5,241.5C 95.6225,243.288 95.7891,245.288 95,247.5C 85.7026,251.629 79.8692,258.629 77.5,268.5C 74.6875,269.219 71.8541,269.886 69,270.5C 65.7454,269.468 64.912,267.468 66.5,264.5C 67.1667,265.167 67.8333,265.833 68.5,266.5C 68.8333,266.167 69.1667,265.833 69.5,265.5C 66.7641,258.812 65.9308,251.812 67,244.5C 67.5661,241.771 69.0661,239.771 71.5,238.5 Z"/></g>
<g><path style="opacity:1" fill="#171614" d="M 196.5,258.5 C 193.167,255.5 189.833,252.5 186.5,249.5C 187.458,249.047 188.292,248.381 189,247.5C 189.249,248.624 189.749,249.624 190.5,250.5C 191.768,249.572 193.101,249.405 194.5,250C 196.863,252.506 198.53,255.339 199.5,258.5C 198.5,258.5 197.5,258.5 196.5,258.5 Z"/></g>
<g><path style="opacity:1" fill="#59544b" d="M 118.5,240.5 C 116.913,243.268 115.08,245.935 113,248.5C 106.611,254.061 100.445,259.728 94.5,265.5C 93.9569,265.44 93.6236,265.107 93.5,264.5C 94.3128,263.186 95.3128,262.019 96.5,261C 95.0922,260.685 93.7589,261.018 92.5,262C 92.121,264.188 90.9543,266.355 89,268.5C 88.3828,267.551 88.5494,266.718 89.5,266C 88.8333,265.667 88.1667,265.333 87.5,265C 88.6872,263.981 89.6872,262.814 90.5,261.5C 89.1667,261.5 87.8333,261.5 86.5,261.5C 90.4803,257.144 89.8137,256.477 84.5,259.5C 85.8098,257.852 87.1431,256.186 88.5,254.5C 94.8828,250.647 100.883,246.314 106.5,241.5C 106.838,243.854 107.338,246.187 108,248.5C 108.232,247.263 108.732,246.263 109.5,245.5C 110.053,247.657 111.053,247.49 112.5,245C 111.549,244.282 111.383,243.449 112,242.5C 114,241.167 116,239.833 118,238.5C 118.464,239.094 118.631,239.761 118.5,240.5 Z"/></g>
<g><path style="opacity:1" fill="#161512" d="M 102.5,247.5 C 104.832,248.162 105.499,249.495 104.5,251.5C 101.454,255.561 97.4541,257.895 92.5,258.5C 93.382,255.844 94.7153,253.344 96.5,251C 98.8953,248.855 101.062,249.022 103,251.5C 103.195,250.181 103.028,248.847 102.5,247.5 Z"/></g>
<g><path style="opacity:1" fill="#575349" d="M 128.5,248.5 C 140.167,248.5 151.833,248.5 163.5,248.5C 164.824,254.777 165.824,261.11 166.5,267.5C 153.164,268.809 139.831,268.809 126.5,267.5C 127.101,261.158 127.768,254.824 128.5,248.5 Z"/></g>
<g><path style="opacity:1" fill="#030302" d="M 130.5,250.5 C 141.167,250.5 151.833,250.5 162.5,250.5C 163.441,255.733 163.441,260.9 162.5,266C 151.505,266.5 140.505,266.667 129.5,266.5C 129.324,261.12 129.658,255.787 130.5,250.5 Z"/></g>
<g><path style="opacity:1" fill="#45413a" d="M 94.5,265.5 C 90.7064,269.418 88.2064,274.084 87,279.5C 85.526,275.662 84.526,271.662 84,267.5C 83.3457,268.696 82.8457,268.696 82.5,267.5C 83.6405,265.922 84.1405,264.256 84,262.5C 83.0853,263.328 82.4186,264.328 82,265.5C 81.6381,263.021 82.4714,261.021 84.5,259.5C 89.8137,256.477 90.4803,257.144 86.5,261.5C 87.8333,261.5 89.1667,261.5 90.5,261.5C 89.6872,262.814 88.6872,263.981 87.5,265C 88.1667,265.333 88.8333,265.667 89.5,266C 88.5494,266.718 88.3828,267.551 89,268.5C 90.9543,266.355 92.121,264.188 92.5,262C 93.7589,261.018 95.0922,260.685 96.5,261C 95.3128,262.019 94.3128,263.186 93.5,264.5C 93.6236,265.107 93.9569,265.44 94.5,265.5 Z"/></g>
<g><path style="opacity:1" fill="#a9a191" d="M 120.5,265.5 C 119.157,272.389 117.49,279.222 115.5,286C 117.785,288.471 120.451,290.304 123.5,291.5C 122.167,291.5 120.833,291.5 119.5,291.5C 118.791,290.596 117.791,290.263 116.5,290.5C 114.034,290.101 112.034,288.935 110.5,287C 113.219,280.013 115.219,272.846 116.5,265.5C 117.833,265.5 119.167,265.5 120.5,265.5 Z"/></g>
<g><path style="opacity:1" fill="#706a5f" d="M 120.5,265.5 C 123.109,265.83 124.776,267.33 125.5,270C 139.571,272.294 153.571,271.961 167.5,269C 168.337,267.989 168.67,266.822 168.5,265.5C 169.833,265.5 171.167,265.5 172.5,265.5C 173.747,271.993 175.08,278.493 176.5,285C 176.415,286.107 176.081,287.107 175.5,288C 172.931,288.898 170.598,290.065 168.5,291.5C 153.458,294.144 138.458,294.144 123.5,291.5C 120.451,290.304 117.785,288.471 115.5,286C 117.49,279.222 119.157,272.389 120.5,265.5 Z"/></g>
<g><path style="opacity:1" fill="#9e9788" d="M 104.5,262.5 C 105.497,262.47 106.164,262.97 106.5,264C 104.564,270.032 102.23,275.866 99.5,281.5C 98.3861,280.277 98.2195,278.944 99,277.5C 100.547,272.356 102.38,267.356 104.5,262.5 Z"/></g>
<g><path style="opacity:1" fill="#423f38" d="M 185.5,244.5 C 185.366,246.292 185.699,247.958 186.5,249.5C 189.833,252.5 193.167,255.5 196.5,258.5C 196.062,258.435 195.728,258.601 195.5,259C 198.211,260.261 200.378,262.094 202,264.5C 203.437,262.779 202.937,261.279 200.5,260C 201.167,259.333 201.833,259.333 202.5,260C 204.966,262.479 207.299,264.979 209.5,267.5C 208.916,270.245 207.582,272.578 205.5,274.5C 206.52,276.432 206.687,278.432 206,280.5C 204.81,275.787 202.81,271.453 200,267.5C 195.297,262.965 190.797,258.298 186.5,253.5C 185.375,251.871 184.041,250.371 182.5,249C 183.056,248.617 183.389,248.117 183.5,247.5C 184.167,246.5 184.833,245.5 185.5,244.5 Z"/></g>
<g><path style="opacity:1" fill="#9c9586" d="M 185.5,262.5 C 187.124,262.36 188.29,263.027 189,264.5C 190.049,268.265 191.382,271.932 193,275.5C 193.667,277.5 193.667,279.5 193,281.5C 190.347,275.211 187.847,268.878 185.5,262.5 Z"/></g>
<g><path style="opacity:1" fill="#767676" d="M 217.5,275.5 C 220.167,275.833 222.833,276.167 225.5,276.5C 222.707,277.746 220.04,277.413 217.5,275.5 Z"/></g>
<g><path style="opacity:1" fill="#aaa292" d="M 168.5,291.5 C 170.598,290.065 172.931,288.898 175.5,288C 176.081,287.107 176.415,286.107 176.5,285C 175.08,278.493 173.747,271.993 172.5,265.5C 173.91,264.172 175.076,264.505 176,266.5C 177.833,273.333 179.667,280.167 181.5,287C 180.556,288.477 179.223,289.477 177.5,290C 174.522,290.696 171.522,291.196 168.5,291.5 Z"/></g>
<g><path style="opacity:1" fill="#373028" d="M 116.5,290.5 C 117.791,290.263 118.791,290.596 119.5,291.5C 121.244,293.163 124.577,293.996 129.5,294C 151.629,296.515 173.129,294.015 194,286.5C 195.257,286.85 195.591,287.517 195,288.5C 192.689,293.478 189.189,296.978 184.5,299C 187.04,296.795 189.207,294.295 191,291.5C 191.688,290.668 191.521,290.002 190.5,289.5C 185.417,290.972 180.417,292.639 175.5,294.5C 172.641,299.526 168.641,303.359 163.5,306C 152.167,306.667 140.833,306.667 129.5,306C 123.585,303.753 119.252,299.753 116.5,294C 111.735,292.801 107.069,291.301 102.5,289.5C 102.222,292.795 103.555,295.628 106.5,298C 103.199,297.052 100.699,294.885 99,291.5C 98.5983,290.128 98.0983,288.795 97.5,287.5C 97.8333,287.167 98.1667,286.833 98.5,286.5C 104.382,289.477 110.382,290.811 116.5,290.5 Z"/></g>
<g><path style="opacity:1" fill="#aba393" d="M 112.5,308.5 C 113.873,308.343 115.207,308.51 116.5,309C 112.765,312.884 112.598,317.051 116,321.5C 119.314,324.818 123.148,327.318 127.5,329C 126.552,329.483 125.552,329.649 124.5,329.5C 120.476,328.962 116.476,328.295 112.5,327.5C 114.671,326.755 117.005,326.588 119.5,327C 117.593,325.878 115.593,325.045 113.5,324.5C 107.703,321.207 106.203,316.54 109,310.5C 109.816,309.177 110.983,308.511 112.5,308.5 Z"/></g>
<g><path style="opacity:1" fill="#716b5f" d="M 112.5,308.5 C 118.161,307.131 123.828,307.631 129.5,310C 144.287,311.034 158.954,310.201 173.5,307.5C 174.914,309.054 176.581,310.388 178.5,311.5C 179.52,313.432 179.687,315.432 179,317.5C 175.632,323.203 170.799,327.037 164.5,329C 165.094,329.464 165.761,329.631 166.5,329.5C 152.5,332.167 138.5,332.167 124.5,329.5C 125.552,329.649 126.552,329.483 127.5,329C 123.148,327.318 119.314,324.818 116,321.5C 112.598,317.051 112.765,312.884 116.5,309C 115.207,308.51 113.873,308.343 112.5,308.5 Z"/></g>
<g><path style="opacity:1" fill="#888275" d="M 97.5,307.5 C 98.0936,309.091 98.0936,310.924 97.5,313C 97.6846,315.761 99.018,317.761 101.5,319C 93.7275,317.811 92.3942,313.978 97.5,307.5 Z"/></g>
<g><path style="opacity:1" fill="#847f72" d="M 194.5,307.5 C 196.666,309.452 197.999,311.952 198.5,315C 195.708,317.902 192.375,320.069 188.5,321.5C 187.304,321.154 187.304,320.654 188.5,320C 194.931,318.008 196.931,313.841 194.5,307.5 Z"/></g>
<g><path style="opacity:1" fill="#a59e8e" d="M 173.5,307.5 C 181.678,306.842 185.178,310.509 184,318.5C 182.093,322.039 179.26,324.539 175.5,326C 179.566,325.82 183.566,324.986 187.5,323.5C 188.167,323.667 188.833,323.833 189.5,324C 187.593,325.122 185.593,325.955 183.5,326.5C 177.94,328.038 172.274,329.038 166.5,329.5C 165.761,329.631 165.094,329.464 164.5,329C 170.799,327.037 175.632,323.203 179,317.5C 179.687,315.432 179.52,313.432 178.5,311.5C 176.581,310.388 174.914,309.054 173.5,307.5 Z"/></g>
<g><path style="opacity:1" fill="#7b7569" d="M 113.5,324.5 C 115.593,325.045 117.593,325.878 119.5,327C 117.005,326.588 114.671,326.755 112.5,327.5C 110.079,327.122 107.746,326.455 105.5,325.5C 103.193,324.347 100.86,323.18 98.5,322C 97.3044,321.346 97.3044,320.846 98.5,320.5C 103.312,323.566 108.312,324.899 113.5,324.5 Z"/></g>
<g><path style="opacity:1" fill="#373129" d="M 186.5,337.5 C 179.651,340.884 172.318,343.051 164.5,344C 144.627,347.106 125.294,345.272 106.5,338.5C 107.149,337.394 107.483,336.394 107.5,335.5C 108.768,336.428 110.101,336.595 111.5,336C 108.937,335.237 108.937,334.737 111.5,334.5C 117.763,335.733 117.763,334.899 111.5,332C 113.953,331.262 116.453,330.762 119,330.5C 137.331,333.148 155.664,333.148 174,330.5C 176.185,330.921 178.351,331.421 180.5,332C 179.692,332.308 179.025,332.808 178.5,333.5C 180.078,334.298 181.744,334.798 183.5,335C 180.456,335.359 180.122,336.026 182.5,337C 181.833,337.333 181.167,337.667 180.5,338C 182.488,338.18 184.488,338.014 186.5,337.5 Z"/></g>
<g><path style="opacity:1" fill="#221e19" d="M 105.5,325.5 C 107.746,326.455 110.079,327.122 112.5,327.5C 116.476,328.295 120.476,328.962 124.5,329.5C 138.5,332.167 152.5,332.167 166.5,329.5C 172.274,329.038 177.94,328.038 183.5,326.5C 183.917,327.124 184.584,327.457 185.5,327.5C 189.882,326.624 194.215,325.624 198.5,324.5C 198.22,327.287 196.887,329.453 194.5,331C 195.451,331.718 195.617,332.551 195,333.5C 192.603,335.782 189.769,337.116 186.5,337.5C 184.488,338.014 182.488,338.18 180.5,338C 181.167,337.667 181.833,337.333 182.5,337C 180.122,336.026 180.456,335.359 183.5,335C 181.744,334.798 180.078,334.298 178.5,333.5C 179.025,332.808 179.692,332.308 180.5,332C 178.351,331.421 176.185,330.921 174,330.5C 155.664,333.148 137.331,333.148 119,330.5C 116.453,330.762 113.953,331.262 111.5,332C 117.763,334.899 117.763,335.733 111.5,334.5C 108.937,334.737 108.937,335.237 111.5,336C 110.101,336.595 108.768,336.428 107.5,335.5C 107.483,336.394 107.149,337.394 106.5,338.5C 103.497,337.582 100.663,336.249 98,334.5C 97.3411,331.833 96.1744,329 94.5,326C 94.8333,325.5 95.1667,325 95.5,324.5C 98.8903,326.197 102.224,326.53 105.5,325.5 Z"/></g>
<g><path style="opacity:1" fill="#706a5e" d="M 184.5,342.5 C 187.469,344.478 189.802,347.144 191.5,350.5C 189.334,354.831 186,357.998 181.5,360C 182.094,360.464 182.761,360.631 183.5,360.5C 172.05,362.508 160.383,363.341 148.5,363C 155.167,357.667 161.833,352.333 168.5,347C 173.868,345.492 179.201,343.992 184.5,342.5 Z"/></g>
<g><path style="opacity:1" fill="#6f695d" d="M 107.5,342.5 C 117.384,346.511 127.717,348.678 138.5,349C 129.064,353.718 119.398,357.885 109.5,361.5C 109.5,361.167 109.5,360.833 109.5,360.5C 110.239,360.631 110.906,360.464 111.5,360C 106.846,357.676 103.179,354.342 100.5,350C 102.882,347.491 105.215,344.991 107.5,342.5 Z"/></g>
<g><path style="opacity:1" fill="#827c70" d="M 206.5,352.5 C 207.303,351.577 207.47,350.577 207,349.5C 204.261,346.882 201.427,344.382 198.5,342C 202.977,343.916 207.311,346.416 211.5,349.5C 210.312,351.262 208.645,352.262 206.5,352.5 Z"/></g>
<g><path style="opacity:1" fill="#8b8477" d="M 92.5,341.5 C 94.8418,341.775 94.8418,342.608 92.5,344C 89.0634,347.035 85.3968,349.535 81.5,351.5C 81.281,350.325 81.6143,349.325 82.5,348.5C 85.8998,346.144 89.2331,343.811 92.5,341.5 Z"/></g>
<g><path style="opacity:1" fill="#a9a191" d="M 184.5,342.5 C 189.984,343.139 193.984,345.972 196.5,351C 194.502,354.513 191.502,356.846 187.5,358C 190.475,358.044 193.475,357.877 196.5,357.5C 197.167,357.5 197.5,357.833 197.5,358.5C 195.139,358.674 192.806,359.007 190.5,359.5C 189.209,359.263 188.209,359.596 187.5,360.5C 186.167,360.5 184.833,360.5 183.5,360.5C 182.761,360.631 182.094,360.464 181.5,360C 186,357.998 189.334,354.831 191.5,350.5C 189.802,347.144 187.469,344.478 184.5,342.5 Z"/></g>
<g><path style="opacity:1" fill="#686357" d="M 144.5,348.5 C 146.199,348.34 147.866,348.506 149.5,349C 144.5,353.333 139.5,357.667 134.5,362C 129.136,362.829 123.802,362.663 118.5,361.5C 127.529,357.652 136.195,353.319 144.5,348.5 Z"/></g>
<g><path style="opacity:1" fill="#a29a8b" d="M 107.5,342.5 C 105.215,344.991 102.882,347.491 100.5,350C 103.179,354.342 106.846,357.676 111.5,360C 110.906,360.464 110.239,360.631 109.5,360.5C 103.833,359.833 98.1667,359.167 92.5,358.5C 90.9812,357.59 89.3146,356.757 87.5,356C 88,355.833 88.5,355.667 89,355.5C 94.1288,356.938 99.2955,357.772 104.5,358C 100.861,356.364 97.8609,354.03 95.5,351C 98.2833,346.442 102.283,343.609 107.5,342.5 Z"/></g>
<g><path style="opacity:1" fill="#555148" d="M 206.5,352.5 C 206.082,353.222 205.416,353.722 204.5,354C 206.301,354.317 206.634,354.984 205.5,356C 202.92,357.144 200.253,357.978 197.5,358.5C 197.5,357.833 197.167,357.5 196.5,357.5C 200.875,356.653 204.208,354.986 206.5,352.5 Z"/></g>
<g><path style="opacity:1" fill="#231f1a" d="M 92.5,358.5 C 98.1667,359.167 103.833,359.833 109.5,360.5C 109.5,360.833 109.5,361.167 109.5,361.5C 108.508,361.328 107.842,361.662 107.5,362.5C 104.927,361.445 102.261,361.278 99.5,362C 100.833,363 102.167,364 103.5,365C 100.167,365 96.8333,365 93.5,365C 95.6079,365.36 97.6079,366.027 99.5,367C 98.1011,367.595 96.7678,367.428 95.5,366.5C 93.8333,367.333 92.1667,368.167 90.5,369C 91.8989,369.595 93.2322,369.428 94.5,368.5C 96.5563,370.019 98.8896,370.853 101.5,371C 97.0037,371.852 92.6704,371.352 88.5,369.5C 87.7025,369.957 87.3691,370.624 87.5,371.5C 84.6887,371.174 82.022,370.341 79.5,369C 80.3081,368.692 80.9747,368.192 81.5,367.5C 79.1921,366.359 77.3587,364.692 76,362.5C 75.8598,360.479 75.6932,358.645 75.5,357C 76.1079,356.13 76.9412,355.63 78,355.5C 82.6939,357.205 87.5272,358.205 92.5,358.5 Z"/></g>
<g><path style="opacity:1" fill="#362f27" d="M 216.5,356.5 C 216.509,358.308 216.009,359.975 215,361.5C 213.622,359.146 212.122,359.146 210.5,361.5C 207.072,360.681 203.739,361.181 200.5,363C 202.878,363.974 202.544,364.641 199.5,365C 199.5,366 199.5,367 199.5,368C 198.5,368.333 197.5,368.667 196.5,369C 196.833,369.333 197.167,369.667 197.5,370C 193.128,370.421 188.795,371.088 184.5,372C 189.998,371.646 195.332,371.812 200.5,372.5C 162.747,378.149 125.081,377.816 87.5,371.5C 87.3691,370.624 87.7025,369.957 88.5,369.5C 92.6704,371.352 97.0037,371.852 101.5,371C 98.8896,370.853 96.5563,370.019 94.5,368.5C 93.2322,369.428 91.8989,369.595 90.5,369C 92.1667,368.167 93.8333,367.333 95.5,366.5C 96.7678,367.428 98.1011,367.595 99.5,367C 97.6079,366.027 95.6079,365.36 93.5,365C 96.8333,365 100.167,365 103.5,365C 102.167,364 100.833,363 99.5,362C 102.261,361.278 104.927,361.445 107.5,362.5C 134.936,366.886 162.269,366.386 189.5,361C 188.906,360.536 188.239,360.369 187.5,360.5C 188.209,359.596 189.209,359.263 190.5,359.5C 191.274,360.147 192.274,360.48 193.5,360.5C 200.553,359.037 207.553,357.371 214.5,355.5C 215.183,355.863 215.85,356.196 216.5,356.5 Z"/></g>
<g><path style="opacity:1" fill="#1f1c17" d="M 216.5,356.5 C 217.989,362.369 215.989,366.869 210.5,370C 207.111,370.776 203.778,371.609 200.5,372.5C 195.332,371.812 189.998,371.646 184.5,372C 188.795,371.088 193.128,370.421 197.5,370C 197.167,369.667 196.833,369.333 196.5,369C 197.5,368.667 198.5,368.333 199.5,368C 199.5,367 199.5,366 199.5,365C 202.544,364.641 202.878,363.974 200.5,363C 203.739,361.181 207.072,360.681 210.5,361.5C 212.122,359.146 213.622,359.146 215,361.5C 216.009,359.975 216.509,358.308 216.5,356.5 Z"/></g>
<g><path style="opacity:1" fill="#b2b2b2" d="M 195.5,381.5 C 190.731,382.889 185.731,383.556 180.5,383.5C 185.269,382.111 190.269,381.444 195.5,381.5 Z"/></g>
</svg>
