<?xml version="1.0" encoding="UTF-8"?>
<!DOCTYPE svg PUBLIC "-//W3C//DTD SVG 1.1//EN" "http://www.w3.org/Graphics/SVG/1.1/DTD/svg11.dtd">
<svg xmlns="http://www.w3.org/2000/svg" version="1.1" width="181px" height="323px" style="shape-rendering:geometricPrecision; text-rendering:geometricPrecision; image-rendering:optimizeQuality; fill-rule:evenodd; clip-rule:evenodd" xmlns:xlink="http://www.w3.org/1999/xlink">
<g><path style="opacity:1" fill="#fcfcfc" d="M -0.5,-0.5 C 59.8333,-0.5 120.167,-0.5 180.5,-0.5C 180.5,107.167 180.5,214.833 180.5,322.5C 120.167,322.5 59.8333,322.5 -0.5,322.5C -0.5,214.833 -0.5,107.167 -0.5,-0.5 Z"/></g>
<g><path style="opacity:1" fill="#b6b6b6" d="M 96.5,7.5 C 101.985,6.3483 107.651,6.18163 113.5,7C 115.041,8.37121 116.375,9.87121 117.5,11.5C 116.391,11.4431 115.391,11.1098 114.5,10.5C 114.389,9.88258 114.056,9.38258 113.5,9C 110.243,7.95713 106.91,7.45713 103.5,7.5C 101.167,7.5 98.8333,7.5 96.5,7.5 Z"/></g>
<g><path style="opacity:1" fill="#0e0c0a" d="M 96.5,7.5 C 98.8333,7.5 101.167,7.5 103.5,7.5C 106.87,9.13901 110.537,10.139 114.5,10.5C 115.391,11.1098 116.391,11.4431 117.5,11.5C 122.883,14.0475 127.883,17.2142 132.5,21C 136.318,26.6836 140.818,31.8503 146,36.5C 150.133,45.1351 156.633,51.1351 165.5,54.5C 165.973,55.9063 166.973,56.573 168.5,56.5C 169.398,57.1577 170.398,57.8243 171.5,58.5C 171.376,59.1067 171.043,59.44 170.5,59.5C 166.538,60.3755 162.538,61.0422 158.5,61.5C 158.232,63.099 158.566,64.4324 159.5,65.5C 160.933,67.5582 161.6,69.8915 161.5,72.5C 161.259,74.8984 161.926,76.8984 163.5,78.5C 165.28,91.0091 164.614,103.342 161.5,115.5C 160.129,117.936 159.129,120.603 158.5,123.5C 156.562,127.043 154.895,130.71 153.5,134.5C 152.732,135.263 152.232,136.263 152,137.5C 151.501,141.486 151.334,145.486 151.5,149.5C 151.81,152.713 151.477,155.713 150.5,158.5C 149.167,157.167 147.833,155.833 146.5,154.5C 146.5,153.833 146.167,153.5 145.5,153.5C 145.44,152.957 145.107,152.624 144.5,152.5C 143.186,157.652 143.186,162.652 144.5,167.5C 144.5,168.5 144.5,169.5 144.5,170.5C 144.587,175.537 144.254,180.537 143.5,185.5C 141.782,188.777 140.782,192.277 140.5,196C 141.215,201.503 141.882,207.003 142.5,212.5C 142.309,216.262 141.642,219.929 140.5,223.5C 139.89,224.391 139.557,225.391 139.5,226.5C 138.094,226.973 137.427,227.973 137.5,229.5C 135.267,233.078 132.601,236.412 129.5,239.5C 132.255,242.013 134.255,245.013 135.5,248.5C 135.427,250.027 136.094,251.027 137.5,251.5C 138.463,255.101 139.13,258.767 139.5,262.5C 138.85,264.435 138.517,266.435 138.5,268.5C 137.094,268.973 136.427,269.973 136.5,271.5C 136.297,273.39 136.963,274.89 138.5,276C 144.272,278.634 149.439,282.134 154,286.5C 156.281,291.908 156.948,297.574 156,303.5C 149.698,308.335 142.531,311.002 134.5,311.5C 130.64,311.808 126.974,312.475 123.5,313.5C 99.6791,315.695 75.6791,316.028 51.5,314.5C 46.7271,312.978 41.7271,311.978 36.5,311.5C 31.3278,310.668 26.3278,309.335 21.5,307.5C 21.0269,306.094 20.0269,305.427 18.5,305.5C 15.9879,303.763 14.9879,301.263 15.5,298C 15.6667,296.167 15.8333,294.333 16,292.5C 16.3826,291.944 16.8826,291.611 17.5,291.5C 19.357,289.718 20.357,287.385 20.5,284.5C 21.1667,284.5 21.5,284.167 21.5,283.5C 23.0269,283.573 24.0269,282.906 24.5,281.5C 29.1889,279.482 33.1889,276.482 36.5,272.5C 35.5331,270.238 34.8664,267.905 34.5,265.5C 34.1497,260.009 34.8164,254.676 36.5,249.5C 38.3706,246.261 40.3706,243.094 42.5,240C 38.3212,236.154 34.4879,231.988 31,227.5C 29.9777,225.298 29.4777,222.965 29.5,220.5C 30.1148,216.829 30.2815,213.162 30,209.5C 26.1673,206.45 23.334,202.784 21.5,198.5C 20.4005,193.856 18.7339,189.522 16.5,185.5C 16.573,183.973 15.9063,182.973 14.5,182.5C 13.1667,177.5 13.1667,172.5 14.5,167.5C 15.5014,164.828 16.5014,162.162 17.5,159.5C 19.2451,157.967 20.2451,155.967 20.5,153.5C 21.7283,146.07 24.395,139.236 28.5,133C 34.2453,130.54 40.2453,129.873 46.5,131C 49.6207,131.726 52.2873,133.226 54.5,135.5C 55.48,132.914 55.8134,130.247 55.5,127.5C 57.109,121.733 58.109,115.733 58.5,109.5C 61.4488,107.627 63.4488,104.961 64.5,101.5C 65.9931,100.688 66.6598,99.3545 66.5,97.5C 66.4805,96.2739 66.1471,95.2739 65.5,94.5C 62.1447,93.1448 59.8114,90.8114 58.5,87.5C 58.4013,84.7628 58.7347,82.0961 59.5,79.5C 61.7053,77.6366 63.0387,75.3033 63.5,72.5C 57.6766,70.6828 53.3433,67.0162 50.5,61.5C 48.2976,54.6016 47.9643,47.6016 49.5,40.5C 49.5,40.1667 49.5,39.8333 49.5,39.5C 50.9063,39.0269 51.573,38.0269 51.5,36.5C 57.1439,27.7075 65.1439,22.2075 75.5,20C 78.3872,16.6105 81.7205,13.7772 85.5,11.5C 89.3948,10.5376 93.0615,9.20427 96.5,7.5 Z"/></g>
<g><path style="opacity:1" fill="#5a5a5a" d="M 103.5,7.5 C 106.91,7.45713 110.243,7.95713 113.5,9C 114.056,9.38258 114.389,9.88258 114.5,10.5C 110.537,10.139 106.87,9.13901 103.5,7.5 Z"/></g>
<g><path style="opacity:1" fill="#6e6e6e" d="M 96.5,7.5 C 93.0615,9.20427 89.3948,10.5376 85.5,11.5C 88.6257,9.01034 92.2924,7.677 96.5,7.5 Z"/></g>
<g><path style="opacity:1" fill="#68645a" d="M 119.5,27.5 C 117.143,27.3367 114.81,27.5034 112.5,28C 111.058,28.3768 110.058,29.2101 109.5,30.5C 108.833,30.5 108.167,30.5 107.5,30.5C 101.57,33.2617 97.0701,37.595 94,43.5C 93.8648,41.0784 94.3648,38.7451 95.5,36.5C 97.6281,33.8697 99.9614,31.3697 102.5,29C 101.833,28.3333 101.167,28.3333 100.5,29C 98.2368,30.617 96.2368,32.4503 94.5,34.5C 93.475,34.1034 93.3083,33.4368 94,32.5C 98.0128,27.1596 103.179,23.3262 109.5,21C 106.696,20.5403 104.029,21.0403 101.5,22.5C 101.167,22.1667 100.833,21.8333 100.5,21.5C 101.908,20.7568 103.241,19.9234 104.5,19C 101.861,18.4119 99.5273,18.9119 97.5,20.5C 96.609,21.1098 95.609,21.4431 94.5,21.5C 93.2617,21.19 93.2617,20.69 94.5,20C 90.0194,20.6189 86.3528,22.7855 83.5,26.5C 76.4443,34.516 73.9443,43.8493 76,54.5C 77.1984,59.1437 77.865,63.8104 78,68.5C 76.5187,67.5291 75.6854,66.1958 75.5,64.5C 72.8873,56.3976 71.8873,48.0643 72.5,39.5C 74.9235,27.2422 81.9235,18.7422 93.5,14C 104.647,12.1201 114.647,14.6201 123.5,21.5C 120.065,22.3673 116.732,23.5339 113.5,25C 116.051,25.0023 118.051,25.8356 119.5,27.5 Z"/></g>
<g><path style="opacity:1" fill="#2a251f" d="M 94.5,34.5 C 89.5135,39.4699 86.3469,45.4699 85,52.5C 84.8137,47.0743 85.9804,41.9077 88.5,37C 88.3333,36.5 88.1667,36 88,35.5C 87,36.8333 86,38.1667 85,39.5C 81.7594,54.0027 81.0928,54.0027 83,39.5C 86.389,31.4446 91.889,25.278 99.5,21C 98.9056,20.5357 98.2389,20.369 97.5,20.5C 99.5273,18.9119 101.861,18.4119 104.5,19C 103.241,19.9234 101.908,20.7568 100.5,21.5C 100.833,21.8333 101.167,22.1667 101.5,22.5C 104.029,21.0403 106.696,20.5403 109.5,21C 103.179,23.3262 98.0128,27.1596 94,32.5C 93.3083,33.4368 93.475,34.1034 94.5,34.5 Z"/></g>
<g><path style="opacity:1" fill="#625d56" d="M 134.5,52.5 C 132.426,51.4861 130.426,50.4861 128.5,49.5C 129.725,48.8478 130.392,47.6811 130.5,46C 130.013,41.6698 128.013,38.1698 124.5,35.5C 123.509,39.4454 123.176,43.4454 123.5,47.5C 119.5,47.5 115.5,47.5 111.5,47.5C 114.287,46.5233 117.287,46.19 120.5,46.5C 119.89,40.5093 120.89,34.8426 123.5,29.5C 130.653,35.4726 134.319,43.1392 134.5,52.5 Z"/></g>
<g><path style="opacity:1" fill="#5f5d55" d="M 142.5,43.5 C 142.565,43.9382 142.399,44.2716 142,44.5C 140.281,41.7121 138.115,39.3788 135.5,37.5C 132.854,35.5211 130.521,33.1878 128.5,30.5C 129.79,29.5923 131.123,29.759 132.5,31C 136.807,34.4647 140.141,38.6313 142.5,43.5 Z"/></g>
<g><path style="opacity:1" fill="#151312" d="M 128.5,49.5 C 126.597,49.2041 124.93,48.5375 123.5,47.5C 123.176,43.4454 123.509,39.4454 124.5,35.5C 128.013,38.1698 130.013,41.6698 130.5,46C 130.392,47.6811 129.725,48.8478 128.5,49.5 Z"/></g>
<g><path style="opacity:1" fill="#2d2923" d="M 119.5,27.5 C 119.67,28.8221 119.337,29.9887 118.5,31C 110.452,33.0293 104.119,37.5293 99.5,44.5C 99.5098,41.6563 100.843,39.1563 103.5,37C 107.204,34.1483 111.204,31.815 115.5,30C 113.455,29.5099 111.455,29.6765 109.5,30.5C 110.058,29.2101 111.058,28.3768 112.5,28C 114.81,27.5034 117.143,27.3367 119.5,27.5 Z"/></g>
<g><path style="opacity:1" fill="#858585" d="M 51.5,36.5 C 51.573,38.0269 50.9063,39.0269 49.5,39.5C 49.427,37.9731 50.0937,36.9731 51.5,36.5 Z"/></g>
<g><path style="opacity:1" fill="#3e3b35" d="M 135.5,37.5 C 138.115,39.3788 140.281,41.7121 142,44.5C 142.399,44.2716 142.565,43.9382 142.5,43.5C 144.5,44.8333 146.167,46.5 147.5,48.5C 146.355,49.7927 146.689,50.9593 148.5,52C 146.86,52.3478 145.527,51.8478 144.5,50.5C 145.525,50.1034 145.692,49.4368 145,48.5C 143.084,46.7905 140.918,45.4572 138.5,44.5C 136.991,42.3436 135.991,40.0103 135.5,37.5 Z"/></g>
<g><path style="opacity:1" fill="#3b362e" d="M 107.5,30.5 C 104.176,33.3235 101.01,36.3235 98,39.5C 95.4433,43.9447 93.4433,48.6113 92,53.5C 90.6667,54.8333 89.3333,56.1667 88,57.5C 87.1318,49.2476 89.6318,42.2476 95.5,36.5C 94.3648,38.7451 93.8648,41.0784 94,43.5C 97.0701,37.595 101.57,33.2617 107.5,30.5 Z"/></g>
<g><path style="opacity:1" fill="#3f3e3f" d="M 49.5,40.5 C 47.9643,47.6016 48.2976,54.6016 50.5,61.5C 49.1201,61.0377 48.4534,60.0377 48.5,58.5C 47.4311,53.1996 47.2644,47.8662 48,42.5C 48.2784,41.5842 48.7784,40.9175 49.5,40.5 Z"/></g>
<g><path style="opacity:1" fill="#615e56" d="M 62.5,32.5 C 63.2389,32.369 63.9056,32.5357 64.5,33C 62.7253,37.0435 61.392,41.2101 60.5,45.5C 60.6036,50.8135 61.937,55.8135 64.5,60.5C 64.3333,60.8333 64.1667,61.1667 64,61.5C 62.3308,60.1537 61.1642,58.487 60.5,56.5C 59.7739,53.8206 58.9406,51.154 58,48.5C 57.8138,51.0356 57.3138,53.369 56.5,55.5C 55.8951,52.8733 55.3951,50.2066 55,47.5C 54.2974,50.7125 54.4641,53.8792 55.5,57C 55.0556,58.7618 54.5556,58.5951 54,56.5C 51.813,46.552 54.6464,38.552 62.5,32.5 Z"/></g>
<g><path style="opacity:1" fill="#332f2b" d="M 142.5,49.5 C 141.957,49.56 141.624,49.8933 141.5,50.5C 142.358,53.6195 143.358,56.6195 144.5,59.5C 142.592,56.7201 140.425,54.0534 138,51.5C 137.202,49.7412 137.369,48.0745 138.5,46.5C 139.799,47.6937 141.132,48.6937 142.5,49.5 Z"/></g>
<g><path style="opacity:1" fill="#353029" d="M 94.5,21.5 C 84.4031,29.2198 78.9031,39.5531 78,52.5C 76.8175,43.2326 78.9841,34.8993 84.5,27.5C 84.3764,26.8933 84.0431,26.56 83.5,26.5C 86.3528,22.7855 90.0194,20.6189 94.5,20C 93.2617,20.69 93.2617,21.19 94.5,21.5 Z"/></g>
<g><path style="opacity:1" fill="#a39e91" d="M 111.5,47.5 C 115.5,47.5 119.5,47.5 123.5,47.5C 124.93,48.5375 126.597,49.2041 128.5,49.5C 130.426,50.4861 132.426,51.4861 134.5,52.5C 138.159,55.8116 140.826,59.8116 142.5,64.5C 142.649,65.552 142.483,66.552 142,67.5C 141.303,65.4156 140.136,63.7489 138.5,62.5C 134.547,55.5176 128.547,51.5176 120.5,50.5C 104.616,49.8748 93.1165,56.8748 86,71.5C 85.5357,70.9056 85.369,70.2389 85.5,69.5C 90.2173,57.4458 98.8839,50.1125 111.5,47.5 Z"/></g>
<g><path style="opacity:1" fill="#716a5f" d="M 120.5,50.5 C 119.127,50.3433 117.793,50.51 116.5,51C 121.162,51.7464 124.995,53.9131 128,57.5C 137.578,70.4534 138.911,84.12 132,98.5C 129.96,100.37 128.127,102.37 126.5,104.5C 123.167,106.167 119.833,107.833 116.5,109.5C 115.662,109.158 115.328,108.492 115.5,107.5C 119.434,105.363 119.267,104.03 115,103.5C 108.504,103.394 104.504,106.394 103,112.5C 102.145,118.862 101.145,125.196 100,131.5C 96.0382,136.332 90.8716,138.999 84.5,139.5C 78.24,138.918 71.9067,138.085 65.5,137C 63.9409,135.004 63.2742,132.671 63.5,130C 63.6258,125.935 64.9591,122.435 67.5,119.5C 75.3142,122.304 82.9809,122.137 90.5,119C 89.9056,118.536 89.2389,118.369 88.5,118.5C 90.5131,116.832 92.1797,114.832 93.5,112.5C 93.8333,112.667 94.1667,112.833 94.5,113C 92.9837,114.897 92.317,117.064 92.5,119.5C 93.8221,119.67 94.9887,119.337 96,118.5C 96.498,115.518 96.6646,112.518 96.5,109.5C 94.8008,109.34 93.1341,109.506 91.5,110C 90.1667,112 88.8333,114 87.5,116C 81.4121,115.874 75.7455,116.708 70.5,118.5C 69.3871,117.054 69.2204,115.387 70,113.5C 72.7905,106.586 76.1238,99.919 80,93.5C 80.6667,91.8333 80.6667,90.1667 80,88.5C 79.79,90.0581 79.29,91.3915 78.5,92.5C 78.6633,90.1432 78.4966,87.8098 78,85.5C 77.7996,87.3197 76.9663,88.653 75.5,89.5C 72.9825,87.8948 70.1491,86.5615 67,85.5C 66.3111,82.6706 67.4778,81.0039 70.5,80.5C 69.675,79.6143 68.675,79.281 67.5,79.5C 68.4499,76.8851 70.1165,74.8851 72.5,73.5C 75.4412,74.2026 78.2745,75.2026 81,76.5C 83.0248,74.4374 84.5248,72.104 85.5,69.5C 85.369,70.2389 85.5357,70.9056 86,71.5C 93.1165,56.8748 104.616,49.8748 120.5,50.5 Z"/></g>
<g><path style="opacity:1" fill="#8b8b8b" d="M 165.5,54.5 C 167.027,54.427 168.027,55.0937 168.5,56.5C 166.973,56.573 165.973,55.9063 165.5,54.5 Z"/></g>
<g><path style="opacity:1" fill="#3f392e" d="M 120.5,50.5 C 128.547,51.5176 134.547,55.5176 138.5,62.5C 139.812,66.4163 140.812,70.4163 141.5,74.5C 142.274,85.3418 138.94,94.8418 131.5,103C 129.846,103.608 128.179,104.108 126.5,104.5C 128.127,102.37 129.96,100.37 132,98.5C 138.911,84.12 137.578,70.4534 128,57.5C 124.995,53.9131 121.162,51.7464 116.5,51C 117.793,50.51 119.127,50.3433 120.5,50.5 Z"/></g>
<g><path style="opacity:1" fill="#403d39" d="M 60.5,56.5 C 59.9569,56.56 59.6236,56.8933 59.5,57.5C 63.7643,63.9991 63.2643,64.6658 58,59.5C 57.5899,58.0993 57.0899,56.766 56.5,55.5C 57.3138,53.369 57.8138,51.0356 58,48.5C 58.9406,51.154 59.7739,53.8206 60.5,56.5 Z"/></g>
<g><path style="opacity:1" fill="#36322b" d="M 72.5,39.5 C 71.8873,48.0643 72.8873,56.3976 75.5,64.5C 72.7687,62.9286 70.9354,60.5952 70,57.5C 67.7985,50.9929 66.2985,44.3262 65.5,37.5C 63.6665,49.3232 66.9998,59.4898 75.5,68C 71.5241,66.3734 68.3574,63.5401 66,59.5C 65.4389,57.2746 64.4389,55.2746 63,53.5C 62.6667,51.1667 62.3333,48.8333 62,46.5C 61.6174,45.944 61.1174,45.6107 60.5,45.5C 61.392,41.2101 62.7253,37.0435 64.5,33C 63.9056,32.5357 63.2389,32.369 62.5,32.5C 64.6192,30.0717 67.2859,28.9051 70.5,29C 67.7519,35.8756 67.9186,42.7089 71,49.5C 71.1787,45.9748 71.6787,42.6414 72.5,39.5 Z"/></g>
<g><path style="opacity:1" fill="#b2b2b2" d="M 170.5,59.5 C 167.201,61.4835 163.534,62.4835 159.5,62.5C 159.5,63.5 159.5,64.5 159.5,65.5C 158.566,64.4324 158.232,63.099 158.5,61.5C 162.538,61.0422 166.538,60.3755 170.5,59.5 Z"/></g>
<g><path style="opacity:1" fill="#69645b" d="M 147.5,48.5 C 150.398,51.6278 153.732,54.2945 157.5,56.5C 154.5,57.1667 151.5,57.8333 148.5,58.5C 153.403,64.6439 156.403,71.6439 157.5,79.5C 157.657,80.8734 157.49,82.2068 157,83.5C 156.722,82.5842 156.222,81.9175 155.5,81.5C 154.945,78.904 153.945,76.5707 152.5,74.5C 149.024,69.8782 146.357,64.8782 144.5,59.5C 143.358,56.6195 142.358,53.6195 141.5,50.5C 141.624,49.8933 141.957,49.56 142.5,49.5C 143.167,49.8333 143.833,50.1667 144.5,50.5C 145.527,51.8478 146.86,52.3478 148.5,52C 146.689,50.9593 146.355,49.7927 147.5,48.5 Z"/></g>
<g><path style="opacity:1" fill="#615d53" d="M 138.5,62.5 C 140.136,63.7489 141.303,65.4156 142,67.5C 142.483,66.552 142.649,65.552 142.5,64.5C 143.558,65.6002 144.392,66.9336 145,68.5C 149.25,84.1912 149.416,99.8579 145.5,115.5C 144.883,115.611 144.383,115.944 144,116.5C 143.831,104.326 143.331,92.3263 142.5,80.5C 142.167,78.5 141.833,76.5 141.5,74.5C 140.812,70.4163 139.812,66.4163 138.5,62.5 Z"/></g>
<g><path style="opacity:1" fill="#5c5b5b" d="M 161.5,72.5 C 163.074,74.1016 163.741,76.1016 163.5,78.5C 161.926,76.8984 161.259,74.8984 161.5,72.5 Z"/></g>
<g><path style="opacity:1" fill="#a29d92" d="M 111.5,72.5 C 111.739,74.4672 111.406,76.3005 110.5,78C 104.981,80.5913 99.6479,83.4247 94.5,86.5C 93.3552,85.2073 93.6885,84.0407 95.5,83C 97.5,81.6667 99.5,80.3333 101.5,79C 106.415,78.9058 109.748,76.7391 111.5,72.5 Z"/></g>
<g><path style="opacity:1" fill="#0f0c0a" d="M 111.5,85.5 C 109.943,88.624 108.277,91.7907 106.5,95C 102.768,96.9694 98.7682,97.9694 94.5,98C 95.7383,98.69 95.7383,99.19 94.5,99.5C 87.6679,97.4023 84.6679,93.069 85.5,86.5C 85.4142,87.4959 85.7476,88.3292 86.5,89C 88.5976,89.6776 90.5976,89.5109 92.5,88.5C 93.5,88.1667 94.1667,87.5 94.5,86.5C 99.6479,83.4247 104.981,80.5913 110.5,78C 111.406,76.3005 111.739,74.4672 111.5,72.5C 109.905,70.6262 110.239,69.7929 112.5,70C 113.944,71.126 114.61,72.626 114.5,74.5C 113.961,78.3269 112.961,81.9936 111.5,85.5 Z"/></g>
<g><path style="opacity:1" fill="#949286" d="M 67.5,79.5 C 68.675,79.281 69.675,79.6143 70.5,80.5C 67.4778,81.0039 66.3111,82.6706 67,85.5C 70.1491,86.5615 72.9825,87.8948 75.5,89.5C 71.1606,90.1539 67.3273,89.1539 64,86.5C 63.1358,83.1871 64.3024,80.8537 67.5,79.5 Z"/></g>
<g><path style="opacity:1" fill="#8b8b8b" d="M 59.5,79.5 C 58.7347,82.0961 58.4013,84.7628 58.5,87.5C 57.8476,86.5514 57.5143,85.3847 57.5,84C 57.3068,81.9919 57.9735,80.4919 59.5,79.5 Z"/></g>
<g><path style="opacity:1" fill="#9d988a" d="M 92.5,88.5 C 90.5976,89.5109 88.5976,89.6776 86.5,89C 85.7476,88.3292 85.4142,87.4959 85.5,86.5C 87.0663,80.4373 90.733,76.6039 96.5,75C 92.2211,77.7286 89.5544,81.5619 88.5,86.5C 90.4832,86.1568 91.8166,86.8235 92.5,88.5 Z"/></g>
<g><path style="opacity:1" fill="#959385" d="M 99.5,86.5 C 101.807,88.5915 101.474,90.7582 98.5,93C 96.4213,93.8077 94.4213,93.641 92.5,92.5C 95.464,91.1921 97.7974,89.1921 99.5,86.5 Z"/></g>
<g><path style="opacity:1" fill="#26221d" d="M 152.5,74.5 C 153.945,76.5707 154.945,78.904 155.5,81.5C 157.392,88.3734 157.892,95.3734 157,102.5C 154.334,112.166 151.167,121.666 147.5,131C 147.57,131.765 147.903,132.265 148.5,132.5C 147.179,135.813 145.846,139.146 144.5,142.5C 143.009,141.652 142.342,140.319 142.5,138.5C 144.563,130.477 146.729,122.477 149,114.5C 149.414,114.043 149.914,113.709 150.5,113.5C 151.502,100.426 152.168,87.4256 152.5,74.5 Z"/></g>
<g><path style="opacity:1" fill="#55514a" d="M 157.5,79.5 C 160.676,92.2981 159.842,104.965 155,117.5C 152.544,122.366 150.377,127.366 148.5,132.5C 147.903,132.265 147.57,131.765 147.5,131C 151.167,121.666 154.334,112.166 157,102.5C 157.892,95.3734 157.392,88.3734 155.5,81.5C 156.222,81.9175 156.722,82.5842 157,83.5C 157.49,82.2068 157.657,80.8734 157.5,79.5 Z"/></g>
<g><path style="opacity:1" fill="#37322a" d="M 111.5,85.5 C 111.66,87.1992 111.494,88.8659 111,90.5C 108.925,94.0394 106.758,97.3728 104.5,100.5C 100.958,100.813 97.6248,100.479 94.5,99.5C 95.7383,99.19 95.7383,98.69 94.5,98C 98.7682,97.9694 102.768,96.9694 106.5,95C 108.277,91.7907 109.943,88.624 111.5,85.5 Z"/></g>
<g><path style="opacity:1" fill="#757673" d="M 65.5,94.5 C 66.1471,95.2739 66.4805,96.2739 66.5,97.5C 66.6598,99.3545 65.9931,100.688 64.5,101.5C 65.2186,99.2362 65.552,96.9029 65.5,94.5 Z"/></g>
<g><path style="opacity:1" fill="#332e26" d="M 142.5,80.5 C 143.331,92.3263 143.831,104.326 144,116.5C 144.383,115.944 144.883,115.611 145.5,115.5C 142.116,121.723 137.449,126.89 131.5,131C 127.958,131.18 124.958,129.847 122.5,127C 118.886,126.055 115.219,125.388 111.5,125C 114.31,122.564 117.31,120.398 120.5,118.5C 122.425,118.837 123.925,120.17 125,122.5C 125.626,120.009 126.459,120.009 127.5,122.5C 128.48,121.019 129.647,119.685 131,118.5C 131.333,119.167 131.667,119.833 132,120.5C 134.624,114.431 136.29,108.098 137,101.5C 142.033,95.4358 143.867,88.4358 142.5,80.5 Z"/></g>
<g><path style="opacity:1" fill="#2a241f" d="M 88.5,118.5 C 82.4693,119.793 76.4693,119.793 70.5,118.5C 75.7455,116.708 81.4121,115.874 87.5,116C 88.8333,114 90.1667,112 91.5,110C 93.1341,109.506 94.8008,109.34 96.5,109.5C 96.6646,112.518 96.498,115.518 96,118.5C 94.9887,119.337 93.8221,119.67 92.5,119.5C 92.317,117.064 92.9837,114.897 94.5,113C 94.1667,112.833 93.8333,112.667 93.5,112.5C 92.1797,114.832 90.5131,116.832 88.5,118.5 Z"/></g>
<g><path style="opacity:1" fill="#4a4b4a" d="M 58.5,109.5 C 58.109,115.733 57.109,121.733 55.5,127.5C 56.1266,121.855 56.6266,116.189 57,110.5C 57.3826,109.944 57.8826,109.611 58.5,109.5 Z"/></g>
<g><path style="opacity:1" fill="#a29c91" d="M 70.5,118.5 C 76.4693,119.793 82.4693,119.793 88.5,118.5C 89.2389,118.369 89.9056,118.536 90.5,119C 82.9809,122.137 75.3142,122.304 67.5,119.5C 64.9591,122.435 63.6258,125.935 63.5,130C 63.2742,132.671 63.9409,135.004 65.5,137C 71.9067,138.085 78.24,138.918 84.5,139.5C 78.4787,140.726 72.4787,140.726 66.5,139.5C 65.1932,138.847 63.8599,138.18 62.5,137.5C 61.6877,129.186 61.6877,120.853 62.5,112.5C 64.451,112.227 65.951,112.893 67,114.5C 70.0462,106.74 73.8795,99.4071 78.5,92.5C 79.29,91.3915 79.79,90.0581 80,88.5C 80.6667,90.1667 80.6667,91.8333 80,93.5C 76.1238,99.919 72.7905,106.586 70,113.5C 69.2204,115.387 69.3871,117.054 70.5,118.5 Z"/></g>
<g><path style="opacity:1" fill="#7a776d" d="M 108.5,115.5 C 106.652,117.733 104.985,120.066 103.5,122.5C 103.689,118.029 104.523,113.696 106,109.5C 106.414,109.043 106.914,108.709 107.5,108.5C 108.474,110.743 108.808,113.076 108.5,115.5 Z"/></g>
<g><path style="opacity:1" fill="#8e8e8e" d="M 161.5,115.5 C 161.655,118.716 160.655,121.383 158.5,123.5C 159.129,120.603 160.129,117.936 161.5,115.5 Z"/></g>
<g><path style="opacity:1" fill="#45413b" d="M 115.5,107.5 C 115.328,108.492 115.662,109.158 116.5,109.5C 114.466,111.939 112.299,114.272 110,116.5C 108.173,120.281 107.173,124.281 107,128.5C 105.815,130.559 104.648,130.726 103.5,129C 102.307,126.676 102.307,124.51 103.5,122.5C 104.985,120.066 106.652,117.733 108.5,115.5C 110.833,112.833 113.167,110.167 115.5,107.5 Z"/></g>
<g><path style="opacity:1" fill="#aaa598" d="M 111.5,129.5 C 112.552,129.351 113.552,129.517 114.5,130C 112.448,130.93 110.948,132.43 110,134.5C 109.089,139.162 107.422,143.495 105,147.5C 104.833,147 104.667,146.5 104.5,146C 105.687,143.276 106.353,140.443 106.5,137.5C 106.726,133.9 108.392,131.234 111.5,129.5 Z"/></g>
<g><path style="opacity:1" fill="#28261f" d="M 133.5,135.5 C 135.931,136.607 136.931,138.607 136.5,141.5C 136.402,143.619 135.569,145.286 134,146.5C 133.744,143.443 133.244,140.443 132.5,137.5C 132.863,136.817 133.196,136.15 133.5,135.5 Z"/></g>
<g><path style="opacity:1" fill="#443f38" d="M 66.5,139.5 C 72.4787,140.726 78.4787,140.726 84.5,139.5C 84.0825,140.222 83.4158,140.722 82.5,141C 77.5,141.667 72.5,141.667 67.5,141C 66.944,140.617 66.6107,140.117 66.5,139.5 Z"/></g>
<g><path style="opacity:1" fill="#716a5f" d="M 34.5,136.5 C 40.9224,134.571 46.7558,135.905 52,140.5C 53.2445,144.644 54.4111,148.811 55.5,153C 55.0217,154.303 54.355,155.469 53.5,156.5C 52.8386,155.282 52.1719,153.949 51.5,152.5C 50.8333,153.5 50.1667,154.5 49.5,155.5C 48.1387,153.972 46.972,152.305 46,150.5C 44.9055,152.078 44.0722,153.745 43.5,155.5C 42.8902,156.391 42.5569,157.391 42.5,158.5C 40.6885,160.385 39.5218,162.719 39,165.5C 40.6713,178.667 35.1713,184 22.5,181.5C 21.5,181.167 20.8333,180.5 20.5,179.5C 21.2389,179.631 21.9056,179.464 22.5,179C 21.4086,176.936 21.2419,174.769 22,172.5C 27.3685,162.067 31.3685,151.067 34,139.5C 34.9025,138.299 36.0692,137.465 37.5,137C 36.552,136.517 35.552,136.351 34.5,136.5 Z"/></g>
<g><path style="opacity:1" fill="#afb1b2" d="M 153.5,134.5 C 152.746,139.463 152.413,144.463 152.5,149.5C 152.167,149.5 151.833,149.5 151.5,149.5C 151.334,145.486 151.501,141.486 152,137.5C 152.232,136.263 152.732,135.263 153.5,134.5 Z"/></g>
<g><path style="opacity:1" fill="#2e2a23" d="M 82.5,157.5 C 84.4554,156.553 84.7887,155.219 83.5,153.5C 80.6308,152.659 78.4641,150.993 77,148.5C 72.7756,148.164 68.9422,146.831 65.5,144.5C 64.6143,145.325 64.281,146.325 64.5,147.5C 63.5655,146.432 63.2322,145.099 63.5,143.5C 73.2183,144.462 82.885,144.962 92.5,145C 89.4557,145.359 89.1224,146.026 91.5,147C 90.8333,147.333 90.1667,147.667 89.5,148C 90.9814,148.98 92.3147,150.147 93.5,151.5C 91.228,152.485 88.8947,153.319 86.5,154C 87.8333,154.333 89.1667,154.667 90.5,155C 88.0912,156.707 85.4245,157.54 82.5,157.5 Z"/></g>
<g><path style="opacity:1" fill="#6a6459" d="M 82.5,157.5 C 72.855,160.258 66.855,156.925 64.5,147.5C 64.281,146.325 64.6143,145.325 65.5,144.5C 68.9422,146.831 72.7756,148.164 77,148.5C 78.4641,150.993 80.6308,152.659 83.5,153.5C 84.7887,155.219 84.4554,156.553 82.5,157.5 Z"/></g>
<g><path style="opacity:1" fill="#a09b8e" d="M 34.5,136.5 C 35.552,136.351 36.552,136.517 37.5,137C 36.0692,137.465 34.9025,138.299 34,139.5C 31.3685,151.067 27.3685,162.067 22,172.5C 21.2419,174.769 21.4086,176.936 22.5,179C 21.9056,179.464 21.2389,179.631 20.5,179.5C 19.8333,179.5 19.5,179.167 19.5,178.5C 19.4255,174.019 20.0921,169.686 21.5,165.5C 24.2274,157.486 27.0608,149.486 30,141.5C 30.9959,139.34 32.4959,137.673 34.5,136.5 Z"/></g>
<g><path style="opacity:1" fill="#a5a092" d="M 102.5,148.5 C 104.344,149.204 104.844,150.537 104,152.5C 101.916,156.336 99.583,160.003 97,163.5C 96.2888,165.367 96.7888,166.867 98.5,168C 97.9056,168.464 97.2389,168.631 96.5,168.5C 93.8609,167.294 93.0276,165.294 94,162.5C 96.6966,157.662 99.5299,152.995 102.5,148.5 Z"/></g>
<g><path style="opacity:1" fill="#342f29" d="M 136.5,146.5 C 137.821,149.598 138.488,153.098 138.5,157C 138.333,160.5 138.167,164 138,167.5C 131.335,160.871 130.835,153.871 136.5,146.5 Z"/></g>
<g><path style="opacity:1" fill="#797878" d="M 20.5,153.5 C 20.2451,155.967 19.2451,157.967 17.5,159.5C 17.7549,157.033 18.7549,155.033 20.5,153.5 Z"/></g>
<g><path style="opacity:1" fill="#bdbdbb" d="M 145.5,153.5 C 146.167,153.5 146.5,153.833 146.5,154.5C 145.512,159.64 145.179,164.974 145.5,170.5C 145.167,170.5 144.833,170.5 144.5,170.5C 144.5,169.5 144.5,168.5 144.5,167.5C 144.181,162.637 144.514,157.97 145.5,153.5 Z"/></g>
<g><path style="opacity:1" fill="#5e5a54" d="M 47.5,182.5 C 46.9679,179.51 47.4679,176.51 49,173.5C 51.9076,166.686 55.0743,160.019 58.5,153.5C 59.6499,152.15 60.3166,152.316 60.5,154C 59.9221,155.811 59.4221,157.645 59,159.5C 55.3067,167.419 51.4734,175.086 47.5,182.5 Z"/></g>
<g><path style="opacity:1" fill="#5e5e5f" d="M 151.5,149.5 C 151.833,149.5 152.167,149.5 152.5,149.5C 152.82,152.898 152.487,156.232 151.5,159.5C 150.893,159.376 150.56,159.043 150.5,158.5C 151.477,155.713 151.81,152.713 151.5,149.5 Z"/></g>
<g><path style="opacity:1" fill="#36322b" d="M 53.5,156.5 C 51.8823,159.805 50.2156,163.139 48.5,166.5C 47.2801,166.113 46.6135,165.28 46.5,164C 48.2026,162.63 49.536,160.964 50.5,159C 50.1667,158.5 49.8333,158 49.5,157.5C 48.7193,158.737 47.7193,159.737 46.5,160.5C 45.6922,158.577 45.1922,156.577 45,154.5C 44.6174,155.056 44.1174,155.389 43.5,155.5C 44.0722,153.745 44.9055,152.078 46,150.5C 46.972,152.305 48.1387,153.972 49.5,155.5C 50.1667,154.5 50.8333,153.5 51.5,152.5C 52.1719,153.949 52.8386,155.282 53.5,156.5 Z"/></g>
<g><path style="opacity:1" fill="#525250" d="M 145.5,153.5 C 144.514,157.97 144.181,162.637 144.5,167.5C 143.186,162.652 143.186,157.652 144.5,152.5C 145.107,152.624 145.44,152.957 145.5,153.5 Z"/></g>
<g><path style="opacity:1" fill="#6e685d" d="M 111.5,129.5 C 119.014,128.324 125.181,130.991 130,137.5C 130.133,146.505 130.133,155.505 130,164.5C 130.87,169.24 132.036,173.906 133.5,178.5C 132.565,183.037 130.565,187.037 127.5,190.5C 127.833,190.833 128.167,191.167 128.5,191.5C 129.901,190.479 131.235,189.479 132.5,188.5C 133.791,188.263 134.791,188.596 135.5,189.5C 134.797,191.716 133.464,193.549 131.5,195C 125.498,199.265 118.831,200.598 111.5,199C 109.203,196.901 107.536,194.401 106.5,191.5C 113.913,193.045 119.413,190.378 123,183.5C 123.834,180.331 124.668,177.164 125.5,174C 125.183,171.672 124.016,169.839 122,168.5C 121.333,165.5 121.333,162.5 122,159.5C 123.481,158.529 124.315,157.196 124.5,155.5C 126.779,153.277 127.612,150.611 127,147.5C 126.586,147.957 126.086,148.291 125.5,148.5C 124.831,146.369 124.165,144.369 123.5,142.5C 121.871,143.625 120.371,144.959 119,146.5C 116.517,153.077 114.35,159.744 112.5,166.5C 107.361,169.51 102.027,170.176 96.5,168.5C 97.2389,168.631 97.9056,168.464 98.5,168C 96.7888,166.867 96.2888,165.367 97,163.5C 99.583,160.003 101.916,156.336 104,152.5C 104.844,150.537 104.344,149.204 102.5,148.5C 103.462,144.605 104.796,140.939 106.5,137.5C 106.353,140.443 105.687,143.276 104.5,146C 104.667,146.5 104.833,147 105,147.5C 107.422,143.495 109.089,139.162 110,134.5C 110.948,132.43 112.448,130.93 114.5,130C 113.552,129.517 112.552,129.351 111.5,129.5 Z"/></g>
<g><path style="opacity:1" fill="#3f3932" d="M 123.5,142.5 C 120.097,149.407 117.597,156.74 116,164.5C 114.887,165.305 113.721,165.972 112.5,166.5C 114.35,159.744 116.517,153.077 119,146.5C 120.371,144.959 121.871,143.625 123.5,142.5 Z"/></g>
<g><path style="opacity:1" fill="#3c372e" d="M 42.5,158.5 C 42.6662,164.842 42.4995,171.175 42,177.5C 36.3243,183.583 29.8243,184.917 22.5,181.5C 35.1713,184 40.6713,178.667 39,165.5C 39.5218,162.719 40.6885,160.385 42.5,158.5 Z"/></g>
<g><path style="opacity:1" fill="#39332e" d="M 124.5,155.5 C 124.315,157.196 123.481,158.529 122,159.5C 121.333,162.5 121.333,165.5 122,168.5C 124.016,169.839 125.183,171.672 125.5,174C 124.668,177.164 123.834,180.331 123,183.5C 119.413,190.378 113.913,193.045 106.5,191.5C 113.379,190.27 118.212,186.27 121,179.5C 121.557,177.385 122.391,175.385 123.5,173.5C 117.204,167.278 117.538,161.278 124.5,155.5 Z"/></g>
<g><path style="opacity:1" fill="#79766b" d="M 21.5,165.5 C 20.0921,169.686 19.4255,174.019 19.5,178.5C 17.8336,173.841 18.5003,169.508 21.5,165.5 Z"/></g>
<g><path style="opacity:1" fill="#39322a" d="M 47.5,182.5 C 51.4734,175.086 55.3067,167.419 59,159.5C 59.4221,157.645 59.9221,155.811 60.5,154C 60.3166,152.316 59.6499,152.15 58.5,153.5C 58.8212,151.952 59.8212,151.285 61.5,151.5C 61.9501,156.797 64.6168,160.631 69.5,163C 76.6129,163.657 83.6129,163.324 90.5,162C 89.0386,164.985 89.7053,167.485 92.5,169.5C 93.6894,176.15 95.356,182.65 97.5,189C 95.8659,189.494 94.1992,189.66 92.5,189.5C 92.1194,184.763 91.2861,180.096 90,175.5C 87.6194,174.565 85.1194,174.232 82.5,174.5C 82.6349,180.181 82.9682,185.848 83.5,191.5C 74.707,191.961 66.0403,191.295 57.5,189.5C 59.3024,183.426 61.3024,177.426 63.5,171.5C 61.4012,170.769 59.4012,170.769 57.5,171.5C 55.6022,176.065 53.2689,180.399 50.5,184.5C 49.2613,184.058 48.2613,183.391 47.5,182.5 Z"/></g>
<g><path style="opacity:1" fill="#adabac" d="M 14.5,167.5 C 13.1667,172.5 13.1667,177.5 14.5,182.5C 13.8826,182.389 13.3826,182.056 13,181.5C 12.3417,179.2 11.8417,176.867 11.5,174.5C 11.555,171.64 12.555,169.307 14.5,167.5 Z"/></g>
<g><path style="opacity:1" fill="#302d27" d="M 135.5,189.5 C 134.791,188.596 133.791,188.263 132.5,188.5C 134.904,185.46 136.238,181.96 136.5,178C 135.229,174.205 134.395,170.371 134,166.5C 137.723,168.999 139.557,172.499 139.5,177C 138.904,180.882 138.071,184.716 137,188.5C 136.617,189.056 136.117,189.389 135.5,189.5 Z"/></g>
<g><path style="opacity:1" fill="#6a6a6a" d="M 144.5,170.5 C 144.833,170.5 145.167,170.5 145.5,170.5C 145.666,174.514 145.499,178.514 145,182.5C 144.768,183.737 144.268,184.737 143.5,185.5C 144.254,180.537 144.587,175.537 144.5,170.5 Z"/></g>
<g><path style="opacity:1" fill="#656157" d="M 91.5,191.5 C 91.5,191.833 91.5,192.167 91.5,192.5C 90.1667,193.5 88.8333,194.5 87.5,195.5C 87.8836,191.511 87.217,187.845 85.5,184.5C 85.1866,181.753 85.52,179.086 86.5,176.5C 87.086,176.709 87.586,177.043 88,177.5C 88.8736,182.278 90.0403,186.945 91.5,191.5 Z"/></g>
<g><path style="opacity:1" fill="#726c60" d="M 57.5,191.5 C 59.5418,193.83 62.2084,194.996 65.5,195C 72.4921,195.5 79.4921,195.666 86.5,195.5C 75.789,204.552 65.1223,213.552 54.5,222.5C 53.1667,221.833 52.1667,220.833 51.5,219.5C 60.6617,212.412 69.6617,205.079 78.5,197.5C 74.8446,195.998 71.5113,196.498 68.5,199C 62.2408,204.048 56.0741,209.214 50,214.5C 49.5172,215.448 49.3505,216.448 49.5,217.5C 46.0043,213.181 43.0043,208.515 40.5,203.5C 43.3528,197.78 45.6862,191.78 47.5,185.5C 48.9362,187.319 50.6029,187.652 52.5,186.5C 54.0719,181.685 56.4053,177.352 59.5,173.5C 59.8333,173.833 60.1667,174.167 60.5,174.5C 58.0247,179.647 56.0247,184.98 54.5,190.5C 55.791,190.263 56.791,190.596 57.5,191.5 Z"/></g>
<g><path style="opacity:1" fill="#a39f93" d="M 47.5,185.5 C 45.6862,191.78 43.3528,197.78 40.5,203.5C 39.1667,201.833 39.1667,200.167 40.5,198.5C 42.2766,195.495 43.2766,192.162 43.5,188.5C 44.0464,186.697 44.8797,185.03 46,183.5C 46.7172,184.044 47.2172,184.711 47.5,185.5 Z"/></g>
<g><path style="opacity:1" fill="#5e5952" d="M 43.5,188.5 C 43.2766,192.162 42.2766,195.495 40.5,198.5C 40.7234,194.838 41.7234,191.505 43.5,188.5 Z"/></g>
<g><path style="opacity:1" fill="#3b362d" d="M 85.5,184.5 C 87.217,187.845 87.8836,191.511 87.5,195.5C 87.1667,195.5 86.8333,195.5 86.5,195.5C 79.4921,195.666 72.4921,195.5 65.5,195C 62.2084,194.996 59.5418,193.83 57.5,191.5C 66.7093,193.314 76.0427,193.98 85.5,193.5C 85.5,190.5 85.5,187.5 85.5,184.5 Z"/></g>
<g><path style="opacity:1" fill="#a2a2a2" d="M 16.5,185.5 C 18.7339,189.522 20.4005,193.856 21.5,198.5C 18.4909,194.794 16.8242,190.461 16.5,185.5 Z"/></g>
<g><path style="opacity:1" fill="#3b342b" d="M 91.5,192.5 C 91.5,192.167 91.5,191.833 91.5,191.5C 95.5,191.5 99.5,191.5 103.5,191.5C 104.697,201.272 101.363,209.105 93.5,215C 85.3945,218.924 77.0612,222.257 68.5,225C 64.8333,225.667 61.1667,225.667 57.5,225C 56.5842,224.722 55.9175,224.222 55.5,223.5C 68.8021,213.833 81.8021,203.667 94.5,193C 93.552,192.517 92.552,192.351 91.5,192.5 Z"/></g>
<g><path style="opacity:1" fill="#b3ad9d" d="M 51.5,219.5 C 50.5,219.167 49.8333,218.5 49.5,217.5C 49.3505,216.448 49.5172,215.448 50,214.5C 56.0741,209.214 62.2408,204.048 68.5,199C 71.5113,196.498 74.8446,195.998 78.5,197.5C 69.6617,205.079 60.6617,212.412 51.5,219.5 Z"/></g>
<g><path style="opacity:1" fill="#a9a395" d="M 91.5,192.5 C 92.552,192.351 93.552,192.517 94.5,193C 81.8021,203.667 68.8021,213.833 55.5,223.5C 54.8333,223.5 54.5,223.167 54.5,222.5C 65.1223,213.552 75.789,204.552 86.5,195.5C 86.8333,195.5 87.1667,195.5 87.5,195.5C 88.8333,194.5 90.1667,193.5 91.5,192.5 Z"/></g>
<g><path style="opacity:1" fill="#69655c" d="M 50.5,222.5 C 49.1667,222.5 48.5,223.167 48.5,224.5C 45.5298,220.68 42.6964,216.68 40,212.5C 38.6986,210.635 38.3653,208.635 39,206.5C 42.5976,212.039 46.431,217.372 50.5,222.5 Z"/></g>
<g><path style="opacity:1" fill="#645f56" d="M 52.5,229.5 C 54.5,229.5 55.5,228.5 55.5,226.5C 71.2831,227.519 85.6164,223.352 98.5,214C 101.476,210.858 103.809,207.358 105.5,203.5C 107.395,205.867 107.895,208.534 107,211.5C 92.1891,224.215 75.0224,231.049 55.5,232C 54.4293,231.148 53.4293,230.315 52.5,229.5 Z"/></g>
<g><path style="opacity:1" fill="#bfbfbd" d="M 142.5,212.5 C 143.634,214.966 143.801,217.633 143,220.5C 142.764,222.119 141.931,223.119 140.5,223.5C 141.642,219.929 142.309,216.262 142.5,212.5 Z"/></g>
<g><path style="opacity:1" fill="#6c665c" d="M 57.5,234.5 C 77.2486,235.731 94.4152,229.398 109,215.5C 109.355,216.509 110.188,217.176 111.5,217.5C 112.167,217.5 112.833,217.5 113.5,217.5C 112.193,218.802 112.193,220.135 113.5,221.5C 111.922,222.298 110.256,222.798 108.5,223C 115.703,223.198 116.036,224.198 109.5,226C 110.793,226.49 112.127,226.657 113.5,226.5C 112.166,229.355 110.166,231.855 107.5,234C 96.2726,241.32 83.9392,244.153 70.5,242.5C 57.7206,241.7 47.0539,236.7 38.5,227.5C 41.1251,226.559 41.1251,225.393 38.5,224C 39.624,223.751 40.624,223.251 41.5,222.5C 40.0068,219.302 38.3401,216.302 36.5,213.5C 36.3932,211.621 36.8932,211.288 38,212.5C 41.3382,218.512 45.1716,224.179 49.5,229.5C 51.6703,232.012 54.337,233.679 57.5,234.5 Z"/></g>
<g><path style="opacity:1" fill="#201c18" d="M 129.5,231.5 C 129.44,230.957 129.107,230.624 128.5,230.5C 126.028,232.251 123.361,233.085 120.5,233C 122.5,232 124.5,231 126.5,230C 124.774,228.47 122.774,227.47 120.5,227C 122.087,226.138 123.754,225.471 125.5,225C 123.144,224.845 120.811,224.845 118.5,225C 120.087,224.138 121.754,223.471 123.5,223C 121.833,222.667 120.167,222.333 118.5,222C 119.672,221.581 120.672,220.915 121.5,220C 119.167,219.667 116.833,219.333 114.5,219C 115.712,217.893 115.379,217.393 113.5,217.5C 112.833,217.5 112.167,217.5 111.5,217.5C 112.263,216.732 113.263,216.232 114.5,216C 114.167,215.667 113.833,215.333 113.5,215C 115.982,213.539 115.982,212.039 113.5,210.5C 117.115,209.408 120.782,208.908 124.5,209C 121.833,209.667 121.833,210.333 124.5,211C 122.968,211.7 121.968,212.866 121.5,214.5C 120.271,215.281 118.938,215.781 117.5,216C 120.514,216.128 123.514,216.128 126.5,216C 124.212,216.822 121.878,217.489 119.5,218C 120.333,218.167 121.167,218.333 122,218.5C 125.166,217.578 128.333,217.078 131.5,217C 129.122,217.974 129.456,218.641 132.5,219C 130.606,220.101 129.939,221.434 130.5,223C 131.5,223.333 132.5,223.667 133.5,224C 131.5,224.667 130.167,226 129.5,228C 130.791,229.292 130.791,230.458 129.5,231.5 Z"/></g>
<g><path style="opacity:1" fill="#383631" d="M 36.5,213.5 C 38.3401,216.302 40.0068,219.302 41.5,222.5C 40.624,223.251 39.624,223.751 38.5,224C 41.1251,225.393 41.1251,226.559 38.5,227.5C 36.0246,226.313 35.0246,224.313 35.5,221.5C 36.675,221.719 37.675,221.386 38.5,220.5C 37.0541,218.382 36.3874,216.049 36.5,213.5 Z"/></g>
<g><path style="opacity:1" fill="#8d897c" d="M 50.5,222.5 C 52.3885,223.604 54.0552,224.937 55.5,226.5C 55.5,228.5 54.5,229.5 52.5,229.5C 50.9373,228.055 49.604,226.389 48.5,224.5C 48.5,223.167 49.1667,222.5 50.5,222.5 Z"/></g>
<g><path style="opacity:1" fill="#38332a" d="M 113.5,210.5 C 115.982,212.039 115.982,213.539 113.5,215C 113.833,215.333 114.167,215.667 114.5,216C 113.263,216.232 112.263,216.732 111.5,217.5C 110.188,217.176 109.355,216.509 109,215.5C 94.4152,229.398 77.2486,235.731 57.5,234.5C 75.8512,232.988 92.1845,226.488 106.5,215C 107.743,213.846 108.743,212.512 109.5,211C 110.793,210.51 112.127,210.343 113.5,210.5 Z"/></g>
<g><path style="opacity:1" fill="#7e7e7e" d="M 139.5,226.5 C 139.573,228.027 138.906,229.027 137.5,229.5C 137.427,227.973 138.094,226.973 139.5,226.5 Z"/></g>
<g><path style="opacity:1" fill="#38322b" d="M 113.5,217.5 C 115.379,217.393 115.712,217.893 114.5,219C 116.833,219.333 119.167,219.667 121.5,220C 120.672,220.915 119.672,221.581 118.5,222C 120.167,222.333 121.833,222.667 123.5,223C 121.754,223.471 120.087,224.138 118.5,225C 120.811,224.845 123.144,224.845 125.5,225C 123.754,225.471 122.087,226.138 120.5,227C 122.774,227.47 124.774,228.47 126.5,230C 124.5,231 122.5,232 120.5,233C 123.361,233.085 126.028,232.251 128.5,230.5C 129.107,230.624 129.44,230.957 129.5,231.5C 111.347,243.185 91.6807,246.852 70.5,242.5C 83.9392,244.153 96.2726,241.32 107.5,234C 110.166,231.855 112.166,229.355 113.5,226.5C 112.127,226.657 110.793,226.49 109.5,226C 116.036,224.198 115.703,223.198 108.5,223C 110.256,222.798 111.922,222.298 113.5,221.5C 112.193,220.135 112.193,218.802 113.5,217.5 Z"/></g>
<g><path style="opacity:1" fill="#716a60" d="M 57.5,248.5 C 58.2739,247.853 59.2739,247.52 60.5,247.5C 77.6781,251.453 94.8448,251.453 112,247.5C 113.07,247.528 113.903,247.861 114.5,248.5C 112.343,249.053 112.51,250.053 115,251.5C 114.656,258.869 110.823,263.702 103.5,266C 104.793,266.49 106.127,266.657 107.5,266.5C 106.391,267.29 105.058,267.79 103.5,268C 91.8333,268.667 80.1667,268.667 68.5,268C 62.2219,267.43 56.2219,265.93 50.5,263.5C 49.391,263.443 48.391,263.11 47.5,262.5C 47.7352,261.903 48.2352,261.57 49,261.5C 52.2875,262.655 55.6208,263.655 59,264.5C 59.7648,264.43 60.2648,264.097 60.5,263.5C 62.7453,263.541 63.4119,264.375 62.5,266C 64.5,266.667 66.5,266.667 68.5,266C 61.7791,263.308 58.2791,258.475 58,251.5C 61.2998,249.443 61.1331,248.443 57.5,248.5 Z"/></g>
<g><path style="opacity:1" fill="#626262" d="M 135.5,248.5 C 136.906,248.973 137.573,249.973 137.5,251.5C 136.094,251.027 135.427,250.027 135.5,248.5 Z"/></g>
<g><path style="opacity:1" fill="#767572" d="M 47.5,257.5 C 47.5,258.167 47.1667,258.5 46.5,258.5C 40.652,257.03 39.4853,254.03 43,249.5C 42.9305,253.187 44.4305,255.854 47.5,257.5 Z"/></g>
<g><path style="opacity:1" fill="#5b5b5a" d="M 137.5,251.5 C 140.229,254.878 140.895,258.545 139.5,262.5C 139.13,258.767 138.463,255.101 137.5,251.5 Z"/></g>
<g><path style="opacity:1" fill="#787974" d="M 130.5,256.5 C 129.348,257.625 128.348,257.625 127.5,256.5C 128.117,256.389 128.617,256.056 129,255.5C 128.978,248.59 130.145,248.09 132.5,254C 132.361,255.301 131.695,256.134 130.5,256.5 Z"/></g>
<g><path style="opacity:1" fill="#ada89a" d="M 57.5,248.5 C 61.1331,248.443 61.2998,249.443 58,251.5C 58.2791,258.475 61.7791,263.308 68.5,266C 66.5,266.667 64.5,266.667 62.5,266C 63.4119,264.375 62.7453,263.541 60.5,263.5C 54.6134,261.743 52.2801,257.743 53.5,251.5C 54.2623,249.738 55.5956,248.738 57.5,248.5 Z"/></g>
<g><path style="opacity:1" fill="#a29d90" d="M 114.5,248.5 C 116.933,248.273 118.599,249.273 119.5,251.5C 120.301,257.51 117.968,261.676 112.5,264C 116.35,263.614 120.184,262.781 124,261.5C 124.765,261.57 125.265,261.903 125.5,262.5C 124.391,262.557 123.391,262.89 122.5,263.5C 117.638,265.034 112.638,266.034 107.5,266.5C 106.127,266.657 104.793,266.49 103.5,266C 110.823,263.702 114.656,258.869 115,251.5C 112.51,250.053 112.343,249.053 114.5,248.5 Z"/></g>
<g><path style="opacity:1" fill="#4c4c4c" d="M 36.5,249.5 C 34.8164,254.676 34.1497,260.009 34.5,265.5C 33.0598,264.054 32.3932,262.221 32.5,260C 32.7829,255.968 34.1162,252.468 36.5,249.5 Z"/></g>
<g><path style="opacity:1" fill="#262420" d="M 119.5,251.5 C 120.166,254.028 120.832,256.694 121.5,259.5C 123.527,258.487 125.527,257.487 127.5,256.5C 128.348,257.625 129.348,257.625 130.5,256.5C 130.918,257.222 131.584,257.722 132.5,258C 130.478,260.009 128.145,261.509 125.5,262.5C 125.265,261.903 124.765,261.57 124,261.5C 120.184,262.781 116.35,263.614 112.5,264C 117.968,261.676 120.301,257.51 119.5,251.5 Z"/></g>
<g><path style="opacity:1" fill="#241f1d" d="M 53.5,251.5 C 52.2801,257.743 54.6134,261.743 60.5,263.5C 60.2648,264.097 59.7648,264.43 59,264.5C 55.6208,263.655 52.2875,262.655 49,261.5C 48.2352,261.57 47.7352,261.903 47.5,262.5C 43.0892,261.231 42.7558,259.898 46.5,258.5C 47.1667,258.5 47.5,258.167 47.5,257.5C 48.675,257.719 49.675,257.386 50.5,256.5C 51.2745,254.604 52.2745,252.937 53.5,251.5 Z"/></g>
<g><path style="opacity:1" fill="#39332a" d="M 110.5,278.5 C 97.2426,280.442 83.9093,280.942 70.5,280C 64.2513,279.189 58.2513,277.689 52.5,275.5C 52.281,274.325 52.6143,273.325 53.5,272.5C 55.7857,273.42 58.1191,273.42 60.5,272.5C 60.6399,270.876 59.9733,269.71 58.5,269C 76.4876,271.094 94.4876,270.927 112.5,268.5C 112.328,270.492 112.995,272.158 114.5,273.5C 112.448,274.611 111.114,276.277 110.5,278.5 Z"/></g>
<g><path style="opacity:1" fill="#26211b" d="M 50.5,263.5 C 56.2219,265.93 62.2219,267.43 68.5,268C 80.1667,268.667 91.8333,268.667 103.5,268C 105.058,267.79 106.391,267.29 107.5,266.5C 112.638,266.034 117.638,265.034 122.5,263.5C 122.917,264.124 123.584,264.457 124.5,264.5C 127.13,263.622 129.797,262.955 132.5,262.5C 131.64,268.621 128.307,272.787 122.5,275C 118.578,276.463 114.578,277.629 110.5,278.5C 111.114,276.277 112.448,274.611 114.5,273.5C 112.995,272.158 112.328,270.492 112.5,268.5C 94.4876,270.927 76.4876,271.094 58.5,269C 59.9733,269.71 60.6399,270.876 60.5,272.5C 58.1191,273.42 55.7857,273.42 53.5,272.5C 52.6143,273.325 52.281,274.325 52.5,275.5C 45.8525,274.186 41.8525,270.186 40.5,263.5C 43.892,263.761 47.2253,263.761 50.5,263.5 Z"/></g>
<g><path style="opacity:1" fill="#6b6b6d" d="M 138.5,268.5 C 138.573,270.027 137.906,271.027 136.5,271.5C 136.427,269.973 137.094,268.973 138.5,268.5 Z"/></g>
<g><path style="opacity:1" fill="#70695e" d="M 52.5,278.5 C 61.0066,282.519 70.0066,284.519 79.5,284.5C 70.9953,287.922 62.662,291.589 54.5,295.5C 54.5,295.167 54.5,294.833 54.5,294.5C 55.2389,294.631 55.9056,294.464 56.5,294C 53.5674,292.729 50.9007,291.062 48.5,289C 47.1955,288.196 46.5288,287.029 46.5,285.5C 48.0777,282.734 50.0777,280.401 52.5,278.5 Z"/></g>
<g><path style="opacity:1" fill="#6f695f" d="M 120.5,278.5 C 122.313,280.814 124.313,282.981 126.5,285C 124.178,288.982 120.845,291.982 116.5,294C 116.728,294.399 117.062,294.565 117.5,294.5C 111.726,295.897 105.726,296.564 99.5,296.5C 95.9825,296.498 92.6491,296.165 89.5,295.5C 95.1363,291.008 100.803,286.508 106.5,282C 111.252,281.018 115.919,279.851 120.5,278.5 Z"/></g>
<g><path style="opacity:1" fill="#615f60" d="M 24.5,281.5 C 24.0269,282.906 23.0269,283.573 21.5,283.5C 21.9731,282.094 22.9731,281.427 24.5,281.5 Z"/></g>
<g><path style="opacity:1" fill="#9d998d" d="M 52.5,278.5 C 50.0777,280.401 48.0777,282.734 46.5,285.5C 46.5288,287.029 47.1955,288.196 48.5,289C 50.9007,291.062 53.5674,292.729 56.5,294C 55.9056,294.464 55.2389,294.631 54.5,294.5C 51.059,294.699 47.7256,294.199 44.5,293C 45.8333,292.667 47.1667,292.333 48.5,292C 46.34,290.668 44.34,289.168 42.5,287.5C 41.478,286.108 41.8113,284.775 43.5,283.5C 45.7974,280.529 48.7974,278.862 52.5,278.5 Z"/></g>
<g><path style="opacity:1" fill="#82817c" d="M 33.5,284.5 C 32.8333,285.167 32.1667,285.833 31.5,286.5C 29.5354,286.052 29.2021,285.052 30.5,283.5C 32.8333,282.167 35.1667,280.833 37.5,279.5C 37.2363,281.498 35.903,283.165 33.5,284.5 Z"/></g>
<g><path style="opacity:1" fill="#797971" d="M 139.5,287.5 C 139.5,287.167 139.5,286.833 139.5,286.5C 140.525,286.103 140.692,285.437 140,284.5C 137.54,283.042 135.373,281.209 133.5,279C 137.054,279.87 140.221,281.703 143,284.5C 142.967,286.478 141.8,287.478 139.5,287.5 Z"/></g>
<g><path style="opacity:1" fill="#a39e91" d="M 120.5,278.5 C 125.755,279.424 129.088,282.424 130.5,287.5C 128.351,288.748 126.351,290.248 124.5,292C 125.833,292.333 127.167,292.667 128.5,293C 124.914,294.108 121.247,294.608 117.5,294.5C 117.062,294.565 116.728,294.399 116.5,294C 120.845,291.982 124.178,288.982 126.5,285C 124.313,282.981 122.313,280.814 120.5,278.5 Z"/></g>
<g><path style="opacity:1" fill="#454546" d="M 20.5,284.5 C 20.357,287.385 19.357,289.718 17.5,291.5C 17.8872,288.794 18.8872,286.461 20.5,284.5 Z"/></g>
<g><path style="opacity:1" fill="#666258" d="M 83.5,284.5 C 85.1992,284.34 86.8659,284.506 88.5,285C 84.1667,288.667 79.8333,292.333 75.5,296C 71.3092,296.922 67.3092,296.588 63.5,295C 70.0542,291.278 76.7209,287.778 83.5,284.5 Z"/></g>
<g><path style="opacity:1" fill="#2e2923" d="M 33.5,284.5 C 33.9371,286.074 34.9371,287.241 36.5,288C 35.3659,289.016 35.6992,289.683 37.5,290C 39.5,290.667 41.5,290.667 43.5,290C 42.7476,289.329 42.4142,288.496 42.5,287.5C 44.34,289.168 46.34,290.668 48.5,292C 47.1667,292.333 45.8333,292.667 44.5,293C 47.7256,294.199 51.059,294.699 54.5,294.5C 54.5,294.833 54.5,295.167 54.5,295.5C 55.1571,296.316 56.4905,296.983 58.5,297.5C 56.4727,297.338 54.4727,297.505 52.5,298C 55.001,299.418 54.6677,300.418 51.5,301C 41.0576,301.3 41.0576,302.467 51.5,304.5C 51.8627,305.183 52.1961,305.85 52.5,306.5C 47.0219,306.631 41.6886,305.798 36.5,304C 38.5,303.667 40.5,303.333 42.5,303C 39.6728,302.299 37.0062,301.299 34.5,300C 40.9892,299.553 40.9892,298.553 34.5,297C 33.9535,296.075 33.2868,295.242 32.5,294.5C 29.294,295.269 26.9607,295.269 25.5,294.5C 24.5713,293.311 24.238,291.978 24.5,290.5C 29.8329,291.676 35.1663,292.509 40.5,293C 37.2154,292.241 34.2154,290.908 31.5,289C 32.1667,288.667 32.8333,288.333 33.5,288C 32.5842,287.722 31.9175,287.222 31.5,286.5C 32.1667,285.833 32.8333,285.167 33.5,284.5 Z"/></g>
<g><path style="opacity:1" fill="#2b2620" d="M 139.5,286.5 C 139.5,286.833 139.5,287.167 139.5,287.5C 140.598,288.397 140.598,289.23 139.5,290C 137.167,291 134.833,292 132.5,293C 137.603,292.88 142.603,292.047 147.5,290.5C 147.5,291.5 147.5,292.5 147.5,293.5C 144.199,293.864 141.199,295.031 138.5,297C 137.949,298.398 137.616,299.732 137.5,301C 135.122,301.511 132.788,302.178 130.5,303C 132.5,303.333 134.5,303.667 136.5,304C 129.193,305.496 121.86,306.83 114.5,308C 95.6621,308.829 76.9955,308.662 58.5,307.5C 78.1861,307.73 97.8528,307.23 117.5,306C 116.366,304.984 116.699,304.317 118.5,304C 121.5,303.667 124.5,303.333 127.5,303C 127.833,302.667 128.167,302.333 128.5,302C 127.167,301.833 125.833,301.667 124.5,301.5C 122.434,301.845 120.434,302.012 118.5,302C 118.616,300.732 118.949,299.398 119.5,298C 108.503,298.165 97.5027,298.665 86.5,299.5C 82.3188,299.499 78.3188,299.166 74.5,298.5C 82.1739,298.666 89.8406,298.5 97.5,298C 94.4465,297.821 91.4465,297.321 88.5,296.5C 88.6236,295.893 88.9569,295.56 89.5,295.5C 92.6491,296.165 95.9825,296.498 99.5,296.5C 105.726,296.564 111.726,295.897 117.5,294.5C 121.247,294.608 124.914,294.108 128.5,293C 127.167,292.667 125.833,292.333 124.5,292C 126.351,290.248 128.351,288.748 130.5,287.5C 130.586,288.496 130.252,289.329 129.5,290C 132.257,290.584 134.923,290.25 137.5,289C 136.849,287.692 137.515,286.859 139.5,286.5 Z"/></g>
<g><path style="opacity:1" fill="#3a322a" d="M 58.5,297.5 C 63.8221,297.98 69.1554,298.313 74.5,298.5C 78.3188,299.166 82.3188,299.499 86.5,299.5C 97.5027,298.665 108.503,298.165 119.5,298C 118.949,299.398 118.616,300.732 118.5,302C 120.434,302.012 122.434,301.845 124.5,301.5C 125.833,301.667 127.167,301.833 128.5,302C 128.167,302.333 127.833,302.667 127.5,303C 124.5,303.333 121.5,303.667 118.5,304C 116.699,304.317 116.366,304.984 117.5,306C 97.8528,307.23 78.1861,307.73 58.5,307.5C 56.2646,307.795 54.2646,307.461 52.5,306.5C 52.1961,305.85 51.8627,305.183 51.5,304.5C 41.0576,302.467 41.0576,301.3 51.5,301C 54.6677,300.418 55.001,299.418 52.5,298C 54.4727,297.505 56.4727,297.338 58.5,297.5 Z"/></g>
<g><path style="opacity:1" fill="#797979" d="M 18.5,305.5 C 20.0269,305.427 21.0269,306.094 21.5,307.5C 19.9731,307.573 18.9731,306.906 18.5,305.5 Z"/></g>
<g><path style="opacity:1" fill="#a5a5a5" d="M 36.5,311.5 C 41.7271,311.978 46.7271,312.978 51.5,314.5C 47.6375,314.538 43.8042,314.205 40,313.5C 38.3189,313.392 37.1522,312.725 36.5,311.5 Z"/></g>
<g><path style="opacity:1" fill="#818181" d="M 134.5,311.5 C 131.155,313.217 127.489,313.884 123.5,313.5C 126.974,312.475 130.64,311.808 134.5,311.5 Z"/></g>
</svg>
