<?xml version="1.0" encoding="UTF-8"?>
<!DOCTYPE svg PUBLIC "-//W3C//DTD SVG 1.1//EN" "http://www.w3.org/Graphics/SVG/1.1/DTD/svg11.dtd">
<svg xmlns="http://www.w3.org/2000/svg" version="1.1" width="235px" height="314px" style="shape-rendering:geometricPrecision; text-rendering:geometricPrecision; image-rendering:optimizeQuality; fill-rule:evenodd; clip-rule:evenodd" xmlns:xlink="http://www.w3.org/1999/xlink">
<g><path style="opacity:1" fill="#fdfdfd" d="M -0.5,-0.5 C 39.5,-0.5 79.5,-0.5 119.5,-0.5C 119.167,0.166667 118.833,0.833333 118.5,1.5C 115.552,3.36203 112.552,5.0287 109.5,6.5C 107.973,6.42702 106.973,7.09368 106.5,8.5C 97.5602,14.0981 91.2269,21.7648 87.5,31.5C 85.996,44.7358 86.3293,58.0691 88.5,71.5C 95.0817,76.6624 95.0817,81.829 88.5,87C 84.3764,89.2075 80.0431,90.7075 75.5,91.5C 71.4274,91.8079 67.4274,92.4746 63.5,93.5C 58.5578,95.3044 53.8912,97.6378 49.5,100.5C 47.9731,100.427 46.9731,101.094 46.5,102.5C 43.3037,103.929 40.3037,105.595 37.5,107.5C 35.326,107.75 33.6594,108.75 32.5,110.5C 28.6383,112.262 24.9717,114.262 21.5,116.5C 20.5041,116.414 19.6708,116.748 19,117.5C 18.5,137.831 18.3334,158.164 18.5,178.5C 18.427,180.027 19.0937,181.027 20.5,181.5C 22.5917,184.681 24.925,187.681 27.5,190.5C 27.8333,192.833 29.1667,194.167 31.5,194.5C 38.0411,201.449 45.7078,206.949 54.5,211C 58.3119,213.399 62.3119,213.899 66.5,212.5C 68.9674,212.245 70.9674,211.245 72.5,209.5C 74.1765,210.183 74.8432,211.517 74.5,213.5C 74.4431,214.609 74.1098,215.609 73.5,216.5C 72.3659,218.966 72.1993,221.633 73,224.5C 73.3826,225.056 73.8826,225.389 74.5,225.5C 79.4772,228.709 79.3105,232.043 74,235.5C 68.6353,243.886 68.1353,252.553 72.5,261.5C 70.5101,264.483 67.8434,266.816 64.5,268.5C 62.326,268.75 60.6594,269.75 59.5,271.5C 58.2058,272.29 57.0391,273.29 56,274.5C 55.8871,276.974 54.8871,278.974 53,280.5C 52.3333,284.5 52.3333,288.5 53,292.5C 53.7083,293.381 54.5416,294.047 55.5,294.5C 55.9731,295.906 56.9731,296.573 58.5,296.5C 63.5926,298.719 68.926,300.053 74.5,300.5C 76.78,302.223 79.4467,302.889 82.5,302.5C 104.807,304.653 127.14,304.986 149.5,303.5C 154.854,303.431 160.187,303.098 165.5,302.5C 171.212,302.224 176.545,300.89 181.5,298.5C 183.153,298.34 184.486,297.674 185.5,296.5C 188.025,295.319 190.525,293.986 193,292.5C 195.208,283.869 193.041,276.702 186.5,271C 183.102,269.643 180.102,267.81 177.5,265.5C 175.15,263.787 174.15,261.453 174.5,258.5C 175.966,257.653 176.8,256.32 177,254.5C 177.805,251.304 177.638,248.304 176.5,245.5C 176.771,243.62 176.104,242.287 174.5,241.5C 172.695,237.227 170.361,233.227 167.5,229.5C 168.188,228.145 169.188,227.145 170.5,226.5C 171.75,226.423 172.583,225.756 173,224.5C 173.789,222.288 173.622,220.288 172.5,218.5C 171.565,214.031 170.232,209.697 168.5,205.5C 168.573,203.973 167.906,202.973 166.5,202.5C 165.607,199.32 164.607,196.154 163.5,193C 163.743,192.098 164.077,191.265 164.5,190.5C 165.667,188.959 167,187.625 168.5,186.5C 170.042,187.163 171.709,187.83 173.5,188.5C 174.48,189.981 175.647,191.315 177,192.5C 175.827,196.336 175.494,200.336 176,204.5C 179.73,205.46 183.563,205.793 187.5,205.5C 188.765,204.486 189.431,202.986 189.5,201C 189.492,199.293 189.158,197.793 188.5,196.5C 188.167,195.833 187.833,195.167 187.5,194.5C 190.491,194.834 192.824,193.834 194.5,191.5C 197.811,186.555 201.811,182.222 206.5,178.5C 210.312,174.223 213.645,169.557 216.5,164.5C 218.132,164.175 219.132,163.175 219.5,161.5C 220.269,158.885 220.603,156.219 220.5,153.5C 221.147,152.726 221.48,151.726 221.5,150.5C 221.66,148.645 220.993,147.312 219.5,146.5C 216.856,144.031 214.023,141.698 211,139.5C 209.744,135.984 207.744,132.984 205,130.5C 205.639,119.084 202.306,109.084 195,100.5C 194.503,97.854 194.336,95.1873 194.5,92.5C 197.415,81.2789 198.082,69.9455 196.5,58.5C 196.011,57.0048 195.345,55.6715 194.5,54.5C 193.872,51.91 192.705,49.5766 191,47.5C 188.3,43.805 185.3,40.4717 182,37.5C 176.932,41.9796 173.098,47.3129 170.5,53.5C 169.094,53.9731 168.427,54.9731 168.5,56.5C 167.64,60.4338 167.307,64.4338 167.5,68.5C 167.72,76.0347 167.72,83.3681 167.5,90.5C 166.167,90.5 164.833,90.5 163.5,90.5C 161.193,89.3466 158.86,88.1799 156.5,87C 155.303,84.9847 153.97,83.1513 152.5,81.5C 153.382,78.615 154.716,75.9483 156.5,73.5C 158.045,72.7703 158.878,71.437 159,69.5C 159.498,66.5184 159.665,63.5184 159.5,60.5C 159.666,52.16 159.5,43.8267 159,35.5C 158.458,32.7084 157.624,30.0417 156.5,27.5C 150.53,16.0267 141.53,8.02672 129.5,3.5C 129.5,2.5 129.5,1.5 129.5,0.5C 127.901,0.767809 126.568,0.434475 125.5,-0.5C 161.833,-0.5 198.167,-0.5 234.5,-0.5C 234.5,104.167 234.5,208.833 234.5,313.5C 156.167,313.5 77.8333,313.5 -0.5,313.5C -0.5,208.833 -0.5,104.167 -0.5,-0.5 Z"/></g>
<g><path style="opacity:1" fill="#b6b6b6" d="M 119.5,-0.5 C 121.5,-0.5 123.5,-0.5 125.5,-0.5C 126.568,0.434475 127.901,0.767809 129.5,0.5C 129.5,1.5 129.5,2.5 129.5,3.5C 126.154,1.67636 122.487,1.00969 118.5,1.5C 118.833,0.833333 119.167,0.166667 119.5,-0.5 Z"/></g>
<g><path style="opacity:1" fill="#171513" d="M 118.5,1.5 C 122.487,1.00969 126.154,1.67636 129.5,3.5C 141.53,8.02672 150.53,16.0267 156.5,27.5C 154.692,27.4914 153.025,27.9914 151.5,29C 152.416,29.2784 153.082,29.7784 153.5,30.5C 150.039,33.6003 146.039,35.9336 141.5,37.5C 138.454,38.1843 135.454,38.6843 132.5,39C 130.875,35.4567 130.541,31.9567 131.5,28.5C 132.473,30.9479 132.806,33.6146 132.5,36.5C 138.561,35.4735 144.228,33.3069 149.5,30C 150.791,28.7083 150.791,27.5417 149.5,26.5C 145.387,18.3887 139.054,12.722 130.5,9.5C 130.44,8.95691 130.107,8.62358 129.5,8.5C 129.167,9.66667 128.833,10.8333 128.5,12C 129.333,15.4843 129.499,18.9843 129,22.5C 127.907,18.8312 127.074,15.1645 126.5,11.5C 126.795,9.26465 126.461,7.26465 125.5,5.5C 124.726,4.85287 123.726,4.51954 122.5,4.5C 120.97,4.63985 119.97,5.30652 119.5,6.5C 118.866,18.1089 117.532,29.7755 115.5,41.5C 107.163,40.3307 99.8296,36.9974 93.5,31.5C 93.5654,31.0618 93.3988,30.7284 93,30.5C 92.1482,31.5707 91.3149,32.5707 90.5,33.5C 90.6567,32.1266 90.49,30.7932 90,29.5C 89.5831,30.756 88.7498,31.4226 87.5,31.5C 91.2269,21.7648 97.5602,14.0981 106.5,8.5C 108.027,8.57298 109.027,7.90632 109.5,6.5C 112.552,5.0287 115.552,3.36203 118.5,1.5 Z"/></g>
<g><path style="opacity:1" fill="#636260" d="M 109.5,6.5 C 109.027,7.90632 108.027,8.57298 106.5,8.5C 106.973,7.09368 107.973,6.42702 109.5,6.5 Z"/></g>
<g><path style="opacity:1" fill="#aea99c" d="M 116.5,15.5 C 115.566,16.5676 115.232,17.901 115.5,19.5C 112.208,19.8804 109.875,18.5471 108.5,15.5C 106.35,17.1491 104.35,18.9824 102.5,21C 101.563,21.6917 100.897,21.525 100.5,20.5C 104.192,14.4784 109.526,10.8118 116.5,9.5C 116.5,11.5 116.5,13.5 116.5,15.5 Z"/></g>
<g><path style="opacity:1" fill="#757063" d="M 116.5,15.5 C 116.675,17.6208 116.341,19.6208 115.5,21.5C 113.678,26.2055 112.678,31.2055 112.5,36.5C 106.367,35.6842 100.867,33.3509 96,29.5C 95.3582,25.4503 96.8582,22.4503 100.5,20.5C 100.897,21.525 101.563,21.6917 102.5,21C 104.35,18.9824 106.35,17.1491 108.5,15.5C 109.875,18.5471 112.208,19.8804 115.5,19.5C 115.232,17.901 115.566,16.5676 116.5,15.5 Z"/></g>
<g><path style="opacity:1" fill="#958f83" d="M 125.5,5.5 C 126.461,7.26465 126.795,9.26465 126.5,11.5C 126.5,13.8333 126.5,16.1667 126.5,18.5C 124.167,18.5 121.833,18.5 119.5,18.5C 119.5,14.5 119.5,10.5 119.5,6.5C 119.97,5.30652 120.97,4.63985 122.5,4.5C 123.726,4.51954 124.726,4.85287 125.5,5.5 Z"/></g>
<g><path style="opacity:1" fill="#b9b3a3" d="M 125.5,5.5 C 125.5,9.5 125.5,13.5 125.5,17.5C 123.833,17.5 122.167,17.5 120.5,17.5C 120.5,13.5 120.5,9.5 120.5,5.5C 122.167,5.5 123.833,5.5 125.5,5.5 Z"/></g>
<g><path style="opacity:1" fill="#a9a395" d="M 130.5,9.5 C 139.054,12.722 145.387,18.3887 149.5,26.5C 149.483,28.0281 148.816,28.5281 147.5,28C 145.015,23.5228 141.848,19.6894 138,16.5C 135.853,18.4775 133.353,19.8108 130.5,20.5C 129.881,16.6441 129.881,12.9775 130.5,9.5 Z"/></g>
<g><path style="opacity:1" fill="#726c61" d="M 149.5,26.5 C 150.791,27.5417 150.791,28.7083 149.5,30C 144.228,33.3069 138.561,35.4735 132.5,36.5C 132.806,33.6146 132.473,30.9479 131.5,28.5C 131.721,25.7212 131.388,23.0545 130.5,20.5C 133.353,19.8108 135.853,18.4775 138,16.5C 141.848,19.6894 145.015,23.5228 147.5,28C 148.816,28.5281 149.483,28.0281 149.5,26.5 Z"/></g>
<g><path style="opacity:1" fill="#6c665c" d="M 119.5,6.5 C 119.5,10.5 119.5,14.5 119.5,18.5C 121.833,18.5 124.167,18.5 126.5,18.5C 126.965,26.4014 128.299,34.0681 130.5,41.5C 134.673,41.3333 138.34,40 141.5,37.5C 146.039,35.9336 150.039,33.6003 153.5,30.5C 154.338,30.8417 154.672,31.5084 154.5,32.5C 153.105,30.9456 152.439,31.279 152.5,33.5C 152.676,37.0042 153.676,40.0042 155.5,42.5C 150.51,46.1218 145.177,49.2885 139.5,52C 135.024,53.9917 130.357,55.4917 125.5,56.5C 125.942,60.1545 126.276,63.8212 126.5,67.5C 126.5,68.1667 126.5,68.8333 126.5,69.5C 124.778,72.91 122.611,73.2434 120,70.5C 119.803,65.9145 119.303,61.4145 118.5,57C 110.453,54.4747 102.786,51.1414 95.5,47C 93.7605,45.483 92.0938,43.983 90.5,42.5C 91.7251,41.8478 92.3917,40.6811 92.5,39C 92.9172,36.5021 93.2505,34.0021 93.5,31.5C 99.8296,36.9974 107.163,40.3307 115.5,41.5C 117.532,29.7755 118.866,18.1089 119.5,6.5 Z"/></g>
<g><path style="opacity:1" fill="#2d2923" d="M 130.5,9.5 C 129.881,12.9775 129.881,16.6441 130.5,20.5C 131.388,23.0545 131.721,25.7212 131.5,28.5C 130.541,31.9567 130.875,35.4567 132.5,39C 135.454,38.6843 138.454,38.1843 141.5,37.5C 138.34,40 134.673,41.3333 130.5,41.5C 128.299,34.0681 126.965,26.4014 126.5,18.5C 126.5,16.1667 126.5,13.8333 126.5,11.5C 127.074,15.1645 127.907,18.8312 129,22.5C 129.499,18.9843 129.333,15.4843 128.5,12C 128.833,10.8333 129.167,9.66667 129.5,8.5C 130.107,8.62358 130.44,8.95691 130.5,9.5 Z"/></g>
<g><path style="opacity:1" fill="#0d0c0a" d="M 156.5,27.5 C 157.624,30.0417 158.458,32.7084 159,35.5C 159.5,43.8267 159.666,52.16 159.5,60.5C 158.19,64.6501 157.19,68.9834 156.5,73.5C 152.65,75.2481 151.317,77.9148 152.5,81.5C 153.97,83.1513 155.303,84.9847 156.5,87C 158.86,88.1799 161.193,89.3466 163.5,90.5C 165.515,91.9238 167.848,92.5905 170.5,92.5C 170.802,89.9407 170.468,87.6074 169.5,85.5C 169.5,83.5 169.5,81.5 169.5,79.5C 169.338,77.4727 169.505,75.4727 170,73.5C 170.198,75.3817 170.698,77.0484 171.5,78.5C 172.036,89.3444 173.036,100.011 174.5,110.5C 174.183,114.702 174.517,118.702 175.5,122.5C 175.5,127.167 175.5,131.833 175.5,136.5C 175.806,139.385 175.473,142.052 174.5,144.5C 174.672,143.508 174.338,142.842 173.5,142.5C 172.597,139.075 171.097,138.742 169,141.5C 167.5,143.833 166,146.167 164.5,148.5C 165.602,149.176 166.602,149.842 167.5,150.5C 167.5,151.167 167.167,151.5 166.5,151.5C 165.508,151.328 164.842,151.662 164.5,152.5C 160.907,153.43 159.241,155.763 159.5,159.5C 163.931,159.769 168.265,159.436 172.5,158.5C 179.47,157.2 186.47,157.2 193.5,158.5C 194.167,158.833 194.833,159.167 195.5,159.5C 197.969,160.317 200.635,160.817 203.5,161C 201.866,161.494 200.199,161.66 198.5,161.5C 198.263,162.791 198.596,163.791 199.5,164.5C 200.151,165.091 200.818,165.757 201.5,166.5C 202.72,165.289 203.887,165.289 205,166.5C 204.865,168.425 204.698,170.425 204.5,172.5C 203.524,173.815 202.524,175.148 201.5,176.5C 201.833,176.833 202.167,177.167 202.5,177.5C 203.288,176.23 204.288,175.23 205.5,174.5C 206.434,175.568 206.768,176.901 206.5,178.5C 201.811,182.222 197.811,186.555 194.5,191.5C 191.843,191.935 189.509,192.935 187.5,194.5C 187.833,195.167 188.167,195.833 188.5,196.5C 188.736,199.609 188.403,202.609 187.5,205.5C 183.563,205.793 179.73,205.46 176,204.5C 175.494,200.336 175.827,196.336 177,192.5C 175.647,191.315 174.48,189.981 173.5,188.5C 171.709,187.83 170.042,187.163 168.5,186.5C 165.833,180.5 165.833,174.5 168.5,168.5C 171.021,162.673 169.021,160.34 162.5,161.5C 162.263,162.791 162.596,163.791 163.5,164.5C 163.469,167.959 162.802,171.292 161.5,174.5C 163.456,179.657 164.456,184.991 164.5,190.5C 164.077,191.265 163.743,192.098 163.5,193C 164.607,196.154 165.607,199.32 166.5,202.5C 166.427,204.027 167.094,205.027 168.5,205.5C 170.232,209.697 171.565,214.031 172.5,218.5C 172.717,221.421 172.051,224.087 170.5,226.5C 169.188,227.145 168.188,228.145 167.5,229.5C 170.361,233.227 172.695,237.227 174.5,241.5C 175.36,245.434 175.693,249.434 175.5,253.5C 175.371,255.216 175.038,256.883 174.5,258.5C 171.886,261.983 172.886,264.316 177.5,265.5C 180.102,267.81 183.102,269.643 186.5,271C 193.041,276.702 195.208,283.869 193,292.5C 190.525,293.986 188.025,295.319 185.5,296.5C 183.62,296.229 182.287,296.896 181.5,298.5C 176.202,299.685 170.869,300.685 165.5,301.5C 159.949,301.527 154.616,302.194 149.5,303.5C 127.14,304.986 104.807,304.653 82.5,302.5C 80.0392,301.469 77.3725,300.802 74.5,300.5C 68.926,300.053 63.5926,298.719 58.5,296.5C 58.0269,295.094 57.0269,294.427 55.5,294.5C 54.5416,294.047 53.7083,293.381 53,292.5C 52.3333,288.5 52.3333,284.5 53,280.5C 54.8871,278.974 55.8871,276.974 56,274.5C 57.0391,273.29 58.2058,272.29 59.5,271.5C 61.8477,271.408 63.5144,270.408 64.5,268.5C 67.8434,266.816 70.5101,264.483 72.5,261.5C 68.1353,252.553 68.6353,243.886 74,235.5C 79.3105,232.043 79.4772,228.709 74.5,225.5C 73.701,222.57 73.3677,219.57 73.5,216.5C 74.1098,215.609 74.4431,214.609 74.5,213.5C 76.1053,211.692 76.4387,209.692 75.5,207.5C 74.2613,207.942 73.2613,208.609 72.5,209.5C 70.0326,209.755 68.0326,210.755 66.5,212.5C 62.3119,213.899 58.3119,213.399 54.5,211C 45.7078,206.949 38.0411,201.449 31.5,194.5C 30.5,192.833 29.1667,191.5 27.5,190.5C 24.925,187.681 22.5917,184.681 20.5,181.5C 20.4431,180.391 20.1098,179.391 19.5,178.5C 19.3334,158.497 19.5,138.497 20,118.5C 20.7172,117.956 21.2172,117.289 21.5,116.5C 24.9717,114.262 28.6383,112.262 32.5,110.5C 34.8477,110.408 36.5144,109.408 37.5,107.5C 40.3037,105.595 43.3037,103.929 46.5,102.5C 48.0269,102.573 49.0269,101.906 49.5,100.5C 53.8912,97.6378 58.5578,95.3044 63.5,93.5C 63.5,94.1667 63.8333,94.5 64.5,94.5C 66.2646,95.4614 68.2646,95.7947 70.5,95.5C 70.5,94.5 70.5,93.5 70.5,92.5C 72.4147,92.7845 74.0813,92.4511 75.5,91.5C 80.0431,90.7075 84.3764,89.2075 88.5,87C 95.0817,81.829 95.0817,76.6624 88.5,71.5C 86.3293,58.0691 85.996,44.7358 87.5,31.5C 88.7498,31.4226 89.5831,30.756 90,29.5C 90.49,30.7932 90.6567,32.1266 90.5,33.5C 90.5,36.5 90.5,39.5 90.5,42.5C 92.0938,43.983 93.7605,45.483 95.5,47C 102.786,51.1414 110.453,54.4747 118.5,57C 119.303,61.4145 119.803,65.9145 120,70.5C 122.611,73.2434 124.778,72.91 126.5,69.5C 127.167,69.1667 127.833,68.8333 128.5,68.5C 128.34,70.153 127.674,71.4863 126.5,72.5C 123.471,75.1234 120.638,74.7901 118,71.5C 117.51,70.2068 117.343,68.8734 117.5,67.5C 117.881,65.0582 117.214,64.3915 115.5,65.5C 112.763,63.8978 109.763,63.0645 106.5,63C 105.333,61.8333 104.167,60.6667 103,59.5C 102.455,68.7782 104.455,77.4449 109,85.5C 111.098,87.0492 113.432,88.0492 116,88.5C 120.333,87.1667 124.667,87.1667 129,88.5C 131.226,87.9671 133.393,87.3004 135.5,86.5C 136.167,86.5 136.833,86.5 137.5,86.5C 137.179,88.0481 136.179,88.7148 134.5,88.5C 134.725,92.0562 133.892,92.3895 132,89.5C 131.05,90.0223 130.216,90.689 129.5,91.5C 128.5,90.8333 127.5,90.1667 126.5,89.5C 125.808,90.0253 125.308,90.6919 125,91.5C 124.481,90.4844 123.647,89.8178 122.5,89.5C 120.432,89.9672 118.432,90.6339 116.5,91.5C 114.714,89.0776 113.048,89.0776 111.5,91.5C 109.462,88.075 106.962,85.075 104,82.5C 103.667,83.1667 103.333,83.8333 103,84.5C 102.504,82.9651 102.67,81.4651 103.5,80C 101.884,77.6553 100.551,75.1553 99.5,72.5C 102.06,70.3257 102.06,68.159 99.5,66C 100.138,62.4595 100.472,58.9595 100.5,55.5C 100.363,53.8927 99.6964,52.5594 98.5,51.5C 96.9432,62.1058 97.7765,72.7725 101,83.5C 105.592,88.4658 110.092,93.6325 114.5,99C 115.448,99.4828 116.448,99.6495 117.5,99.5C 121.43,101.005 125.097,100.672 128.5,98.5C 129.873,98.6567 131.207,98.49 132.5,98C 135.051,94.9556 137.384,91.7889 139.5,88.5C 142.415,88.0874 144.248,86.4207 145,83.5C 146.889,77.8872 148.056,72.0539 148.5,66C 148.628,61.4302 148.461,56.9302 148,52.5C 145.535,54.0552 145.035,56.0552 146.5,58.5C 144.345,59.0014 142.678,60.0014 141.5,61.5C 141.167,61.5 140.833,61.5 140.5,61.5C 139.662,61.1583 139.328,60.4916 139.5,59.5C 139.5,59.1667 139.5,58.8333 139.5,58.5C 140.751,57.528 140.418,56.8614 138.5,56.5C 135.546,57.6247 132.546,58.6247 129.5,59.5C 130.714,61.0691 132.381,61.9024 134.5,62C 132.187,62.662 129.854,63.162 127.5,63.5C 127.768,65.099 127.434,66.4324 126.5,67.5C 126.276,63.8212 125.942,60.1545 125.5,56.5C 130.357,55.4917 135.024,53.9917 139.5,52C 145.177,49.2885 150.51,46.1218 155.5,42.5C 155.747,39.0613 155.414,35.728 154.5,32.5C 154.672,31.5084 154.338,30.8417 153.5,30.5C 153.082,29.7784 152.416,29.2784 151.5,29C 153.025,27.9914 154.692,27.4914 156.5,27.5 Z"/></g>
<g><path style="opacity:1" fill="#403c36" d="M 115.5,21.5 C 115.237,26.7699 114.237,31.7699 112.5,36.5C 112.678,31.2055 113.678,26.2055 115.5,21.5 Z"/></g>
<g><path style="opacity:1" fill="#a6a196" d="M 154.5,32.5 C 155.414,35.728 155.747,39.0613 155.5,42.5C 153.676,40.0042 152.676,37.0042 152.5,33.5C 152.439,31.279 153.105,30.9456 154.5,32.5 Z"/></g>
<g><path style="opacity:1" fill="#a7a398" d="M 93.5,31.5 C 93.2505,34.0021 92.9172,36.5021 92.5,39C 92.3917,40.6811 91.7251,41.8478 90.5,42.5C 90.5,39.5 90.5,36.5 90.5,33.5C 91.3149,32.5707 92.1482,31.5707 93,30.5C 93.3988,30.7284 93.5654,31.0618 93.5,31.5 Z"/></g>
<g><path style="opacity:1" fill="#2c261e" d="M 144.5,38.5 C 146.252,38.4176 147.252,39.2509 147.5,41C 145.833,44.3333 144.167,44.3333 142.5,41C 143.056,39.9889 143.722,39.1556 144.5,38.5 Z"/></g>
<g><path style="opacity:1" fill="#aca697" d="M 193.5,57.5 C 194.234,58.7079 194.567,60.0413 194.5,61.5C 193.222,61.7822 192.222,62.4489 191.5,63.5C 188.697,59.9954 186.53,55.9954 185,51.5C 183.604,49.4732 181.938,49.1398 180,50.5C 178.312,55.1103 175.812,59.1103 172.5,62.5C 170.623,61.3409 170.123,59.6742 171,57.5C 173.62,51.2463 177.453,45.9129 182.5,41.5C 185.159,44.3291 187.659,47.3291 190,50.5C 190.728,53.1868 191.895,55.5201 193.5,57.5 Z"/></g>
<g><path style="opacity:1" fill="#302b22" d="M 108.5,42.5 C 111.91,42.3838 113.244,44.0504 112.5,47.5C 108.065,48.0776 106.732,46.4109 108.5,42.5 Z"/></g>
<g><path style="opacity:1" fill="#2f2a20" d="M 134.5,42.5 C 138.161,42.3501 139.161,43.8501 137.5,47C 136.207,47.49 134.873,47.6567 133.5,47.5C 133.366,45.7085 133.699,44.0418 134.5,42.5 Z"/></g>
<g><path style="opacity:1" fill="#2b2a28" d="M 194.5,54.5 C 193.637,53.537 192.97,53.537 192.5,54.5C 193.127,55.4168 193.461,56.4168 193.5,57.5C 191.895,55.5201 190.728,53.1868 190,50.5C 187.659,47.3291 185.159,44.3291 182.5,41.5C 177.453,45.9129 173.62,51.2463 171,57.5C 170.123,59.6742 170.623,61.3409 172.5,62.5C 172.5,63.1667 172.5,63.8333 172.5,64.5C 170.899,63.3572 170.233,64.0239 170.5,66.5C 171.274,70.4649 171.607,74.4649 171.5,78.5C 170.698,77.0484 170.198,75.3817 170,73.5C 169.505,75.4727 169.338,77.4727 169.5,79.5C 168.833,75.8333 168.167,72.1667 167.5,68.5C 167.307,64.4338 167.64,60.4338 168.5,56.5C 169.906,56.0269 170.573,55.0269 170.5,53.5C 173.098,47.3129 176.932,41.9796 182,37.5C 185.3,40.4717 188.3,43.805 191,47.5C 192.705,49.5766 193.872,51.91 194.5,54.5 Z"/></g>
<g><path style="opacity:1" fill="#736c5f" d="M 191.5,63.5 C 188.668,66.5008 186.002,69.6675 183.5,73C 182.072,73.5791 180.738,73.4124 179.5,72.5C 180.028,71.1526 180.195,69.8193 180,68.5C 179.282,69.4506 178.449,69.6172 177.5,69C 176.589,66.5852 174.922,65.0852 172.5,64.5C 172.5,63.8333 172.5,63.1667 172.5,62.5C 175.812,59.1103 178.312,55.1103 180,50.5C 181.938,49.1398 183.604,49.4732 185,51.5C 186.53,55.9954 188.697,59.9954 191.5,63.5 Z"/></g>
<g><path style="opacity:1" fill="#918f90" d="M 170.5,53.5 C 170.573,55.0269 169.906,56.0269 168.5,56.5C 168.427,54.9731 169.094,53.9731 170.5,53.5 Z"/></g>
<g><path style="opacity:1" fill="#36342d" d="M 153.5,46.5 C 154.794,48.0478 155.461,50.0478 155.5,52.5C 155.066,57.8395 154.566,63.1728 154,68.5C 153.751,69.624 153.251,70.624 152.5,71.5C 151.662,66.9212 150.996,62.0879 150.5,57C 150.667,54.1667 150.833,51.3333 151,48.5C 151.995,47.9341 152.828,47.2674 153.5,46.5 Z"/></g>
<g><path style="opacity:1" fill="#9f9c95" d="M 139.5,58.5 C 139.5,58.8333 139.5,59.1667 139.5,59.5C 135.942,60.8706 135.608,60.204 138.5,57.5C 139.107,57.6236 139.44,57.9569 139.5,58.5 Z"/></g>
<g><path style="opacity:1" fill="#2f2c26" d="M 106.5,59.5 C 105.596,58.791 105.263,57.791 105.5,56.5C 108.684,57.6427 112.017,58.3094 115.5,58.5C 115.5,59.5 115.5,60.5 115.5,61.5C 113.94,61.5191 112.44,61.8524 111,62.5C 108.815,62.3023 107.315,61.3023 106.5,59.5 Z"/></g>
<g><path style="opacity:1" fill="#9d9892" d="M 106.5,59.5 C 107.354,57.0663 108.354,57.233 109.5,60C 108.423,60.4696 107.423,60.3029 106.5,59.5 Z"/></g>
<g><path style="opacity:1" fill="#37342d" d="M 90.5,46.5 C 92.1703,46.7512 93.6703,47.4178 95,48.5C 95.42,56.673 95.0867,64.673 94,72.5C 91.2097,64.1305 90.043,55.4638 90.5,46.5 Z"/></g>
<g><path style="opacity:1" fill="#2a2621" d="M 139.5,58.5 C 139.44,57.9569 139.107,57.6236 138.5,57.5C 135.608,60.204 135.942,60.8706 139.5,59.5C 139.328,60.4916 139.662,61.1583 140.5,61.5C 137.797,62.963 134.797,63.7963 131.5,64C 132.236,67.1988 131.403,67.3655 129,64.5C 128.51,65.7932 128.343,67.1266 128.5,68.5C 127.833,68.8333 127.167,69.1667 126.5,69.5C 126.5,68.8333 126.5,68.1667 126.5,67.5C 127.434,66.4324 127.768,65.099 127.5,63.5C 129.854,63.162 132.187,62.662 134.5,62C 132.381,61.9024 130.714,61.0691 129.5,59.5C 132.546,58.6247 135.546,57.6247 138.5,56.5C 140.418,56.8614 140.751,57.528 139.5,58.5 Z"/></g>
<g><path style="opacity:1" fill="#c4c4c3" d="M 159.5,60.5 C 159.665,63.5184 159.498,66.5184 159,69.5C 158.878,71.437 158.045,72.7703 156.5,73.5C 157.19,68.9834 158.19,64.6501 159.5,60.5 Z"/></g>
<g><path style="opacity:1" fill="#6c675d" d="M 117.5,67.5 C 115.665,73.5197 117.998,76.6864 124.5,77C 126.65,75.8077 127.317,74.3077 126.5,72.5C 127.674,71.4863 128.34,70.153 128.5,68.5C 128.343,67.1266 128.51,65.7932 129,64.5C 131.403,67.3655 132.236,67.1988 131.5,64C 134.797,63.7963 137.797,62.963 140.5,61.5C 140.833,61.5 141.167,61.5 141.5,61.5C 143.749,70.8393 141.749,79.1727 135.5,86.5C 133.393,87.3004 131.226,87.9671 129,88.5C 124.667,87.1667 120.333,87.1667 116,88.5C 113.432,88.0492 111.098,87.0492 109,85.5C 104.455,77.4449 102.455,68.7782 103,59.5C 104.167,60.6667 105.333,61.8333 106.5,63C 109.763,63.0645 112.763,63.8978 115.5,65.5C 117.214,64.3915 117.881,65.0582 117.5,67.5 Z"/></g>
<g><path style="opacity:1" fill="#2c261f" d="M 172.5,65.5 C 172.5,65.1667 172.5,64.8333 172.5,64.5C 174.922,65.0852 176.589,66.5852 177.5,69C 178.449,69.6172 179.282,69.4506 180,68.5C 180.195,69.8193 180.028,71.1526 179.5,72.5C 176.806,70.4728 174.473,68.1395 172.5,65.5 Z"/></g>
<g><path style="opacity:1" fill="#726d60" d="M 190.5,67.5 C 190.305,73.224 187.971,77.8907 183.5,81.5C 183.337,79.1432 183.503,76.8098 184,74.5C 186.4,72.2707 188.567,69.9374 190.5,67.5 Z"/></g>
<g><path style="opacity:1" fill="#2d2821" d="M 117.5,67.5 C 117.343,68.8734 117.51,70.2068 118,71.5C 120.638,74.7901 123.471,75.1234 126.5,72.5C 127.317,74.3077 126.65,75.8077 124.5,77C 117.998,76.6864 115.665,73.5197 117.5,67.5 Z"/></g>
<g><path style="opacity:1" fill="#201d1a" d="M 139.5,88.5 C 140.66,86.7973 139.993,86.1307 137.5,86.5C 136.833,86.5 136.167,86.5 135.5,86.5C 141.749,79.1727 143.749,70.8393 141.5,61.5C 142.678,60.0014 144.345,59.0014 146.5,58.5C 145.035,56.0552 145.535,54.0552 148,52.5C 148.461,56.9302 148.628,61.4302 148.5,66C 148.056,72.0539 146.889,77.8872 145,83.5C 144.248,86.4207 142.415,88.0874 139.5,88.5 Z"/></g>
<g><path style="opacity:1" fill="#9d9d9c" d="M 156.5,73.5 C 154.716,75.9483 153.382,78.615 152.5,81.5C 151.317,77.9148 152.65,75.2481 156.5,73.5 Z"/></g>
<g><path style="opacity:1" fill="#c2c2c2" d="M 196.5,58.5 C 198.082,69.9455 197.415,81.2789 194.5,92.5C 195.261,81.1728 195.928,69.8395 196.5,58.5 Z"/></g>
<g><path style="opacity:1" fill="#b3ac9c" d="M 193.5,69.5 C 193.448,73.1981 193.114,76.8648 192.5,80.5C 191.681,83.3054 191.181,86.3054 191,89.5C 190.808,87.4233 190.308,85.4233 189.5,83.5C 187.839,85.8272 185.839,87.8272 183.5,89.5C 183.5,86.8333 183.5,84.1667 183.5,81.5C 187.971,77.8907 190.305,73.224 190.5,67.5C 193.083,63.5566 194.083,64.2233 193.5,69.5 Z"/></g>
<g><path style="opacity:1" fill="#484338" d="M 118.5,79.5 C 120.824,79.9949 122.991,79.9949 125,79.5C 127.584,80.1037 130.084,80.9371 132.5,82C 129.182,82.1747 125.849,82.0081 122.5,81.5C 119.334,81.4492 116.334,82.1159 113.5,83.5C 112.167,82.8333 112.167,82.1667 113.5,81.5C 115.336,80.9724 117.003,80.3058 118.5,79.5 Z"/></g>
<g><path style="opacity:1" fill="#777164" d="M 172.5,65.5 C 174.473,68.1395 176.806,70.4728 179.5,72.5C 179.461,73.7562 179.961,74.7562 181,75.5C 181.5,83.1594 181.666,90.8261 181.5,98.5C 179.807,99.4749 178.307,100.808 177,102.5C 175.891,99.0528 176.891,96.3862 180,94.5C 180.667,91.8333 180.667,89.1667 180,86.5C 178.649,88.019 177.149,89.3523 175.5,90.5C 174.417,82.1715 173.417,73.8381 172.5,65.5 Z"/></g>
<g><path style="opacity:1" fill="#cecdcb" d="M 167.5,68.5 C 168.167,72.1667 168.833,75.8333 169.5,79.5C 169.5,81.5 169.5,83.5 169.5,85.5C 169.799,87.604 169.466,89.604 168.5,91.5C 167.893,91.3764 167.56,91.0431 167.5,90.5C 167.72,83.3681 167.72,76.0347 167.5,68.5 Z"/></g>
<g><path style="opacity:1" fill="#898174" d="M 192.5,80.5 C 192.861,89.3948 192.194,98.0615 190.5,106.5C 190.666,101.489 190.499,96.4889 190,91.5C 189.282,90.5494 188.449,90.3828 187.5,91C 186.267,92.6667 184.933,94.1667 183.5,95.5C 183.5,93.5 183.5,91.5 183.5,89.5C 185.839,87.8272 187.839,85.8272 189.5,83.5C 190.308,85.4233 190.808,87.4233 191,89.5C 191.181,86.3054 191.681,83.3054 192.5,80.5 Z"/></g>
<g><path style="opacity:1" fill="#2d2b25" d="M 137.5,86.5 C 139.993,86.1307 140.66,86.7973 139.5,88.5C 137.384,91.7889 135.051,94.9556 132.5,98C 131.207,98.49 129.873,98.6567 128.5,98.5C 127.542,95.8753 126.376,95.8753 125,98.5C 123.62,95.9422 122.12,95.9422 120.5,98.5C 118.633,95.7709 117.633,96.1043 117.5,99.5C 116.448,99.6495 115.448,99.4828 114.5,99C 110.092,93.6325 105.592,88.4658 101,83.5C 97.7765,72.7725 96.9432,62.1058 98.5,51.5C 99.6964,52.5594 100.363,53.8927 100.5,55.5C 100.472,58.9595 100.138,62.4595 99.5,66C 102.06,68.159 102.06,70.3257 99.5,72.5C 100.551,75.1553 101.884,77.6553 103.5,80C 102.67,81.4651 102.504,82.9651 103,84.5C 103.333,83.8333 103.667,83.1667 104,82.5C 106.962,85.075 109.462,88.075 111.5,91.5C 113.048,89.0776 114.714,89.0776 116.5,91.5C 118.432,90.6339 120.432,89.9672 122.5,89.5C 123.647,89.8178 124.481,90.4844 125,91.5C 125.308,90.6919 125.808,90.0253 126.5,89.5C 127.5,90.1667 128.5,90.8333 129.5,91.5C 130.216,90.689 131.05,90.0223 132,89.5C 133.892,92.3895 134.725,92.0562 134.5,88.5C 136.179,88.7148 137.179,88.0481 137.5,86.5 Z"/></g>
<g><path style="opacity:1" fill="#4c4a49" d="M 169.5,85.5 C 170.468,87.6074 170.802,89.9407 170.5,92.5C 167.848,92.5905 165.515,91.9238 163.5,90.5C 164.833,90.5 166.167,90.5 167.5,90.5C 167.56,91.0431 167.893,91.3764 168.5,91.5C 169.466,89.604 169.799,87.604 169.5,85.5 Z"/></g>
<g><path style="opacity:1" fill="#c6c6c6" d="M 75.5,91.5 C 74.0813,92.4511 72.4147,92.7845 70.5,92.5C 70.5,93.5 70.5,94.5 70.5,95.5C 68.2646,95.7947 66.2646,95.4614 64.5,94.5C 63.8333,94.5 63.5,94.1667 63.5,93.5C 67.4274,92.4746 71.4274,91.8079 75.5,91.5 Z"/></g>
<g><path style="opacity:1" fill="#787878" d="M 70.5,92.5 C 70.5,93.5 70.5,94.5 70.5,95.5C 68.2646,95.7947 66.2646,95.4614 64.5,94.5C 66.8863,94.7413 68.8863,94.0746 70.5,92.5 Z"/></g>
<g><path style="opacity:1" fill="#a6a197" d="M 82.5,95.5 C 82.6716,96.4916 82.3382,97.1583 81.5,97.5C 79.5648,98.1495 77.5648,98.4828 75.5,98.5C 75.5774,97.2502 76.244,96.4169 77.5,96C 79.1341,95.5065 80.8008,95.3398 82.5,95.5 Z"/></g>
<g><path style="opacity:1" fill="#a49f93" d="M 163.5,95.5 C 165.199,95.3398 166.866,95.5065 168.5,96C 169.756,96.4169 170.423,97.2502 170.5,98.5C 168.379,98.6747 166.379,98.3414 164.5,97.5C 163.662,97.1583 163.328,96.4916 163.5,95.5 Z"/></g>
<g><path style="opacity:1" fill="#6b6559" d="M 81.5,97.5 C 82.562,99.2341 82.562,100.901 81.5,102.5C 79.8333,102.5 78.1667,102.5 76.5,102.5C 76.5674,101.041 76.2341,99.7079 75.5,98.5C 77.5648,98.4828 79.5648,98.1495 81.5,97.5 Z"/></g>
<g><path style="opacity:1" fill="#6b665d" d="M 164.5,97.5 C 166.379,98.3414 168.379,98.6747 170.5,98.5C 170.461,99.5832 170.127,100.583 169.5,101.5C 167.257,102.474 164.924,102.808 162.5,102.5C 163.167,100.833 163.833,99.1667 164.5,97.5 Z"/></g>
<g><path style="opacity:1" fill="#aea79a" d="M 190.5,106.5 C 190.5,109.5 190.5,112.5 190.5,115.5C 189.253,121.63 188.586,127.963 188.5,134.5C 188.5,135.833 188.5,137.167 188.5,138.5C 188.083,141.159 187.083,143.492 185.5,145.5C 186.27,129.131 187.103,112.798 188,96.5C 186.667,97.8333 185.333,99.1667 184,100.5C 183.506,98.8659 183.34,97.1992 183.5,95.5C 184.933,94.1667 186.267,92.6667 187.5,91C 188.449,90.3828 189.282,90.5494 190,91.5C 190.499,96.4889 190.666,101.489 190.5,106.5 Z"/></g>
<g><path style="opacity:1" fill="#161513" d="M 194.5,54.5 C 195.345,55.6715 196.011,57.0048 196.5,58.5C 195.928,69.8395 195.261,81.1728 194.5,92.5C 194.336,95.1873 194.503,97.854 195,100.5C 202.306,109.084 205.639,119.084 205,130.5C 207.744,132.984 209.744,135.984 211,139.5C 214.023,141.698 216.856,144.031 219.5,146.5C 220.219,148.764 220.552,151.097 220.5,153.5C 219.193,157.081 217.859,160.747 216.5,164.5C 213.645,169.557 210.312,174.223 206.5,178.5C 206.768,176.901 206.434,175.568 205.5,174.5C 210.905,167.856 214.572,160.356 216.5,152C 216.486,150.615 216.152,149.449 215.5,148.5C 214.086,146.946 212.419,145.612 210.5,144.5C 209.914,144.709 209.414,145.043 209,145.5C 206.959,144.248 204.625,143.581 202,143.5C 196.958,142.608 193.125,144.275 190.5,148.5C 189.549,149.919 189.216,151.585 189.5,153.5C 191.5,153.5 193.5,153.5 195.5,153.5C 195.085,151.052 196.085,149.719 198.5,149.5C 202.381,150.085 205.047,152.085 206.5,155.5C 207.623,157.518 207.623,159.518 206.5,161.5C 203.705,161.938 201.372,162.938 199.5,164.5C 198.596,163.791 198.263,162.791 198.5,161.5C 200.199,161.66 201.866,161.494 203.5,161C 200.635,160.817 197.969,160.317 195.5,159.5C 198.5,159.5 201.5,159.5 204.5,159.5C 204.759,155.763 203.093,153.43 199.5,152.5C 198.566,153.568 198.232,154.901 198.5,156.5C 188.161,156.666 177.828,156.5 167.5,156C 166.62,154.644 166.286,153.144 166.5,151.5C 167.167,151.5 167.5,151.167 167.5,150.5C 168.5,150.833 169.167,151.5 169.5,152.5C 170.919,153.451 172.585,153.784 174.5,153.5C 174.5,150.5 174.5,147.5 174.5,144.5C 175.473,142.052 175.806,139.385 175.5,136.5C 176.477,139.287 176.81,142.287 176.5,145.5C 178.662,146.417 180.995,146.417 183.5,145.5C 184.167,145.5 184.833,145.5 185.5,145.5C 185.611,146.117 185.944,146.617 186.5,147C 183.522,147.696 180.522,148.196 177.5,148.5C 177.5,150.167 177.5,151.833 177.5,153.5C 179.167,153.5 180.833,153.5 182.5,153.5C 184.167,153.5 185.833,153.5 187.5,153.5C 187.5,151.833 187.5,150.167 187.5,148.5C 188.414,145.272 188.747,141.939 188.5,138.5C 188.5,137.167 188.5,135.833 188.5,134.5C 189.996,128.395 190.663,122.062 190.5,115.5C 190.5,112.5 190.5,109.5 190.5,106.5C 192.194,98.0615 192.861,89.3948 192.5,80.5C 193.114,76.8648 193.448,73.1981 193.5,69.5C 194.473,67.0521 194.806,64.3854 194.5,61.5C 194.567,60.0413 194.234,58.7079 193.5,57.5C 193.461,56.4168 193.127,55.4168 192.5,54.5C 192.97,53.537 193.637,53.537 194.5,54.5 Z"/></g>
<g><path style="opacity:1" fill="#6b6c6a" d="M 49.5,100.5 C 49.0269,101.906 48.0269,102.573 46.5,102.5C 46.9731,101.094 47.9731,100.427 49.5,100.5 Z"/></g>
<g><path style="opacity:1" fill="#b0a99b" d="M 172.5,64.5 C 172.5,64.8333 172.5,65.1667 172.5,65.5C 173.417,73.8381 174.417,82.1715 175.5,90.5C 177.149,89.3523 178.649,88.019 180,86.5C 180.667,89.1667 180.667,91.8333 180,94.5C 176.891,96.3862 175.891,99.0528 177,102.5C 178.307,100.808 179.807,99.4749 181.5,98.5C 181.5,100.833 181.5,103.167 181.5,105.5C 179.389,107.631 177.056,109.298 174.5,110.5C 173.036,100.011 172.036,89.3444 171.5,78.5C 171.607,74.4649 171.274,70.4649 170.5,66.5C 170.233,64.0239 170.899,63.3572 172.5,64.5 Z"/></g>
<g><path style="opacity:1" fill="#3c3a35" d="M 69.5,103.5 C 75.618,105.725 81.2846,108.725 86.5,112.5C 82.6069,113.24 78.9402,113.24 75.5,112.5C 71.2468,109.789 66.7468,107.456 62,105.5C 58.9012,107.299 55.7345,108.966 52.5,110.5C 52.44,109.957 52.1067,109.624 51.5,109.5C 49.1716,110.217 47.0049,111.217 45,112.5C 43.9231,111.571 42.7564,110.904 41.5,110.5C 48.2043,106.394 55.0376,102.394 62,98.5C 64.939,99.6227 67.439,101.289 69.5,103.5 Z"/></g>
<g><path style="opacity:1" fill="#0b0b09" d="M 69.5,103.5 C 70.8499,104.824 70.6833,105.824 69,106.5C 66.7735,105.637 64.6068,104.637 62.5,103.5C 59.9733,105.471 57.3066,106.137 54.5,105.5C 56.7937,103.347 59.4604,101.68 62.5,100.5C 64.4872,102.327 66.8205,103.327 69.5,103.5 Z"/></g>
<g><path style="opacity:1" fill="#615f57" d="M 99.5,114.5 C 93.631,112.268 88.631,108.934 84.5,104.5C 84.7352,103.903 85.2352,103.57 86,103.5C 88.5891,104.697 91.2558,105.697 94,106.5C 96.648,108.896 99.148,111.396 101.5,114C 100.906,114.464 100.239,114.631 99.5,114.5 Z"/></g>
<g><path style="opacity:1" fill="#68635a" d="M 161.5,104.5 C 157.695,108.256 158.029,111.256 162.5,113.5C 162.167,113.833 161.833,114.167 161.5,114.5C 159.922,113.36 158.256,112.86 156.5,113C 161.067,115.382 161.4,118.049 157.5,121C 155.956,122.187 154.289,122.52 152.5,122C 146.974,115.883 146.308,116.383 150.5,123.5C 150.167,123.833 149.833,124.167 149.5,124.5C 148.238,122.619 146.571,121.286 144.5,120.5C 142.149,121.173 139.816,121.84 137.5,122.5C 142.057,114.112 148.724,107.945 157.5,104C 159.066,103.235 160.399,103.402 161.5,104.5 Z"/></g>
<g><path style="opacity:1" fill="#50504d" d="M 37.5,107.5 C 36.5144,109.408 34.8477,110.408 32.5,110.5C 33.6594,108.75 35.326,107.75 37.5,107.5 Z"/></g>
<g><path style="opacity:1" fill="#24221d" d="M 95.5,84.5 C 97.7569,85.6128 98.4236,87.2795 97.5,89.5C 98.8333,90.8333 100.167,92.1667 101.5,93.5C 100.371,95.5294 100.871,95.8627 103,94.5C 107.137,99.3081 111.304,104.141 115.5,109C 117.101,109.273 118.601,109.773 120,110.5C 123.522,109.271 127.022,108.771 130.5,109C 134.524,103.31 139.524,98.6429 145.5,95C 144.978,94.4387 144.645,93.772 144.5,93C 145.613,91.6057 146.947,90.439 148.5,89.5C 147.708,87.8051 148.042,86.1385 149.5,84.5C 152.015,87.8488 155.015,90.6821 158.5,93C 157.902,94.3012 156.902,95.1345 155.5,95.5C 153.833,94.1667 152.167,94.1667 150.5,95.5C 149.481,94.3128 148.314,93.3128 147,92.5C 146.493,93.9961 146.993,95.1627 148.5,96C 147.5,96.3333 146.5,96.6667 145.5,97C 146.428,97.3879 147.095,98.0546 147.5,99C 142.955,103.043 138.955,107.543 135.5,112.5C 128.117,116.95 120.451,117.45 112.5,114C 108.38,110.045 104.38,105.878 100.5,101.5C 95.6325,99.1422 90.9659,96.4755 86.5,93.5C 90.4938,91.5062 93.4938,88.5062 95.5,84.5 Z"/></g>
<g><path style="opacity:1" fill="#746f62" d="M 183.5,95.5 C 183.34,97.1992 183.506,98.8659 184,100.5C 185.333,99.1667 186.667,97.8333 188,96.5C 187.103,112.798 186.27,129.131 185.5,145.5C 184.833,145.5 184.167,145.5 183.5,145.5C 183.4,128.638 183.4,111.971 183.5,95.5 Z"/></g>
<g><path style="opacity:1" fill="#1f1c17" d="M 75.5,112.5 C 82.8689,116.848 90.2022,121.181 97.5,125.5C 97.5,134.5 97.5,143.5 97.5,152.5C 96.8333,155.833 96.1667,159.167 95.5,162.5C 95.5,160.167 95.5,157.833 95.5,155.5C 84.8333,155.5 74.1667,155.5 63.5,155.5C 63.5,164.5 63.5,173.5 63.5,182.5C 65.1667,182.5 66.8333,182.5 68.5,182.5C 66.7354,183.461 64.7354,183.795 62.5,183.5C 62.8214,189.026 62.4881,194.36 61.5,199.5C 61.0825,200.222 60.4158,200.722 59.5,201C 61.5,201.667 63.5,201.667 65.5,201C 72.5083,198.133 78.8416,194.299 84.5,189.5C 85.955,189.93 87.2883,189.93 88.5,189.5C 86.684,191.817 84.684,193.984 82.5,196C 82.7284,196.399 83.0618,196.565 83.5,196.5C 78.3026,202.098 71.9693,205.598 64.5,207C 70.1082,203.724 75.4415,200.057 80.5,196C 74.5109,198.395 68.5109,201.228 62.5,204.5C 56.0402,201.436 49.7068,198.103 43.5,194.5C 42.8933,194.624 42.56,194.957 42.5,195.5C 37.6046,192.612 37.6046,191.446 42.5,192C 36.6478,186.812 31.4812,180.979 27,174.5C 26.502,171.518 26.3354,168.518 26.5,165.5C 26.3334,151.829 26.5001,138.163 27,124.5C 35.6438,120.006 44.1438,115.339 52.5,110.5C 55.7345,108.966 58.9012,107.299 62,105.5C 66.7468,107.456 71.2468,109.789 75.5,112.5 Z"/></g>
<g><path style="opacity:1" fill="#bab2a1" d="M 64.5,108.5 C 74.1448,114.66 84.1448,120.326 94.5,125.5C 95.4982,134.475 95.8315,143.475 95.5,152.5C 84.8333,152.5 74.1667,152.5 63.5,152.5C 63.1707,137.657 63.504,122.99 64.5,108.5 Z"/></g>
<g><path style="opacity:1" fill="#39322a" d="M 59.5,108.5 C 61.4833,122.795 62.1499,137.462 61.5,152.5C 50.5,152.5 39.5,152.5 28.5,152.5C 28.3336,143.827 28.5002,135.16 29,126.5C 39.2799,120.613 49.4465,114.613 59.5,108.5 Z"/></g>
<g><path style="opacity:1" fill="#34312a" d="M 82.5,95.5 C 86.5602,100.718 91.8936,104.218 98.5,106C 102.622,112.126 107.955,116.793 114.5,120C 122.017,121.073 129.35,120.406 136.5,118C 140.5,113.667 144.5,109.333 148.5,105C 154.718,103.563 159.718,100.397 163.5,95.5C 163.328,96.4916 163.662,97.1583 164.5,97.5C 163.833,99.1667 163.167,100.833 162.5,102.5C 162.672,103.492 162.338,104.158 161.5,104.5C 160.399,103.402 159.066,103.235 157.5,104C 148.724,107.945 142.057,114.112 137.5,122.5C 137.5,123.167 137.5,123.833 137.5,124.5C 136.766,123.071 135.599,122.071 134,121.5C 128.215,122.434 122.382,122.768 116.5,122.5C 113.734,121.768 111.068,121.768 108.5,122.5C 106.915,121.526 105.915,120.026 105.5,118C 103.09,117.4 101.09,116.234 99.5,114.5C 100.239,114.631 100.906,114.464 101.5,114C 99.148,111.396 96.648,108.896 94,106.5C 91.2558,105.697 88.5891,104.697 86,103.5C 85.2352,103.57 84.7352,103.903 84.5,104.5C 83.7777,103.449 82.7777,102.782 81.5,102.5C 82.562,100.901 82.562,99.2341 81.5,97.5C 82.3382,97.1583 82.6716,96.4916 82.5,95.5 Z"/></g>
<g><path style="opacity:1" fill="#4b4741" d="M 128.5,98.5 C 125.097,100.672 121.43,101.005 117.5,99.5C 117.633,96.1043 118.633,95.7709 120.5,98.5C 122.12,95.9422 123.62,95.9422 125,98.5C 126.376,95.8753 127.542,95.8753 128.5,98.5 Z"/></g>
<g><path style="opacity:1" fill="#666258" d="M 52.5,110.5 C 44.1438,115.339 35.6438,120.006 27,124.5C 26.5001,138.163 26.3334,151.829 26.5,165.5C 24.955,164.77 24.1216,163.437 24,161.5C 23.5001,147.837 23.3334,134.171 23.5,120.5C 29.2452,116.766 35.2452,113.432 41.5,110.5C 42.7564,110.904 43.9231,111.571 45,112.5C 47.0049,111.217 49.1716,110.217 51.5,109.5C 52.1067,109.624 52.44,109.957 52.5,110.5 Z"/></g>
<g><path style="opacity:1" fill="#69655b" d="M 75.5,112.5 C 78.9402,113.24 82.6069,113.24 86.5,112.5C 90.9121,115.571 95.5788,118.238 100.5,120.5C 101.499,133.483 101.832,146.483 101.5,159.5C 100.678,161.389 99.8447,163.389 99,165.5C 98.831,151.994 98.331,138.66 97.5,125.5C 90.2022,121.181 82.8689,116.848 75.5,112.5 Z"/></g>
<g><path style="opacity:1" fill="#706a5e" d="M 181.5,105.5 C 182.148,118.876 181.481,131.876 179.5,144.5C 179.068,133.778 178.068,123.111 176.5,112.5C 175.513,115.768 175.18,119.102 175.5,122.5C 174.517,118.702 174.183,114.702 174.5,110.5C 177.056,109.298 179.389,107.631 181.5,105.5 Z"/></g>
<g><path style="opacity:1" fill="#615d50" d="M 193.5,106.5 C 193.334,110.514 193.501,114.514 194,118.5C 194.333,117.833 194.667,117.167 195,116.5C 195.662,118.813 196.162,121.146 196.5,123.5C 195.041,123.433 193.708,123.766 192.5,124.5C 192.177,118.31 192.51,112.31 193.5,106.5 Z"/></g>
<g><path style="opacity:1" fill="#38352c" d="M 166.5,111.5 C 167.764,113.772 167.598,116.105 166,118.5C 162.347,123.671 157.513,127.004 151.5,128.5C 150.274,128.48 149.274,128.147 148.5,127.5C 157.32,125.347 163.32,120.013 166.5,111.5 Z"/></g>
<g><path style="opacity:1" fill="#555048" d="M 137.5,124.5 C 139.534,128.908 138.367,130.575 134,129.5C 133.667,127.833 133.333,126.167 133,124.5C 132.503,126.81 132.337,129.143 132.5,131.5C 125.978,131.823 119.645,131.49 113.5,130.5C 119.5,130.5 125.5,130.5 131.5,130.5C 131.5,128.167 131.5,125.833 131.5,123.5C 126.305,123.821 121.305,123.487 116.5,122.5C 122.382,122.768 128.215,122.434 134,121.5C 135.599,122.071 136.766,123.071 137.5,124.5 Z"/></g>
<g><path style="opacity:1" fill="#908b80" d="M 193.5,106.5 C 199.134,111.866 201.134,118.366 199.5,126C 198.333,126.167 197.167,126.333 196,126.5C 194.319,126.392 193.152,125.725 192.5,124.5C 193.708,123.766 195.041,123.433 196.5,123.5C 196.162,121.146 195.662,118.813 195,116.5C 194.667,117.167 194.333,117.833 194,118.5C 193.501,114.514 193.334,110.514 193.5,106.5 Z"/></g>
<g><path style="opacity:1" fill="#6f685e" d="M 116.5,122.5 C 121.305,123.487 126.305,123.821 131.5,123.5C 131.5,125.833 131.5,128.167 131.5,130.5C 125.5,130.5 119.5,130.5 113.5,130.5C 113.799,128.396 113.466,126.396 112.5,124.5C 111.548,126.045 111.215,127.712 111.5,129.5C 110.167,129.5 108.833,129.5 107.5,129.5C 107.993,127.194 108.326,124.861 108.5,122.5C 111.068,121.768 113.734,121.768 116.5,122.5 Z"/></g>
<g><path style="opacity:1" fill="#716a60" d="M 171.5,117.5 C 168.197,121.651 165.03,125.985 162,130.5C 158.173,134.412 153.507,136.412 148,136.5C 143.5,136 139,135.5 134.5,135C 138.047,134.693 141.38,133.86 144.5,132.5C 144.768,130.901 144.434,129.568 143.5,128.5C 142.699,126.958 142.366,125.292 142.5,123.5C 145.522,123.342 147.522,124.675 148.5,127.5C 149.274,128.147 150.274,128.48 151.5,128.5C 157.513,127.004 162.347,123.671 166,118.5C 167.598,116.105 167.764,113.772 166.5,111.5C 163.497,111.012 162.331,109.345 163,106.5C 165.718,105.987 168.551,105.987 171.5,106.5C 171.5,110.167 171.5,113.833 171.5,117.5 Z"/></g>
<g><path style="opacity:1" fill="#4a453c" d="M 190.5,115.5 C 190.663,122.062 189.996,128.395 188.5,134.5C 188.586,127.963 189.253,121.63 190.5,115.5 Z"/></g>
<g><path style="opacity:1" fill="#a7a394" d="M 179.5,144.5 C 178.791,145.404 177.791,145.737 176.5,145.5C 176.81,142.287 176.477,139.287 175.5,136.5C 175.5,131.833 175.5,127.167 175.5,122.5C 175.18,119.102 175.513,115.768 176.5,112.5C 178.068,123.111 179.068,133.778 179.5,144.5 Z"/></g>
<g><path style="opacity:1" fill="#3e3a32" d="M 194.5,61.5 C 194.806,64.3854 194.473,67.0521 193.5,69.5C 194.083,64.2233 193.083,63.5566 190.5,67.5C 188.567,69.9374 186.4,72.2707 184,74.5C 183.503,76.8098 183.337,79.1432 183.5,81.5C 183.5,84.1667 183.5,86.8333 183.5,89.5C 183.5,91.5 183.5,93.5 183.5,95.5C 183.4,111.971 183.4,128.638 183.5,145.5C 180.995,146.417 178.662,146.417 176.5,145.5C 177.791,145.737 178.791,145.404 179.5,144.5C 181.481,131.876 182.148,118.876 181.5,105.5C 181.5,103.167 181.5,100.833 181.5,98.5C 181.666,90.8261 181.5,83.1594 181,75.5C 179.961,74.7562 179.461,73.7562 179.5,72.5C 180.738,73.4124 182.072,73.5791 183.5,73C 186.002,69.6675 188.668,66.5008 191.5,63.5C 192.222,62.4489 193.222,61.7822 194.5,61.5 Z"/></g>
<g><path style="opacity:1" fill="#292723" d="M 197.5,132.5 C 202.213,133.191 205.546,135.857 207.5,140.5C 203.952,140.619 200.285,140.785 196.5,141C 194.598,142.301 192.598,142.968 190.5,143C 191.167,142.667 191.833,142.333 192.5,142C 191.167,141 191.167,140 192.5,139C 195.226,138.818 197.893,138.318 200.5,137.5C 199.624,136.749 198.624,136.249 197.5,136C 198.167,135.667 198.833,135.333 199.5,135C 198.244,134.583 197.577,133.75 197.5,132.5 Z"/></g>
<g><path style="opacity:1" fill="#3c352d" d="M 171.5,117.5 C 171.922,121.712 171.256,125.712 169.5,129.5C 168.372,130.262 167.205,130.929 166,131.5C 162.82,142.51 155.653,146.343 144.5,143C 140.202,141.402 135.869,139.735 131.5,138C 124.433,137.161 117.433,137.494 110.5,139C 109.354,139.645 108.354,140.478 107.5,141.5C 106.223,138.966 106.223,136.466 107.5,134C 119.596,134.004 131.596,133.17 143.5,131.5C 143.5,130.5 143.5,129.5 143.5,128.5C 144.434,129.568 144.768,130.901 144.5,132.5C 141.38,133.86 138.047,134.693 134.5,135C 139,135.5 143.5,136 148,136.5C 153.507,136.412 158.173,134.412 162,130.5C 165.03,125.985 168.197,121.651 171.5,117.5 Z"/></g>
<g><path style="opacity:1" fill="#eae9e8" d="M 173.5,142.5 C 173.5,145.833 173.5,149.167 173.5,152.5C 172.167,152.5 170.833,152.5 169.5,152.5C 169.167,151.5 168.5,150.833 167.5,150.5C 166.602,149.842 165.602,149.176 164.5,148.5C 166,146.167 167.5,143.833 169,141.5C 171.097,138.742 172.597,139.075 173.5,142.5 Z"/></g>
<g><path style="opacity:1" fill="#a1998d" d="M 215.5,148.5 C 214.747,155.082 213.413,155.082 211.5,148.5C 210.554,148.987 209.554,149.32 208.5,149.5C 204.141,148.898 199.808,148.232 195.5,147.5C 193.937,148.945 192.604,150.611 191.5,152.5C 190.571,151.311 190.238,149.978 190.5,148.5C 193.125,144.275 196.958,142.608 202,143.5C 204.625,143.581 206.959,144.248 209,145.5C 209.414,145.043 209.914,144.709 210.5,144.5C 212.419,145.612 214.086,146.946 215.5,148.5 Z"/></g>
<g><path style="opacity:1" fill="#a19f9f" d="M 173.5,142.5 C 174.338,142.842 174.672,143.508 174.5,144.5C 174.5,147.5 174.5,150.5 174.5,153.5C 172.585,153.784 170.919,153.451 169.5,152.5C 170.833,152.5 172.167,152.5 173.5,152.5C 173.5,149.167 173.5,145.833 173.5,142.5 Z"/></g>
<g><path style="opacity:1" fill="#b3b6b2" d="M 219.5,146.5 C 220.993,147.312 221.66,148.645 221.5,150.5C 221.48,151.726 221.147,152.726 220.5,153.5C 220.552,151.097 220.219,148.764 219.5,146.5 Z"/></g>
<g><path style="opacity:1" fill="#38352d" d="M 188.5,138.5 C 188.747,141.939 188.414,145.272 187.5,148.5C 185.833,148.5 184.167,148.5 182.5,148.5C 182.5,150.167 182.5,151.833 182.5,153.5C 180.833,153.5 179.167,153.5 177.5,153.5C 177.5,151.833 177.5,150.167 177.5,148.5C 180.522,148.196 183.522,147.696 186.5,147C 185.944,146.617 185.611,146.117 185.5,145.5C 187.083,143.492 188.083,141.159 188.5,138.5 Z"/></g>
<g><path style="opacity:1" fill="#5d5950" d="M 64.5,108.5 C 63.504,122.99 63.1707,137.657 63.5,152.5C 74.1667,152.5 84.8333,152.5 95.5,152.5C 84.6794,153.495 73.6794,153.828 62.5,153.5C 62.1673,138.152 62.5006,122.819 63.5,107.5C 64.1067,107.624 64.44,107.957 64.5,108.5 Z"/></g>
<g><path style="opacity:1" fill="#726f64" d="M 187.5,148.5 C 187.5,150.167 187.5,151.833 187.5,153.5C 185.833,153.5 184.167,153.5 182.5,153.5C 182.5,151.833 182.5,150.167 182.5,148.5C 184.167,148.5 185.833,148.5 187.5,148.5 Z"/></g>
<g><path style="opacity:1" fill="#272727" d="M 21.5,116.5 C 21.2172,117.289 20.7172,117.956 20,118.5C 19.5,138.497 19.3334,158.497 19.5,178.5C 19.1667,178.5 18.8333,178.5 18.5,178.5C 18.3334,158.164 18.5,137.831 19,117.5C 19.6708,116.748 20.5041,116.414 21.5,116.5 Z"/></g>
<g><path style="opacity:1" fill="#bab2a1" d="M 52.5,182.5 C 44.7651,181.605 38.2651,178.272 33,172.5C 31.5462,169.929 30.3795,167.262 29.5,164.5C 29.5,161.5 29.5,158.5 29.5,155.5C 39.8333,155.5 50.1667,155.5 60.5,155.5C 60.5,164.5 60.5,173.5 60.5,182.5C 57.8333,182.5 55.1667,182.5 52.5,182.5 Z"/></g>
<g><path style="opacity:1" fill="#3a332a" d="M 95.5,162.5 C 90.6992,174.743 81.6992,181.409 68.5,182.5C 66.8333,182.5 65.1667,182.5 63.5,182.5C 63.5,173.5 63.5,164.5 63.5,155.5C 74.1667,155.5 84.8333,155.5 95.5,155.5C 95.5,157.833 95.5,160.167 95.5,162.5 Z"/></g>
<g><path style="opacity:1" fill="#3a3631" d="M 164.5,152.5 C 164.842,151.662 165.508,151.328 166.5,151.5C 166.286,153.144 166.62,154.644 167.5,156C 177.828,156.5 188.161,156.666 198.5,156.5C 198.232,154.901 198.566,153.568 199.5,152.5C 199.5,154.167 199.5,155.833 199.5,157.5C 197.265,157.205 195.265,157.539 193.5,158.5C 186.47,157.2 179.47,157.2 172.5,158.5C 170.052,157.527 167.385,157.194 164.5,157.5C 165.096,155.602 165.096,153.935 164.5,152.5 Z"/></g>
<g><path style="opacity:1" fill="#746c61" d="M 137.5,159.5 C 137.631,158.624 137.298,157.957 136.5,157.5C 135.012,162.483 132.679,166.983 129.5,171C 130.094,171.464 130.761,171.631 131.5,171.5C 129.069,172.741 129.069,173.908 131.5,175C 125.798,178.211 120.131,178.211 114.5,175C 115.167,174.667 115.833,174.333 116.5,174C 114.607,171.697 112.607,169.53 110.5,167.5C 109.672,163.862 108.339,160.529 106.5,157.5C 106.5,155.167 106.5,152.833 106.5,150.5C 112.091,148.311 117.924,146.978 124,146.5C 129.065,147.932 134.231,149.265 139.5,150.5C 139.142,153.689 138.475,156.689 137.5,159.5 Z"/></g>
<g><path style="opacity:1" fill="#b6ad9f" d="M 120.5,151.5 C 123.85,151.335 127.183,151.502 130.5,152C 133.326,154.522 132.993,156.522 129.5,158C 126.5,158.667 123.5,158.667 120.5,158C 117.939,155.844 117.939,153.677 120.5,151.5 Z"/></g>
<g><path style="opacity:1" fill="#7c796f" d="M 199.5,152.5 C 203.093,153.43 204.759,155.763 204.5,159.5C 201.5,159.5 198.5,159.5 195.5,159.5C 194.833,159.167 194.167,158.833 193.5,158.5C 195.265,157.539 197.265,157.205 199.5,157.5C 199.5,155.833 199.5,154.167 199.5,152.5 Z"/></g>
<g><path style="opacity:1" fill="#716a64" d="M 164.5,152.5 C 165.096,153.935 165.096,155.602 164.5,157.5C 167.385,157.194 170.052,157.527 172.5,158.5C 168.265,159.436 163.931,159.769 159.5,159.5C 159.241,155.763 160.907,153.43 164.5,152.5 Z"/></g>
<g><path style="opacity:1" fill="#c5c6c5" d="M 220.5,153.5 C 220.603,156.219 220.269,158.885 219.5,161.5C 219.132,163.175 218.132,164.175 216.5,164.5C 217.859,160.747 219.193,157.081 220.5,153.5 Z"/></g>
<g><path style="opacity:1" fill="#919190" d="M 168.5,168.5 C 168.5,166.833 168.5,165.167 168.5,163.5C 166.585,163.216 164.919,163.549 163.5,164.5C 162.596,163.791 162.263,162.791 162.5,161.5C 169.021,160.34 171.021,162.673 168.5,168.5 Z"/></g>
<g><path style="opacity:1" fill="#75726a" d="M 215.5,148.5 C 216.152,149.449 216.486,150.615 216.5,152C 214.572,160.356 210.905,167.856 205.5,174.5C 204.288,175.23 203.288,176.23 202.5,177.5C 202.167,177.167 201.833,176.833 201.5,176.5C 202.524,175.148 203.524,173.815 204.5,172.5C 205.596,170.897 206.93,169.397 208.5,168C 207.692,167.692 207.025,167.192 206.5,166.5C 209.828,163.245 210.661,159.578 209,155.5C 208.23,156.598 207.397,156.598 206.5,155.5C 205.047,152.085 202.381,150.085 198.5,149.5C 196.085,149.719 195.085,151.052 195.5,153.5C 193.5,153.5 191.5,153.5 189.5,153.5C 189.216,151.585 189.549,149.919 190.5,148.5C 190.238,149.978 190.571,151.311 191.5,152.5C 192.604,150.611 193.937,148.945 195.5,147.5C 199.808,148.232 204.141,148.898 208.5,149.5C 209.554,149.32 210.554,148.987 211.5,148.5C 213.413,155.082 214.747,155.082 215.5,148.5 Z"/></g>
<g><path style="opacity:1" fill="#36322a" d="M 23.5,120.5 C 23.3334,134.171 23.5001,147.837 24,161.5C 24.1216,163.437 24.955,164.77 26.5,165.5C 26.3354,168.518 26.502,171.518 27,174.5C 31.4812,180.979 36.6478,186.812 42.5,192C 37.6046,191.446 37.6046,192.612 42.5,195.5C 44.332,196.14 44.6653,197.14 43.5,198.5C 35.099,192.6 28.2656,185.267 23,176.5C 22.1712,157.662 22.3378,138.995 23.5,120.5 Z"/></g>
<g><path style="opacity:1" fill="#38312b" d="M 181.5,161.5 C 181.5,164.5 181.5,167.5 181.5,170.5C 178.5,170.5 175.5,170.5 172.5,170.5C 172.336,167.813 172.503,165.146 173,162.5C 175.719,161.556 178.552,161.223 181.5,161.5 Z"/></g>
<g><path style="opacity:1" fill="#6f695e" d="M 181.5,161.5 C 195.492,160.341 200.659,166.674 197,180.5C 196.353,185.169 193.853,188.169 189.5,189.5C 188.5,189.5 187.5,189.5 186.5,189.5C 187.117,183.402 186.45,177.735 184.5,172.5C 183.29,172.068 182.29,171.401 181.5,170.5C 181.5,167.5 181.5,164.5 181.5,161.5 Z"/></g>
<g><path style="opacity:1" fill="#040302" d="M 97.5,152.5 C 97.6695,159.524 97.8361,166.524 98,173.5C 94.357,179.636 89.857,184.969 84.5,189.5C 78.8416,194.299 72.5083,198.133 65.5,201C 63.5,201.667 61.5,201.667 59.5,201C 60.4158,200.722 61.0825,200.222 61.5,199.5C 62.4881,194.36 62.8214,189.026 62.5,183.5C 64.7354,183.795 66.7354,183.461 68.5,182.5C 81.6992,181.409 90.6992,174.743 95.5,162.5C 96.1667,159.167 96.8333,155.833 97.5,152.5 Z"/></g>
<g><path style="opacity:1" fill="#44413b" d="M 206.5,155.5 C 207.397,156.598 208.23,156.598 209,155.5C 210.661,159.578 209.828,163.245 206.5,166.5C 207.025,167.192 207.692,167.692 208.5,168C 206.93,169.397 205.596,170.897 204.5,172.5C 204.698,170.425 204.865,168.425 205,166.5C 203.887,165.289 202.72,165.289 201.5,166.5C 200.818,165.757 200.151,165.091 199.5,164.5C 201.372,162.938 203.705,161.938 206.5,161.5C 207.623,159.518 207.623,157.518 206.5,155.5 Z"/></g>
<g><path style="opacity:1" fill="#979185" d="M 61.5,183.5 C 58.2869,183.81 55.2869,183.477 52.5,182.5C 55.1667,182.5 57.8333,182.5 60.5,182.5C 60.5,173.5 60.5,164.5 60.5,155.5C 50.1667,155.5 39.8333,155.5 29.5,155.5C 29.5,158.5 29.5,161.5 29.5,164.5C 29.1667,164.5 28.8333,164.5 28.5,164.5C 28.5,161.167 28.5,157.833 28.5,154.5C 39.5,154.5 50.5,154.5 61.5,154.5C 61.5,164.167 61.5,173.833 61.5,183.5 Z"/></g>
<g><path style="opacity:1" fill="#332f29" d="M 97.5,125.5 C 98.331,138.66 98.831,151.994 99,165.5C 99.8447,163.389 100.678,161.389 101.5,159.5C 103.585,170.25 101.085,179.583 94,187.5C 90.9219,191.085 87.4219,194.085 83.5,196.5C 83.0618,196.565 82.7284,196.399 82.5,196C 84.684,193.984 86.684,191.817 88.5,189.5C 87.2883,189.93 85.955,189.93 84.5,189.5C 89.857,184.969 94.357,179.636 98,173.5C 97.8361,166.524 97.6695,159.524 97.5,152.5C 97.5,143.5 97.5,134.5 97.5,125.5 Z"/></g>
<g><path style="opacity:1" fill="#e3e3e2" d="M 168.5,168.5 C 165.833,174.5 165.833,180.5 168.5,186.5C 167,187.625 165.667,188.959 164.5,190.5C 164.456,184.991 163.456,179.657 161.5,174.5C 162.802,171.292 163.469,167.959 163.5,164.5C 164.919,163.549 166.585,163.216 168.5,163.5C 168.5,165.167 168.5,166.833 168.5,168.5 Z"/></g>
<g><path style="opacity:1" fill="#38322b" d="M 184.5,172.5 C 186.45,177.735 187.117,183.402 186.5,189.5C 187.5,189.5 188.5,189.5 189.5,189.5C 186.36,190.641 183.027,190.808 179.5,190C 177.771,188.211 177.104,186.044 177.5,183.5C 187.829,182.8 187.496,181.967 176.5,181C 175.565,178.619 175.232,176.119 175.5,173.5C 178.713,173.81 181.713,173.477 184.5,172.5 Z"/></g>
<g><path style="opacity:1" fill="#38322b" d="M 106.5,157.5 C 108.339,160.529 109.672,163.862 110.5,167.5C 112.607,169.53 114.607,171.697 116.5,174C 115.833,174.333 115.167,174.667 114.5,175C 120.131,178.211 125.798,178.211 131.5,175C 129.069,173.908 129.069,172.741 131.5,171.5C 134.454,167.966 136.454,163.966 137.5,159.5C 138.475,156.689 139.142,153.689 139.5,150.5C 134.231,149.265 129.065,147.932 124,146.5C 117.924,146.978 112.091,148.311 106.5,150.5C 106.33,149.178 106.663,148.011 107.5,147C 115.002,144.635 122.669,143.968 130.5,145C 134.417,146.479 138.417,147.646 142.5,148.5C 142.195,157.384 139.862,165.717 135.5,173.5C 136.002,174.521 136.668,174.688 137.5,174C 138.333,171.833 139.833,170.333 142,169.5C 143.285,162.74 144.952,156.074 147,149.5C 146.874,156.573 145.874,163.573 144,170.5C 134.029,184.872 121.696,187.205 107,177.5C 106.333,175.833 106.333,174.167 107,172.5C 108.333,173.833 109.667,175.167 111,176.5C 111.167,176.167 111.333,175.833 111.5,175.5C 107.69,170.129 106.023,164.129 106.5,157.5 Z"/></g>
<g><path style="opacity:1" fill="#948d81" d="M 137.5,159.5 C 136.454,163.966 134.454,167.966 131.5,171.5C 130.761,171.631 130.094,171.464 129.5,171C 132.679,166.983 135.012,162.483 136.5,157.5C 137.298,157.957 137.631,158.624 137.5,159.5 Z"/></g>
<g><path style="opacity:1" fill="#a7a093" d="M 116.5,159.5 C 118.665,159.116 120.332,159.783 121.5,161.5C 120.332,163.217 118.665,163.884 116.5,163.5C 116.5,162.167 116.5,160.833 116.5,159.5 Z"/></g>
<g><path style="opacity:1" fill="#6f695e" d="M 28.5,164.5 C 28.8333,164.5 29.1667,164.5 29.5,164.5C 30.3795,167.262 31.5462,169.929 33,172.5C 38.2651,178.272 44.7651,181.605 52.5,182.5C 55.2869,183.477 58.2869,183.81 61.5,183.5C 61.5,188.833 61.5,194.167 61.5,199.5C 47.6086,194.787 36.7753,186.121 29,173.5C 28.502,170.518 28.3354,167.518 28.5,164.5 Z"/></g>
<g><path style="opacity:1" fill="#8b8b8b" d="M 18.5,178.5 C 18.8333,178.5 19.1667,178.5 19.5,178.5C 20.1098,179.391 20.4431,180.391 20.5,181.5C 19.0937,181.027 18.427,180.027 18.5,178.5 Z"/></g>
<g><path style="opacity:1" fill="#8f8e8f" d="M 27.5,190.5 C 29.1667,191.5 30.5,192.833 31.5,194.5C 29.1667,194.167 27.8333,192.833 27.5,190.5 Z"/></g>
<g><path style="opacity:1" fill="#adadad" d="M 194.5,191.5 C 192.824,193.834 190.491,194.834 187.5,194.5C 189.509,192.935 191.843,191.935 194.5,191.5 Z"/></g>
<g><path style="opacity:1" fill="#3c3532" d="M 185.5,197.5 C 184.5,197.5 183.5,197.5 182.5,197.5C 182.325,199.621 182.659,201.621 183.5,203.5C 181.833,203.5 180.167,203.5 178.5,203.5C 178.5,201.5 178.5,199.5 178.5,197.5C 181.005,196.583 183.338,196.583 185.5,197.5 Z"/></g>
<g><path style="opacity:1" fill="#b0b0ae" d="M 188.5,196.5 C 189.158,197.793 189.492,199.293 189.5,201C 189.431,202.986 188.765,204.486 187.5,205.5C 188.403,202.609 188.736,199.609 188.5,196.5 Z"/></g>
<g><path style="opacity:1" fill="#716a5f" d="M 97.5,199.5 C 100.634,198.221 103.634,198.721 106.5,201C 120.307,202.186 133.973,201.353 147.5,198.5C 148.713,198.747 149.38,199.414 149.5,200.5C 147.876,198.863 146.876,199.197 146.5,201.5C 148.494,207.433 149.161,213.433 148.5,219.5C 147.5,220 146.5,220.5 145.5,221C 145.728,221.399 146.062,221.565 146.5,221.5C 138.551,222.974 130.384,223.64 122,223.5C 114.272,223.684 106.772,223.017 99.5,221.5C 99.9382,221.565 100.272,221.399 100.5,221C 98.6316,220.101 97.6316,218.601 97.5,216.5C 98.6639,211.18 99.6639,205.847 100.5,200.5C 99.675,199.614 98.675,199.281 97.5,199.5 Z"/></g>
<g><path style="opacity:1" fill="#837e74" d="M 185.5,197.5 C 186.461,199.265 186.795,201.265 186.5,203.5C 185.5,203.5 184.5,203.5 183.5,203.5C 182.659,201.621 182.325,199.621 182.5,197.5C 183.5,197.5 184.5,197.5 185.5,197.5 Z"/></g>
<g><path style="opacity:1" fill="#828079" d="M 86.5,199.5 C 87.0967,199.735 87.4301,200.235 87.5,201C 86.4602,205.745 84.4602,209.912 81.5,213.5C 80.628,211.534 80.7947,209.534 82,207.5C 82.9158,204.486 84.4158,201.819 86.5,199.5 Z"/></g>
<g><path style="opacity:1" fill="#808080" d="M 166.5,202.5 C 167.906,202.973 168.573,203.973 168.5,205.5C 167.094,205.027 166.427,204.027 166.5,202.5 Z"/></g>
<g><path style="opacity:1" fill="#aeaeac" d="M 74.5,213.5 C 74.8432,211.517 74.1765,210.183 72.5,209.5C 73.2613,208.609 74.2613,207.942 75.5,207.5C 76.4387,209.692 76.1053,211.692 74.5,213.5 Z"/></g>
<g><path style="opacity:1" fill="#8e8a80" d="M 157.5,195.5 C 158.5,195.5 159.5,195.5 160.5,195.5C 161.857,201.072 163.523,206.572 165.5,212C 165.167,212.5 164.833,213 164.5,213.5C 161.207,207.874 158.874,201.874 157.5,195.5 Z"/></g>
<g><path style="opacity:1" fill="#8a8887" d="M 72.5,209.5 C 70.9674,211.245 68.9674,212.245 66.5,212.5C 68.0326,210.755 70.0326,209.755 72.5,209.5 Z"/></g>
<g><path style="opacity:1" fill="#a9a395" d="M 149.5,200.5 C 151.406,205.66 152.739,210.993 153.5,216.5C 153.377,217.925 153.043,219.258 152.5,220.5C 150.5,220.833 148.5,221.167 146.5,221.5C 146.062,221.565 145.728,221.399 145.5,221C 146.5,220.5 147.5,220 148.5,219.5C 149.161,213.433 148.494,207.433 146.5,201.5C 146.876,199.197 147.876,198.863 149.5,200.5 Z"/></g>
<g><path style="opacity:1" fill="#a49f91" d="M 97.5,199.5 C 98.675,199.281 99.675,199.614 100.5,200.5C 99.6639,205.847 98.6639,211.18 97.5,216.5C 97.6316,218.601 98.6316,220.101 100.5,221C 100.272,221.399 99.9382,221.565 99.5,221.5C 98.8333,221.5 98.1667,221.5 97.5,221.5C 95.8828,220.962 94.2161,220.629 92.5,220.5C 93.4091,213.202 95.0757,206.202 97.5,199.5 Z"/></g>
<g><path style="opacity:1" fill="#898989" d="M 73.5,216.5 C 73.3677,219.57 73.701,222.57 74.5,225.5C 73.8826,225.389 73.3826,225.056 73,224.5C 72.1993,221.633 72.3659,218.966 73.5,216.5 Z"/></g>
<g><path style="opacity:1" fill="#26221c" d="M 97.5,221.5 C 98.1667,221.5 98.8333,221.5 99.5,221.5C 106.772,223.017 114.272,223.684 122,223.5C 130.384,223.64 138.551,222.974 146.5,221.5C 148.5,221.167 150.5,220.833 152.5,220.5C 154.99,221.09 157.657,221.257 160.5,221C 156.315,222.205 152.315,223.705 148.5,225.5C 148.631,224.761 148.464,224.094 148,223.5C 131.527,226.154 115.027,226.154 98.5,223.5C 97.8933,223.624 97.56,223.957 97.5,224.5C 93.4495,223.651 89.4495,222.485 85.5,221C 88.8818,220.841 92.2151,221.341 95.5,222.5C 96.4164,222.457 97.0831,222.124 97.5,221.5 Z"/></g>
<g><path style="opacity:1" fill="#afaeae" d="M 172.5,218.5 C 173.622,220.288 173.789,222.288 173,224.5C 172.583,225.756 171.75,226.423 170.5,226.5C 172.051,224.087 172.717,221.421 172.5,218.5 Z"/></g>
<g><path style="opacity:1" fill="#38312a" d="M 148.5,225.5 C 146.38,229.454 143.38,232.621 139.5,235C 128.503,236.953 117.503,236.953 106.5,235C 102.225,232.561 99.225,229.061 97.5,224.5C 97.56,223.957 97.8933,223.624 98.5,223.5C 115.027,226.154 131.527,226.154 148,223.5C 148.464,224.094 148.631,224.761 148.5,225.5 Z"/></g>
<g><path style="opacity:1" fill="#746d61" d="M 99.5,236.5 C 103.454,237.381 107.454,238.048 111.5,238.5C 115.82,239.166 120.32,239.499 125,239.5C 131.414,239.711 137.581,239.045 143.5,237.5C 144.391,236.89 145.391,236.557 146.5,236.5C 147.937,237.725 149.604,238.725 151.5,239.5C 151.833,240.333 152.167,241.167 152.5,242C 151.502,245.503 149.835,248.67 147.5,251.5C 148.7,252.292 150.033,252.292 151.5,251.5C 153.794,252.327 156.127,251.994 158.5,250.5C 160.334,249.506 162.001,249.506 163.5,250.5C 161.95,251.441 160.284,252.107 158.5,252.5C 157.167,252.833 155.833,253.167 154.5,253.5C 150.329,254.262 146.329,255.262 142.5,256.5C 128.496,256.667 114.496,256.5 100.5,256C 96.0684,255.133 91.7351,253.966 87.5,252.5C 86.8333,252.167 86.1667,251.833 85.5,251.5C 88.7379,252.104 92.0712,252.104 95.5,251.5C 97.8679,252.014 99.8679,253.18 101.5,255C 106.629,255.526 106.629,254.86 101.5,253C 98.9598,250.795 96.7932,248.295 95,245.5C 94.3333,243.5 94.3333,241.5 95,239.5C 96.6516,238.601 98.1516,237.601 99.5,236.5 Z"/></g>
<g><path style="opacity:1" fill="#4c4842" d="M 143.5,237.5 C 137.581,239.045 131.414,239.711 125,239.5C 120.32,239.499 115.82,239.166 111.5,238.5C 122.185,238.61 132.852,238.277 143.5,237.5 Z"/></g>
<g><path style="opacity:1" fill="#a9a498" d="M 99.5,236.5 C 98.1516,237.601 96.6516,238.601 95,239.5C 94.3333,241.5 94.3333,243.5 95,245.5C 96.7932,248.295 98.9598,250.795 101.5,253C 106.629,254.86 106.629,255.526 101.5,255C 99.8679,253.18 97.8679,252.014 95.5,251.5C 92.909,250.746 91.0757,249.079 90,246.5C 89.5065,244.866 89.3398,243.199 89.5,241.5C 91.3523,237.24 94.6857,235.573 99.5,236.5 Z"/></g>
<g><path style="opacity:1" fill="#8f9089" d="M 81.5,244.5 C 81.5,245.167 81.1667,245.5 80.5,245.5C 77.1056,244.303 76.6056,242.303 79,239.5C 79.0995,241.653 79.9328,243.319 81.5,244.5 Z"/></g>
<g><path style="opacity:1" fill="#6d6d6c" d="M 166.5,245.5 C 165.348,246.625 164.348,246.625 163.5,245.5C 164.458,245.047 165.292,244.381 166,243.5C 165.484,235.703 166.651,235.536 169.5,243C 168.87,244.31 167.87,245.144 166.5,245.5 Z"/></g>
<g><path style="opacity:1" fill="#aba699" d="M 146.5,236.5 C 154.906,235.736 158.073,239.402 156,247.5C 154.629,249.041 153.129,250.375 151.5,251.5C 150.033,252.292 148.7,252.292 147.5,251.5C 149.835,248.67 151.502,245.503 152.5,242C 152.167,241.167 151.833,240.333 151.5,239.5C 149.604,238.725 147.937,237.725 146.5,236.5 Z"/></g>
<g><path style="opacity:1" fill="#272520" d="M 89.5,241.5 C 89.3398,243.199 89.5065,244.866 90,246.5C 91.0757,249.079 92.909,250.746 95.5,251.5C 92.0712,252.104 88.7379,252.104 85.5,251.5C 83.5767,251.205 81.9101,250.372 80.5,249C 81.5,248.667 82.5,248.333 83.5,248C 82.4293,247.148 81.4293,246.315 80.5,245.5C 81.1667,245.5 81.5,245.167 81.5,244.5C 83.4605,246.312 85.7939,247.312 88.5,247.5C 88.2053,245.265 88.5386,243.265 89.5,241.5 Z"/></g>
<g><path style="opacity:1" fill="#312f2d" d="M 163.5,245.5 C 164.348,246.625 165.348,246.625 166.5,245.5C 167.773,248.271 166.773,249.938 163.5,250.5C 162.001,249.506 160.334,249.506 158.5,250.5C 159.167,247.833 160.833,246.167 163.5,245.5 Z"/></g>
<g><path style="opacity:1" fill="#454545" d="M 174.5,241.5 C 176.104,242.287 176.771,243.62 176.5,245.5C 176.806,248.385 176.473,251.052 175.5,253.5C 175.693,249.434 175.36,245.434 174.5,241.5 Z"/></g>
<g><path style="opacity:1" fill="#bfbfbf" d="M 176.5,245.5 C 177.638,248.304 177.805,251.304 177,254.5C 176.8,256.32 175.966,257.653 174.5,258.5C 175.038,256.883 175.371,255.216 175.5,253.5C 176.473,251.052 176.806,248.385 176.5,245.5 Z"/></g>
<g><path style="opacity:1" fill="#29241e" d="M 87.5,252.5 C 91.7351,253.966 96.0684,255.133 100.5,256C 114.496,256.5 128.496,256.667 142.5,256.5C 147.794,256.682 147.794,257.182 142.5,258C 136,258.5 129.5,259 123,259.5C 114.154,258.689 105.321,258.189 96.5,258C 94.6992,258.317 94.3659,258.984 95.5,260C 93.7254,261.439 91.7254,262.439 89.5,263C 90.5707,263.852 91.5707,264.685 92.5,265.5C 90.8212,265.285 89.8212,265.952 89.5,267.5C 88.5,267.5 87.5,267.5 86.5,267.5C 87.1408,266.518 87.8075,265.518 88.5,264.5C 85.7582,262.711 82.9248,261.044 80,259.5C 79.3054,257.278 78.4721,255.111 77.5,253C 77.8333,252.5 78.1667,252 78.5,251.5C 81.5749,253.047 84.5749,253.38 87.5,252.5 Z"/></g>
<g><path style="opacity:1" fill="#37322a" d="M 154.5,253.5 C 154.376,255.582 153.376,257.082 151.5,258C 152.833,258.667 152.833,259.333 151.5,260C 152.938,260.219 154.271,260.719 155.5,261.5C 154.975,262.192 154.308,262.692 153.5,263C 154.598,263.77 154.598,264.603 153.5,265.5C 138.44,269.27 123.107,270.436 107.5,269C 102.326,268.4 97.3261,267.233 92.5,265.5C 91.5707,264.685 90.5707,263.852 89.5,263C 91.7254,262.439 93.7254,261.439 95.5,260C 94.3659,258.984 94.6992,258.317 96.5,258C 105.321,258.189 114.154,258.689 123,259.5C 129.5,259 136,258.5 142.5,258C 147.794,257.182 147.794,256.682 142.5,256.5C 146.329,255.262 150.329,254.262 154.5,253.5 Z"/></g>
<g><path style="opacity:1" fill="#23201b" d="M 153.5,265.5 C 154.598,264.603 154.598,263.77 153.5,263C 154.308,262.692 154.975,262.192 155.5,261.5C 154.271,260.719 152.938,260.219 151.5,260C 152.833,259.333 152.833,258.667 151.5,258C 153.376,257.082 154.376,255.582 154.5,253.5C 155.833,253.167 157.167,252.833 158.5,252.5C 161.425,253.38 164.425,253.047 167.5,251.5C 167.833,251.833 168.167,252.167 168.5,252.5C 167.568,254.795 166.735,257.129 166,259.5C 162.041,261.983 157.875,263.983 153.5,265.5 Z"/></g>
<g><path style="opacity:1" fill="#aaaaa8" d="M 174.5,258.5 C 174.15,261.453 175.15,263.787 177.5,265.5C 172.886,264.316 171.886,261.983 174.5,258.5 Z"/></g>
<g><path style="opacity:1" fill="#6e695d" d="M 157.5,267.5 C 159.727,269.449 161.727,271.616 163.5,274C 160.769,277.854 157.436,281.02 153.5,283.5C 144.199,285.332 134.866,285.665 125.5,284.5C 131.5,280.49 137.167,275.99 142.5,271C 147.549,269.971 152.549,268.804 157.5,267.5 Z"/></g>
<g><path style="opacity:1" fill="#434343" d="M 64.5,268.5 C 63.5144,270.408 61.8477,271.408 59.5,271.5C 60.6594,269.75 62.326,268.75 64.5,268.5 Z"/></g>
<g><path style="opacity:1" fill="#6e685e" d="M 89.5,267.5 C 97.7498,269.691 106.083,271.691 114.5,273.5C 114.376,274.107 114.043,274.44 113.5,274.5C 106.695,277.105 100.029,280.105 93.5,283.5C 89.3661,281.2 86.0328,278.033 83.5,274C 85.014,271.322 87.014,269.155 89.5,267.5 Z"/></g>
<g><path style="opacity:1" fill="#797a73" d="M 177.5,275.5 C 177.672,274.508 177.338,273.842 176.5,273.5C 174.396,271.901 172.396,270.068 170.5,268C 174.133,268.989 177.466,270.822 180.5,273.5C 179.995,274.919 178.995,275.585 177.5,275.5 Z"/></g>
<g><path style="opacity:1" fill="#72736b" d="M 69.5,275.5 C 69.1667,275.5 68.8333,275.5 68.5,275.5C 66.7748,275.157 66.2748,274.157 67,272.5C 70.3636,270.071 73.8636,268.238 77.5,267C 75.0934,269.285 72.5934,271.451 70,273.5C 69.5357,274.094 69.369,274.761 69.5,275.5 Z"/></g>
<g><path style="opacity:1" fill="#9c978b" d="M 86.5,267.5 C 87.5,267.5 88.5,267.5 89.5,267.5C 87.014,269.155 85.014,271.322 83.5,274C 86.0328,278.033 89.3661,281.2 93.5,283.5C 89.753,283.608 86.0863,283.108 82.5,282C 86.1389,280.59 85.8056,279.423 81.5,278.5C 79.0863,277.594 78.253,275.928 79,273.5C 81.0865,270.906 83.5865,268.906 86.5,267.5 Z"/></g>
<g><path style="opacity:1" fill="#9a9689" d="M 157.5,267.5 C 161.536,268.02 164.703,270.02 167,273.5C 167.579,274.928 167.412,276.262 166.5,277.5C 164.391,278.391 162.391,279.558 160.5,281C 161.5,281.333 162.5,281.667 163.5,282C 161.942,282.21 160.609,282.71 159.5,283.5C 157.5,283.5 155.5,283.5 153.5,283.5C 157.436,281.02 160.769,277.854 163.5,274C 161.727,271.616 159.727,269.449 157.5,267.5 Z"/></g>
<g><path style="opacity:1" fill="#69655b" d="M 111.5,285.5 C 107.395,285.766 103.395,285.266 99.5,284C 104.711,282.232 109.378,279.732 113.5,276.5C 116.262,275.62 118.929,274.454 121.5,273C 122.944,272.219 124.277,272.386 125.5,273.5C 120.494,277.178 115.827,281.178 111.5,285.5 Z"/></g>
<g><path style="opacity:1" fill="#201b17" d="M 113.5,274.5 C 112.494,275.396 112.494,276.062 113.5,276.5C 109.378,279.732 104.711,282.232 99.5,284C 103.395,285.266 107.395,285.766 111.5,285.5C 113.473,286.163 115.639,286.496 118,286.5C 120.777,286.369 123.277,285.702 125.5,284.5C 134.866,285.665 144.199,285.332 153.5,283.5C 155.5,283.5 157.5,283.5 159.5,283.5C 154.967,285.246 148.967,286.413 141.5,287C 125.808,287.796 110.141,287.462 94.5,286C 92.3808,285.658 92.0474,284.825 93.5,283.5C 100.029,280.105 106.695,277.105 113.5,274.5 Z"/></g>
<g><path style="opacity:1" fill="#362f28" d="M 176.5,273.5 C 177.338,273.842 177.672,274.508 177.5,275.5C 177.082,276.222 176.416,276.722 175.5,277C 176.167,277.333 176.833,277.667 177.5,278C 174.448,279.935 171.115,281.268 167.5,282C 170.531,282.495 173.531,282.329 176.5,281.5C 177.738,281.81 177.738,282.31 176.5,283C 174.5,283.667 172.5,284.333 170.5,285C 170.833,285.333 171.167,285.667 171.5,286C 169.833,287 168.167,288 166.5,289C 167.5,289.333 168.5,289.667 169.5,290C 167.913,290.862 166.246,291.529 164.5,292C 167.036,292.186 169.369,292.686 171.5,293.5C 166.188,294.395 160.855,295.229 155.5,296C 133.476,296.79 111.476,296.623 89.5,295.5C 87.0314,294.683 84.3647,294.183 81.5,294C 83.8333,293.667 86.1667,293.333 88.5,293C 84.8208,292.213 81.1541,291.379 77.5,290.5C 79.8513,288.241 79.1846,286.741 75.5,286C 75.8333,285.667 76.1667,285.333 76.5,285C 74.765,284.349 73.0983,284.515 71.5,285.5C 68.5737,283.215 65.4071,282.549 62,283.5C 61.51,282.207 61.3433,280.873 61.5,279.5C 67.1914,280.541 72.8581,281.374 78.5,282C 75.4403,281.152 72.4403,280.152 69.5,279C 68.6634,277.989 68.33,276.822 68.5,275.5C 68.8333,275.5 69.1667,275.5 69.5,275.5C 72.1085,275.606 74.1085,276.772 75.5,279C 77.7116,279.789 79.7116,279.622 81.5,278.5C 85.8056,279.423 86.1389,280.59 82.5,282C 86.0863,283.108 89.753,283.608 93.5,283.5C 92.0474,284.825 92.3808,285.658 94.5,286C 110.141,287.462 125.808,287.796 141.5,287C 148.967,286.413 154.967,285.246 159.5,283.5C 160.609,282.71 161.942,282.21 163.5,282C 162.5,281.667 161.5,281.333 160.5,281C 162.391,279.558 164.391,278.391 166.5,277.5C 164.946,278.895 165.279,279.561 167.5,279.5C 171.803,279.199 174.803,277.199 176.5,273.5 Z"/></g>
<g><path style="opacity:1" fill="#1f1b17" d="M 61.5,279.5 C 61.3433,280.873 61.51,282.207 62,283.5C 65.4071,282.549 68.5737,283.215 71.5,285.5C 73.0983,284.515 74.765,284.349 76.5,285C 76.1667,285.333 75.8333,285.667 75.5,286C 79.1846,286.741 79.8513,288.241 77.5,290.5C 81.1541,291.379 84.8208,292.213 88.5,293C 86.1667,293.333 83.8333,293.667 81.5,294C 84.3647,294.183 87.0314,294.683 89.5,295.5C 80.9185,295.439 72.5851,293.939 64.5,291C 63.6959,289.229 62.5292,287.729 61,286.5C 60.2042,283.961 60.3709,281.628 61.5,279.5 Z"/></g>
<g><path style="opacity:1" fill="#1f1b17" d="M 171.5,293.5 C 169.369,292.686 167.036,292.186 164.5,292C 166.246,291.529 167.913,290.862 169.5,290C 168.5,289.667 167.5,289.333 166.5,289C 168.167,288 169.833,287 171.5,286C 171.167,285.667 170.833,285.333 170.5,285C 172.5,284.333 174.5,283.667 176.5,283C 177.738,282.31 177.738,281.81 176.5,281.5C 179.171,279.882 182.171,279.215 185.5,279.5C 185.662,281.527 185.495,283.527 185,285.5C 183.26,286.716 182.26,288.382 182,290.5C 178.636,291.94 175.136,292.94 171.5,293.5 Z"/></g>
<g><path style="opacity:1" fill="#828282" d="M 55.5,294.5 C 57.0269,294.427 58.0269,295.094 58.5,296.5C 56.9731,296.573 55.9731,295.906 55.5,294.5 Z"/></g>
<g><path style="opacity:1" fill="#6a6a68" d="M 185.5,296.5 C 184.486,297.674 183.153,298.34 181.5,298.5C 182.287,296.896 183.62,296.229 185.5,296.5 Z"/></g>
<g><path style="opacity:1" fill="#b3b3b3" d="M 74.5,300.5 C 77.3725,300.802 80.0392,301.469 82.5,302.5C 79.4467,302.889 76.78,302.223 74.5,300.5 Z"/></g>
<g><path style="opacity:1" fill="#c1c1c1" d="M 181.5,298.5 C 176.545,300.89 171.212,302.224 165.5,302.5C 165.5,302.167 165.5,301.833 165.5,301.5C 170.869,300.685 176.202,299.685 181.5,298.5 Z"/></g>
<g><path style="opacity:1" fill="#878787" d="M 165.5,301.5 C 165.5,301.833 165.5,302.167 165.5,302.5C 160.187,303.098 154.854,303.431 149.5,303.5C 154.616,302.194 159.949,301.527 165.5,301.5 Z"/></g>
</svg>
