<?xml version="1.0" encoding="UTF-8"?>
<!DOCTYPE svg PUBLIC "-//W3C//DTD SVG 1.1//EN" "http://www.w3.org/Graphics/SVG/1.1/DTD/svg11.dtd">
<svg xmlns="http://www.w3.org/2000/svg" version="1.1" width="179px" height="335px" style="shape-rendering:geometricPrecision; text-rendering:geometricPrecision; image-rendering:optimizeQuality; fill-rule:evenodd; clip-rule:evenodd" xmlns:xlink="http://www.w3.org/1999/xlink">
<g><path style="opacity:1" fill="#fdfdfd" d="M -0.5,-0.5 C 59.1667,-0.5 118.833,-0.5 178.5,-0.5C 178.5,111.167 178.5,222.833 178.5,334.5C 118.833,334.5 59.1667,334.5 -0.5,334.5C -0.5,222.833 -0.5,111.167 -0.5,-0.5 Z"/></g>
<g><path style="opacity:1" fill="#636465" d="M 83.5,7.5 C 82.9603,11.6423 82.2937,15.6423 81.5,19.5C 81.3347,15.8183 81.5014,12.1516 82,8.5C 82.3826,7.94404 82.8826,7.61071 83.5,7.5 Z"/></g>
<g><path style="opacity:1" fill="#c4c4c4" d="M 106.5,17.5 C 111.637,15.611 113.97,17.611 113.5,23.5C 114.5,23.5 115.5,23.5 116.5,23.5C 114.856,25.4807 113.19,27.4807 111.5,29.5C 110.447,28.5617 109.78,27.395 109.5,26C 111.278,23.775 111.778,21.275 111,18.5C 109.644,17.6198 108.144,17.2865 106.5,17.5 Z"/></g>
<g><path style="opacity:1" fill="#141210" d="M 106.5,17.5 C 108.144,17.2865 109.644,17.6198 111,18.5C 111.778,21.275 111.278,23.775 109.5,26C 109.78,27.395 110.447,28.5617 111.5,29.5C 113.19,27.4807 114.856,25.4807 116.5,23.5C 124.164,22.6662 127.664,25.9995 127,33.5C 126.047,35.4552 124.713,37.1218 123,38.5C 122.421,40.6487 121.921,42.8154 121.5,45C 122.959,48.088 124.292,51.2547 125.5,54.5C 126.912,61.8964 127.912,69.2298 128.5,76.5C 132.114,79.055 134.781,82.3883 136.5,86.5C 136.166,89.491 137.166,91.8243 139.5,93.5C 141.246,101.4 140.579,109.067 137.5,116.5C 136.957,116.56 136.624,116.893 136.5,117.5C 138.743,118.474 141.076,118.808 143.5,118.5C 152.301,119.481 158.801,123.814 163,131.5C 163.331,138.518 163.331,145.518 163,152.5C 164.497,156.165 166.497,159.498 169,162.5C 169.703,164.929 169.537,167.262 168.5,169.5C 168.167,169.5 167.833,169.5 167.5,169.5C 167.5,167.167 167.5,164.833 167.5,162.5C 166.167,162.5 164.833,162.5 163.5,162.5C 162.038,157.615 159.038,156.449 154.5,159C 152.963,160.11 152.297,161.61 152.5,163.5C 151.833,163.5 151.167,163.5 150.5,163.5C 151.234,162.292 151.567,160.959 151.5,159.5C 149.073,159.477 146.74,158.977 144.5,158C 145.731,156.817 145.731,155.651 144.5,154.5C 143.784,155.311 142.95,155.978 142,156.5C 136.376,155.257 136.209,156.09 141.5,159C 138.416,159.631 135.75,158.798 133.5,156.5C 134.993,155.859 135.993,154.859 136.5,153.5C 136.88,152.867 137.213,152.2 137.5,151.5C 140.461,152.183 140.795,153.016 138.5,154C 141.058,154.275 143.392,153.775 145.5,152.5C 147.39,150.422 149.724,149.089 152.5,148.5C 153.791,148.263 154.791,148.596 155.5,149.5C 151.665,150.251 148.665,152.251 146.5,155.5C 151.211,159.985 154.045,158.985 155,152.5C 156.011,153.337 157.178,153.67 158.5,153.5C 158.768,151.901 158.434,150.568 157.5,149.5C 157.5,148.833 157.5,148.167 157.5,147.5C 161.396,139.18 159.729,132.013 152.5,126C 151.906,125.536 151.239,125.369 150.5,125.5C 149.653,124.034 148.32,123.2 146.5,123C 143.183,122.502 139.85,122.335 136.5,122.5C 136.5,123.5 136.5,124.5 136.5,125.5C 135.566,124.432 135.232,123.099 135.5,121.5C 133.801,121.34 132.134,121.506 130.5,122C 122.641,131.354 114.641,140.521 106.5,149.5C 103.723,151.951 101.723,154.951 100.5,158.5C 98.6545,164.389 97.6545,170.556 97.5,177C 97.5332,179.61 98.1999,181.777 99.5,183.5C 94.9282,185.558 90.2615,185.891 85.5,184.5C 88.7766,184.784 91.9433,184.451 95,183.5C 95.3082,175.808 95.8082,168.142 96.5,160.5C 92.5,160.5 88.5,160.5 84.5,160.5C 85.1266,165.141 85.4599,169.807 85.5,174.5C 84.6862,172.369 84.1862,170.036 84,167.5C 83.8267,173.016 83.3267,178.349 82.5,183.5C 82.6663,176.492 82.4996,169.492 82,162.5C 81.79,160.942 81.29,159.609 80.5,158.5C 79.3307,155.489 77.664,152.822 75.5,150.5C 66.8047,140.474 57.8047,130.808 48.5,121.5C 47.2521,122.334 46.5854,123.667 46.5,125.5C 47.7955,131.104 49.9622,136.438 53,141.5C 53.977,143.74 54.477,146.073 54.5,148.5C 53.7784,148.082 53.2784,147.416 53,146.5C 54.2984,151.745 53.6318,156.745 51,161.5C 48.1037,165.41 44.6037,166.243 40.5,164C 43.4011,162.686 46.4011,161.52 49.5,160.5C 51.6931,156.581 52.0265,152.581 50.5,148.5C 51.7416,146.389 51.7416,144.389 50.5,142.5C 49.2003,139.595 47.5336,136.929 45.5,134.5C 42.3561,135.573 39.3561,136.907 36.5,138.5C 35.8333,138.5 35.5,138.167 35.5,137.5C 38.2767,134.963 41.6101,133.63 45.5,133.5C 45.0578,129.846 44.7244,126.179 44.5,122.5C 41.1501,122.335 37.8168,122.502 34.5,123C 33.2625,123.232 32.2625,123.732 31.5,124.5C 27.1053,126.562 24.1053,129.896 22.5,134.5C 21.2057,138.733 21.2057,143.066 22.5,147.5C 22.5,148.167 22.5,148.833 22.5,149.5C 22.5792,150.93 22.2458,152.264 21.5,153.5C 24.3619,154.948 27.0286,156.615 29.5,158.5C 31.5317,158.522 33.6983,158.855 36,159.5C 37.0867,163.917 35.5867,165.25 31.5,163.5C 30.8333,163.5 30.1667,163.5 29.5,163.5C 26.1536,156.689 22.1536,156.022 17.5,161.5C 17.573,159.973 16.9063,158.973 15.5,158.5C 16.4156,155.256 17.4156,152.089 18.5,149C 18.3038,147.122 17.9705,145.288 17.5,143.5C 17.4672,139.131 17.8005,134.798 18.5,130.5C 20.8862,125.781 24.5528,122.448 29.5,120.5C 34.3897,119.173 39.3897,118.173 44.5,117.5C 43.9649,115.739 42.9649,114.406 41.5,113.5C 41.5,112.833 41.5,112.167 41.5,111.5C 41.3257,104.465 41.6591,97.4648 42.5,90.5C 44.394,85.0686 47.5606,80.4019 52,76.5C 51.8398,67.1241 53.5064,58.1241 57,49.5C 61.0822,46.3042 61.4155,42.6375 58,38.5C 53.4674,34.9671 52.4674,30.6338 55,25.5C 61.0952,22.0879 65.9286,23.4212 69.5,29.5C 69.6228,25.6228 69.6228,21.7895 69.5,18C 75.2527,16.2471 77.9194,18.4137 77.5,24.5C 78.6125,22.5808 79.9458,20.9142 81.5,19.5C 82.2937,15.6423 82.9603,11.6423 83.5,7.5C 84.8738,5.04122 87.0405,4.04122 90,4.5C 93.0891,4.11354 95.5891,5.11354 97.5,7.5C 98.8962,8.85241 99.5629,10.5191 99.5,12.5C 98.1883,17.2526 99.5216,21.2526 103.5,24.5C 103.974,21.7833 104.974,19.4499 106.5,17.5 Z"/></g>
<g><path style="opacity:1" fill="#6c6c60" d="M 94.5,20.5 C 97.3131,23.4459 99.6465,26.7792 101.5,30.5C 100.122,31.2344 98.6225,31.9011 97,32.5C 96.0989,29.9882 94.9323,27.6549 93.5,25.5C 94.4972,25.5299 95.1639,25.0299 95.5,24C 95.0109,22.8615 94.6775,21.6948 94.5,20.5 Z"/></g>
<g><path style="opacity:1" fill="#acaa9d" d="M 93.5,19.5 C 94.1667,19.5 94.5,19.8333 94.5,20.5C 94.6775,21.6948 95.0109,22.8615 95.5,24C 95.1639,25.0299 94.4972,25.5299 93.5,25.5C 92.8333,25.1667 92.1667,24.8333 91.5,24.5C 91.4021,22.4471 92.0687,20.7804 93.5,19.5 Z"/></g>
<g><path style="opacity:1" fill="#6d6a60" d="M 93.5,19.5 C 92.0687,20.7804 91.4021,22.4471 91.5,24.5C 87.3586,24.3036 85.0252,26.3036 84.5,30.5C 85.0137,33.2106 86.0137,35.7106 87.5,38C 90.3471,38.9439 92.8471,38.4439 95,36.5C 95.5,37.5 96,38.5 96.5,39.5C 94.7086,40.1698 93.0419,40.8365 91.5,41.5C 85.8114,41.5324 80.1448,41.8658 74.5,42.5C 72.4727,42.6621 70.4727,42.4955 68.5,42C 67.2381,39.0827 65.9048,36.2494 64.5,33.5C 68.5784,35.8698 72.5784,35.8698 76.5,33.5C 77.0735,35.7879 78.0735,37.9546 79.5,40C 84.0833,40.9337 85.5833,39.1004 84,34.5C 83.0934,32.3909 81.5934,31.0576 79.5,30.5C 82.2394,26.6963 84.7394,22.6963 87,18.5C 86.5618,15.8014 86.7284,13.1347 87.5,10.5C 94.1241,9.13275 95.7907,11.4661 92.5,17.5C 92.8627,18.1835 93.1961,18.8501 93.5,19.5 Z"/></g>
<g><path style="opacity:1" fill="#332f2a" d="M 79.5,30.5 C 81.5934,31.0576 83.0934,32.3909 84,34.5C 85.5833,39.1004 84.0833,40.9337 79.5,40C 78.0735,37.9546 77.0735,35.7879 76.5,33.5C 77.1667,32.1667 78.1667,31.1667 79.5,30.5 Z"/></g>
<g><path style="opacity:1" fill="#38352f" d="M 91.5,24.5 C 92.1667,24.8333 92.8333,25.1667 93.5,25.5C 94.9323,27.6549 96.0989,29.9882 97,32.5C 98.6225,31.9011 100.122,31.2344 101.5,30.5C 102.833,31.1667 103.833,32.1667 104.5,33.5C 103.69,36.3437 102.356,39.0103 100.5,41.5C 97.5,41.5 94.5,41.5 91.5,41.5C 93.0419,40.8365 94.7086,40.1698 96.5,39.5C 96,38.5 95.5,37.5 95,36.5C 92.8471,38.4439 90.3471,38.9439 87.5,38C 86.0137,35.7106 85.0137,33.2106 84.5,30.5C 85.0252,26.3036 87.3586,24.3036 91.5,24.5 Z"/></g>
<g><path style="opacity:1" fill="#0c0905" d="M 89.5,27.5 C 90.7927,26.3552 91.9593,26.6885 93,28.5C 93.6667,30.8333 93.6667,33.1667 93,35.5C 87.9959,36.9208 85.9959,34.9208 87,29.5C 90.6116,34.8722 91.9449,34.5388 91,28.5C 90.6174,27.944 90.1174,27.6107 89.5,27.5 Z"/></g>
<g><path style="opacity:1" fill="#45423f" d="M 64.5,33.5 C 65.9048,36.2494 67.2381,39.0827 68.5,42C 70.4727,42.4955 72.4727,42.6621 74.5,42.5C 72.0844,43.4111 69.5844,44.4111 67,45.5C 66.5,45.1667 66,44.8333 65.5,44.5C 63.7494,39.1784 61.0827,34.5117 57.5,30.5C 58.0963,27.7536 59.7629,26.9202 62.5,28C 64.1554,29.4443 64.822,31.2776 64.5,33.5 Z"/></g>
<g><path style="opacity:1" fill="#5b5852" d="M 100.5,41.5 C 102.356,39.0103 103.69,36.3437 104.5,33.5C 107.743,34.58 111.076,34.7466 114.5,34C 116.046,32.5604 116.879,30.7271 117,28.5C 122.333,26.1667 124.333,27.8333 123,33.5C 121.667,34.1667 120.333,34.8333 119,35.5C 117.735,38.4606 116.569,41.4606 115.5,44.5C 114.833,44.8333 114.167,45.1667 113.5,45.5C 109.26,43.7527 104.927,42.4193 100.5,41.5 Z"/></g>
<g><path style="opacity:1" fill="#171511" d="M 115.5,34.5 C 116.376,34.3691 117.043,34.7025 117.5,35.5C 116.695,37.9154 115.695,40.2487 114.5,42.5C 113.635,43.5827 112.635,43.7494 111.5,43C 113.65,40.5959 114.984,37.7626 115.5,34.5 Z"/></g>
<g><path style="opacity:1" fill="#524e48" d="M 82.5,42.5 C 87.8437,42.334 93.1771,42.5006 98.5,43C 102.037,43.145 105.371,43.9784 108.5,45.5C 107.667,45.8333 106.833,46.1667 106,46.5C 95.3504,43.9017 84.6838,43.9017 74,46.5C 72,45.8333 72,45.1667 74,44.5C 76.9956,43.9646 79.8289,43.2979 82.5,42.5 Z"/></g>
<g><path style="opacity:1" fill="#352f28" d="M 100.5,52.5 C 93.618,53.1118 86.618,53.4452 79.5,53.5C 75.0225,52.5946 70.6892,51.5946 66.5,50.5C 77.1837,47.0043 88.1837,45.6709 99.5,46.5C 99.6168,48.4835 98.9501,50.1502 97.5,51.5C 98.325,52.3857 99.325,52.719 100.5,52.5 Z"/></g>
<g><path style="opacity:1" fill="#59554c" d="M 66.5,50.5 C 70.6892,51.5946 75.0225,52.5946 79.5,53.5C 86.618,53.4452 93.618,53.1118 100.5,52.5C 106.141,52.7922 111.474,51.7922 116.5,49.5C 117.855,50.1882 118.855,51.1882 119.5,52.5C 119.631,53.3764 119.298,54.0431 118.5,54.5C 115.361,56.0904 112.195,56.4238 109,55.5C 106.731,58.0544 104.398,58.0544 102,55.5C 99.1422,57.1784 95.9756,58.1784 92.5,58.5C 90.5376,57.3655 88.5376,57.3655 86.5,58.5C 85.3527,58.1822 84.5194,57.5156 84,56.5C 82.769,57.1078 81.4357,57.4411 80,57.5C 75.5115,56.9011 71.0115,56.4011 66.5,56C 64.404,55.2635 62.7373,54.0968 61.5,52.5C 62.2435,49.4115 63.9102,48.7449 66.5,50.5 Z"/></g>
<g><path style="opacity:1" fill="#858585" d="M 125.5,54.5 C 127.067,55.6808 127.901,57.3474 128,59.5C 128.499,65.1569 128.666,70.8236 128.5,76.5C 127.912,69.2298 126.912,61.8964 125.5,54.5 Z"/></g>
<g><path style="opacity:1" fill="#2f2a23" d="M 61.5,52.5 C 62.7373,54.0968 64.404,55.2635 66.5,56C 71.0115,56.4011 75.5115,56.9011 80,57.5C 81.4357,57.4411 82.769,57.1078 84,56.5C 84.5194,57.5156 85.3527,58.1822 86.5,58.5C 88.5376,57.3655 90.5376,57.3655 92.5,58.5C 95.9756,58.1784 99.1422,57.1784 102,55.5C 104.398,58.0544 106.731,58.0544 109,55.5C 112.195,56.4238 115.361,56.0904 118.5,54.5C 119.298,54.0431 119.631,53.3764 119.5,52.5C 120.793,53.842 121.626,55.5087 122,57.5C 121.681,66.2319 122.681,74.8985 125,83.5C 125.561,86.29 126.894,88.6234 129,90.5C 130.01,96.0642 129.343,101.398 127,106.5C 125.989,107.337 124.822,107.67 123.5,107.5C 123.649,106.448 123.483,105.448 123,104.5C 120.5,108.333 117.333,111.5 113.5,114C 115.495,114.613 117.162,114.113 118.5,112.5C 120.118,113.451 121.451,114.784 122.5,116.5C 121.042,117.782 119.708,117.782 118.5,116.5C 117.726,115.853 116.726,115.52 115.5,115.5C 113.307,115.719 111.307,116.385 109.5,117.5C 109.611,116.883 109.944,116.383 110.5,116C 109.376,115.751 108.376,115.251 107.5,114.5C 108.757,112.321 110.257,110.321 112,108.5C 112.667,107.167 112.667,105.833 112,104.5C 111.617,105.056 111.117,105.389 110.5,105.5C 110.66,103.847 111.326,102.514 112.5,101.5C 112.369,102.239 112.536,102.906 113,103.5C 115.295,100.203 117.962,97.2026 121,94.5C 122.244,90.2214 122.577,85.888 122,81.5C 120.913,79.2482 119.079,77.9149 116.5,77.5C 114.179,73.8202 110.846,71.3202 106.5,70C 103.291,67.2229 101.291,63.7229 100.5,59.5C 98.3501,62.1506 96.0168,64.6506 93.5,67C 88.1717,68.3326 82.8383,69.6659 77.5,71C 75.6667,72.1667 73.8333,73.3333 72,74.5C 72.4978,72.4731 72.3311,70.4731 71.5,68.5C 67.4887,72.012 63.6553,75.6787 60,79.5C 58.1779,83.7875 58.1779,88.1208 60,92.5C 62.6031,96.4563 65.2698,100.456 68,104.5C 67.9473,107.613 69.114,110.113 71.5,112C 69.6992,112.317 69.3659,112.984 70.5,114C 64.296,112.484 59.796,108.651 57,102.5C 56.5437,109.835 54.877,109.835 52,102.5C 51.3333,98.8333 51.3333,95.1667 52,91.5C 53.852,88.2895 55.5186,84.9561 57,81.5C 57.4301,73.8123 58.0967,66.1456 59,58.5C 59.2401,56.1484 60.0735,54.1484 61.5,52.5 Z"/></g>
<g><path style="opacity:1" fill="#716b60" d="M 102.5,69.5 C 104.652,71.0783 106.986,72.4117 109.5,73.5C 110.372,75.4496 111.039,77.4496 111.5,79.5C 110.791,80.404 109.791,80.7373 108.5,80.5C 103.205,79.7411 98.5383,81.0744 94.5,84.5C 95.0253,85.1924 95.6919,85.6924 96.5,86C 95.1337,88.4385 95.6337,88.9385 98,87.5C 101.284,90.6052 103.117,89.9385 103.5,85.5C 104.978,85.238 106.311,85.5713 107.5,86.5C 106.494,87.3957 106.494,88.0623 107.5,88.5C 108.739,88.0576 109.739,87.3909 110.5,86.5C 111.29,85.3915 111.79,84.0581 112,82.5C 112.611,87.496 113.111,92.496 113.5,97.5C 112.566,98.5676 112.232,99.901 112.5,101.5C 111.326,102.514 110.66,103.847 110.5,105.5C 96.646,127.104 83.146,126.771 70,104.5C 68.6476,101.28 67.8143,97.9466 67.5,94.5C 65.901,94.7678 64.5676,94.4345 63.5,93.5C 64.531,92.7515 65.6976,92.0848 67,91.5C 67.056,88.2198 67.8893,85.2198 69.5,82.5C 70.0099,85.1523 71.3432,87.1523 73.5,88.5C 72.9394,86.9345 73.6061,85.6011 75.5,84.5C 76.6678,89.0919 79.0011,90.0919 82.5,87.5C 83.451,88.3256 84.451,88.4922 85.5,88C 85.3062,86.4299 85.3062,84.9299 85.5,83.5C 81.0047,81.557 76.3381,80.2237 71.5,79.5C 71.9767,78.5224 72.6433,77.6891 73.5,77C 79.8067,73.7865 86.4734,71.7865 93.5,71C 95.3211,69.2567 97.3211,67.7567 99.5,66.5C 100.288,67.7701 101.288,68.7701 102.5,69.5 Z"/></g>
<g><path style="opacity:1" fill="#332e28" d="M 102.5,69.5 C 101.288,68.7701 100.288,67.7701 99.5,66.5C 97.3211,67.7567 95.3211,69.2567 93.5,71C 86.4734,71.7865 79.8067,73.7865 73.5,77C 72.6433,77.6891 71.9767,78.5224 71.5,79.5C 76.3381,80.2237 81.0047,81.557 85.5,83.5C 85.3062,84.9299 85.3062,86.4299 85.5,88C 84.451,88.4922 83.451,88.3256 82.5,87.5C 79.0011,90.0919 76.6678,89.0919 75.5,84.5C 73.6061,85.6011 72.9394,86.9345 73.5,88.5C 71.3432,87.1523 70.0099,85.1523 69.5,82.5C 67.8893,85.2198 67.056,88.2198 67,91.5C 65.6976,92.0848 64.531,92.7515 63.5,93.5C 60.7825,90.3631 59.9492,86.6964 61,82.5C 62.3369,80.9963 64.0036,79.9963 66,79.5C 66.0186,76.6924 67.0186,74.3591 69,72.5C 68.5441,75.4284 68.5441,78.4284 69,81.5C 70.5881,76.9481 73.7548,74.1148 78.5,73C 87.0598,72.6852 94.2265,69.5185 100,63.5C 101.122,65.4068 101.955,67.4068 102.5,69.5 Z"/></g>
<g><path style="opacity:1" fill="#28241f" d="M 108.5,80.5 C 110.075,82.1137 110.741,84.1137 110.5,86.5C 109.739,87.3909 108.739,88.0576 107.5,88.5C 106.494,88.0623 106.494,87.3957 107.5,86.5C 106.311,85.5713 104.978,85.238 103.5,85.5C 103.117,89.9385 101.284,90.6052 98,87.5C 95.6337,88.9385 95.1337,88.4385 96.5,86C 95.6919,85.6924 95.0253,85.1924 94.5,84.5C 98.5383,81.0744 103.205,79.7411 108.5,80.5 Z"/></g>
<g><path style="opacity:1" fill="#575757" d="M 136.5,86.5 C 138.065,88.5093 139.065,90.8427 139.5,93.5C 137.166,91.8243 136.166,89.491 136.5,86.5 Z"/></g>
<g><path style="opacity:1" fill="#4c4740" d="M 111.5,79.5 C 113.068,81.8109 113.902,84.4776 114,87.5C 114.837,85.6494 115.671,83.8161 116.5,82C 117.793,81.51 119.127,81.3433 120.5,81.5C 120.665,84.5184 120.498,87.5184 120,90.5C 118.094,93.1747 115.928,95.508 113.5,97.5C 113.111,92.496 112.611,87.496 112,82.5C 111.79,84.0581 111.29,85.3915 110.5,86.5C 110.741,84.1137 110.075,82.1137 108.5,80.5C 109.791,80.7373 110.791,80.404 111.5,79.5 Z"/></g>
<g><path style="opacity:1" fill="#616161" d="M 42.5,90.5 C 41.6591,97.4648 41.3257,104.465 41.5,111.5C 38.7506,104.393 39.0839,97.393 42.5,90.5 Z"/></g>
<g><path style="opacity:1" fill="#48453d" d="M 133.5,106.5 C 133.307,102.551 132.807,102.551 132,106.5C 130.729,107.883 129.229,108.883 127.5,109.5C 130.603,104.687 132.27,99.3534 132.5,93.5C 133.086,93.7093 133.586,94.0426 134,94.5C 134.812,98.6888 134.645,102.689 133.5,106.5 Z"/></g>
<g><path style="opacity:1" fill="#332f28" d="M 86.5,104.5 C 90.7473,104.194 94.7473,104.861 98.5,106.5C 98.5,107.5 98.5,108.5 98.5,109.5C 95.8445,110.158 93.1778,110.825 90.5,111.5C 87.0714,110.949 84.0714,109.616 81.5,107.5C 83.5435,106.935 85.2102,105.935 86.5,104.5 Z"/></g>
<g><path style="opacity:1" fill="#646156" d="M 65.5,115.5 C 63.1667,116.167 60.8333,116.833 58.5,117.5C 58.2965,115.61 58.9632,114.11 60.5,113C 59.1971,112.79 57.8638,112.957 56.5,113.5C 54.5,112.167 52.5,110.833 50.5,109.5C 49.6143,110.325 49.281,111.325 49.5,112.5C 46.3251,106.742 45.8251,100.742 48,94.5C 48.7495,99.5001 50.4162,104.167 53,108.5C 54.8808,111.754 57.0475,112.088 59.5,109.5C 61.5332,111.507 63.5332,113.507 65.5,115.5 Z"/></g>
<g><path style="opacity:1" fill="#8d897d" d="M 133.5,106.5 C 132.582,110.284 130.915,113.617 128.5,116.5C 126.889,114.905 124.889,113.739 122.5,113C 121.207,112.51 119.873,112.343 118.5,112.5C 119.792,109.33 121.458,108.996 123.5,111.5C 124.86,110.82 126.193,110.153 127.5,109.5C 129.229,108.883 130.729,107.883 132,106.5C 132.807,102.551 133.307,102.551 133.5,106.5 Z"/></g>
<g><path style="opacity:1" fill="#aca899" d="M 118.5,112.5 C 119.873,112.343 121.207,112.51 122.5,113C 124.889,113.739 126.889,114.905 128.5,116.5C 125.856,121.743 122.189,122.743 117.5,119.5C 112.266,118.199 112.6,117.199 118.5,116.5C 119.708,117.782 121.042,117.782 122.5,116.5C 121.451,114.784 120.118,113.451 118.5,112.5 Z"/></g>
<g><path style="opacity:1" fill="#b3b3b0" d="M 41.5,113.5 C 42.9649,114.406 43.9649,115.739 44.5,117.5C 39.3897,118.173 34.3897,119.173 29.5,120.5C 29.62,119.414 30.2867,118.747 31.5,118.5C 34.7831,117.673 38.1165,117.34 41.5,117.5C 41.5,116.167 41.5,114.833 41.5,113.5 Z"/></g>
<g><path style="opacity:1" fill="#a1a3a1" d="M 137.5,116.5 C 139.5,117.167 141.5,117.833 143.5,118.5C 141.076,118.808 138.743,118.474 136.5,117.5C 136.624,116.893 136.957,116.56 137.5,116.5 Z"/></g>
<g><path style="opacity:1" fill="#5c584f" d="M 118.5,116.5 C 112.6,117.199 112.266,118.199 117.5,119.5C 115.585,119.216 113.919,119.549 112.5,120.5C 110.545,119.677 108.545,119.51 106.5,120C 98.4594,127.58 93.1261,136.747 90.5,147.5C 88.6716,141.853 86.3383,136.52 83.5,131.5C 80.8792,126.578 77.5458,122.245 73.5,118.5C 77.5025,118.971 80.6692,120.971 83,124.5C 86.2805,128.726 88.7805,133.393 90.5,138.5C 93.2176,130.891 97.5509,124.391 103.5,119C 105.586,118.685 107.586,118.185 109.5,117.5C 111.307,116.385 113.307,115.719 115.5,115.5C 116.726,115.52 117.726,115.853 118.5,116.5 Z"/></g>
<g><path style="opacity:1" fill="#706a60" d="M 35.5,137.5 C 29.6893,138.31 26.6893,141.644 26.5,147.5C 25.1667,147.5 23.8333,147.5 22.5,147.5C 21.2057,143.066 21.2057,138.733 22.5,134.5C 22.4346,134.938 22.6012,135.272 23,135.5C 23.5556,133.405 24.0556,133.238 24.5,135C 23.2666,138.833 23.2666,142.667 24.5,146.5C 25.3236,143.215 25.8236,139.882 26,136.5C 29.1713,134.777 32.338,132.277 35.5,129C 38.0318,128.381 40.3651,127.381 42.5,126C 38.9078,125.603 35.4078,126.103 32,127.5C 31.5,127.333 31,127.167 30.5,127C 31.8333,126.333 33.1667,125.667 34.5,125C 33.552,124.517 32.552,124.351 31.5,124.5C 32.2625,123.732 33.2625,123.232 34.5,123C 37.8168,122.502 41.1501,122.335 44.5,122.5C 44.7244,126.179 45.0578,129.846 45.5,133.5C 41.6101,133.63 38.2767,134.963 35.5,137.5 Z"/></g>
<g><path style="opacity:1" fill="#6d675d" d="M 150.5,125.5 C 150.465,126.404 149.965,127.07 149,127.5C 145.276,125.962 141.443,125.462 137.5,126C 142.587,127.023 146.754,129.523 150,133.5C 150.483,134.448 150.649,135.448 150.5,136.5C 151.93,136.579 153.264,136.246 154.5,135.5C 155.491,139.445 155.824,143.445 155.5,147.5C 154.775,144.231 153.108,141.398 150.5,139C 145.478,137.153 140.478,135.319 135.5,133.5C 135.833,130.833 136.167,128.167 136.5,125.5C 136.5,124.5 136.5,123.5 136.5,122.5C 139.85,122.335 143.183,122.502 146.5,123C 148.32,123.2 149.653,124.034 150.5,125.5 Z"/></g>
<g><path style="opacity:1" fill="#a6a092" d="M 65.5,115.5 C 68.023,116.801 70.6897,117.801 73.5,118.5C 77.5458,122.245 80.8792,126.578 83.5,131.5C 82.603,132.598 81.7697,132.598 81,131.5C 80.1482,132.571 79.3149,133.571 78.5,134.5C 78.1788,132.952 77.1788,132.285 75.5,132.5C 75.2852,134.179 75.9519,135.179 77.5,135.5C 78.5619,137.879 79.8952,137.879 81.5,135.5C 81.8333,135.833 82.1667,136.167 82.5,136.5C 82.0428,138.598 81.0428,140.264 79.5,141.5C 79.631,140.761 79.4643,140.094 79,139.5C 78.1841,140.823 77.0174,141.489 75.5,141.5C 73.1919,138.185 70.8586,134.851 68.5,131.5C 70.3359,130.081 72.3359,128.914 74.5,128C 71.639,127.915 68.9724,128.749 66.5,130.5C 63.8122,128.479 61.4789,126.146 59.5,123.5C 61.8577,121.871 64.5243,120.705 67.5,120C 63.7602,119.922 60.0935,120.255 56.5,121C 53.5386,118.552 51.2053,115.719 49.5,112.5C 49.281,111.325 49.6143,110.325 50.5,109.5C 52.5,110.833 54.5,112.167 56.5,113.5C 57.8638,112.957 59.1971,112.79 60.5,113C 58.9632,114.11 58.2965,115.61 58.5,117.5C 60.8333,116.833 63.1667,116.167 65.5,115.5 Z"/></g>
<g><path style="opacity:1" fill="#332c24" d="M 67.5,123.5 C 68.5,123.5 69.5,123.5 70.5,123.5C 70.5,124.5 70.5,125.5 70.5,126.5C 69.5,126.5 68.5,126.5 67.5,126.5C 67.5,125.5 67.5,124.5 67.5,123.5 Z"/></g>
<g><path style="opacity:1" fill="#827e72" d="M 150.5,125.5 C 151.239,125.369 151.906,125.536 152.5,126C 159.729,132.013 161.396,139.18 157.5,147.5C 156.833,147.5 156.167,147.5 155.5,147.5C 155.824,143.445 155.491,139.445 154.5,135.5C 153.264,136.246 151.93,136.579 150.5,136.5C 150.649,135.448 150.483,134.448 150,133.5C 146.754,129.523 142.587,127.023 137.5,126C 141.443,125.462 145.276,125.962 149,127.5C 149.965,127.07 150.465,126.404 150.5,125.5 Z"/></g>
<g><path style="opacity:1" fill="#858075" d="M 31.5,124.5 C 32.552,124.351 33.552,124.517 34.5,125C 33.1667,125.667 31.8333,126.333 30.5,127C 31,127.167 31.5,127.333 32,127.5C 35.4078,126.103 38.9078,125.603 42.5,126C 40.3651,127.381 38.0318,128.381 35.5,129C 32.338,132.277 29.1713,134.777 26,136.5C 25.8236,139.882 25.3236,143.215 24.5,146.5C 23.2666,142.667 23.2666,138.833 24.5,135C 24.0556,133.238 23.5556,133.405 23,135.5C 22.6012,135.272 22.4346,134.938 22.5,134.5C 24.1053,129.896 27.1053,126.562 31.5,124.5 Z"/></g>
<g><path style="opacity:1" fill="#3f3b34" d="M 59.5,123.5 C 61.4789,126.146 63.8122,128.479 66.5,130.5C 68.9724,128.749 71.639,127.915 74.5,128C 72.3359,128.914 70.3359,130.081 68.5,131.5C 70.8586,134.851 73.1919,138.185 75.5,141.5C 65.9893,137.36 58.3227,130.36 52.5,120.5C 52.6667,120.167 52.8333,119.833 53,119.5C 54.5707,121.923 56.7374,123.256 59.5,123.5 Z"/></g>
<g><path style="opacity:1" fill="#44403a" d="M 106.5,140.5 C 108.474,137.518 110.474,134.518 112.5,131.5C 109.754,129.527 106.754,128.027 103.5,127C 107.299,126.877 110.633,128.044 113.5,130.5C 113.517,132.028 114.184,132.528 115.5,132C 119.333,128.167 123.167,124.333 127,120.5C 123.939,126.866 119.606,132.533 114,137.5C 113.667,137.167 113.333,136.833 113,136.5C 111.333,138.167 109.667,139.833 108,141.5C 107.617,140.944 107.117,140.611 106.5,140.5 Z"/></g>
<g><path style="opacity:1" fill="#25211a" d="M 78.5,134.5 C 78.5,135.167 78.1667,135.5 77.5,135.5C 75.9519,135.179 75.2852,134.179 75.5,132.5C 77.1788,132.285 78.1788,132.952 78.5,134.5 Z"/></g>
<g><path style="opacity:1" fill="#7c7c7b" d="M 18.5,130.5 C 17.8005,134.798 17.4672,139.131 17.5,143.5C 16.8389,141.866 16.5056,140.033 16.5,138C 16.2999,135.134 16.9666,132.634 18.5,130.5 Z"/></g>
<g><path style="opacity:1" fill="#706960" d="M 126.5,148.5 C 126.768,150.099 126.434,151.432 125.5,152.5C 121.75,160.376 115.417,163.542 106.5,162C 108.382,162.198 110.048,162.698 111.5,163.5C 107.833,163.836 104.5,163.003 101.5,161C 100.748,160.329 100.414,159.496 100.5,158.5C 101.723,154.951 103.723,151.951 106.5,149.5C 115.602,141.616 124.269,133.283 132.5,124.5C 133.641,126.421 133.808,128.421 133,130.5C 129.987,136.194 127.82,142.194 126.5,148.5 Z"/></g>
<g><path style="opacity:1" fill="#726c62" d="M 48.5,121.5 C 50.2189,125.927 52.7189,129.927 56,133.5C 62.9635,138.63 69.4635,144.296 75.5,150.5C 77.664,152.822 79.3307,155.489 80.5,158.5C 78.948,160.959 76.6146,162.459 73.5,163C 70.1832,163.498 66.8499,163.665 63.5,163.5C 57.1961,160.57 54.1961,155.57 54.5,148.5C 54.477,146.073 53.977,143.74 53,141.5C 49.9622,136.438 47.7955,131.104 46.5,125.5C 46.5854,123.667 47.2521,122.334 48.5,121.5 Z"/></g>
<g><path style="opacity:1" fill="#6b665b" d="M 50.5,142.5 C 47.3298,149.419 41.9965,152.586 34.5,152C 32.0392,150.585 29.7059,149.085 27.5,147.5C 30.3395,144.265 33.3395,141.265 36.5,138.5C 39.3561,136.907 42.3561,135.573 45.5,134.5C 47.5336,136.929 49.2003,139.595 50.5,142.5 Z"/></g>
<g><path style="opacity:1" fill="#37332b" d="M 48.5,121.5 C 57.8047,130.808 66.8047,140.474 75.5,150.5C 69.4635,144.296 62.9635,138.63 56,133.5C 52.7189,129.927 50.2189,125.927 48.5,121.5 Z"/></g>
<g><path style="opacity:1" fill="#28241e" d="M 136.5,125.5 C 136.167,128.167 135.833,130.833 135.5,133.5C 140.478,135.319 145.478,137.153 150.5,139C 153.108,141.398 154.775,144.231 155.5,147.5C 156.167,147.5 156.833,147.5 157.5,147.5C 157.5,148.167 157.5,148.833 157.5,149.5C 156.833,149.5 156.167,149.5 155.5,149.5C 154.791,148.596 153.791,148.263 152.5,148.5C 148.705,141.562 142.871,136.896 135,134.5C 131.286,137.552 130.286,141.219 132,145.5C 135.529,149.677 140.029,152.01 145.5,152.5C 143.392,153.775 141.058,154.275 138.5,154C 140.795,153.016 140.461,152.183 137.5,151.5C 137.213,152.2 136.88,152.867 136.5,153.5C 134.202,152.203 132.202,150.537 130.5,148.5C 127.206,158.096 130.539,163.262 140.5,164C 132.959,165.808 128.626,162.808 127.5,155C 128.536,151.879 128.703,148.713 128,145.5C 127.768,146.737 127.268,147.737 126.5,148.5C 127.82,142.194 129.987,136.194 133,130.5C 133.808,128.421 133.641,126.421 132.5,124.5C 124.269,133.283 115.602,141.616 106.5,149.5C 114.641,140.521 122.641,131.354 130.5,122C 132.134,121.506 133.801,121.34 135.5,121.5C 135.232,123.099 135.566,124.432 136.5,125.5 Z"/></g>
<g><path style="opacity:1" fill="#6a645c" d="M 152.5,148.5 C 149.724,149.089 147.39,150.422 145.5,152.5C 140.029,152.01 135.529,149.677 132,145.5C 130.286,141.219 131.286,137.552 135,134.5C 142.871,136.896 148.705,141.562 152.5,148.5 Z"/></g>
<g><path style="opacity:1" fill="#b3ac9d" d="M 112.5,120.5 C 115.696,120.899 118.696,121.899 121.5,123.5C 119.411,126.595 116.744,128.929 113.5,130.5C 110.633,128.044 107.299,126.877 103.5,127C 106.754,128.027 109.754,129.527 112.5,131.5C 110.474,134.518 108.474,137.518 106.5,140.5C 105.577,141.303 104.577,141.47 103.5,141C 102.789,139.745 101.956,138.579 101,137.5C 100.394,140.076 100.894,142.41 102.5,144.5C 100.369,149.363 98.7022,154.363 97.5,159.5C 92.8333,159.5 88.1667,159.5 83.5,159.5C 82.7005,154.229 81.0338,149.229 78.5,144.5C 78.685,143.416 79.0183,142.416 79.5,141.5C 81.0428,140.264 82.0428,138.598 82.5,136.5C 82.1667,136.167 81.8333,135.833 81.5,135.5C 79.8952,137.879 78.5619,137.879 77.5,135.5C 78.1667,135.5 78.5,135.167 78.5,134.5C 79.3149,133.571 80.1482,132.571 81,131.5C 81.7697,132.598 82.603,132.598 83.5,131.5C 86.3383,136.52 88.6716,141.853 90.5,147.5C 93.1261,136.747 98.4594,127.58 106.5,120C 108.545,119.51 110.545,119.677 112.5,120.5 Z"/></g>
<g><path style="opacity:1" fill="#51483c" d="M 95.5,143.5 C 96.5,143.5 97.5,143.5 98.5,143.5C 98.5,144.833 98.5,146.167 98.5,147.5C 97.5,147.5 96.5,147.5 95.5,147.5C 95.5,146.167 95.5,144.833 95.5,143.5 Z"/></g>
<g><path style="opacity:1" fill="#453c36" d="M 82.5,143.5 C 83.5,143.5 84.5,143.5 85.5,143.5C 85.7778,145.346 85.1112,146.68 83.5,147.5C 82.5713,146.311 82.238,144.978 82.5,143.5 Z"/></g>
<g><path style="opacity:1" fill="#312b23" d="M 102.5,132.5 C 103.5,132.5 104.5,132.5 105.5,132.5C 105.5,133.5 105.5,134.5 105.5,135.5C 104.5,135.5 103.5,135.5 102.5,135.5C 102.5,134.5 102.5,133.5 102.5,132.5 Z"/></g>
<g><path style="opacity:1" fill="#373329" d="M 110.5,123.5 C 111.5,123.5 112.5,123.5 113.5,123.5C 113.5,124.5 113.5,125.5 113.5,126.5C 112.5,126.5 111.5,126.5 110.5,126.5C 110.5,125.5 110.5,124.5 110.5,123.5 Z"/></g>
<g><path style="opacity:1" fill="#68645d" d="M 22.5,149.5 C 27.3392,149.92 31.3392,151.92 34.5,155.5C 32.6812,156.32 31.0145,157.32 29.5,158.5C 27.0286,156.615 24.3619,154.948 21.5,153.5C 22.2458,152.264 22.5792,150.93 22.5,149.5 Z"/></g>
<g><path style="opacity:1" fill="#25211b" d="M 35.5,137.5 C 35.5,138.167 35.8333,138.5 36.5,138.5C 33.3395,141.265 30.3395,144.265 27.5,147.5C 29.7059,149.085 32.0392,150.585 34.5,152C 41.9965,152.586 47.3298,149.419 50.5,142.5C 51.7416,144.389 51.7416,146.389 50.5,148.5C 47.2174,152.148 43.2174,154.815 38.5,156.5C 37.8333,155.833 37.1667,155.167 36.5,154.5C 36.1667,154.833 35.8333,155.167 35.5,155.5C 36.7783,157.722 37.7783,160.056 38.5,162.5C 38.2133,164.443 37.2133,165.777 35.5,166.5C 34.1667,165.833 32.8333,165.167 31.5,164.5C 31.5,164.167 31.5,163.833 31.5,163.5C 35.5867,165.25 37.0867,163.917 36,159.5C 33.6983,158.855 31.5317,158.522 29.5,158.5C 31.0145,157.32 32.6812,156.32 34.5,155.5C 31.3392,151.92 27.3392,149.92 22.5,149.5C 22.5,148.833 22.5,148.167 22.5,147.5C 23.8333,147.5 25.1667,147.5 26.5,147.5C 26.6893,141.644 29.6893,138.31 35.5,137.5 Z"/></g>
<g><path style="opacity:1" fill="#69645b" d="M 155.5,149.5 C 156.167,149.5 156.833,149.5 157.5,149.5C 158.434,150.568 158.768,151.901 158.5,153.5C 157.178,153.67 156.011,153.337 155,152.5C 154.045,158.985 151.211,159.985 146.5,155.5C 148.665,152.251 151.665,150.251 155.5,149.5 Z"/></g>
<g><path style="opacity:1" fill="#736e63" d="M 138.5,179.5 C 140.602,176.069 142.435,172.402 144,168.5C 145.777,166.21 147.944,164.543 150.5,163.5C 151.167,163.5 151.833,163.5 152.5,163.5C 154.144,162.04 155.977,160.707 158,159.5C 159.734,160.466 160.568,161.966 160.5,164C 157.955,168.956 155.789,174.123 154,179.5C 151.888,182.284 149.221,184.284 146,185.5C 143.78,183.807 141.28,182.807 138.5,182.5C 138.5,181.5 138.5,180.5 138.5,179.5 Z"/></g>
<g><path style="opacity:1" fill="#2d2a24" d="M 29.5,163.5 C 26.9078,163.454 24.7411,162.454 23,160.5C 20.6807,161.409 20.0141,163.075 21,165.5C 23.1278,169.976 24.7945,174.643 26,179.5C 28.9186,182.6 32.4186,184.6 36.5,185.5C 34.9894,187.441 32.9894,187.941 30.5,187C 27.5305,186.237 25.0305,184.737 23,182.5C 19.3684,175.805 17.5351,168.805 17.5,161.5C 22.1536,156.022 26.1536,156.689 29.5,163.5 Z"/></g>
<g><path style="opacity:1" fill="#908f8f" d="M 167.5,169.5 C 167.833,169.5 168.167,169.5 168.5,169.5C 167.492,171.544 166.492,173.544 165.5,175.5C 165.253,173.142 165.919,171.142 167.5,169.5 Z"/></g>
<g><path style="opacity:1" fill="#5c5c5b" d="M 14.5,172.5 C 16.2775,175.902 17.6109,179.569 18.5,183.5C 16.1154,180.347 14.7821,176.68 14.5,172.5 Z"/></g>
<g><path style="opacity:1" fill="#0e0c0b" d="M 136.5,153.5 C 135.993,154.859 134.993,155.859 133.5,156.5C 135.75,158.798 138.416,159.631 141.5,159C 136.209,156.09 136.376,155.257 142,156.5C 142.95,155.978 143.784,155.311 144.5,154.5C 145.731,155.651 145.731,156.817 144.5,158C 146.74,158.977 149.073,159.477 151.5,159.5C 151.567,160.959 151.234,162.292 150.5,163.5C 147.944,164.543 145.777,166.21 144,168.5C 142.435,172.402 140.602,176.069 138.5,179.5C 135.685,180.332 135.018,179.332 136.5,176.5C 137.75,173.994 138.416,171.327 138.5,168.5C 133.181,169.339 128.848,167.672 125.5,163.5C 123.166,165.441 120.666,167.107 118,168.5C 117.333,171.5 117.333,174.5 118,177.5C 120.362,181.027 123.196,184.027 126.5,186.5C 127.398,187.158 128.398,187.824 129.5,188.5C 129.333,188.833 129.167,189.167 129,189.5C 127.701,189.034 126.201,189.034 124.5,189.5C 123.761,189.369 123.094,189.536 122.5,190C 128.003,194.337 133.003,199.17 137.5,204.5C 139.113,205.838 139.613,207.505 139,209.5C 136.167,206 133.333,202.5 130.5,199C 128.631,197.398 126.631,196.398 124.5,196C 127.333,198.833 130.167,201.667 133,204.5C 133.982,205.759 134.315,207.092 134,208.5C 128.202,203.239 122.702,197.906 117.5,192.5C 115.137,190.998 112.97,191.332 111,193.5C 110.439,192.978 109.772,192.645 109,192.5C 106.138,193.028 103.304,193.695 100.5,194.5C 102.424,195.965 102.757,197.632 101.5,199.5C 100.5,198.167 99.5,196.833 98.5,195.5C 93.9443,193.558 88.9443,192.892 83.5,193.5C 80.3479,193.047 77.8479,194.047 76,196.5C 74.2821,192.629 71.9487,191.962 69,194.5C 68.5172,193.552 68.3505,192.552 68.5,191.5C 65.9899,191.054 63.9899,191.72 62.5,193.5C 56.2375,198.657 50.4042,204.323 45,210.5C 44.3333,209.833 44.3333,209.167 45,208.5C 47.6458,205.02 50.4791,201.686 53.5,198.5C 53.3333,198.167 53.1667,197.833 53,197.5C 49.3333,199.833 46.3333,202.833 44,206.5C 43.5357,205.906 43.369,205.239 43.5,204.5C 48.0401,198.793 53.3734,193.96 59.5,190C 58.1667,189.333 56.8333,189.333 55.5,190C 45.886,196.444 38.2194,204.611 32.5,214.5C 31.596,215.209 31.2627,216.209 31.5,217.5C 30.7784,217.918 30.2784,218.584 30,219.5C 29.0343,225.651 29.5343,231.651 31.5,237.5C 30.6744,238.451 30.5078,239.451 31,240.5C 32.1411,238.391 33.6411,236.558 35.5,235C 36.4368,234.308 37.1034,234.475 37.5,235.5C 34.4135,238.262 32.0802,241.595 30.5,245.5C 34.7824,248.716 37.7824,252.05 39.5,255.5C 39.3537,257.942 40.187,258.609 42,257.5C 42.3333,254.167 42.6667,250.833 43,247.5C 45.0318,244.146 47.0318,240.813 49,237.5C 52.733,234.255 56.5663,231.255 60.5,228.5C 73.4785,221.521 83.4785,211.521 90.5,198.5C 97.5429,211.543 107.543,221.543 120.5,228.5C 123.992,231.842 127.825,234.842 132,237.5C 133.484,241.132 135.484,244.466 138,247.5C 138.333,250.5 138.667,253.5 139,256.5C 140.461,257.883 141.294,257.549 141.5,255.5C 142.434,254.432 142.768,253.099 142.5,251.5C 145.167,250.167 147.833,248.833 150.5,247.5C 148.428,241.091 144.762,235.757 139.5,231.5C 135.167,228.167 130.833,224.833 126.5,221.5C 125.833,221.5 125.5,221.167 125.5,220.5C 125.5,219.833 125.833,219.5 126.5,219.5C 132.862,223.683 138.862,228.35 144.5,233.5C 146.168,235.34 147.668,237.34 149,239.5C 149.19,235.812 150.024,232.312 151.5,229C 150.703,225.255 150.203,221.421 150,217.5C 149.722,216.584 149.222,215.918 148.5,215.5C 146.992,210.998 144.659,206.998 141.5,203.5C 145.186,198.338 146.353,192.671 145,186.5C 146,187.5 147,188.5 148,189.5C 151.461,187.429 154.794,185.095 158,182.5C 161.434,176.065 163.267,169.398 163.5,162.5C 164.833,162.5 166.167,162.5 167.5,162.5C 167.5,164.833 167.5,167.167 167.5,169.5C 165.919,171.142 165.253,173.142 165.5,175.5C 164.484,179.048 162.984,182.381 161,185.5C 158.004,187.733 155.171,190.066 152.5,192.5C 151.504,192.414 150.671,192.748 150,193.5C 149.304,196.478 148.804,199.478 148.5,202.5C 147.427,203.251 147.26,204.251 148,205.5C 153.58,210.995 156.747,217.661 157.5,225.5C 157.608,230.87 157.275,236.203 156.5,241.5C 157.006,251.138 152.84,258.138 144,262.5C 144.326,266.47 144.326,270.47 144,274.5C 142.762,277.259 141.596,280.093 140.5,283C 143.693,287.508 148.027,290.508 153.5,292C 159.751,297.869 162.251,305.035 161,313.5C 159.871,315.141 158.371,316.141 156.5,316.5C 153.552,316.223 150.719,316.556 148,317.5C 147.501,312.511 147.334,307.511 147.5,302.5C 144.813,302.664 142.146,302.497 139.5,302C 142.244,301.197 144.911,300.197 147.5,299C 146.402,298.23 146.402,297.397 147.5,296.5C 147.489,294.983 146.823,293.816 145.5,293C 136.762,288.367 136.429,288.867 144.5,294.5C 143.525,296.193 142.192,297.693 140.5,299C 140.833,299.333 141.167,299.667 141.5,300C 138.05,301.429 134.717,301.595 131.5,300.5C 134.139,299.294 134.972,297.294 134,294.5C 131.39,290.948 128.224,289.282 124.5,289.5C 119.773,290.352 115.106,291.519 110.5,293C 104.5,297.667 98.5,302.333 92.5,307C 95.8168,307.498 99.1501,307.665 102.5,307.5C 94.5052,308.831 81.1719,308.831 62.5,307.5C 62.1667,306.833 61.8333,306.167 61.5,305.5C 68.377,302.061 75.377,298.561 82.5,295C 73.7386,293.49 65.0719,291.657 56.5,289.5C 55.7494,288.427 54.7494,288.26 53.5,289C 51.2406,290.715 49.0739,292.548 47,294.5C 46.0276,297.294 46.8609,299.294 49.5,300.5C 45.7673,301.343 41.934,301.009 38,299.5C 37.5,299.667 37,299.833 36.5,300C 37.5266,300.513 38.5266,301.013 39.5,301.5C 39.2648,302.097 38.7648,302.43 38,302.5C 35.2048,301.422 32.3715,300.922 29.5,301C 27.6169,306.558 29.6169,309.892 35.5,311C 31.7279,311.611 31.7279,312.611 35.5,314C 40.1176,315.158 44.7842,315.992 49.5,316.5C 69.113,318.144 88.7797,318.977 108.5,319C 106.649,320.684 104.982,322.517 103.5,324.5C 94.5246,325.498 85.5246,325.832 76.5,325.5C 67.4399,325.543 58.4399,324.877 49.5,323.5C 44.9515,323.376 40.6181,322.709 36.5,321.5C 33.0615,319.796 29.3948,318.462 25.5,317.5C 23.2654,316.772 21.4321,315.439 20,313.5C 18.2158,305.329 20.3825,298.496 26.5,293C 30.9157,290.042 35.4157,287.208 40,284.5C 39.52,280.499 38.6867,276.499 37.5,272.5C 37.3444,269.934 37.6777,267.434 38.5,265C 38.0222,263.358 37.0222,262.191 35.5,261.5C 30.779,259.785 27.6123,256.452 26,251.5C 25.502,248.518 25.3354,245.518 25.5,242.5C 23.9447,233.062 24.2781,223.729 26.5,214.5C 28.482,210.844 30.482,207.177 32.5,203.5C 33.1688,195.835 29.8355,190.835 22.5,188.5C 21.1128,186.79 19.7794,185.123 18.5,183.5C 17.6109,179.569 16.2775,175.902 14.5,172.5C 11.5454,167.502 11.8787,162.835 15.5,158.5C 16.9063,158.973 17.573,159.973 17.5,161.5C 17.5351,168.805 19.3684,175.805 23,182.5C 25.0305,184.737 27.5305,186.237 30.5,187C 32.9894,187.941 34.9894,187.441 36.5,185.5C 37.911,183.461 39.911,182.461 42.5,182.5C 42.7406,180.102 42.0739,178.102 40.5,176.5C 38.8333,173.167 37.1667,169.833 35.5,166.5C 37.2133,165.777 38.2133,164.443 38.5,162.5C 37.7783,160.056 36.7783,157.722 35.5,155.5C 35.8333,155.167 36.1667,154.833 36.5,154.5C 37.1667,155.167 37.8333,155.833 38.5,156.5C 43.2174,154.815 47.2174,152.148 50.5,148.5C 52.0265,152.581 51.6931,156.581 49.5,160.5C 46.4011,161.52 43.4011,162.686 40.5,164C 44.6037,166.243 48.1037,165.41 51,161.5C 53.6318,156.745 54.2984,151.745 53,146.5C 53.2784,147.416 53.7784,148.082 54.5,148.5C 54.1961,155.57 57.1961,160.57 63.5,163.5C 65.2922,164.309 67.2922,164.809 69.5,165C 67.842,165.725 67.342,166.892 68,168.5C 70.1667,170.333 72.3333,172.167 74.5,174C 72.8309,175.669 70.8309,176.502 68.5,176.5C 67.8617,178.46 67.8617,180.293 68.5,182C 73.1016,183.122 77.7682,183.622 82.5,183.5C 83.3267,178.349 83.8267,173.016 84,167.5C 84.1862,170.036 84.6862,172.369 85.5,174.5C 85.5,177.833 85.5,181.167 85.5,184.5C 90.2615,185.891 94.9282,185.558 99.5,183.5C 103.198,183.448 106.865,183.114 110.5,182.5C 109.648,178.845 109.148,175.179 109,171.5C 111.158,170.174 112.992,168.507 114.5,166.5C 113.271,165.719 111.938,165.219 110.5,165C 113.036,164.814 115.369,164.314 117.5,163.5C 122.341,161.508 125.008,157.841 125.5,152.5C 126.434,151.432 126.768,150.099 126.5,148.5C 127.268,147.737 127.768,146.737 128,145.5C 128.703,148.713 128.536,151.879 127.5,155C 128.626,162.808 132.959,165.808 140.5,164C 130.539,163.262 127.206,158.096 130.5,148.5C 132.202,150.537 134.202,152.203 136.5,153.5 Z"/></g>
<g><path style="opacity:1" fill="#99948a" d="M 31.5,164.5 C 32.8333,165.167 34.1667,165.833 35.5,166.5C 37.1667,169.833 38.8333,173.167 40.5,176.5C 40.719,177.675 40.3857,178.675 39.5,179.5C 37.891,173.405 34.5577,168.572 29.5,165C 30.0944,164.536 30.7611,164.369 31.5,164.5 Z"/></g>
<g><path style="opacity:1" fill="#706a5e" d="M 29.5,163.5 C 30.1667,163.5 30.8333,163.5 31.5,163.5C 31.5,163.833 31.5,164.167 31.5,164.5C 30.7611,164.369 30.0944,164.536 29.5,165C 34.5577,168.572 37.891,173.405 39.5,179.5C 40.3857,178.675 40.719,177.675 40.5,176.5C 42.0739,178.102 42.7406,180.102 42.5,182.5C 39.911,182.461 37.911,183.461 36.5,185.5C 32.4186,184.6 28.9186,182.6 26,179.5C 24.7945,174.643 23.1278,169.976 21,165.5C 20.0141,163.075 20.6807,161.409 23,160.5C 24.7411,162.454 26.9078,163.454 29.5,163.5 Z"/></g>
<g><path style="opacity:1" fill="#eeeeee" d="M 136.5,176.5 C 134.442,178.927 132.609,181.593 131,184.5C 129.89,186.037 128.39,186.703 126.5,186.5C 123.196,184.027 120.362,181.027 118,177.5C 117.333,174.5 117.333,171.5 118,168.5C 120.666,167.107 123.166,165.441 125.5,163.5C 128.848,167.672 133.181,169.339 138.5,168.5C 138.416,171.327 137.75,173.994 136.5,176.5 Z"/></g>
<g><path style="opacity:1" fill="#f0f0f0" d="M 54.5,163.5 C 56.621,165.734 59.2877,167.234 62.5,168C 64.6358,177.752 60.9691,183.752 51.5,186C 46.7787,181.058 43.7787,175.224 42.5,168.5C 47.6284,169.135 51.6284,167.468 54.5,163.5 Z"/></g>
<g><path style="opacity:1" fill="#646056" d="M 85.5,184.5 C 85.5,181.167 85.5,177.833 85.5,174.5C 85.4599,169.807 85.1266,165.141 84.5,160.5C 88.5,160.5 92.5,160.5 96.5,160.5C 95.8082,168.142 95.3082,175.808 95,183.5C 91.9433,184.451 88.7766,184.784 85.5,184.5 Z"/></g>
<g><path style="opacity:1" fill="#352f28" d="M 80.5,158.5 C 81.29,159.609 81.79,160.942 82,162.5C 82.4996,169.492 82.6663,176.492 82.5,183.5C 77.7682,183.622 73.1016,183.122 68.5,182C 67.8617,180.293 67.8617,178.46 68.5,176.5C 70.8309,176.502 72.8309,175.669 74.5,174C 72.3333,172.167 70.1667,170.333 68,168.5C 67.342,166.892 67.842,165.725 69.5,165C 67.2922,164.809 65.2922,164.309 63.5,163.5C 66.8499,163.665 70.1832,163.498 73.5,163C 76.6146,162.459 78.948,160.959 80.5,158.5 Z"/></g>
<g><path style="opacity:1" fill="#342e27" d="M 100.5,158.5 C 100.414,159.496 100.748,160.329 101.5,161C 104.5,163.003 107.833,163.836 111.5,163.5C 113.5,163.5 115.5,163.5 117.5,163.5C 115.369,164.314 113.036,164.814 110.5,165C 111.938,165.219 113.271,165.719 114.5,166.5C 112.992,168.507 111.158,170.174 109,171.5C 109.148,175.179 109.648,178.845 110.5,182.5C 106.865,183.114 103.198,183.448 99.5,183.5C 98.1999,181.777 97.5332,179.61 97.5,177C 97.6545,170.556 98.6545,164.389 100.5,158.5 Z"/></g>
<g><path style="opacity:1" fill="#9f998e" d="M 125.5,152.5 C 125.008,157.841 122.341,161.508 117.5,163.5C 115.5,163.5 113.5,163.5 111.5,163.5C 110.048,162.698 108.382,162.198 106.5,162C 115.417,163.542 121.75,160.376 125.5,152.5 Z"/></g>
<g><path style="opacity:1" fill="#484237" d="M 89.5,152.5 C 92.9563,153.536 93.2896,155.203 90.5,157.5C 88.2957,156.218 87.9624,154.551 89.5,152.5 Z"/></g>
<g><path style="opacity:1" fill="#25221d" d="M 163.5,162.5 C 163.267,169.398 161.434,176.065 158,182.5C 154.794,185.095 151.461,187.429 148,189.5C 147,188.5 146,187.5 145,186.5C 146.353,192.671 145.186,198.338 141.5,203.5C 135.809,198.803 130.142,194.137 124.5,189.5C 126.201,189.034 127.701,189.034 129,189.5C 129.167,189.167 129.333,188.833 129.5,188.5C 128.398,187.824 127.398,187.158 126.5,186.5C 128.39,186.703 129.89,186.037 131,184.5C 132.609,181.593 134.442,178.927 136.5,176.5C 135.018,179.332 135.685,180.332 138.5,179.5C 138.5,180.5 138.5,181.5 138.5,182.5C 141.28,182.807 143.78,183.807 146,185.5C 149.221,184.284 151.888,182.284 154,179.5C 155.789,174.123 157.955,168.956 160.5,164C 160.568,161.966 159.734,160.466 158,159.5C 155.977,160.707 154.144,162.04 152.5,163.5C 152.297,161.61 152.963,160.11 154.5,159C 159.038,156.449 162.038,157.615 163.5,162.5 Z"/></g>
<g><path style="opacity:1" fill="#757266" d="M 136.5,183.5 C 140.002,183.167 142.336,184.667 143.5,188C 140.901,198.234 136.568,199.068 130.5,190.5C 132.523,188.147 134.523,185.814 136.5,183.5 Z"/></g>
<g><path style="opacity:1" fill="#777269" d="M 40.5,183.5 C 41.8734,183.343 43.2068,183.51 44.5,184C 46.3947,186.806 48.7281,189.14 51.5,191C 48.6222,192.599 45.9555,194.433 43.5,196.5C 39.6457,195.303 37.6457,192.636 37.5,188.5C 37.7573,186.308 38.7573,184.641 40.5,183.5 Z"/></g>
<g><path style="opacity:1" fill="#767168" d="M 83.5,194.5 C 83.5,194.167 83.5,193.833 83.5,193.5C 88.9443,192.892 93.9443,193.558 98.5,195.5C 93.5947,194.555 88.5947,194.221 83.5,194.5 Z"/></g>
<g><path style="opacity:1" fill="#25211a" d="M 117.5,192.5 C 116.448,192.351 115.448,192.517 114.5,193C 116.31,195.644 118.31,198.144 120.5,200.5C 120.167,200.833 119.833,201.167 119.5,201.5C 117.228,200.559 115.228,199.226 113.5,197.5C 113.167,197.833 112.833,198.167 112.5,198.5C 117.073,203.784 122.073,208.618 127.5,213C 125.24,213.044 123.24,212.211 121.5,210.5C 120.549,211.326 119.549,211.492 118.5,211C 113,206.833 108.167,202 104,196.5C 103.48,198.289 103.813,199.956 105,201.5C 111.772,208.117 118.939,214.117 126.5,219.5C 125.833,219.5 125.5,219.833 125.5,220.5C 115.647,215.649 107.647,208.649 101.5,199.5C 102.757,197.632 102.424,195.965 100.5,194.5C 103.304,193.695 106.138,193.028 109,192.5C 109.772,192.645 110.439,192.978 111,193.5C 112.97,191.332 115.137,190.998 117.5,192.5 Z"/></g>
<g><path style="opacity:1" fill="#a29fa0" d="M 152.5,192.5 C 151.042,195.818 149.709,199.151 148.5,202.5C 148.804,199.478 149.304,196.478 150,193.5C 150.671,192.748 151.504,192.414 152.5,192.5 Z"/></g>
<g><path style="opacity:1" fill="#918e83" d="M 43.5,204.5 C 38.7912,208.247 35.2912,212.914 33,218.5C 32.51,217.207 32.3433,215.873 32.5,214.5C 38.2194,204.611 45.886,196.444 55.5,190C 56.8333,189.333 58.1667,189.333 59.5,190C 53.3734,193.96 48.0401,198.793 43.5,204.5 Z"/></g>
<g><path style="opacity:1" fill="#aea999" d="M 83.5,194.5 C 88.5947,194.221 93.5947,194.555 98.5,195.5C 99.5,196.833 100.5,198.167 101.5,199.5C 107.647,208.649 115.647,215.649 125.5,220.5C 125.5,221.167 125.833,221.5 126.5,221.5C 128.043,223.928 129.043,226.594 129.5,229.5C 126.43,229.632 123.43,229.299 120.5,228.5C 107.543,221.543 97.5429,211.543 90.5,198.5C 83.4785,211.521 73.4785,221.521 60.5,228.5C 57.7952,228.62 57.1285,227.62 58.5,225.5C 56.1238,224.183 54.4571,224.85 53.5,227.5C 54.376,228.251 55.376,228.751 56.5,229C 54.8659,229.494 53.1992,229.66 51.5,229.5C 51.9565,226.594 52.9565,223.928 54.5,221.5C 66.431,214.901 76.0977,205.901 83.5,194.5 Z"/></g>
<g><path style="opacity:1" fill="#2e2921" d="M 95.5,199.5 C 96.5,199.5 97.5,199.5 98.5,199.5C 98.5,200.5 98.5,201.5 98.5,202.5C 97.5,202.5 96.5,202.5 95.5,202.5C 95.5,201.5 95.5,200.5 95.5,199.5 Z"/></g>
<g><path style="opacity:1" fill="#413d31" d="M 83.5,198.5 C 85.1765,199.183 85.8432,200.517 85.5,202.5C 84.5,202.5 83.5,202.5 82.5,202.5C 82.4326,201.041 82.7659,199.708 83.5,198.5 Z"/></g>
<g><path style="opacity:1" fill="#241f1a" d="M 83.5,193.5 C 83.5,193.833 83.5,194.167 83.5,194.5C 76.0977,205.901 66.431,214.901 54.5,221.5C 49.8482,224.821 45.5149,228.487 41.5,232.5C 39.9699,233.211 38.6366,234.211 37.5,235.5C 37.1034,234.475 36.4368,234.308 35.5,235C 33.6411,236.558 32.1411,238.391 31,240.5C 30.5078,239.451 30.6744,238.451 31.5,237.5C 29.5343,231.651 29.0343,225.651 30,219.5C 30.2784,218.584 30.7784,217.918 31.5,217.5C 32.3578,220.992 32.5245,224.658 32,228.5C 32.6322,230.965 34.1322,232.631 36.5,233.5C 46.1153,224.695 56.4487,216.862 67.5,210C 70.3333,207.167 73.1667,204.333 76,201.5C 76.7494,200.365 76.5827,199.365 75.5,198.5C 72.1517,202.847 68.1517,206.514 63.5,209.5C 63.5,208.5 63.5,207.5 63.5,206.5C 60.9783,208.856 58.3116,211.023 55.5,213C 54.2411,213.982 52.9078,214.315 51.5,214C 57.1344,209.275 62.6344,204.441 68,199.5C 68.6877,198.668 68.521,198.002 67.5,197.5C 65.4835,198.174 63.8168,199.341 62.5,201C 61.5,201.667 60.5,201.667 59.5,201C 62.6945,199.305 65.0278,196.805 66.5,193.5C 65.3002,192.708 63.9669,192.708 62.5,193.5C 63.9899,191.72 65.9899,191.054 68.5,191.5C 68.3505,192.552 68.5172,193.552 69,194.5C 71.9487,191.962 74.2821,192.629 76,196.5C 77.8479,194.047 80.3479,193.047 83.5,193.5 Z"/></g>
<g><path style="opacity:1" fill="#686158" d="M 31.5,217.5 C 31.2627,216.209 31.596,215.209 32.5,214.5C 32.3433,215.873 32.51,217.207 33,218.5C 35.2912,212.914 38.7912,208.247 43.5,204.5C 43.369,205.239 43.5357,205.906 44,206.5C 46.3333,202.833 49.3333,199.833 53,197.5C 53.1667,197.833 53.3333,198.167 53.5,198.5C 50.4791,201.686 47.6458,205.02 45,208.5C 44.3333,209.167 44.3333,209.833 45,210.5C 50.4042,204.323 56.2375,198.657 62.5,193.5C 63.9669,192.708 65.3002,192.708 66.5,193.5C 65.0278,196.805 62.6945,199.305 59.5,201C 60.5,201.667 61.5,201.667 62.5,201C 63.8168,199.341 65.4835,198.174 67.5,197.5C 68.521,198.002 68.6877,198.668 68,199.5C 62.6344,204.441 57.1344,209.275 51.5,214C 52.9078,214.315 54.2411,213.982 55.5,213C 58.3116,211.023 60.9783,208.856 63.5,206.5C 63.5,207.5 63.5,208.5 63.5,209.5C 68.1517,206.514 72.1517,202.847 75.5,198.5C 76.5827,199.365 76.7494,200.365 76,201.5C 73.1667,204.333 70.3333,207.167 67.5,210C 56.4487,216.862 46.1153,224.695 36.5,233.5C 34.1322,232.631 32.6322,230.965 32,228.5C 32.5245,224.658 32.3578,220.992 31.5,217.5 Z"/></g>
<g><path style="opacity:1" fill="#979287" d="M 124.5,189.5 C 130.142,194.137 135.809,198.803 141.5,203.5C 144.659,206.998 146.992,210.998 148.5,215.5C 148.5,216.5 148.5,217.5 148.5,218.5C 145.954,214.093 143.12,209.759 140,205.5C 139.329,204.748 138.496,204.414 137.5,204.5C 133.003,199.17 128.003,194.337 122.5,190C 123.094,189.536 123.761,189.369 124.5,189.5 Z"/></g>
<g><path style="opacity:1" fill="#3c342a" d="M 74.5,209.5 C 75.5,209.5 76.5,209.5 77.5,209.5C 77.8333,212.5 76.5,213.833 73.5,213.5C 73.4326,212.041 73.7659,210.708 74.5,209.5 Z"/></g>
<g><path style="opacity:1" fill="#383327" d="M 103.5,209.5 C 104.5,209.5 105.5,209.5 106.5,209.5C 106.762,210.978 106.429,212.311 105.5,213.5C 103.889,212.68 103.222,211.346 103.5,209.5 Z"/></g>
<g><path style="opacity:1" fill="#696459" d="M 117.5,192.5 C 122.702,197.906 128.202,203.239 134,208.5C 134.315,207.092 133.982,205.759 133,204.5C 130.167,201.667 127.333,198.833 124.5,196C 126.631,196.398 128.631,197.398 130.5,199C 133.333,202.5 136.167,206 139,209.5C 139.613,207.505 139.113,205.838 137.5,204.5C 138.496,204.414 139.329,204.748 140,205.5C 143.12,209.759 145.954,214.093 148.5,218.5C 148.539,219.583 148.873,220.583 149.5,221.5C 148.975,222.192 148.308,222.692 147.5,223C 148.99,227.193 147.99,230.693 144.5,233.5C 138.862,228.35 132.862,223.683 126.5,219.5C 118.939,214.117 111.772,208.117 105,201.5C 103.813,199.956 103.48,198.289 104,196.5C 108.167,202 113,206.833 118.5,211C 119.549,211.492 120.549,211.326 121.5,210.5C 123.24,212.211 125.24,213.044 127.5,213C 122.073,208.618 117.073,203.784 112.5,198.5C 112.833,198.167 113.167,197.833 113.5,197.5C 115.228,199.226 117.228,200.559 119.5,201.5C 119.833,201.167 120.167,200.833 120.5,200.5C 118.31,198.144 116.31,195.644 114.5,193C 115.448,192.517 116.448,192.351 117.5,192.5 Z"/></g>
<g><path style="opacity:1" fill="#3a342a" d="M 117.5,230.5 C 115.345,230.628 113.345,230.128 111.5,229C 103.327,223.326 96.3269,216.493 90.5,208.5C 86.3144,212.851 82.3144,217.351 78.5,222C 73.9406,225.437 69.2739,228.604 64.5,231.5C 63.8333,231.5 63.1667,231.5 62.5,231.5C 73.107,223.894 82.4403,214.894 90.5,204.5C 94.6156,209.788 98.949,214.955 103.5,220C 108.35,223.363 113.017,226.863 117.5,230.5 Z"/></g>
<g><path style="opacity:1" fill="#716a5f" d="M 117.5,230.5 C 117.833,231.167 118.167,231.833 118.5,232.5C 117.351,232.791 116.684,233.624 116.5,235C 118.428,238.099 117.762,240.433 114.5,242C 115.094,242.464 115.761,242.631 116.5,242.5C 100.745,245.764 84.7454,246.264 68.5,244C 66.9419,243.79 65.6085,243.29 64.5,242.5C 65.552,242.649 66.552,242.483 67.5,242C 66.0096,241.255 65.0096,240.088 64.5,238.5C 65.6303,236.002 65.6303,233.668 64.5,231.5C 69.2739,228.604 73.9406,225.437 78.5,222C 82.3144,217.351 86.3144,212.851 90.5,208.5C 96.3269,216.493 103.327,223.326 111.5,229C 113.345,230.128 115.345,230.628 117.5,230.5 Z"/></g>
<g><path style="opacity:1" fill="#3a342b" d="M 65.5,217.5 C 66.5,217.5 67.5,217.5 68.5,217.5C 68.8333,220.5 67.5,221.833 64.5,221.5C 64.4326,220.041 64.7659,218.708 65.5,217.5 Z"/></g>
<g><path style="opacity:1" fill="#3b352f" d="M 112.5,217.5 C 115.5,217.167 116.833,218.5 116.5,221.5C 113.5,221.833 112.167,220.5 112.5,217.5 Z"/></g>
<g><path style="opacity:1" fill="#454545" d="M 26.5,214.5 C 24.2781,223.729 23.9447,233.062 25.5,242.5C 22.1964,235.163 21.6964,227.496 24,219.5C 24.3736,217.509 25.207,215.842 26.5,214.5 Z"/></g>
<g><path style="opacity:1" fill="#68645a" d="M 54.5,221.5 C 52.9565,223.928 51.9565,226.594 51.5,229.5C 53.1992,229.66 54.8659,229.494 56.5,229C 55.376,228.751 54.376,228.251 53.5,227.5C 54.4571,224.85 56.1238,224.183 58.5,225.5C 57.1285,227.62 57.7952,228.62 60.5,228.5C 56.5663,231.255 52.733,234.255 49,237.5C 47.0318,240.813 45.0318,244.146 43,247.5C 42.6667,250.833 42.3333,254.167 42,257.5C 40.187,258.609 39.3537,257.942 39.5,255.5C 38.8411,250.199 38.8411,245.199 39.5,240.5C 40.2531,238.247 41.5864,236.413 43.5,235C 42.244,234.583 41.5774,233.75 41.5,232.5C 45.5149,228.487 49.8482,224.821 54.5,221.5 Z"/></g>
<g><path style="opacity:1" fill="#39382f" d="M 123.5,225.5 C 125.346,225.222 126.68,225.889 127.5,227.5C 125.167,228.941 123.834,228.275 123.5,225.5 Z"/></g>
<g><path style="opacity:1" fill="#6a665b" d="M 126.5,221.5 C 130.833,224.833 135.167,228.167 139.5,231.5C 140.028,232.847 140.195,234.181 140,235.5C 139.282,234.549 138.449,234.383 137.5,235C 142.645,238.424 143.645,242.758 140.5,248C 141.322,250.434 141.656,252.934 141.5,255.5C 141.294,257.549 140.461,257.883 139,256.5C 138.667,253.5 138.333,250.5 138,247.5C 135.484,244.466 133.484,241.132 132,237.5C 127.825,234.842 123.992,231.842 120.5,228.5C 123.43,229.299 126.43,229.632 129.5,229.5C 129.043,226.594 128.043,223.928 126.5,221.5 Z"/></g>
<g><path style="opacity:1" fill="#322e29" d="M 148.5,215.5 C 149.222,215.918 149.722,216.584 150,217.5C 150.203,221.421 150.703,225.255 151.5,229C 150.024,232.312 149.19,235.812 149,239.5C 147.668,237.34 146.168,235.34 144.5,233.5C 147.99,230.693 148.99,227.193 147.5,223C 148.308,222.692 148.975,222.192 149.5,221.5C 148.873,220.583 148.539,219.583 148.5,218.5C 148.5,217.5 148.5,216.5 148.5,215.5 Z"/></g>
<g><path style="opacity:1" fill="#a4a092" d="M 62.5,231.5 C 63.1667,231.5 63.8333,231.5 64.5,231.5C 65.6303,233.668 65.6303,236.002 64.5,238.5C 65.0096,240.088 66.0096,241.255 67.5,242C 66.552,242.483 65.552,242.649 64.5,242.5C 63.1667,242.5 61.8333,242.5 60.5,242.5C 60.5,240.833 60.5,239.167 60.5,237.5C 60.6036,235.297 61.2702,233.297 62.5,231.5 Z"/></g>
<g><path style="opacity:1" fill="#a09c8e" d="M 118.5,232.5 C 120.969,233.607 121.969,235.607 121.5,238.5C 121.5,239.5 121.5,240.5 121.5,241.5C 119.784,241.629 118.117,241.962 116.5,242.5C 115.761,242.631 115.094,242.464 114.5,242C 117.762,240.433 118.428,238.099 116.5,235C 116.684,233.624 117.351,232.791 118.5,232.5 Z"/></g>
<g><path style="opacity:1" fill="#acacac" d="M 157.5,225.5 C 158.163,227.473 158.496,229.639 158.5,232C 158.672,235.477 158.006,238.644 156.5,241.5C 157.275,236.203 157.608,230.87 157.5,225.5 Z"/></g>
<g><path style="opacity:1" fill="#423e39" d="M 139.5,231.5 C 144.762,235.757 148.428,241.091 150.5,247.5C 147.833,248.833 145.167,250.167 142.5,251.5C 142.768,253.099 142.434,254.432 141.5,255.5C 141.656,252.934 141.322,250.434 140.5,248C 143.645,242.758 142.645,238.424 137.5,235C 138.449,234.383 139.282,234.549 140,235.5C 140.195,234.181 140.028,232.847 139.5,231.5 Z"/></g>
<g><path style="opacity:1" fill="#444039" d="M 41.5,232.5 C 41.5774,233.75 42.244,234.583 43.5,235C 41.5864,236.413 40.2531,238.247 39.5,240.5C 38.8411,245.199 38.8411,250.199 39.5,255.5C 37.7824,252.05 34.7824,248.716 30.5,245.5C 32.0802,241.595 34.4135,238.262 37.5,235.5C 38.6366,234.211 39.9699,233.211 41.5,232.5 Z"/></g>
<g><path style="opacity:1" fill="#24221d" d="M 60.5,237.5 C 60.5,239.167 60.5,240.833 60.5,242.5C 61.8333,242.5 63.1667,242.5 64.5,242.5C 65.6085,243.29 66.9419,243.79 68.5,244C 84.7454,246.264 100.745,245.764 116.5,242.5C 118.117,241.962 119.784,241.629 121.5,241.5C 121.5,240.5 121.5,239.5 121.5,238.5C 122.404,239.209 122.737,240.209 122.5,241.5C 124.857,241.337 127.19,241.503 129.5,242C 125.216,243.654 120.882,245.154 116.5,246.5C 115.965,248.261 114.965,249.594 113.5,250.5C 113.5,248.833 113.5,247.167 113.5,245.5C 96.2817,246.729 79.2817,246.729 62.5,245.5C 59.0878,244.813 55.7545,243.813 52.5,242.5C 52.1667,242.833 51.8333,243.167 51.5,243.5C 57.09,251.34 56.59,252.007 50,245.5C 49.0141,243.075 49.6807,241.409 52,240.5C 54.3187,241.871 56.8187,242.538 59.5,242.5C 59.2155,240.585 59.5489,238.919 60.5,237.5 Z"/></g>
<g><path style="opacity:1" fill="#373129" d="M 62.5,245.5 C 79.2817,246.729 96.2817,246.729 113.5,245.5C 113.5,247.167 113.5,248.833 113.5,250.5C 111.007,253.916 107.674,256.083 103.5,257C 94.5,257.667 85.5,257.667 76.5,257C 71.4268,255.594 67.9268,252.428 66,247.5C 65.1841,246.177 64.0174,245.511 62.5,245.5 Z"/></g>
<g><path style="opacity:1" fill="#716b5f" d="M 120.5,258.5 C 118.801,258.34 117.134,258.506 115.5,259C 117.967,259.796 119.3,261.463 119.5,264C 119.091,266.321 118.257,268.487 117,270.5C 113.595,273.536 110.429,275.87 107.5,277.5C 95.5,278.833 83.5,278.833 71.5,277.5C 72.552,277.649 73.552,277.483 74.5,277C 69.0461,275.024 64.8794,271.524 62,266.5C 61.0434,262.586 62.5434,260.086 66.5,259C 64.1152,258.444 61.7819,258.61 59.5,259.5C 60.4919,257.974 61.9919,257.307 64,257.5C 81.6266,261.379 99.2933,261.379 117,257.5C 118.385,257.514 119.551,257.848 120.5,258.5 Z"/></g>
<g><path style="opacity:1" fill="#b0b0af" d="M 35.5,261.5 C 37.0222,262.191 38.0222,263.358 38.5,265C 37.6777,267.434 37.3444,269.934 37.5,272.5C 36.6931,268.979 36.0264,265.312 35.5,261.5 Z"/></g>
<g><path style="opacity:1" fill="#787672" d="M 53.5,269.5 C 52.5,269.5 51.5,269.5 50.5,269.5C 45.7792,267.446 44.6125,264.112 47,259.5C 47.3333,261.5 47.6667,263.5 48,265.5C 49.8121,266.977 51.6455,268.31 53.5,269.5 Z"/></g>
<g><path style="opacity:1" fill="#666562" d="M 131.5,269.5 C 130.448,269.649 129.448,269.483 128.5,269C 132.669,266.842 134.669,263.342 134.5,258.5C 137.675,263.288 136.675,266.954 131.5,269.5 Z"/></g>
<g><path style="opacity:1" fill="#aba497" d="M 71.5,277.5 C 68.7938,277.425 66.1272,277.092 63.5,276.5C 67.3615,275.541 67.3615,274.541 63.5,273.5C 58.3536,271.208 56.3536,267.208 57.5,261.5C 57.8333,260.5 58.5,259.833 59.5,259.5C 61.7819,258.61 64.1152,258.444 66.5,259C 62.5434,260.086 61.0434,262.586 62,266.5C 64.8794,271.524 69.0461,275.024 74.5,277C 73.552,277.483 72.552,277.649 71.5,277.5 Z"/></g>
<g><path style="opacity:1" fill="#aaa496" d="M 120.5,258.5 C 126.039,263.439 125.705,268.106 119.5,272.5C 115.366,273.807 115.033,274.807 118.5,275.5C 115.124,277.082 111.458,277.749 107.5,277.5C 110.429,275.87 113.595,273.536 117,270.5C 118.257,268.487 119.091,266.321 119.5,264C 119.3,261.463 117.967,259.796 115.5,259C 117.134,258.506 118.801,258.34 120.5,258.5 Z"/></g>
<g><path style="opacity:1" fill="#68645e" d="M 131.5,269.5 C 132.239,269.369 132.906,269.536 133.5,270C 130.009,272.888 126.009,274.722 121.5,275.5C 120.5,275.5 119.5,275.5 118.5,275.5C 115.033,274.807 115.366,273.807 119.5,272.5C 120.946,273.613 122.613,273.78 124.5,273C 126.97,271.979 129.304,270.812 131.5,269.5 Z"/></g>
<g><path style="opacity:1" fill="#26221c" d="M 57.5,261.5 C 56.3536,267.208 58.3536,271.208 63.5,273.5C 63.2648,274.097 62.7648,274.43 62,274.5C 57.8973,272.769 53.7307,271.602 49.5,271C 53.733,273.911 58.3996,275.745 63.5,276.5C 66.1272,277.092 68.7938,277.425 71.5,277.5C 83.5,278.833 95.5,278.833 107.5,277.5C 111.458,277.749 115.124,277.082 118.5,275.5C 119.5,275.5 120.5,275.5 121.5,275.5C 121.917,276.124 122.584,276.457 123.5,276.5C 127.79,275.009 132.123,274.176 136.5,274C 135.333,276.5 134.167,279 133,281.5C 127.412,285.276 121.245,287.609 114.5,288.5C 115.566,286.394 117.233,284.894 119.5,284C 118.207,283.51 116.873,283.343 115.5,283.5C 115.33,282.178 115.663,281.011 116.5,280C 101.186,280.832 85.8526,280.665 70.5,279.5C 68.8333,279.667 67.1667,279.833 65.5,280C 66.6405,280.741 66.6405,281.575 65.5,282.5C 62.9382,283.641 60.2716,284.474 57.5,285C 58.056,285.383 58.3893,285.883 58.5,286.5C 55.5212,285.346 52.5212,284.18 49.5,283C 47.1523,279.821 45.4856,276.321 44.5,272.5C 47.2482,271.968 49.2482,270.968 50.5,269.5C 51.5,269.5 52.5,269.5 53.5,269.5C 54.5,269.5 55.5,269.5 56.5,269.5C 56.1936,266.615 56.5269,263.948 57.5,261.5 Z"/></g>
<g><path style="opacity:1" fill="#66635b" d="M 63.5,273.5 C 67.3615,274.541 67.3615,275.541 63.5,276.5C 58.3996,275.745 53.733,273.911 49.5,271C 53.7307,271.602 57.8973,272.769 62,274.5C 62.7648,274.43 63.2648,274.097 63.5,273.5 Z"/></g>
<g><path style="opacity:1" fill="#39322a" d="M 114.5,288.5 C 102.034,291.389 89.3673,292.223 76.5,291C 70.6203,288.984 64.6203,287.484 58.5,286.5C 58.3893,285.883 58.056,285.383 57.5,285C 60.2716,284.474 62.9382,283.641 65.5,282.5C 66.6405,281.575 66.6405,280.741 65.5,280C 67.1667,279.833 68.8333,279.667 70.5,279.5C 85.8526,280.665 101.186,280.832 116.5,280C 115.663,281.011 115.33,282.178 115.5,283.5C 116.873,283.343 118.207,283.51 119.5,284C 117.233,284.894 115.566,286.394 114.5,288.5 Z"/></g>
<g><path style="opacity:1" fill="#6f695f" d="M 124.5,289.5 C 125.6,290.558 126.934,291.392 128.5,292C 131.197,295.082 130.864,297.915 127.5,300.5C 125.664,301.919 123.664,303.086 121.5,304C 122.448,304.483 123.448,304.649 124.5,304.5C 117.19,305.703 109.857,306.703 102.5,307.5C 99.1501,307.665 95.8168,307.498 92.5,307C 98.5,302.333 104.5,297.667 110.5,293C 115.106,291.519 119.773,290.352 124.5,289.5 Z"/></g>
<g><path style="opacity:1" fill="#6d665c" d="M 56.5,289.5 C 65.0719,291.657 73.7386,293.49 82.5,295C 75.377,298.561 68.377,302.061 61.5,305.5C 53.9462,305.322 46.6128,303.989 39.5,301.5C 38.5266,301.013 37.5266,300.513 36.5,300C 37,299.833 37.5,299.667 38,299.5C 41.934,301.009 45.7673,301.343 49.5,300.5C 51.8444,300.675 53.511,301.842 54.5,304C 56.1667,304.667 57.8333,304.667 59.5,304C 57,302.167 54.5,300.333 52,298.5C 51.3333,296.833 51.3333,295.167 52,293.5C 53.8587,292.421 55.3587,291.088 56.5,289.5 Z"/></g>
<g><path style="opacity:1" fill="#7c7d75" d="M 147.5,296.5 C 146.222,296.218 145.222,295.551 144.5,294.5C 136.429,288.867 136.762,288.367 145.5,293C 146.823,293.816 147.489,294.983 147.5,296.5 Z"/></g>
<g><path style="opacity:1" fill="#73746c" d="M 40.5,289.5 C 41.552,289.351 42.552,289.517 43.5,290C 41.0072,291.566 39.0072,293.566 37.5,296C 37.9054,296.945 38.572,297.612 39.5,298C 37.7111,298.52 36.0444,298.187 34.5,297C 33.5494,296.282 33.3828,295.449 34,294.5C 36.6871,293.418 38.8538,291.751 40.5,289.5 Z"/></g>
<g><path style="opacity:1" fill="#a7a397" d="M 131.5,300.5 C 129.111,300.979 127.444,302.312 126.5,304.5C 125.833,304.5 125.167,304.5 124.5,304.5C 123.448,304.649 122.448,304.483 121.5,304C 123.664,303.086 125.664,301.919 127.5,300.5C 130.864,297.915 131.197,295.082 128.5,292C 126.934,291.392 125.6,290.558 124.5,289.5C 128.224,289.282 131.39,290.948 134,294.5C 134.972,297.294 134.139,299.294 131.5,300.5 Z"/></g>
<g><path style="opacity:1" fill="#a29e90" d="M 56.5,289.5 C 55.3587,291.088 53.8587,292.421 52,293.5C 51.3333,295.167 51.3333,296.833 52,298.5C 54.5,300.333 57,302.167 59.5,304C 57.8333,304.667 56.1667,304.667 54.5,304C 53.511,301.842 51.8444,300.675 49.5,300.5C 46.8609,299.294 46.0276,297.294 47,294.5C 49.0739,292.548 51.2406,290.715 53.5,289C 54.7494,288.26 55.7494,288.427 56.5,289.5 Z"/></g>
<g><path style="opacity:1" fill="#656058" d="M 88.5,294.5 C 89.9778,294.238 91.3112,294.571 92.5,295.5C 88.2074,299.324 83.8741,303.157 79.5,307C 75.112,307.577 70.7786,307.244 66.5,306C 72.8923,302.423 79.5589,299.423 86.5,297C 87.3805,296.292 88.0472,295.458 88.5,294.5 Z"/></g>
<g><path style="opacity:1" fill="#38332b" d="M 136.5,312.5 C 135.842,311.602 135.176,310.602 134.5,309.5C 133.216,310.63 132.383,311.963 132,313.5C 128.872,314.204 125.706,314.704 122.5,315C 125.833,315.333 129.167,315.667 132.5,316C 126.539,316.997 120.539,317.663 114.5,318C 103.539,323.142 103.539,325.642 114.5,325.5C 102.011,326.495 89.3443,326.829 76.5,326.5C 76.5,326.167 76.5,325.833 76.5,325.5C 85.5246,325.832 94.5246,325.498 103.5,324.5C 104.982,322.517 106.649,320.684 108.5,319C 88.7797,318.977 69.113,318.144 49.5,316.5C 51.9686,315.683 54.6353,315.183 57.5,315C 49.8484,315.214 48.8484,313.048 54.5,308.5C 54.2907,307.914 53.9574,307.414 53.5,307C 56.4752,306.956 59.4752,307.123 62.5,307.5C 81.1719,308.831 94.5052,308.831 102.5,307.5C 109.857,306.703 117.19,305.703 124.5,304.5C 125.167,304.5 125.833,304.5 126.5,304.5C 129.86,304.384 133.193,304.051 136.5,303.5C 136.5,306.5 136.5,309.5 136.5,312.5 Z"/></g>
<g><path style="opacity:1" fill="#211e1a" d="M 39.5,301.5 C 46.6128,303.989 53.9462,305.322 61.5,305.5C 61.8333,306.167 62.1667,306.833 62.5,307.5C 59.4752,307.123 56.4752,306.956 53.5,307C 53.9574,307.414 54.2907,307.914 54.5,308.5C 48.8484,313.048 49.8484,315.214 57.5,315C 54.6353,315.183 51.9686,315.683 49.5,316.5C 44.7842,315.992 40.1176,315.158 35.5,314C 31.7279,312.611 31.7279,311.611 35.5,311C 29.6169,309.892 27.6169,306.558 29.5,301C 32.3715,300.922 35.2048,301.422 38,302.5C 38.7648,302.43 39.2648,302.097 39.5,301.5 Z"/></g>
<g><path style="opacity:1" fill="#403d39" d="M 144.5,294.5 C 145.222,295.551 146.222,296.218 147.5,296.5C 146.402,297.397 146.402,298.23 147.5,299C 144.911,300.197 142.244,301.197 139.5,302C 142.146,302.497 144.813,302.664 147.5,302.5C 147.334,307.511 147.501,312.511 148,317.5C 150.719,316.556 153.552,316.223 156.5,316.5C 153.368,319.11 149.701,320.777 145.5,321.5C 146.452,315.925 146.786,310.259 146.5,304.5C 143.833,304.5 141.167,304.5 138.5,304.5C 138.5,308.167 138.5,311.833 138.5,315.5C 137.448,315.649 136.448,315.483 135.5,315C 136.252,314.329 136.586,313.496 136.5,312.5C 136.5,309.5 136.5,306.5 136.5,303.5C 133.193,304.051 129.86,304.384 126.5,304.5C 127.444,302.312 129.111,300.979 131.5,300.5C 134.717,301.595 138.05,301.429 141.5,300C 141.167,299.667 140.833,299.333 140.5,299C 142.192,297.693 143.525,296.193 144.5,294.5 Z"/></g>
<g><path style="opacity:1" fill="#7f7f7f" d="M 25.5,317.5 C 29.3948,318.462 33.0615,319.796 36.5,321.5C 32.2924,321.323 28.6257,319.99 25.5,317.5 Z"/></g>
<g><path style="opacity:1" fill="#1a1816" d="M 145.5,321.5 C 135.305,323.687 124.972,325.02 114.5,325.5C 103.539,325.642 103.539,323.142 114.5,318C 120.539,317.663 126.539,316.997 132.5,316C 129.167,315.667 125.833,315.333 122.5,315C 125.706,314.704 128.872,314.204 132,313.5C 132.383,311.963 133.216,310.63 134.5,309.5C 135.176,310.602 135.842,311.602 136.5,312.5C 136.586,313.496 136.252,314.329 135.5,315C 136.448,315.483 137.448,315.649 138.5,315.5C 138.5,311.833 138.5,308.167 138.5,304.5C 141.167,304.5 143.833,304.5 146.5,304.5C 146.786,310.259 146.452,315.925 145.5,321.5 Z"/></g>
<g><path style="opacity:1" fill="#aeaeae" d="M 49.5,323.5 C 58.4399,324.877 67.4399,325.543 76.5,325.5C 76.5,325.833 76.5,326.167 76.5,326.5C 67.7919,326.701 59.1252,326.201 50.5,325C 49.944,324.617 49.6107,324.117 49.5,323.5 Z"/></g>
</svg>
