<?xml version="1.0" encoding="UTF-8"?>
<!DOCTYPE svg PUBLIC "-//W3C//DTD SVG 1.1//EN" "http://www.w3.org/Graphics/SVG/1.1/DTD/svg11.dtd">
<svg xmlns="http://www.w3.org/2000/svg" version="1.1" width="197px" height="362px" style="shape-rendering:geometricPrecision; text-rendering:geometricPrecision; image-rendering:optimizeQuality; fill-rule:evenodd; clip-rule:evenodd" xmlns:xlink="http://www.w3.org/1999/xlink">
<g><path style="opacity:1" fill="#fdfdfd" d="M -0.5,-0.5 C 65.1667,-0.5 130.833,-0.5 196.5,-0.5C 196.5,120.167 196.5,240.833 196.5,361.5C 140.833,361.5 85.1667,361.5 29.5,361.5C 29.5,359.833 29.5,358.167 29.5,356.5C 22.515,355.911 15.515,355.578 8.5,355.5C 8.5,357.5 8.5,359.5 8.5,361.5C 5.5,361.5 2.5,361.5 -0.5,361.5C -0.5,240.833 -0.5,120.167 -0.5,-0.5 Z"/></g>
<g><path style="opacity:1" fill="#0d0d0b" d="M 92.5,1.5 C 96.6732,2.35757 101.007,3.02424 105.5,3.5C 105.334,11.1739 105.5,18.8406 106,26.5C 107.237,22.9399 107.737,19.2733 107.5,15.5C 108.482,12.0381 108.815,8.37141 108.5,4.5C 117.467,5.98911 125.8,9.15578 133.5,14C 135.993,15.5655 137.993,17.5655 139.5,20C 136.916,34.2111 134.083,48.3778 131,62.5C 130.311,63.3567 129.478,64.0233 128.5,64.5C 128.018,69.0477 126.851,73.381 125,77.5C 124.333,98.8333 124.333,120.167 125,141.5C 127,143.5 129,145.5 131,147.5C 131.667,157.5 131.667,167.5 131,177.5C 130.546,179.536 129.713,181.37 128.5,183C 133.64,206.229 138.307,229.562 142.5,253C 142.369,255.253 141.869,257.419 141,259.5C 138.486,262.678 135.986,265.844 133.5,269C 138.298,275.097 141.632,281.931 143.5,289.5C 142.585,295.084 140.918,300.418 138.5,305.5C 145.247,310.29 152.08,314.957 159,319.5C 162.193,325.76 163.193,332.426 162,339.5C 157.789,343.131 152.955,345.631 147.5,347C 104.235,355.209 60.9014,355.543 17.5,348C 11.4678,346.107 5.96776,343.274 1,339.5C 0.333333,335.5 0.333333,331.5 1,327.5C 3.78811,325.588 5.12144,322.921 5,319.5C 6.5,318 8,316.5 9.5,315C 15.2963,312.602 20.6296,309.436 25.5,305.5C 23.1297,300.556 21.463,295.389 20.5,290C 21.7296,281.968 25.0629,274.968 30.5,269C 24.7541,264.773 21.4208,259.106 20.5,252C 22.3898,241.768 24.5565,231.601 27,221.5C 29.1485,220.023 30.4818,218.023 31,215.5C 30.84,204.832 32.0067,194.332 34.5,184C 34.1416,181.968 33.3083,180.134 32,178.5C 31.3333,168.5 31.3333,158.5 32,148.5C 33.6437,145.689 35.8103,143.356 38.5,141.5C 39.6664,120.174 39.8331,98.8411 39,77.5C 35.5981,74.4236 34.7647,70.7569 36.5,66.5C 34.8513,65.3523 33.3513,64.019 32,62.5C 29.8113,48.1636 26.978,33.9969 23.5,20C 31.9224,11.1221 42.2558,5.95543 54.5,4.5C 54.5045,8.53409 54.8379,12.5341 55.5,16.5C 56.1614,19.7871 56.6614,23.1204 57,26.5C 57.4997,18.8406 57.6664,11.1739 57.5,3.5C 69.0595,1.66963 80.7261,1.00296 92.5,1.5 Z"/></g>
<g><path style="opacity:1" fill="#b1b1b1" d="M 92.5,1.5 C 97.294,0.903102 101.627,1.56977 105.5,3.5C 101.007,3.02424 96.6732,2.35757 92.5,1.5 Z"/></g>
<g><path style="opacity:1" fill="#b8b8b8" d="M 57.5,3.5 C 57.6664,11.1739 57.4997,18.8406 57,26.5C 56.6614,23.1204 56.1614,19.7871 55.5,16.5C 56.1667,12.1667 56.8333,7.83333 57.5,3.5 Z"/></g>
<g><path style="opacity:1" fill="#b9b9b9" d="M 105.5,3.5 C 106.167,7.5 106.833,11.5 107.5,15.5C 107.737,19.2733 107.237,22.9399 106,26.5C 105.5,18.8406 105.334,11.1739 105.5,3.5 Z"/></g>
<g><path style="opacity:1" fill="#6d675b" d="M 77.5,6.5 C 85.1793,6.59621 92.846,6.92954 100.5,7.5C 100.5,14.8333 100.5,22.1667 100.5,29.5C 91.5281,28.6529 82.5281,28.3195 73.5,28.5C 73.6567,27.1266 73.49,25.7932 73,24.5C 70.5286,30.5843 67.5286,30.9176 64,25.5C 63.5005,19.5092 63.3338,13.5092 63.5,7.5C 67.1667,7.5 70.8333,7.5 74.5,7.5C 74.3185,10.553 74.1519,13.553 74,16.5C 74.6667,15.8333 75.3333,15.1667 76,14.5C 76.2724,11.7462 76.7724,9.0795 77.5,6.5 Z"/></g>
<g><path style="opacity:1" fill="#645e54" d="M 36.5,35.5 C 36.8333,34.8333 37.1667,34.1667 37.5,33.5C 42.7719,32.0271 43.4386,29.5271 39.5,26C 40.1667,23.3333 40.8333,20.6667 41.5,18C 40.9747,17.3076 40.3081,16.8076 39.5,16.5C 37.9246,17.4565 36.258,18.1231 34.5,18.5C 38.8084,14.8478 43.8084,12.5144 49.5,11.5C 50.5319,18.1216 51.1986,24.7883 51.5,31.5C 46.1632,31.6129 41.1632,32.9463 36.5,35.5 Z"/></g>
<g><path style="opacity:1" fill="#aca494" d="M 34.5,18.5 C 35.3721,23.5272 36.3721,28.5272 37.5,33.5C 37.1667,34.1667 36.8333,34.8333 36.5,35.5C 35.4168,35.5394 34.4168,35.8728 33.5,36.5C 31.306,31.3661 30.4727,26.0327 31,20.5C 31.8159,19.1772 32.9826,18.5106 34.5,18.5 Z"/></g>
<g><path style="opacity:1" fill="#aba393" d="M 131.5,19.5 C 132.695,19.8656 133.361,20.699 133.5,22C 132.471,26.9206 131.137,31.754 129.5,36.5C 128.817,36.1373 128.15,35.8039 127.5,35.5C 127.5,34.8333 127.5,34.1667 127.5,33.5C 128.167,29.5 128.833,25.5 129.5,21.5C 130.167,20.8333 130.833,20.1667 131.5,19.5 Z"/></g>
<g><path style="opacity:1" fill="#423f38" d="M 121.5,14.5 C 125.151,15.6589 128.485,17.3256 131.5,19.5C 130.833,20.1667 130.167,20.8333 129.5,21.5C 128.858,18.8474 127.192,17.6807 124.5,18C 124.833,21 125.167,24 125.5,27C 124.833,27.6667 124.167,28.3333 123.5,29C 124.684,30.1455 124.684,31.3121 123.5,32.5C 122.13,32.1435 121.13,31.3102 120.5,30C 119.891,27.1734 120.558,24.5068 122.5,22C 121.969,19.432 121.636,16.932 121.5,14.5 Z"/></g>
<g><path style="opacity:1" fill="#2f2c27" d="M 37.5,33.5 C 36.3721,28.5272 35.3721,23.5272 34.5,18.5C 36.258,18.1231 37.9246,17.4565 39.5,16.5C 40.3081,16.8076 40.9747,17.3076 41.5,18C 40.8333,20.6667 40.1667,23.3333 39.5,26C 43.4386,29.5271 42.7719,32.0271 37.5,33.5 Z"/></g>
<g><path style="opacity:1" fill="#21201c" d="M 129.5,21.5 C 128.833,25.5 128.167,29.5 127.5,33.5C 126.041,33.5674 124.708,33.2341 123.5,32.5C 124.684,31.3121 124.684,30.1455 123.5,29C 124.167,28.3333 124.833,27.6667 125.5,27C 125.167,24 124.833,21 124.5,18C 127.192,17.6807 128.858,18.8474 129.5,21.5 Z"/></g>
<g><path style="opacity:1" fill="#655f55" d="M 121.5,14.5 C 121.636,16.932 121.969,19.432 122.5,22C 120.558,24.5068 119.891,27.1734 120.5,30C 121.13,31.3102 122.13,32.1435 123.5,32.5C 124.708,33.2341 126.041,33.5674 127.5,33.5C 127.5,34.1667 127.5,34.8333 127.5,35.5C 122.317,33.5497 116.983,32.2163 111.5,31.5C 112.24,24.8417 112.906,18.1751 113.5,11.5C 116.542,11.7329 119.208,12.7329 121.5,14.5 Z"/></g>
<g><path style="opacity:1" fill="#6c675b" d="M 66.5,31.5 C 71.1667,31.5 75.8333,31.5 80.5,31.5C 80.5,38.1667 80.5,44.8333 80.5,51.5C 69.7955,51.6933 59.1288,52.3599 48.5,53.5C 47.6055,47.1341 46.6055,40.8008 45.5,34.5C 52.6923,33.9384 59.6923,32.9384 66.5,31.5 Z"/></g>
<g><path style="opacity:1" fill="#403d35" d="M 94.5,32.5 C 90.8333,32.5 87.1667,32.5 83.5,32.5C 83.5,38.8333 83.5,45.1667 83.5,51.5C 82.5093,45.021 82.176,38.3543 82.5,31.5C 86.7016,31.1832 90.7016,31.5166 94.5,32.5 Z"/></g>
<g><path style="opacity:1" fill="#6c665b" d="M 94.5,32.5 C 101.965,32.5665 109.298,33.5665 116.5,35.5C 116.987,36.4461 117.32,37.4461 117.5,38.5C 116.776,43.5746 115.776,48.5746 114.5,53.5C 103.988,53.2468 93.6546,52.5801 83.5,51.5C 83.5,45.1667 83.5,38.8333 83.5,32.5C 87.1667,32.5 90.8333,32.5 94.5,32.5 Z"/></g>
<g><path style="opacity:1" fill="#aea696" d="M 36.5,38.5 C 37.5862,38.62 38.2528,39.2867 38.5,40.5C 39.2023,45.9407 40.869,50.9407 43.5,55.5C 41.2537,55.9361 39.0871,56.6028 37,57.5C 35.0238,51.6269 34.3571,45.6269 35,39.5C 35.3826,38.944 35.8826,38.6107 36.5,38.5 Z"/></g>
<g><path style="opacity:1" fill="#2e2b26" d="M 126.5,38.5 C 125.179,44.4483 124.179,50.4483 123.5,56.5C 120.2,56.4931 118.2,54.9931 117.5,52C 118.64,47.1804 119.64,42.3471 120.5,37.5C 121.365,36.4173 122.365,36.2506 123.5,37C 124.112,38.3033 124.446,39.4699 124.5,40.5C 125.182,39.7573 125.849,39.0906 126.5,38.5 Z"/></g>
<g><path style="opacity:1" fill="#aaa292" d="M 126.5,38.5 C 128.38,39.0782 129.38,40.4115 129.5,42.5C 127.958,47.3771 127.291,52.3771 127.5,57.5C 126.041,57.5674 124.708,57.2341 123.5,56.5C 124.179,50.4483 125.179,44.4483 126.5,38.5 Z"/></g>
<g><path style="opacity:1" fill="#2c2a25" d="M 43.5,55.5 C 40.869,50.9407 39.2023,45.9407 38.5,40.5C 38.2528,39.2867 37.5862,38.62 36.5,38.5C 37.9972,37.6942 39.6639,37.0276 41.5,36.5C 42.086,36.7093 42.586,37.0426 43,37.5C 43.9407,41.4776 44.7741,45.4776 45.5,49.5C 45.1822,50.6473 44.5156,51.4806 43.5,52C 47.4453,53.4085 47.4453,54.5752 43.5,55.5 Z"/></g>
<g><path style="opacity:1" fill="#1c1b18" d="M 90.5,46.5 C 91.5862,46.62 92.2528,47.2867 92.5,48.5C 92.1667,49.1667 91.8333,49.8333 91.5,50.5C 90.5713,49.3112 90.238,47.9778 90.5,46.5 Z"/></g>
<g><path style="opacity:1" fill="#352f27" d="M 68.5,54.5 C 80.8564,54.4068 93.1898,54.9068 105.5,56C 105.962,57.7216 106.128,59.555 106,61.5C 107.112,58.6971 108.946,57.6971 111.5,58.5C 109.765,60.5752 107.765,62.2419 105.5,63.5C 89.3236,63.6147 72.9902,63.448 56.5,63C 54.6487,61.3163 52.982,59.4829 51.5,57.5C 57.2703,56.2999 62.937,55.2999 68.5,54.5 Z"/></g>
<g><path style="opacity:1" fill="#332d25" d="M 45.5,57.5 C 48.0378,58.6771 50.3711,60.3438 52.5,62.5C 48.878,63.6586 45.2113,63.8253 41.5,63C 38.9207,60.562 39.5874,59.062 43.5,58.5C 44.944,59.981 45.6106,59.6477 45.5,57.5 Z"/></g>
<g><path style="opacity:1" fill="#ada494" d="M 48.5,66.5 C 46.5252,68.3619 46.1919,70.3619 47.5,72.5C 47.6107,73.1174 47.944,73.6174 48.5,74C 42.291,75.2438 40.291,72.9105 42.5,67C 44.4727,66.5045 46.4727,66.3379 48.5,66.5 Z"/></g>
<g><path style="opacity:1" fill="#a69e8e" d="M 116.5,66.5 C 122.452,66.6091 123.786,69.1091 120.5,74C 119.207,74.49 117.873,74.6567 116.5,74.5C 117.11,73.609 117.443,72.609 117.5,71.5C 118.097,71.2648 118.43,70.7648 118.5,70C 118.022,68.6974 117.355,67.5307 116.5,66.5 Z"/></g>
<g><path style="opacity:1" fill="#6c665b" d="M 97.5,70.5 C 87.1667,70.5 76.8333,70.5 66.5,70.5C 65.5655,69.4324 65.2322,68.099 65.5,66.5C 76.1667,66.5 86.8333,66.5 97.5,66.5C 97.5,67.8333 97.5,69.1667 97.5,70.5 Z"/></g>
<g><path style="opacity:1" fill="#5e594f" d="M 100.5,66.5 C 105.833,66.5 111.167,66.5 116.5,66.5C 117.355,67.5307 118.022,68.6974 118.5,70C 118.43,70.7648 118.097,71.2648 117.5,71.5C 112.025,70.5111 106.358,70.1778 100.5,70.5C 100.5,69.1667 100.5,67.8333 100.5,66.5 Z"/></g>
<g><path style="opacity:1" fill="#585349" d="M 48.5,66.5 C 53.5,66.5 58.5,66.5 63.5,66.5C 63.5,68.1667 63.5,69.8333 63.5,71.5C 58.9605,71.6782 54.4605,71.3449 50,70.5C 48.6244,70.6842 47.7911,71.3509 47.5,72.5C 46.1919,70.3619 46.5252,68.3619 48.5,66.5 Z"/></g>
<g><path style="opacity:1" fill="#363028" d="M 66.5,70.5 C 76.8333,70.5 87.1667,70.5 97.5,70.5C 97.6399,72.1238 96.9733,73.2904 95.5,74C 86.8333,74.6667 78.1667,74.6667 69.5,74C 67.5743,73.5776 66.5743,72.4109 66.5,70.5 Z"/></g>
<g><path style="opacity:1" fill="#302b24" d="M 100.5,66.5 C 100.5,67.8333 100.5,69.1667 100.5,70.5C 106.358,70.1778 112.025,70.5111 117.5,71.5C 117.443,72.609 117.11,73.609 116.5,74.5C 110.833,74.5 105.167,74.5 99.5,74.5C 99.1936,71.6146 99.5269,68.9479 100.5,66.5 Z"/></g>
<g><path style="opacity:1" fill="#696358" d="M 80.5,80.5 C 80.8204,83.8984 80.487,87.2317 79.5,90.5C 77.1917,90.9655 75.8584,92.2988 75.5,94.5C 73.8372,96.4385 73.1706,98.7718 73.5,101.5C 71.8333,101.5 70.1667,101.5 68.5,101.5C 68.6621,99.4727 68.4955,97.4727 68,95.5C 67.1539,116.752 65.9872,116.752 64.5,95.5C 62.4729,93.661 60.1396,93.161 57.5,94C 56.8543,99.4478 56.1876,104.948 55.5,110.5C 54.3368,104.863 54.1701,99.1959 55,93.5C 59.2189,89.466 63.2189,89.7993 67,94.5C 67.0899,92.2319 65.9232,90.7319 63.5,90C 61.1902,89.5034 58.8568,89.3367 56.5,89.5C 56.0825,88.7784 55.4158,88.2784 54.5,88C 55.6834,85.8449 55.3501,83.8449 53.5,82C 62.4178,80.5863 71.4178,80.0863 80.5,80.5 Z"/></g>
<g><path style="opacity:1" fill="#6e685c" d="M 94.5,96.5 C 94.5,98.1667 94.5,99.8333 94.5,101.5C 92.8333,101.5 91.1667,101.5 89.5,101.5C 90.3284,96.1481 88.3284,92.4815 83.5,90.5C 83.5,87.1667 83.5,83.8333 83.5,80.5C 91.8333,80.5 100.167,80.5 108.5,80.5C 107.999,83.4166 107.999,86.2499 108.5,89C 104.472,89.3918 100.472,89.8918 96.5,90.5C 96.2964,92.6854 95.6298,94.6854 94.5,96.5 Z"/></g>
<g><path style="opacity:1" fill="#aca494" d="M 115.5,77.5 C 116.5,77.5 117.5,77.5 118.5,77.5C 118.5,84.1667 118.5,90.8333 118.5,97.5C 117.5,97.5 116.5,97.5 115.5,97.5C 115.5,90.8333 115.5,84.1667 115.5,77.5 Z"/></g>
<g><path style="opacity:1" fill="#36322c" d="M 115.5,77.5 C 115.5,84.1667 115.5,90.8333 115.5,97.5C 116.5,97.5 117.5,97.5 118.5,97.5C 117.432,98.4345 116.099,98.7678 114.5,98.5C 114.5,97.5 114.5,96.5 114.5,95.5C 111.923,95.5449 109.923,94.5449 108.5,92.5C 104.518,89.5646 100.851,89.8979 97.5,93.5C 96.5429,99.439 96.2096,105.439 96.5,111.5C 95.8333,106.5 95.1667,101.5 94.5,96.5C 95.6298,94.6854 96.2964,92.6854 96.5,90.5C 100.472,89.8918 104.472,89.3918 108.5,89C 107.999,86.2499 107.999,83.4166 108.5,80.5C 100.167,80.5 91.8333,80.5 83.5,80.5C 83.5,83.8333 83.5,87.1667 83.5,90.5C 82.5151,86.3656 82.1818,82.0323 82.5,77.5C 93.461,76.7661 104.128,77.7661 114.5,80.5C 114.263,79.209 114.596,78.209 115.5,77.5 Z"/></g>
<g><path style="opacity:1" fill="#34302a" d="M 49.5,77.5 C 59.7081,77.608 70.0414,77.608 80.5,77.5C 80.5,78.5 80.5,79.5 80.5,80.5C 71.4178,80.0863 62.4178,80.5863 53.5,82C 55.3501,83.8449 55.6834,85.8449 54.5,88C 55.4158,88.2784 56.0825,88.7784 56.5,89.5C 54.6792,90.1174 52.6792,90.284 50.5,90C 53.1667,90.6667 53.1667,91.3333 50.5,92C 54.5,92.6667 54.5,93.3333 50.5,94C 54.5,94.6667 54.5,95.3333 50.5,96C 53.5443,96.3589 53.8776,97.0255 51.5,98C 52.1667,98.3333 52.8333,98.6667 53.5,99C 52.0715,99.5791 50.7382,99.4124 49.5,98.5C 49.5,91.5 49.5,84.5 49.5,77.5 Z"/></g>
<g><path style="opacity:1" fill="#797468" d="M 49.5,77.5 C 49.5,84.5 49.5,91.5 49.5,98.5C 47.901,98.7678 46.5676,98.4345 45.5,97.5C 44.5093,91.021 44.176,84.3543 44.5,77.5C 46.1667,77.5 47.8333,77.5 49.5,77.5 Z"/></g>
<g><path style="opacity:1" fill="#b9b09f" d="M 45.5,97.5 C 45.5,91.1667 45.5,84.8333 45.5,78.5C 46.5,78.5 47.5,78.5 48.5,78.5C 48.5,84.8333 48.5,91.1667 48.5,97.5C 47.5,97.5 46.5,97.5 45.5,97.5 Z"/></g>
<g><path style="opacity:1" fill="#635d53" d="M 108.5,92.5 C 108.666,98.5092 108.499,104.509 108,110.5C 107.667,105.5 107.333,100.5 107,95.5C 103.706,92.6888 100.706,93.0221 98,96.5C 97.5006,101.823 97.334,107.156 97.5,112.5C 101.514,112.334 105.514,112.501 109.5,113C 104.545,114.218 99.5445,114.551 94.5,114C 95.756,113.583 96.4226,112.75 96.5,111.5C 96.2096,105.439 96.5429,99.439 97.5,93.5C 100.851,89.8979 104.518,89.5646 108.5,92.5 Z"/></g>
<g><path style="opacity:1" fill="#605b50" d="M 75.5,94.5 C 85.2308,89.8492 89.5642,93.1826 88.5,104.5C 88.1667,107.167 87.8333,109.833 87.5,112.5C 86.6705,107.198 86.1705,101.864 86,96.5C 82.7065,93.6888 79.7065,94.0221 77,97.5C 76.6667,102.5 76.3333,107.5 76,112.5C 75.5005,106.509 75.3338,100.509 75.5,94.5 Z"/></g>
<g><path style="opacity:1" fill="#615d54" d="M 47.5,101.5 C 45.5349,108.76 44.8682,116.427 45.5,124.5C 44.5076,116.684 44.1743,108.684 44.5,100.5C 45.791,100.263 46.791,100.596 47.5,101.5 Z"/></g>
<g><path style="opacity:1" fill="#aba393" d="M 115.5,124.5 C 115.5,116.833 115.5,109.167 115.5,101.5C 116.209,100.596 117.209,100.263 118.5,100.5C 118.5,108.5 118.5,116.5 118.5,124.5C 117.5,124.5 116.5,124.5 115.5,124.5 Z"/></g>
<g><path style="opacity:1" fill="#aea696" d="M 47.5,101.5 C 48.1667,101.5 48.8333,101.5 49.5,101.5C 49.5,109.167 49.5,116.833 49.5,124.5C 48.5,124.5 47.5,124.5 46.5,124.5C 46.1667,124.5 45.8333,124.5 45.5,124.5C 44.8682,116.427 45.5349,108.76 47.5,101.5 Z"/></g>
<g><path style="opacity:1" fill="#3a3731" d="M 49.5,101.5 C 51.1033,101.312 52.4366,101.812 53.5,103C 52.9613,107.237 51.9613,111.237 50.5,115C 52.4708,115.014 54.4708,114.681 56.5,114C 52.7675,113.028 53.1009,112.528 57.5,112.5C 61.2381,112.796 64.9047,113.462 68.5,114.5C 67.3984,115.176 66.3984,115.842 65.5,116.5C 61.4281,115.117 57.4281,115.284 53.5,117C 54.448,117.483 55.448,117.649 56.5,117.5C 55.9054,120.346 55.9054,123.346 56.5,126.5C 54.9064,126.08 53.4064,125.414 52,124.5C 50.0025,125.66 48.1692,125.66 46.5,124.5C 47.5,124.5 48.5,124.5 49.5,124.5C 49.5,116.833 49.5,109.167 49.5,101.5 Z"/></g>
<g><path style="opacity:1" fill="#6d675b" d="M 65.5,116.5 C 65.5,120.167 65.5,123.833 65.5,127.5C 62.2869,127.81 59.2869,127.477 56.5,126.5C 55.9054,123.346 55.9054,120.346 56.5,117.5C 55.448,117.649 54.448,117.483 53.5,117C 57.4281,115.284 61.4281,115.117 65.5,116.5 Z"/></g>
<g><path style="opacity:1" fill="#6b655a" d="M 105.5,115.5 C 107.564,115.687 109.564,116.187 111.5,117C 107.5,117.667 107.5,118.333 111.5,119C 109.329,120.174 108.329,122.007 108.5,124.5C 108.167,125.167 107.833,125.833 107.5,126.5C 104.167,126.5 100.833,126.5 97.5,126.5C 97.5,122.833 97.5,119.167 97.5,115.5C 100.167,115.5 102.833,115.5 105.5,115.5 Z"/></g>
<g><path style="opacity:1" fill="#696358" d="M 68.5,104.5 C 70.1667,104.5 71.8333,104.5 73.5,104.5C 73.4955,108.534 73.1621,112.534 72.5,116.5C 78.5,116.5 84.5,116.5 90.5,116.5C 89.8379,112.534 89.5045,108.534 89.5,104.5C 91.1667,104.5 92.8333,104.5 94.5,104.5C 94.3483,112.348 94.3483,120.182 94.5,128C 85.8333,128.667 77.1667,128.667 68.5,128C 67.5399,124.27 67.2065,120.437 67.5,116.5C 68.5,116.5 69.5,116.5 70.5,116.5C 69.201,112.63 68.5343,108.63 68.5,104.5 Z"/></g>
<g><path style="opacity:1" fill="#47423b" d="M 73.5,113.5 C 78.8746,113.172 84.2079,113.505 89.5,114.5C 86.8333,114.833 84.1667,115.167 81.5,115.5C 78.4098,115.478 75.7432,114.812 73.5,113.5 Z"/></g>
<g><path style="opacity:1" fill="#32302a" d="M 115.5,101.5 C 115.5,109.167 115.5,116.833 115.5,124.5C 113.002,125.082 110.669,125.082 108.5,124.5C 108.329,122.007 109.329,120.174 111.5,119C 107.5,118.333 107.5,117.667 111.5,117C 109.564,116.187 107.564,115.687 105.5,115.5C 107.265,114.539 109.265,114.205 111.5,114.5C 111.5,113.5 111.5,112.5 111.5,111.5C 112.552,111.649 113.552,111.483 114.5,111C 113.234,110.691 112.067,110.191 111,109.5C 110.333,107.167 110.333,104.833 111,102.5C 112.356,101.62 113.856,101.286 115.5,101.5 Z"/></g>
<g><path style="opacity:1" fill="#34322d" d="M 97.5,126.5 C 100.833,126.5 104.167,126.5 107.5,126.5C 109.203,128.141 111.37,129.141 114,129.5C 114.383,128.944 114.883,128.611 115.5,128.5C 115.5,131.5 115.5,134.5 115.5,137.5C 116.5,137.5 117.5,137.5 118.5,137.5C 117.525,140.067 116.858,142.733 116.5,145.5C 113.779,145.963 111.112,146.629 108.5,147.5C 107.532,143.557 108.532,140.057 111.5,137C 111.646,134.812 110.646,133.479 108.5,133C 111.167,132.333 111.167,131.667 108.5,131C 108.833,130.667 109.167,130.333 109.5,130C 106.937,128.921 104.271,128.421 101.5,128.5C 100.167,127.833 98.8333,127.167 97.5,126.5 Z"/></g>
<g><path style="opacity:1" fill="#ada595" d="M 48.5,128.5 C 48.8333,128.5 49.1667,128.5 49.5,128.5C 50.1167,134.598 49.45,140.265 47.5,145.5C 46.5084,145.672 45.8417,145.338 45.5,144.5C 45.5,139.167 45.5,133.833 45.5,128.5C 46.5,128.5 47.5,128.5 48.5,128.5 Z"/></g>
<g><path style="opacity:1" fill="#6d675c" d="M 58.5,130.5 C 65.8395,130.723 73.1729,131.056 80.5,131.5C 80.5,137.833 80.5,144.167 80.5,150.5C 72.3871,150.886 64.3871,150.219 56.5,148.5C 56.3893,147.883 56.056,147.383 55.5,147C 55.9445,143.33 56.9445,139.83 58.5,136.5C 56.9776,134.844 57.311,133.677 59.5,133C 53.6724,132.672 53.339,131.839 58.5,130.5 Z"/></g>
<g><path style="opacity:1" fill="#646056" d="M 48.5,128.5 C 47.5,128.5 46.5,128.5 45.5,128.5C 45.5,133.833 45.5,139.167 45.5,144.5C 44.5111,139.025 44.1778,133.358 44.5,127.5C 46.099,127.232 47.4324,127.566 48.5,128.5 Z"/></g>
<g><path style="opacity:1" fill="#6b655b" d="M 101.5,128.5 C 104.271,128.421 106.937,128.921 109.5,130C 109.167,130.333 108.833,130.667 108.5,131C 111.167,131.667 111.167,132.333 108.5,133C 110.646,133.479 111.646,134.812 111.5,137C 108.532,140.057 107.532,143.557 108.5,147.5C 100.146,149.997 91.4792,150.997 82.5,150.5C 82.5,144.5 82.5,138.5 82.5,132.5C 84.7925,132.244 86.9592,132.577 89,133.5C 89.5,132.333 90.3333,131.5 91.5,131C 94.5,130.667 97.5,130.333 100.5,130C 101.056,129.617 101.389,129.117 101.5,128.5 Z"/></g>
<g><path style="opacity:1" fill="#a9a191" d="M 118.5,137.5 C 117.5,137.5 116.5,137.5 115.5,137.5C 115.5,134.5 115.5,131.5 115.5,128.5C 116.209,127.596 117.209,127.263 118.5,127.5C 118.5,130.833 118.5,134.167 118.5,137.5 Z"/></g>
<g><path style="opacity:1" fill="#3a3731" d="M 49.5,128.5 C 52.7273,128.676 55.7273,129.343 58.5,130.5C 53.339,131.839 53.6724,132.672 59.5,133C 57.311,133.677 56.9776,134.844 58.5,136.5C 56.9445,139.83 55.9445,143.33 55.5,147C 56.056,147.383 56.3893,147.883 56.5,148.5C 53.2154,148.072 50.2154,147.072 47.5,145.5C 49.45,140.265 50.1167,134.598 49.5,128.5 Z"/></g>
<g><path style="opacity:1" fill="#a39b8c" d="M 45.5,148.5 C 43.9699,150.346 41.9699,151.346 39.5,151.5C 38.5222,151.189 37.8555,150.522 37.5,149.5C 39.9616,146.101 42.6282,145.767 45.5,148.5 Z"/></g>
<g><path style="opacity:1" fill="#9f9788" d="M 124.5,151.5 C 122.205,150.864 120.539,149.531 119.5,147.5C 121.089,146.379 122.756,146.546 124.5,148C 125.684,149.145 125.684,150.312 124.5,151.5 Z"/></g>
<g><path style="opacity:1" fill="#5f5a50" d="M 45.5,148.5 C 49.5559,149.63 53.5559,150.963 57.5,152.5C 55.1705,156.252 51.8372,157.418 47.5,156C 44.5519,154.763 41.8852,153.263 39.5,151.5C 41.9699,151.346 43.9699,150.346 45.5,148.5 Z"/></g>
<g><path style="opacity:1" fill="#575249" d="M 119.5,147.5 C 120.539,149.531 122.205,150.864 124.5,151.5C 119.771,155.025 114.437,156.525 108.5,156C 107.313,154.981 106.313,153.814 105.5,152.5C 110.169,150.832 114.836,149.165 119.5,147.5 Z"/></g>
<g><path style="opacity:1" fill="#676156" d="M 60.5,152.5 C 74.5079,153.666 88.5079,153.832 102.5,153C 103.184,154.693 104.184,156.193 105.5,157.5C 102.037,159.062 98.37,159.895 94.5,160C 85.5,160.667 76.5,160.667 67.5,160C 63.68,159.765 60.0133,158.932 56.5,157.5C 58.5522,156.389 59.8855,154.723 60.5,152.5 Z"/></g>
<g><path style="opacity:1" fill="#afa696" d="M 122.5,178.5 C 122.167,178.5 121.833,178.5 121.5,178.5C 121.5,171.167 121.5,163.833 121.5,156.5C 122.721,155.972 123.887,155.305 125,154.5C 125.667,161.833 125.667,169.167 125,176.5C 124.292,177.381 123.458,178.047 122.5,178.5 Z"/></g>
<g><path style="opacity:1" fill="#b4ab9b" d="M 42.5,157.5 C 43.1279,164.913 42.4612,171.913 40.5,178.5C 39.5416,178.047 38.7083,177.381 38,176.5C 37.1687,169.144 37.3354,161.811 38.5,154.5C 39.9014,155.521 41.2347,156.521 42.5,157.5 Z"/></g>
<g><path style="opacity:1" fill="#676156" d="M 42.5,157.5 C 45.5729,158.199 48.5729,159.199 51.5,160.5C 52.4973,167.803 52.8306,175.137 52.5,182.5C 47.8667,182.84 43.8667,181.506 40.5,178.5C 42.4612,171.913 43.1279,164.913 42.5,157.5 Z"/></g>
<g><path style="opacity:1" fill="#6d675b" d="M 106.5,160.5 C 108.467,168.097 109.134,176.097 108.5,184.5C 91.3166,187.079 74.15,187.079 57,184.5C 56.5,184.167 56,183.833 55.5,183.5C 56.1667,182.833 56.8333,182.167 57.5,181.5C 55.5933,175.049 54.9267,168.383 55.5,161.5C 72.6925,164.315 89.6925,163.981 106.5,160.5 Z"/></g>
<g><path style="opacity:1" fill="#47433c" d="M 121.5,156.5 C 121.5,163.833 121.5,171.167 121.5,178.5C 119.692,178.509 118.025,178.009 116.5,177C 117.167,176.667 117.833,176.333 118.5,176C 114.136,174.996 113.469,173.329 116.5,171C 114.487,169.209 114.487,167.875 116.5,167C 112.815,166.086 113.148,165.419 117.5,165C 114.833,164.333 114.833,163.667 117.5,163C 116.167,162.333 116.167,161.667 117.5,161C 115.527,160.505 113.527,160.338 111.5,160.5C 114.831,159.385 118.164,158.051 121.5,156.5 Z"/></g>
<g><path style="opacity:1" fill="#605a50" d="M 111.5,160.5 C 113.527,160.338 115.527,160.505 117.5,161C 116.167,161.667 116.167,162.333 117.5,163C 114.833,163.667 114.833,164.333 117.5,165C 113.148,165.419 112.815,166.086 116.5,167C 114.487,167.875 114.487,169.209 116.5,171C 113.469,173.329 114.136,174.996 118.5,176C 117.833,176.333 117.167,176.667 116.5,177C 118.025,178.009 119.692,178.509 121.5,178.5C 121.833,178.5 122.167,178.5 122.5,178.5C 119.271,180.945 115.605,182.611 111.5,183.5C 110.525,175.857 110.525,168.191 111.5,160.5 Z"/></g>
<g><path style="opacity:1" fill="#aea696" d="M 45.5,184.5 C 45.6564,188.582 45.1564,192.582 44,196.5C 43.647,199.152 42.4803,201.152 40.5,202.5C 38.6536,202.778 37.3202,202.111 36.5,200.5C 37.9099,194.895 39.0765,189.228 40,183.5C 41.9088,182.668 43.7422,183.001 45.5,184.5 Z"/></g>
<g><path style="opacity:1" fill="#39332b" d="M 99.5,194.5 C 87.9139,193.522 76.2473,193.189 64.5,193.5C 64.7373,194.791 64.404,195.791 63.5,196.5C 63.6741,194.139 64.0074,191.806 64.5,189.5C 75.8333,189.5 87.1667,189.5 98.5,189.5C 98.6287,191.216 98.962,192.883 99.5,194.5 Z"/></g>
<g><path style="opacity:1" fill="#6c665b" d="M 113.5,204.5 C 110.411,205.785 107.078,206.451 103.5,206.5C 103.037,203.518 102.704,200.518 102.5,197.5C 102.5,195.5 102.5,193.5 102.5,191.5C 105.579,191.26 108.579,191.593 111.5,192.5C 112.862,194.012 113.196,195.512 112.5,197C 115.167,197.667 115.167,198.333 112.5,199C 112.67,200.57 113.003,202.403 113.5,204.5 Z"/></g>
<g><path style="opacity:1" fill="#6d675c" d="M 99.5,194.5 C 100.373,198.768 100.706,203.102 100.5,207.5C 87.8333,207.5 75.1667,207.5 62.5,207.5C 62.9422,203.846 63.2756,200.179 63.5,196.5C 64.404,195.791 64.7373,194.791 64.5,193.5C 76.2473,193.189 87.9139,193.522 99.5,194.5 Z"/></g>
<g><path style="opacity:1" fill="#3a362f" d="M 45.5,184.5 C 46.5797,186.589 48.7464,188.256 52,189.5C 52.6172,188.551 52.4506,187.718 51.5,187C 54.8318,187.161 58.1651,187.661 61.5,188.5C 61.5,189.833 61.5,191.167 61.5,192.5C 57.7579,192.073 54.0912,191.573 50.5,191C 51.2714,192.998 50.6048,194.665 48.5,196C 49.8333,196.667 49.8333,197.333 48.5,198C 50.5127,198.875 50.5127,200.209 48.5,202C 49.305,203.113 49.9717,204.279 50.5,205.5C 46.9165,204.993 43.5832,203.993 40.5,202.5C 42.4803,201.152 43.647,199.152 44,196.5C 45.1564,192.582 45.6564,188.582 45.5,184.5 Z"/></g>
<g><path style="opacity:1" fill="#aea595" d="M 122.5,202.5 C 121.157,197.06 119.824,191.726 118.5,186.5C 118.858,184.299 120.192,182.965 122.5,182.5C 124.943,188.697 125.943,195.03 125.5,201.5C 124.583,202.127 123.583,202.461 122.5,202.5 Z"/></g>
<g><path style="opacity:1" fill="#6c665b" d="M 61.5,192.5 C 60.0296,196.336 59.0296,200.336 58.5,204.5C 55.8333,204.833 53.1667,205.167 50.5,205.5C 49.9717,204.279 49.305,203.113 48.5,202C 50.5127,200.209 50.5127,198.875 48.5,198C 49.8333,197.333 49.8333,196.667 48.5,196C 50.6048,194.665 51.2714,192.998 50.5,191C 54.0912,191.573 57.7579,192.073 61.5,192.5 Z"/></g>
<g><path style="opacity:1" fill="#37342e" d="M 118.5,186.5 C 119.824,191.726 121.157,197.06 122.5,202.5C 119.829,204.118 116.829,204.785 113.5,204.5C 113.003,202.403 112.67,200.57 112.5,199C 115.167,198.333 115.167,197.667 112.5,197C 113.196,195.512 112.862,194.012 111.5,192.5C 108.579,191.593 105.579,191.26 102.5,191.5C 102.5,193.5 102.5,195.5 102.5,197.5C 101.523,194.713 101.19,191.713 101.5,188.5C 104.127,187.908 106.794,187.575 109.5,187.5C 109.5,188.5 109.5,189.5 109.5,190.5C 112.485,189.276 115.151,189.609 117.5,191.5C 118.452,189.955 118.785,188.288 118.5,186.5 Z"/></g>
<g><path style="opacity:1" fill="#afa796" d="M 41.5,206.5 C 40.1166,214.681 38.45,222.681 36.5,230.5C 33.1702,230.837 31.5036,229.337 31.5,226C 33.2346,218.897 34.568,211.731 35.5,204.5C 37.7028,204.604 39.7028,205.27 41.5,206.5 Z"/></g>
<g><path style="opacity:1" fill="#aea696" d="M 127.5,230.5 C 127.784,228.585 127.451,226.919 126.5,225.5C 125.284,218.868 124.284,212.201 123.5,205.5C 124.583,205.461 125.583,205.127 126.5,204.5C 129.809,212.167 131.309,220.167 131,228.5C 129.887,229.305 128.721,229.972 127.5,230.5 Z"/></g>
<g><path style="opacity:1" fill="#6c665b" d="M 49.5,208.5 C 59.7456,210.179 70.079,210.845 80.5,210.5C 80.5,215.5 80.5,220.5 80.5,225.5C 74.4883,226.496 70.155,229.83 67.5,235.5C 58.2238,236.978 49.2238,235.978 40.5,232.5C 41.5676,231.566 42.901,231.232 44.5,231.5C 44.7161,228.367 45.0495,225.533 45.5,223C 45.0946,222.055 44.428,221.388 43.5,221C 46.1667,220.333 46.1667,219.667 43.5,219C 46.1667,218.333 46.1667,217.667 43.5,217C 44.1667,216.667 44.8333,216.333 45.5,216C 45.5,214.667 45.5,213.333 45.5,212C 48.1667,211.333 48.1667,210.667 45.5,210C 46.745,209.209 48.0783,208.709 49.5,208.5 Z"/></g>
<g><path style="opacity:1" fill="#6c665a" d="M 112.5,208.5 C 113.922,208.709 115.255,209.209 116.5,210C 115.366,211.016 115.699,211.683 117.5,212C 116.833,212.333 116.167,212.667 115.5,213C 116.743,214.154 117.743,215.488 118.5,217C 115.833,217.667 115.833,218.333 118.5,219C 117.261,222.85 117.261,227.016 118.5,231.5C 120.927,231.477 123.26,230.977 125.5,230C 126.38,228.644 126.714,227.144 126.5,225.5C 127.451,226.919 127.784,228.585 127.5,230.5C 117.229,234.735 106.563,236.401 95.5,235.5C 93.3212,230.077 89.3212,227.077 83.5,226.5C 83.3345,222.486 83.5012,218.486 84,214.5C 84.2492,213.376 84.7492,212.376 85.5,211.5C 94.5949,211.037 103.595,210.037 112.5,208.5 Z"/></g>
<g><path style="opacity:1" fill="#3d3933" d="M 41.5,206.5 C 44.3725,206.802 47.0392,207.469 49.5,208.5C 48.0783,208.709 46.745,209.209 45.5,210C 48.1667,210.667 48.1667,211.333 45.5,212C 45.5,213.333 45.5,214.667 45.5,216C 44.8333,216.333 44.1667,216.667 43.5,217C 46.1667,217.667 46.1667,218.333 43.5,219C 46.1667,219.667 46.1667,220.333 43.5,221C 44.428,221.388 45.0946,222.055 45.5,223C 45.0495,225.533 44.7161,228.367 44.5,231.5C 42.901,231.232 41.5676,231.566 40.5,232.5C 38.847,232.34 37.5137,231.674 36.5,230.5C 38.45,222.681 40.1166,214.681 41.5,206.5 Z"/></g>
<g><path style="opacity:1" fill="#393630" d="M 123.5,205.5 C 124.284,212.201 125.284,218.868 126.5,225.5C 126.714,227.144 126.38,228.644 125.5,230C 123.26,230.977 120.927,231.477 118.5,231.5C 117.261,227.016 117.261,222.85 118.5,219C 115.833,218.333 115.833,217.667 118.5,217C 117.743,215.488 116.743,214.154 115.5,213C 116.167,212.667 116.833,212.333 117.5,212C 115.699,211.683 115.366,211.016 116.5,210C 115.255,209.209 113.922,208.709 112.5,208.5C 116.046,207.385 119.712,206.385 123.5,205.5 Z"/></g>
<g><path style="opacity:1" fill="#373028" d="M 77.5,228.5 C 80.1667,228.5 82.8333,228.5 85.5,228.5C 85.5,240.833 85.5,253.167 85.5,265.5C 82.8333,265.5 80.1667,265.5 77.5,265.5C 77.5,253.167 77.5,240.833 77.5,228.5 Z"/></g>
<g><path style="opacity:1" fill="#352f27" d="M 87.5,230.5 C 90.091,231.254 91.9243,232.921 93,235.5C 93.4998,245.494 93.6665,255.494 93.5,265.5C 91.5,265.5 89.5,265.5 87.5,265.5C 87.5,253.833 87.5,242.167 87.5,230.5 Z"/></g>
<g><path style="opacity:1" fill="#383129" d="M 73.5,230.5 C 75.4777,241.451 76.1444,252.784 75.5,264.5C 73.5,264.5 71.5,264.5 69.5,264.5C 69.3336,255.494 69.5002,246.494 70,237.5C 70.9594,235.047 72.126,232.714 73.5,230.5 Z"/></g>
<g><path style="opacity:1" fill="#aca494" d="M 36.5,234.5 C 34.9571,241.445 33.4571,248.445 32,255.5C 31.3292,256.252 30.4959,256.586 29.5,256.5C 27.0777,255.308 26.0777,253.308 26.5,250.5C 27.2434,244.187 28.91,238.187 31.5,232.5C 33.3361,233.028 35.0028,233.694 36.5,234.5 Z"/></g>
<g><path style="opacity:1" fill="#a8a091" d="M 134.5,255.5 C 132.745,253.239 131.578,250.572 131,247.5C 130.654,242.724 129.821,238.058 128.5,233.5C 130.044,233.297 131.378,232.63 132.5,231.5C 135.299,238.924 136.465,246.591 136,254.5C 135.617,255.056 135.117,255.389 134.5,255.5 Z"/></g>
<g><path style="opacity:1" fill="#6d675b" d="M 116.5,237.5 C 117.833,237.5 119.167,237.5 120.5,237.5C 120.472,239.582 121.139,241.416 122.5,243C 122.167,243.333 121.833,243.667 121.5,244C 121.955,246.312 122.955,248.312 124.5,250C 124.684,252.276 124.684,254.61 124.5,257C 125.056,258.011 125.722,258.844 126.5,259.5C 121.667,261.291 116.667,262.291 111.5,262.5C 111.666,257.821 111.499,253.155 111,248.5C 109.236,245.443 108.402,242.11 108.5,238.5C 110.467,238.261 112.301,238.594 114,239.5C 114.417,238.244 115.25,237.577 116.5,237.5 Z"/></g>
<g><path style="opacity:1" fill="#393630" d="M 128.5,233.5 C 129.821,238.058 130.654,242.724 131,247.5C 131.578,250.572 132.745,253.239 134.5,255.5C 132.388,257.771 129.721,259.104 126.5,259.5C 125.722,258.844 125.056,258.011 124.5,257C 124.684,254.61 124.684,252.276 124.5,250C 122.955,248.312 121.955,246.312 121.5,244C 121.833,243.667 122.167,243.333 122.5,243C 121.139,241.416 120.472,239.582 120.5,237.5C 119.167,237.5 117.833,237.5 116.5,237.5C 120.473,236.398 124.473,235.065 128.5,233.5 Z"/></g>
<g><path style="opacity:1" fill="#6a6459" d="M 41.5,236.5 C 45.0476,236.949 48.381,237.949 51.5,239.5C 51.7035,241.39 51.0368,242.89 49.5,244C 50.9961,244.507 52.1627,244.007 53,242.5C 53.8226,248.629 53.3226,254.629 51.5,260.5C 46.3054,260.821 41.3054,260.487 36.5,259.5C 36.7358,257.951 36.7358,256.451 36.5,255C 37.0611,253.324 38.0611,251.991 39.5,251C 36.8333,250.333 36.8333,249.667 39.5,249C 38.8333,248.667 38.1667,248.333 37.5,248C 38.8333,247.333 38.8333,246.667 37.5,246C 40.1667,245.333 40.1667,244.667 37.5,244C 38.8333,243.333 40.1667,242.667 41.5,242C 41.4563,240.065 41.4563,238.232 41.5,236.5 Z"/></g>
<g><path style="opacity:1" fill="#6d685c" d="M 98.5,239.5 C 101.394,239.042 103.894,239.709 106,241.5C 107.934,248.71 108.767,256.043 108.5,263.5C 104.466,263.505 100.466,263.838 96.5,264.5C 95.9118,255.897 96.5785,247.564 98.5,239.5 Z"/></g>
<g><path style="opacity:1" fill="#3b3832" d="M 36.5,234.5 C 38.403,234.796 40.0697,235.463 41.5,236.5C 41.4563,238.232 41.4563,240.065 41.5,242C 40.1667,242.667 38.8333,243.333 37.5,244C 40.1667,244.667 40.1667,245.333 37.5,246C 38.8333,246.667 38.8333,247.333 37.5,248C 38.1667,248.333 38.8333,248.667 39.5,249C 36.8333,249.667 36.8333,250.333 39.5,251C 38.0611,251.991 37.0611,253.324 36.5,255C 36.7358,256.451 36.7358,257.951 36.5,259.5C 33.8427,259.065 31.5093,258.065 29.5,256.5C 30.4959,256.586 31.3292,256.252 32,255.5C 33.4571,248.445 34.9571,241.445 36.5,234.5 Z"/></g>
<g><path style="opacity:1" fill="#676256" d="M 56.5,239.5 C 60.1981,239.552 63.8648,239.886 67.5,240.5C 67.5,248.5 67.5,256.5 67.5,264.5C 63.1186,264.628 58.7853,264.295 54.5,263.5C 55.2972,255.513 55.9639,247.513 56.5,239.5 Z"/></g>
<g><path style="opacity:1" fill="#342e26" d="M 31.5,262.5 C 31.56,261.957 31.8933,261.624 32.5,261.5C 36.9334,262.643 41.1001,264.309 45,266.5C 49.5598,264.871 52.3932,266.537 53.5,271.5C 50.4911,272.023 47.4911,271.523 44.5,270C 39.8123,267.993 35.4789,265.493 31.5,262.5 Z"/></g>
<g><path style="opacity:1" fill="#322c25" d="M 129.5,261.5 C 130.239,261.369 130.906,261.536 131.5,262C 129.016,264.744 126.016,266.744 122.5,268C 118.539,268.404 114.872,269.57 111.5,271.5C 110.808,269.665 111.142,267.832 112.5,266C 118.488,265.255 124.155,263.755 129.5,261.5 Z"/></g>
<g><path style="opacity:1" fill="#373028" d="M 104.5,266.5 C 105.833,266.5 107.167,266.5 108.5,266.5C 108.747,269.505 107.747,272.005 105.5,274C 89.4899,277.274 73.4899,277.274 57.5,274C 56.373,272.247 55.373,270.413 54.5,268.5C 68.7981,268.435 83.1314,268.268 97.5,268C 100.036,267.814 102.369,267.314 104.5,266.5 Z"/></g>
<g><path style="opacity:1" fill="#a8a091" d="M 48.5,277.5 C 48.9175,278.222 49.5842,278.722 50.5,279C 48.0117,281.627 47.8451,284.46 50,287.5C 53.6174,292.115 58.1174,295.615 63.5,298C 62.9056,298.464 62.2389,298.631 61.5,298.5C 56.1446,297.498 50.8112,296.498 45.5,295.5C 41.9471,294.483 38.6138,292.983 35.5,291C 41.3739,292.732 47.3739,294.065 53.5,295C 46.1476,292.774 42.981,287.941 44,280.5C 44.9078,278.561 46.4078,277.561 48.5,277.5 Z"/></g>
<g><path style="opacity:1" fill="#716b5f" d="M 48.5,277.5 C 54.6506,279.597 60.9839,280.93 67.5,281.5C 76.9856,282.494 86.6522,282.827 96.5,282.5C 96.7857,288.259 96.4524,293.925 95.5,299.5C 83.9877,299.828 72.6544,299.495 61.5,298.5C 62.2389,298.631 62.9056,298.464 63.5,298C 58.1174,295.615 53.6174,292.115 50,287.5C 47.8451,284.46 48.0117,281.627 50.5,279C 49.5842,278.722 48.9175,278.222 48.5,277.5 Z"/></g>
<g><path style="opacity:1" fill="#5f5a50" d="M 113.5,277.5 C 116.09,280.971 116.09,284.471 113.5,288C 112.207,288.49 110.873,288.657 109.5,288.5C 109.5,289.833 109.5,291.167 109.5,292.5C 108.167,292.5 106.833,292.5 105.5,292.5C 105.5,293.833 105.5,295.167 105.5,296.5C 103.447,296.402 101.78,297.069 100.5,298.5C 99.0813,299.451 97.4147,299.784 95.5,299.5C 96.4524,293.925 96.7857,288.259 96.5,282.5C 86.6522,282.827 76.9856,282.494 67.5,281.5C 83.0899,282.505 98.4233,281.172 113.5,277.5 Z"/></g>
<g><path style="opacity:1" fill="#7a7468" d="M 32.5,276.5 C 32.8243,278.964 32.991,281.631 33,284.5C 35.7482,286.458 38.5815,288.291 41.5,290C 37.3096,289.157 33.4763,287.324 30,284.5C 29.9335,281.613 30.7668,278.946 32.5,276.5 Z"/></g>
<g><path style="opacity:1" fill="#a9a8a5" d="M 102.5,282.5 C 104.167,282.5 105.833,282.5 107.5,282.5C 107.5,283.5 107.5,284.5 107.5,285.5C 106.5,285.5 105.5,285.5 104.5,285.5C 104.5,286.833 104.5,288.167 104.5,289.5C 103.5,289.5 102.5,289.5 101.5,289.5C 101.298,287.05 101.631,284.717 102.5,282.5 Z"/></g>
<g><path style="opacity:1" fill="#8f897b" d="M 130.5,276.5 C 136.647,282.892 135.314,286.725 126.5,288C 131.452,285.515 132.785,281.681 130.5,276.5 Z"/></g>
<g><path style="opacity:1" fill="#9f988c" d="M 113.5,277.5 C 115.467,277.261 117.301,277.594 119,278.5C 122.174,286.984 119.341,292.484 110.5,295C 115.196,294.495 119.862,293.661 124.5,292.5C 123.833,293.167 123.167,293.833 122.5,294.5C 115.239,296.219 107.906,297.552 100.5,298.5C 101.78,297.069 103.447,296.402 105.5,296.5C 105.5,295.167 105.5,293.833 105.5,292.5C 106.833,292.5 108.167,292.5 109.5,292.5C 109.5,291.167 109.5,289.833 109.5,288.5C 110.873,288.657 112.207,288.49 113.5,288C 116.09,284.471 116.09,280.971 113.5,277.5 Z"/></g>
<g><path style="opacity:1" fill="#6f6a60" d="M 124.5,292.5 C 126.179,290.825 128.179,289.992 130.5,290C 128.842,291.663 126.842,292.496 124.5,292.5 Z"/></g>
<g><path style="opacity:1" fill="#383129" d="M 116.5,309.5 C 91.5574,316.742 66.8908,316.076 42.5,307.5C 43.5981,306.603 43.5981,305.77 42.5,305C 44.1786,304.605 45.8453,304.772 47.5,305.5C 48.938,305.281 50.2713,304.781 51.5,304C 50.5,303 49.5,302 48.5,301C 49.09,299.701 50.09,298.868 51.5,298.5C 71.8142,302.372 92.1476,302.372 112.5,298.5C 113.504,299.154 114.504,299.987 115.5,301C 114.5,302 113.5,303 112.5,304C 114.044,305.187 115.711,305.52 117.5,305C 115.405,304.444 115.238,303.944 117,303.5C 118.5,304 120,304.5 121.5,305C 118.216,306.125 114.883,307.125 111.5,308C 113.382,308.198 115.048,308.698 116.5,309.5 Z"/></g>
<g><path style="opacity:1" fill="#231f1a" d="M 45.5,295.5 C 50.8112,296.498 56.1446,297.498 61.5,298.5C 72.6544,299.495 83.9877,299.828 95.5,299.5C 97.4147,299.784 99.0813,299.451 100.5,298.5C 107.906,297.552 115.239,296.219 122.5,294.5C 126.284,295.413 129.951,294.747 133.5,292.5C 134.096,296.874 132.763,300.708 129.5,304C 125.178,305.938 120.845,307.771 116.5,309.5C 115.048,308.698 113.382,308.198 111.5,308C 114.883,307.125 118.216,306.125 121.5,305C 120,304.5 118.5,304 117,303.5C 115.238,303.944 115.405,304.444 117.5,305C 115.711,305.52 114.044,305.187 112.5,304C 113.5,303 114.5,302 115.5,301C 114.504,299.987 113.504,299.154 112.5,298.5C 92.1476,302.372 71.8142,302.372 51.5,298.5C 50.09,298.868 49.09,299.701 48.5,301C 49.5,302 50.5,303 51.5,304C 50.2713,304.781 48.938,305.281 47.5,305.5C 45.8453,304.772 44.1786,304.605 42.5,305C 43.5981,305.77 43.5981,306.603 42.5,307.5C 33.823,305.859 29.823,300.859 30.5,292.5C 35.4371,295.066 40.4371,296.066 45.5,295.5 Z"/></g>
<g><path style="opacity:1" fill="#726c60" d="M 43.5,311.5 C 53.276,314.489 63.276,316.656 73.5,318C 64.4593,322.888 55.1259,327.054 45.5,330.5C 42.9471,329.745 40.2804,329.078 37.5,328.5C 32.4656,327.526 27.4656,326.359 22.5,325C 21.3044,324.346 21.3044,323.846 22.5,323.5C 28.3576,325.472 34.3576,326.805 40.5,327.5C 41.6009,328.598 42.9343,328.765 44.5,328C 40.545,325.881 37.8783,322.715 36.5,318.5C 36.6667,317.833 36.8333,317.167 37,316.5C 39.3256,314.934 41.4922,313.268 43.5,311.5 Z"/></g>
<g><path style="opacity:1" fill="#706a5e" d="M 123.5,311.5 C 122.475,311.897 122.308,312.563 123,313.5C 127.001,314.848 128.334,317.515 127,321.5C 123.94,324.614 120.44,327.114 116.5,329C 117.094,329.464 117.761,329.631 118.5,329.5C 107.054,331.553 95.3871,332.387 83.5,332C 91.1189,326.716 98.4522,321.049 105.5,315C 111.277,314.519 116.777,313.019 122,310.5C 122.765,310.57 123.265,310.903 123.5,311.5 Z"/></g>
<g><path style="opacity:1" fill="#8d8679" d="M 27.5,310.5 C 28.2389,310.369 28.9056,310.536 29.5,311C 26.5728,313.382 23.7395,315.882 21,318.5C 21.4882,322.23 20.1548,322.564 17,319.5C 16.3123,318.668 16.479,318.002 17.5,317.5C 21.25,315.637 24.5833,313.303 27.5,310.5 Z"/></g>
<g><path style="opacity:1" fill="#a9a191" d="M 123.5,311.5 C 125.95,312.777 128.283,314.277 130.5,316C 133.43,320.654 132.097,323.821 126.5,325.5C 125.527,325.987 124.527,326.487 123.5,327C 125.058,327.21 126.391,327.71 127.5,328.5C 127.167,328.5 126.833,328.5 126.5,328.5C 125.508,328.328 124.842,328.662 124.5,329.5C 122.5,329.5 120.5,329.5 118.5,329.5C 117.761,329.631 117.094,329.464 116.5,329C 120.44,327.114 123.94,324.614 127,321.5C 128.334,317.515 127.001,314.848 123,313.5C 122.308,312.563 122.475,311.897 123.5,311.5 Z"/></g>
<g><path style="opacity:1" fill="#948e80" d="M 144.5,320.5 C 144.5,320.167 144.5,319.833 144.5,319.5C 142.031,316.866 139.364,314.366 136.5,312C 140.442,313.386 144.109,315.553 147.5,318.5C 146.995,319.919 145.995,320.585 144.5,320.5 Z"/></g>
<g><path style="opacity:1" fill="#ada595" d="M 43.5,311.5 C 41.4922,313.268 39.3256,314.934 37,316.5C 36.8333,317.167 36.6667,317.833 36.5,318.5C 37.8783,322.715 40.545,325.881 44.5,328C 42.9343,328.765 41.6009,328.598 40.5,327.5C 38.7274,326.108 36.7274,324.941 34.5,324C 32.8757,322.883 31.8757,321.383 31.5,319.5C 33.6652,315.836 36.6652,313.003 40.5,311C 41.5768,310.53 42.5768,310.697 43.5,311.5 Z"/></g>
<g><path style="opacity:1" fill="#686358" d="M 79.5,317.5 C 81.1992,317.34 82.8659,317.506 84.5,318C 80.0603,323.042 75.0603,327.375 69.5,331C 64.467,331.829 59.467,331.662 54.5,330.5C 62.9891,326.422 71.3224,322.089 79.5,317.5 Z"/></g>
<g><path style="opacity:1" fill="#514d45" d="M 144.5,319.5 C 144.5,319.833 144.5,320.167 144.5,320.5C 143.047,321.825 143.381,322.658 145.5,323C 139.747,325.65 133.747,327.484 127.5,328.5C 126.391,327.71 125.058,327.21 123.5,327C 124.527,326.487 125.527,325.987 126.5,325.5C 126.917,326.124 127.584,326.457 128.5,326.5C 131.82,325.703 135.154,325.036 138.5,324.5C 138.5,323.5 138.5,322.5 138.5,321.5C 140.703,321.396 142.703,320.73 144.5,319.5 Z"/></g>
<g><path style="opacity:1" fill="#342d26" d="M 37.5,328.5 C 40.2804,329.078 42.9471,329.745 45.5,330.5C 47.3922,331.621 50.7255,332.454 55.5,333C 72.1667,333.667 88.8333,333.667 105.5,333C 112.675,332.521 119.008,331.355 124.5,329.5C 124.842,328.662 125.508,328.328 126.5,328.5C 127.274,329.147 128.274,329.48 129.5,329.5C 137.201,327.939 144.868,326.273 152.5,324.5C 152.657,325.873 152.49,327.207 152,328.5C 150,328.5 148,328.5 146,328.5C 145.083,330.549 143.249,332.383 140.5,334C 143.188,334.548 145.355,333.715 147,331.5C 151.02,332.918 151.187,334.251 147.5,335.5C 146.833,335.167 146.167,334.833 145.5,334.5C 142.068,336.48 138.402,337.98 134.5,339C 137.304,339.46 139.971,338.96 142.5,337.5C 143.795,338.098 145.128,338.598 146.5,339C 131.426,342.897 116.093,344.897 100.5,345C 76.7352,346.204 53.0685,345.204 29.5,342C 29.1667,341.667 28.8333,341.333 28.5,341C 29.5,340.833 30.5,340.667 31.5,340.5C 36.1425,341.483 40.8092,341.65 45.5,341C 40.7075,340.347 36.0408,339.18 31.5,337.5C 26.381,338.563 26.381,337.896 31.5,335.5C 33.4325,336.52 35.4325,336.687 37.5,336C 33.5,335 29.5,334 25.5,333C 26.8333,332.667 28.1667,332.333 29.5,332C 26.8954,330.556 24.7288,330.723 23,332.5C 19.7088,331.747 17.0421,330.08 15,327.5C 14.6667,328.167 14.3333,328.833 14,329.5C 13.5604,327.924 12.727,326.59 11.5,325.5C 12,325.167 12.5,324.833 13,324.5C 20.1401,326.243 27.3068,327.91 34.5,329.5C 35.7261,329.48 36.7261,329.147 37.5,328.5 Z"/></g>
<g><path style="opacity:1" fill="#dddddd" d="M 29.5,361.5 C 22.5,361.5 15.5,361.5 8.5,361.5C 8.5,359.5 8.5,357.5 8.5,355.5C 15.515,355.578 22.515,355.911 29.5,356.5C 29.5,358.167 29.5,359.833 29.5,361.5 Z"/></g>
</svg>
