<?xml version="1.0" encoding="UTF-8"?>
<!DOCTYPE svg PUBLIC "-//W3C//DTD SVG 1.1//EN" "http://www.w3.org/Graphics/SVG/1.1/DTD/svg11.dtd">
<svg xmlns="http://www.w3.org/2000/svg" version="1.1" width="176px" height="329px" style="shape-rendering:geometricPrecision; text-rendering:geometricPrecision; image-rendering:optimizeQuality; fill-rule:evenodd; clip-rule:evenodd" xmlns:xlink="http://www.w3.org/1999/xlink">
<g><path style="opacity:1" fill="#fdfdfd" d="M -0.5,-0.5 C 58.1667,-0.5 116.833,-0.5 175.5,-0.5C 175.5,109.167 175.5,218.833 175.5,328.5C 116.833,328.5 58.1667,328.5 -0.5,328.5C -0.5,218.833 -0.5,109.167 -0.5,-0.5 Z"/></g>
<g><path style="opacity:1" fill="#7f746c" d="M 101.5,14.5 C 96.3457,14.2941 91.3457,14.9608 86.5,16.5C 87.842,15.207 89.5087,14.3736 91.5,14C 95.0267,13.1925 98.3601,13.3592 101.5,14.5 Z"/></g>
<g><path style="opacity:1" fill="#9b9991" d="M 107.5,14.5 C 109.527,14.3379 111.527,14.5045 113.5,15C 114.056,15.3826 114.389,15.8826 114.5,16.5C 111.99,16.0733 109.657,15.4067 107.5,14.5 Z"/></g>
<g><path style="opacity:1" fill="#a19a93" d="M 50.5,42.5 C 50.573,44.0269 49.9063,45.0269 48.5,45.5C 48.427,43.9731 49.0937,42.9731 50.5,42.5 Z"/></g>
<g><path style="opacity:1" fill="#bcb6b2" d="M 165.5,61.5 C 168.463,61.1507 170.796,62.1507 172.5,64.5C 172.043,65.2975 171.376,65.6309 170.5,65.5C 169.173,63.8184 167.506,62.4851 165.5,61.5 Z"/></g>
<g><path style="opacity:1" fill="#a3a19d" d="M 58.5,85.5 C 57.7347,88.0961 57.4013,90.7628 57.5,93.5C 56.8476,92.5514 56.5143,91.3847 56.5,90C 56.3068,87.9919 56.9735,86.4919 58.5,85.5 Z"/></g>
<g><path style="opacity:1" fill="#676058" d="M 58.5,114.5 C 58.5386,115.756 58.0386,116.756 57,117.5C 56.5482,125.875 55.7148,134.208 54.5,142.5C 53.8933,142.376 53.56,142.043 53.5,141.5C 54.707,133.354 55.5403,125.021 56,116.5C 56.7083,115.619 57.5416,114.953 58.5,114.5 Z"/></g>
<g><path style="opacity:1" fill="#bcb7af" d="M 161.5,120.5 C 161.657,121.873 161.49,123.207 161,124.5C 160.098,126.431 158.931,128.097 157.5,129.5C 158.083,126.053 159.416,123.053 161.5,120.5 Z"/></g>
<g><path style="opacity:1" fill="#beb9b3" d="M 152.5,140.5 C 151.168,147.823 151.168,155.156 152.5,162.5C 152.167,163.833 151.833,165.167 151.5,166.5C 150.893,166.376 150.56,166.043 150.5,165.5C 150.595,158.023 150.762,150.356 151,142.5C 151.278,141.584 151.778,140.918 152.5,140.5 Z"/></g>
<g><path style="opacity:1" fill="#777166" d="M 144.5,159.5 C 143.513,164.305 143.179,169.305 143.5,174.5C 142.185,169.32 142.185,163.986 143.5,158.5C 144.107,158.624 144.44,158.957 144.5,159.5 Z"/></g>
<g><path style="opacity:1" fill="#b8b6ad" d="M 144.5,159.5 C 145.167,159.5 145.5,159.833 145.5,160.5C 144.833,169.167 144.167,177.833 143.5,186.5C 143.5,182.5 143.5,178.5 143.5,174.5C 143.179,169.305 143.513,164.305 144.5,159.5 Z"/></g>
<g><path style="opacity:1" fill="#939189" d="M 19.5,159.5 C 19.2451,161.967 18.2451,163.967 16.5,165.5C 16.7549,163.033 17.7549,161.033 19.5,159.5 Z"/></g>
<g><path style="opacity:1" fill="#a8a49b" d="M 15.5,190.5 C 16.9238,192.515 17.5905,194.848 17.5,197.5C 16.0762,195.485 15.4095,193.152 15.5,190.5 Z"/></g>
<g><path style="opacity:1" fill="#bdb8b2" d="M 17.5,197.5 C 19.0652,199.509 20.0652,201.843 20.5,204.5C 18.1663,202.824 17.1663,200.491 17.5,197.5 Z"/></g>
<g><path style="opacity:1" fill="#9d9591" d="M 138.5,232.5 C 138.573,234.027 137.906,235.027 136.5,235.5C 136.427,233.973 137.094,232.973 138.5,232.5 Z"/></g>
<g><path style="opacity:1" fill="#7d766e" d="M 136.5,257.5 C 139.086,260.556 139.753,263.889 138.5,267.5C 137.833,264.167 137.167,260.833 136.5,257.5 Z"/></g>
<g><path style="opacity:1" fill="#736a62" d="M 35.5,255.5 C 33.8164,260.676 33.1497,266.009 33.5,271.5C 32.0598,270.054 31.3932,268.221 31.5,266C 31.7829,261.968 33.1162,258.468 35.5,255.5 Z"/></g>
<g><path style="opacity:1" fill="#413425" d="M 101.5,14.5 C 103.5,14.5 105.5,14.5 107.5,14.5C 109.657,15.4067 111.99,16.0733 114.5,16.5C 121.135,19.2939 127.135,23.1273 132.5,28C 136.183,33.1305 140.35,37.9638 145,42.5C 149.442,51.4434 156.276,57.7767 165.5,61.5C 167.506,62.4851 169.173,63.8184 170.5,65.5C 166.708,65.7264 163.041,66.5597 159.5,68C 158.572,68.3879 157.905,69.0546 157.5,70C 160.171,75.1707 162.005,80.6707 163,86.5C 163.885,97.9212 163.385,109.255 161.5,120.5C 159.416,123.053 158.083,126.053 157.5,129.5C 155.562,133.043 153.895,136.71 152.5,140.5C 151.778,140.918 151.278,141.584 151,142.5C 150.762,150.356 150.595,158.023 150.5,165.5C 148.605,164.027 146.939,162.36 145.5,160.5C 145.5,159.833 145.167,159.5 144.5,159.5C 144.44,158.957 144.107,158.624 143.5,158.5C 142.185,163.986 142.185,169.32 143.5,174.5C 143.5,178.5 143.5,182.5 143.5,186.5C 142.067,191.634 140.733,196.801 139.5,202C 142.312,212.339 141.978,222.505 138.5,232.5C 137.094,232.973 136.427,233.973 136.5,235.5C 134.267,239.078 131.601,242.412 128.5,245.5C 131.683,249.213 134.35,253.213 136.5,257.5C 137.167,260.833 137.833,264.167 138.5,267.5C 137.862,272.013 137.029,276.346 136,280.5C 140.247,283.708 144.747,286.542 149.5,289C 154.835,294.753 156.668,301.586 155,309.5C 153.855,310.636 152.688,311.636 151.5,312.5C 149.033,312.755 147.033,313.755 145.5,315.5C 141.524,316.295 137.524,316.962 133.5,317.5C 129.64,317.808 125.974,318.475 122.5,319.5C 122.167,319.5 121.833,319.5 121.5,319.5C 114.646,319.735 107.979,320.402 101.5,321.5C 99.8333,321.5 98.1667,321.5 96.5,321.5C 76.0476,321.853 55.7143,320.519 35.5,317.5C 30.4656,316.526 25.4656,315.359 20.5,314C 18.3762,312.878 16.5429,311.378 15,309.5C 13.7179,304.295 14.5513,299.628 17.5,295.5C 18.7169,292.933 20.3835,290.6 22.5,288.5C 26.7448,286.365 30.7448,283.698 34.5,280.5C 34.8333,279.833 35.1667,279.167 35.5,278.5C 34.5331,276.238 33.8664,273.905 33.5,271.5C 33.1497,266.009 33.8164,260.676 35.5,255.5C 37.3706,252.261 39.3706,249.094 41.5,246C 37.3678,242.197 33.5345,238.031 30,233.5C 28.9777,231.298 28.4777,228.965 28.5,226.5C 29.1148,222.829 29.2815,219.162 29,215.5C 25.1673,212.45 22.334,208.784 20.5,204.5C 20.0652,201.843 19.0652,199.509 17.5,197.5C 17.5905,194.848 16.9238,192.515 15.5,190.5C 12.99,187.825 11.6567,184.658 11.5,181C 12.1717,175.495 13.8384,170.329 16.5,165.5C 18.2451,163.967 19.2451,161.967 19.5,159.5C 20.8915,154.156 22.3915,148.823 24,143.5C 30.4773,135.071 38.6439,133.237 48.5,138C 50.5844,138.697 52.2511,139.864 53.5,141.5C 53.56,142.043 53.8933,142.376 54.5,142.5C 55.7148,134.208 56.5482,125.875 57,117.5C 58.0386,116.756 58.5386,115.756 58.5,114.5C 59.172,113.733 60.0053,113.066 61,112.5C 62.1208,109.129 63.6208,105.963 65.5,103C 62.5801,100.042 59.9134,96.875 57.5,93.5C 57.4013,90.7628 57.7347,88.0961 58.5,85.5C 59.4577,84.0384 60.6244,82.7051 62,81.5C 62.6667,80.8333 62.6667,80.1667 62,79.5C 52.507,74.1954 47.3404,66.1954 46.5,55.5C 46.317,51.904 46.9837,48.5707 48.5,45.5C 49.9063,45.0269 50.573,44.0269 50.5,42.5C 55.8779,34.3042 63.3779,28.9708 73,26.5C 77.0832,22.5481 81.5832,19.2148 86.5,16.5C 91.3457,14.9608 96.3457,14.2941 101.5,14.5 Z"/></g>
<g><path style="opacity:1" fill="#e9d9bf" d="M 114.5,254.5 C 116.017,254.511 117.184,255.177 118,256.5C 119.807,263.491 117.307,267.824 110.5,269.5C 109.094,269.973 108.427,270.973 108.5,272.5C 107.5,272.5 106.5,272.5 105.5,272.5C 104.448,272.649 103.448,272.483 102.5,272C 110.144,269.536 114.144,264.369 114.5,256.5C 110.5,255.833 110.5,255.167 114.5,254.5 Z"/></g>
<g><path style="opacity:1" fill="#b5a692" d="M 59.5,269.5 C 62.0069,269.632 62.6736,270.632 61.5,272.5C 57.3427,272.086 53.3427,271.086 49.5,269.5C 47.5767,269.205 45.9101,268.372 44.5,267C 48.9583,267.923 53.4583,269.09 58,270.5C 58.7648,270.43 59.2648,270.097 59.5,269.5 Z"/></g>
<g><path style="opacity:1" fill="#b0a28e" d="M 121.5,269.5 C 119.228,270.319 116.894,270.985 114.5,271.5C 112.435,271.517 110.435,271.85 108.5,272.5C 108.427,270.973 109.094,269.973 110.5,269.5C 110.917,270.124 111.584,270.457 112.5,270.5C 116.574,269.364 120.574,268.031 124.5,266.5C 125.167,266.667 125.833,266.833 126.5,267C 125.09,268.372 123.423,269.205 121.5,269.5 Z"/></g>
<g><path style="opacity:1" fill="#eadcc0" d="M 55.5,254.5 C 56.8734,254.343 58.2068,254.51 59.5,255C 55.68,258.275 55.5133,261.775 59,265.5C 61.2643,268.433 64.0976,270.6 67.5,272C 66.2068,272.49 64.8734,272.657 63.5,272.5C 62.8333,272.5 62.1667,272.5 61.5,272.5C 62.6736,270.632 62.0069,269.632 59.5,269.5C 53.1419,267.452 50.9752,263.119 53,256.5C 53.7083,255.619 54.5416,254.953 55.5,254.5 Z"/></g>
<g><path style="opacity:1" fill="#bca583" d="M 55.5,254.5 C 56.4486,253.848 57.6153,253.514 59,253.5C 76.342,257.472 93.6753,257.472 111,253.5C 112.385,253.514 113.551,253.848 114.5,254.5C 110.5,255.167 110.5,255.833 114.5,256.5C 114.144,264.369 110.144,269.536 102.5,272C 103.448,272.483 104.448,272.649 105.5,272.5C 104.5,273.167 103.5,273.833 102.5,274.5C 90.8286,274.667 79.1619,274.5 67.5,274C 65.9419,273.79 64.6085,273.29 63.5,272.5C 64.8734,272.657 66.2068,272.49 67.5,272C 64.0976,270.6 61.2643,268.433 59,265.5C 55.5133,261.775 55.68,258.275 59.5,255C 58.2068,254.51 56.8734,254.343 55.5,254.5 Z"/></g>
<g><path style="opacity:1" fill="#806f51" d="M 108.5,217.5 C 109.5,217.5 110.5,217.5 111.5,217.5C 111.739,219.467 111.406,221.301 110.5,223C 113.742,223.283 114.076,224.117 111.5,225.5C 112.561,228.834 114.895,230.334 118.5,230C 117.833,230.333 117.167,230.667 116.5,231C 118.167,231.333 119.833,231.667 121.5,232C 120.833,232.333 120.167,232.667 119.5,233C 120.624,233.249 121.624,233.749 122.5,234.5C 120.343,235.79 118.01,236.624 115.5,237C 117.167,237.333 118.833,237.667 120.5,238C 118.754,238.471 117.087,239.138 115.5,240C 119.822,240.173 123.822,239.006 127.5,236.5C 128.107,236.624 128.44,236.957 128.5,237.5C 109.817,250.508 89.4841,254.175 67.5,248.5C 84.3015,250.936 98.9682,246.603 111.5,235.5C 112.386,234.675 112.719,233.675 112.5,232.5C 107.408,232.503 107.408,231.67 112.5,230C 111.167,229.667 109.833,229.333 108.5,229C 111.167,228 111.167,227 108.5,226C 109.051,224.602 109.384,223.268 109.5,222C 109,221.833 108.5,221.667 108,221.5C 96.461,232.031 82.961,238.531 67.5,241C 62.9796,241.814 58.6463,241.647 54.5,240.5C 74.5116,239.845 91.8449,232.845 106.5,219.5C 106.833,218.5 107.5,217.833 108.5,217.5 Z"/></g>
<g><path style="opacity:1" fill="#54442d" d="M 105.5,198.5 C 106.737,199.965 107.737,201.632 108.5,203.5C 107.307,203.97 106.64,204.97 106.5,206.5C 107.502,209.342 107.502,212.008 106.5,214.5C 106.477,212.073 105.977,209.74 105,207.5C 103.238,212.136 100.738,216.303 97.5,220C 84.9599,228.957 70.9599,233.291 55.5,233C 53.6491,231.248 51.6491,229.748 49.5,228.5C 45.431,223.372 41.5976,218.039 38,212.5C 37.4484,215.419 38.1151,218.086 40,220.5C 42.2774,224.08 44.7774,227.414 47.5,230.5C 49.289,233.457 51.6223,235.957 54.5,238C 67.614,237.743 79.9474,234.409 91.5,228C 96.3973,225.061 101.064,221.894 105.5,218.5C 105.5,219.167 105.833,219.5 106.5,219.5C 91.8449,232.845 74.5116,239.845 54.5,240.5C 49.46,236.461 45.1266,231.794 41.5,226.5C 39.5878,223.679 37.9212,220.679 36.5,217.5C 35.7025,217.957 35.3691,218.624 35.5,219.5C 34.9033,219.265 34.5699,218.765 34.5,218C 35.7562,215.031 37.0895,212.198 38.5,209.5C 38.8333,209.5 39.1667,209.5 39.5,209.5C 42.0043,214.515 45.0043,219.181 48.5,223.5C 48.8333,224.5 49.5,225.167 50.5,225.5C 51.1667,226.833 52.1667,227.833 53.5,228.5C 53.5,229.167 53.8333,229.5 54.5,229.5C 54.5,230.167 54.8333,230.5 55.5,230.5C 60.7235,231.795 66.0568,231.628 71.5,230C 82.2219,227.056 91.7219,221.889 100,214.5C 101.482,209.892 102.649,205.225 103.5,200.5C 104.222,200.918 104.722,201.584 105,202.5C 105.49,201.207 105.657,199.873 105.5,198.5 Z"/></g>
<g><path style="opacity:1" fill="#b8a280" d="M 67.5,248.5 C 61.0711,247.141 54.7377,245.308 48.5,243C 45.6447,240.969 42.978,238.803 40.5,236.5C 40.33,235.178 40.6634,234.011 41.5,233C 40.1667,232 38.8333,231 37.5,230C 38.448,229.517 39.448,229.351 40.5,229.5C 40.2627,228.209 40.596,227.209 41.5,226.5C 45.1266,231.794 49.46,236.461 54.5,240.5C 58.6463,241.647 62.9796,241.814 67.5,241C 82.961,238.531 96.461,232.031 108,221.5C 108.5,221.667 109,221.833 109.5,222C 109.384,223.268 109.051,224.602 108.5,226C 111.167,227 111.167,228 108.5,229C 109.833,229.333 111.167,229.667 112.5,230C 107.408,231.67 107.408,232.503 112.5,232.5C 112.719,233.675 112.386,234.675 111.5,235.5C 98.9682,246.603 84.3015,250.936 67.5,248.5 Z"/></g>
<g><path style="opacity:1" fill="#b19d7e" d="M 106.5,214.5 C 106.567,215.959 106.234,217.292 105.5,218.5C 101.064,221.894 96.3973,225.061 91.5,228C 79.9474,234.409 67.614,237.743 54.5,238C 51.6223,235.957 49.289,233.457 47.5,230.5C 47.5,229.167 48.1667,228.5 49.5,228.5C 51.6491,229.748 53.6491,231.248 55.5,233C 70.9599,233.291 84.9599,228.957 97.5,220C 100.738,216.303 103.238,212.136 105,207.5C 105.977,209.74 106.477,212.073 106.5,214.5 Z"/></g>
<g><path style="opacity:1" fill="#87775e" d="M 41.5,226.5 C 40.596,227.209 40.2627,228.209 40.5,229.5C 39.448,229.351 38.448,229.517 37.5,230C 38.8333,231 40.1667,232 41.5,233C 40.6634,234.011 40.33,235.178 40.5,236.5C 34.1978,232.387 32.5311,226.72 35.5,219.5C 35.3691,218.624 35.7025,217.957 36.5,217.5C 37.9212,220.679 39.5878,223.679 41.5,226.5 Z"/></g>
<g><path style="opacity:1" fill="#af9d81" d="M 49.5,228.5 C 48.1667,228.5 47.5,229.167 47.5,230.5C 44.7774,227.414 42.2774,224.08 40,220.5C 38.1151,218.086 37.4484,215.419 38,212.5C 41.5976,218.039 45.431,223.372 49.5,228.5 Z"/></g>
<g><path style="opacity:1" fill="#675940" d="M 128.5,237.5 C 128.44,236.957 128.107,236.624 127.5,236.5C 123.822,239.006 119.822,240.173 115.5,240C 117.087,239.138 118.754,238.471 120.5,238C 118.833,237.667 117.167,237.333 115.5,237C 118.01,236.624 120.343,235.79 122.5,234.5C 121.624,233.749 120.624,233.249 119.5,233C 120.167,232.667 120.833,232.333 121.5,232C 119.833,231.667 118.167,231.333 116.5,231C 117.167,230.667 117.833,230.333 118.5,230C 114.895,230.334 112.561,228.834 111.5,225.5C 114.076,224.117 113.742,223.283 110.5,223C 111.406,221.301 111.739,219.467 111.5,217.5C 110.5,217.5 109.5,217.5 108.5,217.5C 114.296,215.641 120.296,214.474 126.5,214C 124.122,214.974 124.456,215.641 127.5,216C 124.258,216.283 123.924,217.117 126.5,218.5C 125.088,219.806 123.421,220.64 121.5,221C 122.833,221.333 124.167,221.667 125.5,222C 123.212,222.822 120.878,223.489 118.5,224C 123.251,223.745 127.917,223.078 132.5,222C 128.666,224.266 128.999,224.933 133.5,224C 132.833,225.333 131.833,226.333 130.5,227C 131.357,227.689 132.023,228.522 132.5,229.5C 130.639,230.528 129.305,232.028 128.5,234C 129.791,235.292 129.791,236.458 128.5,237.5 Z"/></g>
<g><path style="opacity:1" fill="#f3e4c7" d="M 50.5,225.5 C 49.5,225.167 48.8333,224.5 48.5,223.5C 48.238,222.022 48.5713,220.689 49.5,219.5C 56.6435,214.191 63.6435,208.691 70.5,203C 72.8333,202.333 75.1667,202.333 77.5,203C 68.8076,210.993 59.8076,218.493 50.5,225.5 Z"/></g>
<g><path style="opacity:1" fill="#efdec1" d="M 90.5,198.5 C 91.1667,198.5 91.8333,198.5 92.5,198.5C 92.8333,198.5 93.1667,198.5 93.5,198.5C 81.0553,209.553 68.0553,219.886 54.5,229.5C 53.8333,229.5 53.5,229.167 53.5,228.5C 64.1223,219.552 74.789,210.552 85.5,201.5C 86.1667,201.5 86.5,201.167 86.5,200.5C 88.0618,200.267 89.3951,199.6 90.5,198.5 Z"/></g>
<g><path style="opacity:1" fill="#bcaa87" d="M 93.5,198.5 C 94.766,199.09 96.0993,199.59 97.5,200C 95.8333,201.667 94.1667,203.333 92.5,205C 81.3205,213.09 70.3205,221.424 59.5,230C 58.2068,230.49 56.8734,230.657 55.5,230.5C 54.8333,230.5 54.5,230.167 54.5,229.5C 68.0553,219.886 81.0553,209.553 93.5,198.5 Z"/></g>
<g><path style="opacity:1" fill="#807051" d="M 99.5,196.5 C 100.239,196.369 100.906,196.536 101.5,197C 102.085,198.302 102.751,199.469 103.5,200.5C 102.649,205.225 101.482,209.892 100,214.5C 91.7219,221.889 82.2219,227.056 71.5,230C 66.0568,231.628 60.7235,231.795 55.5,230.5C 56.8734,230.657 58.2068,230.49 59.5,230C 70.3205,221.424 81.3205,213.09 92.5,205C 94.1667,203.333 95.8333,201.667 97.5,200C 96.0993,199.59 94.766,199.09 93.5,198.5C 93.1667,198.5 92.8333,198.5 92.5,198.5C 94.8333,197.833 97.1667,197.167 99.5,196.5 Z"/></g>
<g><path style="opacity:1" fill="#7e6d50" d="M 84.5,189.5 C 85.9034,192.909 86.5701,196.575 86.5,200.5C 86.5,201.167 86.1667,201.5 85.5,201.5C 75.6845,202.073 66.0178,201.24 56.5,199C 55.7476,198.329 55.4142,197.496 55.5,196.5C 57.6365,197.787 59.9699,198.621 62.5,199C 69.8258,199.5 77.1591,199.666 84.5,199.5C 84.5,196.167 84.5,192.833 84.5,189.5 Z"/></g>
<g><path style="opacity:1" fill="#564730" d="M 97.5,193.5 C 98.1667,194.5 98.8333,195.5 99.5,196.5C 97.1667,197.167 94.8333,197.833 92.5,198.5C 91.8333,198.5 91.1667,198.5 90.5,198.5C 89.4947,193.478 88.3281,188.478 87,183.5C 86.586,183.043 86.086,182.709 85.5,182.5C 84.5258,184.743 84.1924,187.076 84.5,189.5C 84.5,192.833 84.5,196.167 84.5,199.5C 77.1591,199.666 69.8258,199.5 62.5,199C 59.9699,198.621 57.6365,197.787 55.5,196.5C 54.5028,196.53 53.8361,196.03 53.5,195C 55.5,190.333 57.5,185.667 59.5,181C 59.1667,180.5 58.8333,180 58.5,179.5C 55.3891,183.387 53.0557,187.72 51.5,192.5C 49.6029,193.652 47.9362,193.319 46.5,191.5C 46.1667,190.5 45.5,189.833 44.5,189.5C 44.5,188.833 44.8333,188.5 45.5,188.5C 46.8068,189.153 48.1401,189.82 49.5,190.5C 52.2425,185.764 55.0759,181.097 58,176.5C 60.058,177.058 61.2247,178.391 61.5,180.5C 59.737,184.621 58.0703,188.788 56.5,193C 56.8333,193.5 57.1667,194 57.5,194.5C 65.6156,197.113 73.949,198.113 82.5,197.5C 81.9682,191.848 81.6349,186.181 81.5,180.5C 84.1194,180.232 86.6194,180.565 89,181.5C 90.2861,186.096 91.1194,190.763 91.5,195.5C 94.0821,195.975 96.0821,195.308 97.5,193.5 Z"/></g>
<g><path style="opacity:1" fill="#7f6d52" d="M 123.5,161.5 C 122.88,165.264 121.88,168.931 120.5,172.5C 125.993,182.156 123.993,190.323 114.5,197C 111.429,198.239 108.429,198.739 105.5,198.5C 113.84,195.754 119.173,189.421 121.5,179.5C 119.659,177.489 117.992,175.322 116.5,173C 117.225,168.135 119.559,164.302 123.5,161.5 Z"/></g>
<g><path style="opacity:1" fill="#bda786" d="M 55.5,196.5 C 55.4142,197.496 55.7476,198.329 56.5,199C 66.0178,201.24 75.6845,202.073 85.5,201.5C 74.789,210.552 64.1223,219.552 53.5,228.5C 52.1667,227.833 51.1667,226.833 50.5,225.5C 59.8076,218.493 68.8076,210.993 77.5,203C 75.1667,202.333 72.8333,202.333 70.5,203C 63.6435,208.691 56.6435,214.191 49.5,219.5C 48.5713,220.689 48.238,222.022 48.5,223.5C 45.0043,219.181 42.0043,214.515 39.5,209.5C 43.3142,204.175 45.6475,198.175 46.5,191.5C 47.9362,193.319 49.6029,193.652 51.5,192.5C 53.0557,187.72 55.3891,183.387 58.5,179.5C 58.8333,180 59.1667,180.5 59.5,181C 57.5,185.667 55.5,190.333 53.5,195C 53.8361,196.03 54.5028,196.53 55.5,196.5 Z"/></g>
<g><path style="opacity:1" fill="#dbccb1" d="M 44.5,189.5 C 45.5,189.833 46.1667,190.5 46.5,191.5C 45.6475,198.175 43.3142,204.175 39.5,209.5C 39.1667,209.5 38.8333,209.5 38.5,209.5C 39.8932,202.654 41.8932,195.987 44.5,189.5 Z"/></g>
<g><path style="opacity:1" fill="#b19e7b" d="M 90.5,198.5 C 89.3951,199.6 88.0618,200.267 86.5,200.5C 86.5701,196.575 85.9034,192.909 84.5,189.5C 84.1924,187.076 84.5258,184.743 85.5,182.5C 86.086,182.709 86.586,183.043 87,183.5C 88.3281,188.478 89.4947,193.478 90.5,198.5 Z"/></g>
<g><path style="opacity:1" fill="#b9a382" d="M 128.5,169.5 C 129.519,174.552 130.852,179.552 132.5,184.5C 131.565,189.037 129.565,193.037 126.5,196.5C 126.833,196.833 127.167,197.167 127.5,197.5C 128.901,196.479 130.235,195.479 131.5,194.5C 132.791,194.263 133.791,194.596 134.5,195.5C 133.797,197.716 132.464,199.549 130.5,201C 123.483,205.804 116.15,206.637 108.5,203.5C 107.737,201.632 106.737,199.965 105.5,198.5C 108.429,198.739 111.429,198.239 114.5,197C 123.993,190.323 125.993,182.156 120.5,172.5C 121.88,168.931 122.88,165.264 123.5,161.5C 124.6,160.395 125.267,159.062 125.5,157.5C 126.117,157.389 126.617,157.056 127,156.5C 127.175,161.019 127.675,165.353 128.5,169.5 Z"/></g>
<g><path style="opacity:1" fill="#74654b" d="M 138.5,178.5 C 138.622,183.232 138.122,187.898 137,192.5C 136.623,193.942 135.79,194.942 134.5,195.5C 133.791,194.596 132.791,194.263 131.5,194.5C 133.122,191.593 134.455,188.593 135.5,185.5C 133.951,181.259 133.118,176.926 133,172.5C 135.068,174.396 136.901,176.396 138.5,178.5 Z"/></g>
<g><path style="opacity:1" fill="#a69476" d="M 46.5,185.5 C 49.0972,176.314 52.7639,167.648 57.5,159.5C 58.6499,158.15 59.3166,158.316 59.5,160C 55.9539,167.69 52.7872,175.523 50,183.5C 49,184.833 48,186.167 47,187.5C 46.5357,186.906 46.369,186.239 46.5,185.5 Z"/></g>
<g><path style="opacity:1" fill="#827154" d="M 41.5,164.5 C 41.6663,171.175 41.4996,177.842 41,184.5C 38.1674,185.939 35.3341,187.272 32.5,188.5C 36.7987,183.767 38.632,178.101 38,171.5C 38.8984,168.931 40.065,166.598 41.5,164.5 Z"/></g>
<g><path style="opacity:1" fill="#e1d3b8" d="M 18.5,184.5 C 17.3622,181.696 17.1955,178.696 18,175.5C 19.9453,172.705 21.4453,169.705 22.5,166.5C 23.9312,165.097 25.0978,163.431 26,161.5C 26.1667,162.5 26.3333,163.5 26.5,164.5C 24.2781,171.572 21.6114,178.238 18.5,184.5 Z"/></g>
<g><path style="opacity:1" fill="#7e6f51" d="M 97.5,193.5 C 96.0821,195.308 94.0821,195.975 91.5,195.5C 91.1194,190.763 90.2861,186.096 89,181.5C 86.6194,180.565 84.1194,180.232 81.5,180.5C 81.6349,186.181 81.9682,191.848 82.5,197.5C 73.949,198.113 65.6156,197.113 57.5,194.5C 57.1667,194 56.8333,193.5 56.5,193C 58.0703,188.788 59.737,184.621 61.5,180.5C 61.2247,178.391 60.058,177.058 58,176.5C 55.0759,181.097 52.2425,185.764 49.5,190.5C 48.1401,189.82 46.8068,189.153 45.5,188.5C 45.2627,187.209 45.596,186.209 46.5,185.5C 46.369,186.239 46.5357,186.906 47,187.5C 48,186.167 49,184.833 50,183.5C 52.7872,175.523 55.9539,167.69 59.5,160C 59.3166,158.316 58.6499,158.15 57.5,159.5C 57.4148,158.005 58.0815,157.005 59.5,156.5C 60.5476,163.044 64.2142,167.21 70.5,169C 76.9113,169.39 83.2447,169.057 89.5,168C 87.9277,171.19 88.7611,173.69 92,175.5C 92.1692,182.164 94.0026,188.164 97.5,193.5 Z"/></g>
<g><path style="opacity:1" fill="#dfd1b7" d="M 110.5,135.5 C 111.552,135.351 112.552,135.517 113.5,136C 111.333,136.833 109.833,138.333 109,140.5C 106.446,146.931 104.78,153.598 104,160.5C 100.991,163.177 98.3242,166.177 96,169.5C 95.3162,170.784 95.4829,171.951 96.5,173C 95.9056,173.464 95.2389,173.631 94.5,173.5C 93.1882,172.855 92.1882,171.855 91.5,170.5C 97.7594,161.981 102.426,152.648 105.5,142.5C 105.931,139.385 107.598,137.051 110.5,135.5 Z"/></g>
<g><path style="opacity:1" fill="#837053" d="M 122.5,148.5 C 119.633,154.918 117.299,161.584 115.5,168.5C 114.173,170.494 112.506,172.161 110.5,173.5C 111.391,171.391 112.558,169.391 114,167.5C 114.158,159.859 116.992,153.525 122.5,148.5 Z"/></g>
<g><path style="opacity:1" fill="#7c6b4f" d="M 52.5,162.5 C 50.8823,165.805 49.2156,169.139 47.5,172.5C 45.4038,171.38 45.0705,169.88 46.5,168C 44.8624,165.867 44.029,163.367 44,160.5C 43.6174,161.056 43.1174,161.389 42.5,161.5C 43.0722,159.745 43.9055,158.078 45,156.5C 46.1403,160.253 47.9736,160.919 50.5,158.5C 51.1719,159.949 51.8386,161.282 52.5,162.5 Z"/></g>
<g><path style="opacity:1" fill="#b8a280" d="M 65.5,150.5 C 67.667,152.511 70.3337,153.678 73.5,154C 74.0611,155.676 75.0611,157.009 76.5,158C 76.1667,158.333 75.8333,158.667 75.5,159C 77.1667,159.333 78.8333,159.667 80.5,160C 80.1667,160.333 79.8333,160.667 79.5,161C 81.935,161.075 82.6016,161.908 81.5,163.5C 69.9897,165.639 63.6563,160.973 62.5,149.5C 63.791,149.263 64.791,149.596 65.5,150.5 Z"/></g>
<g><path style="opacity:1" fill="#ebddc1" d="M 33.5,142.5 C 34.552,142.351 35.552,142.517 36.5,143C 33.6193,144.251 31.786,146.417 31,149.5C 30,153.833 29,158.167 28,162.5C 27.502,159.518 27.3354,156.518 27.5,153.5C 27.6927,148.777 29.6927,145.11 33.5,142.5 Z"/></g>
<g><path style="opacity:1" fill="#685b44" d="M 76.5,150.5 C 81.0462,150.268 85.3795,151.101 89.5,153C 89.1667,153.333 88.8333,153.667 88.5,154C 92.8102,155.503 93.1436,157.17 89.5,159C 93.333,159.604 93.333,160.437 89.5,161.5C 88.3915,160.71 87.0581,160.21 85.5,160C 85.8333,159.667 86.1667,159.333 86.5,159C 85.4844,158.481 84.8178,157.647 84.5,156.5C 85.1984,155.137 85.1984,153.971 84.5,153C 81.6209,152.454 78.9542,151.621 76.5,150.5 Z"/></g>
<g><path style="opacity:1" fill="#937f63" d="M 127.5,142.5 C 128.117,142.611 128.617,142.944 129,143.5C 129.073,152.159 128.906,160.826 128.5,169.5C 127.675,165.353 127.175,161.019 127,156.5C 126.617,157.056 126.117,157.389 125.5,157.5C 124.671,156.668 123.838,157.001 123,158.5C 122.204,155.961 122.371,153.628 123.5,151.5C 124.167,155.5 124.833,155.5 125.5,151.5C 126.5,151.5 127.5,151.5 128.5,151.5C 128.632,148.43 128.299,145.43 127.5,142.5 Z"/></g>
<g><path style="opacity:1" fill="#827254" d="M 65.5,150.5 C 69.1667,150.5 72.8333,150.5 76.5,150.5C 78.9542,151.621 81.6209,152.454 84.5,153C 85.1984,153.971 85.1984,155.137 84.5,156.5C 84.8178,157.647 85.4844,158.481 86.5,159C 86.1667,159.333 85.8333,159.667 85.5,160C 87.0581,160.21 88.3915,160.71 89.5,161.5C 86.779,161.963 84.1123,162.629 81.5,163.5C 82.6016,161.908 81.935,161.075 79.5,161C 79.8333,160.667 80.1667,160.333 80.5,160C 78.8333,159.667 77.1667,159.333 75.5,159C 75.8333,158.667 76.1667,158.333 76.5,158C 75.0611,157.009 74.0611,155.676 73.5,154C 70.3337,153.678 67.667,152.511 65.5,150.5 Z"/></g>
<g><path style="opacity:1" fill="#7a6c59" d="M 83.5,145.5 C 83.3893,146.117 83.056,146.617 82.5,147C 77.3158,147.816 72.3158,147.65 67.5,146.5C 72.8699,146.608 78.2032,146.275 83.5,145.5 Z"/></g>
<g><path style="opacity:1" fill="#bba582" d="M 33.5,142.5 C 40.0541,140.302 45.8874,141.636 51,146.5C 52.0605,150.526 53.2272,154.526 54.5,158.5C 54.2483,160.073 53.5817,161.406 52.5,162.5C 51.8386,161.282 51.1719,159.949 50.5,158.5C 47.9736,160.919 46.1403,160.253 45,156.5C 43.9055,158.078 43.0722,159.745 42.5,161.5C 42.4431,162.609 42.1098,163.609 41.5,164.5C 40.065,166.598 38.8984,168.931 38,171.5C 38.632,178.101 36.7987,183.767 32.5,188.5C 26.8548,190.684 22.1882,189.351 18.5,184.5C 21.6114,178.238 24.2781,171.572 26.5,164.5C 26.3333,163.5 26.1667,162.5 26,161.5C 25.0978,163.431 23.9312,165.097 22.5,166.5C 23.5995,161.856 25.2661,157.522 27.5,153.5C 27.3354,156.518 27.502,159.518 28,162.5C 29,158.167 30,153.833 31,149.5C 31.786,146.417 33.6193,144.251 36.5,143C 35.552,142.517 34.552,142.351 33.5,142.5 Z"/></g>
<g><path style="opacity:1" fill="#bda684" d="M 110.5,135.5 C 117.475,134.14 123.141,136.473 127.5,142.5C 128.299,145.43 128.632,148.43 128.5,151.5C 127.5,151.5 126.5,151.5 125.5,151.5C 124.833,155.5 124.167,155.5 123.5,151.5C 123.737,150.209 123.404,149.209 122.5,148.5C 116.992,153.525 114.158,159.859 114,167.5C 112.558,169.391 111.391,171.391 110.5,173.5C 105.75,175.481 100.75,175.981 95.5,175C 94.944,174.617 94.6107,174.117 94.5,173.5C 95.2389,173.631 95.9056,173.464 96.5,173C 95.4829,171.951 95.3162,170.784 96,169.5C 98.3242,166.177 100.991,163.177 104,160.5C 104.78,153.598 106.446,146.931 109,140.5C 109.833,138.333 111.333,136.833 113.5,136C 112.552,135.517 111.552,135.351 110.5,135.5 Z"/></g>
<g><path style="opacity:1" fill="#463826" d="M 128.5,35.5 C 128.062,35.4346 127.728,35.6012 127.5,36C 128.999,38.3279 130.666,40.4946 132.5,42.5C 134.177,45.0245 135.677,47.6912 137,50.5C 141.028,52.5848 141.195,53.2514 137.5,52.5C 136.369,54.0745 136.202,55.7412 137,57.5C 139.777,60.7559 142.277,64.0892 144.5,67.5C 145.639,71.1122 147.306,74.4456 149.5,77.5C 149.322,78.6948 148.989,79.8615 148.5,81C 150.003,84.0086 151.003,87.1753 151.5,90.5C 150.592,98.8053 150.259,107.139 150.5,115.5C 147.02,123.096 144.187,131.096 142,139.5C 141.341,142.888 141.508,146.221 142.5,149.5C 141.312,148.316 140.145,148.316 139,149.5C 138.5,159.161 138.334,168.828 138.5,178.5C 136.901,176.396 135.068,174.396 133,172.5C 133.118,176.926 133.951,181.259 135.5,185.5C 134.455,188.593 133.122,191.593 131.5,194.5C 130.235,195.479 128.901,196.479 127.5,197.5C 127.167,197.167 126.833,196.833 126.5,196.5C 129.565,193.037 131.565,189.037 132.5,184.5C 130.852,179.552 129.519,174.552 128.5,169.5C 128.906,160.826 129.073,152.159 129,143.5C 128.617,142.944 128.117,142.611 127.5,142.5C 123.141,136.473 117.475,134.14 110.5,135.5C 107.598,137.051 105.931,139.385 105.5,142.5C 105.716,140.319 104.883,138.653 103,137.5C 101.728,140.222 99.5608,141.556 96.5,141.5C 97.0722,139.745 97.9055,138.078 99,136.5C 99.8917,128.851 101.392,121.351 103.5,114C 107.458,110.071 112.125,108.904 117.5,110.5C 116.812,111.855 115.812,112.855 114.5,113.5C 111.291,116.228 108.791,119.561 107,123.5C 106.536,122.906 106.369,122.239 106.5,121.5C 107.714,119.192 107.714,116.859 106.5,114.5C 104.133,116.95 103.133,119.95 103.5,123.5C 101.685,127.119 101.352,130.952 102.5,135C 102.85,136.257 103.517,136.591 104.5,136C 106.002,131.59 107.502,127.09 109,122.5C 111.372,120.297 113.539,117.963 115.5,115.5C 118.833,113.833 122.167,112.167 125.5,110.5C 129.92,109.919 133.086,107.586 135,103.5C 139.099,97.7017 141.265,91.3683 141.5,84.5C 141.666,89.1785 141.499,93.8452 141,98.5C 140.108,101.952 138.442,104.952 136,107.5C 134.839,113.976 133.172,120.309 131,126.5C 130.667,125.833 130.333,125.167 130,124.5C 128.647,125.685 127.48,127.019 126.5,128.5C 125.459,126.009 124.626,126.009 124,128.5C 123.333,127.167 122.667,127.167 122,128.5C 121,127.5 120,126.5 119,125.5C 118.333,126.833 117.667,126.833 117,125.5C 115.747,128.381 113.58,130.215 110.5,131C 117.355,131.673 123.522,134.173 129,138.5C 135.433,133.904 140.6,128.238 144.5,121.5C 148.758,106.299 148.425,91.2985 143.5,76.5C 143.834,73.509 142.834,71.1757 140.5,69.5C 139.377,65.0478 137.044,61.3811 133.5,58.5C 133.665,55.4816 133.498,52.4816 133,49.5C 129.612,44.9523 126.445,40.2856 123.5,35.5C 125.369,36.045 127.036,36.045 128.5,35.5 Z"/></g>
<g><path style="opacity:1" fill="#7a6c50" d="M 135.5,152.5 C 136.821,155.598 137.488,159.098 137.5,163C 137.333,166.5 137.167,170 137,173.5C 130.335,166.871 129.835,159.871 135.5,152.5 Z"/></g>
<g><path style="opacity:1" fill="#6e5f49" d="M 132.5,141.5 C 134.715,142.924 135.715,145.091 135.5,148C 135.691,149.973 135.024,151.473 133.5,152.5C 132.236,148.764 131.903,145.098 132.5,141.5 Z"/></g>
<g><path style="opacity:1" fill="#8d7c63" d="M 114.5,113.5 C 114.328,114.492 114.662,115.158 115.5,115.5C 113.539,117.963 111.372,120.297 109,122.5C 107.502,127.09 106.002,131.59 104.5,136C 103.517,136.591 102.85,136.257 102.5,135C 101.352,130.952 101.685,127.119 103.5,123.5C 103.369,124.239 103.536,124.906 104,125.5C 104.934,124.142 105.768,122.808 106.5,121.5C 106.369,122.239 106.536,122.906 107,123.5C 108.791,119.561 111.291,116.228 114.5,113.5 Z"/></g>
<g><path style="opacity:1" fill="#dfd0b5" d="M 69.5,124.5 C 74.772,125.4 80.1053,125.733 85.5,125.5C 88.0972,125.721 88.0972,126.221 85.5,127C 79.0344,127.919 72.7011,127.419 66.5,125.5C 65.8333,125.833 65.1667,126.167 64.5,126.5C 62.1373,131.783 61.9706,137.116 64,142.5C 74.5014,145.593 84.6681,144.593 94.5,139.5C 95.2975,139.957 95.6309,140.624 95.5,141.5C 91.7153,143.428 87.7153,144.762 83.5,145.5C 78.2032,146.275 72.8699,146.608 67.5,146.5C 65.1602,145.914 62.9935,144.914 61,143.5C 60.6904,135.164 60.857,126.83 61.5,118.5C 63.5412,118.854 65.3745,118.854 67,118.5C 69.7332,111.364 73.2332,104.698 77.5,98.5C 78.3091,96.7078 78.8091,94.7078 79,92.5C 79.6667,94.8333 79.6667,97.1667 79,99.5C 74.3959,106.705 70.8959,114.372 68.5,122.5C 68.5427,123.416 68.8761,124.083 69.5,124.5 Z"/></g>
<g><path style="opacity:1" fill="#63523a" d="M 85.5,125.5 C 80.1053,125.733 74.772,125.4 69.5,124.5C 74.7455,122.708 80.4121,121.874 86.5,122C 88.558,120.51 89.8913,118.51 90.5,116C 92.1341,115.506 93.8008,115.34 95.5,115.5C 95.6646,118.518 95.498,121.518 95,124.5C 93.7592,126.421 92.2592,126.754 90.5,125.5C 91.2135,123.189 92.2135,121.022 93.5,119C 91.193,118.729 90.0264,119.895 90,122.5C 88.3484,123.399 86.8484,124.399 85.5,125.5 Z"/></g>
<g><path style="opacity:1" fill="#d1c6b1" d="M 106.5,121.5 C 105.768,122.808 104.934,124.142 104,125.5C 103.536,124.906 103.369,124.239 103.5,123.5C 103.133,119.95 104.133,116.95 106.5,114.5C 107.714,116.859 107.714,119.192 106.5,121.5 Z"/></g>
<g><path style="opacity:1" fill="#726248" d="M 156.5,104.5 C 154.467,115.763 151.134,126.596 146.5,137C 146.57,137.765 146.903,138.265 147.5,138.5C 145.909,141.961 145.242,145.628 145.5,149.5C 144.5,149.5 143.5,149.5 142.5,149.5C 141.508,146.221 141.341,142.888 142,139.5C 144.187,131.096 147.02,123.096 150.5,115.5C 151.327,110.015 151.827,104.348 152,98.5C 152.172,103.202 152.672,107.868 153.5,112.5C 154.314,110.234 154.814,107.9 155,105.5C 155.383,104.944 155.883,104.611 156.5,104.5 Z"/></g>
<g><path style="opacity:1" fill="#a49171" d="M 143.5,76.5 C 148.425,91.2985 148.758,106.299 144.5,121.5C 143.883,121.611 143.383,121.944 143,122.5C 142.5,110.838 142.333,99.1714 142.5,87.5C 143.33,97.9921 143.83,108.659 144,119.5C 145.723,105.17 145.557,90.8364 143.5,76.5 Z"/></g>
<g><path style="opacity:1" fill="#79694c" d="M 141.5,84.5 C 142.404,85.209 142.737,86.209 142.5,87.5C 142.333,99.1714 142.5,110.838 143,122.5C 143.383,121.944 143.883,121.611 144.5,121.5C 140.6,128.238 135.433,133.904 129,138.5C 123.522,134.173 117.355,131.673 110.5,131C 113.58,130.215 115.747,128.381 117,125.5C 117.667,126.833 118.333,126.833 119,125.5C 120,126.5 121,127.5 122,128.5C 122.667,127.167 123.333,127.167 124,128.5C 124.626,126.009 125.459,126.009 126.5,128.5C 127.48,127.019 128.647,125.685 130,124.5C 130.333,125.167 130.667,125.833 131,126.5C 133.172,120.309 134.839,113.976 136,107.5C 138.442,104.952 140.108,101.952 141,98.5C 141.499,93.8452 141.666,89.1785 141.5,84.5 Z"/></g>
<g><path style="opacity:1" fill="#bba582" d="M 138.5,69.5 C 139.396,70.5063 140.062,70.5063 140.5,69.5C 142.834,71.1757 143.834,73.509 143.5,76.5C 145.557,90.8364 145.723,105.17 144,119.5C 143.83,108.659 143.33,97.9921 142.5,87.5C 142.737,86.209 142.404,85.209 141.5,84.5C 140.35,79.5596 139.35,74.5596 138.5,69.5 Z"/></g>
<g><path style="opacity:1" fill="#9f8c71" d="M 156.5,86.5 C 159.678,98.9562 158.845,111.29 154,123.5C 152.306,128.765 150.139,133.765 147.5,138.5C 146.903,138.265 146.57,137.765 146.5,137C 151.134,126.596 154.467,115.763 156.5,104.5C 156.689,98.7184 156.022,93.0517 154.5,87.5C 155.967,90.2583 156.633,89.925 156.5,86.5 Z"/></g>
<g><path style="opacity:1" fill="#d5c5aa" d="M 66.5,85.5 C 67.675,85.281 68.675,85.6143 69.5,86.5C 66.4778,87.0039 65.3111,88.6706 66,91.5C 69.2289,92.4032 72.0622,93.7366 74.5,95.5C 70.1606,96.1539 66.3273,95.1539 63,92.5C 62.1358,89.1871 63.3024,86.8537 66.5,85.5 Z"/></g>
<g><path style="opacity:1" fill="#62533b" d="M 149.5,77.5 C 152.209,80.2506 153.875,83.5839 154.5,87.5C 156.022,93.0517 156.689,98.7184 156.5,104.5C 155.883,104.611 155.383,104.944 155,105.5C 154.814,107.9 154.314,110.234 153.5,112.5C 152.672,107.868 152.172,103.202 152,98.5C 151.827,104.348 151.327,110.015 150.5,115.5C 150.259,107.139 150.592,98.8053 151.5,90.5C 151.003,87.1753 150.003,84.0086 148.5,81C 148.989,79.8615 149.322,78.6948 149.5,77.5 Z"/></g>
<g><path style="opacity:1" fill="#857358" d="M 78.5,82.5 C 75.1667,82.5 71.8333,82.5 68.5,82.5C 68.484,80.5159 69.484,79.5159 71.5,79.5C 74.1761,79.9394 76.5095,80.9394 78.5,82.5 Z"/></g>
<g><path style="opacity:1" fill="#b49f80" d="M 146.5,54.5 C 149.398,57.6278 152.732,60.2945 156.5,62.5C 153.5,63.1667 150.5,63.8333 147.5,64.5C 152.618,70.9741 155.618,78.3074 156.5,86.5C 156.633,89.925 155.967,90.2583 154.5,87.5C 153.875,83.5839 152.209,80.2506 149.5,77.5C 147.306,74.4456 145.639,71.1122 144.5,67.5C 143.181,63.8407 141.848,60.174 140.5,56.5C 140.833,56.1667 141.167,55.8333 141.5,55.5C 143.001,56.7515 144.668,57.7515 146.5,58.5C 146.07,57.2883 146.07,55.955 146.5,54.5 Z"/></g>
<g><path style="opacity:1" fill="#54442e" d="M 98.5,27.5 C 87.9926,32.1564 82.4926,40.1564 82,51.5C 83.7853,46.596 86.1186,41.9294 89,37.5C 92.6646,34.6005 96.1646,31.6005 99.5,28.5C 101.455,27.6765 103.455,27.5099 105.5,28C 103.253,29.2775 101.253,30.7775 99.5,32.5C 94.6217,34.5393 90.7883,37.8726 88,42.5C 84.3977,47.874 83.231,53.5407 84.5,59.5C 84.762,60.9778 84.4287,62.3112 83.5,63.5C 82.6922,61.5767 82.1922,59.5767 82,57.5C 81.7978,59.2556 81.2978,60.9223 80.5,62.5C 79.6786,59.5535 79.1786,56.5535 79,53.5C 78.4593,61.1816 78.6259,68.8483 79.5,76.5C 75.6397,76.9459 72.6397,75.6125 70.5,72.5C 71.0431,72.44 71.3764,72.1067 71.5,71.5C 64.8331,62.8417 62.4998,53.175 64.5,42.5C 65.1694,49.6805 66.6694,56.6805 69,63.5C 69.9354,66.5952 71.7687,68.9286 74.5,70.5C 74.7031,72.0443 75.3698,73.3777 76.5,74.5C 77.1667,75.8333 77.8333,75.8333 78.5,74.5C 73.2382,61.6823 73.4048,49.0156 79,36.5C 80.331,34.0038 82.1644,32.0038 84.5,30.5C 85.525,30.8966 85.6917,31.5632 85,32.5C 78.1909,40.1708 75.5243,49.1708 77,59.5C 77.5206,46.122 83.0206,35.4553 93.5,27.5C 96.5742,25.5289 99.9075,24.6956 103.5,25C 101.807,25.8466 100.14,26.6799 98.5,27.5 Z"/></g>
<g><path style="opacity:1" fill="#5f4f37" d="M 70.5,72.5 C 69.5768,73.3029 68.5768,73.4696 67.5,73C 66,71.5 64.5,70 63,68.5C 63.0773,69.7376 62.9106,70.7376 62.5,71.5C 61.4777,71.1445 60.811,70.4778 60.5,69.5C 61.0431,69.44 61.3764,69.1067 61.5,68.5C 58.6307,66.1046 57.464,63.1046 58,59.5C 59.1532,62.47 60.8199,65.1367 63,67.5C 61.9331,64.3212 61.0998,60.9879 60.5,57.5C 60.369,56.7611 60.5357,56.0944 61,55.5C 62.6253,62.0893 65.792,67.756 70.5,72.5 Z"/></g>
<g><path style="opacity:1" fill="#827152" d="M 119.5,56.5 C 128.17,57.6505 134.503,61.9838 138.5,69.5C 139.35,74.5596 140.35,79.5596 141.5,84.5C 141.265,91.3683 139.099,97.7017 135,103.5C 133.086,107.586 129.92,109.919 125.5,110.5C 135.751,100.251 138.251,88.2514 133,74.5C 130.541,65.713 125.041,59.8797 116.5,57C 117.448,56.5172 118.448,56.3505 119.5,56.5 Z"/></g>
<g><path style="opacity:1" fill="#79694e" d="M 132.5,42.5 C 136.12,44.285 138.953,46.9517 141,50.5C 141.399,50.2716 141.565,49.9382 141.5,49.5C 143.5,50.8333 145.167,52.5 146.5,54.5C 146.07,55.955 146.07,57.2883 146.5,58.5C 144.668,57.7515 143.001,56.7515 141.5,55.5C 141.167,55.8333 140.833,56.1667 140.5,56.5C 141.848,60.174 143.181,63.8407 144.5,67.5C 142.277,64.0892 139.777,60.7559 137,57.5C 136.202,55.7412 136.369,54.0745 137.5,52.5C 141.195,53.2514 141.028,52.5848 137,50.5C 135.677,47.6912 134.177,45.0245 132.5,42.5 Z"/></g>
<g><path style="opacity:1" fill="#bda683" d="M 119.5,56.5 C 118.448,56.3505 117.448,56.5172 116.5,57C 125.041,59.8797 130.541,65.713 133,74.5C 138.251,88.2514 135.751,100.251 125.5,110.5C 122.167,112.167 118.833,113.833 115.5,115.5C 114.662,115.158 114.328,114.492 114.5,113.5C 115.812,112.855 116.812,111.855 117.5,110.5C 112.125,108.904 107.458,110.071 103.5,114C 101.392,121.351 99.8917,128.851 99,136.5C 97.9055,138.078 97.0722,139.745 96.5,141.5C 96.1667,141.5 95.8333,141.5 95.5,141.5C 95.6309,140.624 95.2975,139.957 94.5,139.5C 84.6681,144.593 74.5014,145.593 64,142.5C 61.9706,137.116 62.1373,131.783 64.5,126.5C 65.1667,126.167 65.8333,125.833 66.5,125.5C 72.7011,127.419 79.0344,127.919 85.5,127C 88.0972,126.221 88.0972,125.721 85.5,125.5C 86.8484,124.399 88.3484,123.399 90,122.5C 90.0264,119.895 91.193,118.729 93.5,119C 92.2135,121.022 91.2135,123.189 90.5,125.5C 92.2592,126.754 93.7592,126.421 95,124.5C 95.498,121.518 95.6646,118.518 95.5,115.5C 93.8008,115.34 92.1341,115.506 90.5,116C 89.8913,118.51 88.558,120.51 86.5,122C 80.4121,121.874 74.7455,122.708 69.5,124.5C 68.8761,124.083 68.5427,123.416 68.5,122.5C 70.8959,114.372 74.3959,106.705 79,99.5C 79.6667,97.1667 79.6667,94.8333 79,92.5C 78.8091,94.7078 78.3091,96.7078 77.5,98.5C 77.6633,96.1432 77.4966,93.8098 77,91.5C 76.7996,93.3197 75.9663,94.653 74.5,95.5C 72.0622,93.7366 69.2289,92.4032 66,91.5C 65.3111,88.6706 66.4778,87.0039 69.5,86.5C 68.675,85.6143 67.675,85.281 66.5,85.5C 66.9321,84.2905 67.5987,83.2905 68.5,82.5C 71.8333,82.5 75.1667,82.5 78.5,82.5C 79.7079,83.2341 81.0413,83.5674 82.5,83.5C 82.2938,80.5049 82.9605,77.8383 84.5,75.5C 84.369,76.2389 84.5357,76.9056 85,77.5C 92.1636,62.8549 103.664,55.8549 119.5,56.5 Z"/></g>
<g><path style="opacity:1" fill="#8b7759" d="M 111.5,89.5 C 110.684,95.633 108.351,101.133 104.5,106C 100.642,106.81 96.9758,106.643 93.5,105.5C 94.7383,105.19 94.7383,104.69 93.5,104C 99.1434,104.728 103.643,102.895 107,98.5C 107.81,95.0546 109.31,92.0546 111.5,89.5 Z"/></g>
<g><path style="opacity:1" fill="#dfd0b4" d="M 110.5,78.5 C 110.838,81.3252 109.838,83.4918 107.5,85C 101.372,87.5635 95.7053,90.8968 90.5,95C 88.6131,95.7796 86.9464,95.6129 85.5,94.5C 85.3379,90.8226 86.3379,87.4892 88.5,84.5C 89.916,82.8608 91.5826,82.0275 93.5,82C 90.35,84.9501 88.35,88.4501 87.5,92.5C 93.7186,88.5589 100.385,85.3923 107.5,83C 108.781,81.5913 109.781,80.0913 110.5,78.5 Z"/></g>
<g><path style="opacity:1" fill="#433625" d="M 111.5,89.5 C 109.31,92.0546 107.81,95.0546 107,98.5C 103.643,102.895 99.1434,104.728 93.5,104C 94.7383,104.69 94.7383,105.19 93.5,105.5C 86.5715,103.293 83.4049,98.626 84,91.5C 84.2321,92.7375 84.7321,93.7375 85.5,94.5C 86.9464,95.6129 88.6131,95.7796 90.5,95C 95.7053,90.8968 101.372,87.5635 107.5,85C 109.838,83.4918 110.838,81.3252 110.5,78.5C 108.155,73.7051 108.988,73.3718 113,77.5C 113.167,78.6667 113.333,79.8333 113.5,81C 112.582,83.7607 111.916,86.5941 111.5,89.5 Z"/></g>
<g><path style="opacity:1" fill="#d4c9b6" d="M 98.5,92.5 C 100.811,93.961 100.811,95.7944 98.5,98C 96.2311,99.5576 93.8978,99.7243 91.5,98.5C 94.0912,96.7188 96.4245,94.7188 98.5,92.5 Z"/></g>
<g><path style="opacity:1" fill="#dfd0b7" d="M 110.5,53.5 C 113.5,53.5 116.5,53.5 119.5,53.5C 120.5,53.5 121.5,53.5 122.5,53.5C 124.028,54.3092 125.694,54.9759 127.5,55.5C 129.426,56.4861 131.426,57.4861 133.5,58.5C 137.044,61.3811 139.377,65.0478 140.5,69.5C 140.062,70.5063 139.396,70.5063 138.5,69.5C 134.503,61.9838 128.17,57.6505 119.5,56.5C 103.664,55.8549 92.1636,62.8549 85,77.5C 84.5357,76.9056 84.369,76.2389 84.5,75.5C 89.2173,63.4458 97.8839,56.1125 110.5,53.5 Z"/></g>
<g><path style="opacity:1" fill="#7f6f53" d="M 71.5,45.5 C 71.0423,54.051 72.0423,62.3843 74.5,70.5C 71.7687,68.9286 69.9354,66.5952 69,63.5C 66.6694,56.6805 65.1694,49.6805 64.5,42.5C 62.4998,53.175 64.8331,62.8417 71.5,71.5C 71.3764,72.1067 71.0431,72.44 70.5,72.5C 65.792,67.756 62.6253,62.0893 61,55.5C 60.5357,56.0944 60.369,56.7611 60.5,57.5C 59.0123,51.8871 59.679,46.3871 62.5,41C 62.1639,39.9701 61.4972,39.4701 60.5,39.5C 62.7667,36.1938 65.7667,34.8605 69.5,35.5C 66.7804,42.2141 66.9471,48.8807 70,55.5C 70.1787,51.9748 70.6787,48.6414 71.5,45.5 Z"/></g>
<g><path style="opacity:1" fill="#756855" d="M 119.5,43.5 C 119.5,46.8333 119.5,50.1667 119.5,53.5C 116.5,53.5 113.5,53.5 110.5,53.5C 112.948,52.5269 115.615,52.1936 118.5,52.5C 118.19,49.2869 118.523,46.2869 119.5,43.5 Z"/></g>
<g><path style="opacity:1" fill="#a89678" d="M 60.5,39.5 C 61.4972,39.4701 62.1639,39.9701 62.5,41C 59.679,46.3871 59.0123,51.8871 60.5,57.5C 61.0998,60.9879 61.9331,64.3212 63,67.5C 60.8199,65.1367 59.1532,62.47 58,59.5C 57.464,63.1046 58.6307,66.1046 61.5,68.5C 61.3764,69.1067 61.0431,69.44 60.5,69.5C 56.5475,65.7428 54.3808,61.0762 54,55.5C 53.6799,58.5399 53.6799,61.5399 54,64.5C 50.3521,54.5293 52.5187,46.1959 60.5,39.5 Z"/></g>
<g><path style="opacity:1" fill="#4b3e2b" d="M 127.5,55.5 C 125.694,54.9759 124.028,54.3092 122.5,53.5C 122.176,49.4454 122.509,45.4454 123.5,41.5C 127.013,44.1698 129.013,47.6698 129.5,52C 129.392,53.6811 128.725,54.8478 127.5,55.5 Z"/></g>
<g><path style="opacity:1" fill="#786852" d="M 113.5,44.5 C 115.71,45.4551 116.043,46.9551 114.5,49C 112.17,50.3454 109.837,50.5121 107.5,49.5C 109.544,47.7806 111.544,46.1139 113.5,44.5 Z"/></g>
<g><path style="opacity:1" fill="#7e6e52" d="M 106.5,36.5 C 103.781,39.9017 100.614,42.9017 97,45.5C 94.2266,49.8155 92.2266,54.4821 91,59.5C 89.6667,60.8333 88.3333,62.1667 87,63.5C 86.1376,55.2384 88.6376,48.2384 94.5,42.5C 92.7474,45.256 91.9141,48.256 92,51.5C 95.0151,44.6529 99.8484,39.6529 106.5,36.5 Z"/></g>
<g><path style="opacity:1" fill="#7b6b51" d="M 93.5,27.5 C 83.0206,35.4553 77.5206,46.122 77,59.5C 75.5243,49.1708 78.1909,40.1708 85,32.5C 85.6917,31.5632 85.525,30.8966 84.5,30.5C 86.693,28.4787 89.193,26.8121 92,25.5C 92.9654,25.9296 93.4654,26.5963 93.5,27.5 Z"/></g>
<g><path style="opacity:1" fill="#796850" d="M 99.5,32.5 C 97.2294,34.2659 95.0627,36.2659 93,38.5C 92.3083,39.4368 92.475,40.1034 93.5,40.5C 88.0971,45.6412 85.0971,51.9745 84.5,59.5C 83.231,53.5407 84.3977,47.874 88,42.5C 90.7883,37.8726 94.6217,34.5393 99.5,32.5 Z"/></g>
<g><path style="opacity:1" fill="#aa987c" d="M 128.5,35.5 C 134.241,38.9057 138.574,43.5724 141.5,49.5C 141.565,49.9382 141.399,50.2716 141,50.5C 138.953,46.9517 136.12,44.285 132.5,42.5C 130.666,40.4946 128.999,38.3279 127.5,36C 127.728,35.6012 128.062,35.4346 128.5,35.5 Z"/></g>
<g><path style="opacity:1" fill="#73634b" d="M 113.5,39.5 C 114.5,39.5 115.5,39.5 116.5,39.5C 116.5,40.5 116.5,41.5 116.5,42.5C 111.682,43.7005 107.348,45.5338 103.5,48C 106.438,44.5513 109.771,41.718 113.5,39.5 Z"/></g>
<g><path style="opacity:1" fill="#6e6046" d="M 116.5,31.5 C 117.5,31.5 118.5,31.5 119.5,31.5C 119.617,33.4835 118.95,35.1502 117.5,36.5C 108.904,39.5512 102.07,44.8845 97,52.5C 96.3333,51.5 96.3333,50.5 97,49.5C 100.603,43.8961 105.437,39.7294 111.5,37C 110.552,36.5172 109.552,36.3505 108.5,36.5C 111.725,35.3503 115.058,34.1836 118.5,33C 117.584,32.7216 116.918,32.2216 116.5,31.5 Z"/></g>
<g><path style="opacity:1" fill="#ab987a" d="M 123.5,35.5 C 126.445,40.2856 129.612,44.9523 133,49.5C 133.498,52.4816 133.665,55.4816 133.5,58.5C 131.426,57.4861 129.426,56.4861 127.5,55.5C 128.725,54.8478 129.392,53.6811 129.5,52C 129.013,47.6698 127.013,44.1698 123.5,41.5C 122.509,45.4454 122.176,49.4454 122.5,53.5C 121.5,53.5 120.5,53.5 119.5,53.5C 119.5,50.1667 119.5,46.8333 119.5,43.5C 119.829,40.1733 121.163,37.5066 123.5,35.5 Z"/></g>
<g><path style="opacity:1" fill="#b39e7d" d="M 116.5,31.5 C 116.918,32.2216 117.584,32.7216 118.5,33C 115.058,34.1836 111.725,35.3503 108.5,36.5C 107.833,36.5 107.167,36.5 106.5,36.5C 99.8484,39.6529 95.0151,44.6529 92,51.5C 91.9141,48.256 92.7474,45.256 94.5,42.5C 97,39.1675 100,36.3342 103.5,34C 99.5715,35.0669 96.2381,37.2336 93.5,40.5C 92.475,40.1034 92.3083,39.4368 93,38.5C 95.0627,36.2659 97.2294,34.2659 99.5,32.5C 101.253,30.7775 103.253,29.2775 105.5,28C 103.455,27.5099 101.455,27.6765 99.5,28.5C 98.8333,28.5 98.5,28.1667 98.5,27.5C 100.14,26.6799 101.807,25.8466 103.5,25C 99.9075,24.6956 96.5742,25.5289 93.5,27.5C 93.4654,26.5963 92.9654,25.9296 92,25.5C 89.193,26.8121 86.693,28.4787 84.5,30.5C 82.1644,32.0038 80.331,34.0038 79,36.5C 73.4048,49.0156 73.2382,61.6823 78.5,74.5C 77.8333,75.8333 77.1667,75.8333 76.5,74.5C 75.3698,73.3777 74.7031,72.0443 74.5,70.5C 72.0423,62.3843 71.0423,54.051 71.5,45.5C 77.0266,22.8971 91.0266,15.0637 113.5,22C 116.5,23.8333 119.5,25.6667 122.5,27.5C 119.633,28.7741 116.633,29.6075 113.5,30C 113.167,30.3333 112.833,30.6667 112.5,31C 113.793,31.49 115.127,31.6567 116.5,31.5 Z"/></g>
<g><path style="opacity:1" fill="#7e6d52" d="M 98.5,27.5 C 98.5,28.1667 98.8333,28.5 99.5,28.5C 96.1646,31.6005 92.6646,34.6005 89,37.5C 86.1186,41.9294 83.7853,46.596 82,51.5C 82.4926,40.1564 87.9926,32.1564 98.5,27.5 Z"/></g>
<g><path style="opacity:1" fill="#64573e" d="M 113.5,283.5 C 113.937,281.926 114.937,280.759 116.5,280C 118.942,279.06 121.275,277.894 123.5,276.5C 123.167,276.167 122.833,275.833 122.5,275.5C 119.971,276.96 117.304,277.46 114.5,277C 117.167,276.333 117.167,275.667 114.5,275C 115.167,274.667 115.833,274.333 116.5,274C 114.833,273.667 113.167,273.333 111.5,273C 112.737,272.768 113.737,272.268 114.5,271.5C 116.894,270.985 119.228,270.319 121.5,269.5C 121.917,270.124 122.584,270.457 123.5,270.5C 126.13,269.622 128.797,268.955 131.5,268.5C 131.235,272.13 129.902,275.297 127.5,278C 122.736,279.751 118.07,281.585 113.5,283.5 Z"/></g>
<g><path style="opacity:1" fill="#695a41" d="M 49.5,269.5 C 53.3427,271.086 57.3427,272.086 61.5,272.5C 62.1667,272.5 62.8333,272.5 63.5,272.5C 64.6085,273.29 65.9419,273.79 67.5,274C 79.1619,274.5 90.8286,274.667 102.5,274.5C 97.6152,276.007 91.2819,276.674 83.5,276.5C 75.4307,276.492 67.4307,275.825 59.5,274.5C 59.33,275.822 59.6634,276.989 60.5,278C 59.6753,279.688 58.6753,279.855 57.5,278.5C 55.556,279.189 53.556,279.689 51.5,280C 52.8584,280.934 54.1917,281.768 55.5,282.5C 46.3946,281.972 41.0613,277.305 39.5,268.5C 42.2035,268.955 44.8702,269.622 47.5,270.5C 48.4164,270.457 49.0831,270.124 49.5,269.5 Z"/></g>
<g><path style="opacity:1" fill="#7d6d4f" d="M 114.5,271.5 C 113.737,272.268 112.737,272.768 111.5,273C 113.167,273.333 114.833,273.667 116.5,274C 115.833,274.333 115.167,274.667 114.5,275C 117.167,275.667 117.167,276.333 114.5,277C 117.304,277.46 119.971,276.96 122.5,275.5C 122.833,275.833 123.167,276.167 123.5,276.5C 121.275,277.894 118.942,279.06 116.5,280C 114.937,280.759 113.937,281.926 113.5,283.5C 99.3786,286.798 85.0453,288.298 70.5,288C 73.1209,288.939 75.7875,289.772 78.5,290.5C 78.0431,291.298 77.3764,291.631 76.5,291.5C 71.7382,290.441 67.0716,289.108 62.5,287.5C 64.924,287.808 67.2573,287.474 69.5,286.5C 64.5544,285.735 59.8877,284.402 55.5,282.5C 54.1917,281.768 52.8584,280.934 51.5,280C 53.556,279.689 55.556,279.189 57.5,278.5C 58.6753,279.855 59.6753,279.688 60.5,278C 59.6634,276.989 59.33,275.822 59.5,274.5C 67.4307,275.825 75.4307,276.492 83.5,276.5C 91.2819,276.674 97.6152,276.007 102.5,274.5C 103.5,273.833 104.5,273.167 105.5,272.5C 106.5,272.5 107.5,272.5 108.5,272.5C 110.435,271.85 112.435,271.517 114.5,271.5 Z"/></g>
<g><path style="opacity:1" fill="#bca583" d="M 119.5,284.5 C 121.523,286.837 123.523,289.17 125.5,291.5C 123.004,295.151 119.671,297.984 115.5,300C 115.728,300.399 116.062,300.565 116.5,300.5C 107.199,302.332 97.866,302.665 88.5,301.5C 97.2089,292.773 107.542,287.107 119.5,284.5 Z"/></g>
<g><path style="opacity:1" fill="#7b746a" d="M 22.5,288.5 C 20.3835,290.6 18.7169,292.933 17.5,295.5C 17.2407,291.763 18.9074,289.43 22.5,288.5 Z"/></g>
<g><path style="opacity:1" fill="#bba583" d="M 51.5,284.5 C 54.9861,286.106 58.6528,287.106 62.5,287.5C 67.0716,289.108 71.7382,290.441 76.5,291.5C 69.5613,293.971 62.8946,296.971 56.5,300.5C 56.1667,300.5 55.8333,300.5 55.5,300.5C 52.7581,298.95 50.0914,297.117 47.5,295C 46.5697,293.806 45.9031,292.473 45.5,291C 47.6867,288.981 49.6867,286.814 51.5,284.5 Z"/></g>
<g><path style="opacity:1" fill="#ddcfb5" d="M 51.5,284.5 C 49.6867,286.814 47.6867,288.981 45.5,291C 45.9031,292.473 46.5697,293.806 47.5,295C 50.0914,297.117 52.7581,298.95 55.5,300.5C 54.1667,300.5 52.8333,300.5 51.5,300.5C 48.7294,300.579 46.0627,300.079 43.5,299C 44.8333,298.667 46.1667,298.333 47.5,298C 45.34,296.668 43.34,295.168 41.5,293.5C 40.478,292.108 40.8113,290.775 42.5,289.5C 44.7974,286.529 47.7974,284.862 51.5,284.5 Z"/></g>
<g><path style="opacity:1" fill="#b19d7d" d="M 76.5,300.5 C 71.7924,303.159 67.1257,303.159 62.5,300.5C 69.9863,297.09 77.4863,293.757 85,290.5C 85.8333,290.667 86.6667,290.833 87.5,291C 83.641,294.032 79.9743,297.198 76.5,300.5 Z"/></g>
<g><path style="opacity:1" fill="#e4d7bd" d="M 119.5,284.5 C 124.889,285.393 128.056,288.393 129,293.5C 127.855,294.636 126.688,295.636 125.5,296.5C 123.227,296.957 121.894,298.29 121.5,300.5C 120.833,300.5 120.167,300.5 119.5,300.5C 118.5,300.5 117.5,300.5 116.5,300.5C 116.062,300.565 115.728,300.399 115.5,300C 119.671,297.984 123.004,295.151 125.5,291.5C 123.523,289.17 121.523,286.837 119.5,284.5 Z"/></g>
<g><path style="opacity:1" fill="#897d67" d="M 136.5,295.5 C 136.938,295.435 137.272,295.601 137.5,296C 136.672,296.915 135.672,297.581 134.5,298C 130.147,298.836 125.813,299.669 121.5,300.5C 121.894,298.29 123.227,296.957 125.5,296.5C 126.097,297.139 126.93,297.472 128,297.5C 130.731,296.383 133.565,295.717 136.5,295.5 Z"/></g>
<g><path style="opacity:1" fill="#60533c" d="M 135.5,310.5 C 133.708,309.691 131.708,309.191 129.5,309C 132.167,308 132.167,307 129.5,306C 131.087,305.138 132.754,304.471 134.5,304C 135.833,303.333 135.833,302.667 134.5,302C 136.421,301.64 138.088,300.806 139.5,299.5C 136.26,298.351 133.427,299.018 131,301.5C 130.439,300.978 129.772,300.645 129,300.5C 128.749,301.986 127.415,302.986 125,303.5C 123.281,302.131 121.448,301.131 119.5,300.5C 120.167,300.5 120.833,300.5 121.5,300.5C 125.813,299.669 130.147,298.836 134.5,298C 135.672,297.581 136.672,296.915 137.5,296C 137.272,295.601 136.938,295.435 136.5,295.5C 138.225,294.095 140.225,293.595 142.5,294C 141.167,295 139.833,296 138.5,297C 141.413,296.71 144.413,296.543 147.5,296.5C 147.806,300.747 147.139,304.747 145.5,308.5C 142.061,308.788 138.728,309.454 135.5,310.5 Z"/></g>
<g><path style="opacity:1" fill="#675941" d="M 41.5,293.5 C 43.34,295.168 45.34,296.668 47.5,298C 46.1667,298.333 44.8333,298.667 43.5,299C 46.0627,300.079 48.7294,300.579 51.5,300.5C 49.9812,301.41 48.3146,302.243 46.5,303C 47.624,303.249 48.624,303.749 49.5,304.5C 41.464,306.681 41.1307,308.515 48.5,310C 46.5,310.333 44.5,310.667 42.5,311C 44.7078,311.191 46.7078,311.691 48.5,312.5C 41.2739,312.427 34.2739,311.093 27.5,308.5C 24.1684,304.835 22.8351,300.502 23.5,295.5C 28.0354,297.008 32.7021,298.342 37.5,299.5C 38.5,299.333 39.5,299.167 40.5,299C 36.825,298.443 33.4917,297.11 30.5,295C 33.4896,295.152 36.4896,295.652 39.5,296.5C 40.5,296.333 41.5,296.167 42.5,296C 41.7476,295.329 41.4142,294.496 41.5,293.5 Z"/></g>
<g><path style="opacity:1" fill="#7d6d4f" d="M 51.5,300.5 C 52.8333,300.5 54.1667,300.5 55.5,300.5C 55.8333,300.5 56.1667,300.5 56.5,300.5C 54.754,301.001 53.754,301.668 53.5,302.5C 73.9575,306.119 94.6242,306.453 115.5,303.5C 117.167,303.833 118.833,304.167 120.5,304.5C 120.167,305.167 119.833,305.833 119.5,306.5C 125.968,308.248 125.635,309.415 118.5,310C 117.748,310.671 117.414,311.504 117.5,312.5C 116.737,313.268 115.737,313.768 114.5,314C 94.8333,314.667 75.1667,314.667 55.5,314C 52.9644,313.814 50.631,313.314 48.5,312.5C 46.7078,311.691 44.7078,311.191 42.5,311C 44.5,310.667 46.5,310.333 48.5,310C 41.1307,308.515 41.464,306.681 49.5,304.5C 48.624,303.749 47.624,303.249 46.5,303C 48.3146,302.243 49.9812,301.41 51.5,300.5 Z"/></g>
<g><path style="opacity:1" fill="#6e5f45" d="M 135.5,310.5 C 129.654,312.155 123.654,312.822 117.5,312.5C 117.414,311.504 117.748,310.671 118.5,310C 125.635,309.415 125.968,308.248 119.5,306.5C 119.833,305.833 120.167,305.167 120.5,304.5C 118.833,304.167 117.167,303.833 115.5,303.5C 94.6242,306.453 73.9575,306.119 53.5,302.5C 56.8555,302.909 59.8555,302.242 62.5,300.5C 67.1257,303.159 71.7924,303.159 76.5,300.5C 76.5,301.5 76.5,302.5 76.5,303.5C 80.7416,303.849 84.7416,303.183 88.5,301.5C 97.866,302.665 107.199,302.332 116.5,300.5C 117.5,300.5 118.5,300.5 119.5,300.5C 121.448,301.131 123.281,302.131 125,303.5C 127.415,302.986 128.749,301.986 129,300.5C 129.772,300.645 130.439,300.978 131,301.5C 133.427,299.018 136.26,298.351 139.5,299.5C 138.088,300.806 136.421,301.64 134.5,302C 135.833,302.667 135.833,303.333 134.5,304C 132.754,304.471 131.087,305.138 129.5,306C 132.167,307 132.167,308 129.5,309C 131.708,309.191 133.708,309.691 135.5,310.5 Z"/></g>
<g><path style="opacity:1" fill="#b8b3ac" d="M 151.5,312.5 C 149.967,314.245 147.967,315.245 145.5,315.5C 147.033,313.755 149.033,312.755 151.5,312.5 Z"/></g>
<g><path style="opacity:1" fill="#9e978e" d="M 133.5,317.5 C 130.155,319.217 126.489,319.884 122.5,319.5C 125.974,318.475 129.64,317.808 133.5,317.5 Z"/></g>
<g><path style="opacity:1" fill="#8d8780" d="M 35.5,317.5 C 55.7143,320.519 76.0476,321.853 96.5,321.5C 75.9482,323.631 55.6148,322.297 35.5,317.5 Z"/></g>
<g><path style="opacity:1" fill="#8e897e" d="M 121.5,319.5 C 115.072,321.126 108.405,321.793 101.5,321.5C 107.979,320.402 114.646,319.735 121.5,319.5 Z"/></g>
</svg>
