<?xml version="1.0" encoding="UTF-8"?>
<!DOCTYPE svg PUBLIC "-//W3C//DTD SVG 1.1//EN" "http://www.w3.org/Graphics/SVG/1.1/DTD/svg11.dtd">
<svg xmlns="http://www.w3.org/2000/svg" version="1.1" width="218px" height="310px" style="shape-rendering:geometricPrecision; text-rendering:geometricPrecision; image-rendering:optimizeQuality; fill-rule:evenodd; clip-rule:evenodd" xmlns:xlink="http://www.w3.org/1999/xlink">
<g><path style="opacity:1" fill="#fdfdfd" d="M -0.5,-0.5 C 72.1667,-0.5 144.833,-0.5 217.5,-0.5C 217.5,102.833 217.5,206.167 217.5,309.5C 144.833,309.5 72.1667,309.5 -0.5,309.5C -0.5,206.167 -0.5,102.833 -0.5,-0.5 Z"/></g>
<g><path style="opacity:1" fill="#bfbbb2" d="M 109.5,2.5 C 111.134,1.83891 112.967,1.50558 115,1.5C 117.295,1.5465 119.129,2.21317 120.5,3.5C 120.167,3.5 119.833,3.5 119.5,3.5C 116.609,2.59748 113.609,2.26414 110.5,2.5C 110.167,2.5 109.833,2.5 109.5,2.5 Z"/></g>
<g><path style="opacity:1" fill="#352d1f" d="M 110.5,2.5 C 113.609,2.26414 116.609,2.59748 119.5,3.5C 116.36,4.64084 113.027,4.8075 109.5,4C 110.056,3.61742 110.389,3.11742 110.5,2.5 Z"/></g>
<g><path style="opacity:1" fill="#8d8981" d="M 81.5,27.5 C 81.573,29.0269 80.9063,30.0269 79.5,30.5C 79.427,28.9731 80.0937,27.9731 81.5,27.5 Z"/></g>
<g><path style="opacity:1" fill="#837d74" d="M 148.5,30.5 C 150.074,32.1016 150.741,34.1016 150.5,36.5C 148.926,34.8984 148.259,32.8984 148.5,30.5 Z"/></g>
<g><path style="opacity:1" fill="#584934" d="M 109.5,2.5 C 109.833,2.5 110.167,2.5 110.5,2.5C 110.389,3.11742 110.056,3.61742 109.5,4C 113.027,4.8075 116.36,4.64084 119.5,3.5C 119.833,3.5 120.167,3.5 120.5,3.5C 120.833,4.16667 121.167,4.83333 121.5,5.5C 120.5,5.5 119.5,5.5 118.5,5.5C 118.5,6.5 118.5,7.5 118.5,8.5C 120.483,8.15684 121.817,8.82351 122.5,10.5C 121.275,11.1522 120.608,12.3189 120.5,14C 120.917,16.4979 121.251,18.9979 121.5,21.5C 122.815,26.7108 123.482,32.0441 123.5,37.5C 129.591,36.4547 135.258,34.288 140.5,31C 141.252,30.3292 141.586,29.4959 141.5,28.5C 142.74,29.6588 144.074,30.6588 145.5,31.5C 143.62,31.2291 142.287,31.8958 141.5,33.5C 136.7,34.8163 132.2,36.8163 128,39.5C 126.45,39.9505 124.95,40.1171 123.5,40C 122.335,33.2795 120.669,26.7795 118.5,20.5C 118.81,17.2869 118.477,14.2869 117.5,11.5C 117.795,9.26465 117.461,7.26465 116.5,5.5C 114.833,5.5 113.167,5.5 111.5,5.5C 110.518,8.96192 110.185,12.6286 110.5,16.5C 110.167,16.5 109.833,16.5 109.5,16.5C 109.5,12.8333 109.5,9.16667 109.5,5.5C 107.089,5.13673 105.589,6.13673 105,8.5C 103.224,7.46392 101.391,7.46392 99.5,8.5C 102.662,6.32227 105.995,4.32227 109.5,2.5 Z"/></g>
<g><path style="opacity:1" fill="#584e3f" d="M 186.5,57.5 C 185.833,57.1667 185.167,56.8333 184.5,56.5C 180.919,51.9015 177.253,47.2348 173.5,42.5C 167.4,47.9273 163.4,54.594 161.5,62.5C 161.5,63.1667 161.5,63.8333 161.5,64.5C 162.244,68.1185 162.577,71.7852 162.5,75.5C 161.71,74.3915 161.21,73.0581 161,71.5C 160.51,72.7932 160.343,74.1266 160.5,75.5C 159.043,70.402 158.376,65.0687 158.5,59.5C 160.929,55.7778 163.096,51.7778 165,47.5C 167.44,44.279 170.106,41.279 173,38.5C 178.962,43.7443 183.462,50.0776 186.5,57.5 Z"/></g>
<g><path style="opacity:1" fill="#eadbc2" d="M 184.5,56.5 C 184.833,58.5 185.167,60.5 185.5,62.5C 184.5,63.1667 183.5,63.8333 182.5,64.5C 180.122,60.7533 177.955,56.7533 176,52.5C 174.604,50.4732 172.938,50.1398 171,51.5C 168.91,55.9811 166.743,60.3144 164.5,64.5C 163.5,63.8333 162.5,63.1667 161.5,62.5C 163.4,54.594 167.4,47.9273 173.5,42.5C 177.253,47.2348 180.919,51.9015 184.5,56.5 Z"/></g>
<g><path style="opacity:1" fill="#bca683" d="M 182.5,64.5 C 179.498,67.8425 176.498,71.1758 173.5,74.5C 171.931,73.286 171.098,71.6193 171,69.5C 170.586,69.9574 170.086,70.2907 169.5,70.5C 167.81,68.4807 166.144,66.4807 164.5,64.5C 166.743,60.3144 168.91,55.9811 171,51.5C 172.938,50.1398 174.604,50.4732 176,52.5C 177.955,56.7533 180.122,60.7533 182.5,64.5 Z"/></g>
<g><path style="opacity:1" fill="#d5d1ce" d="M 150.5,61.5 C 150.665,64.8499 150.498,68.1832 150,71.5C 149.764,73.1193 148.931,74.1193 147.5,74.5C 148.599,70.0695 149.599,65.7362 150.5,61.5 Z"/></g>
<g><path style="opacity:1" fill="#bca784" d="M 165.5,69.5 C 171.88,73.3877 174.213,79.0544 172.5,86.5C 170.583,87.9093 168.75,89.576 167,91.5C 165.814,84.2141 165.314,76.8807 165.5,69.5 Z"/></g>
<g><path style="opacity:1" fill="#bcab89" d="M 182.5,67.5 C 182.663,69.8568 182.497,72.1902 182,74.5C 179.295,77.0362 176.795,79.7029 174.5,82.5C 174.337,80.1432 174.503,77.8098 175,75.5C 177.733,72.9375 180.233,70.2709 182.5,67.5 Z"/></g>
<g><path style="opacity:1" fill="#c2bcb6" d="M 187.5,59.5 C 188.165,62.3138 188.498,65.3138 188.5,68.5C 188.483,71.9134 187.816,74.9134 186.5,77.5C 186.833,71.5 187.167,65.5 187.5,59.5 Z"/></g>
<g><path style="opacity:1" fill="#dcd8d2" d="M 158.5,59.5 C 158.376,65.0687 159.043,70.402 160.5,75.5C 160.5,81.1667 160.5,86.8333 160.5,92.5C 155.222,92.3585 150.888,90.3585 147.5,86.5C 151.332,87.7148 154.999,89.3814 158.5,91.5C 158.319,80.7207 158.319,70.0541 158.5,59.5 Z"/></g>
<g><path style="opacity:1" fill="#c2ae8c" d="M 174.5,96.5 C 174.5,94.5 174.5,92.5 174.5,90.5C 176.479,89.1879 178.145,87.5212 179.5,85.5C 180.631,87.0745 180.798,88.7412 180,90.5C 177.932,92.3962 176.099,94.3962 174.5,96.5 Z"/></g>
<g><path style="opacity:1" fill="#433626" d="M 109.5,16.5 C 109.5,17.8333 109.5,19.1667 109.5,20.5C 108.503,20.5299 107.836,20.0299 107.5,19C 108.71,15.8256 108.71,12.659 107.5,9.5C 106.893,9.62358 106.56,9.95691 106.5,10.5C 100.121,12.2023 95.121,15.869 91.5,21.5C 89.2893,23.561 87.6227,26.061 86.5,29C 88.4044,31.2968 90.7378,33.1301 93.5,34.5C 93.44,35.0431 93.1067,35.3764 92.5,35.5C 90.2612,34.2122 87.9279,33.2122 85.5,32.5C 84.8333,31.1667 84.1667,31.1667 83.5,32.5C 81.2716,36.2424 80.9383,40.2424 82.5,44.5C 90.5672,50.6997 99.5672,55.0331 109.5,57.5C 110.275,59.3881 110.275,61.3881 109.5,63.5C 107.585,63.2155 105.919,63.5489 104.5,64.5C 102.5,64.5 100.5,64.5 98.5,64.5C 96.8546,63.5213 95.5213,62.188 94.5,60.5C 93.4455,65.6887 93.7788,70.6887 95.5,75.5C 95.6602,77.1992 95.4935,78.8659 95,80.5C 94.6667,80.1667 94.3333,79.8333 94,79.5C 93.7141,75.061 92.5474,70.8944 90.5,67C 91.1383,63.4595 91.4717,59.9595 91.5,56.5C 91.363,54.8927 90.6964,53.5594 89.5,52.5C 87.8067,63.8965 88.9734,75.2298 93,86.5C 95.6902,88.0269 97.8568,90.0269 99.5,92.5C 100.974,95.2485 102.974,97.5818 105.5,99.5C 106.209,100.404 107.209,100.737 108.5,100.5C 112.211,101.884 115.877,101.718 119.5,100C 120.126,99.2496 120.626,98.4162 121,97.5C 121.423,98.9561 122.256,99.4561 123.5,99C 127.013,96.1378 129.68,92.6378 131.5,88.5C 135.6,87.4395 137.267,84.9395 136.5,81C 137.126,80.2496 137.626,79.4162 138,78.5C 139.406,70.0431 139.74,61.7098 139,53.5C 138.333,54.1667 137.667,54.8333 137,55.5C 136.73,59.1105 136.896,62.7772 137.5,66.5C 135.985,68.5473 135.151,70.8807 135,73.5C 135.102,69.0442 134.268,65.0442 132.5,61.5C 131.662,61.1583 131.328,60.4916 131.5,59.5C 131.38,58.4138 130.713,57.7472 129.5,57.5C 127.028,58.9917 124.361,59.6584 121.5,59.5C 118.642,61.1241 117.975,60.4574 119.5,57.5C 128.47,53.9432 137.137,49.6098 145.5,44.5C 146.787,40.9351 146.787,37.2684 145.5,33.5C 145.5,32.8333 145.5,32.1667 145.5,31.5C 144.074,30.6588 142.74,29.6588 141.5,28.5C 141.5,27.8333 141.167,27.5 140.5,27.5C 139.649,25.1184 138.316,23.1184 136.5,21.5C 136.068,20.2905 135.401,19.2905 134.5,18.5C 131.188,14.8412 127.188,12.1745 122.5,10.5C 121.817,8.82351 120.483,8.15684 118.5,8.5C 118.5,7.5 118.5,6.5 118.5,5.5C 119.5,5.5 120.5,5.5 121.5,5.5C 134.009,10.0074 143.009,18.3407 148.5,30.5C 148.259,32.8984 148.926,34.8984 150.5,36.5C 150.5,44.8333 150.5,53.1667 150.5,61.5C 149.599,65.7362 148.599,70.0695 147.5,74.5C 142.167,78.5 142.167,82.5 147.5,86.5C 150.888,90.3585 155.222,92.3585 160.5,92.5C 160.5,86.8333 160.5,81.1667 160.5,75.5C 160.343,74.1266 160.51,72.7932 161,71.5C 161.21,73.0581 161.71,74.3915 162.5,75.5C 163.118,82.8174 163.451,90.1507 163.5,97.5C 163.813,101.042 163.479,104.375 162.5,107.5C 162.371,105.784 162.038,104.117 161.5,102.5C 161.5,101.5 161.5,100.5 161.5,99.5C 159.91,97.179 157.577,96.179 154.5,96.5C 150.719,101.421 145.719,104.587 139.5,106C 135.5,110.333 131.5,114.667 127.5,119C 118.438,122.303 109.438,122.303 100.5,119C 97.2019,114.7 93.5352,110.7 89.5,107C 82.9434,105.231 77.6101,101.731 73.5,96.5C 71.8008,96.3398 70.1341,96.5065 68.5,97C 67.244,97.4169 66.5774,98.2502 66.5,99.5C 67.1098,100.391 67.4431,101.391 67.5,102.5C 70.305,103.065 72.9717,104.065 75.5,105.5C 76.2899,106.794 77.2899,107.961 78.5,109C 82.1887,110.844 85.8553,112.678 89.5,114.5C 91.1475,116.326 93.1475,117.66 95.5,118.5C 96.3207,123.283 96.9874,128.283 97.5,133.5C 97.5,136.5 97.5,139.5 97.5,142.5C 98.5,142.5 99.5,142.5 100.5,142.5C 101.211,144.03 102.211,145.363 103.5,146.5C 101.559,146.869 99.7255,147.536 98,148.5C 97.1691,155.192 97.3358,161.858 98.5,168.5C 99.1906,171.353 100.524,173.853 102.5,176C 101.833,176.667 101.167,176.667 100.5,176C 99.7894,174.745 98.956,173.579 98,172.5C 97.3333,174.5 97.3333,176.5 98,178.5C 99.8121,179.977 101.645,181.31 103.5,182.5C 100.833,182.5 98.1667,182.5 95.5,182.5C 95.5957,176.016 95.9291,169.516 96.5,163C 96.3557,158.79 95.8557,154.624 95,150.5C 94.8321,160.184 94.3321,169.851 93.5,179.5C 92.8165,179.863 92.1499,180.196 91.5,180.5C 91.4614,179.244 91.9614,178.244 93,177.5C 93.8288,158.662 93.6622,139.995 92.5,121.5C 89.1667,119.833 85.8333,118.167 82.5,116.5C 79.9922,114.076 76.9922,112.41 73.5,111.5C 66.953,106.726 59.953,102.726 52.5,99.5C 52.0618,99.5654 51.7284,99.3988 51.5,99C 52.6934,97.9054 54.0267,97.072 55.5,96.5C 57.5,96.5 59.5,96.5 61.5,96.5C 61.5,95.5 61.5,94.5 61.5,93.5C 64.0593,93.8016 66.3926,93.4682 68.5,92.5C 76.2849,91.2688 81.9516,87.1021 85.5,80C 84.392,77.8876 82.892,76.0542 81,74.5C 80.1245,71.1169 79.1245,67.7835 78,64.5C 77.3333,54.1667 77.3333,43.8333 78,33.5C 78.2321,32.2625 78.7321,31.2625 79.5,30.5C 80.9063,30.0269 81.573,29.0269 81.5,27.5C 85.4722,19.2032 91.4722,12.8699 99.5,8.5C 101.391,7.46392 103.224,7.46392 105,8.5C 105.589,6.13673 107.089,5.13673 109.5,5.5C 109.5,9.16667 109.5,12.8333 109.5,16.5 Z"/></g>
<g><path style="opacity:1" fill="#73654d" d="M 142.5,87.5 C 144.412,90.1224 146.746,92.289 149.5,94C 148.798,95.8563 147.464,97.023 145.5,97.5C 145.631,96.6236 145.298,95.9569 144.5,95.5C 141.452,96.3456 138.452,97.3456 135.5,98.5C 135.167,98.1667 134.833,97.8333 134.5,97.5C 137.054,95.9795 139.721,94.6461 142.5,93.5C 141.833,92.5 141.167,91.5 140.5,90.5C 141.145,89.2679 141.311,87.9346 141,86.5C 141.383,87.056 141.883,87.3893 142.5,87.5 Z"/></g>
<g><path style="opacity:1" fill="#74644f" d="M 90.5,92.5 C 90.0472,93.4584 89.3805,94.2917 88.5,95C 91.7423,95.2833 92.0756,96.1166 89.5,97.5C 88.069,97.0234 86.7357,96.3567 85.5,95.5C 86.1667,94.8333 86.8333,94.1667 87.5,93.5C 87.1667,93.1667 86.8333,92.8333 86.5,92.5C 85.1274,94.2065 83.4607,95.5398 81.5,96.5C 80.1301,96.1435 79.1301,95.3102 78.5,94C 81.9846,91.6821 84.9846,88.8488 87.5,85.5C 89.4011,86.935 89.7345,88.6017 88.5,90.5C 89.2427,91.1818 89.9094,91.8485 90.5,92.5 Z"/></g>
<g><path style="opacity:1" fill="#8c7b60" d="M 117.5,96.5 C 115.589,96.4257 114.422,95.4257 114,93.5C 113.517,94.448 113.351,95.448 113.5,96.5C 112.5,96.5 111.5,96.5 110.5,96.5C 110.473,94.8007 109.806,93.4674 108.5,92.5C 109.542,91.2089 110.708,91.2089 112,92.5C 113.38,89.9422 114.88,89.9422 116.5,92.5C 117.429,93.6888 117.762,95.0222 117.5,96.5 Z"/></g>
<g><path style="opacity:1" fill="#54432c" d="M 129.5,87.5 C 127.593,90.2775 125.426,92.9442 123,95.5C 122.333,94.8333 121.667,94.1667 121,93.5C 120.241,95.0629 119.074,96.0629 117.5,96.5C 117.762,95.0222 117.429,93.6888 116.5,92.5C 114.88,89.9422 113.38,89.9422 112,92.5C 110.708,91.2089 109.542,91.2089 108.5,92.5C 107.244,92.0962 106.077,91.4295 105,90.5C 103.108,93.3895 102.275,93.0562 102.5,89.5C 99.2549,88.2555 96.9215,85.9221 95.5,82.5C 95.9698,81.537 96.6365,81.537 97.5,82.5C 98.6799,85.8446 101.013,88.0113 104.5,89C 109.669,88.3782 114.836,88.5449 120,89.5C 127.261,88.7394 131.428,84.7394 132.5,77.5C 133.222,77.0825 133.722,76.4158 134,75.5C 134.378,80.1976 132.878,84.1976 129.5,87.5 Z"/></g>
<g><path style="opacity:1" fill="#695943" d="M 131.5,88.5 C 131.158,87.6618 130.492,87.3284 129.5,87.5C 132.878,84.1976 134.378,80.1976 134,75.5C 133.722,76.4158 133.222,77.0825 132.5,77.5C 133.129,72.3181 133.129,67.3181 132.5,62.5C 132.5,62.1667 132.5,61.8333 132.5,61.5C 134.268,65.0442 135.102,69.0442 135,73.5C 135.151,70.8807 135.985,68.5473 137.5,66.5C 136.896,62.7772 136.73,59.1105 137,55.5C 137.667,54.8333 138.333,54.1667 139,53.5C 139.74,61.7098 139.406,70.0431 138,78.5C 137.626,79.4162 137.126,80.2496 136.5,81C 137.267,84.9395 135.6,87.4395 131.5,88.5 Z"/></g>
<g><path style="opacity:1" fill="#b8a481" d="M 98.5,64.5 C 100.292,65.3091 102.292,65.8091 104.5,66C 102.604,67.0646 102.437,67.8979 104,68.5C 105.642,68.0222 106.809,67.0222 107.5,65.5C 108.404,66.209 108.737,67.209 108.5,68.5C 106.665,74.5197 108.998,77.6864 115.5,78C 117.65,76.8077 118.317,75.3077 117.5,73.5C 118.117,73.3893 118.617,73.056 119,72.5C 119.186,70.0995 119.686,67.7662 120.5,65.5C 121.478,65.9767 122.311,66.6433 123,67.5C 123.617,66.5509 123.451,65.7175 122.5,65C 126.058,64.8541 129.391,64.0208 132.5,62.5C 133.129,67.3181 133.129,72.3181 132.5,77.5C 131.428,84.7394 127.261,88.7394 120,89.5C 114.836,88.5449 109.669,88.3782 104.5,89C 101.013,88.0113 98.6799,85.8446 97.5,82.5C 97.0733,79.9902 96.4067,77.6568 95.5,75.5C 93.7788,70.6887 93.4455,65.6887 94.5,60.5C 95.5213,62.188 96.8546,63.5213 98.5,64.5 Z"/></g>
<g><path style="opacity:1" fill="#907b5a" d="M 109.5,80.5 C 111.979,81.0725 114.313,81.0725 116.5,80.5C 118.942,81.0361 121.275,81.8694 123.5,83C 117.852,82.2289 112.186,82.3956 106.5,83.5C 105.833,83.3333 105.167,83.1667 104.5,83C 106.175,82.0147 107.842,81.1814 109.5,80.5 Z"/></g>
<g><path style="opacity:1" fill="#735f48" d="M 108.5,68.5 C 108.382,72.4816 110.382,74.8149 114.5,75.5C 115.518,74.8075 116.518,74.1408 117.5,73.5C 118.317,75.3077 117.65,76.8077 115.5,78C 108.998,77.6864 106.665,74.5197 108.5,68.5 Z"/></g>
<g><path style="opacity:1" fill="#6b5c45" d="M 95.5,75.5 C 96.4067,77.6568 97.0733,79.9902 97.5,82.5C 96.6365,81.537 95.9698,81.537 95.5,82.5C 96.9215,85.9221 99.2549,88.2555 102.5,89.5C 102.275,93.0562 103.108,93.3895 105,90.5C 106.077,91.4295 107.244,92.0962 108.5,92.5C 109.806,93.4674 110.473,94.8007 110.5,96.5C 111.5,96.5 112.5,96.5 113.5,96.5C 113.351,95.448 113.517,94.448 114,93.5C 114.422,95.4257 115.589,96.4257 117.5,96.5C 116.89,99.8385 115.723,100.172 114,97.5C 113.055,97.9054 112.388,98.572 112,99.5C 111.29,98.0267 110.124,97.3601 108.5,97.5C 108.5,98.5 108.5,99.5 108.5,100.5C 107.209,100.737 106.209,100.404 105.5,99.5C 106.043,99.44 106.376,99.1067 106.5,98.5C 105.05,97.1502 104.383,95.4835 104.5,93.5C 103.5,93.5 102.5,93.5 101.5,93.5C 101.719,92.325 101.386,91.325 100.5,90.5C 99.7025,90.9569 99.3691,91.6236 99.5,92.5C 97.8568,90.0269 95.6902,88.0269 93,86.5C 88.9734,75.2298 87.8067,63.8965 89.5,52.5C 90.6964,53.5594 91.363,54.8927 91.5,56.5C 91.4717,59.9595 91.1383,63.4595 90.5,67C 92.5474,70.8944 93.7141,75.061 94,79.5C 94.3333,79.8333 94.6667,80.1667 95,80.5C 95.4935,78.8659 95.6602,77.1992 95.5,75.5 Z"/></g>
<g><path style="opacity:1" fill="#574730" d="M 109.5,57.5 C 110.552,57.3505 111.552,57.5172 112.5,58C 110.972,62.3687 110.472,66.8687 111,71.5C 113,74.1667 115,74.1667 117,71.5C 116.886,66.3941 117.72,61.7274 119.5,57.5C 117.975,60.4574 118.642,61.1241 121.5,59.5C 121.5,60.5 121.5,61.5 121.5,62.5C 124.385,62.8064 127.052,62.4731 129.5,61.5C 129.833,60.8333 130.167,60.1667 130.5,59.5C 130.833,59.5 131.167,59.5 131.5,59.5C 131.328,60.4916 131.662,61.1583 132.5,61.5C 132.5,61.8333 132.5,62.1667 132.5,62.5C 129.391,64.0208 126.058,64.8541 122.5,65C 123.451,65.7175 123.617,66.5509 123,67.5C 122.311,66.6433 121.478,65.9767 120.5,65.5C 119.686,67.7662 119.186,70.0995 119,72.5C 118.617,73.056 118.117,73.3893 117.5,73.5C 116.518,74.1408 115.518,74.8075 114.5,75.5C 110.382,74.8149 108.382,72.4816 108.5,68.5C 108.737,67.209 108.404,66.209 107.5,65.5C 106.609,64.8902 105.609,64.5569 104.5,64.5C 105.919,63.5489 107.585,63.2155 109.5,63.5C 110.275,61.3881 110.275,59.3881 109.5,57.5 Z"/></g>
<g><path style="opacity:1" fill="#8c795f" d="M 98.5,64.5 C 100.5,64.5 102.5,64.5 104.5,64.5C 105.609,64.5569 106.609,64.8902 107.5,65.5C 106.809,67.0222 105.642,68.0222 104,68.5C 102.437,67.8979 102.604,67.0646 104.5,66C 102.292,65.8091 100.292,65.3091 98.5,64.5 Z"/></g>
<g><path style="opacity:1" fill="#6d5f4b" d="M 98.5,61.5 C 100.656,61.1282 100.656,60.1282 98.5,58.5C 97.8933,58.6236 97.56,58.9569 97.5,59.5C 96.2486,58.528 96.582,57.8614 98.5,57.5C 101.342,58.8149 104.342,59.8149 107.5,60.5C 104.682,63.6825 101.682,64.0158 98.5,61.5 Z"/></g>
<g><path style="opacity:1" fill="#7d6d54" d="M 81.5,47.5 C 83.1703,47.7512 84.6703,48.4178 86,49.5C 86.9226,56.989 86.2559,64.3223 84,71.5C 81.909,63.6384 81.0756,55.6384 81.5,47.5 Z"/></g>
<g><path style="opacity:1" fill="#756854" d="M 131.5,59.5 C 131.167,59.5 130.833,59.5 130.5,59.5C 130.44,58.9569 130.107,58.6236 129.5,58.5C 127.344,60.1282 127.344,61.1282 129.5,61.5C 127.052,62.4731 124.385,62.8064 121.5,62.5C 121.5,61.5 121.5,60.5 121.5,59.5C 124.361,59.6584 127.028,58.9917 129.5,57.5C 130.713,57.7472 131.38,58.4138 131.5,59.5 Z"/></g>
<g><path style="opacity:1" fill="#e2d5bf" d="M 130.5,59.5 C 130.167,60.1667 129.833,60.8333 129.5,61.5C 127.344,61.1282 127.344,60.1282 129.5,58.5C 130.107,58.6236 130.44,58.9569 130.5,59.5 Z"/></g>
<g><path style="opacity:1" fill="#e4d6c1" d="M 98.5,61.5 C 98.1667,60.8333 97.8333,60.1667 97.5,59.5C 97.56,58.9569 97.8933,58.6236 98.5,58.5C 100.656,60.1282 100.656,61.1282 98.5,61.5 Z"/></g>
<g><path style="opacity:1" fill="#7e6e53" d="M 144.5,47.5 C 145.794,49.0478 146.461,51.0478 146.5,53.5C 146.286,60.3213 145.286,66.988 143.5,73.5C 142.739,68.5508 142.072,63.3841 141.5,58C 141.667,55.1667 141.833,52.3333 142,49.5C 142.995,48.9341 143.828,48.2674 144.5,47.5 Z"/></g>
<g><path style="opacity:1" fill="#6c5c42" d="M 118.5,20.5 C 120.669,26.7795 122.335,33.2795 123.5,40C 124.95,40.1171 126.45,39.9505 128,39.5C 132.2,36.8163 136.7,34.8163 141.5,33.5C 135.876,38.6424 129.209,41.6424 121.5,42.5C 120.241,35.2031 119.241,27.8697 118.5,20.5 Z"/></g>
<g><path style="opacity:1" fill="#6e5d43" d="M 108.5,29.5 C 108.091,33.8765 107.425,38.2098 106.5,42.5C 98.2896,41.5602 91.2896,38.2269 85.5,32.5C 87.9279,33.2122 90.2612,34.2122 92.5,35.5C 93.1067,35.3764 93.44,35.0431 93.5,34.5C 94.4916,34.3284 95.1583,34.6618 95.5,35.5C 94.6676,36.3285 95.001,37.1618 96.5,38C 99.3117,39.5489 102.312,40.3822 105.5,40.5C 105.572,37.8067 105.905,35.1401 106.5,32.5C 106.64,30.9704 107.307,29.9704 108.5,29.5 Z"/></g>
<g><path style="opacity:1" fill="#e9dabe" d="M 83.5,32.5 C 84.1386,33.0968 84.472,33.9302 84.5,35C 84.0542,38.3501 83.3875,41.5167 82.5,44.5C 80.9383,40.2424 81.2716,36.2424 83.5,32.5 Z"/></g>
<g><path style="opacity:1" fill="#e8d9c1" d="M 145.5,33.5 C 146.787,37.2684 146.787,40.9351 145.5,44.5C 144.46,40.6528 143.96,36.6528 144,32.5C 144.383,33.056 144.883,33.3893 145.5,33.5 Z"/></g>
<g><path style="opacity:1" fill="#5e4c34" d="M 106.5,10.5 C 106.56,9.95691 106.893,9.62358 107.5,9.5C 108.71,12.659 108.71,15.8256 107.5,19C 107.836,20.0299 108.503,20.5299 109.5,20.5C 109.296,23.5176 108.963,26.5176 108.5,29.5C 107.307,29.9704 106.64,30.9704 106.5,32.5C 105.905,35.1401 105.572,37.8067 105.5,40.5C 102.312,40.3822 99.3117,39.5489 96.5,38C 95.001,37.1618 94.6676,36.3285 95.5,35.5C 98.006,36.7496 100.673,37.4162 103.5,37.5C 104.756,32.218 105.756,26.8846 106.5,21.5C 107.335,17.6603 107.335,13.9937 106.5,10.5 Z"/></g>
<g><path style="opacity:1" fill="#b8a381" d="M 117.5,11.5 C 118.477,14.2869 118.81,17.2869 118.5,20.5C 119.241,27.8697 120.241,35.2031 121.5,42.5C 129.209,41.6424 135.876,38.6424 141.5,33.5C 142.287,31.8958 143.62,31.2291 145.5,31.5C 145.5,32.1667 145.5,32.8333 145.5,33.5C 144.883,33.3893 144.383,33.056 144,32.5C 143.96,36.6528 144.46,40.6528 145.5,44.5C 137.137,49.6098 128.47,53.9432 119.5,57.5C 117.72,61.7274 116.886,66.3941 117,71.5C 115,74.1667 113,74.1667 111,71.5C 110.472,66.8687 110.972,62.3687 112.5,58C 111.552,57.5172 110.552,57.3505 109.5,57.5C 99.5672,55.0331 90.5672,50.6997 82.5,44.5C 83.3875,41.5167 84.0542,38.3501 84.5,35C 84.472,33.9302 84.1386,33.0968 83.5,32.5C 84.1667,31.1667 84.8333,31.1667 85.5,32.5C 91.2896,38.2269 98.2896,41.5602 106.5,42.5C 107.425,38.2098 108.091,33.8765 108.5,29.5C 108.963,26.5176 109.296,23.5176 109.5,20.5C 109.5,19.1667 109.5,17.8333 109.5,16.5C 109.833,16.5 110.167,16.5 110.5,16.5C 110.5,17.5 110.5,18.5 110.5,19.5C 112.833,19.5 115.167,19.5 117.5,19.5C 117.5,16.8333 117.5,14.1667 117.5,11.5 Z"/></g>
<g><path style="opacity:1" fill="#716046" d="M 125.5,43.5 C 129.161,43.3501 130.161,44.8501 128.5,48C 127.207,48.49 125.873,48.6567 124.5,48.5C 124.366,46.7085 124.699,45.0418 125.5,43.5 Z"/></g>
<g><path style="opacity:1" fill="#7a684e" d="M 99.5,43.5 C 102.91,43.3838 104.244,45.0504 103.5,48.5C 99.065,49.0776 97.7317,47.4109 99.5,43.5 Z"/></g>
<g><path style="opacity:1" fill="#745e42" d="M 135.5,39.5 C 136.5,39.5 137.5,39.5 138.5,39.5C 138.5,41.1667 138.5,42.8333 138.5,44.5C 137.167,44.5 135.833,44.5 134.5,44.5C 134.366,42.7085 134.699,41.0418 135.5,39.5 Z"/></g>
<g><path style="opacity:1" fill="#6f5c40" d="M 90.5,39.5 C 93.7643,39.7264 94.7643,41.2264 93.5,44C 89.7071,44.4866 88.7071,42.9866 90.5,39.5 Z"/></g>
<g><path style="opacity:1" fill="#bca784" d="M 134.5,18.5 C 135.401,19.2905 136.068,20.2905 136.5,21.5C 136.117,24.4519 137.283,27.1186 140,29.5C 140.464,28.9056 140.631,28.2389 140.5,27.5C 141.167,27.5 141.5,27.8333 141.5,28.5C 141.586,29.4959 141.252,30.3292 140.5,31C 135.258,34.288 129.591,36.4547 123.5,37.5C 123.482,32.0441 122.815,26.7108 121.5,21.5C 124.745,20.9602 127.245,19.2935 129,16.5C 130.685,18.0175 132.185,19.6841 133.5,21.5C 134.386,20.675 134.719,19.675 134.5,18.5 Z"/></g>
<g><path style="opacity:1" fill="#e9dcc3" d="M 136.5,21.5 C 138.316,23.1184 139.649,25.1184 140.5,27.5C 140.631,28.2389 140.464,28.9056 140,29.5C 137.283,27.1186 136.117,24.4519 136.5,21.5 Z"/></g>
<g><path style="opacity:1" fill="#bfa987" d="M 106.5,21.5 C 105.756,26.8846 104.756,32.218 103.5,37.5C 100.673,37.4162 98.006,36.7496 95.5,35.5C 95.1583,34.6618 94.4916,34.3284 93.5,34.5C 90.7378,33.1301 88.4044,31.2968 86.5,29C 87.6227,26.061 89.2893,23.561 91.5,21.5C 91.8966,22.525 92.5632,22.6917 93.5,22C 95.3501,19.9824 97.3501,18.1491 99.5,16.5C 101.012,19.3491 103.345,21.0158 106.5,21.5 Z"/></g>
<g><path style="opacity:1" fill="#d0c3a8" d="M 111.5,5.5 C 111.5,9.83333 111.5,14.1667 111.5,18.5C 113.167,18.5 114.833,18.5 116.5,18.5C 116.5,14.1667 116.5,9.83333 116.5,5.5C 117.461,7.26465 117.795,9.26465 117.5,11.5C 117.5,14.1667 117.5,16.8333 117.5,19.5C 115.167,19.5 112.833,19.5 110.5,19.5C 110.5,18.5 110.5,17.5 110.5,16.5C 110.185,12.6286 110.518,8.96192 111.5,5.5 Z"/></g>
<g><path style="opacity:1" fill="#ebddc3" d="M 122.5,10.5 C 127.188,12.1745 131.188,14.8412 134.5,18.5C 134.719,19.675 134.386,20.675 133.5,21.5C 132.185,19.6841 130.685,18.0175 129,16.5C 127.245,19.2935 124.745,20.9602 121.5,21.5C 121.251,18.9979 120.917,16.4979 120.5,14C 120.608,12.3189 121.275,11.1522 122.5,10.5 Z"/></g>
<g><path style="opacity:1" fill="#eddfc7" d="M 106.5,10.5 C 107.335,13.9937 107.335,17.6603 106.5,21.5C 103.345,21.0158 101.012,19.3491 99.5,16.5C 97.3501,18.1491 95.3501,19.9824 93.5,22C 92.5632,22.6917 91.8966,22.525 91.5,21.5C 95.121,15.869 100.121,12.2023 106.5,10.5 Z"/></g>
<g><path style="opacity:1" fill="#f0e7cc" d="M 111.5,5.5 C 113.167,5.5 114.833,5.5 116.5,5.5C 116.5,9.83333 116.5,14.1667 116.5,18.5C 114.833,18.5 113.167,18.5 111.5,18.5C 111.5,14.1667 111.5,9.83333 111.5,5.5 Z"/></g>
<g><path style="opacity:1" fill="#948769" d="M 105.5,99.5 C 102.974,97.5818 100.974,95.2485 99.5,92.5C 99.3691,91.6236 99.7025,90.9569 100.5,90.5C 101.386,91.325 101.719,92.325 101.5,93.5C 102.5,93.5 103.5,93.5 104.5,93.5C 104.383,95.4835 105.05,97.1502 106.5,98.5C 106.376,99.1067 106.043,99.44 105.5,99.5 Z"/></g>
<g><path style="opacity:1" fill="#a4a096" d="M 68.5,92.5 C 66.3926,93.4682 64.0593,93.8016 61.5,93.5C 61.5,94.5 61.5,95.5 61.5,96.5C 59.5,96.5 57.5,96.5 55.5,96.5C 54.791,95.596 53.791,95.2627 52.5,95.5C 54.9815,94.7417 57.6481,94.7417 60.5,95.5C 60.5,94.5 60.5,93.5 60.5,92.5C 63.1667,92.5 65.8333,92.5 68.5,92.5 Z"/></g>
<g><path style="opacity:1" fill="#eadcc1" d="M 184.5,73.5 C 183.693,79.4638 183.36,85.4638 183.5,91.5C 182.263,96.9601 181.596,102.627 181.5,108.5C 181.041,118.851 180.374,129.185 179.5,139.5C 179.083,142.159 178.083,144.492 176.5,146.5C 176.881,132.455 177.881,118.455 179.5,104.5C 179.333,102.167 179.167,99.8333 179,97.5C 177.483,99.2395 175.983,100.906 174.5,102.5C 174.5,100.5 174.5,98.5 174.5,96.5C 176.099,94.3962 177.932,92.3962 180,90.5C 180.798,88.7412 180.631,87.0745 179.5,85.5C 178.145,87.5212 176.479,89.1879 174.5,90.5C 174.5,87.8333 174.5,85.1667 174.5,82.5C 176.795,79.7029 179.295,77.0362 182,74.5C 182.497,72.1902 182.663,69.8568 182.5,67.5C 182.783,66.7109 183.283,66.0442 184,65.5C 184.497,68.146 184.664,70.8127 184.5,73.5 Z"/></g>
<g><path style="opacity:1" fill="#e3d6bf" d="M 73.5,96.5 C 73.6716,97.4916 73.3382,98.1583 72.5,98.5C 70.6208,99.3414 68.6208,99.6747 66.5,99.5C 66.5774,98.2502 67.244,97.4169 68.5,97C 70.1341,96.5065 71.8008,96.3398 73.5,96.5 Z"/></g>
<g><path style="opacity:1" fill="#e5d9c0" d="M 154.5,96.5 C 157.577,96.179 159.91,97.179 161.5,99.5C 159.379,99.6747 157.379,99.3414 155.5,98.5C 154.662,98.1583 154.328,97.4916 154.5,96.5 Z"/></g>
<g><path style="opacity:1" fill="#bcab8d" d="M 172.5,94.5 C 172.5,96.5 172.5,98.5 172.5,100.5C 170.616,100.712 169.283,101.712 168.5,103.5C 166.96,99.3364 168.293,96.3364 172.5,94.5 Z"/></g>
<g><path style="opacity:1" fill="#87775e" d="M 129.5,87.5 C 130.492,87.3284 131.158,87.6618 131.5,88.5C 129.68,92.6378 127.013,96.1378 123.5,99C 122.256,99.4561 121.423,98.9561 121,97.5C 120.626,98.4162 120.126,99.2496 119.5,100C 115.877,101.718 112.211,101.884 108.5,100.5C 108.5,99.5 108.5,98.5 108.5,97.5C 110.124,97.3601 111.29,98.0267 112,99.5C 112.388,98.572 113.055,97.9054 114,97.5C 115.723,100.172 116.89,99.8385 117.5,96.5C 119.074,96.0629 120.241,95.0629 121,93.5C 121.667,94.1667 122.333,94.8333 123,95.5C 125.426,92.9442 127.593,90.2775 129.5,87.5 Z"/></g>
<g><path style="opacity:1" fill="#b39f80" d="M 155.5,98.5 C 157.379,99.3414 159.379,99.6747 161.5,99.5C 161.5,100.5 161.5,101.5 161.5,102.5C 158.946,103.388 156.279,103.721 153.5,103.5C 154.167,101.833 154.833,100.167 155.5,98.5 Z"/></g>
<g><path style="opacity:1" fill="#bba688" d="M 72.5,98.5 C 72.5,99.8333 72.5,101.167 72.5,102.5C 70.8333,102.5 69.1667,102.5 67.5,102.5C 67.4431,101.391 67.1098,100.391 66.5,99.5C 68.6208,99.6747 70.6208,99.3414 72.5,98.5 Z"/></g>
<g><path style="opacity:1" fill="#b4a17d" d="M 152.5,105.5 C 151.833,106.833 151.167,108.167 150.5,109.5C 142.534,107.849 142.534,106.182 150.5,104.5C 151.416,104.543 152.083,104.876 152.5,105.5 Z"/></g>
<g><path style="opacity:1" fill="#e9dbc0" d="M 161.5,64.5 C 163.543,65.5794 164.876,67.246 165.5,69.5C 165.314,76.8807 165.814,84.2141 167,91.5C 168.75,89.576 170.583,87.9093 172.5,86.5C 172.5,89.1667 172.5,91.8333 172.5,94.5C 168.293,96.3364 166.96,99.3364 168.5,103.5C 169.283,101.712 170.616,100.712 172.5,100.5C 172.5,102.5 172.5,104.5 172.5,106.5C 170.389,108.631 168.056,110.298 165.5,111.5C 164.833,106.833 164.167,102.167 163.5,97.5C 163.451,90.1507 163.118,82.8174 162.5,75.5C 162.577,71.7852 162.244,68.1185 161.5,64.5 Z"/></g>
<g><path style="opacity:1" fill="#9f9380" d="M 52.5,99.5 C 59.953,102.726 66.953,106.726 73.5,111.5C 72.8444,112.278 72.0111,112.944 71,113.5C 69.3227,112.392 67.8227,112.392 66.5,113.5C 62.1022,111.552 57.9355,109.218 54,106.5C 50.5851,107.79 47.4185,109.456 44.5,111.5C 44.2648,110.903 43.7648,110.57 43,110.5C 40.6667,111.5 38.3333,112.5 36,113.5C 34.9231,112.571 33.7564,111.904 32.5,111.5C 39.1667,107.5 45.8333,103.5 52.5,99.5 Z"/></g>
<g><path style="opacity:1" fill="#6b604d" d="M 47.5,104.5 C 47.3284,105.492 47.6618,106.158 48.5,106.5C 46.575,108.462 44.2417,109.295 41.5,109C 43.0948,106.898 45.0948,105.398 47.5,104.5 Z"/></g>
<g><path style="opacity:1" fill="#453a28" d="M 48.5,106.5 C 47.6618,106.158 47.3284,105.492 47.5,104.5C 49.4664,103.559 51.4664,102.559 53.5,101.5C 56.0794,102.706 58.5794,104.039 61,105.5C 61.5908,106.483 61.2575,107.15 60,107.5C 57.7735,106.637 55.6068,105.637 53.5,104.5C 51.9246,105.456 50.258,106.123 48.5,106.5 Z"/></g>
<g><path style="opacity:1" fill="#61543d" d="M 142.5,87.5 C 141.883,87.3893 141.383,87.056 141,86.5C 141.311,87.9346 141.145,89.2679 140.5,90.5C 141.167,91.5 141.833,92.5 142.5,93.5C 139.721,94.6461 137.054,95.9795 134.5,97.5C 134.833,97.8333 135.167,98.1667 135.5,98.5C 138.452,97.3456 141.452,96.3456 144.5,95.5C 145.298,95.9569 145.631,96.6236 145.5,97.5C 141.6,99.7912 137.6,102.124 133.5,104.5C 131.154,107.668 128.821,110.835 126.5,114C 123.993,116.485 122.493,115.985 122,112.5C 121.51,113.793 121.343,115.127 121.5,116.5C 115.371,117.911 109.371,117.411 103.5,115C 99.527,111.027 95.527,107.027 91.5,103C 89.0438,101.289 86.3771,99.9562 83.5,99C 82.6195,98.2917 81.9528,97.4584 81.5,96.5C 83.4607,95.5398 85.1274,94.2065 86.5,92.5C 86.8333,92.8333 87.1667,93.1667 87.5,93.5C 86.8333,94.1667 86.1667,94.8333 85.5,95.5C 86.7357,96.3567 88.069,97.0234 89.5,97.5C 92.0756,96.1166 91.7423,95.2833 88.5,95C 89.3805,94.2917 90.0472,93.4584 90.5,92.5C 92.371,92.8588 93.871,93.8588 95,95.5C 98.0311,100.239 101.531,104.572 105.5,108.5C 110.78,109.618 116.113,109.784 121.5,109C 126.344,104.154 130.844,98.9878 135,93.5C 136.586,92.624 138.086,91.624 139.5,90.5C 138.948,88.9974 138.948,87.3307 139.5,85.5C 141.179,85.2852 142.179,85.9519 142.5,87.5 Z"/></g>
<g><path style="opacity:1" fill="#948975" d="M 183.5,91.5 C 183.365,97.181 183.032,102.848 182.5,108.5C 182.167,108.5 181.833,108.5 181.5,108.5C 181.596,102.627 182.263,96.9601 183.5,91.5 Z"/></g>
<g><path style="opacity:1" fill="#5c4d36" d="M 66.5,113.5 C 70.701,116.1 75.0344,118.434 79.5,120.5C 82.5578,122.696 85.8911,124.362 89.5,125.5C 89.5,139.167 89.5,152.833 89.5,166.5C 89.8064,169.385 89.4731,172.052 88.5,174.5C 88.8128,170.958 88.4794,167.625 87.5,164.5C 87.8286,151.989 87.4952,139.655 86.5,127.5C 85.7095,126.599 84.7095,125.932 83.5,125.5C 81.7496,124.13 79.7496,123.13 77.5,122.5C 77.1667,121.5 76.5,120.833 75.5,120.5C 72.8333,119.167 70.1667,117.833 67.5,116.5C 66.8333,116.167 66.1667,115.833 65.5,115.5C 65.1583,114.662 64.4916,114.328 63.5,114.5C 62.8333,113.833 62.1667,113.167 61.5,112.5C 60.8333,112.5 60.1667,112.5 59.5,112.5C 57.5699,110.55 55.2366,109.217 52.5,108.5C 52.1969,122.834 51.8636,137.168 51.5,151.5C 50.8333,137.994 50.1667,124.327 49.5,110.5C 48.8933,110.624 48.56,110.957 48.5,111.5C 45.6689,112.079 43.3356,113.412 41.5,115.5C 40.0048,115.989 38.6715,116.655 37.5,117.5C 36.8333,117.5 36.5,117.833 36.5,118.5C 34.9731,118.427 33.9731,119.094 33.5,120.5C 33.1667,120.5 32.8333,120.5 32.5,120.5C 31.6981,121.952 31.1981,123.618 31,125.5C 30.7679,124.263 30.2679,123.263 29.5,122.5C 26.605,123.399 23.9384,124.733 21.5,126.5C 21.1583,125.662 20.4916,125.328 19.5,125.5C 22.9974,122.917 26.6641,120.584 30.5,118.5C 35.1401,116.18 39.8068,113.847 44.5,111.5C 47.4185,109.456 50.5851,107.79 54,106.5C 57.9355,109.218 62.1022,111.552 66.5,113.5 Z"/></g>
<g><path style="opacity:1" fill="#b4a07f" d="M 149.5,111.5 C 151.319,112.584 152.985,113.918 154.5,115.5C 154.167,115.833 153.833,116.167 153.5,116.5C 146.74,112.204 146.073,112.871 151.5,118.5C 147.978,124.418 144.144,124.751 140,119.5C 140.24,121.467 141.073,123.3 142.5,125C 142.167,125.5 141.833,126 141.5,126.5C 139.639,125.472 138.305,123.972 137.5,122C 134.788,121.174 132.455,121.674 130.5,123.5C 128.535,123.052 128.202,122.052 129.5,120.5C 133.504,116.996 137.17,113.163 140.5,109C 141.833,108.333 143.167,108.333 144.5,109C 145.91,110.372 147.577,111.205 149.5,111.5 Z"/></g>
<g><path style="opacity:1" fill="#483e30" d="M 52.5,95.5 C 53.791,95.2627 54.791,95.596 55.5,96.5C 54.0267,97.072 52.6934,97.9054 51.5,99C 51.7284,99.3988 52.0618,99.5654 52.5,99.5C 45.8333,103.5 39.1667,107.5 32.5,111.5C 28.7991,113.012 25.4658,115.012 22.5,117.5C 20.8333,118.167 19.1667,118.833 17.5,119.5C 16.4019,118.603 16.4019,117.77 17.5,117C 16.1807,116.805 14.8474,116.972 13.5,117.5C 26.0379,109.396 39.0379,102.063 52.5,95.5 Z"/></g>
<g><path style="opacity:1" fill="#a99978" d="M 89.5,114.5 C 85.8553,112.678 82.1887,110.844 78.5,109C 77.2899,107.961 76.2899,106.794 75.5,105.5C 75.7352,104.903 76.2352,104.57 77,104.5C 82.8694,105.031 87.536,107.698 91,112.5C 91.5281,113.816 91.0281,114.483 89.5,114.5 Z"/></g>
<g><path style="opacity:1" fill="#d1c4ac" d="M 73.5,111.5 C 76.9922,112.41 79.9922,114.076 82.5,116.5C 79.3489,116.614 78.3489,117.947 79.5,120.5C 75.0344,118.434 70.701,116.1 66.5,113.5C 67.8227,112.392 69.3227,112.392 71,113.5C 72.0111,112.944 72.8444,112.278 73.5,111.5 Z"/></g>
<g><path style="opacity:1" fill="#cdc2ac" d="M 44.5,111.5 C 39.8068,113.847 35.1401,116.18 30.5,118.5C 29.6868,117.347 28.6868,117.347 27.5,118.5C 26.8333,117.833 26.1667,117.167 25.5,116.5C 24.5832,117.127 23.5832,117.461 22.5,117.5C 25.4658,115.012 28.7991,113.012 32.5,111.5C 33.7564,111.904 34.9231,112.571 36,113.5C 38.3333,112.5 40.6667,111.5 43,110.5C 43.7648,110.57 44.2648,110.903 44.5,111.5 Z"/></g>
<g><path style="opacity:1" fill="#7a6a4e" d="M 73.5,96.5 C 77.6101,101.731 82.9434,105.231 89.5,107C 93.5352,110.7 97.2019,114.7 100.5,119C 109.438,122.303 118.438,122.303 127.5,119C 131.5,114.667 135.5,110.333 139.5,106C 145.719,104.587 150.719,101.421 154.5,96.5C 154.328,97.4916 154.662,98.1583 155.5,98.5C 154.833,100.167 154.167,101.833 153.5,103.5C 153.672,104.492 153.338,105.158 152.5,105.5C 152.083,104.876 151.416,104.543 150.5,104.5C 142.534,106.182 142.534,107.849 150.5,109.5C 150.167,110.167 149.833,110.833 149.5,111.5C 147.577,111.205 145.91,110.372 144.5,109C 143.167,108.333 141.833,108.333 140.5,109C 137.17,113.163 133.504,116.996 129.5,120.5C 128.202,122.052 128.535,123.052 130.5,123.5C 130.158,124.338 129.492,124.672 128.5,124.5C 127.844,123.722 127.011,123.056 126,122.5C 118,123.833 110,123.833 102,122.5C 100.989,123.056 100.156,123.722 99.5,124.5C 98.3616,122.279 97.0283,120.279 95.5,118.5C 93.1475,117.66 91.1475,116.326 89.5,114.5C 91.0281,114.483 91.5281,113.816 91,112.5C 87.536,107.698 82.8694,105.031 77,104.5C 76.2352,104.57 75.7352,104.903 75.5,105.5C 72.9717,104.065 70.305,103.065 67.5,102.5C 69.1667,102.5 70.8333,102.5 72.5,102.5C 72.5,101.167 72.5,99.8333 72.5,98.5C 73.3382,98.1583 73.6716,97.4916 73.5,96.5 Z"/></g>
<g><path style="opacity:1" fill="#e9dec2" d="M 189.5,116.5 C 190.207,119.786 190.54,123.119 190.5,126.5C 190.167,126.5 189.833,126.5 189.5,126.5C 188.127,126.657 186.793,126.49 185.5,126C 186,125.5 186.5,125 187,124.5C 187.333,121.5 187.667,118.5 188,115.5C 188.383,116.056 188.883,116.389 189.5,116.5 Z"/></g>
<g><path style="opacity:1" fill="#bea986" d="M 176.5,146.5 C 176.167,146.5 175.833,146.5 175.5,146.5C 174.517,131.912 174.184,117.245 174.5,102.5C 175.983,100.906 177.483,99.2395 179,97.5C 179.167,99.8333 179.333,102.167 179.5,104.5C 177.881,118.455 176.881,132.455 176.5,146.5 Z"/></g>
<g><path style="opacity:1" fill="#bea786" d="M 67.5,116.5 C 70.1667,117.833 72.8333,119.167 75.5,120.5C 76.4749,139.454 76.8082,158.454 76.5,177.5C 76.44,178.043 76.1067,178.376 75.5,178.5C 74.8287,172.432 73.8287,166.432 72.5,160.5C 71.5033,167.134 71.17,173.8 71.5,180.5C 71.5,180.833 71.5,181.167 71.5,181.5C 70.1667,181.833 68.8333,182.167 67.5,182.5C 67.5,160.5 67.5,138.5 67.5,116.5 Z"/></g>
<g><path style="opacity:1" fill="#beac8f" d="M 189.5,115.5 C 189.5,115.833 189.5,116.167 189.5,116.5C 188.883,116.389 188.383,116.056 188,115.5C 187.667,118.5 187.333,121.5 187,124.5C 186.5,125 186,125.5 185.5,126C 186.793,126.49 188.127,126.657 189.5,126.5C 188.081,127.451 186.415,127.784 184.5,127.5C 183.518,124.038 183.185,120.371 183.5,116.5C 184.137,113.544 184.637,110.544 185,107.5C 186.792,110.02 188.292,112.686 189.5,115.5 Z"/></g>
<g><path style="opacity:1" fill="#948974" d="M 189.5,115.5 C 191.569,119.044 191.902,122.71 190.5,126.5C 190.54,123.119 190.207,119.786 189.5,116.5C 189.5,116.167 189.5,115.833 189.5,115.5 Z"/></g>
<g><path style="opacity:1" fill="#5b4d39" d="M 163.5,97.5 C 164.167,102.167 164.833,106.833 165.5,111.5C 165.187,115.042 165.521,118.375 166.5,121.5C 166.68,129.175 167.014,136.842 167.5,144.5C 166.526,137.626 165.192,130.96 163.5,124.5C 163.24,118.828 162.907,113.161 162.5,107.5C 163.479,104.375 163.813,101.042 163.5,97.5 Z"/></g>
<g><path style="opacity:1" fill="#d9d5d1" d="M 193.5,112.5 C 194.927,114.148 195.76,116.148 196,118.5C 196.499,122.821 196.666,127.154 196.5,131.5C 195.776,125.253 194.776,118.92 193.5,112.5 Z"/></g>
<g><path style="opacity:1" fill="#bda682" d="M 29.5,122.5 C 29.6666,140.836 29.4999,159.17 29,177.5C 25.5733,174.744 22.9066,171.41 21,167.5C 20.5001,154.171 20.3334,140.837 20.5,127.5C 20.5,126.833 20.8333,126.5 21.5,126.5C 23.9384,124.733 26.605,123.399 29.5,122.5 Z"/></g>
<g><path style="opacity:1" fill="#7e6d51" d="M 157.5,112.5 C 158.613,113.946 158.78,115.613 158,117.5C 154.392,123.618 149.226,127.618 142.5,129.5C 141.274,129.48 140.274,129.147 139.5,128.5C 146.134,126.751 151.634,123.084 156,117.5C 157.009,115.975 157.509,114.308 157.5,112.5 Z"/></g>
<g><path style="opacity:1" fill="#bca582" d="M 59.5,112.5 C 59.6666,136.169 59.5,159.836 59,183.5C 53.2111,184.721 47.3778,184.721 41.5,183.5C 41.5,160.833 41.5,138.167 41.5,115.5C 43.3356,113.412 45.6689,112.079 48.5,111.5C 49.3321,134.33 49.8321,157.33 50,180.5C 51.091,170.863 51.591,161.196 51.5,151.5C 51.8636,137.168 52.1969,122.834 52.5,108.5C 55.2366,109.217 57.5699,110.55 59.5,112.5 Z"/></g>
<g><path style="opacity:1" fill="#e8dbc4" d="M 30.5,118.5 C 26.6641,120.584 22.9974,122.917 19.5,125.5C 18.8333,125.5 18.5,125.833 18.5,126.5C 17.8333,139.34 17.1667,152.34 16.5,165.5C 15.7022,163.922 15.2022,162.256 15,160.5C 14.5001,147.504 14.3334,134.504 14.5,121.5C 15.7095,121.068 16.7095,120.401 17.5,119.5C 19.1667,118.833 20.8333,118.167 22.5,117.5C 23.5832,117.461 24.5832,117.127 25.5,116.5C 26.1667,117.167 26.8333,117.833 27.5,118.5C 28.6868,117.347 29.6868,117.347 30.5,118.5 Z"/></g>
<g><path style="opacity:1" fill="#6d5c40" d="M 41.5,115.5 C 41.5,138.167 41.5,160.833 41.5,183.5C 41.5,187.167 41.5,190.833 41.5,194.5C 40.0048,194.011 38.6715,193.345 37.5,192.5C 38.8325,180.352 39.4991,167.852 39.5,155C 39.4991,142.148 38.8325,129.648 37.5,117.5C 38.6715,116.655 40.0048,115.989 41.5,115.5 Z"/></g>
<g><path style="opacity:1" fill="#efe2c9" d="M 82.5,116.5 C 85.8333,118.167 89.1667,119.833 92.5,121.5C 92.6666,134.504 92.4999,147.504 92,160.5C 91.9633,162.974 91.13,164.974 89.5,166.5C 89.5,152.833 89.5,139.167 89.5,125.5C 85.8911,124.362 82.5578,122.696 79.5,120.5C 78.3489,117.947 79.3489,116.614 82.5,116.5 Z"/></g>
<g><path style="opacity:1" fill="#4d3e29" d="M 161.5,102.5 C 162.038,104.117 162.371,105.784 162.5,107.5C 159.786,107.25 157.119,107.083 154.5,107C 153.001,110.033 154.001,111.866 157.5,112.5C 157.509,114.308 157.009,115.975 156,117.5C 151.634,123.084 146.134,126.751 139.5,128.5C 138.856,125.196 136.856,123.862 133.5,124.5C 133.5,126.167 133.5,127.833 133.5,129.5C 133.5,130.5 133.5,131.5 133.5,132.5C 121.573,134.769 109.573,135.102 97.5,133.5C 96.9874,128.283 96.3207,123.283 95.5,118.5C 97.0283,120.279 98.3616,122.279 99.5,124.5C 99.5,125.167 99.5,125.833 99.5,126.5C 98.5489,127.919 98.2155,129.585 98.5,131.5C 100.5,131.5 102.5,131.5 104.5,131.5C 110.833,132.833 117.167,132.833 123.5,131.5C 125.5,131.5 127.5,131.5 129.5,131.5C 129.784,129.585 129.451,127.919 128.5,126.5C 128.5,125.833 128.5,125.167 128.5,124.5C 129.492,124.672 130.158,124.338 130.5,123.5C 132.455,121.674 134.788,121.174 137.5,122C 138.305,123.972 139.639,125.472 141.5,126.5C 141.833,126 142.167,125.5 142.5,125C 141.073,123.3 140.24,121.467 140,119.5C 144.144,124.751 147.978,124.418 151.5,118.5C 146.073,112.871 146.74,112.204 153.5,116.5C 153.833,116.167 154.167,115.833 154.5,115.5C 152.985,113.918 151.319,112.584 149.5,111.5C 149.833,110.833 150.167,110.167 150.5,109.5C 151.167,108.167 151.833,106.833 152.5,105.5C 153.338,105.158 153.672,104.492 153.5,103.5C 156.279,103.721 158.946,103.388 161.5,102.5 Z"/></g>
<g><path style="opacity:1" fill="#a49071" d="M 128.5,124.5 C 128.5,125.167 128.5,125.833 128.5,126.5C 128.5,127.833 128.5,129.167 128.5,130.5C 127.5,130.5 126.5,130.5 125.5,130.5C 125.657,129.127 125.49,127.793 125,126.5C 124.31,125.262 123.81,125.262 123.5,126.5C 117.792,124.614 111.792,123.947 105.5,124.5C 105.5,126.833 105.5,129.167 105.5,131.5C 111.5,131.5 117.5,131.5 123.5,131.5C 117.167,132.833 110.833,132.833 104.5,131.5C 104.629,124.325 103.962,123.991 102.5,130.5C 101.5,130.5 100.5,130.5 99.5,130.5C 99.5,129.167 99.5,127.833 99.5,126.5C 99.5,125.833 99.5,125.167 99.5,124.5C 100.156,123.722 100.989,123.056 102,122.5C 110,123.833 118,123.833 126,122.5C 127.011,123.056 127.844,123.722 128.5,124.5 Z"/></g>
<g><path style="opacity:1" fill="#baa685" d="M 172.5,106.5 C 172.814,119.913 172.481,133.246 171.5,146.5C 171.167,146.5 170.833,146.5 170.5,146.5C 170.204,135.425 169.204,124.425 167.5,113.5C 166.52,116.086 166.187,118.753 166.5,121.5C 165.521,118.375 165.187,115.042 165.5,111.5C 168.056,110.298 170.389,108.631 172.5,106.5 Z"/></g>
<g><path style="opacity:1" fill="#bda684" d="M 36.5,118.5 C 37.8321,128.812 38.4988,139.478 38.5,150.5C 38.3333,161.167 38.1667,171.833 38,182.5C 37.3292,181.748 36.4959,181.414 35.5,181.5C 35.5,179.833 35.5,178.167 35.5,176.5C 33.6936,157.905 33.0269,139.239 33.5,120.5C 33.9731,119.094 34.9731,118.427 36.5,118.5 Z"/></g>
<g><path style="opacity:1" fill="#8e7c5e" d="M 36.5,118.5 C 36.5,117.833 36.8333,117.5 37.5,117.5C 38.8325,129.648 39.4991,142.148 39.5,155C 39.4991,167.852 38.8325,180.352 37.5,192.5C 36.8826,192.389 36.3826,192.056 36,191.5C 35.5017,188.183 35.335,184.85 35.5,181.5C 36.4959,181.414 37.3292,181.748 38,182.5C 38.1667,171.833 38.3333,161.167 38.5,150.5C 38.4988,139.478 37.8321,128.812 36.5,118.5 Z"/></g>
<g><path style="opacity:1" fill="#bba583" d="M 162.5,107.5 C 162.907,113.161 163.24,118.828 163.5,124.5C 162.129,126.936 161.129,129.603 160.5,132.5C 159.448,132.351 158.448,132.517 157.5,133C 154.778,137.363 150.778,139.696 145.5,140C 138.16,140.372 130.827,140.205 123.5,139.5C 116.803,138.202 110.136,138.202 103.5,139.5C 101.856,139.286 100.356,139.62 99,140.5C 98.5065,138.866 98.3398,137.199 98.5,135.5C 107.465,136.581 116.465,136.748 125.5,136C 128.633,135.607 131.633,134.774 134.5,133.5C 135.932,131.703 135.599,130.37 133.5,129.5C 133.5,127.833 133.5,126.167 133.5,124.5C 136.856,123.862 138.856,125.196 139.5,128.5C 140.274,129.147 141.274,129.48 142.5,129.5C 149.226,127.618 154.392,123.618 158,117.5C 158.78,115.613 158.613,113.946 157.5,112.5C 154.001,111.866 153.001,110.033 154.5,107C 157.119,107.083 159.786,107.25 162.5,107.5 Z"/></g>
<g><path style="opacity:1" fill="#816e53" d="M 161.5,62.5 C 162.5,63.1667 163.5,63.8333 164.5,64.5C 166.144,66.4807 167.81,68.4807 169.5,70.5C 170.086,70.2907 170.586,69.9574 171,69.5C 171.098,71.6193 171.931,73.286 173.5,74.5C 176.498,71.1758 179.498,67.8425 182.5,64.5C 183.5,63.8333 184.5,63.1667 185.5,62.5C 185.815,66.3714 185.482,70.0381 184.5,73.5C 184.664,70.8127 184.497,68.146 184,65.5C 183.283,66.0442 182.783,66.7109 182.5,67.5C 180.233,70.2709 177.733,72.9375 175,75.5C 174.503,77.8098 174.337,80.1432 174.5,82.5C 174.5,85.1667 174.5,87.8333 174.5,90.5C 174.5,92.5 174.5,94.5 174.5,96.5C 174.5,98.5 174.5,100.5 174.5,102.5C 174.184,117.245 174.517,131.912 175.5,146.5C 174.167,146.5 172.833,146.5 171.5,146.5C 172.481,133.246 172.814,119.913 172.5,106.5C 172.5,104.5 172.5,102.5 172.5,100.5C 172.5,98.5 172.5,96.5 172.5,94.5C 172.5,91.8333 172.5,89.1667 172.5,86.5C 174.213,79.0544 171.88,73.3877 165.5,69.5C 164.876,67.246 163.543,65.5794 161.5,64.5C 161.5,63.8333 161.5,63.1667 161.5,62.5 Z"/></g>
<g><path style="opacity:1" fill="#eadcbf" d="M 170.5,146.5 C 169.5,146.5 168.5,146.5 167.5,146.5C 167.5,145.833 167.5,145.167 167.5,144.5C 167.014,136.842 166.68,129.175 166.5,121.5C 166.187,118.753 166.52,116.086 167.5,113.5C 169.204,124.425 170.204,135.425 170.5,146.5 Z"/></g>
<g><path style="opacity:1" fill="#685a42" d="M 198.5,142.5 C 192.367,140.398 186.867,141.398 182,145.5C 181.544,144.256 182.044,143.423 183.5,143C 181.769,138.642 182.436,134.809 185.5,131.5C 188.134,130.129 190.467,130.629 192.5,133C 195.146,135.802 197.146,138.968 198.5,142.5 Z"/></g>
<g><path style="opacity:1" fill="#a18b6a" d="M 75.5,120.5 C 76.5,120.833 77.1667,121.5 77.5,122.5C 77.8302,141.008 77.4968,159.341 76.5,177.5C 76.8082,158.454 76.4749,139.454 75.5,120.5 Z"/></g>
<g><path style="opacity:1" fill="#968061" d="M 48.5,111.5 C 48.56,110.957 48.8933,110.624 49.5,110.5C 50.1667,124.327 50.8333,137.994 51.5,151.5C 51.591,161.196 51.091,170.863 50,180.5C 49.8321,157.33 49.3321,134.33 48.5,111.5 Z"/></g>
<g><path style="opacity:1" fill="#796545" d="M 65.5,115.5 C 66.1667,115.833 66.8333,116.167 67.5,116.5C 67.5,138.5 67.5,160.5 67.5,182.5C 66.8333,182.833 66.1667,183.167 65.5,183.5C 65.5,160.833 65.5,138.167 65.5,115.5 Z"/></g>
<g><path style="opacity:1" fill="#928570" d="M 179.5,139.5 C 179.5,142.167 179.5,144.833 179.5,147.5C 178.209,147.737 177.209,147.404 176.5,146.5C 178.083,144.492 179.083,142.159 179.5,139.5 Z"/></g>
<g><path style="opacity:1" fill="#706044" d="M 61.5,112.5 C 62.1667,113.167 62.8333,113.833 63.5,114.5C 63.6666,129.837 63.4999,145.17 63,160.5C 61.5785,144.549 61.0785,128.549 61.5,112.5 Z"/></g>
<g><path style="opacity:1" fill="#e2d4b8" d="M 198.5,144.5 C 201.422,144.997 204.089,146.663 206.5,149.5C 205.747,156.082 204.413,156.082 202.5,149.5C 201.893,149.624 201.56,149.957 201.5,150.5C 196.663,148.532 191.663,147.865 186.5,148.5C 184.937,149.945 183.604,151.611 182.5,153.5C 181.571,152.311 181.238,150.978 181.5,149.5C 182.673,147.496 184.34,145.996 186.5,145C 190.486,144.501 194.486,144.334 198.5,144.5 Z"/></g>
<g><path style="opacity:1" fill="#5b5039" d="M 153.5,153.5 C 152.434,155.701 151.767,158.035 151.5,160.5C 150.839,159.282 150.172,157.949 149.5,156.5C 146.692,158.774 143.692,159.107 140.5,157.5C 140.966,155.799 140.966,154.299 140.5,153C 144.964,149.536 149.297,149.702 153.5,153.5 Z"/></g>
<g><path style="opacity:1" fill="#b39f81" d="M 201.5,150.5 C 203.151,152.402 203.484,154.402 202.5,156.5C 201.541,152.639 200.541,152.639 199.5,156.5C 199.631,157.239 199.464,157.906 199,158.5C 198.722,157.584 198.222,156.918 197.5,156.5C 196.047,153.085 193.381,151.085 189.5,150.5C 187.085,150.719 186.085,152.052 186.5,154.5C 184.5,154.5 182.5,154.5 180.5,154.5C 180.216,152.585 180.549,150.919 181.5,149.5C 181.238,150.978 181.571,152.311 182.5,153.5C 183.604,151.611 184.937,149.945 186.5,148.5C 191.663,147.865 196.663,148.532 201.5,150.5 Z"/></g>
<g><path style="opacity:1" fill="#806f56" d="M 155.5,153.5 C 155.842,152.662 156.508,152.328 157.5,152.5C 157.5,152.833 157.5,153.167 157.5,153.5C 157.5,154.833 157.5,156.167 157.5,157.5C 168.221,158.142 178.554,157.475 188.5,155.5C 188.5,154.167 189.167,153.5 190.5,153.5C 190.5,155.167 190.5,156.833 190.5,158.5C 188.585,158.216 186.919,158.549 185.5,159.5C 184.833,159.5 184.167,159.5 183.5,159.5C 176.963,158.226 170.296,158.226 163.5,159.5C 161.052,158.527 158.385,158.194 155.5,158.5C 156.096,156.602 156.096,154.935 155.5,153.5 Z"/></g>
<g><path style="opacity:1" fill="#64533b" d="M 157.5,153.5 C 158.404,154.209 158.737,155.209 158.5,156.5C 168.582,156.807 178.582,156.474 188.5,155.5C 178.554,157.475 168.221,158.142 157.5,157.5C 157.5,156.167 157.5,154.833 157.5,153.5 Z"/></g>
<g><path style="opacity:1" fill="#bdaa8e" d="M 153.5,153.5 C 154.167,153.5 154.833,153.5 155.5,153.5C 156.096,154.935 156.096,156.602 155.5,158.5C 158.385,158.194 161.052,158.527 163.5,159.5C 159.6,160.43 155.6,160.763 151.5,160.5C 151.767,158.035 152.434,155.701 153.5,153.5 Z"/></g>
<g><path style="opacity:1" fill="#b9a888" d="M 190.5,153.5 C 194.093,154.43 195.759,156.763 195.5,160.5C 191.958,160.813 188.625,160.479 185.5,159.5C 186.919,158.549 188.585,158.216 190.5,158.5C 190.5,156.833 190.5,155.167 190.5,153.5 Z"/></g>
<g><path style="opacity:1" fill="#4d3d2b" d="M 181.5,108.5 C 181.833,108.5 182.167,108.5 182.5,108.5C 182.194,111.385 182.527,114.052 183.5,116.5C 183.185,120.371 183.518,124.038 184.5,127.5C 184.44,128.043 184.107,128.376 183.5,128.5C 182.686,126.234 182.186,123.9 182,121.5C 181.333,125.5 181.333,129.5 182,133.5C 182.71,132.027 183.876,131.36 185.5,131.5C 182.436,134.809 181.769,138.642 183.5,143C 182.044,143.423 181.544,144.256 182,145.5C 186.867,141.398 192.367,140.398 198.5,142.5C 198.5,143.167 198.5,143.833 198.5,144.5C 194.486,144.334 190.486,144.501 186.5,145C 184.34,145.996 182.673,147.496 181.5,149.5C 180.549,150.919 180.216,152.585 180.5,154.5C 182.5,154.5 184.5,154.5 186.5,154.5C 186.085,152.052 187.085,150.719 189.5,150.5C 193.381,151.085 196.047,153.085 197.5,156.5C 197.5,158.5 197.5,160.5 197.5,162.5C 194.302,161.964 191.635,162.631 189.5,164.5C 188.596,165.209 188.263,166.209 188.5,167.5C 186.5,165.833 184.5,164.167 182.5,162.5C 182.5,162.167 182.5,161.833 182.5,161.5C 183.338,161.158 183.672,160.492 183.5,159.5C 184.167,159.5 184.833,159.5 185.5,159.5C 188.625,160.479 191.958,160.813 195.5,160.5C 195.759,156.763 194.093,154.43 190.5,153.5C 189.167,153.5 188.5,154.167 188.5,155.5C 178.582,156.474 168.582,156.807 158.5,156.5C 158.737,155.209 158.404,154.209 157.5,153.5C 157.5,153.167 157.5,152.833 157.5,152.5C 158.167,152.5 158.5,152.167 158.5,151.5C 159.5,151.833 160.167,152.5 160.5,153.5C 161.919,154.451 163.585,154.784 165.5,154.5C 165.5,151.833 165.5,149.167 165.5,146.5C 166.166,149.358 166.833,152.358 167.5,155.5C 168.107,155.376 168.44,155.043 168.5,154.5C 170.167,154.5 171.833,154.5 173.5,154.5C 175.167,154.5 176.833,154.5 178.5,154.5C 178.784,152.585 178.451,150.919 177.5,149.5C 175.034,148.366 172.367,148.199 169.5,149C 168.62,150.356 168.286,151.856 168.5,153.5C 167.532,151.393 167.198,149.059 167.5,146.5C 168.5,146.5 169.5,146.5 170.5,146.5C 170.833,146.5 171.167,146.5 171.5,146.5C 172.833,146.5 174.167,146.5 175.5,146.5C 175.833,146.5 176.167,146.5 176.5,146.5C 177.209,147.404 178.209,147.737 179.5,147.5C 179.5,144.833 179.5,142.167 179.5,139.5C 180.374,129.185 181.041,118.851 181.5,108.5 Z"/></g>
<g><path style="opacity:1" fill="#7d6b4f" d="M 177.5,149.5 C 176.167,149.5 174.833,149.5 173.5,149.5C 173.5,151.167 173.5,152.833 173.5,154.5C 171.833,154.5 170.167,154.5 168.5,154.5C 168.5,154.167 168.5,153.833 168.5,153.5C 168.286,151.856 168.62,150.356 169.5,149C 172.367,148.199 175.034,148.366 177.5,149.5 Z"/></g>
<g><path style="opacity:1" fill="#bdac90" d="M 177.5,149.5 C 178.451,150.919 178.784,152.585 178.5,154.5C 176.833,154.5 175.167,154.5 173.5,154.5C 173.5,152.833 173.5,151.167 173.5,149.5C 174.833,149.5 176.167,149.5 177.5,149.5 Z"/></g>
<g><path style="opacity:1" fill="#898378" d="M 159.5,162.5 C 160.833,164.833 160.833,167.167 159.5,169.5C 159.5,167.5 159.5,165.5 159.5,163.5C 157.219,163.077 155.552,163.744 154.5,165.5C 153.596,164.791 153.263,163.791 153.5,162.5C 155.5,162.5 157.5,162.5 159.5,162.5 Z"/></g>
<g><path style="opacity:1" fill="#675942" d="M 197.5,156.5 C 198.222,156.918 198.722,157.584 199,158.5C 199.464,157.906 199.631,157.239 199.5,156.5C 200.27,159.383 199.437,162.05 197,164.5C 196.503,167.146 196.336,169.813 196.5,172.5C 196.167,173.5 195.5,174.167 194.5,174.5C 194.286,172.856 194.62,171.356 195.5,170C 194.934,169.005 194.267,168.172 193.5,167.5C 194.141,166.518 194.807,165.518 195.5,164.5C 194.667,164.167 193.833,163.833 193,163.5C 191.624,163.684 190.791,164.351 190.5,165.5C 189.833,165.5 189.5,165.167 189.5,164.5C 191.635,162.631 194.302,161.964 197.5,162.5C 197.5,160.5 197.5,158.5 197.5,156.5 Z"/></g>
<g><path style="opacity:1" fill="#8d7e66" d="M 202.5,156.5 C 201.466,160.243 200.132,163.91 198.5,167.5C 199.307,169.578 198.641,171.245 196.5,172.5C 196.336,169.813 196.503,167.146 197,164.5C 199.437,162.05 200.27,159.383 199.5,156.5C 200.541,152.639 201.541,152.639 202.5,156.5 Z"/></g>
<g><path style="opacity:1" fill="#a4916e" d="M 32.5,120.5 C 32.8333,120.5 33.1667,120.5 33.5,120.5C 33.0269,139.239 33.6936,157.905 35.5,176.5C 34.8423,177.398 34.1757,178.398 33.5,179.5C 32.5004,159.845 32.167,140.178 32.5,120.5 Z"/></g>
<g><path style="opacity:1" fill="#beb19b" d="M 201.5,150.5 C 201.56,149.957 201.893,149.624 202.5,149.5C 204.413,156.082 205.747,156.082 206.5,149.5C 206.394,160.739 202.061,170.406 193.5,178.5C 193.167,178.167 192.833,177.833 192.5,177.5C 193.193,176.482 193.859,175.482 194.5,174.5C 195.5,174.167 196.167,173.5 196.5,172.5C 198.641,171.245 199.307,169.578 198.5,167.5C 200.132,163.91 201.466,160.243 202.5,156.5C 203.484,154.402 203.151,152.402 201.5,150.5 Z"/></g>
<g><path style="opacity:1" fill="#897657" d="M 77.5,122.5 C 79.7496,123.13 81.7496,124.13 83.5,125.5C 82.8334,132.345 82.1667,139.345 81.5,146.5C 80.6687,139.189 80.1687,131.856 80,124.5C 79.1671,141.177 79.3337,157.843 80.5,174.5C 82.9159,172.248 84.7493,169.581 86,166.5C 86.4999,153.504 86.6666,140.504 86.5,127.5C 87.4952,139.655 87.8286,151.989 87.5,164.5C 87.4074,174.679 83.0741,182.679 74.5,188.5C 73.6786,185.553 73.1786,182.553 73,179.5C 72.6174,180.056 72.1174,180.389 71.5,180.5C 71.17,173.8 71.5033,167.134 72.5,160.5C 73.8287,166.432 74.8287,172.432 75.5,178.5C 76.1067,178.376 76.44,178.043 76.5,177.5C 77.4968,159.341 77.8302,141.008 77.5,122.5 Z"/></g>
<g><path style="opacity:1" fill="#453929" d="M 184.5,56.5 C 185.167,56.8333 185.833,57.1667 186.5,57.5C 187.338,57.8417 187.672,58.5084 187.5,59.5C 187.167,65.5 186.833,71.5 186.5,77.5C 185.609,85.4847 185.442,93.4847 186,101.5C 189.018,104.886 191.518,108.553 193.5,112.5C 194.776,118.92 195.776,125.253 196.5,131.5C 198.905,134.634 201.072,137.968 203,141.5C 205.846,143.257 208.512,145.257 211,147.5C 211.167,149 211.333,150.5 211.5,152C 208.714,166.073 201.714,177.573 190.5,186.5C 189.094,186.973 188.427,187.973 188.5,189.5C 187.694,190.728 186.694,191.728 185.5,192.5C 182.843,192.935 180.509,193.935 178.5,195.5C 182.039,206.08 178.372,209.58 167.5,206C 166.919,205.107 166.585,204.107 166.5,203C 170.351,195.023 168.018,189.856 159.5,187.5C 158.551,182.26 158.218,176.927 158.5,171.5C 158.833,170.833 159.167,170.167 159.5,169.5C 160.833,167.167 160.833,164.833 159.5,162.5C 156.833,161.833 154.167,161.167 151.5,160.5C 155.6,160.763 159.6,160.43 163.5,159.5C 170.296,158.226 176.963,158.226 183.5,159.5C 183.672,160.492 183.338,161.158 182.5,161.5C 176.824,161.334 171.157,161.501 165.5,162C 163.66,164.826 162.994,167.993 163.5,171.5C 166.5,171.5 169.5,171.5 172.5,171.5C 172.842,172.338 173.508,172.672 174.5,172.5C 174.611,173.117 174.944,173.617 175.5,174C 172.518,174.498 169.518,174.665 166.5,174.5C 164.984,181.153 167.651,184.319 174.5,184C 172.527,184.495 170.527,184.662 168.5,184.5C 168.104,187.044 168.771,189.211 170.5,191C 174.027,191.808 177.36,191.641 180.5,190.5C 183.148,190.262 184.982,188.928 186,186.5C 188.097,180.344 188.93,174.01 188.5,167.5C 188.263,166.209 188.596,165.209 189.5,164.5C 189.5,165.167 189.833,165.5 190.5,165.5C 191.222,166.551 192.222,167.218 193.5,167.5C 194.267,168.172 194.934,169.005 195.5,170C 194.62,171.356 194.286,172.856 194.5,174.5C 193.859,175.482 193.193,176.482 192.5,177.5C 192.833,177.833 193.167,178.167 193.5,178.5C 202.061,170.406 206.394,160.739 206.5,149.5C 204.089,146.663 201.422,144.997 198.5,144.5C 198.5,143.833 198.5,143.167 198.5,142.5C 197.146,138.968 195.146,135.802 192.5,133C 190.467,130.629 188.134,130.129 185.5,131.5C 183.876,131.36 182.71,132.027 182,133.5C 181.333,129.5 181.333,125.5 182,121.5C 182.186,123.9 182.686,126.234 183.5,128.5C 184.107,128.376 184.44,128.043 184.5,127.5C 186.415,127.784 188.081,127.451 189.5,126.5C 189.833,126.5 190.167,126.5 190.5,126.5C 191.902,122.71 191.569,119.044 189.5,115.5C 188.292,112.686 186.792,110.02 185,107.5C 184.637,110.544 184.137,113.544 183.5,116.5C 182.527,114.052 182.194,111.385 182.5,108.5C 183.032,102.848 183.365,97.181 183.5,91.5C 183.36,85.4638 183.693,79.4638 184.5,73.5C 185.482,70.0381 185.815,66.3714 185.5,62.5C 185.167,60.5 184.833,58.5 184.5,56.5 Z"/></g>
<g><path style="opacity:1" fill="#baa482" d="M 182.5,162.5 C 184.5,164.167 186.5,165.833 188.5,167.5C 188.93,174.01 188.097,180.344 186,186.5C 184.982,188.928 183.148,190.262 180.5,190.5C 179.5,190.5 178.5,190.5 177.5,190.5C 177.666,184.824 177.499,179.157 177,173.5C 176.329,172.748 175.496,172.414 174.5,172.5C 173.508,172.672 172.842,172.338 172.5,171.5C 172.5,168.5 172.5,165.5 172.5,162.5C 175.833,162.5 179.167,162.5 182.5,162.5 Z"/></g>
<g><path style="opacity:1" fill="#76664c" d="M 182.5,161.5 C 182.5,161.833 182.5,162.167 182.5,162.5C 179.167,162.5 175.833,162.5 172.5,162.5C 172.5,165.5 172.5,168.5 172.5,171.5C 169.5,171.5 166.5,171.5 163.5,171.5C 162.994,167.993 163.66,164.826 165.5,162C 171.157,161.501 176.824,161.334 182.5,161.5 Z"/></g>
<g><path style="opacity:1" fill="#ab9c7f" d="M 193.5,167.5 C 192.222,167.218 191.222,166.551 190.5,165.5C 190.791,164.351 191.624,163.684 193,163.5C 193.833,163.833 194.667,164.167 195.5,164.5C 194.807,165.518 194.141,166.518 193.5,167.5 Z"/></g>
<g><path style="opacity:1" fill="#827153" d="M 32.5,120.5 C 32.167,140.178 32.5004,159.845 33.5,179.5C 34.1757,178.398 34.8423,177.398 35.5,176.5C 35.5,178.167 35.5,179.833 35.5,181.5C 34.8343,184.028 34.1676,186.694 33.5,189.5C 28.103,185.272 23.603,180.272 20,174.5C 19.172,158.661 19.3387,142.995 20.5,127.5C 20.3334,140.837 20.5001,154.171 21,167.5C 22.9066,171.41 25.5733,174.744 29,177.5C 29.4999,159.17 29.6666,140.836 29.5,122.5C 30.2679,123.263 30.7679,124.263 31,125.5C 31.1981,123.618 31.6981,121.952 32.5,120.5 Z"/></g>
<g><path style="opacity:1" fill="#ac9a7b" d="M 92.5,121.5 C 93.6622,139.995 93.8288,158.662 93,177.5C 91.9614,178.244 91.4614,179.244 91.5,180.5C 86.1939,187.806 79.8606,194.139 72.5,199.5C 71.475,199.103 71.3083,198.437 72,197.5C 75.1301,195.372 77.9634,192.872 80.5,190C 78.9532,189.667 77.6199,190.167 76.5,191.5C 75.8933,191.376 75.56,191.043 75.5,190.5C 81.26,186.306 85.5933,180.973 88.5,174.5C 89.4731,172.052 89.8064,169.385 89.5,166.5C 91.13,164.974 91.9633,162.974 92,160.5C 92.4999,147.504 92.6666,134.504 92.5,121.5 Z"/></g>
<g><path style="opacity:1" fill="#faf7f4" d="M 159.5,169.5 C 159.167,170.167 158.833,170.833 158.5,171.5C 157.883,171.611 157.383,171.944 157,172.5C 156.667,175.833 156.333,179.167 156,182.5C 154.062,177.78 154.229,173.113 156.5,168.5C 156.145,167.478 155.478,166.811 154.5,166.5C 154.5,166.167 154.5,165.833 154.5,165.5C 155.552,163.744 157.219,163.077 159.5,163.5C 159.5,165.5 159.5,167.5 159.5,169.5 Z"/></g>
<g><path style="opacity:1" fill="#7a6b4e" d="M 174.5,172.5 C 175.496,172.414 176.329,172.748 177,173.5C 177.499,179.157 177.666,184.824 177.5,190.5C 178.5,190.5 179.5,190.5 180.5,190.5C 177.36,191.641 174.027,191.808 170.5,191C 168.771,189.211 168.104,187.044 168.5,184.5C 170.527,184.662 172.527,184.495 174.5,184C 167.651,184.319 164.984,181.153 166.5,174.5C 169.518,174.665 172.518,174.498 175.5,174C 174.944,173.617 174.611,173.117 174.5,172.5 Z"/></g>
<g><path style="opacity:1" fill="#847354" d="M 59.5,112.5 C 60.1667,112.5 60.8333,112.5 61.5,112.5C 61.0785,128.549 61.5785,144.549 63,160.5C 63.4999,145.17 63.6666,129.837 63.5,114.5C 64.4916,114.328 65.1583,114.662 65.5,115.5C 65.5,138.167 65.5,160.833 65.5,183.5C 67.3103,195.19 62.3103,200.69 50.5,200C 46.7996,199.157 43.7996,197.324 41.5,194.5C 41.5,190.833 41.5,187.167 41.5,183.5C 47.3778,184.721 53.2111,184.721 59,183.5C 59.5,159.836 59.6666,136.169 59.5,112.5 Z"/></g>
<g><path style="opacity:1" fill="#70624f" d="M 161.5,175.5 C 162.765,176.514 163.431,178.014 163.5,180C 163.167,181.5 162.833,183 162.5,184.5C 161.516,181.572 161.183,178.572 161.5,175.5 Z"/></g>
<g><path style="opacity:1" fill="#d2cec9" d="M 154.5,166.5 C 155.478,166.811 156.145,167.478 156.5,168.5C 154.229,173.113 154.062,177.78 156,182.5C 156.333,179.167 156.667,175.833 157,172.5C 157.383,171.944 157.883,171.611 158.5,171.5C 158.218,176.927 158.551,182.26 159.5,187.5C 157.285,188.924 156.285,191.091 156.5,194C 156.934,197.233 157.601,200.4 158.5,203.5C 155.242,199.032 154.242,194.032 155.5,188.5C 154.972,184.054 153.972,179.721 152.5,175.5C 153.642,172.601 154.308,169.601 154.5,166.5 Z"/></g>
<g><path style="opacity:1" fill="#a08e72" d="M 14.5,121.5 C 14.3334,134.504 14.5001,147.504 15,160.5C 15.2022,162.256 15.7022,163.922 16.5,165.5C 17.1667,152.34 17.8333,139.34 18.5,126.5C 18.3334,142.837 18.5001,159.17 19,175.5C 22.3623,181.241 26.5289,186.241 31.5,190.5C 31.44,191.043 31.1067,191.376 30.5,191.5C 29.3801,190.167 28.0468,189.667 26.5,190C 28.3702,192.04 30.3702,193.873 32.5,195.5C 34.175,197.002 36.0083,198.335 38,199.5C 38.6917,200.437 38.525,201.103 37.5,201.5C 27.8316,195.331 19.9982,187.331 14,177.5C 13.1712,158.662 13.3378,139.995 14.5,121.5 Z"/></g>
<g><path style="opacity:1" fill="#999186" d="M 190.5,186.5 C 190.573,188.027 189.906,189.027 188.5,189.5C 188.427,187.973 189.094,186.973 190.5,186.5 Z"/></g>
<g><path style="opacity:1" fill="#bebab1" d="M 185.5,192.5 C 183.824,194.834 181.491,195.834 178.5,195.5C 180.509,193.935 182.843,192.935 185.5,192.5 Z"/></g>
<g><path style="opacity:1" fill="#7d6a51" d="M 172.5,198.5 C 172.5,200.5 172.5,202.5 172.5,204.5C 171.5,204.5 170.5,204.5 169.5,204.5C 169.5,202.5 169.5,200.5 169.5,198.5C 170.5,198.5 171.5,198.5 172.5,198.5 Z"/></g>
<g><path style="opacity:1" fill="#a39074" d="M 176.5,198.5 C 174.744,199.552 174.077,201.219 174.5,203.5C 175.5,203.5 176.5,203.5 177.5,203.5C 176.081,204.451 174.415,204.784 172.5,204.5C 172.5,202.5 172.5,200.5 172.5,198.5C 173.961,197.314 175.295,197.314 176.5,198.5 Z"/></g>
<g><path style="opacity:1" fill="#d8c8ad" d="M 176.5,198.5 C 177.451,199.919 177.784,201.585 177.5,203.5C 176.5,203.5 175.5,203.5 174.5,203.5C 174.077,201.219 174.744,199.552 176.5,198.5 Z"/></g>
<g><path style="opacity:1" fill="#817871" d="M 42.5,209.5 C 44.0269,209.427 45.0269,210.094 45.5,211.5C 43.9731,211.573 42.9731,210.906 42.5,209.5 Z"/></g>
<g><path style="opacity:1" fill="#c3bbb3" d="M 64.5,219.5 C 64.8333,216.833 65.1667,214.167 65.5,211.5C 64.1667,211.5 62.8333,211.5 61.5,211.5C 63.5191,210.067 65.6857,208.733 68,207.5C 67.2778,211.598 66.1111,215.598 64.5,219.5 Z"/></g>
<g><path style="opacity:1" fill="#aeaca5" d="M 163.5,219.5 C 164.147,220.274 164.48,221.274 164.5,222.5C 164.66,224.355 163.993,225.688 162.5,226.5C 163.219,224.236 163.552,221.903 163.5,219.5 Z"/></g>
<g><path style="opacity:1" fill="#403424" d="M 17.5,119.5 C 16.7095,120.401 15.7095,121.068 14.5,121.5C 13.3378,139.995 13.1712,158.662 14,177.5C 19.9982,187.331 27.8316,195.331 37.5,201.5C 42.1598,205.502 47.4932,208.502 53.5,210.5C 56.3489,209.914 58.6822,208.58 60.5,206.5C 65.4501,205.695 69.4501,203.362 72.5,199.5C 79.8606,194.139 86.1939,187.806 91.5,180.5C 92.1499,180.196 92.8165,179.863 93.5,179.5C 94.3321,169.851 94.8321,160.184 95,150.5C 95.8557,154.624 96.3557,158.79 96.5,163C 95.9291,169.516 95.5957,176.016 95.5,182.5C 98.1667,182.5 100.833,182.5 103.5,182.5C 128.501,186.841 139.834,176.174 137.5,150.5C 136.447,157.266 134.947,163.933 133,170.5C 130.618,172.259 128.452,174.259 126.5,176.5C 126.167,176.333 125.833,176.167 125.5,176C 131.024,168.02 133.524,159.187 133,149.5C 123.449,145.596 113.616,144.596 103.5,146.5C 102.211,145.363 101.211,144.03 100.5,142.5C 101.306,141.272 102.306,140.272 103.5,139.5C 110.136,138.202 116.803,138.202 123.5,139.5C 125.563,140.372 127.563,141.538 129.5,143C 132.289,143.241 134.956,143.908 137.5,145C 145.226,146.637 151.226,144.137 155.5,137.5C 156.167,138.167 156.833,138.833 157.5,139.5C 159.082,137.423 160.082,135.09 160.5,132.5C 161.129,129.603 162.129,126.936 163.5,124.5C 165.192,130.96 166.526,137.626 167.5,144.5C 167.5,145.167 167.5,145.833 167.5,146.5C 167.198,149.059 167.532,151.393 168.5,153.5C 168.5,153.833 168.5,154.167 168.5,154.5C 168.44,155.043 168.107,155.376 167.5,155.5C 166.833,152.358 166.166,149.358 165.5,146.5C 165.768,144.901 165.434,143.568 164.5,142.5C 163.998,140.915 162.998,140.415 161.5,141C 159.623,143.921 157.623,146.754 155.5,149.5C 156.602,150.176 157.602,150.842 158.5,151.5C 158.5,152.167 158.167,152.5 157.5,152.5C 156.508,152.328 155.842,152.662 155.5,153.5C 154.833,153.5 154.167,153.5 153.5,153.5C 149.297,149.702 144.964,149.536 140.5,153C 140.966,154.299 140.966,155.799 140.5,157.5C 143.692,159.107 146.692,158.774 149.5,156.5C 150.172,157.949 150.839,159.282 151.5,160.5C 154.167,161.167 156.833,161.833 159.5,162.5C 157.5,162.5 155.5,162.5 153.5,162.5C 153.263,163.791 153.596,164.791 154.5,165.5C 154.5,165.833 154.5,166.167 154.5,166.5C 154.308,169.601 153.642,172.601 152.5,175.5C 153.972,179.721 154.972,184.054 155.5,188.5C 154.242,194.032 155.242,199.032 158.5,203.5C 160.565,208.696 162.232,214.03 163.5,219.5C 163.552,221.903 163.219,224.236 162.5,226.5C 160.855,227.479 159.521,228.812 158.5,230.5C 160.758,233.357 162.758,236.357 164.5,239.5C 164.427,241.027 165.094,242.027 166.5,242.5C 166.5,242.833 166.5,243.167 166.5,243.5C 166.528,248.862 166.194,254.195 165.5,259.5C 163.078,261.286 163.078,262.952 165.5,264.5C 170.767,268.144 176.101,271.811 181.5,275.5C 184.308,281.149 185.141,287.149 184,293.5C 183.005,294.066 182.172,294.733 181.5,295.5C 179.326,295.75 177.659,296.75 176.5,298.5C 171.761,299.185 167.095,300.185 162.5,301.5C 154.043,302.645 145.71,303.645 137.5,304.5C 119.542,305.808 101.542,305.808 83.5,304.5C 77.6646,303.305 71.6646,302.305 65.5,301.5C 63.7839,301.371 62.1172,301.038 60.5,300.5C 56.767,298.589 52.767,297.256 48.5,296.5C 46.629,296.141 45.129,295.141 44,293.5C 43.3333,289.833 43.3333,286.167 44,282.5C 44.6979,281.309 45.5313,280.309 46.5,279.5C 47.4918,277.544 48.4918,275.544 49.5,273.5C 54.1019,270.524 58.7686,267.524 63.5,264.5C 64.3857,263.675 64.719,262.675 64.5,261.5C 62.8754,255.969 62.2087,250.303 62.5,244.5C 64.2794,239.608 66.6128,234.941 69.5,230.5C 67.6667,228.167 65.8333,225.833 64,223.5C 63.235,221.934 63.4017,220.601 64.5,219.5C 66.1111,215.598 67.2778,211.598 68,207.5C 65.6857,208.733 63.5191,210.067 61.5,211.5C 56.085,215.396 50.7516,215.396 45.5,211.5C 45.0269,210.094 44.0269,209.427 42.5,209.5C 27.9615,203.13 17.1282,192.797 10,178.5C 9.33333,158.833 9.33333,139.167 10,119.5C 11.1127,118.695 12.2794,118.028 13.5,117.5C 14.8474,116.972 16.1807,116.805 17.5,117C 16.4019,117.77 16.4019,118.603 17.5,119.5 Z"/></g>
<g><path style="opacity:1" fill="#7d6d4f" d="M 139.5,226.5 C 133.846,236.018 125.346,239.685 114,237.5C 108.445,237.52 102.945,237.02 97.5,236C 93.5299,233.869 90.8633,230.702 89.5,226.5C 106.164,226.48 122.831,226.48 139.5,226.5 Z"/></g>
<g><path style="opacity:1" fill="#675740" d="M 89.5,222.5 C 89.8333,222.5 90.1667,222.5 90.5,222.5C 97.4376,224.007 104.604,224.673 112,224.5C 120.71,224.58 129.21,223.913 137.5,222.5C 139.5,222.167 141.5,221.833 143.5,221.5C 147.493,222.187 151.493,221.521 155.5,219.5C 155.954,223.769 154.288,227.269 150.5,230C 149.5,230.667 148.5,230.667 147.5,230C 150.206,227.629 152.539,224.963 154.5,222C 149.282,222.722 144.282,224.222 139.5,226.5C 122.831,226.48 106.164,226.48 89.5,226.5C 85.4098,225.044 81.2431,223.711 77,222.5C 76.5,222.833 76,223.167 75.5,223.5C 76.711,225.422 78.0443,227.255 79.5,229C 76.5397,228.394 74.373,226.561 73,223.5C 72.51,222.207 72.3433,220.873 72.5,219.5C 77.3623,221.23 82.3623,222.563 87.5,223.5C 88.4164,223.457 89.0831,223.124 89.5,222.5 Z"/></g>
<g><path style="opacity:1" fill="#e3d5bb" d="M 140.5,201.5 C 141.451,202.919 141.784,204.585 141.5,206.5C 141.259,208.898 141.926,210.898 143.5,212.5C 144.3,214.607 144.967,216.774 145.5,219C 145.316,220.376 144.649,221.209 143.5,221.5C 141.5,221.833 139.5,222.167 137.5,222.5C 137.062,222.565 136.728,222.399 136.5,222C 139.228,221.473 140.561,219.806 140.5,217C 139.282,211.537 138.782,206.037 139,200.5C 139.383,201.056 139.883,201.389 140.5,201.5 Z"/></g>
<g><path style="opacity:1" fill="#9b8e79" d="M 141.5,206.5 C 143.074,208.102 143.741,210.102 143.5,212.5C 141.926,210.898 141.259,208.898 141.5,206.5 Z"/></g>
<g><path style="opacity:1" fill="#e1d3b9" d="M 91.5,200.5 C 90.786,206.041 89.786,211.541 88.5,217C 87.9876,220.154 89.3209,221.82 92.5,222C 91.9056,222.464 91.2389,222.631 90.5,222.5C 90.1667,222.5 89.8333,222.5 89.5,222.5C 87.5,222.167 85.5,221.833 83.5,221.5C 84.8497,214.101 86.5164,206.767 88.5,199.5C 89.791,199.263 90.791,199.596 91.5,200.5 Z"/></g>
<g><path style="opacity:1" fill="#c7bba9" d="M 76.5,201.5 C 77.4972,201.47 78.1639,201.97 78.5,203C 76.7419,206.768 75.0752,210.601 73.5,214.5C 72.9298,209.918 73.9298,205.585 76.5,201.5 Z"/></g>
<g><path style="opacity:1" fill="#70604b" d="M 32.5,195.5 C 32.56,194.957 32.8933,194.624 33.5,194.5C 38.3977,197.777 43.3977,200.777 48.5,203.5C 46.3523,203.389 46.019,204.056 47.5,205.5C 48.6651,206.584 49.9984,207.417 51.5,208C 54.5752,208.139 57.5752,207.639 60.5,206.5C 58.6822,208.58 56.3489,209.914 53.5,210.5C 47.4932,208.502 42.1598,205.502 37.5,201.5C 38.525,201.103 38.6917,200.437 38,199.5C 36.0083,198.335 34.175,197.002 32.5,195.5 Z"/></g>
<g><path style="opacity:1" fill="#c9beab" d="M 148.5,196.5 C 149.496,196.414 150.329,196.748 151,197.5C 153.034,202.602 154.867,207.769 156.5,213C 156.167,213.5 155.833,214 155.5,214.5C 152.758,208.598 150.424,202.598 148.5,196.5 Z"/></g>
<g><path style="opacity:1" fill="#bda683" d="M 140.5,201.5 C 139.883,201.389 139.383,201.056 139,200.5C 138.782,206.037 139.282,211.537 140.5,217C 140.561,219.806 139.228,221.473 136.5,222C 136.728,222.399 137.062,222.565 137.5,222.5C 129.21,223.913 120.71,224.58 112,224.5C 104.604,224.673 97.4376,224.007 90.5,222.5C 91.2389,222.631 91.9056,222.464 92.5,222C 89.3209,221.82 87.9876,220.154 88.5,217C 89.786,211.541 90.786,206.041 91.5,200.5C 107.415,203.48 123.248,203.147 139,199.5C 140.03,199.836 140.53,200.503 140.5,201.5 Z"/></g>
<g><path style="opacity:1" fill="#483a26" d="M 60.5,206.5 C 57.5752,207.639 54.5752,208.139 51.5,208C 49.9984,207.417 48.6651,206.584 47.5,205.5C 46.019,204.056 46.3523,203.389 48.5,203.5C 50.1379,204.159 51.8045,204.826 53.5,205.5C 58.3787,202.719 63.3787,200.552 68.5,199C 65.5267,201.294 62.86,203.794 60.5,206.5 Z"/></g>
<g><path style="opacity:1" fill="#897860" d="M 31.5,190.5 C 38.1461,195.83 45.4794,200.163 53.5,203.5C 61.4881,200.177 68.8214,195.843 75.5,190.5C 75.56,191.043 75.8933,191.376 76.5,191.5C 77.6199,190.167 78.9532,189.667 80.5,190C 77.9634,192.872 75.1301,195.372 72,197.5C 71.3083,198.437 71.475,199.103 72.5,199.5C 69.4501,203.362 65.4501,205.695 60.5,206.5C 62.86,203.794 65.5267,201.294 68.5,199C 63.3787,200.552 58.3787,202.719 53.5,205.5C 51.8045,204.826 50.1379,204.159 48.5,203.5C 43.3977,200.777 38.3977,197.777 33.5,194.5C 32.8933,194.624 32.56,194.957 32.5,195.5C 30.3702,193.873 28.3702,192.04 26.5,190C 28.0468,189.667 29.3801,190.167 30.5,191.5C 31.1067,191.376 31.44,191.043 31.5,190.5 Z"/></g>
<g><path style="opacity:1" fill="#4e3f28" d="M 19.5,125.5 C 20.4916,125.328 21.1583,125.662 21.5,126.5C 20.8333,126.5 20.5,126.833 20.5,127.5C 19.3387,142.995 19.172,158.661 20,174.5C 23.603,180.272 28.103,185.272 33.5,189.5C 34.1676,186.694 34.8343,184.028 35.5,181.5C 35.335,184.85 35.5017,188.183 36,191.5C 36.3826,192.056 36.8826,192.389 37.5,192.5C 38.6715,193.345 40.0048,194.011 41.5,194.5C 43.7996,197.324 46.7996,199.157 50.5,200C 62.3103,200.69 67.3103,195.19 65.5,183.5C 66.1667,183.167 66.8333,182.833 67.5,182.5C 67.1774,186.226 67.5108,189.893 68.5,193.5C 69.4776,193.023 70.3109,192.357 71,191.5C 71.4983,188.183 71.665,184.85 71.5,181.5C 71.5,181.167 71.5,180.833 71.5,180.5C 72.1174,180.389 72.6174,180.056 73,179.5C 73.1786,182.553 73.6786,185.553 74.5,188.5C 83.0741,182.679 87.4074,174.679 87.5,164.5C 88.4794,167.625 88.8128,170.958 88.5,174.5C 85.5933,180.973 81.26,186.306 75.5,190.5C 68.8214,195.843 61.4881,200.177 53.5,203.5C 45.4794,200.163 38.1461,195.83 31.5,190.5C 26.5289,186.241 22.3623,181.241 19,175.5C 18.5001,159.17 18.3334,142.837 18.5,126.5C 18.5,125.833 18.8333,125.5 19.5,125.5 Z"/></g>
<g><path style="opacity:1" fill="#7e6e54" d="M 71.5,181.5 C 71.665,184.85 71.4983,188.183 71,191.5C 70.3109,192.357 69.4776,193.023 68.5,193.5C 67.5108,189.893 67.1774,186.226 67.5,182.5C 68.8333,182.167 70.1667,181.833 71.5,181.5 Z"/></g>
<g><path style="opacity:1" fill="#7d6d51" d="M 103.5,182.5 C 101.645,181.31 99.8121,179.977 98,178.5C 97.3333,176.5 97.3333,174.5 98,172.5C 98.956,173.579 99.7894,174.745 100.5,176C 101.167,176.667 101.833,176.667 102.5,176C 100.524,173.853 99.1906,171.353 98.5,168.5C 97.3358,161.858 97.1691,155.192 98,148.5C 99.7255,147.536 101.559,146.869 103.5,146.5C 113.616,144.596 123.449,145.596 133,149.5C 133.524,159.187 131.024,168.02 125.5,176C 125.833,176.167 126.167,176.333 126.5,176.5C 128.452,174.259 130.618,172.259 133,170.5C 134.947,163.933 136.447,157.266 137.5,150.5C 139.834,176.174 128.501,186.841 103.5,182.5 Z"/></g>
<g><path style="opacity:1" fill="#5b4f38" d="M 137.5,169.5 C 141.384,170.793 145.384,171.459 149.5,171.5C 149.5,172.833 149.5,174.167 149.5,175.5C 146.86,175.954 144.527,177.121 142.5,179C 138.93,180.31 135.263,181.143 131.5,181.5C 132.677,178.962 134.344,176.629 136.5,174.5C 137.452,172.955 137.785,171.288 137.5,169.5 Z"/></g>
<g><path style="opacity:1" fill="#c0aa87" d="M 106.5,147.5 C 110.514,147.334 114.514,147.501 118.5,148C 122.197,150.092 126.197,151.259 130.5,151.5C 130.041,160.582 126.708,168.415 120.5,175C 121.167,175.333 121.833,175.667 122.5,176C 116.869,179.08 111.203,179.08 105.5,176C 105.957,175.586 106.291,175.086 106.5,174.5C 100.466,167.735 97.7994,159.735 98.5,150.5C 101.542,150.267 104.208,149.267 106.5,147.5 Z"/></g>
<g><path style="opacity:1" fill="#e3d0b2" d="M 107.5,160.5 C 109.167,160.5 110.833,160.5 112.5,160.5C 112.5,161.833 112.5,163.167 112.5,164.5C 110.833,164.5 109.167,164.5 107.5,164.5C 107.5,163.167 107.5,161.833 107.5,160.5 Z"/></g>
<g><path style="opacity:1" fill="#f2e5c8" d="M 111.5,152.5 C 114.85,152.335 118.183,152.502 121.5,153C 124.167,155 124.167,157 121.5,159C 118.167,159.667 114.833,159.667 111.5,159C 108.939,156.844 108.939,154.677 111.5,152.5 Z"/></g>
<g><path style="opacity:1" fill="#bcb5af" d="M 164.5,142.5 C 165.434,143.568 165.768,144.901 165.5,146.5C 165.5,149.167 165.5,151.833 165.5,154.5C 163.585,154.784 161.919,154.451 160.5,153.5C 161.833,153.5 163.167,153.5 164.5,153.5C 164.5,149.833 164.5,146.167 164.5,142.5 Z"/></g>
<g><path style="opacity:1" fill="#f0ecea" d="M 164.5,142.5 C 164.5,146.167 164.5,149.833 164.5,153.5C 163.167,153.5 161.833,153.5 160.5,153.5C 160.167,152.5 159.5,151.833 158.5,151.5C 157.602,150.842 156.602,150.176 155.5,149.5C 157.623,146.754 159.623,143.921 161.5,141C 162.998,140.415 163.998,140.915 164.5,142.5 Z"/></g>
<g><path style="opacity:1" fill="#7b6b4f" d="M 160.5,132.5 C 160.082,135.09 159.082,137.423 157.5,139.5C 156.833,138.833 156.167,138.167 155.5,137.5C 151.226,144.137 145.226,146.637 137.5,145C 134.956,143.908 132.289,143.241 129.5,143C 127.563,141.538 125.563,140.372 123.5,139.5C 130.827,140.205 138.16,140.372 145.5,140C 150.778,139.696 154.778,137.363 157.5,133C 158.448,132.517 159.448,132.351 160.5,132.5 Z"/></g>
<g><path style="opacity:1" fill="#baa47f" d="M 83.5,125.5 C 84.7095,125.932 85.7095,126.599 86.5,127.5C 86.6666,140.504 86.4999,153.504 86,166.5C 84.7493,169.581 82.9159,172.248 80.5,174.5C 79.3337,157.843 79.1671,141.177 80,124.5C 80.1687,131.856 80.6687,139.189 81.5,146.5C 82.1667,139.345 82.8334,132.345 83.5,125.5 Z"/></g>
<g><path style="opacity:1" fill="#827257" d="M 133.5,129.5 C 135.599,130.37 135.932,131.703 134.5,133.5C 131.633,134.774 128.633,135.607 125.5,136C 116.465,136.748 107.465,136.581 98.5,135.5C 98.3398,137.199 98.5065,138.866 99,140.5C 100.356,139.62 101.856,139.286 103.5,139.5C 102.306,140.272 101.306,141.272 100.5,142.5C 99.5,142.5 98.5,142.5 97.5,142.5C 97.5,139.5 97.5,136.5 97.5,133.5C 109.573,135.102 121.573,134.769 133.5,132.5C 133.5,131.5 133.5,130.5 133.5,129.5 Z"/></g>
<g><path style="opacity:1" fill="#e8d6b5" d="M 146.5,133.5 C 147.376,133.369 148.043,133.702 148.5,134.5C 145.29,137.222 141.624,138.056 137.5,137C 140.865,136.495 143.865,135.328 146.5,133.5 Z"/></g>
<g><path style="opacity:1" fill="#817156" d="M 128.5,126.5 C 129.451,127.919 129.784,129.585 129.5,131.5C 127.5,131.5 125.5,131.5 123.5,131.5C 123.5,129.833 123.5,128.167 123.5,126.5C 123.81,125.262 124.31,125.262 125,126.5C 125.49,127.793 125.657,129.127 125.5,130.5C 126.5,130.5 127.5,130.5 128.5,130.5C 128.5,129.167 128.5,127.833 128.5,126.5 Z"/></g>
<g><path style="opacity:1" fill="#73624a" d="M 104.5,131.5 C 102.5,131.5 100.5,131.5 98.5,131.5C 98.2155,129.585 98.5489,127.919 99.5,126.5C 99.5,127.833 99.5,129.167 99.5,130.5C 100.5,130.5 101.5,130.5 102.5,130.5C 103.962,123.991 104.629,124.325 104.5,131.5 Z"/></g>
<g><path style="opacity:1" fill="#bda482" d="M 123.5,126.5 C 123.5,128.167 123.5,129.833 123.5,131.5C 117.5,131.5 111.5,131.5 105.5,131.5C 105.5,129.167 105.5,126.833 105.5,124.5C 111.792,123.947 117.792,124.614 123.5,126.5 Z"/></g>
<g><path style="opacity:1" fill="#bda684" d="M 90.5,237.5 C 106.487,241.427 122.487,241.427 138.5,237.5C 142.447,239.279 143.947,242.279 143,246.5C 140.28,251.551 136.113,254.718 130.5,256C 131.448,256.483 132.448,256.649 133.5,256.5C 120.344,257.496 107.01,257.829 93.5,257.5C 93.5,257.167 93.5,256.833 93.5,256.5C 94.8734,256.657 96.2068,256.49 97.5,256C 90.1774,253.702 86.344,248.869 86,241.5C 87.3968,239.93 88.8968,238.596 90.5,237.5 Z"/></g>
<g><path style="opacity:1" fill="#a9a19a" d="M 164.5,239.5 C 165.906,239.973 166.573,240.973 166.5,242.5C 165.094,242.027 164.427,241.027 164.5,239.5 Z"/></g>
<g><path style="opacity:1" fill="#676157" d="M 62.5,244.5 C 62.2087,250.303 62.8754,255.969 64.5,261.5C 63.8826,261.389 63.3826,261.056 63,260.5C 61.9289,256.716 61.0955,252.882 60.5,249C 60.3068,246.992 60.9735,245.492 62.5,244.5 Z"/></g>
<g><path style="opacity:1" fill="#554935" d="M 81.5,240.5 C 81.3359,243.187 81.5026,245.854 82,248.5C 82.7475,250.751 84.2475,252.084 86.5,252.5C 83.2518,253.541 80.2518,252.874 77.5,250.5C 78.5,250.5 79.5,250.5 80.5,250.5C 80.41,248.304 80.0767,246.137 79.5,244C 79.3866,242.301 80.0532,241.134 81.5,240.5 Z"/></g>
<g><path style="opacity:1" fill="#ebddc3" d="M 90.5,237.5 C 88.8968,238.596 87.3968,239.93 86,241.5C 86.344,248.869 90.1774,253.702 97.5,256C 96.2068,256.49 94.8734,256.657 93.5,256.5C 91.5648,255.85 89.5648,255.517 87.5,255.5C 87.1667,255.5 86.8333,255.5 86.5,255.5C 90.3615,254.541 90.3615,253.541 86.5,252.5C 84.2475,252.084 82.7475,250.751 82,248.5C 81.5026,245.854 81.3359,243.187 81.5,240.5C 83.8453,237.925 86.8453,236.925 90.5,237.5 Z"/></g>
<g><path style="opacity:1" fill="#726552" d="M 152.5,252.5 C 152.158,251.662 151.492,251.328 150.5,251.5C 152.826,249.67 155.493,248.337 158.5,247.5C 159.506,247.938 159.506,248.604 158.5,249.5C 156.482,250.509 154.482,251.509 152.5,252.5 Z"/></g>
<g><path style="opacity:1" fill="#afa18e" d="M 77.5,250.5 C 80.2518,252.874 83.2518,253.541 86.5,252.5C 90.3615,253.541 90.3615,254.541 86.5,255.5C 84.1055,254.985 81.7722,254.319 79.5,253.5C 77.5767,253.205 75.9101,252.372 74.5,251C 75.448,250.517 76.448,250.351 77.5,250.5 Z"/></g>
<g><path style="opacity:1" fill="#ae9f89" d="M 150.5,251.5 C 151.492,251.328 152.158,251.662 152.5,252.5C 151.609,253.11 150.609,253.443 149.5,253.5C 146.63,254.634 143.63,255.3 140.5,255.5C 140.082,254.778 139.416,254.278 138.5,254C 139.901,253.59 141.234,253.09 142.5,252.5C 145.096,253.209 147.763,252.875 150.5,251.5 Z"/></g>
<g><path style="opacity:1" fill="#e4d6bd" d="M 138.5,237.5 C 146.4,237.234 149.233,240.901 147,248.5C 145.951,250.384 144.451,251.718 142.5,252.5C 141.234,253.09 139.901,253.59 138.5,254C 139.416,254.278 140.082,254.778 140.5,255.5C 138.236,256.219 135.903,256.552 133.5,256.5C 132.448,256.649 131.448,256.483 130.5,256C 136.113,254.718 140.28,251.551 143,246.5C 143.947,242.279 142.447,239.279 138.5,237.5 Z"/></g>
<g><path style="opacity:1" fill="#767067" d="M 166.5,243.5 C 167.94,244.946 168.607,246.779 168.5,249C 168.176,252.81 167.176,256.31 165.5,259.5C 166.194,254.195 166.528,248.862 166.5,243.5 Z"/></g>
<g><path style="opacity:1" fill="#665840" d="M 79.5,253.5 C 81.7722,254.319 84.1055,254.985 86.5,255.5C 86.8333,255.5 87.1667,255.5 87.5,255.5C 87.9175,256.222 88.5842,256.722 89.5,257C 87.8333,257.333 86.1667,257.667 84.5,258C 85.1667,258.333 85.8333,258.667 86.5,259C 85.1667,259.667 85.1667,260.333 86.5,261C 84.0588,261.036 82.0588,261.869 80.5,263.5C 82.6432,265.21 84.9765,266.543 87.5,267.5C 77.946,266.917 71.6126,262.25 68.5,253.5C 72.2006,253.967 75.8673,253.967 79.5,253.5 Z"/></g>
<g><path style="opacity:1" fill="#7d6e50" d="M 87.5,255.5 C 89.5648,255.517 91.5648,255.85 93.5,256.5C 93.5,256.833 93.5,257.167 93.5,257.5C 89.551,257.693 89.551,258.193 93.5,259C 99.4725,259.83 105.472,260.33 111.5,260.5C 122.571,259.948 133.571,259.114 144.5,258C 143.5,258.333 142.5,258.667 141.5,259C 142.779,260.646 144.445,261.813 146.5,262.5C 144.887,263.427 143.221,264.261 141.5,265C 140.748,265.671 140.414,266.504 140.5,267.5C 122.931,271.461 105.265,271.461 87.5,267.5C 84.9765,266.543 82.6432,265.21 80.5,263.5C 82.0588,261.869 84.0588,261.036 86.5,261C 85.1667,260.333 85.1667,259.667 86.5,259C 85.8333,258.667 85.1667,258.333 84.5,258C 86.1667,257.667 87.8333,257.333 89.5,257C 88.5842,256.722 87.9175,256.222 87.5,255.5 Z"/></g>
<g><path style="opacity:1" fill="#b2aca3" d="M 165.5,259.5 C 165.5,261.167 165.5,262.833 165.5,264.5C 163.078,262.952 163.078,261.286 165.5,259.5 Z"/></g>
<g><path style="opacity:1" fill="#6b5c43" d="M 140.5,267.5 C 140.414,266.504 140.748,265.671 141.5,265C 143.221,264.261 144.887,263.427 146.5,262.5C 144.445,261.813 142.779,260.646 141.5,259C 142.5,258.667 143.5,258.333 144.5,258C 133.571,259.114 122.571,259.948 111.5,260.5C 105.472,260.33 99.4725,259.83 93.5,259C 89.551,258.193 89.551,257.693 93.5,257.5C 107.01,257.829 120.344,257.496 133.5,256.5C 135.903,256.552 138.236,256.219 140.5,255.5C 143.63,255.3 146.63,254.634 149.5,253.5C 149.735,254.097 150.235,254.43 151,254.5C 154.137,253.639 157.303,252.973 160.5,252.5C 159.987,255.86 158.653,258.86 156.5,261.5C 151.354,264.076 146.021,266.076 140.5,267.5 Z"/></g>
<g><path style="opacity:1" fill="#bda684" d="M 80.5,268.5 C 83.9861,270.106 87.6528,271.106 91.5,271.5C 96.3365,272.646 101.003,273.979 105.5,275.5C 103.847,275.66 102.514,276.326 101.5,277.5C 95.4973,279.001 89.8307,281.334 84.5,284.5C 82.487,282.503 80.1537,280.836 77.5,279.5C 76.2887,278.126 75.2887,276.626 74.5,275C 76.014,272.322 78.014,270.155 80.5,268.5 Z"/></g>
<g><path style="opacity:1" fill="#78664b" d="M 91.5,271.5 C 96.8518,271.946 102.185,272.613 107.5,273.5C 107.145,274.522 106.478,275.189 105.5,275.5C 101.003,273.979 96.3365,272.646 91.5,271.5 Z"/></g>
<g><path style="opacity:1" fill="#b9a382" d="M 148.5,268.5 C 150.727,270.449 152.727,272.616 154.5,275C 152.023,278.913 148.689,281.913 144.5,284C 144.728,284.399 145.062,284.565 145.5,284.5C 140.833,285.167 136.167,285.833 131.5,286.5C 126.305,286.821 121.305,286.487 116.5,285.5C 122.5,281.49 128.167,276.99 133.5,272C 138.586,271.137 143.586,269.97 148.5,268.5 Z"/></g>
<g><path style="opacity:1" fill="#d9cbb2" d="M 80.5,268.5 C 78.014,270.155 76.014,272.322 74.5,275C 75.2887,276.626 76.2887,278.126 77.5,279.5C 80.1537,280.836 82.487,282.503 84.5,284.5C 82.1667,284.5 79.8333,284.5 77.5,284.5C 77.1583,283.662 76.4916,283.328 75.5,283.5C 74.8333,283.5 74.1667,283.5 73.5,283.5C 74.3984,282.842 75.3984,282.176 76.5,281.5C 76.0431,280.702 75.3764,280.369 74.5,280.5C 71.8172,279.157 70.3172,277.157 70,274.5C 72.7538,271.044 76.2538,269.044 80.5,268.5 Z"/></g>
<g><path style="opacity:1" fill="#e1d3ba" d="M 148.5,268.5 C 153.792,269.465 157.126,272.465 158.5,277.5C 156.05,278.777 153.717,280.277 151.5,282C 152.5,282.333 153.5,282.667 154.5,283C 151.487,283.502 148.487,284.002 145.5,284.5C 145.062,284.565 144.728,284.399 144.5,284C 148.689,281.913 152.023,278.913 154.5,275C 152.727,272.616 150.727,270.449 148.5,268.5 Z"/></g>
<g><path style="opacity:1" fill="#6f6a5d" d="M 49.5,273.5 C 48.4918,275.544 47.4918,277.544 46.5,279.5C 46.0246,276.687 47.0246,274.687 49.5,273.5 Z"/></g>
<g><path style="opacity:1" fill="#7f725e" d="M 74.5,280.5 C 75.3764,280.369 76.0431,280.702 76.5,281.5C 75.3984,282.176 74.3984,282.842 73.5,283.5C 68.9166,282.918 64.5833,281.585 60.5,279.5C 59.5266,279.013 58.5266,278.513 57.5,278C 62.6375,278.926 67.8042,280.093 73,281.5C 73.7648,281.43 74.2648,281.097 74.5,280.5 Z"/></g>
<g><path style="opacity:1" fill="#b09d7e" d="M 102.5,286.5 C 98.4402,286.515 94.4402,286.015 90.5,285C 94.6477,283.093 98.6477,280.926 102.5,278.5C 105.93,277.286 109.264,275.786 112.5,274C 113.944,273.219 115.277,273.386 116.5,274.5C 111.842,278.498 107.176,282.498 102.5,286.5 Z"/></g>
<g><path style="opacity:1" fill="#5f4e36" d="M 101.5,277.5 C 101.5,278.167 101.833,278.5 102.5,278.5C 98.6477,280.926 94.6477,283.093 90.5,285C 94.4402,286.015 98.4402,286.515 102.5,286.5C 104.473,287.163 106.639,287.496 109,287.5C 111.777,287.369 114.277,286.702 116.5,285.5C 121.305,286.487 126.305,286.821 131.5,286.5C 132.552,286.351 133.552,286.517 134.5,287C 131.305,287.181 128.305,287.681 125.5,288.5C 115.161,288.666 104.828,288.5 94.5,288C 88.5376,287.642 82.8709,286.475 77.5,284.5C 79.8333,284.5 82.1667,284.5 84.5,284.5C 89.8307,281.334 95.4973,279.001 101.5,277.5 Z"/></g>
<g><path style="opacity:1" fill="#6b5d44" d="M 158.5,277.5 C 158.423,278.75 157.756,279.583 156.5,280C 160.788,280.056 164.954,279.222 169,277.5C 170.661,278.1 170.495,278.767 168.5,279.5C 166.86,280.32 165.193,281.153 163.5,282C 166.811,281.785 170.144,281.785 173.5,282C 172.051,283.117 170.384,283.784 168.5,284C 167.022,286.057 165.022,287.39 162.5,288C 161.839,290.672 160.172,292.172 157.5,292.5C 158.953,291.175 158.619,290.342 156.5,290C 157.167,289.333 157.833,288.667 158.5,288C 156.717,287.768 155.05,288.268 153.5,289.5C 152.833,289.167 152.167,288.833 151.5,288.5C 152.549,286.888 154.049,285.888 156,285.5C 158.838,286.891 161.338,286.391 163.5,284C 162.833,283.833 162.167,283.667 161.5,283.5C 149.558,285.73 137.558,287.397 125.5,288.5C 128.305,287.681 131.305,287.181 134.5,287C 133.552,286.517 132.552,286.351 131.5,286.5C 136.167,285.833 140.833,285.167 145.5,284.5C 148.487,284.002 151.487,283.502 154.5,283C 153.5,282.667 152.5,282.333 151.5,282C 153.717,280.277 156.05,278.777 158.5,277.5 Z"/></g>
<g><path style="opacity:1" fill="#5f503b" d="M 60.5,279.5 C 64.5833,281.585 68.9166,282.918 73.5,283.5C 74.1667,283.5 74.8333,283.5 75.5,283.5C 70.5803,283.799 65.5803,283.799 60.5,283.5C 64.8927,283.777 67.0593,286.111 67,290.5C 68.6477,291.717 70.481,292.55 72.5,293C 70.2922,293.191 68.2922,293.691 66.5,294.5C 55.5779,295.246 50.9112,290.246 52.5,279.5C 55.3519,280.258 58.0185,280.258 60.5,279.5 Z"/></g>
<g><path style="opacity:1" fill="#7a6b4e" d="M 75.5,283.5 C 76.4916,283.328 77.1583,283.662 77.5,284.5C 82.8709,286.475 88.5376,287.642 94.5,288C 104.828,288.5 115.161,288.666 125.5,288.5C 137.558,287.397 149.558,285.73 161.5,283.5C 162.167,283.667 162.833,283.833 163.5,284C 161.338,286.391 158.838,286.891 156,285.5C 154.049,285.888 152.549,286.888 151.5,288.5C 152.167,288.833 152.833,289.167 153.5,289.5C 155.05,288.268 156.717,287.768 158.5,288C 157.833,288.667 157.167,289.333 156.5,290C 158.619,290.342 158.953,291.175 157.5,292.5C 156.761,292.369 156.094,292.536 155.5,293C 158.036,293.186 160.369,293.686 162.5,294.5C 130.395,299.788 98.395,299.788 66.5,294.5C 68.2922,293.691 70.2922,293.191 72.5,293C 70.481,292.55 68.6477,291.717 67,290.5C 67.0593,286.111 64.8927,283.777 60.5,283.5C 65.5803,283.799 70.5803,283.799 75.5,283.5 Z"/></g>
<g><path style="opacity:1" fill="#5e5039" d="M 168.5,279.5 C 170.952,279.986 173.618,279.986 176.5,279.5C 177.055,289.397 172.388,294.397 162.5,294.5C 160.369,293.686 158.036,293.186 155.5,293C 156.094,292.536 156.761,292.369 157.5,292.5C 160.172,292.172 161.839,290.672 162.5,288C 165.022,287.39 167.022,286.057 168.5,284C 170.384,283.784 172.051,283.117 173.5,282C 170.144,281.785 166.811,281.785 163.5,282C 165.193,281.153 166.86,280.32 168.5,279.5 Z"/></g>
<g><path style="opacity:1" fill="#736d62" d="M 48.5,296.5 C 52.767,297.256 56.767,298.589 60.5,300.5C 56.0845,300.139 52.0845,298.806 48.5,296.5 Z"/></g>
<g><path style="opacity:1" fill="#c2bcb2" d="M 181.5,295.5 C 180.514,297.408 178.848,298.408 176.5,298.5C 177.659,296.75 179.326,295.75 181.5,295.5 Z"/></g>
<g><path style="opacity:1" fill="#b4afa7" d="M 65.5,301.5 C 71.6646,302.305 77.6646,303.305 83.5,304.5C 77.1545,304.776 71.1545,303.776 65.5,301.5 Z"/></g>
<g><path style="opacity:1" fill="#aca7a0" d="M 162.5,301.5 C 159.797,302.963 156.797,303.796 153.5,304C 148.177,304.499 142.844,304.666 137.5,304.5C 145.71,303.645 154.043,302.645 162.5,301.5 Z"/></g>
</svg>
