<?xml version="1.0" encoding="UTF-8"?>
<!DOCTYPE svg PUBLIC "-//W3C//DTD SVG 1.1//EN" "http://www.w3.org/Graphics/SVG/1.1/DTD/svg11.dtd">
<svg xmlns="http://www.w3.org/2000/svg" version="1.1" width="173px" height="340px" style="shape-rendering:geometricPrecision; text-rendering:geometricPrecision; image-rendering:optimizeQuality; fill-rule:evenodd; clip-rule:evenodd" xmlns:xlink="http://www.w3.org/1999/xlink">
<g><path style="opacity:1" fill="#fdfdfc" d="M -0.5,-0.5 C 57.1667,-0.5 114.833,-0.5 172.5,-0.5C 172.5,112.833 172.5,226.167 172.5,339.5C 114.833,339.5 57.1667,339.5 -0.5,339.5C -0.5,226.167 -0.5,112.833 -0.5,-0.5 Z"/></g>
<g><path style="opacity:1" fill="#867f74" d="M 78.5,7.5 C 77.9603,11.6423 77.2937,15.6423 76.5,19.5C 76.3347,15.8183 76.5014,12.1516 77,8.5C 77.3826,7.94404 77.8826,7.61071 78.5,7.5 Z"/></g>
<g><path style="opacity:1" fill="#d2cfc9" d="M 100.5,17.5 C 106.128,15.1022 108.795,17.1022 108.5,23.5C 109.5,23.5 110.5,23.5 111.5,23.5C 109.998,25.175 108.665,27.0083 107.5,29C 105.527,29.5378 104.527,28.7044 104.5,26.5C 106.216,24.0849 106.716,21.4182 106,18.5C 104.301,17.5939 102.467,17.2606 100.5,17.5 Z"/></g>
<g><path style="opacity:1" fill="#a29b95" d="M 120.5,54.5 C 122.067,55.6808 122.901,57.3474 123,59.5C 123.499,65.1569 123.666,70.8236 123.5,76.5C 122.912,69.2298 121.912,61.8964 120.5,54.5 Z"/></g>
<g><path style="opacity:1" fill="#aaa49e" d="M 39.5,86.5 C 38.5376,90.3948 37.2043,94.0615 35.5,97.5C 35.677,93.2924 37.0103,89.6257 39.5,86.5 Z"/></g>
<g><path style="opacity:1" fill="#4d3e29" d="M 120.5,110.5 C 118.862,111.914 117.528,111.58 116.5,109.5C 115.702,109.957 115.369,110.624 115.5,111.5C 113.596,111.738 112.262,112.738 111.5,114.5C 107.534,116.878 103.201,118.378 98.5,119C 92.5509,124.391 88.2176,130.891 85.5,138.5C 82.2971,131.265 77.9637,124.765 72.5,119C 71.2068,118.51 69.8734,118.343 68.5,118.5C 69.3755,115.222 68.2088,112.555 65,110.5C 63.4516,105.181 60.7849,100.515 57,96.5C 53.2281,90.8518 52.7281,85.0185 55.5,79C 56.448,78.5172 57.448,78.3505 58.5,78.5C 60.3102,74.0075 63.3102,70.3408 67.5,67.5C 67.567,69.4244 67.9003,71.4244 68.5,73.5C 73.7031,70.3771 79.3698,68.5438 85.5,68C 89.2413,66.2621 92.408,63.7621 95,60.5C 97.543,67.3738 102.376,71.8738 109.5,74C 110.314,77.0754 112.314,78.7421 115.5,79C 119.232,87.5733 117.398,94.74 110,100.5C 108.584,105.749 106.084,110.415 102.5,114.5C 105.79,115.244 108.79,114.411 111.5,112C 114.188,109.458 116.521,106.625 118.5,103.5C 119.635,105.707 120.301,108.04 120.5,110.5 Z"/></g>
<g><path style="opacity:1" fill="#978b76" d="M 111.5,114.5 C 111.489,116.017 110.823,117.184 109.5,118C 110.737,118.232 111.737,118.732 112.5,119.5C 111.209,119.263 110.209,119.596 109.5,120.5C 106.824,119.992 104.157,119.825 101.5,120C 93.4547,127.591 88.1214,136.757 85.5,147.5C 82.6102,136.032 76.9436,126.365 68.5,118.5C 69.8734,118.343 71.2068,118.51 72.5,119C 77.9637,124.765 82.2971,131.265 85.5,138.5C 88.2176,130.891 92.5509,124.391 98.5,119C 103.201,118.378 107.534,116.878 111.5,114.5 Z"/></g>
<g><path style="opacity:1" fill="#45382a" d="M 142.5,119.5 C 144.924,120.03 147.257,120.864 149.5,122C 151.208,124.043 153.208,125.71 155.5,127C 157.202,129.235 158.202,131.735 158.5,134.5C 158.706,138.898 158.373,143.232 157.5,147.5C 156.691,149.292 156.191,151.292 156,153.5C 155.148,152.429 154.315,151.429 153.5,150.5C 153.5,149.833 153.167,149.5 152.5,149.5C 152.833,148.833 153.167,148.167 153.5,147.5C 157.169,133.489 151.835,125.155 137.5,122.5C 135.631,121.835 133.631,121.169 131.5,120.5C 135.107,119.511 138.774,119.177 142.5,119.5 Z"/></g>
<g><path style="opacity:1" fill="#b0a18a" d="M 39.5,127.5 C 38.8333,126.833 38.1667,126.167 37.5,125.5C 23.4602,125.86 17.4602,132.86 19.5,146.5C 20.1757,145.398 20.8423,144.398 21.5,143.5C 21.5,144.833 21.5,146.167 21.5,147.5C 19.7085,147.634 18.0418,147.301 16.5,146.5C 14.5493,135.567 18.5493,127.734 28.5,123C 32.1516,122.501 35.8183,122.335 39.5,122.5C 39.5,124.167 39.5,125.833 39.5,127.5 Z"/></g>
<g><path style="opacity:1" fill="#7c6d55" d="M 125.5,113.5 C 125.893,116.513 125.226,119.18 123.5,121.5C 118.967,126.688 114.301,131.855 109.5,137C 106.315,138.407 103.315,139.907 100.5,141.5C 102.808,138.185 105.141,134.851 107.5,131.5C 104.754,129.527 101.754,128.027 98.5,127C 102.456,126.963 106.123,128.13 109.5,130.5C 112.167,128.5 114.5,126.167 116.5,123.5C 114,122.641 111.667,121.641 109.5,120.5C 110.209,119.596 111.209,119.263 112.5,119.5C 117.278,122.722 120.944,121.722 123.5,116.5C 124.167,115.5 124.833,114.5 125.5,113.5 Z"/></g>
<g><path style="opacity:1" fill="#b9a480" d="M 37.5,125.5 C 38.1667,126.167 38.8333,126.833 39.5,127.5C 39.8333,128.833 40.1667,130.167 40.5,131.5C 35.8771,135.145 30.5438,137.812 24.5,139.5C 23.8118,140.855 22.8118,141.855 21.5,142.5C 21.1081,139.278 21.6081,136.278 23,133.5C 23.3333,134.167 23.6667,134.833 24,135.5C 25.0458,133.91 26.2125,132.41 27.5,131C 31.0617,129.234 34.395,127.4 37.5,125.5 Z"/></g>
<g><path style="opacity:1" fill="#63523a" d="M 40.5,131.5 C 41.2216,131.918 41.7216,132.584 42,133.5C 42.4643,132.906 42.631,132.239 42.5,131.5C 47.3513,137.563 49.6846,144.563 49.5,152.5C 48.3794,154.954 47.546,157.621 47,160.5C 43.561,164.371 39.3943,165.371 34.5,163.5C 38.4744,162.9 42.1411,161.567 45.5,159.5C 46.8333,155.833 46.8333,152.167 45.5,148.5C 42.1917,152.158 38.1917,154.824 33.5,156.5C 32.8333,155.833 32.1667,155.167 31.5,154.5C 31.1667,154.833 30.8333,155.167 30.5,155.5C 31.7783,157.722 32.7783,160.056 33.5,162.5C 33.2133,164.443 32.2133,165.777 30.5,166.5C 28.7697,165.974 27.4363,164.974 26.5,163.5C 30.5867,165.25 32.0867,163.917 31,159.5C 28.6983,158.855 26.5317,158.522 24.5,158.5C 26.0145,157.32 27.6812,156.32 29.5,155.5C 26.5908,151.43 22.5908,149.43 17.5,149.5C 16.8902,148.609 16.5569,147.609 16.5,146.5C 18.0418,147.301 19.7085,147.634 21.5,147.5C 21.5,146.167 21.5,144.833 21.5,143.5C 21.5,143.167 21.5,142.833 21.5,142.5C 22.8118,141.855 23.8118,140.855 24.5,139.5C 30.5438,137.812 35.8771,135.145 40.5,131.5 Z"/></g>
<g><path style="opacity:1" fill="#bca685" d="M 70.5,150.5 C 72.9501,152.629 74.6167,155.296 75.5,158.5C 75.6309,159.376 75.2975,160.043 74.5,160.5C 69.4843,163.07 64.151,164.07 58.5,163.5C 53.7006,161.362 50.7006,157.695 49.5,152.5C 49.6846,144.563 47.3513,137.563 42.5,131.5C 42.1667,129.5 41.8333,127.5 41.5,125.5C 42.4232,124.697 43.4232,124.53 44.5,125C 52.318,134.318 60.9846,142.818 70.5,150.5 Z"/></g>
<g><path style="opacity:1" fill="#bca98a" d="M 137.5,122.5 C 151.835,125.155 157.169,133.489 153.5,147.5C 152.167,147.5 150.833,147.5 149.5,147.5C 150.178,143.727 148.844,140.894 145.5,139C 140.71,137.437 136.044,135.604 131.5,133.5C 130.903,133.265 130.57,132.765 130.5,132C 131.361,128.863 132.027,125.697 132.5,122.5C 134.167,122.5 135.833,122.5 137.5,122.5 Z"/></g>
<g><path style="opacity:1" fill="#d8d4d1" d="M 158.5,134.5 C 159.777,135.694 160.444,137.36 160.5,139.5C 159.529,143.78 158.863,148.113 158.5,152.5C 157.549,151.081 157.216,149.415 157.5,147.5C 158.373,143.232 158.706,138.898 158.5,134.5 Z"/></g>
<g><path style="opacity:1" fill="#bba683" d="M 128.5,129.5 C 127.343,133.801 125.51,137.801 123,141.5C 121.69,145.07 120.857,148.737 120.5,152.5C 116.75,160.376 110.417,163.542 101.5,162C 103.382,162.198 105.048,162.698 106.5,163.5C 101.391,164.616 97.7246,162.949 95.5,158.5C 96.1695,155.151 97.8361,152.484 100.5,150.5C 109.744,142.053 118.744,133.386 127.5,124.5C 128.452,126.045 128.785,127.712 128.5,129.5 Z"/></g>
<g><path style="opacity:1" fill="#89837b" d="M 14.5,129.5 C 13.0974,134.387 12.4307,139.387 12.5,144.5C 11.3547,140.689 11.1881,136.689 12,132.5C 12.3768,131.058 13.2101,130.058 14.5,129.5 Z"/></g>
<g><path style="opacity:1" fill="#d1bfa1" d="M 37.5,125.5 C 34.395,127.4 31.0617,129.234 27.5,131C 26.2125,132.41 25.0458,133.91 24,135.5C 23.6667,134.833 23.3333,134.167 23,133.5C 21.6081,136.278 21.1081,139.278 21.5,142.5C 21.5,142.833 21.5,143.167 21.5,143.5C 20.8423,144.398 20.1757,145.398 19.5,146.5C 17.4602,132.86 23.4602,125.86 37.5,125.5 Z"/></g>
<g><path style="opacity:1" fill="#827055" d="M 128.5,129.5 C 128.785,127.712 128.452,126.045 127.5,124.5C 118.744,133.386 109.744,142.053 100.5,150.5C 108.478,141.52 116.478,132.52 124.5,123.5C 126.167,122.833 127.833,122.167 129.5,121.5C 129.806,124.385 129.473,127.052 128.5,129.5 Z"/></g>
<g><path style="opacity:1" fill="#786548" d="M 131.5,133.5 C 136.044,135.604 140.71,137.437 145.5,139C 148.844,140.894 150.178,143.727 149.5,147.5C 148.395,148.6 147.062,149.267 145.5,149.5C 146.141,148.518 146.807,147.518 147.5,146.5C 143.54,142.038 138.874,138.538 133.5,136C 131.866,135.506 130.199,135.34 128.5,135.5C 129.5,134.833 130.5,134.167 131.5,133.5 Z"/></g>
<g><path style="opacity:1" fill="#826f53" d="M 43.5,121.5 C 52.7757,130.78 61.7757,140.447 70.5,150.5C 60.9846,142.818 52.318,134.318 44.5,125C 43.4232,124.53 42.4232,124.697 41.5,125.5C 41.1568,123.517 41.8235,122.183 43.5,121.5 Z"/></g>
<g><path style="opacity:1" fill="#b5a17e" d="M 128.5,135.5 C 130.199,135.34 131.866,135.506 133.5,136C 138.874,138.538 143.54,142.038 147.5,146.5C 146.807,147.518 146.141,148.518 145.5,149.5C 143.494,150.511 141.494,151.511 139.5,152.5C 132.603,152.07 127.936,148.737 125.5,142.5C 126.237,140.03 127.237,137.696 128.5,135.5 Z"/></g>
<g><path style="opacity:1" fill="#b19c7b" d="M 39.5,134.5 C 40.4959,134.414 41.3292,134.748 42,135.5C 42.9808,138.12 44.1474,140.62 45.5,143C 42.5963,148.733 37.9296,151.9 31.5,152.5C 28.6465,151.809 26.1465,150.476 24,148.5C 23.2195,147.056 23.3861,145.723 24.5,144.5C 29.0179,140.292 34.0179,136.959 39.5,134.5 Z"/></g>
<g><path style="opacity:1" fill="#eadec6" d="M 60.5,115.5 C 63.023,116.801 65.6897,117.801 68.5,118.5C 76.9436,126.365 82.6102,136.032 85.5,147.5C 88.1214,136.757 93.4547,127.591 101.5,120C 104.157,119.825 106.824,119.992 109.5,120.5C 111.667,121.641 114,122.641 116.5,123.5C 114.5,126.167 112.167,128.5 109.5,130.5C 106.123,128.13 102.456,126.963 98.5,127C 101.754,128.027 104.754,129.527 107.5,131.5C 105.141,134.851 102.808,138.185 100.5,141.5C 98.9826,141.489 97.8159,140.823 97,139.5C 96.6053,141.179 96.772,142.845 97.5,144.5C 95.0731,149.208 93.7398,154.208 93.5,159.5C 88.5,159.5 83.5,159.5 78.5,159.5C 77.7005,154.229 76.0338,149.229 73.5,144.5C 74.228,142.845 74.3947,141.179 74,139.5C 73.1841,140.823 72.0174,141.489 70.5,141.5C 68.1919,138.185 65.8586,134.851 63.5,131.5C 66.2458,129.527 69.2458,128.027 72.5,127C 68.5442,126.963 64.8775,128.13 61.5,130.5C 59.1472,128.477 56.8138,126.477 54.5,124.5C 54.3691,123.624 54.7025,122.957 55.5,122.5C 57.5405,121.764 59.5405,120.931 61.5,120C 58.1268,120.129 54.7935,120.462 51.5,121C 48.8474,118.866 46.8474,116.366 45.5,113.5C 44.6554,112.329 43.9887,110.995 43.5,109.5C 43.369,108.761 43.5357,108.094 44,107.5C 46.889,111.809 50.7223,113.643 55.5,113C 53.9632,114.11 53.2965,115.61 53.5,117.5C 55.8333,116.833 58.1667,116.167 60.5,115.5 Z"/></g>
<g><path style="opacity:1" fill="#5b4b36" d="M 131.5,116.5 C 134.891,118.125 138.558,119.125 142.5,119.5C 138.774,119.177 135.107,119.511 131.5,120.5C 133.631,121.169 135.631,121.835 137.5,122.5C 135.833,122.5 134.167,122.5 132.5,122.5C 132.027,125.697 131.361,128.863 130.5,132C 130.57,132.765 130.903,133.265 131.5,133.5C 130.5,134.167 129.5,134.833 128.5,135.5C 127.237,137.696 126.237,140.03 125.5,142.5C 127.936,148.737 132.603,152.07 139.5,152.5C 141.494,151.511 143.494,150.511 145.5,149.5C 147.062,149.267 148.395,148.6 149.5,147.5C 150.833,147.5 152.167,147.5 153.5,147.5C 153.167,148.167 152.833,148.833 152.5,149.5C 147.805,149.68 144.139,151.68 141.5,155.5C 146.157,160.003 148.991,159.003 150,152.5C 151.011,153.337 152.178,153.67 153.5,153.5C 153.5,152.5 153.5,151.5 153.5,150.5C 154.315,151.429 155.148,152.429 156,153.5C 156.191,151.292 156.691,149.292 157.5,147.5C 157.216,149.415 157.549,151.081 158.5,152.5C 159.167,154.5 159.833,156.5 160.5,158.5C 159.292,157.766 157.959,157.433 156.5,157.5C 151.409,157.206 147.742,159.206 145.5,163.5C 145.67,162.178 145.337,161.011 144.5,160C 142.423,159.808 140.423,159.308 138.5,158.5C 141.167,154.5 140.5,153.833 136.5,156.5C 132.275,154.609 128.608,151.942 125.5,148.5C 122.319,158.025 125.652,163.025 135.5,163.5C 130.198,165.652 126.031,164.319 123,159.5C 122.998,156.949 122.164,154.949 120.5,153.5C 120.5,153.167 120.5,152.833 120.5,152.5C 120.857,148.737 121.69,145.07 123,141.5C 125.51,137.801 127.343,133.801 128.5,129.5C 129.473,127.052 129.806,124.385 129.5,121.5C 127.833,122.167 126.167,122.833 124.5,123.5C 126.974,121.333 129.308,119 131.5,116.5 Z"/></g>
<g><path style="opacity:1" fill="#b09e7f" d="M 152.5,149.5 C 153.167,149.5 153.5,149.833 153.5,150.5C 153.5,151.5 153.5,152.5 153.5,153.5C 152.178,153.67 151.011,153.337 150,152.5C 148.991,159.003 146.157,160.003 141.5,155.5C 144.139,151.68 147.805,149.68 152.5,149.5 Z"/></g>
<g><path style="opacity:1" fill="#4e402b" d="M 45.5,113.5 C 46.8474,116.366 48.8474,118.866 51.5,121C 54.7935,120.462 58.1268,120.129 61.5,120C 59.5405,120.931 57.5405,121.764 55.5,122.5C 54.7025,122.957 54.3691,123.624 54.5,124.5C 51.9438,123.457 49.7772,121.79 48,119.5C 47.8333,119.833 47.6667,120.167 47.5,120.5C 52.7443,128.732 59.0776,135.398 66.5,140.5C 67.6888,141.429 69.0222,141.762 70.5,141.5C 72.0174,141.489 73.1841,140.823 74,139.5C 74.3947,141.179 74.228,142.845 73.5,144.5C 76.0338,149.229 77.7005,154.229 78.5,159.5C 83.5,159.5 88.5,159.5 93.5,159.5C 93.7398,154.208 95.0731,149.208 97.5,144.5C 96.772,142.845 96.6053,141.179 97,139.5C 97.8159,140.823 98.9826,141.489 100.5,141.5C 103.315,139.907 106.315,138.407 109.5,137C 114.301,131.855 118.967,126.688 123.5,121.5C 123.328,122.492 123.662,123.158 124.5,123.5C 116.478,132.52 108.478,141.52 100.5,150.5C 97.8361,152.484 96.1695,155.151 95.5,158.5C 92.9588,166.508 91.9588,174.842 92.5,183.5C 96.8689,183.533 101.202,183.2 105.5,182.5C 105.657,181.127 105.49,179.793 105,178.5C 102.631,177.732 100.465,176.565 98.5,175C 101.986,173.004 105.319,170.837 108.5,168.5C 107.826,170.024 106.826,171.358 105.5,172.5C 106.052,174.333 106.885,176 108,177.5C 110.538,175.354 112.038,172.687 112.5,169.5C 112.5,171.833 112.5,174.167 112.5,176.5C 111.684,178.144 110.35,179.31 108.5,180C 109.552,181.716 108.886,182.716 106.5,183C 97.7822,185.421 89.1155,185.921 80.5,184.5C 83.8333,184.5 87.1667,184.5 90.5,184.5C 90.3018,176.466 90.6351,168.466 91.5,160.5C 87.5,160.5 83.5,160.5 79.5,160.5C 80.0802,164.81 80.4135,169.143 80.5,173.5C 79.6862,171.369 79.1862,169.036 79,166.5C 78.8272,172.348 78.3272,178.015 77.5,183.5C 77.6663,176.825 77.4996,170.158 77,163.5C 76.8019,161.618 76.3019,159.952 75.5,158.5C 74.6167,155.296 72.9501,152.629 70.5,150.5C 61.7757,140.447 52.7757,130.78 43.5,121.5C 45.2018,119.2 45.8685,116.533 45.5,113.5 Z"/></g>
<g><path style="opacity:1" fill="#857961" d="M 90.5,143.5 C 91.5,143.5 92.5,143.5 93.5,143.5C 93.5,144.833 93.5,146.167 93.5,147.5C 92.5,147.5 91.5,147.5 90.5,147.5C 90.5,146.167 90.5,144.833 90.5,143.5 Z"/></g>
<g><path style="opacity:1" fill="#766a52" d="M 77.5,143.5 C 78.5,143.5 79.5,143.5 80.5,143.5C 80.7778,145.346 80.1112,146.68 78.5,147.5C 77.5713,146.311 77.238,144.978 77.5,143.5 Z"/></g>
<g><path style="opacity:1" fill="#60543d" d="M 97.5,132.5 C 98.5,132.5 99.5,132.5 100.5,132.5C 100.5,133.5 100.5,134.5 100.5,135.5C 99.5,135.5 98.5,135.5 97.5,135.5C 97.5,134.5 97.5,133.5 97.5,132.5 Z"/></g>
<g><path style="opacity:1" fill="#4a3e27" d="M 70.5,132.5 C 72.4646,132.948 72.7979,133.948 71.5,135.5C 70.6143,134.675 70.281,133.675 70.5,132.5 Z"/></g>
<g><path style="opacity:1" fill="#80735a" d="M 54.5,124.5 C 56.8138,126.477 59.1472,128.477 61.5,130.5C 64.8775,128.13 68.5442,126.963 72.5,127C 69.2458,128.027 66.2458,129.527 63.5,131.5C 65.8586,134.851 68.1919,138.185 70.5,141.5C 69.0222,141.762 67.6888,141.429 66.5,140.5C 59.0776,135.398 52.7443,128.732 47.5,120.5C 47.6667,120.167 47.8333,119.833 48,119.5C 49.7772,121.79 51.9438,123.457 54.5,124.5 Z"/></g>
<g><path style="opacity:1" fill="#6f644b" d="M 105.5,123.5 C 106.5,123.5 107.5,123.5 108.5,123.5C 108.5,124.5 108.5,125.5 108.5,126.5C 107.5,126.5 106.5,126.5 105.5,126.5C 105.5,125.5 105.5,124.5 105.5,123.5 Z"/></g>
<g><path style="opacity:1" fill="#665c44" d="M 62.5,123.5 C 63.5,123.5 64.5,123.5 65.5,123.5C 65.5,124.5 65.5,125.5 65.5,126.5C 64.5,126.5 63.5,126.5 62.5,126.5C 62.5,125.5 62.5,124.5 62.5,123.5 Z"/></g>
<g><path style="opacity:1" fill="#837b6f" d="M 22.5,212.5 C 21.9751,216.533 20.6418,220.2 18.5,223.5C 18.6667,219.327 20,215.66 22.5,212.5 Z"/></g>
<g><path style="opacity:1" fill="#423626" d="M 100.5,17.5 C 102.467,17.2606 104.301,17.5939 106,18.5C 106.716,21.4182 106.216,24.0849 104.5,26.5C 104.527,28.7044 105.527,29.5378 107.5,29C 108.665,27.0083 109.998,25.175 111.5,23.5C 123.411,24.3147 125.577,29.3147 118,38.5C 117.192,40.4233 116.692,42.4233 116.5,44.5C 117.816,47.8041 119.149,51.1375 120.5,54.5C 121.912,61.8964 122.912,69.2298 123.5,76.5C 133.759,85.4911 137.593,96.8245 135,110.5C 134.059,112.727 132.892,114.727 131.5,116.5C 129.308,119 126.974,121.333 124.5,123.5C 123.662,123.158 123.328,122.492 123.5,121.5C 125.226,119.18 125.893,116.513 125.5,113.5C 126.736,111.351 127.736,109.018 128.5,106.5C 129.645,102.689 129.812,98.6888 129,94.5C 128.333,93.8333 127.667,93.1667 127,92.5C 126.667,94.8333 126.333,97.1667 126,99.5C 125.461,96.4715 124.794,93.4715 124,90.5C 122.111,88.5172 120.778,86.1838 120,83.5C 118.88,74.5146 117.88,65.5146 117,56.5C 116.8,54.6803 115.966,53.347 114.5,52.5C 114.167,51.8333 113.833,51.1667 113.5,50.5C 112.833,49.5 112.167,48.5 111.5,47.5C 111.167,46.8333 110.833,46.1667 110.5,45.5C 111.363,42.0772 112.53,38.7439 114,35.5C 118.084,34.7985 119.417,32.4652 118,28.5C 113.051,26.2659 110.551,27.9325 110.5,33.5C 107.579,34.4066 104.579,34.7399 101.5,34.5C 100.833,34.1667 100.167,33.8333 99.5,33.5C 98.8333,32.1667 97.8333,31.1667 96.5,30.5C 94.2747,26.1018 91.4413,22.1018 88,18.5C 88.6116,16.248 88.9449,13.9147 89,11.5C 86.9251,9.35166 84.5918,9.01832 82,10.5C 81.7468,13.2004 81.7468,15.867 82,18.5C 79.7285,22.7243 77.2285,26.7243 74.5,30.5C 73.1667,31.1667 72.1667,32.1667 71.5,33.5C 67.5784,35.8698 63.5784,35.8698 59.5,33.5C 59.8362,28.9999 57.8362,27.1666 53.5,28C 51.8303,31.4509 52.8303,33.9509 56.5,35.5C 57.8462,38.8546 59.1796,42.1879 60.5,45.5C 60.4431,46.609 60.1098,47.609 59.5,48.5C 58.0256,49.4363 57.0256,50.7697 56.5,52.5C 55.6252,54.5681 54.4585,56.5681 53,58.5C 52.8315,66.1883 52.3315,73.8549 51.5,81.5C 49.0809,86.6798 46.9142,92.0131 45,97.5C 44.7978,95.7444 44.2978,94.0777 43.5,92.5C 42.0815,93.0047 41.4148,94.0047 41.5,95.5C 41.3347,99.1817 41.5014,102.848 42,106.5C 42.2321,107.737 42.7321,108.737 43.5,109.5C 43.9887,110.995 44.6554,112.329 45.5,113.5C 45.8685,116.533 45.2018,119.2 43.5,121.5C 41.8235,122.183 41.1568,123.517 41.5,125.5C 41.8333,127.5 42.1667,129.5 42.5,131.5C 42.631,132.239 42.4643,132.906 42,133.5C 41.7216,132.584 41.2216,131.918 40.5,131.5C 40.1667,130.167 39.8333,128.833 39.5,127.5C 39.5,125.833 39.5,124.167 39.5,122.5C 35.8183,122.335 32.1516,122.501 28.5,123C 18.5493,127.734 14.5493,135.567 16.5,146.5C 16.5569,147.609 16.8902,148.609 17.5,149.5C 17.5792,150.93 17.2458,152.264 16.5,153.5C 19.3619,154.948 22.0286,156.615 24.5,158.5C 26.5317,158.522 28.6983,158.855 31,159.5C 32.0867,163.917 30.5867,165.25 26.5,163.5C 26.1667,163.5 25.8333,163.5 25.5,163.5C 19.2178,153.97 14.2178,154.47 10.5,165C 12.5288,169.42 14.3622,173.92 16,178.5C 18.1457,184.234 22.3123,187.234 28.5,187.5C 29.4419,187.392 30.2753,187.059 31,186.5C 31.1273,188.634 30.9607,190.801 30.5,193C 30.9428,201.423 33.9428,202.59 39.5,196.5C 41.424,194.515 43.424,192.515 45.5,190.5C 43.2655,188.362 41.2655,186.029 39.5,183.5C 39.0679,182.29 38.4013,181.29 37.5,180.5C 35.1657,175.828 32.8324,171.162 30.5,166.5C 32.2133,165.777 33.2133,164.443 33.5,162.5C 32.7783,160.056 31.7783,157.722 30.5,155.5C 30.8333,155.167 31.1667,154.833 31.5,154.5C 32.1667,155.167 32.8333,155.833 33.5,156.5C 38.1917,154.824 42.1917,152.158 45.5,148.5C 46.8333,152.167 46.8333,155.833 45.5,159.5C 42.1411,161.567 38.4744,162.9 34.5,163.5C 39.3943,165.371 43.561,164.371 47,160.5C 47.546,157.621 48.3794,154.954 49.5,152.5C 50.7006,157.695 53.7006,161.362 58.5,163.5C 60.2922,164.309 62.2922,164.809 64.5,165C 63.572,165.388 62.9054,166.055 62.5,167C 63.3146,168.643 64.3146,170.143 65.5,171.5C 64.5538,174.672 63.2205,177.672 61.5,180.5C 60.4024,177.133 59.4024,173.467 58.5,169.5C 55.8283,167.74 52.9949,166.074 50,164.5C 46.4009,167.533 42.2343,168.866 37.5,168.5C 38.6733,175.845 42.1733,181.845 48,186.5C 50.9502,184.613 53.7835,182.613 56.5,180.5C 59.0443,177.693 60.0443,178.36 59.5,182.5C 63.8566,182.586 68.19,182.92 72.5,183.5C 74.1667,183.5 75.8333,183.5 77.5,183.5C 78.3272,178.015 78.8272,172.348 79,166.5C 79.1862,169.036 79.6862,171.369 80.5,173.5C 80.5,177.167 80.5,180.833 80.5,184.5C 89.1155,185.921 97.7822,185.421 106.5,183C 108.886,182.716 109.552,181.716 108.5,180C 110.35,179.31 111.684,178.144 112.5,176.5C 114.53,181.284 118.03,184.618 123,186.5C 128.317,181.529 131.817,175.529 133.5,168.5C 128.181,169.339 123.848,167.672 120.5,163.5C 117.765,165.521 115.099,167.521 112.5,169.5C 112.038,172.687 110.538,175.354 108,177.5C 106.885,176 106.052,174.333 105.5,172.5C 106.826,171.358 107.826,170.024 108.5,168.5C 109.857,166.501 109.19,165.335 106.5,165C 108.382,164.802 110.048,164.302 111.5,163.5C 116.6,162.066 119.6,158.733 120.5,153.5C 122.164,154.949 122.998,156.949 123,159.5C 126.031,164.319 130.198,165.652 135.5,163.5C 125.652,163.025 122.319,158.025 125.5,148.5C 128.608,151.942 132.275,154.609 136.5,156.5C 140.5,153.833 141.167,154.5 138.5,158.5C 140.423,159.308 142.423,159.808 144.5,160C 145.337,161.011 145.67,162.178 145.5,163.5C 144.508,163.328 143.842,163.662 143.5,164.5C 141.871,165.625 140.371,166.959 139,168.5C 137.435,172.402 135.602,176.069 133.5,179.5C 132.655,180.671 131.989,182.005 131.5,183.5C 129.523,185.814 127.523,188.147 125.5,190.5C 126.855,192.521 128.521,194.188 130.5,195.5C 132.094,196.983 133.76,198.483 135.5,200C 136.5,200.667 137.5,200.667 138.5,200C 140.128,196.397 140.962,192.563 141,188.5C 142.049,189.517 143.216,189.684 144.5,189C 146.638,186.629 149.138,184.796 152,183.5C 155.319,177.859 157.819,171.859 159.5,165.5C 158.886,162.655 157.886,159.988 156.5,157.5C 157.959,157.433 159.292,157.766 160.5,158.5C 165.522,162.637 165.689,166.97 161,171.5C 160.025,181.784 154.858,189.117 145.5,193.5C 144.424,196.972 143.424,200.472 142.5,204C 150.713,213.651 153.88,224.818 152,237.5C 150.855,242.083 150.189,246.749 150,251.5C 147.641,256.525 143.975,260.192 139,262.5C 140.368,269.88 139.201,276.88 135.5,283.5C 139.263,287.89 143.93,291.057 149.5,293C 152.532,295.166 154.198,298 154.5,301.5C 157.213,311.82 153.213,316.82 142.5,316.5C 142.5,315.5 142.5,314.5 142.5,313.5C 147.898,310.86 149.898,306.527 148.5,300.5C 144.836,300.36 141.336,301.027 138,302.5C 137.167,302.333 136.333,302.167 135.5,302C 136.833,301.333 138.167,300.667 139.5,300C 136.006,300.095 132.506,300.595 129,301.5C 127.93,301.472 127.097,301.139 126.5,300.5C 129.139,299.294 129.972,297.294 129,294.5C 127.242,292.235 125.075,290.568 122.5,289.5C 122.083,288.876 121.416,288.543 120.5,288.5C 115.618,290.182 110.618,291.682 105.5,293C 99.5,297.667 93.5,302.333 87.5,307C 91.4862,307.499 95.4862,307.666 99.5,307.5C 90.1769,308.858 76.1769,308.858 57.5,307.5C 57.1667,306.833 56.8333,306.167 56.5,305.5C 63.4081,302.046 70.4081,298.546 77.5,295C 70.5537,293.389 63.5537,292.055 56.5,291C 54.3822,290.365 52.3822,289.531 50.5,288.5C 49.5836,288.543 48.9169,288.876 48.5,289.5C 44.0815,291.058 41.9148,294.058 42,298.5C 42.7083,299.381 43.5416,300.047 44.5,300.5C 40.7339,301.582 36.9006,301.248 33,299.5C 32.5,299.667 32,299.833 31.5,300C 32.5266,300.513 33.5266,301.013 34.5,301.5C 34.2648,302.097 33.7648,302.43 33,302.5C 29.9063,301.434 26.7396,300.768 23.5,300.5C 23.074,305.032 24.074,309.199 26.5,313C 36.298,315.852 46.298,317.352 56.5,317.5C 72.846,318.152 89.1794,318.818 105.5,319.5C 103.429,320.891 101.762,322.724 100.5,325C 102.81,325.497 105.143,325.663 107.5,325.5C 82.081,327.593 56.7477,326.26 31.5,321.5C 28.0615,319.796 24.3948,318.462 20.5,317.5C 18.2843,316.797 16.451,315.464 15,313.5C 13.2158,305.329 15.3825,298.496 21.5,293C 25.0689,291.058 28.4022,288.892 31.5,286.5C 33.3936,285.952 35.0603,284.952 36.5,283.5C 33.1061,276.947 31.6061,269.947 32,262.5C 30.5295,261.733 29.0295,261.067 27.5,260.5C 24.7232,258.049 22.7232,255.049 21.5,251.5C 21.6646,248.482 21.498,245.482 21,242.5C 20.6174,241.944 20.1174,241.611 19.5,241.5C 18.5872,235.559 18.2539,229.559 18.5,223.5C 20.6418,220.2 21.9751,216.533 22.5,212.5C 23.7502,210.068 25.2502,207.734 27,205.5C 27.4389,201.789 27.1056,198.122 26,194.5C 22.3333,191.5 18.6667,188.5 15,185.5C 10.2625,178.109 7.92914,170.109 8,161.5C 10.0251,157.284 12.1918,153.117 14.5,149C 14.101,147.272 13.4343,145.772 12.5,144.5C 12.4307,139.387 13.0974,134.387 14.5,129.5C 16.285,125.88 18.9517,123.047 22.5,121C 27.9867,119.122 33.6533,117.956 39.5,117.5C 35.979,111.349 34.6457,104.683 35.5,97.5C 37.2043,94.0615 38.5376,90.3948 39.5,86.5C 40.9886,82.4976 43.4886,79.1642 47,76.5C 46.2831,64.8773 49.1164,54.3773 55.5,45C 54.7309,40.6272 52.5642,37.1272 49,34.5C 47.3965,24.9078 51.2298,21.7411 60.5,25C 62.019,26.3513 63.3523,27.8513 64.5,29.5C 64.6228,25.6228 64.6228,21.7895 64.5,18C 70.2527,16.2471 72.9194,18.4137 72.5,24.5C 73.6125,22.5808 74.9458,20.9142 76.5,19.5C 77.2937,15.6423 77.9603,11.6423 78.5,7.5C 79.8738,5.04122 82.0405,4.04122 85,4.5C 88.0891,4.11354 90.5891,5.11354 92.5,7.5C 93.8962,8.85241 94.5629,10.5191 94.5,12.5C 93.1883,17.2526 94.5216,21.2526 98.5,24.5C 99.2749,22.1568 99.9416,19.8234 100.5,17.5 Z"/></g>
<g><path style="opacity:1" fill="#8b785c" d="M 34.5,255.5 C 32.7824,252.05 29.7824,248.716 25.5,245.5C 26.5923,242.976 27.9257,240.643 29.5,238.5C 31.5433,235.457 34.2099,233.124 37.5,231.5C 37.369,232.239 37.5357,232.906 38,233.5C 39.1133,231.671 40.6133,230.837 42.5,231C 40.316,233.016 38.316,235.183 36.5,237.5C 37.0253,238.192 37.6919,238.692 38.5,239C 37.1075,241.666 35.4408,244.166 33.5,246.5C 34.4066,249.421 34.7399,252.421 34.5,255.5 Z"/></g>
<g><path style="opacity:1" fill="#eadbc3" d="M 57.5,231.5 C 57.8333,231.5 58.1667,231.5 58.5,231.5C 59.5862,231.62 60.2528,232.287 60.5,233.5C 59.7308,236.115 59.3975,238.781 59.5,241.5C 58.5,241.5 57.5,241.5 56.5,241.5C 55.5655,240.432 55.2322,239.099 55.5,237.5C 55.6036,235.297 56.2702,233.297 57.5,231.5 Z"/></g>
<g><path style="opacity:1" fill="#b39e7d" d="M 49.5,221.5 C 47.9565,223.928 46.9565,226.594 46.5,229.5C 49.1667,229.5 51.8333,229.5 54.5,229.5C 50.9004,231.92 47.4004,234.586 44,237.5C 42.0318,240.813 40.0318,244.146 38,247.5C 37.6667,250.833 37.3333,254.167 37,257.5C 35.187,258.609 34.3537,257.942 34.5,255.5C 34.7399,252.421 34.4066,249.421 33.5,246.5C 35.4408,244.166 37.1075,241.666 38.5,239C 37.6919,238.692 37.0253,238.192 36.5,237.5C 38.316,235.183 40.316,233.016 42.5,231C 40.6133,230.837 39.1133,231.671 38,233.5C 37.5357,232.906 37.369,232.239 37.5,231.5C 41.0906,227.701 45.0906,224.367 49.5,221.5 Z"/></g>
<g><path style="opacity:1" fill="#e5d8bd" d="M 113.5,232.5 C 115.245,234.033 116.245,236.033 116.5,238.5C 116.715,240.179 116.048,241.179 114.5,241.5C 113.448,241.649 112.448,241.483 111.5,241C 112.719,238.717 112.719,236.384 111.5,234C 111.836,232.97 112.503,232.47 113.5,232.5 Z"/></g>
<g><path style="opacity:1" fill="#6c5d44" d="M 26.5,217.5 C 27.3578,220.992 27.5245,224.658 27,228.5C 28.3657,230.362 29.8657,232.028 31.5,233.5C 30.075,234.922 29.075,236.589 28.5,238.5C 27.5416,238.953 26.7083,239.619 26,240.5C 25.5831,236.079 24.7498,231.746 23.5,227.5C 23.7585,223.815 24.7585,220.482 26.5,217.5 Z"/></g>
<g><path style="opacity:1" fill="#b5a080" d="M 121.5,221.5 C 126.486,225.155 131.153,229.155 135.5,233.5C 135.631,234.239 135.464,234.906 135,235.5C 134.163,233.993 132.996,233.493 131.5,234C 137.146,237.579 138.48,242.245 135.5,248C 136.322,250.434 136.656,252.934 136.5,255.5C 135.992,257.233 135.159,257.566 134,256.5C 133.667,253.5 133.333,250.5 133,247.5C 130.173,244.671 128.173,241.337 127,237.5C 122.825,234.842 118.992,231.842 115.5,228.5C 116.791,228.737 117.791,228.404 118.5,227.5C 120.598,228.914 121.598,228.248 121.5,225.5C 120.209,225.263 119.209,225.596 118.5,226.5C 117.957,226.44 117.624,226.107 117.5,225.5C 118.689,224.571 120.022,224.238 121.5,224.5C 121.5,223.5 121.5,222.5 121.5,221.5 Z"/></g>
<g><path style="opacity:1" fill="#706049" d="M 143.5,215.5 C 144.966,216.347 145.8,217.68 146,219.5C 146.826,226.6 146.326,233.6 144.5,240.5C 143.575,239.643 142.908,238.643 142.5,237.5C 141.5,236.167 140.5,234.833 139.5,233.5C 141.306,231.911 142.639,229.911 143.5,227.5C 143.543,225.102 143.543,222.769 143.5,220.5C 143.5,218.833 143.5,217.167 143.5,215.5 Z"/></g>
<g><path style="opacity:1" fill="#57452d" d="M 96.5,196.5 C 99.8918,201.401 103.892,205.901 108.5,210C 119.561,216.898 129.895,224.731 139.5,233.5C 140.5,234.833 141.5,236.167 142.5,237.5C 141.833,237.5 141.5,237.833 141.5,238.5C 139.5,236.833 137.5,235.167 135.5,233.5C 131.153,229.155 126.486,225.155 121.5,221.5C 110.975,215.977 102.308,208.311 95.5,198.5C 96.3382,198.158 96.6716,197.492 96.5,196.5 Z"/></g>
<g><path style="opacity:1" fill="#5b4e39" d="M 118.5,227.5 C 118.5,227.167 118.5,226.833 118.5,226.5C 119.209,225.596 120.209,225.263 121.5,225.5C 121.598,228.248 120.598,228.914 118.5,227.5 Z"/></g>
<g><path style="opacity:1" fill="#7e6d51" d="M 112.5,230.5 C 109.575,230.54 106.909,229.707 104.5,228C 97.2867,222.288 90.9534,215.788 85.5,208.5C 81.6076,213.768 77.2743,218.601 72.5,223C 68.1406,226.565 63.4739,229.398 58.5,231.5C 58.1667,231.5 57.8333,231.5 57.5,231.5C 61.3271,227.559 65.6604,224.059 70.5,221C 76.0824,215.923 81.0824,210.423 85.5,204.5C 89.0963,209.436 93.0963,214.103 97.5,218.5C 102.543,222.554 107.543,226.554 112.5,230.5 Z"/></g>
<g><path style="opacity:1" fill="#b39f7d" d="M 129.5,208.5 C 130.031,210.544 131.198,212.211 133,213.5C 133.14,211.744 132.64,210.078 131.5,208.5C 132.355,207.707 133.189,208.04 134,209.5C 134.613,207.505 134.113,205.838 132.5,204.5C 137.822,207.467 140.322,212.134 140,218.5C 141,219.5 142,220.5 143,221.5C 143.399,221.272 143.565,220.938 143.5,220.5C 143.543,222.769 143.543,225.102 143.5,227.5C 142.639,229.911 141.306,231.911 139.5,233.5C 129.895,224.731 119.561,216.898 108.5,210C 103.892,205.901 99.8918,201.401 96.5,196.5C 95.8555,193.061 96.8555,192.728 99.5,195.5C 102.739,201.742 107.405,206.742 113.5,210.5C 114.167,210.167 114.833,209.833 115.5,209.5C 117.702,211.268 120.035,212.435 122.5,213C 117.366,208.867 112.532,204.367 108,199.5C 107.312,198.668 107.479,198.002 108.5,197.5C 110.5,198.833 112.5,200.167 114.5,201.5C 114.833,201.167 115.167,200.833 115.5,200.5C 113.81,197.976 111.643,195.976 109,194.5C 108.409,193.517 108.743,192.85 110,192.5C 112.39,193.278 114.557,194.445 116.5,196C 120.649,200.315 124.982,204.482 129.5,208.5 Z"/></g>
<g><path style="opacity:1" fill="#bca683" d="M 112.5,230.5 C 112.833,231.167 113.167,231.833 113.5,232.5C 112.503,232.47 111.836,232.97 111.5,234C 112.719,236.384 112.719,238.717 111.5,241C 112.448,241.483 113.448,241.649 114.5,241.5C 112.438,242.776 110.104,243.61 107.5,244C 91.4648,246.109 75.4648,245.943 59.5,243.5C 58.5,242.833 57.5,242.167 56.5,241.5C 57.5,241.5 58.5,241.5 59.5,241.5C 59.3975,238.781 59.7308,236.115 60.5,233.5C 60.2528,232.287 59.5862,231.62 58.5,231.5C 63.4739,229.398 68.1406,226.565 72.5,223C 77.2743,218.601 81.6076,213.768 85.5,208.5C 90.9534,215.788 97.2867,222.288 104.5,228C 106.909,229.707 109.575,230.54 112.5,230.5 Z"/></g>
<g><path style="opacity:1" fill="#b39f7e" d="M 72.5,193.5 C 73.4972,193.47 74.1639,193.97 74.5,195C 71.654,200.854 67.654,205.854 62.5,210C 51.4187,216.871 41.0854,224.704 31.5,233.5C 29.8657,232.028 28.3657,230.362 27,228.5C 27.5245,224.658 27.3578,220.992 26.5,217.5C 26.2627,216.209 26.596,215.209 27.5,214.5C 28.1376,219.45 28.9709,219.117 30,213.5C 32.0563,210.281 34.5563,207.615 37.5,205.5C 37.369,206.239 37.5357,206.906 38,207.5C 41,203.167 44.6667,199.5 49,196.5C 49.6667,197.167 49.6667,197.833 49,198.5C 44.6807,201.778 41.6807,205.778 40,210.5C 43.0162,207.651 45.8496,204.651 48.5,201.5C 52.1734,199.662 55.5067,197.329 58.5,194.5C 58.218,196.835 56.8847,199.002 54.5,201C 55.5,201.667 56.5,201.667 57.5,201C 58.3992,199.764 59.5659,198.93 61,198.5C 62.2575,198.85 62.5908,199.517 62,200.5C 56.8587,204.971 51.692,209.471 46.5,214C 49.4037,213.651 52.0704,212.485 54.5,210.5C 55.1667,210.833 55.8333,211.167 56.5,211.5C 63.649,207.023 68.9823,201.023 72.5,193.5 Z"/></g>
<g><path style="opacity:1" fill="#d1c1a6" d="M 54.5,190.5 C 47.8918,194.442 42.2252,199.442 37.5,205.5C 34.5563,207.615 32.0563,210.281 30,213.5C 28.9709,219.117 28.1376,219.45 27.5,214.5C 33.2194,204.611 40.886,196.444 50.5,190C 52.0657,189.235 53.3991,189.402 54.5,190.5 Z"/></g>
<g><path style="opacity:1" fill="#56452f" d="M 72.5,193.5 C 74.3469,192.427 76.3469,192.427 78.5,193.5C 71.4496,205.551 61.7829,214.884 49.5,221.5C 45.0906,224.367 41.0906,227.701 37.5,231.5C 34.2099,233.124 31.5433,235.457 29.5,238.5C 29.1667,238.5 28.8333,238.5 28.5,238.5C 29.075,236.589 30.075,234.922 31.5,233.5C 41.0854,224.704 51.4187,216.871 62.5,210C 67.654,205.854 71.654,200.854 74.5,195C 74.1639,193.97 73.4972,193.47 72.5,193.5 Z"/></g>
<g><path style="opacity:1" fill="#978465" d="M 128.5,200.5 C 130.167,201.5 131.5,202.833 132.5,204.5C 134.113,205.838 134.613,207.505 134,209.5C 133.189,208.04 132.355,207.707 131.5,208.5C 132.64,210.078 133.14,211.744 133,213.5C 131.198,212.211 130.031,210.544 129.5,208.5C 127.503,203.988 124.503,200.155 120.5,197C 123.392,197.541 125.892,199.041 128,201.5C 128.399,201.272 128.565,200.938 128.5,200.5 Z"/></g>
<g><path style="opacity:1" fill="#6f5e42" d="M 54.5,190.5 C 55.2312,190.942 56.2312,191.109 57.5,191C 56.0403,191.811 55.707,192.645 56.5,193.5C 57.8524,192.104 59.5191,191.437 61.5,191.5C 65.4906,192.237 69.1572,192.904 72.5,193.5C 68.9823,201.023 63.649,207.023 56.5,211.5C 55.8333,211.167 55.1667,210.833 54.5,210.5C 52.0704,212.485 49.4037,213.651 46.5,214C 51.692,209.471 56.8587,204.971 62,200.5C 62.5908,199.517 62.2575,198.85 61,198.5C 59.5659,198.93 58.3992,199.764 57.5,201C 56.5,201.667 55.5,201.667 54.5,201C 56.8847,199.002 58.218,196.835 58.5,194.5C 55.5067,197.329 52.1734,199.662 48.5,201.5C 45.8496,204.651 43.0162,207.651 40,210.5C 41.6807,205.778 44.6807,201.778 49,198.5C 49.6667,197.833 49.6667,197.167 49,196.5C 44.6667,199.5 41,203.167 38,207.5C 37.5357,206.906 37.369,206.239 37.5,205.5C 42.2252,199.442 47.8918,194.442 54.5,190.5 Z"/></g>
<g><path style="opacity:1" fill="#e8ddc4" d="M 78.5,193.5 C 83.544,193.173 88.544,193.506 93.5,194.5C 94.1799,195.86 94.8466,197.193 95.5,198.5C 102.308,208.311 110.975,215.977 121.5,221.5C 121.5,222.5 121.5,223.5 121.5,224.5C 120.022,224.238 118.689,224.571 117.5,225.5C 117.624,226.107 117.957,226.44 118.5,226.5C 118.5,226.833 118.5,227.167 118.5,227.5C 117.791,228.404 116.791,228.737 115.5,228.5C 102.543,221.543 92.5429,211.543 85.5,198.5C 78.2314,211.769 67.8981,222.102 54.5,229.5C 51.8333,229.5 49.1667,229.5 46.5,229.5C 46.9565,226.594 47.9565,223.928 49.5,221.5C 61.7829,214.884 71.4496,205.551 78.5,193.5 Z"/></g>
<g><path style="opacity:1" fill="#73674b" d="M 49.5,225.5 C 51.3547,225.272 52.1881,225.939 52,227.5C 49.1924,228.86 48.3591,228.193 49.5,225.5 Z"/></g>
<g><path style="opacity:1" fill="#6e624b" d="M 107.5,217.5 C 110.5,217.167 111.833,218.5 111.5,221.5C 108.5,221.833 107.167,220.5 107.5,217.5 Z"/></g>
<g><path style="opacity:1" fill="#6d6248" d="M 60.5,217.5 C 61.5,217.5 62.5,217.5 63.5,217.5C 63.8333,220.5 62.5,221.833 59.5,221.5C 59.4326,220.041 59.7659,218.708 60.5,217.5 Z"/></g>
<g><path style="opacity:1" fill="#72654f" d="M 98.5,209.5 C 101.5,209.167 102.833,210.5 102.5,213.5C 99.5,213.833 98.1667,212.5 98.5,209.5 Z"/></g>
<g><path style="opacity:1" fill="#584c34" d="M 69.5,209.5 C 70.5,209.5 71.5,209.5 72.5,209.5C 72.5,210.5 72.5,211.5 72.5,212.5C 71.5,212.5 70.5,212.5 69.5,212.5C 69.5,211.5 69.5,210.5 69.5,209.5 Z"/></g>
<g><path style="opacity:1" fill="#645840" d="M 90.5,199.5 C 91.5,199.5 92.5,199.5 93.5,199.5C 93.5,200.5 93.5,201.5 93.5,202.5C 92.5,202.5 91.5,202.5 90.5,202.5C 90.5,201.5 90.5,200.5 90.5,199.5 Z"/></g>
<g><path style="opacity:1" fill="#4f442e" d="M 77.5,199.5 C 79.4646,199.948 79.7979,200.948 78.5,202.5C 77.6143,201.675 77.281,200.675 77.5,199.5 Z"/></g>
<g><path style="opacity:1" fill="#78674c" d="M 25.5,163.5 C 22.5018,163.751 20.0018,162.751 18,160.5C 16.1147,160.862 15.2814,162.029 15.5,164C 17.8019,169.902 20.3019,175.735 23,181.5C 25.0583,183.068 27.2249,184.402 29.5,185.5C 32.6036,184.295 35.2703,182.628 37.5,180.5C 38.4013,181.29 39.0679,182.29 39.5,183.5C 32.7608,183.972 30.9274,187.305 34,193.5C 35.2635,195.607 37.0968,196.607 39.5,196.5C 33.9428,202.59 30.9428,201.423 30.5,193C 30.9607,190.801 31.1273,188.634 31,186.5C 30.2753,187.059 29.4419,187.392 28.5,187.5C 22.3123,187.234 18.1457,184.234 16,178.5C 14.3622,173.92 12.5288,169.42 10.5,165C 14.2178,154.47 19.2178,153.97 25.5,163.5 Z"/></g>
<g><path style="opacity:1" fill="#d2c2a7" d="M 117.5,189.5 C 129.17,195.17 137.837,203.837 143.5,215.5C 143.5,217.167 143.5,218.833 143.5,220.5C 143.565,220.938 143.399,221.272 143,221.5C 142,220.5 141,219.5 140,218.5C 140.322,212.134 137.822,207.467 132.5,204.5C 131.5,202.833 130.167,201.5 128.5,200.5C 125.027,196.605 121.36,192.939 117.5,189.5 Z"/></g>
<g><path style="opacity:1" fill="#67563c" d="M 117.5,189.5 C 121.36,192.939 125.027,196.605 128.5,200.5C 128.565,200.938 128.399,201.272 128,201.5C 125.892,199.041 123.392,197.541 120.5,197C 124.503,200.155 127.503,203.988 129.5,208.5C 124.982,204.482 120.649,200.315 116.5,196C 114.557,194.445 112.39,193.278 110,192.5C 108.743,192.85 108.409,193.517 109,194.5C 111.643,195.976 113.81,197.976 115.5,200.5C 115.167,200.833 114.833,201.167 114.5,201.5C 112.5,200.167 110.5,198.833 108.5,197.5C 107.479,198.002 107.312,198.668 108,199.5C 112.532,204.367 117.366,208.867 122.5,213C 120.035,212.435 117.702,211.268 115.5,209.5C 114.833,209.833 114.167,210.167 113.5,210.5C 107.405,206.742 102.739,201.742 99.5,195.5C 100.222,195.082 100.722,194.416 101,193.5C 101.333,193.833 101.667,194.167 102,194.5C 102.519,193.484 103.353,192.818 104.5,192.5C 108.977,191.959 113.311,190.959 117.5,189.5 Z"/></g>
<g><path style="opacity:1" fill="#c1ac8d" d="M 131.5,183.5 C 135.223,183.223 137.556,184.89 138.5,188.5C 137.82,191.36 136.487,193.86 134.5,196C 133.181,196.195 131.847,196.028 130.5,195.5C 128.521,194.188 126.855,192.521 125.5,190.5C 127.523,188.147 129.523,185.814 131.5,183.5 Z"/></g>
<g><path style="opacity:1" fill="#beaa88" d="M 39.5,183.5 C 41.2655,186.029 43.2655,188.362 45.5,190.5C 43.424,192.515 41.424,194.515 39.5,196.5C 37.0968,196.607 35.2635,195.607 34,193.5C 30.9274,187.305 32.7608,183.972 39.5,183.5 Z"/></g>
<g><path style="opacity:1" fill="#bda988" d="M 133.5,179.5 C 135.602,176.069 137.435,172.402 139,168.5C 140.371,166.959 141.871,165.625 143.5,164.5C 145.5,164.5 147.5,164.5 149.5,164.5C 151.154,158.161 153.154,157.994 155.5,164C 152.93,169.878 150.263,175.711 147.5,181.5C 145.72,183.444 143.553,184.777 141,185.5C 138.78,183.807 136.28,182.807 133.5,182.5C 133.5,181.5 133.5,180.5 133.5,179.5 Z"/></g>
<g><path style="opacity:1" fill="#675840" d="M 58.5,169.5 C 59.4024,173.467 60.4024,177.133 61.5,180.5C 63.2205,177.672 64.5538,174.672 65.5,171.5C 68.8509,172.898 72.1842,174.398 75.5,176C 73.4311,176.324 73.0977,177.158 74.5,178.5C 73.2713,179.281 71.938,179.781 70.5,180C 71.8333,180.667 73.1667,181.333 74.5,182C 73.5842,182.278 72.9175,182.778 72.5,183.5C 68.19,182.92 63.8566,182.586 59.5,182.5C 60.0443,178.36 59.0443,177.693 56.5,180.5C 57.9193,176.985 58.586,173.319 58.5,169.5 Z"/></g>
<g><path style="opacity:1" fill="#bda886" d="M 25.5,163.5 C 25.8333,163.5 26.1667,163.5 26.5,163.5C 27.4363,164.974 28.7697,165.974 30.5,166.5C 32.8324,171.162 35.1657,175.828 37.5,180.5C 35.2703,182.628 32.6036,184.295 29.5,185.5C 27.2249,184.402 25.0583,183.068 23,181.5C 20.3019,175.735 17.8019,169.902 15.5,164C 15.2814,162.029 16.1147,160.862 18,160.5C 20.0018,162.751 22.5018,163.751 25.5,163.5 Z"/></g>
<g><path style="opacity:1" fill="#746348" d="M 156.5,157.5 C 157.886,159.988 158.886,162.655 159.5,165.5C 157.819,171.859 155.319,177.859 152,183.5C 149.138,184.796 146.638,186.629 144.5,189C 143.216,189.684 142.049,189.517 141,188.5C 140.962,192.563 140.128,196.397 138.5,200C 137.5,200.667 136.5,200.667 135.5,200C 133.76,198.483 132.094,196.983 130.5,195.5C 131.847,196.028 133.181,196.195 134.5,196C 136.487,193.86 137.82,191.36 138.5,188.5C 137.556,184.89 135.223,183.223 131.5,183.5C 131.989,182.005 132.655,180.671 133.5,179.5C 133.5,180.5 133.5,181.5 133.5,182.5C 136.28,182.807 138.78,183.807 141,185.5C 143.553,184.777 145.72,183.444 147.5,181.5C 150.263,175.711 152.93,169.878 155.5,164C 153.154,157.994 151.154,158.161 149.5,164.5C 147.5,164.5 145.5,164.5 143.5,164.5C 143.842,163.662 144.508,163.328 145.5,163.5C 147.742,159.206 151.409,157.206 156.5,157.5 Z"/></g>
<g><path style="opacity:1" fill="#f4f2f0" d="M 112.5,176.5 C 112.5,174.167 112.5,171.833 112.5,169.5C 115.099,167.521 117.765,165.521 120.5,163.5C 123.848,167.672 128.181,169.339 133.5,168.5C 131.817,175.529 128.317,181.529 123,186.5C 118.03,184.618 114.53,181.284 112.5,176.5 Z"/></g>
<g><path style="opacity:1" fill="#f8f7f5" d="M 58.5,169.5 C 58.586,173.319 57.9193,176.985 56.5,180.5C 53.7835,182.613 50.9502,184.613 48,186.5C 42.1733,181.845 38.6733,175.845 37.5,168.5C 42.2343,168.866 46.4009,167.533 50,164.5C 52.9949,166.074 55.8283,167.74 58.5,169.5 Z"/></g>
<g><path style="opacity:1" fill="#7d6e51" d="M 75.5,158.5 C 76.3019,159.952 76.8019,161.618 77,163.5C 77.4996,170.158 77.6663,176.825 77.5,183.5C 75.8333,183.5 74.1667,183.5 72.5,183.5C 72.9175,182.778 73.5842,182.278 74.5,182C 73.1667,181.333 71.8333,180.667 70.5,180C 71.938,179.781 73.2713,179.281 74.5,178.5C 73.0977,177.158 73.4311,176.324 75.5,176C 72.1842,174.398 68.8509,172.898 65.5,171.5C 64.3146,170.143 63.3146,168.643 62.5,167C 62.9054,166.055 63.572,165.388 64.5,165C 62.2922,164.809 60.2922,164.309 58.5,163.5C 64.151,164.07 69.4843,163.07 74.5,160.5C 75.2975,160.043 75.6309,159.376 75.5,158.5 Z"/></g>
<g><path style="opacity:1" fill="#7a6b4e" d="M 95.5,158.5 C 97.7246,162.949 101.391,164.616 106.5,163.5C 108.167,163.5 109.833,163.5 111.5,163.5C 110.048,164.302 108.382,164.802 106.5,165C 109.19,165.335 109.857,166.501 108.5,168.5C 105.319,170.837 101.986,173.004 98.5,175C 100.465,176.565 102.631,177.732 105,178.5C 105.49,179.793 105.657,181.127 105.5,182.5C 101.202,183.2 96.8689,183.533 92.5,183.5C 91.9588,174.842 92.9588,166.508 95.5,158.5 Z"/></g>
<g><path style="opacity:1" fill="#deceb4" d="M 120.5,152.5 C 120.5,152.833 120.5,153.167 120.5,153.5C 119.6,158.733 116.6,162.066 111.5,163.5C 109.833,163.5 108.167,163.5 106.5,163.5C 105.048,162.698 103.382,162.198 101.5,162C 110.417,163.542 116.75,160.376 120.5,152.5 Z"/></g>
<g><path style="opacity:1" fill="#a99779" d="M 80.5,184.5 C 80.5,180.833 80.5,177.167 80.5,173.5C 80.4135,169.143 80.0802,164.81 79.5,160.5C 83.5,160.5 87.5,160.5 91.5,160.5C 90.6351,168.466 90.3018,176.466 90.5,184.5C 87.1667,184.5 83.8333,184.5 80.5,184.5 Z"/></g>
<g><path style="opacity:1" fill="#bda884" d="M 83.5,164.5 C 83.5,165.5 83.5,166.5 83.5,167.5C 84.9179,169.308 86.9179,169.975 89.5,169.5C 89.5,174.167 89.5,178.833 89.5,183.5C 86.8333,183.5 84.1667,183.5 81.5,183.5C 81.7951,176.774 81.4617,170.108 80.5,163.5C 82.0517,162.202 83.0517,162.535 83.5,164.5 Z"/></g>
<g><path style="opacity:1" fill="#6e5c3d" d="M 84.5,176.5 C 87.9563,177.536 88.2896,179.203 85.5,181.5C 83.2957,180.218 82.9624,178.551 84.5,176.5 Z"/></g>
<g><path style="opacity:1" fill="#67543a" d="M 83.5,167.5 C 83.5,166.5 83.5,165.5 83.5,164.5C 85.2296,163.024 86.5629,163.358 87.5,165.5C 86.6798,167.111 85.3464,167.778 83.5,167.5 Z"/></g>
<g><path style="opacity:1" fill="#ae9c7c" d="M 17.5,149.5 C 22.5908,149.43 26.5908,151.43 29.5,155.5C 27.6812,156.32 26.0145,157.32 24.5,158.5C 22.0286,156.615 19.3619,154.948 16.5,153.5C 17.2458,152.264 17.5792,150.93 17.5,149.5 Z"/></g>
<g><path style="opacity:1" fill="#7f715c" d="M 84.5,152.5 C 86.9118,152.694 87.9118,154.027 87.5,156.5C 86.1667,156.5 84.8333,156.5 83.5,156.5C 83.4326,155.041 83.7659,153.708 84.5,152.5 Z"/></g>
<g><path style="opacity:1" fill="#ecddc5" d="M 115.5,112.5 C 118.802,112.912 121.469,114.245 123.5,116.5C 120.944,121.722 117.278,122.722 112.5,119.5C 111.737,118.732 110.737,118.232 109.5,118C 110.823,117.184 111.489,116.017 111.5,114.5C 112.923,116.545 114.923,117.545 117.5,117.5C 117.863,115.089 116.863,113.589 114.5,113C 114.728,112.601 115.062,112.435 115.5,112.5 Z"/></g>
<g><path style="opacity:1" fill="#8b7c63" d="M 115.5,111.5 C 115.5,111.833 115.5,112.167 115.5,112.5C 115.062,112.435 114.728,112.601 114.5,113C 116.863,113.589 117.863,115.089 117.5,117.5C 114.923,117.545 112.923,116.545 111.5,114.5C 112.262,112.738 113.596,111.738 115.5,111.5 Z"/></g>
<g><path style="opacity:1" fill="#ccbda1" d="M 128.5,106.5 C 127.736,109.018 126.736,111.351 125.5,113.5C 124.833,114.5 124.167,115.5 123.5,116.5C 121.469,114.245 118.802,112.912 115.5,112.5C 115.5,112.167 115.5,111.833 115.5,111.5C 115.369,110.624 115.702,109.957 116.5,109.5C 117.528,111.58 118.862,111.914 120.5,110.5C 124.412,109.635 126.912,107.302 128,103.5C 128.483,104.448 128.649,105.448 128.5,106.5 Z"/></g>
<g><path style="opacity:1" fill="#aa997e" d="M 60.5,115.5 C 58.1667,116.167 55.8333,116.833 53.5,117.5C 53.2965,115.61 53.9632,114.11 55.5,113C 50.7223,113.643 46.889,111.809 44,107.5C 43.5357,108.094 43.369,108.761 43.5,109.5C 42.7321,108.737 42.2321,107.737 42,106.5C 41.5014,102.848 41.3347,99.1817 41.5,95.5C 42.1174,95.3893 42.6174,95.056 43,94.5C 43.6782,101.529 46.6782,107.196 52,111.5C 52.9503,110.978 53.7836,110.311 54.5,109.5C 56.5332,111.507 58.5332,113.507 60.5,115.5 Z"/></g>
<g><path style="opacity:1" fill="#726248" d="M 56.5,52.5 C 56.4142,53.4959 56.7476,54.3292 57.5,55C 63.3566,55.6705 69.1899,56.5039 75,57.5C 77.1454,57.604 78.9788,56.9373 80.5,55.5C 81.6956,55.8457 81.6956,56.3457 80.5,57C 85.5545,59.2765 90.2211,58.7765 94.5,55.5C 95.0955,58.1125 95.9288,58.1125 97,55.5C 99.3975,58.0544 101.731,58.0544 104,55.5C 106.838,56.6753 109.671,56.5086 112.5,55C 113.756,54.5831 114.423,53.7498 114.5,52.5C 115.966,53.347 116.8,54.6803 117,56.5C 117.88,65.5146 118.88,74.5146 120,83.5C 120.778,86.1838 122.111,88.5172 124,90.5C 124.794,93.4715 125.461,96.4715 126,99.5C 126.333,97.1667 126.667,94.8333 127,92.5C 127.667,93.1667 128.333,93.8333 129,94.5C 129.812,98.6888 129.645,102.689 128.5,106.5C 128.649,105.448 128.483,104.448 128,103.5C 126.912,107.302 124.412,109.635 120.5,110.5C 120.301,108.04 119.635,105.707 118.5,103.5C 116.521,106.625 114.188,109.458 111.5,112C 108.79,114.411 105.79,115.244 102.5,114.5C 106.084,110.415 108.584,105.749 110,100.5C 117.398,94.74 119.232,87.5733 115.5,79C 112.314,78.7421 110.314,77.0754 109.5,74C 102.376,71.8738 97.543,67.3738 95,60.5C 92.408,63.7621 89.2413,66.2621 85.5,68C 79.3698,68.5438 73.7031,70.3771 68.5,73.5C 67.9003,71.4244 67.567,69.4244 67.5,67.5C 63.3102,70.3408 60.3102,74.0075 58.5,78.5C 57.448,78.3505 56.448,78.5172 55.5,79C 52.7281,85.0185 53.2281,90.8518 57,96.5C 60.7849,100.515 63.4516,105.181 65,110.5C 68.2088,112.555 69.3755,115.222 68.5,118.5C 65.6897,117.801 63.023,116.801 60.5,115.5C 58.5332,113.507 56.5332,111.507 54.5,109.5C 53.7836,110.311 52.9503,110.978 52,111.5C 46.6782,107.196 43.6782,101.529 43,94.5C 42.6174,95.056 42.1174,95.3893 41.5,95.5C 41.4148,94.0047 42.0815,93.0047 43.5,92.5C 44.2978,94.0777 44.7978,95.7444 45,97.5C 46.9142,92.0131 49.0809,86.6798 51.5,81.5C 52.3315,73.8549 52.8315,66.1883 53,58.5C 54.4585,56.5681 55.6252,54.5681 56.5,52.5 Z"/></g>
<g><path style="opacity:1" fill="#8b7a5f" d="M 59.5,81.5 C 59.8872,84.2061 60.8872,86.5395 62.5,88.5C 61.4589,91.4578 61.4589,94.4578 62.5,97.5C 56.8887,94.1184 54.7221,89.1184 56,82.5C 57.0113,81.6634 58.1779,81.33 59.5,81.5 Z"/></g>
<g><path style="opacity:1" fill="#84735a" d="M 112.5,93.5 C 111.105,91.3074 110.105,88.9741 109.5,86.5C 109.651,82.686 111.651,81.0193 115.5,81.5C 116.114,86.0319 115.114,90.0319 112.5,93.5 Z"/></g>
<g><path style="opacity:1" fill="#847357" d="M 103.5,73.5 C 105.661,73.8258 107.494,74.8258 109,76.5C 108.664,80.3334 108.831,84.0001 109.5,87.5C 109.719,88.675 109.386,89.675 108.5,90.5C 107.682,87.8929 107.182,85.2263 107,82.5C 106.901,84.6526 106.067,86.3192 104.5,87.5C 104.5,86.1667 104.5,84.8333 104.5,83.5C 102.345,83.628 100.345,83.128 98.5,82C 100.058,81.79 101.391,81.29 102.5,80.5C 103.978,80.762 105.311,80.4287 106.5,79.5C 105.999,77.1643 104.999,75.1643 103.5,73.5 Z"/></g>
<g><path style="opacity:1" fill="#bca684" d="M 96.5,67.5 C 98.2227,70.2235 100.556,72.2235 103.5,73.5C 104.999,75.1643 105.999,77.1643 106.5,79.5C 105.311,80.4287 103.978,80.762 102.5,80.5C 98.9153,80.1524 95.582,80.819 92.5,82.5C 89.4281,83.3178 89.0948,84.4845 91.5,86C 90.3975,88.3909 91.0642,88.8909 93.5,87.5C 94.5,88.1667 95.5,88.8333 96.5,89.5C 98.1848,88.0473 99.8514,86.714 101.5,85.5C 102.774,86.1894 102.774,87.0228 101.5,88C 102.577,88.4696 103.577,88.3029 104.5,87.5C 106.067,86.3192 106.901,84.6526 107,82.5C 107.182,85.2263 107.682,87.8929 108.5,90.5C 109.386,89.675 109.719,88.675 109.5,87.5C 109.5,87.1667 109.5,86.8333 109.5,86.5C 110.105,88.9741 111.105,91.3074 112.5,93.5C 111.432,94.4345 110.099,94.7678 108.5,94.5C 106.908,103.851 102.574,111.684 95.5,118C 88.7658,122.606 82.0991,122.606 75.5,118C 68.9053,112.578 64.572,105.744 62.5,97.5C 61.4589,94.4578 61.4589,91.4578 62.5,88.5C 62.2308,86.5714 62.7308,84.9047 64,83.5C 64.2633,86.264 65.7633,87.9306 68.5,88.5C 67.9394,86.9345 68.6061,85.6011 70.5,84.5C 71.7389,89.3053 74.2389,90.3053 78,87.5C 78.7175,88.4506 79.5509,88.6172 80.5,88C 79.8263,86.2494 79.493,84.5827 79.5,83C 75.3316,81.2689 70.9983,80.1022 66.5,79.5C 68.8282,76.6646 71.8282,74.8313 75.5,74C 82.7932,73.7395 89.1265,71.2395 94.5,66.5C 95.1835,66.8627 95.8501,67.1961 96.5,67.5 Z"/></g>
<g><path style="opacity:1" fill="#715e43" d="M 81.5,104.5 C 84.1873,104.336 86.854,104.503 89.5,105C 93.5203,107.517 93.1869,109.517 88.5,111C 84.4584,111.881 80.7917,111.048 77.5,108.5C 78.8665,107.16 80.1999,105.827 81.5,104.5 Z"/></g>
<g><path style="opacity:1" fill="#827158" d="M 92.5,82.5 C 92.2759,86.5148 93.4425,87.1815 96,84.5C 97.8914,84.6872 99.7247,85.0205 101.5,85.5C 99.8514,86.714 98.1848,88.0473 96.5,89.5C 95.5,88.8333 94.5,88.1667 93.5,87.5C 91.0642,88.8909 90.3975,88.3909 91.5,86C 89.0948,84.4845 89.4281,83.3178 92.5,82.5 Z"/></g>
<g><path style="opacity:1" fill="#5c4e37" d="M 102.5,80.5 C 101.391,81.29 100.058,81.79 98.5,82C 100.345,83.128 102.345,83.628 104.5,83.5C 104.5,84.8333 104.5,86.1667 104.5,87.5C 103.577,88.3029 102.577,88.4696 101.5,88C 102.774,87.0228 102.774,86.1894 101.5,85.5C 99.7247,85.0205 97.8914,84.6872 96,84.5C 93.4425,87.1815 92.2759,86.5148 92.5,82.5C 95.582,80.819 98.9153,80.1524 102.5,80.5 Z"/></g>
<g><path style="opacity:1" fill="#716148" d="M 96.5,67.5 C 95.8501,67.1961 95.1835,66.8627 94.5,66.5C 89.1265,71.2395 82.7932,73.7395 75.5,74C 71.8282,74.8313 68.8282,76.6646 66.5,79.5C 70.9983,80.1022 75.3316,81.2689 79.5,83C 79.493,84.5827 79.8263,86.2494 80.5,88C 79.5509,88.6172 78.7175,88.4506 78,87.5C 74.2389,90.3053 71.7389,89.3053 70.5,84.5C 68.6061,85.6011 67.9394,86.9345 68.5,88.5C 65.7633,87.9306 64.2633,86.264 64,83.5C 62.7308,84.9047 62.2308,86.5714 62.5,88.5C 60.8872,86.5395 59.8872,84.2061 59.5,81.5C 60.8854,78.5832 62.3854,75.5832 64,72.5C 63.5441,75.4284 63.5441,78.4284 64,81.5C 64.7922,79.4127 65.9588,77.5793 67.5,76C 74.2246,72.9007 81.2246,70.5674 88.5,69C 90.96,67.5422 93.1266,65.7089 95,63.5C 95.7914,64.745 96.2914,66.0783 96.5,67.5 Z"/></g>
<g><path style="opacity:1" fill="#a3906f" d="M 113.5,50.5 C 113.833,51.1667 114.167,51.8333 114.5,52.5C 114.423,53.7498 113.756,54.5831 112.5,55C 109.671,56.5086 106.838,56.6753 104,55.5C 101.731,58.0544 99.3975,58.0544 97,55.5C 95.9288,58.1125 95.0955,58.1125 94.5,55.5C 100.352,52.4603 106.685,50.7936 113.5,50.5 Z"/></g>
<g><path style="opacity:1" fill="#a69373" d="M 59.5,48.5 C 60.1667,49.1667 60.8333,49.8333 61.5,50.5C 67.1615,52.4143 72.9948,53.081 79,52.5C 84.3985,53.0026 89.5652,54.0026 94.5,55.5C 90.2211,58.7765 85.5545,59.2765 80.5,57C 81.6956,56.3457 81.6956,55.8457 80.5,55.5C 78.9788,56.9373 77.1454,57.604 75,57.5C 69.1899,56.5039 63.3566,55.6705 57.5,55C 56.7476,54.3292 56.4142,53.4959 56.5,52.5C 57.0256,50.7697 58.0256,49.4363 59.5,48.5 Z"/></g>
<g><path style="opacity:1" fill="#7b6a4f" d="M 111.5,47.5 C 112.167,48.5 112.833,49.5 113.5,50.5C 106.685,50.7936 100.352,52.4603 94.5,55.5C 89.5652,54.0026 84.3985,53.0026 79,52.5C 72.9948,53.081 67.1615,52.4143 61.5,50.5C 72.5385,46.6465 83.8718,45.6465 95.5,47.5C 94.6744,48.451 94.5078,49.451 95,50.5C 99.2909,46.9375 103.791,46.9375 108.5,50.5C 109.288,49.2299 110.288,48.2299 111.5,47.5 Z"/></g>
<g><path style="opacity:1" fill="#5a4932" d="M 77.5,41.5 C 80.5,41.5 83.5,41.5 86.5,41.5C 89.5,41.5 92.5,41.5 95.5,41.5C 97.4352,42.1495 99.4352,42.4828 101.5,42.5C 104.215,44.0719 107.215,45.0719 110.5,45.5C 110.833,46.1667 111.167,46.8333 111.5,47.5C 110.288,48.2299 109.288,49.2299 108.5,50.5C 103.791,46.9375 99.2909,46.9375 95,50.5C 94.5078,49.451 94.6744,48.451 95.5,47.5C 83.8718,45.6465 72.5385,46.6465 61.5,50.5C 60.8333,49.8333 60.1667,49.1667 59.5,48.5C 60.1098,47.609 60.4431,46.609 60.5,45.5C 63.7846,45.0719 66.7846,44.0719 69.5,42.5C 71.5,42.5 73.5,42.5 75.5,42.5C 72.8503,43.247 70.1836,44.247 67.5,45.5C 69.1875,46.568 70.8541,46.4014 72.5,45C 82.4289,44.0257 92.2622,44.5257 102,46.5C 102.5,46.1667 103,45.8333 103.5,45.5C 102.624,44.7492 101.624,44.2492 100.5,44C 92.6876,43.1228 85.0209,42.2894 77.5,41.5 Z"/></g>
<g><path style="opacity:1" fill="#99886c" d="M 77.5,41.5 C 85.0209,42.2894 92.6876,43.1228 100.5,44C 101.624,44.2492 102.624,44.7492 103.5,45.5C 103,45.8333 102.5,46.1667 102,46.5C 92.2622,44.5257 82.4289,44.0257 72.5,45C 70.8541,46.4014 69.1875,46.568 67.5,45.5C 70.1836,44.247 72.8503,43.247 75.5,42.5C 75.8417,41.6618 76.5084,41.3284 77.5,41.5 Z"/></g>
<g><path style="opacity:1" fill="#96856d" d="M 110.5,45.5 C 107.215,45.0719 104.215,44.0719 101.5,42.5C 104.128,42.0502 106.461,41.0502 108.5,39.5C 106.958,38.8365 105.291,38.1698 103.5,37.5C 104.376,36.7492 105.376,36.2492 106.5,36C 104.618,35.8019 102.952,35.3019 101.5,34.5C 104.579,34.7399 107.579,34.4066 110.5,33.5C 110.551,27.9325 113.051,26.2659 118,28.5C 119.417,32.4652 118.084,34.7985 114,35.5C 112.53,38.7439 111.363,42.0772 110.5,45.5 Z"/></g>
<g><path style="opacity:1" fill="#4d3d27" d="M 108.5,39.5 C 109.065,37.6136 110.065,35.9469 111.5,34.5C 111.945,37.2179 111.279,39.8846 109.5,42.5C 108.635,43.5827 107.635,43.7494 106.5,43C 107.973,42.2904 108.64,41.1238 108.5,39.5 Z"/></g>
<g><path style="opacity:1" fill="#bba583" d="M 99.5,33.5 C 100.167,33.8333 100.833,34.1667 101.5,34.5C 102.952,35.3019 104.618,35.8019 106.5,36C 105.376,36.2492 104.376,36.7492 103.5,37.5C 105.291,38.1698 106.958,38.8365 108.5,39.5C 106.461,41.0502 104.128,42.0502 101.5,42.5C 99.4352,42.4828 97.4352,42.1495 95.5,41.5C 97.3564,39.0103 98.6897,36.3437 99.5,33.5 Z"/></g>
<g><path style="opacity:1" fill="#b8a689" d="M 96.5,30.5 C 95.1225,31.2344 93.6225,31.9011 92,32.5C 91.1522,29.62 89.6522,27.12 87.5,25C 82.8421,23.8132 80.1755,25.6465 79.5,30.5C 79.8727,38.4076 83.3727,40.4076 90,36.5C 90.5,37.5 91,38.5 91.5,39.5C 89.7086,40.1698 88.0419,40.8365 86.5,41.5C 83.5,41.5 80.5,41.5 77.5,41.5C 76.5084,41.3284 75.8417,41.6618 75.5,42.5C 73.5,42.5 71.5,42.5 69.5,42.5C 67.8333,42.5 66.1667,42.5 64.5,42.5C 62.5457,39.9741 60.879,37.3075 59.5,34.5C 59.5,34.1667 59.5,33.8333 59.5,33.5C 63.5784,35.8698 67.5784,35.8698 71.5,33.5C 72.0735,35.7879 73.0735,37.9546 74.5,40C 79.0833,40.9337 80.5833,39.1004 79,34.5C 78.0934,32.3909 76.5934,31.0576 74.5,30.5C 77.2285,26.7243 79.7285,22.7243 82,18.5C 81.7468,15.867 81.7468,13.2004 82,10.5C 84.5918,9.01832 86.9251,9.35166 89,11.5C 88.9449,13.9147 88.6116,16.248 88,18.5C 91.4413,22.1018 94.2747,26.1018 96.5,30.5 Z"/></g>
<g><path style="opacity:1" fill="#968671" d="M 59.5,33.5 C 59.5,33.8333 59.5,34.1667 59.5,34.5C 58.6365,33.537 57.9698,33.537 57.5,34.5C 58.8333,37.1667 60.1667,39.8333 61.5,42.5C 62.6136,43.7759 63.6136,43.7759 64.5,42.5C 66.1667,42.5 67.8333,42.5 69.5,42.5C 66.7846,44.0719 63.7846,45.0719 60.5,45.5C 59.1796,42.1879 57.8462,38.8546 56.5,35.5C 52.8303,33.9509 51.8303,31.4509 53.5,28C 57.8362,27.1666 59.8362,28.9999 59.5,33.5 Z"/></g>
<g><path style="opacity:1" fill="#5a4933" d="M 59.5,34.5 C 60.879,37.3075 62.5457,39.9741 64.5,42.5C 63.6136,43.7759 62.6136,43.7759 61.5,42.5C 60.1667,39.8333 58.8333,37.1667 57.5,34.5C 57.9698,33.537 58.6365,33.537 59.5,34.5 Z"/></g>
<g><path style="opacity:1" fill="#7d6d53" d="M 96.5,30.5 C 97.8333,31.1667 98.8333,32.1667 99.5,33.5C 98.6897,36.3437 97.3564,39.0103 95.5,41.5C 92.5,41.5 89.5,41.5 86.5,41.5C 88.0419,40.8365 89.7086,40.1698 91.5,39.5C 91,38.5 90.5,37.5 90,36.5C 83.3727,40.4076 79.8727,38.4076 79.5,30.5C 80.1755,25.6465 82.8421,23.8132 87.5,25C 89.6522,27.12 91.1522,29.62 92,32.5C 93.6225,31.9011 95.1225,31.2344 96.5,30.5 Z"/></g>
<g><path style="opacity:1" fill="#584a35" d="M 83.5,26.5 C 88.1514,27.1742 89.6514,29.8408 88,34.5C 85.7585,36.9963 83.7585,36.6629 82,33.5C 81.1668,30.829 81.6668,28.4957 83.5,26.5 Z"/></g>
<g><path style="opacity:1" fill="#706349" d="M 74.5,30.5 C 76.5934,31.0576 78.0934,32.3909 79,34.5C 80.5833,39.1004 79.0833,40.9337 74.5,40C 73.0735,37.9546 72.0735,35.7879 71.5,33.5C 72.1667,32.1667 73.1667,31.1667 74.5,30.5 Z"/></g>
<g><path style="opacity:1" fill="#594831" d="M 116.5,238.5 C 117.404,239.209 117.737,240.209 117.5,241.5C 128.97,239.948 130.304,243.115 121.5,251C 120.668,251.688 120.002,251.521 119.5,250.5C 121.149,248.35 122.982,246.35 125,244.5C 125.591,243.517 125.257,242.85 124,242.5C 120.283,244.018 116.449,245.018 112.5,245.5C 112.44,244.957 112.107,244.624 111.5,244.5C 97.2485,246.462 82.9152,246.962 68.5,246C 64.5738,245.94 61.5738,245.106 59.5,243.5C 75.4648,245.943 91.4648,246.109 107.5,244C 110.104,243.61 112.438,242.776 114.5,241.5C 116.048,241.179 116.715,240.179 116.5,238.5 Z"/></g>
<g><path style="opacity:1" fill="#7c6c4f" d="M 55.5,237.5 C 55.2322,239.099 55.5655,240.432 56.5,241.5C 57.5,242.167 58.5,242.833 59.5,243.5C 61.5738,245.106 64.5738,245.94 68.5,246C 82.9152,246.962 97.2485,246.462 111.5,244.5C 112.107,244.624 112.44,244.957 112.5,245.5C 109.505,251.325 104.838,255.158 98.5,257C 88.8333,257.667 79.1667,257.667 69.5,257C 65.2514,254.173 61.9181,250.506 59.5,246C 55.3517,245.339 51.3517,244.173 47.5,242.5C 47.1667,242.833 46.8333,243.167 46.5,243.5C 47.6405,245.078 48.1405,246.744 48,248.5C 46.3149,246.983 44.8149,245.316 43.5,243.5C 43.9767,242.522 44.6433,241.689 45.5,241C 48.404,241.565 51.404,242.065 54.5,242.5C 54.2155,240.585 54.5489,238.919 55.5,237.5 Z"/></g>
<g><path style="opacity:1" fill="#857157" d="M 135.5,233.5 C 137.5,235.167 139.5,236.833 141.5,238.5C 143.128,241.419 144.462,244.419 145.5,247.5C 142.833,248.833 140.167,250.167 137.5,251.5C 137.768,253.099 137.434,254.432 136.5,255.5C 136.656,252.934 136.322,250.434 135.5,248C 138.48,242.245 137.146,237.579 131.5,234C 132.996,233.493 134.163,233.993 135,235.5C 135.464,234.906 135.631,234.239 135.5,233.5 Z"/></g>
<g><path style="opacity:1" fill="#6d695c" d="M 19.5,241.5 C 20.1174,241.611 20.6174,241.944 21,242.5C 21.498,245.482 21.6646,248.482 21.5,251.5C 20.3509,251.209 19.6842,250.376 19.5,249C 20.7424,246.468 20.7424,243.968 19.5,241.5 Z"/></g>
<g><path style="opacity:1" fill="#bca583" d="M 115.5,258.5 C 109.402,258.174 108.735,258.841 113.5,260.5C 114.652,263.106 114.818,265.773 114,268.5C 110.701,272.882 106.534,275.882 101.5,277.5C 89.8333,278.833 78.1667,278.833 66.5,277.5C 67.552,277.649 68.552,277.483 69.5,277C 64.1122,274.945 59.9456,271.445 57,266.5C 55.6753,261.812 57.5086,259.312 62.5,259C 59.7795,258.398 57.1128,258.565 54.5,259.5C 54.6107,258.883 54.944,258.383 55.5,258C 60.7091,257.134 65.7091,257.801 70.5,260C 84.4562,261.098 98.2896,260.265 112,257.5C 113.385,257.514 114.551,257.848 115.5,258.5 Z"/></g>
<g><path style="opacity:1" fill="#b9ac99" d="M 53.5,260.5 C 53.5,263.5 53.5,266.5 53.5,269.5C 52.1024,268.223 51.4357,266.557 51.5,264.5C 51.3402,262.645 52.0069,261.312 53.5,260.5 Z"/></g>
<g><path style="opacity:1" fill="#eadec2" d="M 66.5,277.5 C 63.7938,277.425 61.1272,277.092 58.5,276.5C 59.2625,275.732 60.2625,275.232 61.5,275C 59.1401,273.82 56.8068,272.653 54.5,271.5C 54.1667,270.833 53.8333,270.167 53.5,269.5C 53.5,266.5 53.5,263.5 53.5,260.5C 53.5,259.833 53.8333,259.5 54.5,259.5C 57.1128,258.565 59.7795,258.398 62.5,259C 57.5086,259.312 55.6753,261.812 57,266.5C 59.9456,271.445 64.1122,274.945 69.5,277C 68.552,277.483 67.552,277.649 66.5,277.5 Z"/></g>
<g><path style="opacity:1" fill="#e6dabe" d="M 115.5,258.5 C 119.252,260.749 120.419,264.082 119,268.5C 117.27,270.402 115.437,272.069 113.5,273.5C 110.233,274.031 109.9,275.031 112.5,276.5C 108.865,277.114 105.198,277.448 101.5,277.5C 106.534,275.882 110.701,272.882 114,268.5C 114.818,265.773 114.652,263.106 113.5,260.5C 108.735,258.841 109.402,258.174 115.5,258.5 Z"/></g>
<g><path style="opacity:1" fill="#938773" d="M 54.5,271.5 C 56.8068,272.653 59.1401,273.82 61.5,275C 60.2625,275.232 59.2625,275.732 58.5,276.5C 56.1055,275.985 53.7722,275.319 51.5,274.5C 39.3576,269.201 39.5242,268.534 52,272.5C 53.0698,272.472 53.9032,272.139 54.5,271.5 Z"/></g>
<g><path style="opacity:1" fill="#9e937f" d="M 116.5,275.5 C 115.167,275.833 113.833,276.167 112.5,276.5C 109.9,275.031 110.233,274.031 113.5,273.5C 113.735,274.097 114.235,274.43 115,274.5C 120.062,272.037 125.229,270.204 130.5,269C 126.43,272.414 121.764,274.581 116.5,275.5 Z"/></g>
<g><path style="opacity:1" fill="#e4e0d9" d="M 27.5,260.5 C 29.0295,261.067 30.5295,261.733 32,262.5C 31.6061,269.947 33.1061,276.947 36.5,283.5C 35.0603,284.952 33.3936,285.952 31.5,286.5C 31.4071,279.369 31.4071,272.202 31.5,265C 30.1998,263.42 28.8664,261.92 27.5,260.5 Z"/></g>
<g><path style="opacity:1" fill="#695c42" d="M 51.5,274.5 C 53.7722,275.319 56.1055,275.985 58.5,276.5C 61.1272,277.092 63.7938,277.425 66.5,277.5C 78.1667,278.833 89.8333,278.833 101.5,277.5C 105.198,277.448 108.865,277.114 112.5,276.5C 113.833,276.167 115.167,275.833 116.5,275.5C 116.917,276.124 117.584,276.457 118.5,276.5C 122.703,274.703 127.036,273.87 131.5,274C 130.839,277.137 129.505,279.97 127.5,282.5C 117.67,287.256 107.337,289.923 96.5,290.5C 99.8234,289.638 103.323,288.972 107,288.5C 109.236,286.635 111.736,285.135 114.5,284C 113.062,283.781 111.729,283.281 110.5,282.5C 110.833,281.833 111.167,281.167 111.5,280.5C 109.5,280.167 107.5,279.833 105.5,279.5C 90.1393,280.408 74.8059,280.741 59.5,280.5C 59.9767,281.478 60.6433,282.311 61.5,283C 59.3367,283.245 57.67,284.245 56.5,286C 58.8583,287.276 61.1916,288.442 63.5,289.5C 56.8077,287.863 50.3077,285.53 44,282.5C 42.9196,280.004 41.5862,277.67 40,275.5C 39.2506,274.365 39.4173,273.365 40.5,272.5C 43.5539,273.347 46.5539,274.347 49.5,275.5C 50.4164,275.457 51.0831,275.124 51.5,274.5 Z"/></g>
<g><path style="opacity:1" fill="#7e6e51" d="M 96.5,290.5 C 85.4511,291.97 74.4511,291.637 63.5,289.5C 61.1916,288.442 58.8583,287.276 56.5,286C 57.67,284.245 59.3367,283.245 61.5,283C 60.6433,282.311 59.9767,281.478 59.5,280.5C 74.8059,280.741 90.1393,280.408 105.5,279.5C 107.5,279.833 109.5,280.167 111.5,280.5C 111.167,281.167 110.833,281.833 110.5,282.5C 111.729,283.281 113.062,283.781 114.5,284C 111.736,285.135 109.236,286.635 107,288.5C 103.323,288.972 99.8234,289.638 96.5,290.5 Z"/></g>
<g><path style="opacity:1" fill="#baa483" d="M 48.5,289.5 C 48.9169,288.876 49.5836,288.543 50.5,288.5C 52.3822,289.531 54.3822,290.365 56.5,291C 63.5537,292.055 70.5537,293.389 77.5,295C 70.4081,298.546 63.4081,302.046 56.5,305.5C 55.1667,305.5 53.8333,305.5 52.5,305.5C 52.5,305.167 52.5,304.833 52.5,304.5C 53.552,304.649 54.552,304.483 55.5,304C 52.0589,302.224 48.8922,300.057 46,297.5C 46.0593,293.963 47.8926,291.463 51.5,290C 50.552,289.517 49.552,289.351 48.5,289.5 Z"/></g>
<g><path style="opacity:1" fill="#e5d7be" d="M 48.5,289.5 C 49.552,289.351 50.552,289.517 51.5,290C 47.8926,291.463 46.0593,293.963 46,297.5C 48.8922,300.057 52.0589,302.224 55.5,304C 54.552,304.483 53.552,304.649 52.5,304.5C 49.8486,303.289 47.1819,301.955 44.5,300.5C 43.5416,300.047 42.7083,299.381 42,298.5C 41.9148,294.058 44.0815,291.058 48.5,289.5 Z"/></g>
<g><path style="opacity:1" fill="#b9a381" d="M 122.5,289.5 C 121.448,289.351 120.448,289.517 119.5,290C 124.257,291.069 126.091,293.902 125,298.5C 122.5,300.333 120,302.167 117.5,304C 118.094,304.464 118.761,304.631 119.5,304.5C 115.664,305.378 111.664,306.044 107.5,306.5C 104.615,306.194 101.948,306.527 99.5,307.5C 95.4862,307.666 91.4862,307.499 87.5,307C 93.5,302.333 99.5,297.667 105.5,293C 110.618,291.682 115.618,290.182 120.5,288.5C 121.416,288.543 122.083,288.876 122.5,289.5 Z"/></g>
<g><path style="opacity:1" fill="#e8dac0" d="M 122.5,289.5 C 125.075,290.568 127.242,292.235 129,294.5C 129.972,297.294 129.139,299.294 126.5,300.5C 123.923,301.557 121.59,302.89 119.5,304.5C 118.761,304.631 118.094,304.464 117.5,304C 120,302.167 122.5,300.333 125,298.5C 126.091,293.902 124.257,291.069 119.5,290C 120.448,289.517 121.448,289.351 122.5,289.5 Z"/></g>
<g><path style="opacity:1" fill="#b09b7b" d="M 82.5,294.5 C 84.288,294.215 85.9547,294.548 87.5,295.5C 83.2074,299.324 78.8741,303.157 74.5,307C 70.112,307.577 65.7786,307.244 61.5,306C 68.7426,302.435 75.7426,298.602 82.5,294.5 Z"/></g>
<g><path style="opacity:1" fill="#62553d" d="M 34.5,301.5 C 40.3544,303.451 46.3544,304.784 52.5,305.5C 53.8333,305.5 55.1667,305.5 56.5,305.5C 56.8333,306.167 57.1667,306.833 57.5,307.5C 54.9621,307.493 52.4621,307.159 50,306.5C 48.2894,306.439 46.956,307.106 46,308.5C 45.3828,307.551 45.5494,306.718 46.5,306C 41.5435,304.672 36.5435,304.006 31.5,304C 33.6349,305.381 35.9682,306.381 38.5,307C 37.8333,307.333 37.1667,307.667 36.5,308C 38.0441,308.29 39.3774,308.956 40.5,310C 39.2888,310.893 39.2888,311.726 40.5,312.5C 45.7206,314.767 51.0539,316.434 56.5,317.5C 46.298,317.352 36.298,315.852 26.5,313C 24.074,309.199 23.074,305.032 23.5,300.5C 26.7396,300.768 29.9063,301.434 33,302.5C 33.7648,302.43 34.2648,302.097 34.5,301.5 Z"/></g>
<g><path style="opacity:1" fill="#8d8069" d="M 44.5,300.5 C 47.1819,301.955 49.8486,303.289 52.5,304.5C 52.5,304.833 52.5,305.167 52.5,305.5C 46.3544,304.784 40.3544,303.451 34.5,301.5C 33.5266,301.013 32.5266,300.513 31.5,300C 32,299.833 32.5,299.667 33,299.5C 36.9006,301.248 40.7339,301.582 44.5,300.5 Z"/></g>
<g><path style="opacity:1" fill="#6f6149" d="M 142.5,313.5 C 142.167,313.5 141.833,313.5 141.5,313.5C 141.5,310.5 141.5,307.5 141.5,304.5C 138.833,304.5 136.167,304.5 133.5,304.5C 133.665,308.182 133.499,311.848 133,315.5C 130.959,316.423 128.792,316.756 126.5,316.5C 124.708,315.691 122.708,315.191 120.5,315C 125.714,313.326 125.381,312.159 119.5,311.5C 118.289,310.28 118.289,309.113 119.5,308C 115.312,307.824 111.312,307.324 107.5,306.5C 111.664,306.044 115.664,305.378 119.5,304.5C 121.59,302.89 123.923,301.557 126.5,300.5C 127.097,301.139 127.93,301.472 129,301.5C 132.506,300.595 136.006,300.095 139.5,300C 138.167,300.667 136.833,301.333 135.5,302C 136.333,302.167 137.167,302.333 138,302.5C 141.336,301.027 144.836,300.36 148.5,300.5C 149.898,306.527 147.898,310.86 142.5,313.5 Z"/></g>
<g><path style="opacity:1" fill="#7b6c4f" d="M 57.5,307.5 C 76.1769,308.858 90.1769,308.858 99.5,307.5C 101.948,306.527 104.615,306.194 107.5,306.5C 111.312,307.324 115.312,307.824 119.5,308C 118.289,309.113 118.289,310.28 119.5,311.5C 125.381,312.159 125.714,313.326 120.5,315C 122.708,315.191 124.708,315.691 126.5,316.5C 120.846,317.055 115.18,317.555 109.5,318C 108.263,318.232 107.263,318.732 106.5,319.5C 106.167,319.5 105.833,319.5 105.5,319.5C 89.1794,318.818 72.846,318.152 56.5,317.5C 51.0539,316.434 45.7206,314.767 40.5,312.5C 39.2888,311.726 39.2888,310.893 40.5,310C 39.3774,308.956 38.0441,308.29 36.5,308C 37.1667,307.667 37.8333,307.333 38.5,307C 35.9682,306.381 33.6349,305.381 31.5,304C 36.5435,304.006 41.5435,304.672 46.5,306C 45.5494,306.718 45.3828,307.551 46,308.5C 46.956,307.106 48.2894,306.439 50,306.5C 52.4621,307.159 54.9621,307.493 57.5,307.5 Z"/></g>
<g><path style="opacity:1" fill="#463c2c" d="M 141.5,313.5 C 141.702,315.95 141.369,318.283 140.5,320.5C 135.988,322.127 131.321,323.127 126.5,323.5C 126.5,322.5 126.5,321.5 126.5,320.5C 119.919,318.398 113.252,318.065 106.5,319.5C 107.263,318.732 108.263,318.232 109.5,318C 115.18,317.555 120.846,317.055 126.5,316.5C 128.792,316.756 130.959,316.423 133,315.5C 133.499,311.848 133.665,308.182 133.5,304.5C 136.167,304.5 138.833,304.5 141.5,304.5C 141.5,307.5 141.5,310.5 141.5,313.5 Z"/></g>
<g><path style="opacity:1" fill="#9e968f" d="M 20.5,317.5 C 24.3948,318.462 28.0615,319.796 31.5,321.5C 27.2924,321.323 23.6257,319.99 20.5,317.5 Z"/></g>
<g><path style="opacity:1" fill="#585047" d="M 154.5,301.5 C 155.117,301.611 155.617,301.944 156,302.5C 157.925,314.417 152.759,320.417 140.5,320.5C 141.369,318.283 141.702,315.95 141.5,313.5C 141.833,313.5 142.167,313.5 142.5,313.5C 142.5,314.5 142.5,315.5 142.5,316.5C 153.213,316.82 157.213,311.82 154.5,301.5 Z"/></g>
<g><path style="opacity:1" fill="#2d241a" d="M 126.5,323.5 C 120.34,323.982 114.34,324.649 108.5,325.5C 108.167,325.5 107.833,325.5 107.5,325.5C 105.143,325.663 102.81,325.497 100.5,325C 101.762,322.724 103.429,320.891 105.5,319.5C 105.833,319.5 106.167,319.5 106.5,319.5C 113.252,318.065 119.919,318.398 126.5,320.5C 126.5,321.5 126.5,322.5 126.5,323.5 Z"/></g>
<g><path style="opacity:1" fill="#87827d" d="M 126.5,323.5 C 125.737,324.268 124.737,324.768 123.5,325C 118.511,325.499 113.511,325.666 108.5,325.5C 114.34,324.649 120.34,323.982 126.5,323.5 Z"/></g>
</svg>
