<?xml version="1.0" encoding="UTF-8"?>
<!DOCTYPE svg PUBLIC "-//W3C//DTD SVG 1.1//EN" "http://www.w3.org/Graphics/SVG/1.1/DTD/svg11.dtd">
<svg xmlns="http://www.w3.org/2000/svg" version="1.1" width="181px" height="338px" style="shape-rendering:geometricPrecision; text-rendering:geometricPrecision; image-rendering:optimizeQuality; fill-rule:evenodd; clip-rule:evenodd" xmlns:xlink="http://www.w3.org/1999/xlink">
<g><path style="opacity:1" fill="#fefdfd" d="M -0.5,-0.5 C 59.8333,-0.5 120.167,-0.5 180.5,-0.5C 180.5,112.167 180.5,224.833 180.5,337.5C 120.167,337.5 59.8333,337.5 -0.5,337.5C -0.5,224.833 -0.5,112.167 -0.5,-0.5 Z"/></g>
<g><path style="opacity:1" fill="#504434" d="M 78.5,25.5 C 88.0355,25.4238 97.3688,26.0905 106.5,27.5C 106.177,34.0221 106.51,40.3554 107.5,46.5C 107.44,47.0431 107.107,47.3764 106.5,47.5C 105.503,40.8665 105.17,34.1998 105.5,27.5C 100.07,27.161 94.7364,27.661 89.5,29C 91.0581,29.21 92.3915,29.71 93.5,30.5C 89.5,30.5 85.5,30.5 81.5,30.5C 80.7784,30.9175 80.2784,31.5842 80,32.5C 79.6174,31.944 79.1174,31.6107 78.5,31.5C 75.7131,30.5233 72.7131,30.19 69.5,30.5C 69.5,35.8333 69.5,41.1667 69.5,46.5C 68.8335,41.3187 68.1668,35.9853 67.5,30.5C 66.8076,29.9747 66.3076,29.3081 66,28.5C 65.5005,34.8246 65.3338,41.1579 65.5,47.5C 64.5,47.5 63.5,47.5 62.5,47.5C 62.5,46.5 62.5,45.5 62.5,44.5C 63.2216,44.9175 63.7216,45.5842 64,46.5C 64.4995,40.1754 64.6662,33.8421 64.5,27.5C 69.3236,27.0076 73.9903,26.341 78.5,25.5 Z"/></g>
<g><path style="opacity:1" fill="#b8a17f" d="M 78.5,31.5 C 78.25,34.214 78.0833,36.8806 78,39.5C 80.4369,37.0271 81.6036,34.0271 81.5,30.5C 85.5,30.5 89.5,30.5 93.5,30.5C 95.1667,30.5 96.8333,30.5 98.5,30.5C 99.209,31.404 100.209,31.7373 101.5,31.5C 101.5,37.5 101.5,43.5 101.5,49.5C 93.0608,50.116 84.8942,49.4494 77,47.5C 75.5557,49.1554 73.7224,49.822 71.5,49.5C 70.8333,48.5 70.1667,47.5 69.5,46.5C 69.5,41.1667 69.5,35.8333 69.5,30.5C 72.7131,30.19 75.7131,30.5233 78.5,31.5 Z"/></g>
<g><path style="opacity:1" fill="#7b654b" d="M 81.5,30.5 C 81.6036,34.0271 80.4369,37.0271 78,39.5C 78.0833,36.8806 78.25,34.214 78.5,31.5C 79.1174,31.6107 79.6174,31.944 80,32.5C 80.2784,31.5842 80.7784,30.9175 81.5,30.5 Z"/></g>
<g><path style="opacity:1" fill="#aca59c" d="M 78.5,25.5 C 73.9903,26.341 69.3236,27.0076 64.5,27.5C 64.6662,33.8421 64.4995,40.1754 64,46.5C 63.7216,45.5842 63.2216,44.9175 62.5,44.5C 62.5,43.1667 62.5,41.8333 62.5,40.5C 63.4872,35.6946 63.8205,30.6946 63.5,25.5C 68.5,25.5 73.5,25.5 78.5,25.5 Z"/></g>
<g><path style="opacity:1" fill="#ae9877" d="M 118.5,35.5 C 120.757,40.266 121.09,45.266 119.5,50.5C 119.977,51.4776 120.643,52.3109 121.5,53C 121.272,53.3988 120.938,53.5654 120.5,53.5C 117.482,53.2962 114.482,52.9629 111.5,52.5C 112.167,46.5 112.833,40.5 113.5,34.5C 115.216,34.6287 116.883,34.962 118.5,35.5 Z"/></g>
<g><path style="opacity:1" fill="#b49e7e" d="M 53.5,35.5 C 54.5,35.5 55.5,35.5 56.5,35.5C 57.26,40.8202 57.9267,46.1535 58.5,51.5C 56.5648,52.1495 54.5648,52.4828 52.5,52.5C 51.7611,52.631 51.0944,52.4643 50.5,52C 50.5828,46.7473 50.5828,41.5806 50.5,36.5C 51.609,36.4431 52.609,36.1098 53.5,35.5 Z"/></g>
<g><path style="opacity:1" fill="#837058" d="M 53.5,35.5 C 55.2303,34.0882 56.7303,34.4215 58,36.5C 58.3905,40.5144 58.8905,44.5144 59.5,48.5C 59.4805,49.7261 59.1471,50.7261 58.5,51.5C 57.9267,46.1535 57.26,40.8202 56.5,35.5C 55.5,35.5 54.5,35.5 53.5,35.5 Z"/></g>
<g><path style="opacity:1" fill="#d3ccc1" d="M 106.5,27.5 C 107.167,30.8333 107.833,34.1667 108.5,37.5C 107.701,40.4299 107.368,43.4299 107.5,46.5C 106.51,40.3554 106.177,34.0221 106.5,27.5 Z"/></g>
<g><path style="opacity:1" fill="#dfd2bb" d="M 43.5,40.5 C 45.3222,45.2055 46.3222,50.2055 46.5,55.5C 45.8333,55.5 45.1667,55.5 44.5,55.5C 43.5028,55.5299 42.8361,55.0299 42.5,54C 41.6419,50.8762 40.9752,47.7096 40.5,44.5C 40.6198,42.4115 41.6198,41.0782 43.5,40.5 Z"/></g>
<g><path style="opacity:1" fill="#7d6c52" d="M 48.5,36.5 C 49.1667,36.5 49.8333,36.5 50.5,36.5C 50.5828,41.5806 50.5828,46.7473 50.5,52C 51.0944,52.4643 51.7611,52.631 52.5,52.5C 50.5739,53.4861 48.5739,54.4861 46.5,55.5C 46.3222,50.2055 45.3222,45.2055 43.5,40.5C 45.3492,39.407 47.0158,38.0737 48.5,36.5 Z"/></g>
<g><path style="opacity:1" fill="#463b2c" d="M 61.5,33.5 C 60.5655,32.4324 60.2322,31.099 60.5,29.5C 59.5,29.5 58.5,29.5 57.5,29.5C 57.5,30.5 57.5,31.5 57.5,32.5C 53.6402,32.3257 50.6402,33.6591 48.5,36.5C 47.0158,38.0737 45.3492,39.407 43.5,40.5C 41.6198,41.0782 40.6198,42.4115 40.5,44.5C 40.9752,47.7096 41.6419,50.8762 42.5,54C 42.8361,55.0299 43.5028,55.5299 44.5,55.5C 44.3284,56.4916 44.6618,57.1583 45.5,57.5C 45.5,57.8333 45.5,58.1667 45.5,58.5C 44.3065,58.9704 43.6399,59.9704 43.5,61.5C 44.6506,65.7664 45.3173,70.0997 45.5,74.5C 46.9587,74.5674 48.2921,74.2341 49.5,73.5C 50.8333,73.1667 52.1667,72.8333 53.5,72.5C 53.3893,73.1174 53.056,73.6174 52.5,74C 54.0581,74.21 55.3915,74.71 56.5,75.5C 54.1432,75.3367 51.8098,75.5034 49.5,76C 48.7476,76.6708 48.4142,77.5041 48.5,78.5C 47.596,77.791 47.2627,76.791 47.5,75.5C 45.6096,75.7035 44.1096,75.0368 43,73.5C 42.5045,75.4727 42.3379,77.4727 42.5,79.5C 41.9028,75.7328 40.9028,72.0661 39.5,68.5C 37.7861,59.2082 36.6195,49.8749 36,40.5C 43.1074,33.5208 51.6074,29.5208 61.5,28.5C 61.5,30.1667 61.5,31.8333 61.5,33.5 Z"/></g>
<g><path style="opacity:1" fill="#7b6a50" d="M 118.5,35.5 C 122.358,37.3468 126.192,39.3468 130,41.5C 130.789,43.7116 130.622,45.7116 129.5,47.5C 129.66,45.8008 129.494,44.1341 129,42.5C 126.142,46.2534 124.975,50.5867 125.5,55.5C 123.597,55.2041 121.93,54.5375 120.5,53.5C 120.938,53.5654 121.272,53.3988 121.5,53C 120.643,52.3109 119.977,51.4776 119.5,50.5C 121.09,45.266 120.757,40.266 118.5,35.5 Z"/></g>
<g><path style="opacity:1" fill="#d2c7b0" d="M 129.5,47.5 C 129.5,48.8333 129.5,50.1667 129.5,51.5C 128.837,53.0419 128.17,54.7086 127.5,56.5C 126.817,56.1373 126.15,55.8039 125.5,55.5C 124.975,50.5867 126.142,46.2534 129,42.5C 129.494,44.1341 129.66,45.8008 129.5,47.5 Z"/></g>
<g><path style="opacity:1" fill="#a59e96" d="M 135.5,45.5 C 135.59,48.1522 134.924,50.4855 133.5,52.5C 133.41,49.8478 134.076,47.5145 135.5,45.5 Z"/></g>
<g><path style="opacity:1" fill="#b9a27f" d="M 95.5,52.5 C 97.5,52.5 99.5,52.5 101.5,52.5C 106.25,54.0308 111.25,54.6975 116.5,54.5C 116.353,60.2331 115.686,65.8998 114.5,71.5C 109.848,71.0019 105.181,70.6686 100.5,70.5C 99.8333,70.5 99.1667,70.5 98.5,70.5C 94.7016,69.5166 90.7016,69.1832 86.5,69.5C 86.5,63.8333 86.5,58.1667 86.5,52.5C 89.5,52.5 92.5,52.5 95.5,52.5 Z"/></g>
<g><path style="opacity:1" fill="#bca581" d="M 58.5,54.5 C 60.4352,53.8505 62.4352,53.5172 64.5,53.5C 70.8217,52.986 77.155,52.6527 83.5,52.5C 83.5,57.8333 83.5,63.1667 83.5,68.5C 77.1318,68.8297 70.7985,68.4963 64.5,67.5C 63.0098,66.1743 61.6765,64.6743 60.5,63C 61.3802,61.6439 61.7135,60.1439 61.5,58.5C 60.0695,58.4208 58.7362,58.7542 57.5,59.5C 56.3162,57.533 56.6495,55.8664 58.5,54.5 Z"/></g>
<g><path style="opacity:1" fill="#aa9576" d="M 71.5,51.5 C 75.8333,51.5 80.1667,51.5 84.5,51.5C 84.5,57.5 84.5,63.5 84.5,69.5C 78.9738,69.1786 73.6405,69.5119 68.5,70.5C 64.4647,71.3671 60.4647,71.3671 56.5,70.5C 55.1802,65.2597 54.5135,59.9264 54.5,54.5C 55.8333,54.5 57.1667,54.5 58.5,54.5C 56.6495,55.8664 56.3162,57.533 57.5,59.5C 58.7362,58.7542 60.0695,58.4208 61.5,58.5C 61.7135,60.1439 61.3802,61.6439 60.5,63C 61.6765,64.6743 63.0098,66.1743 64.5,67.5C 70.7985,68.4963 77.1318,68.8297 83.5,68.5C 83.5,63.1667 83.5,57.8333 83.5,52.5C 77.155,52.6527 70.8217,52.986 64.5,53.5C 66.8333,52.8333 69.1667,52.1667 71.5,51.5 Z"/></g>
<g><path style="opacity:1" fill="#51412b" d="M 98.5,30.5 C 99.8333,30.5 101.167,30.5 102.5,30.5C 102.666,37.175 102.5,43.8417 102,50.5C 99.723,51.1172 97.5563,51.7839 95.5,52.5C 92.5,52.5 89.5,52.5 86.5,52.5C 86.5,58.1667 86.5,63.8333 86.5,69.5C 90.7016,69.1832 94.7016,69.5166 98.5,70.5C 88.5,70.5 78.5,70.5 68.5,70.5C 73.6405,69.5119 78.9738,69.1786 84.5,69.5C 84.5,63.5 84.5,57.5 84.5,51.5C 80.1667,51.5 75.8333,51.5 71.5,51.5C 71.5,50.8333 71.5,50.1667 71.5,49.5C 73.7224,49.822 75.5557,49.1554 77,47.5C 84.8942,49.4494 93.0608,50.116 101.5,49.5C 101.5,43.5 101.5,37.5 101.5,31.5C 100.209,31.7373 99.209,31.404 98.5,30.5 Z"/></g>
<g><path style="opacity:1" fill="#e8ddc4" d="M 45.5,58.5 C 46.9311,58.8807 47.7645,59.8807 48,61.5C 49.0153,65.4402 49.5153,69.4402 49.5,73.5C 48.2921,74.2341 46.9587,74.5674 45.5,74.5C 45.3173,70.0997 44.6506,65.7664 43.5,61.5C 43.6399,59.9704 44.3065,58.9704 45.5,58.5 Z"/></g>
<g><path style="opacity:1" fill="#73634d" d="M 53.5,72.5 C 52.1667,72.8333 50.8333,73.1667 49.5,73.5C 49.5153,69.4402 49.0153,65.4402 48,61.5C 47.7645,59.8807 46.9311,58.8807 45.5,58.5C 45.5,58.1667 45.5,57.8333 45.5,57.5C 47.6702,56.232 49.8368,56.232 52,57.5C 52.5118,62.2383 53.3451,66.9049 54.5,71.5C 54.3764,72.1067 54.0431,72.44 53.5,72.5 Z"/></g>
<g><path style="opacity:1" fill="#e4d7c1" d="M 125.5,58.5 C 126.167,58.5 126.5,58.8333 126.5,59.5C 126.138,64.752 125.138,69.752 123.5,74.5C 122.508,74.6716 121.842,74.3382 121.5,73.5C 122.31,68.2346 123.644,63.2346 125.5,58.5 Z"/></g>
<g><path style="opacity:1" fill="#6a5945" d="M 125.5,58.5 C 123.644,63.2346 122.31,68.2346 121.5,73.5C 119.833,73.5 118.167,73.5 116.5,73.5C 116.84,67.792 117.507,62.1253 118.5,56.5C 121.228,56.1706 123.562,56.8372 125.5,58.5 Z"/></g>
<g><path style="opacity:1" fill="#7e725e" d="M 126.5,59.5 C 127.338,59.8417 127.672,60.5084 127.5,61.5C 127.677,66.8227 126.344,71.4894 123.5,75.5C 123.5,75.1667 123.5,74.8333 123.5,74.5C 125.138,69.752 126.138,64.752 126.5,59.5 Z"/></g>
<g><path style="opacity:1" fill="#423320" d="M 69.5,46.5 C 70.1667,47.5 70.8333,48.5 71.5,49.5C 71.5,50.1667 71.5,50.8333 71.5,51.5C 69.1667,52.1667 66.8333,52.8333 64.5,53.5C 62.4352,53.5172 60.4352,53.8505 58.5,54.5C 57.1667,54.5 55.8333,54.5 54.5,54.5C 54.5135,59.9264 55.1802,65.2597 56.5,70.5C 60.4647,71.3671 64.4647,71.3671 68.5,70.5C 78.5,70.5 88.5,70.5 98.5,70.5C 99.1667,70.5 99.8333,70.5 100.5,70.5C 92.5,71.1667 84.5,71.8333 76.5,72.5C 70.6657,72.0499 64.999,72.7166 59.5,74.5C 60.2599,76.3604 61.2599,78.027 62.5,79.5C 81.3289,80.3318 100.329,80.8318 119.5,81C 113.319,81.1724 107.319,81.6724 101.5,82.5C 100.532,84.6074 100.198,86.9407 100.5,89.5C 100.167,89.5 99.8333,89.5 99.5,89.5C 99.5,88.5 99.5,87.5 99.5,86.5C 99.5,85.1667 99.5,83.8333 99.5,82.5C 90.1667,82.5 80.8333,82.5 71.5,82.5C 71.2322,84.099 71.5655,85.4324 72.5,86.5C 72.8333,87.1667 73.1667,87.8333 73.5,88.5C 72.2921,89.2341 70.9587,89.5674 69.5,89.5C 69.5,88.5 69.5,87.5 69.5,86.5C 69.5,85.1667 69.5,83.8333 69.5,82.5C 63.5,81.1667 57.5,81.1667 51.5,82.5C 50.5768,81.6971 49.5768,81.5304 48.5,82C 49.5762,83.7261 49.7429,85.5594 49,87.5C 48.3333,86.1667 47.6667,86.1667 47,87.5C 47.0302,84.6385 46.1969,82.3052 44.5,80.5C 43.8333,80.1667 43.1667,79.8333 42.5,79.5C 42.3379,77.4727 42.5045,75.4727 43,73.5C 44.1096,75.0368 45.6096,75.7035 47.5,75.5C 47.2627,76.791 47.596,77.791 48.5,78.5C 52.123,79.7582 55.7897,79.7582 59.5,78.5C 58.2299,77.7124 57.2299,76.7124 56.5,75.5C 55.3915,74.71 54.0581,74.21 52.5,74C 53.056,73.6174 53.3893,73.1174 53.5,72.5C 54.0431,72.44 54.3764,72.1067 54.5,71.5C 53.3451,66.9049 52.5118,62.2383 52,57.5C 49.8368,56.232 47.6702,56.232 45.5,57.5C 44.6618,57.1583 44.3284,56.4916 44.5,55.5C 45.1667,55.5 45.8333,55.5 46.5,55.5C 48.5739,54.4861 50.5739,53.4861 52.5,52.5C 54.5648,52.4828 56.5648,52.1495 58.5,51.5C 59.1471,50.7261 59.4805,49.7261 59.5,48.5C 58.8905,44.5144 58.3905,40.5144 58,36.5C 56.7303,34.4215 55.2303,34.0882 53.5,35.5C 52.609,36.1098 51.609,36.4431 50.5,36.5C 49.8333,36.5 49.1667,36.5 48.5,36.5C 50.6402,33.6591 53.6402,32.3257 57.5,32.5C 57.5,31.5 57.5,30.5 57.5,29.5C 58.5,29.5 59.5,29.5 60.5,29.5C 60.2322,31.099 60.5655,32.4324 61.5,33.5C 62.4682,35.6074 62.8016,37.9407 62.5,40.5C 62.5,41.8333 62.5,43.1667 62.5,44.5C 62.5,45.5 62.5,46.5 62.5,47.5C 63.5,47.5 64.5,47.5 65.5,47.5C 65.3338,41.1579 65.5005,34.8246 66,28.5C 66.3076,29.3081 66.8076,29.9747 67.5,30.5C 68.1668,35.9853 68.8335,41.3187 69.5,46.5 Z"/></g>
<g><path style="opacity:1" fill="#7b6c4f" d="M 76.5,72.5 C 85.1731,72.3336 93.8397,72.5002 102.5,73C 104.78,73.2117 106.78,74.0451 108.5,75.5C 109.609,74.4104 110.609,74.4104 111.5,75.5C 110.737,76.7193 109.737,77.7193 108.5,78.5C 93.1811,79.4994 77.8478,79.8327 62.5,79.5C 61.2599,78.027 60.2599,76.3604 59.5,74.5C 64.999,72.7166 70.6657,72.0499 76.5,72.5 Z"/></g>
<g><path style="opacity:1" fill="#4c3d28" d="M 129.5,51.5 C 129.061,55.3189 128.394,58.6522 127.5,61.5C 127.672,60.5084 127.338,59.8417 126.5,59.5C 126.5,58.8333 126.167,58.5 125.5,58.5C 123.562,56.8372 121.228,56.1706 118.5,56.5C 117.507,62.1253 116.84,67.792 116.5,73.5C 118.167,73.5 119.833,73.5 121.5,73.5C 121.842,74.3382 122.508,74.6716 123.5,74.5C 123.5,74.8333 123.5,75.1667 123.5,75.5C 122.833,75.5 122.5,75.8333 122.5,76.5C 120.213,76.2761 118.047,75.6094 116,74.5C 113.888,75.608 112.054,77.108 110.5,79C 114.255,79.7554 117.922,79.5887 121.5,78.5C 121.241,82.2396 121.574,85.9062 122.5,89.5C 121.767,90.087 120.767,90.087 119.5,89.5C 121.548,85.5955 120.548,83.2622 116.5,82.5C 114.833,82.5 113.167,82.5 111.5,82.5C 108.167,82.5 104.833,82.5 101.5,82.5C 107.319,81.6724 113.319,81.1724 119.5,81C 100.329,80.8318 81.3289,80.3318 62.5,79.5C 77.8478,79.8327 93.1811,79.4994 108.5,78.5C 109.737,77.7193 110.737,76.7193 111.5,75.5C 110.609,74.4104 109.609,74.4104 108.5,75.5C 106.78,74.0451 104.78,73.2117 102.5,73C 93.8397,72.5002 85.1731,72.3336 76.5,72.5C 84.5,71.8333 92.5,71.1667 100.5,70.5C 105.181,70.6686 109.848,71.0019 114.5,71.5C 115.686,65.8998 116.353,60.2331 116.5,54.5C 111.25,54.6975 106.25,54.0308 101.5,52.5C 104.833,52.5 108.167,52.5 111.5,52.5C 114.482,52.9629 117.482,53.2962 120.5,53.5C 121.93,54.5375 123.597,55.2041 125.5,55.5C 126.15,55.8039 126.817,56.1373 127.5,56.5C 128.17,54.7086 128.837,53.0419 129.5,51.5 Z"/></g>
<g><path style="opacity:1" fill="#75674d" d="M 56.5,75.5 C 57.2299,76.7124 58.2299,77.7124 59.5,78.5C 55.7897,79.7582 52.123,79.7582 48.5,78.5C 48.4142,77.5041 48.7476,76.6708 49.5,76C 51.8098,75.5034 54.1432,75.3367 56.5,75.5 Z"/></g>
<g><path style="opacity:1" fill="#75644d" d="M 122.5,76.5 C 122.672,77.4916 122.338,78.1583 121.5,78.5C 117.922,79.5887 114.255,79.7554 110.5,79C 112.054,77.108 113.888,75.608 116,74.5C 118.047,75.6094 120.213,76.2761 122.5,76.5 Z"/></g>
<g><path style="opacity:1" fill="#cac5bf" d="M 39.5,68.5 C 40.9028,72.0661 41.9028,75.7328 42.5,79.5C 43.1667,79.8333 43.8333,80.1667 44.5,80.5C 44.5,80.8333 44.5,81.1667 44.5,81.5C 43.4168,81.4606 42.4168,81.1272 41.5,80.5C 40.5062,76.5475 39.8396,72.5475 39.5,68.5 Z"/></g>
<g><path style="opacity:1" fill="#dcd6cf" d="M 124.5,90.5 C 123.525,109.787 123.191,129.12 123.5,148.5C 122.338,129.671 122.171,110.671 123,91.5C 123.383,90.944 123.883,90.6107 124.5,90.5 Z"/></g>
<g><path style="opacity:1" fill="#4d3d28" d="M 99.5,125.5 C 99.5,128.833 99.5,132.167 99.5,135.5C 102.609,135.736 105.609,135.403 108.5,134.5C 110.806,134.007 113.139,133.674 115.5,133.5C 115.833,133.5 116.167,133.5 116.5,133.5C 118.537,137.111 118.87,140.778 117.5,144.5C 118.036,141.302 117.369,138.635 115.5,136.5C 115.167,136.5 114.833,136.5 114.5,136.5C 109.924,136.438 105.591,137.105 101.5,138.5C 96.3072,138.44 91.3072,139.107 86.5,140.5C 86.5,145.833 86.5,151.167 86.5,156.5C 93.9976,156.267 101.331,155.267 108.5,153.5C 111.443,153.02 114.11,152.02 116.5,150.5C 116.5,149.5 116.5,148.5 116.5,147.5C 118.104,148.287 118.771,149.62 118.5,151.5C 119.791,151.263 120.791,151.596 121.5,152.5C 120.209,152.263 119.209,152.596 118.5,153.5C 115.254,154.054 112.254,155.054 109.5,156.5C 105.921,156.766 105.587,158.099 108.5,160.5C 110.859,161.714 113.192,161.714 115.5,160.5C 117.687,159.242 120.02,158.242 122.5,157.5C 123.167,158.167 123.833,158.833 124.5,159.5C 123.209,159.263 122.209,159.596 121.5,160.5C 120.833,160.5 120.5,160.833 120.5,161.5C 120.167,161.5 119.833,161.5 119.5,161.5C 116.603,162.129 113.936,163.129 111.5,164.5C 110.509,170.979 110.176,177.646 110.5,184.5C 112.92,184.708 115.253,184.374 117.5,183.5C 118.463,183.97 118.463,184.637 117.5,185.5C 112.62,186.969 107.62,187.969 102.5,188.5C 102.194,191.385 102.527,194.052 103.5,196.5C 103.575,199.206 103.908,201.873 104.5,204.5C 106.833,204.5 109.167,204.5 111.5,204.5C 112.568,205.434 113.901,205.768 115.5,205.5C 115.5,205.833 115.5,206.167 115.5,206.5C 106.956,208.032 98.2889,208.866 89.5,209C 87.6243,209.918 86.6243,211.418 86.5,213.5C 85.8333,216.5 85.1667,219.5 84.5,222.5C 84.5,217.833 84.5,213.167 84.5,208.5C 76.8044,208.646 69.1377,208.313 61.5,207.5C 57.981,206.368 54.3143,205.368 50.5,204.5C 49.0695,204.579 47.7362,204.246 46.5,203.5C 45.8182,204.243 45.1515,204.909 44.5,205.5C 44.0022,202.513 43.5022,199.513 43,196.5C 42.7679,197.737 42.2679,198.737 41.5,199.5C 41.6761,196.273 42.3428,193.273 43.5,190.5C 43.5,192.167 43.5,193.833 43.5,195.5C 44.5,195.5 45.5,195.5 46.5,195.5C 46.0535,198.01 46.7202,200.01 48.5,201.5C 50.9052,202.768 53.5718,203.435 56.5,203.5C 59.5,203.5 62.5,203.5 65.5,203.5C 65.1706,200.772 65.8372,198.438 67.5,196.5C 67.8333,196.5 68.1667,196.5 68.5,196.5C 68.7683,193.881 68.435,191.381 67.5,189C 65.3018,188.627 63.1351,188.127 61,187.5C 60.0497,188.022 59.2164,188.689 58.5,189.5C 57.2341,187.596 55.5675,186.263 53.5,185.5C 52.1667,185.167 50.8333,184.833 49.5,184.5C 50.1667,183.833 50.8333,183.167 51.5,182.5C 53.0418,183.301 54.7085,183.634 56.5,183.5C 57.209,184.404 58.209,184.737 59.5,184.5C 59.83,177.8 59.4967,171.134 58.5,164.5C 57.2638,163.754 55.9305,163.421 54.5,163.5C 54.1583,162.662 53.4916,162.328 52.5,162.5C 51.2905,162.068 50.2905,161.401 49.5,160.5C 48.791,159.596 47.791,159.263 46.5,159.5C 46.5,165.833 46.5,172.167 46.5,178.5C 45.8349,175.351 45.5016,172.018 45.5,168.5C 45.3002,163.563 45.9669,158.896 47.5,154.5C 47.427,156.027 48.0937,157.027 49.5,157.5C 52.8672,160.676 56.8672,161.842 61.5,161C 62.6872,159.981 63.6872,158.814 64.5,157.5C 64.3764,156.893 64.0431,156.56 63.5,156.5C 64.209,155.596 65.209,155.263 66.5,155.5C 67.8333,155.5 69.1667,155.5 70.5,155.5C 74.97,156.486 79.6367,156.819 84.5,156.5C 84.5,150.5 84.5,144.5 84.5,138.5C 79.1667,138.5 73.8333,138.5 68.5,138.5C 68.1667,138.5 67.8333,138.5 67.5,138.5C 64.3752,137.521 61.0419,137.187 57.5,137.5C 57.5,136.833 57.1667,136.5 56.5,136.5C 55.4324,135.566 54.099,135.232 52.5,135.5C 52.5,134.833 52.5,134.167 52.5,133.5C 52.8333,133.5 53.1667,133.5 53.5,133.5C 54.1667,133.5 54.8333,133.5 55.5,133.5C 58.6267,134.581 61.9601,135.247 65.5,135.5C 67.1667,135.5 68.8333,135.5 70.5,135.5C 71.1661,132.311 71.8328,128.977 72.5,125.5C 73.4892,129.107 73.8226,132.774 73.5,136.5C 81.5,136.5 89.5,136.5 97.5,136.5C 96.9197,132.351 97.5864,128.684 99.5,125.5 Z"/></g>
<g><path style="opacity:1" fill="#eaddc6" d="M 49.5,184.5 C 50.8333,184.833 52.1667,185.167 53.5,185.5C 53.2226,190.886 52.5559,196.219 51.5,201.5C 50.5,201.5 49.5,201.5 48.5,201.5C 46.7202,200.01 46.0535,198.01 46.5,195.5C 47.2248,191.769 48.2248,188.102 49.5,184.5 Z"/></g>
<g><path style="opacity:1" fill="#7e6e50" d="M 100.5,193.5 C 90.5,193.5 80.5,193.5 70.5,193.5C 70.5191,195.06 70.8524,196.56 71.5,198C 69.9877,198.568 68.9877,200.068 68.5,202.5C 68.5,200.5 68.5,198.5 68.5,196.5C 69.1312,194.552 70.1312,192.719 71.5,191C 81.1867,190.694 90.8534,190.194 100.5,189.5C 100.5,190.833 100.5,192.167 100.5,193.5 Z"/></g>
<g><path style="opacity:1" fill="#76664d" d="M 117.5,185.5 C 118.43,189.796 119.263,194.13 120,198.5C 120.236,200.119 121.069,201.119 122.5,201.5C 119.727,202.657 116.727,203.324 113.5,203.5C 112.64,199.566 112.307,195.566 112.5,191.5C 109.5,191.5 106.5,191.5 103.5,191.5C 103.5,193.167 103.5,194.833 103.5,196.5C 102.527,194.052 102.194,191.385 102.5,188.5C 107.62,187.969 112.62,186.969 117.5,185.5 Z"/></g>
<g><path style="opacity:1" fill="#b29b7d" d="M 67.5,196.5 C 65.8372,198.438 65.1706,200.772 65.5,203.5C 62.5,203.5 59.5,203.5 56.5,203.5C 56.9518,199.837 57.4518,196.17 58,192.5C 61.1124,191.427 64.2791,191.427 67.5,192.5C 67.5,193.833 67.5,195.167 67.5,196.5 Z"/></g>
<g><path style="opacity:1" fill="#b7a17e" d="M 100.5,193.5 C 101.617,197.295 102.283,201.295 102.5,205.5C 91.1898,206.356 79.8565,206.69 68.5,206.5C 68.5,205.167 68.5,203.833 68.5,202.5C 68.9877,200.068 69.9877,198.568 71.5,198C 70.8524,196.56 70.5191,195.06 70.5,193.5C 80.5,193.5 90.5,193.5 100.5,193.5 Z"/></g>
<g><path style="opacity:1" fill="#9e9890" d="M 128.5,181.5 C 128.179,182.817 127.846,184.151 127.5,185.5C 128.384,189.473 129.051,193.473 129.5,197.5C 127.77,193.829 126.77,189.829 126.5,185.5C 126.34,183.645 127.007,182.312 128.5,181.5 Z"/></g>
<g><path style="opacity:1" fill="#7a6a4f" d="M 53.5,185.5 C 55.5675,186.263 57.2341,187.596 58.5,189.5C 59.2164,188.689 60.0497,188.022 61,187.5C 63.1351,188.127 65.3018,188.627 67.5,189C 68.435,191.381 68.7683,193.881 68.5,196.5C 68.1667,196.5 67.8333,196.5 67.5,196.5C 67.5,195.167 67.5,193.833 67.5,192.5C 64.2791,191.427 61.1124,191.427 58,192.5C 57.4518,196.17 56.9518,199.837 56.5,203.5C 53.5718,203.435 50.9052,202.768 48.5,201.5C 49.5,201.5 50.5,201.5 51.5,201.5C 52.5559,196.219 53.2226,190.886 53.5,185.5 Z"/></g>
<g><path style="opacity:1" fill="#ddd2b9" d="M 121.5,184.5 C 122.861,188.787 123.861,193.287 124.5,198C 124.613,199.699 123.947,200.866 122.5,201.5C 121.069,201.119 120.236,200.119 120,198.5C 119.263,194.13 118.43,189.796 117.5,185.5C 118.833,185.167 120.167,184.833 121.5,184.5 Z"/></g>
<g><path style="opacity:1" fill="#b39e7d" d="M 113.5,203.5 C 112.508,203.328 111.842,203.662 111.5,204.5C 109.167,204.5 106.833,204.5 104.5,204.5C 103.908,201.873 103.575,199.206 103.5,196.5C 103.5,194.833 103.5,193.167 103.5,191.5C 106.5,191.5 109.5,191.5 112.5,191.5C 112.307,195.566 112.64,199.566 113.5,203.5 Z"/></g>
<g><path style="opacity:1" fill="#89847b" d="M 41.5,199.5 C 41.2367,204.124 40.2367,208.458 38.5,212.5C 38.9518,208.837 39.4518,205.17 40,201.5C 40.2784,200.584 40.7784,199.918 41.5,199.5 Z"/></g>
<g><path style="opacity:1" fill="#928c83" d="M 133.5,220.5 C 135.04,222.838 135.706,225.505 135.5,228.5C 134.232,226.095 133.565,223.428 133.5,220.5 Z"/></g>
<g><path style="opacity:1" fill="#aba69d" d="M 135.5,229.5 C 136.924,231.515 137.59,233.848 137.5,236.5C 136.076,234.485 135.41,232.152 135.5,229.5 Z"/></g>
<g><path style="opacity:1" fill="#827e74" d="M 35.5,230.5 C 33.4281,237.764 33.0948,245.097 34.5,252.5C 33.8826,252.389 33.3826,252.056 33,251.5C 32.3333,246.5 32.3333,241.5 33,236.5C 33.5662,234.277 34.3995,232.277 35.5,230.5 Z"/></g>
<g><path style="opacity:1" fill="#423626" d="M 107.5,46.5 C 107.368,43.4299 107.701,40.4299 108.5,37.5C 108.401,34.3273 109.068,31.3273 110.5,28.5C 118.933,30.3843 126.6,33.8843 133.5,39C 135.229,40.7889 135.896,42.9556 135.5,45.5C 134.076,47.5145 133.41,49.8478 133.5,52.5C 131.899,61.1036 130.399,69.7703 129,78.5C 125.992,81.8138 124.492,85.8138 124.5,90.5C 123.883,90.6107 123.383,90.944 123,91.5C 122.171,110.671 122.338,129.671 123.5,148.5C 125.129,149.625 126.629,150.959 128,152.5C 128.5,162.161 128.666,171.828 128.5,181.5C 127.007,182.312 126.34,183.645 126.5,185.5C 126.77,189.829 127.77,193.829 129.5,197.5C 130.94,205.14 132.273,212.807 133.5,220.5C 133.565,223.428 134.232,226.095 135.5,228.5C 135.5,228.833 135.5,229.167 135.5,229.5C 135.41,232.152 136.076,234.485 137.5,236.5C 138.331,240.476 138.497,244.476 138,248.5C 136.006,252.48 133.506,256.146 130.5,259.5C 131.844,261.529 133.177,263.529 134.5,265.5C 134.427,267.027 135.094,268.027 136.5,268.5C 137.643,276.739 137.643,284.739 136.5,292.5C 139.93,295.726 143.93,298.226 148.5,300C 152.189,302.687 154.522,306.187 155.5,310.5C 155.665,314.182 155.499,317.848 155,321.5C 153.855,322.636 152.688,323.636 151.5,324.5C 145.045,327.386 138.379,329.386 131.5,330.5C 105.232,333.576 78.8989,334.243 52.5,332.5C 49.7131,331.523 46.7131,331.19 43.5,331.5C 41.0948,330.232 38.4282,329.565 35.5,329.5C 27.6673,329.177 20.834,326.51 15,321.5C 13.8644,312.592 16.6977,305.092 23.5,299C 27.8692,297.733 31.7025,295.567 35,292.5C 35.3795,288.581 34.5461,284.914 32.5,281.5C 32.6159,278.14 32.9492,274.807 33.5,271.5C 35.5346,267.599 37.8679,263.766 40.5,260C 38.3693,257.553 36.3693,255.053 34.5,252.5C 33.0948,245.097 33.4281,237.764 35.5,230.5C 36.0732,224.394 37.0732,218.394 38.5,212.5C 40.2367,208.458 41.2367,204.124 41.5,199.5C 42.2679,198.737 42.7679,197.737 43,196.5C 43.5022,199.513 44.0022,202.513 44.5,205.5C 43.2024,211.809 42.3691,218.142 42,224.5C 42.6708,225.252 43.5041,225.586 44.5,225.5C 46.0326,227.245 48.0326,228.245 50.5,228.5C 49.791,229.404 48.791,229.737 47.5,229.5C 46.8333,229.5 46.1667,229.5 45.5,229.5C 43.8984,227.926 41.8984,227.259 39.5,227.5C 38.2286,234.122 37.7286,240.788 38,247.5C 38.3826,248.056 38.8826,248.389 39.5,248.5C 41.4261,250.293 43.7594,251.293 46.5,251.5C 50.2984,252.483 54.2984,252.817 58.5,252.5C 60.1101,248.356 61.1101,244.022 61.5,239.5C 61.0253,236.787 59.692,234.787 57.5,233.5C 58.3339,232.252 59.6672,231.585 61.5,231.5C 62.8333,231.667 64.1667,231.833 65.5,232C 64.5842,232.278 63.9175,232.778 63.5,233.5C 62.5516,240.806 61.885,248.139 61.5,255.5C 65.1667,255.5 68.8333,255.5 72.5,255.5C 73.3285,248.679 73.8285,241.679 74,234.5C 74.4997,241.826 74.6663,249.159 74.5,256.5C 77.1667,256.5 79.8333,256.5 82.5,256.5C 84.5,256.5 86.5,256.5 88.5,256.5C 89.1667,256.5 89.8333,256.5 90.5,256.5C 92.1667,256.5 93.8333,256.5 95.5,256.5C 96.3285,249.679 96.8285,242.679 97,235.5C 97.1717,242.346 97.6717,249.013 98.5,255.5C 100.833,255.5 103.167,255.5 105.5,255.5C 109.819,254.751 114.152,254.585 118.5,255C 116.608,255.973 114.608,256.64 112.5,257C 110.986,258.439 110.653,259.939 111.5,261.5C 114.558,259.859 117.892,259.026 121.5,259C 124.341,257.414 127.007,255.58 129.5,253.5C 129,253.167 128.5,252.833 128,252.5C 125.349,254.164 122.516,254.664 119.5,254C 120.737,253.768 121.737,253.268 122.5,252.5C 123.93,251.463 125.597,250.796 127.5,250.5C 129.153,250.34 130.486,249.674 131.5,248.5C 132.815,247.333 133.481,245.833 133.5,244C 131.989,238.591 130.989,233.091 130.5,227.5C 129.041,227.433 127.708,227.766 126.5,228.5C 122.417,229.712 118.417,231.045 114.5,232.5C 113.081,233.451 111.415,233.784 109.5,233.5C 109.649,238.575 110.315,243.575 111.5,248.5C 110.71,249.609 110.21,250.942 110,252.5C 109.79,250.942 109.29,249.609 108.5,248.5C 108.187,243.647 107.521,238.98 106.5,234.5C 103.695,233.681 100.695,233.181 97.5,233C 99.3817,232.802 101.048,232.302 102.5,231.5C 109.509,230.14 116.509,228.64 123.5,227C 125.491,226.626 127.158,225.793 128.5,224.5C 129.139,223.903 129.472,223.07 129.5,222C 128.608,215.702 127.274,209.535 125.5,203.5C 123.901,203.232 122.568,203.566 121.5,204.5C 119.435,204.517 117.435,204.85 115.5,205.5C 113.901,205.768 112.568,205.434 111.5,204.5C 111.842,203.662 112.508,203.328 113.5,203.5C 116.727,203.324 119.727,202.657 122.5,201.5C 123.947,200.866 124.613,199.699 124.5,198C 123.861,193.287 122.861,188.787 121.5,184.5C 121.082,183.778 120.416,183.278 119.5,183C 120.056,182.617 120.389,182.117 120.5,181.5C 121.167,181.5 121.5,181.167 121.5,180.5C 122.5,180.167 123.167,179.5 123.5,178.5C 124.49,172.355 124.823,166.022 124.5,159.5C 123.833,158.833 123.167,158.167 122.5,157.5C 122.5,157.167 122.5,156.833 122.5,156.5C 123.043,156.44 123.376,156.107 123.5,155.5C 122.807,154.482 122.141,153.482 121.5,152.5C 120.791,151.596 119.791,151.263 118.5,151.5C 118.771,149.62 118.104,148.287 116.5,147.5C 116.557,146.391 116.89,145.391 117.5,144.5C 118.87,140.778 118.537,137.111 116.5,133.5C 117.165,130.183 117.499,126.683 117.5,123C 117.488,119.098 116.821,115.598 115.5,112.5C 113.326,112.92 111.326,112.92 109.5,112.5C 111.022,111.438 112.688,110.771 114.5,110.5C 115.791,110.737 116.791,110.404 117.5,109.5C 118.117,103.402 117.45,97.7351 115.5,92.5C 114.662,92.8417 114.328,93.5084 114.5,94.5C 112.5,94.5 110.5,94.5 108.5,94.5C 105.232,93.1778 101.565,92.5112 97.5,92.5C 93.4348,92.5112 89.7681,93.1778 86.5,94.5C 86.19,97.7131 86.5233,100.713 87.5,103.5C 86.0527,104.885 85.0527,104.552 84.5,102.5C 84.5,99.8333 84.5,97.1667 84.5,94.5C 81.0623,93.1768 77.229,92.5102 73,92.5C 67.7319,92.7388 62.5652,93.4055 57.5,94.5C 57.6716,93.5084 57.3382,92.8417 56.5,92.5C 55.5,92.5 54.5,92.5 53.5,92.5C 53.5,98.1667 53.5,103.833 53.5,109.5C 53.8417,110.338 54.5084,110.672 55.5,110.5C 56.9187,111.451 58.5853,111.784 60.5,111.5C 60.1486,108.959 60.4819,107.292 61.5,106.5C 61.7402,112.227 61.4069,117.894 60.5,123.5C 59.528,124.751 58.8614,124.418 58.5,122.5C 60.0638,119.694 60.7305,116.694 60.5,113.5C 59.5,113.5 58.5,113.5 57.5,113.5C 57.1667,113.5 56.8333,113.5 56.5,113.5C 55.4324,112.566 54.099,112.232 52.5,112.5C 52.5,119.5 52.5,126.5 52.5,133.5C 52.5,134.167 52.5,134.833 52.5,135.5C 52.1795,140.695 52.5128,145.695 53.5,150.5C 53.5,151.167 53.8333,151.5 54.5,151.5C 57.201,152.249 59.8677,153.249 62.5,154.5C 64.099,154.232 65.4324,154.566 66.5,155.5C 65.209,155.263 64.209,155.596 63.5,156.5C 59.9076,156.302 56.5742,155.302 53.5,153.5C 51.0993,151.938 49.0993,152.271 47.5,154.5C 45.9669,158.896 45.3002,163.563 45.5,168.5C 45.5016,172.018 45.8349,175.351 46.5,178.5C 46.8333,178.5 47.1667,178.5 47.5,178.5C 47.8333,179.5 48.5,180.167 49.5,180.5C 49.8333,181.5 50.5,182.167 51.5,182.5C 50.8333,183.167 50.1667,183.833 49.5,184.5C 48.2248,188.102 47.2248,191.769 46.5,195.5C 45.5,195.5 44.5,195.5 43.5,195.5C 43.5,193.833 43.5,192.167 43.5,190.5C 43.5111,188.453 43.8444,186.453 44.5,184.5C 44.2972,182.792 43.4638,181.459 42,180.5C 41.3333,171.5 41.3333,162.5 42,153.5C 43.6837,151.649 45.5171,149.982 47.5,148.5C 48.6663,129.842 48.833,111.176 48,92.5C 46.1154,88.9854 44.9488,85.3187 44.5,81.5C 44.5,81.1667 44.5,80.8333 44.5,80.5C 46.1969,82.3052 47.0302,84.6385 47,87.5C 47.6667,86.1667 48.3333,86.1667 49,87.5C 49.7429,85.5594 49.5762,83.7261 48.5,82C 49.5768,81.5304 50.5768,81.6971 51.5,82.5C 50.0761,85.1248 50.4094,87.4581 52.5,89.5C 57.9664,89.8112 63.633,89.8112 69.5,89.5C 70.9587,89.5674 72.2921,89.2341 73.5,88.5C 82.0823,89.4699 90.7489,89.8032 99.5,89.5C 99.8333,89.5 100.167,89.5 100.5,89.5C 106.724,89.6632 112.724,89.6632 118.5,89.5C 118.833,89.5 119.167,89.5 119.5,89.5C 120.767,90.087 121.767,90.087 122.5,89.5C 121.574,85.9062 121.241,82.2396 121.5,78.5C 122.338,78.1583 122.672,77.4916 122.5,76.5C 122.5,75.8333 122.833,75.5 123.5,75.5C 126.344,71.4894 127.677,66.8227 127.5,61.5C 128.394,58.6522 129.061,55.3189 129.5,51.5C 129.5,50.1667 129.5,48.8333 129.5,47.5C 130.622,45.7116 130.789,43.7116 130,41.5C 126.192,39.3468 122.358,37.3468 118.5,35.5C 116.883,34.962 115.216,34.6287 113.5,34.5C 112.833,40.5 112.167,46.5 111.5,52.5C 108.167,52.5 104.833,52.5 101.5,52.5C 99.5,52.5 97.5,52.5 95.5,52.5C 97.5563,51.7839 99.723,51.1172 102,50.5C 102.5,43.8417 102.666,37.175 102.5,30.5C 101.167,30.5 99.8333,30.5 98.5,30.5C 96.8333,30.5 95.1667,30.5 93.5,30.5C 92.3915,29.71 91.0581,29.21 89.5,29C 94.7364,27.661 100.07,27.161 105.5,27.5C 105.17,34.1998 105.503,40.8665 106.5,47.5C 107.107,47.3764 107.44,47.0431 107.5,46.5 Z"/></g>
<g><path style="opacity:1" fill="#b59f7d" d="M 127.5,250.5 C 125.597,250.796 123.93,251.463 122.5,252.5C 118.865,253.114 115.198,253.448 111.5,253.5C 111.5,251.833 111.5,250.167 111.5,248.5C 110.315,243.575 109.649,238.575 109.5,233.5C 111.415,233.784 113.081,233.451 114.5,232.5C 116.262,232.643 117.929,232.309 119.5,231.5C 121.11,237.435 122.443,243.435 123.5,249.5C 125.099,249.232 126.432,249.566 127.5,250.5 Z"/></g>
<g><path style="opacity:1" fill="#7a6950" d="M 126.5,228.5 C 127.564,235.423 129.231,242.09 131.5,248.5C 130.486,249.674 129.153,250.34 127.5,250.5C 126.432,249.566 125.099,249.232 123.5,249.5C 122.443,243.435 121.11,237.435 119.5,231.5C 117.929,232.309 116.262,232.643 114.5,232.5C 118.417,231.045 122.417,229.712 126.5,228.5 Z"/></g>
<g><path style="opacity:1" fill="#af9b79" d="M 52.5,231.5 C 54.0495,232.441 55.7162,233.107 57.5,233.5C 59.692,234.787 61.0253,236.787 61.5,239.5C 61.1101,244.022 60.1101,248.356 58.5,252.5C 54.2984,252.817 50.2984,252.483 46.5,251.5C 46.5562,244.978 47.5562,238.644 49.5,232.5C 50.325,231.614 51.325,231.281 52.5,231.5 Z"/></g>
<g><path style="opacity:1" fill="#e9dcc5" d="M 131.5,248.5 C 129.231,242.09 127.564,235.423 126.5,228.5C 127.708,227.766 129.041,227.433 130.5,227.5C 130.989,233.091 131.989,238.591 133.5,244C 133.481,245.833 132.815,247.333 131.5,248.5 Z"/></g>
<g><path style="opacity:1" fill="#7f6f56" d="M 45.5,229.5 C 46.1667,229.5 46.8333,229.5 47.5,229.5C 49.1667,230.167 50.8333,230.833 52.5,231.5C 51.325,231.281 50.325,231.614 49.5,232.5C 47.5562,238.644 46.5562,244.978 46.5,251.5C 43.7594,251.293 41.4261,250.293 39.5,248.5C 41.6138,247.64 42.7805,245.973 43,243.5C 44.2861,238.904 45.1194,234.237 45.5,229.5 Z"/></g>
<g><path style="opacity:1" fill="#e2d6bf" d="M 45.5,229.5 C 45.1194,234.237 44.2861,238.904 43,243.5C 42.7805,245.973 41.6138,247.64 39.5,248.5C 38.8826,248.389 38.3826,248.056 38,247.5C 37.7286,240.788 38.2286,234.122 39.5,227.5C 41.8984,227.259 43.8984,227.926 45.5,229.5 Z"/></g>
<g><path style="opacity:1" fill="#584832" d="M 86.5,213.5 C 86.5,216.5 86.5,219.5 86.5,222.5C 92.2926,222.964 95.9593,225.964 97.5,231.5C 99.1667,231.5 100.833,231.5 102.5,231.5C 101.048,232.302 99.3817,232.802 97.5,233C 100.695,233.181 103.695,233.681 106.5,234.5C 103.833,234.5 101.167,234.5 98.5,234.5C 98.5,241.5 98.5,248.5 98.5,255.5C 97.6717,249.013 97.1717,242.346 97,235.5C 96.8285,242.679 96.3285,249.679 95.5,256.5C 95.6664,247.494 95.4998,238.494 95,229.5C 93.6667,228.167 92.3333,226.833 91,225.5C 90.5002,235.828 90.3335,246.161 90.5,256.5C 89.8333,256.5 89.1667,256.5 88.5,256.5C 88.5,245.833 88.5,235.167 88.5,224.5C 86.5,224.5 84.5,224.5 82.5,224.5C 82.5,235.167 82.5,245.833 82.5,256.5C 79.8333,256.5 77.1667,256.5 74.5,256.5C 74.6663,249.159 74.4997,241.826 74,234.5C 73.8285,241.679 73.3285,248.679 72.5,255.5C 72.8245,248.313 72.4912,241.313 71.5,234.5C 70.5,234.5 69.5,234.5 68.5,234.5C 67.0813,233.549 65.4147,233.216 63.5,233.5C 63.9175,232.778 64.5842,232.278 65.5,232C 64.1667,231.833 62.8333,231.667 61.5,231.5C 59.6672,231.585 58.3339,232.252 57.5,233.5C 55.7162,233.107 54.0495,232.441 52.5,231.5C 50.8333,230.833 49.1667,230.167 47.5,229.5C 48.791,229.737 49.791,229.404 50.5,228.5C 51.1667,228.5 51.8333,228.5 52.5,228.5C 58.3558,229.492 64.3558,230.492 70.5,231.5C 71.5,231.167 72.5,230.833 73.5,230.5C 74.9705,227.864 76.6372,225.364 78.5,223C 80.4727,222.505 82.4727,222.338 84.5,222.5C 85.1667,219.5 85.8333,216.5 86.5,213.5 Z"/></g>
<g><path style="opacity:1" fill="#7b6b4f" d="M 95.5,256.5 C 93.8333,256.5 92.1667,256.5 90.5,256.5C 90.3335,246.161 90.5002,235.828 91,225.5C 92.3333,226.833 93.6667,228.167 95,229.5C 95.4998,238.494 95.6664,247.494 95.5,256.5 Z"/></g>
<g><path style="opacity:1" fill="#7d6d51" d="M 88.5,256.5 C 86.5,256.5 84.5,256.5 82.5,256.5C 82.5,245.833 82.5,235.167 82.5,224.5C 84.5,224.5 86.5,224.5 88.5,224.5C 88.5,235.167 88.5,245.833 88.5,256.5 Z"/></g>
<g><path style="opacity:1" fill="#f4e7ce" d="M 128.5,224.5 C 127.5,224.5 126.5,224.5 125.5,224.5C 125.737,223.209 125.404,222.209 124.5,221.5C 124.552,219.097 124.219,216.764 123.5,214.5C 123.372,212.345 123.872,210.345 125,208.5C 126.275,213.817 127.441,219.151 128.5,224.5 Z"/></g>
<g><path style="opacity:1" fill="#b8a17e" d="M 61.5,207.5 C 69.1377,208.313 76.8044,208.646 84.5,208.5C 84.5,213.167 84.5,217.833 84.5,222.5C 82.4727,222.338 80.4727,222.505 78.5,223C 76.6372,225.364 74.9705,227.864 73.5,230.5C 72.5,230.833 71.5,231.167 70.5,231.5C 64.3558,230.492 58.3558,229.492 52.5,228.5C 52.4396,221.311 53.4396,214.311 55.5,207.5C 57.5,207.5 59.5,207.5 61.5,207.5 Z"/></g>
<g><path style="opacity:1" fill="#b7a17f" d="M 115.5,206.5 C 115.521,213.244 116.188,219.911 117.5,226.5C 121.931,227.47 124.265,225.803 124.5,221.5C 125.404,222.209 125.737,223.209 125.5,224.5C 126.5,224.5 127.5,224.5 128.5,224.5C 127.158,225.793 125.491,226.626 123.5,227C 116.509,228.64 109.509,230.14 102.5,231.5C 100.833,231.5 99.1667,231.5 97.5,231.5C 95.9593,225.964 92.2926,222.964 86.5,222.5C 86.5,219.5 86.5,216.5 86.5,213.5C 86.6243,211.418 87.6243,209.918 89.5,209C 98.2889,208.866 106.956,208.032 115.5,206.5 Z"/></g>
<g><path style="opacity:1" fill="#857359" d="M 50.5,204.5 C 54.3143,205.368 57.981,206.368 61.5,207.5C 59.5,207.5 57.5,207.5 55.5,207.5C 53.4396,214.311 52.4396,221.311 52.5,228.5C 51.8333,228.5 51.1667,228.5 50.5,228.5C 48.0326,228.245 46.0326,227.245 44.5,225.5C 45.5862,225.38 46.2528,224.713 46.5,223.5C 48.2546,217.241 49.588,210.908 50.5,204.5 Z"/></g>
<g><path style="opacity:1" fill="#7d6b52" d="M 121.5,204.5 C 121.753,208.04 122.419,211.373 123.5,214.5C 124.219,216.764 124.552,219.097 124.5,221.5C 124.265,225.803 121.931,227.47 117.5,226.5C 116.188,219.911 115.521,213.244 115.5,206.5C 115.5,206.167 115.5,205.833 115.5,205.5C 117.435,204.85 119.435,204.517 121.5,204.5 Z"/></g>
<g><path style="opacity:1" fill="#e8dbc3" d="M 50.5,204.5 C 49.588,210.908 48.2546,217.241 46.5,223.5C 46.2528,224.713 45.5862,225.38 44.5,225.5C 43.5041,225.586 42.6708,225.252 42,224.5C 42.3691,218.142 43.2024,211.809 44.5,205.5C 45.1515,204.909 45.8182,204.243 46.5,203.5C 47.7362,204.246 49.0695,204.579 50.5,204.5 Z"/></g>
<g><path style="opacity:1" fill="#cdc2aa" d="M 128.5,224.5 C 127.441,219.151 126.275,213.817 125,208.5C 123.872,210.345 123.372,212.345 123.5,214.5C 122.419,211.373 121.753,208.04 121.5,204.5C 122.568,203.566 123.901,203.232 125.5,203.5C 127.274,209.535 128.608,215.702 129.5,222C 129.472,223.07 129.139,223.903 128.5,224.5 Z"/></g>
<g><path style="opacity:1" fill="#b39d7b" d="M 54.5,163.5 C 55.9305,163.421 57.2638,163.754 58.5,164.5C 59.4967,171.134 59.83,177.8 59.5,184.5C 58.209,184.737 57.209,184.404 56.5,183.5C 55.7375,182.732 54.7375,182.232 53.5,182C 56.1667,181.333 56.1667,180.667 53.5,180C 54.4315,174.282 54.7649,168.782 54.5,163.5 Z"/></g>
<g><path style="opacity:1" fill="#8d7a5c" d="M 119.5,161.5 C 119.5,167.833 119.5,174.167 119.5,180.5C 118.5,180.5 117.5,180.5 116.5,180.5C 116.148,177.572 115.482,174.738 114.5,172C 117.744,167.663 116.744,165.163 111.5,164.5C 113.936,163.129 116.603,162.129 119.5,161.5 Z"/></g>
<g><path style="opacity:1" fill="#ac9978" d="M 119.5,161.5 C 119.833,161.5 120.167,161.5 120.5,161.5C 120.177,168.022 120.51,174.355 121.5,180.5C 121.5,181.167 121.167,181.5 120.5,181.5C 117.598,182.578 114.598,183.244 111.5,183.5C 111.5,177.167 111.5,170.833 111.5,164.5C 116.744,165.163 117.744,167.663 114.5,172C 115.482,174.738 116.148,177.572 116.5,180.5C 117.5,180.5 118.5,180.5 119.5,180.5C 119.5,174.167 119.5,167.833 119.5,161.5 Z"/></g>
<g><path style="opacity:1" fill="#baa380" d="M 70.5,166.5 C 79.6517,167.494 88.985,167.827 98.5,167.5C 98.281,168.675 98.6143,169.675 99.5,170.5C 100.429,169.311 100.762,167.978 100.5,166.5C 102.948,165.527 105.615,165.194 108.5,165.5C 108.5,172.167 108.5,178.833 108.5,185.5C 93.8527,187.899 79.186,188.065 64.5,186C 63.6919,185.692 63.0253,185.192 62.5,184.5C 62.5997,178.348 62.5997,172.014 62.5,165.5C 65.2062,165.575 67.8728,165.908 70.5,166.5 Z"/></g>
<g><path style="opacity:1" fill="#998769" d="M 52.5,162.5 C 53.4916,162.328 54.1583,162.662 54.5,163.5C 54.7649,168.782 54.4315,174.282 53.5,180C 56.1667,180.667 56.1667,181.333 53.5,182C 54.7375,182.232 55.7375,182.732 56.5,183.5C 54.7085,183.634 53.0418,183.301 51.5,182.5C 50.5,182.167 49.8333,181.5 49.5,180.5C 51.2093,174.842 52.2093,168.842 52.5,162.5 Z"/></g>
<g><path style="opacity:1" fill="#7d6b52" d="M 111.5,164.5 C 111.5,170.833 111.5,177.167 111.5,183.5C 114.598,183.244 117.598,182.578 120.5,181.5C 120.389,182.117 120.056,182.617 119.5,183C 120.416,183.278 121.082,183.778 121.5,184.5C 120.167,184.833 118.833,185.167 117.5,185.5C 118.463,184.637 118.463,183.97 117.5,183.5C 115.253,184.374 112.92,184.708 110.5,184.5C 110.176,177.646 110.509,170.979 111.5,164.5 Z"/></g>
<g><path style="opacity:1" fill="#eddfc7" d="M 121.5,160.5 C 123.453,166.074 124.12,172.074 123.5,178.5C 123.167,179.5 122.5,180.167 121.5,180.5C 120.51,174.355 120.177,168.022 120.5,161.5C 120.5,160.833 120.833,160.5 121.5,160.5 Z"/></g>
<g><path style="opacity:1" fill="#7d6a52" d="M 70.5,166.5 C 80.5,166.5 90.5,166.5 100.5,166.5C 100.762,167.978 100.429,169.311 99.5,170.5C 98.6143,169.675 98.281,168.675 98.5,167.5C 88.985,167.827 79.6517,167.494 70.5,166.5 Z"/></g>
<g><path style="opacity:1" fill="#ede2c8" d="M 49.5,160.5 C 50.2905,161.401 51.2905,162.068 52.5,162.5C 52.2093,168.842 51.2093,174.842 49.5,180.5C 48.5,180.167 47.8333,179.5 47.5,178.5C 46.88,172.074 47.5467,166.074 49.5,160.5 Z"/></g>
<g><path style="opacity:1" fill="#aea48f" d="M 49.5,160.5 C 47.5467,166.074 46.88,172.074 47.5,178.5C 47.1667,178.5 46.8333,178.5 46.5,178.5C 46.5,172.167 46.5,165.833 46.5,159.5C 47.791,159.263 48.791,159.596 49.5,160.5 Z"/></g>
<g><path style="opacity:1" fill="#938574" d="M 121.5,160.5 C 122.209,159.596 123.209,159.263 124.5,159.5C 124.823,166.022 124.49,172.355 123.5,178.5C 124.12,172.074 123.453,166.074 121.5,160.5 Z"/></g>
<g><path style="opacity:1" fill="#b39e7d" d="M 67.5,157.5 C 78.6745,158.675 89.8412,158.675 101,157.5C 102.107,157.585 103.107,157.919 104,158.5C 104.402,159.872 104.902,161.205 105.5,162.5C 93.5738,164.442 81.5738,164.942 69.5,164C 67.5789,163.64 65.9122,162.806 64.5,161.5C 65.5244,160.148 66.5244,158.815 67.5,157.5 Z"/></g>
<g><path style="opacity:1" fill="#83755a" d="M 118.5,153.5 C 119.262,155.262 120.596,156.262 122.5,156.5C 122.5,156.833 122.5,157.167 122.5,157.5C 120.02,158.242 117.687,159.242 115.5,160.5C 115.611,159.883 115.944,159.383 116.5,159C 114.235,157.882 111.901,157.049 109.5,156.5C 112.254,155.054 115.254,154.054 118.5,153.5 Z"/></g>
<g><path style="opacity:1" fill="#ac9877" d="M 109.5,156.5 C 111.901,157.049 114.235,157.882 116.5,159C 115.944,159.383 115.611,159.883 115.5,160.5C 113.192,161.714 110.859,161.714 108.5,160.5C 105.587,158.099 105.921,156.766 109.5,156.5 Z"/></g>
<g><path style="opacity:1" fill="#a79273" d="M 53.5,153.5 C 56.5742,155.302 59.9076,156.302 63.5,156.5C 64.0431,156.56 64.3764,156.893 64.5,157.5C 63.6872,158.814 62.6872,159.981 61.5,161C 56.8672,161.842 52.8672,160.676 49.5,157.5C 51.3407,156.598 52.674,155.264 53.5,153.5 Z"/></g>
<g><path style="opacity:1" fill="#d6c7b0" d="M 53.5,153.5 C 52.674,155.264 51.3407,156.598 49.5,157.5C 48.0937,157.027 47.427,156.027 47.5,154.5C 49.0993,152.271 51.0993,151.938 53.5,153.5 Z"/></g>
<g><path style="opacity:1" fill="#d5ccb6" d="M 121.5,152.5 C 122.141,153.482 122.807,154.482 123.5,155.5C 123.376,156.107 123.043,156.44 122.5,156.5C 120.596,156.262 119.262,155.262 118.5,153.5C 119.209,152.596 120.209,152.263 121.5,152.5 Z"/></g>
<g><path style="opacity:1" fill="#76654d" d="M 57.5,137.5 C 61.0419,137.187 64.3752,137.521 67.5,138.5C 65.396,138.201 63.396,138.534 61.5,139.5C 62.1354,144.259 62.4687,149.259 62.5,154.5C 59.8677,153.249 57.201,152.249 54.5,151.5C 55.5,151.5 56.5,151.5 57.5,151.5C 57.5,146.833 57.5,142.167 57.5,137.5 Z"/></g>
<g><path style="opacity:1" fill="#a0937e" d="M 114.5,136.5 C 114.833,136.5 115.167,136.5 115.5,136.5C 114.964,139.698 115.631,142.365 117.5,144.5C 116.89,145.391 116.557,146.391 116.5,147.5C 116.5,148.5 116.5,149.5 116.5,150.5C 114.564,146.285 113.897,141.619 114.5,136.5 Z"/></g>
<g><path style="opacity:1" fill="#b9a380" d="M 67.5,138.5 C 67.8333,138.5 68.1667,138.5 68.5,138.5C 73.3054,139.487 78.3054,139.821 83.5,139.5C 83.5,144.833 83.5,150.167 83.5,155.5C 79.1667,155.5 74.8333,155.5 70.5,155.5C 69.1667,155.5 67.8333,155.5 66.5,155.5C 65.4324,154.566 64.099,154.232 62.5,154.5C 62.4687,149.259 62.1354,144.259 61.5,139.5C 63.396,138.534 65.396,138.201 67.5,138.5 Z"/></g>
<g><path style="opacity:1" fill="#7b6b4f" d="M 114.5,136.5 C 113.897,141.619 114.564,146.285 116.5,150.5C 114.11,152.02 111.443,153.02 108.5,153.5C 108.808,151.076 108.474,148.743 107.5,146.5C 96.8104,141.856 97.1437,140.856 108.5,143.5C 108.5,141.833 108.5,140.167 108.5,138.5C 106.167,138.5 103.833,138.5 101.5,138.5C 105.591,137.105 109.924,136.438 114.5,136.5 Z"/></g>
<g><path style="opacity:1" fill="#b8a280" d="M 101.5,138.5 C 103.833,138.5 106.167,138.5 108.5,138.5C 108.5,140.167 108.5,141.833 108.5,143.5C 97.1437,140.856 96.8104,141.856 107.5,146.5C 108.474,148.743 108.808,151.076 108.5,153.5C 101.331,155.267 93.9976,156.267 86.5,156.5C 86.5,151.167 86.5,145.833 86.5,140.5C 91.3072,139.107 96.3072,138.44 101.5,138.5 Z"/></g>
<g><path style="opacity:1" fill="#8c795d" d="M 68.5,138.5 C 73.8333,138.5 79.1667,138.5 84.5,138.5C 84.5,144.5 84.5,150.5 84.5,156.5C 79.6367,156.819 74.97,156.486 70.5,155.5C 74.8333,155.5 79.1667,155.5 83.5,155.5C 83.5,150.167 83.5,144.833 83.5,139.5C 78.3054,139.821 73.3054,139.487 68.5,138.5 Z"/></g>
<g><path style="opacity:1" fill="#ddd2bb" d="M 56.5,136.5 C 57.1667,136.5 57.5,136.833 57.5,137.5C 57.5,142.167 57.5,146.833 57.5,151.5C 56.5,151.5 55.5,151.5 54.5,151.5C 53.8333,151.5 53.5,151.167 53.5,150.5C 53.5,145.833 53.5,141.167 53.5,136.5C 54.5,136.5 55.5,136.5 56.5,136.5 Z"/></g>
<g><path style="opacity:1" fill="#796e5b" d="M 52.5,135.5 C 54.099,135.232 55.4324,135.566 56.5,136.5C 55.5,136.5 54.5,136.5 53.5,136.5C 53.5,141.167 53.5,145.833 53.5,150.5C 52.5128,145.695 52.1795,140.695 52.5,135.5 Z"/></g>
<g><path style="opacity:1" fill="#ddd1bb" d="M 115.5,136.5 C 117.369,138.635 118.036,141.302 117.5,144.5C 115.631,142.365 114.964,139.698 115.5,136.5 Z"/></g>
<g><path style="opacity:1" fill="#b6a081" d="M 99.5,125.5 C 102.833,125.5 106.167,125.5 109.5,125.5C 109.632,128.57 109.299,131.57 108.5,134.5C 105.609,135.403 102.609,135.736 99.5,135.5C 99.5,132.167 99.5,128.833 99.5,125.5 Z"/></g>
<g><path style="opacity:1" fill="#786e59" d="M 56.5,113.5 C 55.5,113.5 54.5,113.5 53.5,113.5C 53.5,120.167 53.5,126.833 53.5,133.5C 53.1667,133.5 52.8333,133.5 52.5,133.5C 52.5,126.5 52.5,119.5 52.5,112.5C 54.099,112.232 55.4324,112.566 56.5,113.5 Z"/></g>
<g><path style="opacity:1" fill="#927f64" d="M 70.5,108.5 C 68.7182,106.313 66.5515,105.98 64,107.5C 63.5007,112.489 63.3341,117.489 63.5,122.5C 64.5,122.5 65.5,122.5 66.5,122.5C 68.631,123.314 70.9644,123.814 73.5,124C 69.1294,124.629 64.796,124.463 60.5,123.5C 61.4069,117.894 61.7402,112.227 61.5,106.5C 64.1292,102.885 67.2959,102.551 71,105.5C 72.5628,110.718 72.8962,116.051 72,121.5C 71.8247,116.981 71.3247,112.647 70.5,108.5 Z"/></g>
<g><path style="opacity:1" fill="#eee2cd" d="M 115.5,112.5 C 116.821,115.598 117.488,119.098 117.5,123C 117.499,126.683 117.165,130.183 116.5,133.5C 116.167,133.5 115.833,133.5 115.5,133.5C 115.5,126.5 115.5,119.5 115.5,112.5 Z"/></g>
<g><path style="opacity:1" fill="#e3d8bf" d="M 56.5,113.5 C 56.8333,113.5 57.1667,113.5 57.5,113.5C 58.1255,120.584 57.4589,127.25 55.5,133.5C 54.8333,133.5 54.1667,133.5 53.5,133.5C 53.5,126.833 53.5,120.167 53.5,113.5C 54.5,113.5 55.5,113.5 56.5,113.5 Z"/></g>
<g><path style="opacity:1" fill="#7b6a50" d="M 84.5,94.5 C 77.1667,94.5 69.8333,94.5 62.5,94.5C 62.5,97.1667 62.5,99.8333 62.5,102.5C 68.208,101.354 72.208,103.354 74.5,108.5C 74.5,110.167 74.5,111.833 74.5,113.5C 76.1439,113.714 77.6439,113.38 79,112.5C 78.9165,116.311 79.7499,119.645 81.5,122.5C 83.6074,123.468 85.9407,123.802 88.5,123.5C 88.5,118.5 88.5,113.5 88.5,108.5C 89.1665,113.017 89.8331,117.683 90.5,122.5C 91.1672,119.023 91.8339,115.689 92.5,112.5C 93.5,112.5 94.5,112.5 95.5,112.5C 96.3337,104.67 100.667,101.337 108.5,102.5C 108.5,99.8333 108.5,97.1667 108.5,94.5C 110.5,94.5 112.5,94.5 114.5,94.5C 114.5,99.8333 114.5,105.167 114.5,110.5C 112.688,110.771 111.022,111.438 109.5,112.5C 111.326,112.92 113.326,112.92 115.5,112.5C 115.5,119.5 115.5,126.5 115.5,133.5C 113.139,133.674 110.806,134.007 108.5,134.5C 109.299,131.57 109.632,128.57 109.5,125.5C 106.167,125.5 102.833,125.5 99.5,125.5C 97.5864,128.684 96.9197,132.351 97.5,136.5C 89.5,136.5 81.5,136.5 73.5,136.5C 73.8226,132.774 73.4892,129.107 72.5,125.5C 71.8328,128.977 71.1661,132.311 70.5,135.5C 70.5,132.167 70.5,128.833 70.5,125.5C 67.8333,125.5 65.1667,125.5 62.5,125.5C 62.5,128.5 62.5,131.5 62.5,134.5C 63.791,134.263 64.791,134.596 65.5,135.5C 61.9601,135.247 58.6267,134.581 55.5,133.5C 57.4589,127.25 58.1255,120.584 57.5,113.5C 58.5,113.5 59.5,113.5 60.5,113.5C 60.7305,116.694 60.0638,119.694 58.5,122.5C 58.8614,124.418 59.528,124.751 60.5,123.5C 64.796,124.463 69.1294,124.629 73.5,124C 70.9644,123.814 68.631,123.314 66.5,122.5C 67.8333,122.5 69.1667,122.5 70.5,122.5C 70.5,117.833 70.5,113.167 70.5,108.5C 71.3247,112.647 71.8247,116.981 72,121.5C 72.8962,116.051 72.5628,110.718 71,105.5C 67.2959,102.551 64.1292,102.885 61.5,106.5C 60.4819,107.292 60.1486,108.959 60.5,111.5C 58.5853,111.784 56.9187,111.451 55.5,110.5C 57.4461,105.604 58.1128,100.271 57.5,94.5C 62.5652,93.4055 67.7319,92.7388 73,92.5C 77.229,92.5102 81.0623,93.1768 84.5,94.5 Z"/></g>
<g><path style="opacity:1" fill="#b8a281" d="M 92.5,115.5 C 93.8333,115.5 95.1667,115.5 96.5,115.5C 95.4888,122.144 95.4888,128.811 96.5,135.5C 89.1667,135.5 81.8333,135.5 74.5,135.5C 75.1122,129.106 75.1122,122.772 74.5,116.5C 75.8333,116.5 77.1667,116.5 78.5,116.5C 78.3841,119.86 78.0508,123.193 77.5,126.5C 82.8333,126.5 88.1667,126.5 93.5,126.5C 92.8857,122.865 92.5524,119.198 92.5,115.5 Z"/></g>
<g><path style="opacity:1" fill="#b9a480" d="M 70.5,135.5 C 68.8333,135.5 67.1667,135.5 65.5,135.5C 64.791,134.596 63.791,134.263 62.5,134.5C 62.5,131.5 62.5,128.5 62.5,125.5C 65.1667,125.5 67.8333,125.5 70.5,125.5C 70.5,128.833 70.5,132.167 70.5,135.5 Z"/></g>
<g><path style="opacity:1" fill="#8f7b60" d="M 84.5,102.5 C 85.0527,104.552 86.0527,104.885 87.5,103.5C 91.4587,105.073 93.1253,108.073 92.5,112.5C 91.8339,115.689 91.1672,119.023 90.5,122.5C 89.8331,117.683 89.1665,113.017 88.5,108.5C 86.3298,107.232 84.1632,107.232 82,108.5C 81.5008,113.155 81.3342,117.821 81.5,122.5C 79.7499,119.645 78.9165,116.311 79,112.5C 77.6439,113.38 76.1439,113.714 74.5,113.5C 74.5,111.833 74.5,110.167 74.5,108.5C 75.8734,108.657 77.2068,108.49 78.5,108C 79.7194,105.279 81.7194,103.446 84.5,102.5 Z"/></g>
<g><path style="opacity:1" fill="#3e3120" d="M 88.5,108.5 C 88.5,113.5 88.5,118.5 88.5,123.5C 85.9407,123.802 83.6074,123.468 81.5,122.5C 81.3342,117.821 81.5008,113.155 82,108.5C 84.1632,107.232 86.3298,107.232 88.5,108.5 Z"/></g>
<g><path style="opacity:1" fill="#3e3122" d="M 101.5,105.5 C 103.722,105.178 105.556,105.845 107,107.5C 107.499,112.489 107.666,117.489 107.5,122.5C 104.833,122.5 102.167,122.5 99.5,122.5C 98.9883,116.612 99.6549,110.945 101.5,105.5 Z"/></g>
<g><path style="opacity:1" fill="#3f3021" d="M 70.5,108.5 C 70.5,113.167 70.5,117.833 70.5,122.5C 69.1667,122.5 67.8333,122.5 66.5,122.5C 65.5,122.5 64.5,122.5 63.5,122.5C 63.3341,117.489 63.5007,112.489 64,107.5C 66.5515,105.98 68.7182,106.313 70.5,108.5 Z"/></g>
<g><path style="opacity:1" fill="#b8a380" d="M 84.5,94.5 C 84.5,97.1667 84.5,99.8333 84.5,102.5C 81.7194,103.446 79.7194,105.279 78.5,108C 77.2068,108.49 75.8734,108.657 74.5,108.5C 72.208,103.354 68.208,101.354 62.5,102.5C 62.5,99.8333 62.5,97.1667 62.5,94.5C 69.8333,94.5 77.1667,94.5 84.5,94.5 Z"/></g>
<g><path style="opacity:1" fill="#b6a992" d="M 56.5,92.5 C 57.3382,92.8417 57.6716,93.5084 57.5,94.5C 58.1128,100.271 57.4461,105.604 55.5,110.5C 54.5084,110.672 53.8417,110.338 53.5,109.5C 54.5,109.5 55.5,109.5 56.5,109.5C 56.5,103.833 56.5,98.1667 56.5,92.5 Z"/></g>
<g><path style="opacity:1" fill="#e1d5c1" d="M 115.5,92.5 C 117.45,97.7351 118.117,103.402 117.5,109.5C 115.55,104.265 114.883,98.5982 115.5,92.5 Z"/></g>
<g><path style="opacity:1" fill="#a99d86" d="M 115.5,92.5 C 114.883,98.5982 115.55,104.265 117.5,109.5C 116.791,110.404 115.791,110.737 114.5,110.5C 114.5,105.167 114.5,99.8333 114.5,94.5C 114.328,93.5084 114.662,92.8417 115.5,92.5 Z"/></g>
<g><path style="opacity:1" fill="#b7a27f" d="M 86.5,94.5 C 93.8333,94.5 101.167,94.5 108.5,94.5C 108.5,97.1667 108.5,99.8333 108.5,102.5C 100.667,101.337 96.3337,104.67 95.5,112.5C 94.5,112.5 93.5,112.5 92.5,112.5C 93.1253,108.073 91.4587,105.073 87.5,103.5C 86.5233,100.713 86.19,97.7131 86.5,94.5 Z"/></g>
<g><path style="opacity:1" fill="#f0e6cf" d="M 56.5,92.5 C 56.5,98.1667 56.5,103.833 56.5,109.5C 55.5,109.5 54.5,109.5 53.5,109.5C 53.5,103.833 53.5,98.1667 53.5,92.5C 54.5,92.5 55.5,92.5 56.5,92.5 Z"/></g>
<g><path style="opacity:1" fill="#7a6b4d" d="M 108.5,94.5 C 101.167,94.5 93.8333,94.5 86.5,94.5C 89.7681,93.1778 93.4348,92.5112 97.5,92.5C 101.565,92.5112 105.232,93.1778 108.5,94.5 Z"/></g>
<g><path style="opacity:1" fill="#c9bca6" d="M 116.5,82.5 C 120.548,83.2622 121.548,85.5955 119.5,89.5C 119.167,89.5 118.833,89.5 118.5,89.5C 116.656,87.7211 115.99,85.3878 116.5,82.5 Z"/></g>
<g><path style="opacity:1" fill="#716249" d="M 101.5,82.5 C 101.5,83.8333 101.5,85.1667 101.5,86.5C 105.167,86.5 108.833,86.5 112.5,86.5C 112.567,85.0413 112.234,83.7079 111.5,82.5C 113.167,82.5 114.833,82.5 116.5,82.5C 115.99,85.3878 116.656,87.7211 118.5,89.5C 112.724,89.6632 106.724,89.6632 100.5,89.5C 100.198,86.9407 100.532,84.6074 101.5,82.5 Z"/></g>
<g><path style="opacity:1" fill="#786850" d="M 51.5,82.5 C 57.5,81.1667 63.5,81.1667 69.5,82.5C 65.774,82.1774 62.1073,82.5108 58.5,83.5C 61.6541,86.0933 65.3207,87.0933 69.5,86.5C 69.5,87.5 69.5,88.5 69.5,89.5C 63.633,89.8112 57.9664,89.8112 52.5,89.5C 53.675,89.719 54.675,89.3857 55.5,88.5C 54.1667,86.8333 54.1667,85.1667 55.5,83.5C 54.3112,82.5713 52.9778,82.238 51.5,82.5 Z"/></g>
<g><path style="opacity:1" fill="#76664a" d="M 72.5,86.5 C 81.5,86.5 90.5,86.5 99.5,86.5C 99.5,87.5 99.5,88.5 99.5,89.5C 90.7489,89.8032 82.0823,89.4699 73.5,88.5C 73.1667,87.8333 72.8333,87.1667 72.5,86.5 Z"/></g>
<g><path style="opacity:1" fill="#a99777" d="M 101.5,82.5 C 104.833,82.5 108.167,82.5 111.5,82.5C 112.234,83.7079 112.567,85.0413 112.5,86.5C 108.833,86.5 105.167,86.5 101.5,86.5C 101.5,85.1667 101.5,83.8333 101.5,82.5 Z"/></g>
<g><path style="opacity:1" fill="#aa9677" d="M 99.5,86.5 C 90.5,86.5 81.5,86.5 72.5,86.5C 71.5655,85.4324 71.2322,84.099 71.5,82.5C 80.8333,82.5 90.1667,82.5 99.5,82.5C 99.5,83.8333 99.5,85.1667 99.5,86.5 Z"/></g>
<g><path style="opacity:1" fill="#a99877" d="M 69.5,82.5 C 69.5,83.8333 69.5,85.1667 69.5,86.5C 65.3207,87.0933 61.6541,86.0933 58.5,83.5C 62.1073,82.5108 65.774,82.1774 69.5,82.5 Z"/></g>
<g><path style="opacity:1" fill="#e6dac5" d="M 51.5,82.5 C 52.9778,82.238 54.3112,82.5713 55.5,83.5C 54.1667,85.1667 54.1667,86.8333 55.5,88.5C 54.675,89.3857 53.675,89.719 52.5,89.5C 50.4094,87.4581 50.0761,85.1248 51.5,82.5 Z"/></g>
<g><path style="opacity:1" fill="#a08d6f" d="M 63.5,233.5 C 65.4147,233.216 67.0813,233.549 68.5,234.5C 67.1667,234.5 65.8333,234.5 64.5,234.5C 64.5,235.5 64.5,236.5 64.5,237.5C 65.5,237.5 66.5,237.5 67.5,237.5C 67.5,238.5 67.5,239.5 67.5,240.5C 66.5,240.5 65.5,240.5 64.5,240.5C 64.2767,242.342 63.9434,244.175 63.5,246C 63.7549,247.326 64.4216,248.326 65.5,249C 64.552,249.483 63.552,249.649 62.5,249.5C 62.5,251.167 62.5,252.833 62.5,254.5C 65.5,254.5 68.5,254.5 71.5,254.5C 71.5,247.833 71.5,241.167 71.5,234.5C 72.4912,241.313 72.8245,248.313 72.5,255.5C 68.8333,255.5 65.1667,255.5 61.5,255.5C 61.885,248.139 62.5516,240.806 63.5,233.5 Z"/></g>
<g><path style="opacity:1" fill="#bca581" d="M 68.5,234.5 C 69.5,234.5 70.5,234.5 71.5,234.5C 71.5,241.167 71.5,247.833 71.5,254.5C 68.5,254.5 65.5,254.5 62.5,254.5C 62.5,252.833 62.5,251.167 62.5,249.5C 63.552,249.649 64.552,249.483 65.5,249C 64.4216,248.326 63.7549,247.326 63.5,246C 63.9434,244.175 64.2767,242.342 64.5,240.5C 65.5,240.5 66.5,240.5 67.5,240.5C 67.5,239.5 67.5,238.5 67.5,237.5C 66.5,237.5 65.5,237.5 64.5,237.5C 64.5,236.5 64.5,235.5 64.5,234.5C 65.8333,234.5 67.1667,234.5 68.5,234.5 Z"/></g>
<g><path style="opacity:1" fill="#816f52" d="M 77.5,226.5 C 79.4733,235.775 80.14,245.442 79.5,255.5C 78.1667,255.5 76.8333,255.5 75.5,255.5C 75.3336,246.827 75.5002,238.16 76,229.5C 76.5133,228.473 77.0133,227.473 77.5,226.5 Z"/></g>
<g><path style="opacity:1" fill="#baa380" d="M 106.5,234.5 C 107.521,238.98 108.187,243.647 108.5,248.5C 108.5,250.5 108.5,252.5 108.5,254.5C 107.209,254.263 106.209,254.596 105.5,255.5C 103.167,255.5 100.833,255.5 98.5,255.5C 98.5,248.5 98.5,241.5 98.5,234.5C 101.167,234.5 103.833,234.5 106.5,234.5 Z"/></g>
<g><path style="opacity:1" fill="#685941" d="M 108.5,248.5 C 109.29,249.609 109.79,250.942 110,252.5C 110.21,250.942 110.71,249.609 111.5,248.5C 111.5,250.167 111.5,251.833 111.5,253.5C 115.198,253.448 118.865,253.114 122.5,252.5C 121.737,253.268 120.737,253.768 119.5,254C 122.516,254.664 125.349,254.164 128,252.5C 128.5,252.833 129,253.167 129.5,253.5C 127.007,255.58 124.341,257.414 121.5,259C 117.892,259.026 114.558,259.859 111.5,261.5C 110.653,259.939 110.986,258.439 112.5,257C 114.608,256.64 116.608,255.973 118.5,255C 114.152,254.585 109.819,254.751 105.5,255.5C 106.209,254.596 107.209,254.263 108.5,254.5C 108.5,252.5 108.5,250.5 108.5,248.5 Z"/></g>
<g><path style="opacity:1" fill="#74654c" d="M 41.5,252.5 C 46.6304,254.617 51.9637,256.117 57.5,257C 59.9108,258.726 60.5775,260.893 59.5,263.5C 53.702,260.955 48.0353,258.121 42.5,255C 41.7476,254.329 41.4142,253.496 41.5,252.5 Z"/></g>
<g><path style="opacity:1" fill="#77694d" d="M 61.5,257.5 C 77.5761,258.485 93.5761,258.819 109.5,258.5C 108.766,260.815 107.432,262.648 105.5,264C 91.5332,267.165 77.5332,267.332 63.5,264.5C 62.8333,262.167 62.1667,259.833 61.5,257.5 Z"/></g>
<g><path style="opacity:1" fill="#9c948e" d="M 134.5,265.5 C 135.906,265.973 136.573,266.973 136.5,268.5C 135.094,268.027 134.427,267.027 134.5,265.5 Z"/></g>
<g><path style="opacity:1" fill="#e7dbc0" d="M 57.5,267.5 C 56.8477,275.355 60.181,280.855 67.5,284C 66.2068,284.49 64.8734,284.657 63.5,284.5C 63.1667,284.5 62.8333,284.5 62.5,284.5C 61.9517,281.916 60.285,280.916 57.5,281.5C 52.8794,278.411 51.3794,274.077 53,268.5C 54.3466,266.534 55.8466,266.201 57.5,267.5 Z"/></g>
<g><path style="opacity:1" fill="#baa381" d="M 116.5,267.5 C 115.325,267.281 114.325,267.614 113.5,268.5C 114.477,276.653 110.81,281.82 102.5,284C 103.793,284.49 105.127,284.657 106.5,284.5C 106.5,284.833 106.5,285.167 106.5,285.5C 93.1993,286.611 79.8659,286.778 66.5,286C 65.2625,285.768 64.2625,285.268 63.5,284.5C 64.8734,284.657 66.2068,284.49 67.5,284C 60.181,280.855 56.8477,275.355 57.5,267.5C 76.5387,271.687 95.5387,271.354 114.5,266.5C 115.416,266.543 116.083,266.876 116.5,267.5 Z"/></g>
<g><path style="opacity:1" fill="#cabfae" d="M 129.5,274.5 C 128.348,275.625 127.348,275.625 126.5,274.5C 128.772,273.277 129.939,271.277 130,268.5C 132.109,270.861 131.942,272.861 129.5,274.5 Z"/></g>
<g><path style="opacity:1" fill="#bdaf9f" d="M 46.5,275.5 C 45.6522,276.625 44.6522,276.625 43.5,275.5C 40.5717,273.876 39.905,271.543 41.5,268.5C 42.0447,271.748 43.7113,274.081 46.5,275.5 Z"/></g>
<g><path style="opacity:1" fill="#6c645a" d="M 136.5,268.5 C 138.17,271.348 139.17,274.515 139.5,278C 138.816,282.918 137.816,287.752 136.5,292.5C 137.643,284.739 137.643,276.739 136.5,268.5 Z"/></g>
<g><path style="opacity:1" fill="#a7a29b" d="M 33.5,271.5 C 32.9492,274.807 32.6159,278.14 32.5,281.5C 31.1353,278.041 31.4686,274.708 33.5,271.5 Z"/></g>
<g><path style="opacity:1" fill="#6d604d" d="M 43.5,275.5 C 44.6522,276.625 45.6522,276.625 46.5,275.5C 49.763,275.674 51.4296,277.341 51.5,280.5C 49.6656,279.506 47.9989,279.506 46.5,280.5C 44.6954,279.763 43.0287,278.763 41.5,277.5C 42.2427,276.818 42.9094,276.151 43.5,275.5 Z"/></g>
<g><path style="opacity:1" fill="#afa18d" d="M 46.5,280.5 C 47.9989,279.506 49.6656,279.506 51.5,280.5C 53.3792,281.341 55.3792,281.675 57.5,281.5C 60.285,280.916 61.9517,281.916 62.5,284.5C 57.2622,283.975 52.2622,282.642 47.5,280.5C 47.1667,280.5 46.8333,280.5 46.5,280.5 Z"/></g>
<g><path style="opacity:1" fill="#5e5240" d="M 118.5,268.5 C 119.222,268.918 119.722,269.584 120,270.5C 120.157,272.995 120.324,275.328 120.5,277.5C 122.527,276.487 124.527,275.487 126.5,274.5C 127.348,275.625 128.348,275.625 129.5,274.5C 129.918,275.222 130.584,275.722 131.5,276C 129.478,278.009 127.145,279.509 124.5,280.5C 124.265,279.903 123.765,279.57 123,279.5C 119.184,280.781 115.35,281.614 111.5,282C 117.629,279.579 119.962,275.079 118.5,268.5 Z"/></g>
<g><path style="opacity:1" fill="#ddd0b6" d="M 116.5,267.5 C 117.167,267.833 117.833,268.167 118.5,268.5C 119.962,275.079 117.629,279.579 111.5,282C 115.35,281.614 119.184,280.781 123,279.5C 123.765,279.57 124.265,279.903 124.5,280.5C 123.609,281.11 122.609,281.443 121.5,281.5C 119.167,282.167 116.833,282.833 114.5,283.5C 111.833,283.833 109.167,284.167 106.5,284.5C 105.127,284.657 103.793,284.49 102.5,284C 110.81,281.82 114.477,276.653 113.5,268.5C 114.325,267.614 115.325,267.281 116.5,267.5 Z"/></g>
<g><path style="opacity:1" fill="#63563e" d="M 120.5,293.5 C 120.461,292.417 120.127,291.417 119.5,290.5C 120.833,289.833 122.167,289.167 123.5,288.5C 123.333,288.167 123.167,287.833 123,287.5C 120.262,288.482 117.428,289.148 114.5,289.5C 114.36,287.876 115.027,286.71 116.5,286C 115.167,285.667 113.833,285.333 112.5,285C 113.416,284.722 114.082,284.222 114.5,283.5C 116.833,282.833 119.167,282.167 121.5,281.5C 121.735,282.097 122.235,282.43 123,282.5C 125.524,281.896 128.024,281.229 130.5,280.5C 131.206,282.766 131.039,285.099 130,287.5C 127.193,290.148 124.027,292.148 120.5,293.5 Z"/></g>
<g><path style="opacity:1" fill="#7d6d4f" d="M 114.5,283.5 C 114.082,284.222 113.416,284.722 112.5,285C 113.833,285.333 115.167,285.667 116.5,286C 115.027,286.71 114.36,287.876 114.5,289.5C 117.428,289.148 120.262,288.482 123,287.5C 123.167,287.833 123.333,288.167 123.5,288.5C 122.167,289.167 120.833,289.833 119.5,290.5C 120.127,291.417 120.461,292.417 120.5,293.5C 114.053,295.824 107.387,297.324 100.5,298C 90.5,298.667 80.5,298.667 70.5,298C 67.3054,297.819 64.3054,297.319 61.5,296.5C 58.4576,295.09 55.2909,293.757 52,292.5C 51.3333,291.833 51.3333,291.167 52,290.5C 53.3988,289.773 54.8988,289.273 56.5,289C 55.1667,288.333 55.1667,287.667 56.5,287C 65.8088,287.43 75.1421,287.93 84.5,288.5C 93.5784,288.382 102.578,287.549 111.5,286C 109.866,285.506 108.199,285.34 106.5,285.5C 106.5,285.167 106.5,284.833 106.5,284.5C 109.167,284.167 111.833,283.833 114.5,283.5 Z"/></g>
<g><path style="opacity:1" fill="#64563d" d="M 47.5,280.5 C 52.2622,282.642 57.2622,283.975 62.5,284.5C 62.8333,284.5 63.1667,284.5 63.5,284.5C 64.2625,285.268 65.2625,285.768 66.5,286C 79.8659,286.778 93.1993,286.611 106.5,285.5C 108.199,285.34 109.866,285.506 111.5,286C 102.578,287.549 93.5784,288.382 84.5,288.5C 75.1421,287.93 65.8088,287.43 56.5,287C 55.1667,287.667 55.1667,288.333 56.5,289C 54.8988,289.273 53.3988,289.773 52,290.5C 51.3333,291.167 51.3333,291.833 52,292.5C 55.2909,293.757 58.4576,295.09 61.5,296.5C 55.3991,295.689 49.7324,293.689 44.5,290.5C 41.9187,287.596 40.252,284.263 39.5,280.5C 42.3283,281.497 44.995,281.497 47.5,280.5 Z"/></g>
<g><path style="opacity:1" fill="#e2d3b9" d="M 51.5,296.5 C 50.2583,298.25 48.7583,299.917 47,301.5C 46.3333,303.167 46.3333,304.833 47,306.5C 50.1173,308.237 52.9507,310.237 55.5,312.5C 53.5,312.5 51.5,312.5 49.5,312.5C 49.5,311.5 49.5,310.5 49.5,309.5C 48.0413,309.567 46.7079,309.234 45.5,308.5C 42.7792,307.304 41.6126,305.304 42,302.5C 44.2975,299.02 47.4642,297.02 51.5,296.5 Z"/></g>
<g><path style="opacity:1" fill="#bba583" d="M 119.5,296.5 C 121.922,298.401 123.922,300.734 125.5,303.5C 125.124,305.383 124.124,306.883 122.5,308C 120.5,309.333 118.5,310.667 116.5,312C 116.728,312.399 117.062,312.565 117.5,312.5C 110.347,313.469 103.013,314.136 95.5,314.5C 92.9746,314.497 90.6413,314.163 88.5,313.5C 94.1363,309.008 99.803,304.508 105.5,300C 110.288,299.15 114.955,297.983 119.5,296.5 Z"/></g>
<g><path style="opacity:1" fill="#b8ac9a" d="M 139.5,305.5 C 138.833,305.5 138.5,305.167 138.5,304.5C 139.525,304.103 139.692,303.437 139,302.5C 136.54,301.042 134.373,299.209 132.5,297C 136.531,297.863 139.864,300.03 142.5,303.5C 141.643,304.425 140.643,305.092 139.5,305.5 Z"/></g>
<g><path style="opacity:1" fill="#baa381" d="M 51.5,296.5 C 60.325,299.05 69.325,301.05 78.5,302.5C 71.0629,305.644 63.7296,308.977 56.5,312.5C 56.1667,312.5 55.8333,312.5 55.5,312.5C 52.9507,310.237 50.1173,308.237 47,306.5C 46.3333,304.833 46.3333,303.167 47,301.5C 48.7583,299.917 50.2583,298.25 51.5,296.5 Z"/></g>
<g><path style="opacity:1" fill="#e2d3ba" d="M 119.5,296.5 C 121.308,296.491 122.975,296.991 124.5,298C 125.878,299.713 127.545,301.047 129.5,302C 130.728,303.49 130.728,304.99 129.5,306.5C 125.458,308.521 121.458,310.521 117.5,312.5C 117.062,312.565 116.728,312.399 116.5,312C 118.5,310.667 120.5,309.333 122.5,308C 124.124,306.883 125.124,305.383 125.5,303.5C 123.922,300.734 121.922,298.401 119.5,296.5 Z"/></g>
<g><path style="opacity:1" fill="#908270" d="M 45.5,308.5 C 46.7079,309.234 48.0413,309.567 49.5,309.5C 49.5,310.5 49.5,311.5 49.5,312.5C 46.4173,312.084 43.4173,311.417 40.5,310.5C 34.5784,310.284 30.9117,307.784 29.5,303C 32.4202,299.38 36.0868,297.046 40.5,296C 37.3548,297.978 34.6881,300.478 32.5,303.5C 35.1536,304.674 36.8203,306.174 37.5,308C 40.2654,309.476 42.9321,309.643 45.5,308.5 Z"/></g>
<g><path style="opacity:1" fill="#b19e7f" d="M 76.5,312.5 C 74.1526,314.044 71.4859,314.711 68.5,314.5C 66.0478,314.461 64.0478,313.794 62.5,312.5C 69.8676,308.314 77.7009,304.981 86,302.5C 86.5,302.667 87,302.833 87.5,303C 83.802,306.174 80.1353,309.341 76.5,312.5 Z"/></g>
<g><path style="opacity:1" fill="#7d6d4f" d="M 111.5,325.5 C 93.2645,326.825 74.9311,326.825 56.5,325.5C 55.3915,324.71 54.0581,324.21 52.5,324C 53.1667,323.667 53.8333,323.333 54.5,323C 51.7284,322.474 49.0618,321.641 46.5,320.5C 49.1667,319.5 51.8333,318.5 54.5,317.5C 54.2907,316.914 53.9574,316.414 53.5,316C 54.8333,315.833 56.1667,315.667 57.5,315.5C 76.9988,316.827 96.4988,316.827 116,315.5C 117.5,315.833 119,316.167 120.5,316.5C 120.167,317.167 119.833,317.833 119.5,318.5C 121.167,319.167 122.833,319.833 124.5,320.5C 121.833,321.167 119.167,321.833 116.5,322.5C 117.025,323.192 117.692,323.692 118.5,324C 115.964,324.186 113.631,324.686 111.5,325.5 Z"/></g>
<g><path style="opacity:1" fill="#6b5c43" d="M 138.5,304.5 C 138.5,305.167 138.833,305.5 139.5,305.5C 140.598,306.397 140.598,307.23 139.5,308C 135.317,309.796 130.984,311.129 126.5,312C 130.57,312.221 134.57,311.721 138.5,310.5C 139.399,311.994 139.065,313.494 137.5,315C 134.475,315.133 131.808,316.133 129.5,318C 131.569,318.324 131.902,319.158 130.5,320.5C 132.291,321.17 133.958,321.837 135.5,322.5C 127.576,324.061 119.576,325.061 111.5,325.5C 113.631,324.686 115.964,324.186 118.5,324C 117.692,323.692 117.025,323.192 116.5,322.5C 119.167,321.833 121.833,321.167 124.5,320.5C 122.833,319.833 121.167,319.167 119.5,318.5C 119.833,317.833 120.167,317.167 120.5,316.5C 119,316.167 117.5,315.833 116,315.5C 96.4988,316.827 76.9988,316.827 57.5,315.5C 56.1667,315.667 54.8333,315.833 53.5,316C 53.9574,316.414 54.2907,316.914 54.5,317.5C 51.8333,318.5 49.1667,319.5 46.5,320.5C 49.0618,321.641 51.7284,322.474 54.5,323C 53.8333,323.333 53.1667,323.667 52.5,324C 54.0581,324.21 55.3915,324.71 56.5,325.5C 46.4015,325.447 36.5682,323.781 27,320.5C 25.5232,319.556 24.5232,318.223 24,316.5C 23.5026,313.854 23.3359,311.187 23.5,308.5C 28.2804,308.885 32.9471,309.885 37.5,311.5C 38.7261,311.48 39.7261,311.147 40.5,310.5C 43.4173,311.417 46.4173,312.084 49.5,312.5C 51.5,312.5 53.5,312.5 55.5,312.5C 55.8333,312.5 56.1667,312.5 56.5,312.5C 55.3915,313.29 54.0581,313.79 52.5,314C 56.1674,314.937 59.5007,314.437 62.5,312.5C 64.0478,313.794 66.0478,314.461 68.5,314.5C 71.4859,314.711 74.1526,314.044 76.5,312.5C 76.5,313.5 76.5,314.5 76.5,315.5C 80.7416,315.849 84.7416,315.183 88.5,313.5C 90.6413,314.163 92.9746,314.497 95.5,314.5C 103.013,314.136 110.347,313.469 117.5,312.5C 121.458,310.521 125.458,308.521 129.5,306.5C 129.389,307.117 129.056,307.617 128.5,308C 130.167,308.667 131.833,308.667 133.5,308C 135.126,306.97 136.793,305.804 138.5,304.5 Z"/></g>
<g><path style="opacity:1" fill="#5f5039" d="M 135.5,322.5 C 133.958,321.837 132.291,321.17 130.5,320.5C 131.902,319.158 131.569,318.324 129.5,318C 131.808,316.133 134.475,315.133 137.5,315C 139.065,313.494 139.399,311.994 138.5,310.5C 141.214,308.764 144.214,307.93 147.5,308C 148.864,317.052 144.864,321.886 135.5,322.5 Z"/></g>
<g><path style="opacity:1" fill="#b8b3ad" d="M 155.5,310.5 C 156.645,314.311 156.812,318.311 156,322.5C 154.89,324.037 153.39,324.703 151.5,324.5C 152.688,323.636 153.855,322.636 155,321.5C 155.499,317.848 155.665,314.182 155.5,310.5 Z"/></g>
<g><path style="opacity:1" fill="#afa79f" d="M 35.5,329.5 C 38.4282,329.565 41.0948,330.232 43.5,331.5C 40.5049,331.706 37.8383,331.04 35.5,329.5 Z"/></g>
<g><path style="opacity:1" fill="#a8a39d" d="M 131.5,330.5 C 108.79,334.261 85.7903,335.428 62.5,334C 58.9748,333.821 55.6414,333.321 52.5,332.5C 78.8989,334.243 105.232,333.576 131.5,330.5 Z"/></g>
</svg>
