<?xml version="1.0" encoding="UTF-8"?>
<!DOCTYPE svg PUBLIC "-//W3C//DTD SVG 1.1//EN" "http://www.w3.org/Graphics/SVG/1.1/DTD/svg11.dtd">
<svg xmlns="http://www.w3.org/2000/svg" version="1.1" width="404px" height="376px" style="shape-rendering:geometricPrecision; text-rendering:geometricPrecision; image-rendering:optimizeQuality; fill-rule:evenodd; clip-rule:evenodd" xmlns:xlink="http://www.w3.org/1999/xlink">
<g><path style="opacity:1" fill="#f6f6f6" d="M -0.5,-0.5 C 134.167,-0.5 268.833,-0.5 403.5,-0.5C 403.5,124.833 403.5,250.167 403.5,375.5C 268.833,375.5 134.167,375.5 -0.5,375.5C -0.5,250.167 -0.5,124.833 -0.5,-0.5 Z"/></g>
<g><path style="opacity:1" fill="#3ec4f2" d="M 296.5,323.5 C 243.324,352.985 188.991,355.152 133.5,330C 81.8634,301.006 51.3634,257.173 42,198.5C 37.435,152.734 48.935,111.734 76.5,75.5C 83.1317,67.2007 90.4651,59.5341 98.5,52.5C 143.7,13.9523 195.367,1.78562 253.5,16C 305.079,31.536 342.246,63.7027 365,112.5C 388.885,176.308 379.885,234.975 338,288.5C 331.5,295 325,301.5 318.5,308C 311.284,313.432 303.95,318.599 296.5,323.5 Z"/></g>
<g><path style="opacity:1" fill="#4493b0" d="M 98.5,52.5 C 90.4651,59.5341 83.1317,67.2007 76.5,75.5C 76.1583,74.6618 75.4916,74.3284 74.5,74.5C 80.9231,65.4087 88.9231,58.0753 98.5,52.5 Z"/></g>
<g><path style="opacity:1" fill="#2b82a1" d="M 74.5,74.5 C 75.4916,74.3284 76.1583,74.6618 76.5,75.5C 48.935,111.734 37.435,152.734 42,198.5C 51.3634,257.173 81.8634,301.006 133.5,330C 188.991,355.152 243.324,352.985 296.5,323.5C 275.793,339.041 252.459,348.875 226.5,353C 149.103,361.883 90.603,333.05 51,266.5C 47.5458,259.262 44.3791,251.928 41.5,244.5C 40.5376,240.605 39.2043,236.939 37.5,233.5C 35.8503,228.235 34.517,222.901 33.5,217.5C 33.5557,212.269 32.889,207.269 31.5,202.5C 31.5,192.167 31.5,181.833 31.5,171.5C 34.1579,162.807 35.8246,153.807 36.5,144.5C 42.9605,117.564 55.6272,94.2305 74.5,74.5 Z"/></g>
<g><path style="opacity:1" fill="#2b82a1" d="M 262.5,247.5 C 273.216,235.739 280.55,222.072 284.5,206.5C 286.217,203.155 286.884,199.489 286.5,195.5C 286.5,190.167 286.5,184.833 286.5,179.5C 286.72,174.9 286.054,170.567 284.5,166.5C 276.21,134.876 256.543,113.876 225.5,103.5C 223.898,101.926 221.898,101.259 219.5,101.5C 206.107,98.9731 192.773,98.9731 179.5,101.5C 176.848,101.41 174.515,102.076 172.5,103.5C 166.719,105.557 161.053,107.89 155.5,110.5C 181.203,90.8841 209.537,86.3841 240.5,97C 281.231,115.277 299.731,146.777 296,191.5C 291.948,214.614 280.948,233.614 263,248.5C 262.601,248.272 262.435,247.938 262.5,247.5 Z"/></g>
<g><path style="opacity:1" fill="#f6f6f6" d="M 219.5,101.5 C 221.214,102.738 223.214,103.405 225.5,103.5C 256.543,113.876 276.21,134.876 284.5,166.5C 284.28,171.1 284.946,175.433 286.5,179.5C 286.5,184.833 286.5,190.167 286.5,195.5C 285.475,198.974 284.808,202.64 284.5,206.5C 280.55,222.072 273.216,235.739 262.5,247.5C 251.52,256.821 238.853,262.654 224.5,265C 177.206,269.858 144.539,250.358 126.5,206.5C 126.59,203.848 125.924,201.515 124.5,199.5C 117.233,163.509 127.566,133.843 155.5,110.5C 161.053,107.89 166.719,105.557 172.5,103.5C 175.152,103.59 177.485,102.924 179.5,101.5C 192.773,98.9731 206.107,98.9731 219.5,101.5 Z"/></g>
<g><path style="opacity:1" fill="#90bbcb" d="M 219.5,101.5 C 221.898,101.259 223.898,101.926 225.5,103.5C 223.214,103.405 221.214,102.738 219.5,101.5 Z"/></g>
<g><path style="opacity:1" fill="#b1cfd9" d="M 179.5,101.5 C 177.485,102.924 175.152,103.59 172.5,103.5C 174.515,102.076 176.848,101.41 179.5,101.5 Z"/></g>
<g><path style="opacity:1" fill="#66a2b8" d="M 36.5,144.5 C 35.8246,153.807 34.1579,162.807 31.5,171.5C 31.7834,162.119 33.4501,153.119 36.5,144.5 Z"/></g>
<g><path style="opacity:1" fill="#bcd5de" d="M 284.5,166.5 C 286.054,170.567 286.72,174.9 286.5,179.5C 284.946,175.433 284.28,171.1 284.5,166.5 Z"/></g>
<g><path style="opacity:1" fill="#93dbf4" d="M 124.5,199.5 C 125.924,201.515 126.59,203.848 126.5,206.5C 125.076,204.485 124.41,202.152 124.5,199.5 Z"/></g>
<g><path style="opacity:1" fill="#79aec1" d="M 286.5,195.5 C 286.884,199.489 286.217,203.155 284.5,206.5C 284.808,202.64 285.475,198.974 286.5,195.5 Z"/></g>
<g><path style="opacity:1" fill="#b1cfd9" d="M 31.5,202.5 C 32.889,207.269 33.5557,212.269 33.5,217.5C 32.111,212.731 31.4443,207.731 31.5,202.5 Z"/></g>
<g><path style="opacity:1" fill="#a8c9d5" d="M 37.5,233.5 C 39.2043,236.939 40.5376,240.605 41.5,244.5C 39.0103,241.374 37.677,237.708 37.5,233.5 Z"/></g>
</svg>
