<?xml version="1.0" encoding="UTF-8"?>
<svg version="1.1" xmlns="http://www.w3.org/2000/svg" width="376" height="337">
<path d="M0 0 C124.08 0 248.16 0 376 0 C376 111.21 376 222.42 376 337 C251.92 337 127.84 337 0 337 C0 225.79 0 114.58 0 0 Z " fill="#F6F6F6" transform="translate(0,0)"/>
<path d="M0 0 C5.06566191 1.97092212 8.51852967 6.0207803 12.23394871 9.85969639 C13.17935682 10.80736388 14.12653557 11.75326773 15.0753336 12.69754124 C17.63426127 15.25418206 20.16784235 17.83465593 22.69745851 20.42025781 C25.34957898 23.1225326 28.02451231 25.80203275 30.69706821 28.48407078 C35.74914012 33.56096562 40.78048032 38.65789792 45.80462068 43.76241916 C51.52763794 49.5749871 57.27350372 55.36474041 63.02136433 61.15272629 C74.83968796 73.05457534 86.62910997 84.98462855 98.39972019 96.933671 C101.71480102 95.48765752 103.89164519 93.68716513 106.43588352 91.13128757 C107.22942234 90.33905293 108.02296116 89.54681828 108.84054661 88.73057652 C109.70199284 87.86036869 110.56343906 86.99016087 111.45098972 86.09358311 C112.82230045 84.72030102 112.82230045 84.72030102 114.22131443 83.31927586 C116.20712188 81.33053819 118.18973503 79.3386887 120.16992664 77.3443594 C123.29940256 74.19260856 126.43595945 71.04796925 129.5735178 67.90426731 C134.53304432 62.9333652 139.48787361 57.95781126 144.44067657 52.98021084 C153.31667854 44.05985024 162.19830271 35.14509571 171.08512676 26.23551661 C174.20488772 23.10733513 177.32181777 19.97636737 180.43652081 16.84315002 C181.90595396 15.36564932 183.37649699 13.88926413 184.84753513 12.41336155 C186.64360557 10.6112433 188.4378428 8.80729553 190.2299509 7.00123692 C191.01785007 6.21182209 191.80574924 5.42240726 192.61752415 4.60907078 C193.30367361 3.91940188 193.98982307 3.22973299 194.69676495 2.51916504 C196.85584623 0.50900622 198.10034664 -0.01643341 201.02472019 -0.503829 C209.28998103 0.5675937 216.0171628 9.17819652 221.71222019 14.7696085 C222.56654636 15.60779118 223.42087254 16.44597385 224.30108738 17.30955601 C226.09225996 19.07322352 227.88046654 20.83990789 229.66583347 22.60945225 C231.49390927 24.41434652 233.33092029 26.21023382 235.17657566 27.99714756 C237.85403421 30.58952443 240.50422848 33.20716472 243.14972019 35.8321085 C243.97770115 36.62507328 244.80568211 37.41803806 245.6587534 38.23503208 C251.90409579 44.52877571 251.90409579 44.52877571 252.35284519 49.00251865 C251.11356635 57.33346473 241.022468 64.44945851 235.34332371 70.10359287 C234.0250584 71.42207722 234.0250584 71.42207722 232.68016148 72.76719761 C230.29402282 75.15276318 227.90570304 77.53610318 225.51634431 79.91844082 C223.01081161 82.41767871 220.50815228 84.9197907 218.00517368 87.42158604 C213.27584133 92.14782302 208.54396802 96.87150734 203.81115335 101.59425688 C198.4185334 106.97565969 193.02878747 112.35993712 187.63926899 117.7444458 C176.56259142 128.81069965 165.48234935 139.87337735 154.39972019 150.933671 C155.84365037 154.25058507 157.63577158 156.40193167 160.20883274 158.92945957 C161.00251255 159.71432743 161.79619236 160.49919529 162.61392307 161.30784702 C163.92159138 162.58587696 163.92159138 162.58587696 165.25567722 163.88972569 C166.66347395 165.27824536 168.07126474 166.6667711 169.47883105 168.05552435 C170.99071525 169.54558816 172.50491785 171.03326368 174.01959705 172.52048588 C177.17823603 175.62338753 180.32598984 178.73717325 183.47146702 181.85340977 C184.54929884 182.92095428 185.62714356 183.98848576 186.70500088 185.05600452 C187.2447032 185.59053572 187.78440551 186.12506692 188.34046245 186.67579603 C195.66343412 193.92671246 202.99563745 201.16809101 210.34845066 208.38874912 C215.31116382 213.26243881 220.2594772 218.15026167 225.19196308 223.05454659 C227.8015309 225.64797744 230.41801053 228.2334764 233.05243397 230.80167484 C235.99088523 233.66638501 238.89748877 236.56147526 241.80255222 239.46003819 C242.67837955 240.30396122 243.55420689 241.14788425 244.45657444 242.01738071 C250.9120698 248.53928724 250.9120698 248.53928724 251.11409092 253.28674412 C250.41976228 256.83135431 250.06364687 258.26685073 247.56695652 260.75813389 C246.92376469 261.42048038 246.28057285 262.08282688 245.61789036 262.76524448 C244.8858942 263.48082523 244.15389805 264.19640598 243.39972019 264.933671 C242.60850773 265.74633427 241.81729527 266.55899754 241.00210667 267.39628696 C238.26527865 270.20121053 235.49821522 272.97452682 232.72393894 275.74226475 C231.7072578 276.759621 230.69072503 277.77712553 229.67433262 278.79477024 C227.56056846 280.90999758 225.44503403 283.02343334 223.32818699 285.13557529 C220.61340499 287.84461672 217.90319684 290.55818297 215.19426346 293.27307129 C213.103757 295.36718345 211.01088458 297.45891791 208.91727734 299.54992962 C207.91618342 300.55035656 206.91583154 301.55152659 205.91623592 302.55345058 C204.52602093 303.94619692 203.13226824 305.3354093 201.73834324 306.72444248 C200.94671284 307.51527729 200.15508244 308.3061121 199.33946323 309.1209116 C197.05579825 311.25507838 195.84512353 311.84883227 192.77472019 312.433671 C184.72315634 311.24084672 177.90240175 301.5497829 172.38507175 295.95320225 C171.52226093 295.08250599 170.65945011 294.21180973 169.77049351 293.31472874 C167.91054055 291.43766882 166.05149492 289.55975338 164.19370365 287.6805582 C161.25610061 284.7100895 158.31232905 281.74578543 155.36718845 278.78279209 C154.35562568 277.76497025 153.34406333 276.74714798 152.33250141 275.72932529 C151.82645799 275.22016575 151.32041457 274.7110062 150.7990365 274.18641758 C143.95379574 267.29825562 137.11331593 260.40546124 130.28692722 253.4986124 C125.6654417 248.82275167 121.03520657 244.15575438 116.3946445 239.49882317 C113.94316098 237.03795589 111.49649907 234.57267993 109.06055546 232.09642124 C106.35268269 229.34384462 103.62571366 226.61070049 100.8967905 223.8789835 C99.68889111 222.64176296 99.68889111 222.64176296 98.4565897 221.37954807 C97.71379261 220.64217915 96.97099552 219.90481022 96.20568943 219.14509678 C95.56345055 218.49695011 94.92121166 217.84880344 94.25951099 217.18101597 C92.49765104 215.73619755 92.49765104 215.73619755 90.41368675 216.00282383 C87.87606877 217.17570056 86.34163825 218.6290271 84.37028599 220.6157999 C83.57819233 221.40665989 82.78609867 222.19751987 81.97000217 223.01234531 C81.11012699 223.88614841 80.25025181 224.75995152 79.3643198 225.6602335 C78.45171894 226.57560886 77.53911808 227.49098423 76.59886265 228.43409824 C74.61487797 230.4241756 72.63569626 232.41886862 70.660079 234.41725254 C67.53726006 237.5758498 64.40358166 240.72352035 61.26826572 243.86970615 C55.18160641 249.98049808 49.10630316 256.10251038 43.031991 262.22557163 C35.29756027 270.02082992 27.55752341 277.8104997 19.80840212 285.59115505 C16.69166518 288.72129741 13.5802536 291.85661213 10.4728955 294.99606419 C9.0057255 296.47696308 7.53631472 297.95559383 6.06587315 299.43324375 C4.27136605 301.23666936 2.48050191 303.0437298 0.69390965 304.85499668 C-0.09536419 305.64585667 -0.88463802 306.43671665 -1.69782925 307.25154209 C-2.38305692 307.9425098 -3.06828459 308.63347752 -3.77427673 309.34538364 C-6.79620347 311.97390497 -10.34868608 312.59581602 -14.31201077 312.52610874 C-19.46330183 311.19242848 -22.93346297 306.57304218 -26.49871731 302.85163975 C-27.41488827 301.92652088 -28.33105923 301.00140202 -29.27499294 300.04824924 C-31.70252601 297.59593467 -34.10467606 295.12013624 -36.50262356 292.63893223 C-38.46421653 290.61725896 -40.44257773 288.61246972 -42.42215443 286.60842514 C-46.51389231 282.46603795 -50.59208217 278.3103864 -54.6447134 274.12971592 C-55.36226803 273.39025227 -56.07982265 272.65078861 -56.81912136 271.88891697 C-59.9920037 268.40592228 -61.2361077 265.87006762 -61.10255337 261.09108448 C-60.48173803 258.42449902 -59.4743298 257.23655818 -57.62640285 255.22755527 C-56.9879443 254.5316 -56.34948574 253.83564472 -55.69167995 253.11859989 C-52.05979706 249.32429688 -48.36010519 245.60635208 -44.61981106 241.91902256 C-43.31376667 240.62480633 -43.31376667 240.62480633 -41.98133755 239.30444431 C-40.10427763 237.44449136 -38.22636219 235.58544572 -36.34716702 233.72765446 C-33.37669831 230.79005142 -30.41239424 227.84627986 -27.4494009 224.90113926 C-26.43157906 223.88957648 -25.41375679 222.87801414 -24.3959341 221.86645222 C-23.88677456 221.3604088 -23.37761501 220.85436538 -22.85302639 220.33298731 C-15.96486443 213.48774655 -9.07207005 206.64726673 -2.16522121 199.82087803 C2.51063952 195.19939251 7.17763681 190.56915737 11.83456802 185.9285953 C14.2954353 183.47711179 16.76071126 181.03044988 19.23696995 178.59450626 C21.98954657 175.88663349 24.7226907 173.15966446 27.45440769 170.43074131 C28.69162823 169.22284191 28.69162823 169.22284191 29.95384312 167.9905405 C30.69121204 167.24774342 31.42858097 166.50494633 32.18829441 165.73964024 C32.83644108 165.09740135 33.48458775 164.45516247 34.15237522 163.7934618 C35.59793081 162.03124188 35.59793081 162.03124188 35.32777405 159.94526482 C34.16506275 157.42504162 32.73300426 155.90118173 30.76228428 153.94220066 C29.98128361 153.15852116 29.20028294 152.37484165 28.39561558 151.56741428 C27.53273426 150.71688984 26.66985294 149.86636539 25.78082371 148.99006748 C24.8768082 148.08722019 23.9727927 147.1843729 23.04138279 146.2541666 C21.07592078 144.29140946 19.10579324 142.33350313 17.13189983 140.37922573 C14.01124993 137.28958768 10.90099919 134.18962139 7.79203892 131.08822727 C2.87386391 126.18454265 -2.05148116 121.28813033 -6.97979647 116.39463907 C-15.80643298 107.62991125 -24.62094361 98.85299651 -33.43270832 90.07331997 C-36.52594541 86.99191954 -39.62233087 83.91372744 -42.72137535 80.83816803 C-44.18421611 79.38582425 -45.64595414 77.9323811 -47.10723782 76.4784708 C-48.88975537 74.70514925 -50.67412086 72.93368258 -52.46064663 71.16439915 C-53.24446712 70.38353947 -54.02828762 69.60267979 -54.83586025 68.79815769 C-55.51853183 68.12030437 -56.2012034 67.44245104 -56.904562 66.7440567 C-60.17292258 63.25468291 -61.10317315 60.77251808 -60.96418476 55.97363567 C-60.34681451 52.51280478 -58.21001914 50.41205623 -55.78607082 48.05256748 C-55.27383465 47.52310017 -54.76159847 46.99363285 -54.23383999 46.44812107 C-52.54376474 44.71283337 -50.82605481 43.00846707 -49.10418606 41.30476475 C-47.91402508 40.10412812 -46.72490749 38.90245639 -45.53678799 37.69979954 C-43.04543733 35.18766124 -40.53972639 32.69102154 -38.02337551 30.20393467 C-34.80443967 27.01939113 -31.6280069 23.79593107 -28.4616394 20.55921936 C-26.01621773 18.06981994 -23.54777621 15.604297 -21.07200336 13.14511395 C-19.89105 11.96579777 -18.71772973 10.77878502 -17.55243015 9.58399868 C-15.9176047 7.91421007 -14.2539161 6.27970598 -12.57903957 4.65022373 C-12.10645718 4.15425694 -11.63387478 3.65829014 -11.1469717 3.14729404 C-7.58011712 -0.22615437 -4.65953511 -0.83387168 0 0 Z " fill="#FE615F" transform="translate(95.60027980804443,11.066329002380371)"/>
<path d="M0 0 C0.07562668 1.21141663 0.15125336 2.42283325 0.22917175 3.67095947 C0.79074967 8.03188852 2.20346735 10.09452975 5.33325195 13.26464844 C5.81176007 13.75826748 6.29026819 14.25188652 6.78327656 14.76046371 C8.50480266 16.52493756 10.2523211 18.26143859 12 20 C13.42741484 21.44588109 14.85364196 22.89293536 16.27890015 24.34094238 C21.38216431 29.50906683 26.52469027 34.63737423 31.66796875 39.765625 C33.55818812 41.65397576 35.44820779 43.54252432 37.33796692 45.43133545 C41.77320758 49.86349308 46.21098625 54.29310007 50.64973003 58.72174907 C55.71115054 63.77191326 60.76966275 68.82498644 65.82795751 73.87828112 C76.21545209 84.25538006 86.60651369 94.62890216 97 105 C95.27845212 108.76488042 93.00765886 111.15063897 90 114 C86.70922081 112.56048965 84.53360169 110.78286955 82.00180054 108.2490387 C81.21667587 107.46810852 80.43155121 106.68717834 79.62263489 105.88258362 C78.7705394 105.02486862 77.91844391 104.16715363 77.04052734 103.28344727 C76.13607376 102.38089203 75.23162018 101.47833679 74.29975891 100.5484314 C71.82220286 98.07571794 69.35093452 95.59680709 66.88088179 93.11660123 C64.29461444 90.52154412 61.70307015 87.93176671 59.11221313 85.34129333 C54.76279715 80.99094115 50.4172697 76.63673536 46.07421875 72.2800293 C41.05266476 67.24274535 36.02589886 62.21071151 30.99610746 57.18165356 C26.15727416 52.34343058 21.321305 47.5023559 16.48692703 42.65968132 C14.42954058 40.59876412 12.37130706 38.5386984 10.31241989 36.47928047 C7.43882792 33.60449759 4.5695188 30.72547709 1.70068359 27.84594727 C0.84453964 26.9902565 -0.01160431 26.13456573 -0.89369202 25.25294495 C-1.67317703 24.46919495 -2.45266205 23.68544495 -3.25576782 22.87794495 C-4.2739305 21.8572685 -4.2739305 21.8572685 -5.31266212 20.81597233 C-8.43903347 17.4512616 -9.6580037 14.85378505 -9.59765625 10.20703125 C-8.69882619 6.88782219 -3.8501909 0 0 0 Z " fill="#B34746" transform="translate(44,57)"/>
<path d="M0 0 C3.54579335 1.77289668 5.24589309 2.99943025 7.95350647 5.71972656 C8.72877182 6.49368774 9.50403717 7.26764893 10.30279541 8.06506348 C11.14396912 8.91499878 11.98514282 9.76493408 12.85180664 10.640625 C14.19144722 11.98223694 14.19144722 11.98223694 15.55815125 13.35095215 C17.49812114 15.29385214 19.43489581 17.23986292 21.36924934 19.18835449 C24.42758515 22.26897372 27.49300927 25.34247339 30.55943298 28.41503906 C35.40797874 33.27496085 40.25182766 38.13953306 45.09364933 43.00615311 C53.7667536 51.72360069 62.44545328 60.43546912 71.12938398 69.14213181 C74.1769517 72.19810929 77.22168769 75.25687261 80.26418126 78.31790161 C81.70072815 79.76252707 83.13839324 81.20602852 84.57655334 82.64904785 C86.33055193 84.40908087 88.0827202 86.17094052 89.83273315 87.93493652 C90.60517868 88.70889771 91.37762421 89.48285889 92.17347717 90.28027344 C93.17919565 91.29127106 93.17919565 91.29127106 94.20523167 92.32269287 C97.67694142 95.56719157 100.37942158 96.38392288 105 97 C103.43187242 101.23394447 100.65398002 103.47032152 97 106 C94.125 106.75 94.125 106.75 91 106 C84.78977804 101.38321379 79.39492185 95.54326966 73.93774414 90.08300781 C73.07011444 89.21873672 72.20248474 88.35446564 71.30856323 87.46400452 C68.95379429 85.1170502 66.60127513 82.76789026 64.25009084 80.41734791 C62.77919252 78.94716416 61.30758288 77.47769627 59.83572197 76.00847626 C54.69680162 70.87877093 49.56043335 65.74652641 44.42651367 60.61181641 C39.64466547 55.82936496 34.85723877 51.05254795 30.06722742 46.27827382 C25.94547378 42.16957935 21.82756795 38.05705543 17.71265882 33.94150615 C15.25863468 31.48722701 12.80308119 29.0345273 10.3436451 26.58567047 C7.60900901 23.86248151 4.88238686 21.13135647 2.15649414 18.39941406 C1.34044205 17.58898148 0.52438995 16.77854889 -0.31639099 15.94355774 C-1.05506409 15.20069016 -1.79373718 14.45782257 -2.55479431 13.69244385 C-3.19979857 13.04798435 -3.84480284 12.40352486 -4.50935268 11.73953629 C-6 10 -6 10 -7 7 C-4.69 4.69 -2.38 2.38 0 0 Z " fill="#B44746" transform="translate(194,217)"/>
<path d="M0 0 C0.26655899 0.58402084 0.53311798 1.16804169 0.80775452 1.76976013 C6.30822702 12.05906149 17.29795818 20.59160435 25.43383789 28.78393555 C27.19344005 30.56020711 28.94764404 32.34184171 30.6965332 34.12866211 C33.23490875 36.7216468 35.78920236 39.29793655 38.34765625 41.87109375 C39.51507103 43.07251259 39.51507103 43.07251259 40.70606995 44.29820251 C45.00895027 48.64122671 45.00895027 48.64122671 50.54077148 51.00805664 C51.35231689 51.00539795 52.1638623 51.00273926 53 51 C51.70989008 53.87793751 50.42638194 55.96183917 48 58 C44.11706963 59.29431012 40.98001361 60.03043403 37 59 C33.26743023 56.40381611 30.23906269 53.19288261 27.1015625 49.91796875 C26.18539154 48.99284988 25.26922058 48.06773102 24.32528687 47.11457825 C21.8977538 44.66226367 19.49560375 42.18646525 17.09765625 39.70526123 C15.13606327 37.68358797 13.15770208 35.67879872 11.17812538 33.67475414 C7.0863875 29.53236695 3.00819764 25.3767154 -1.04443359 21.19604492 C-1.76198822 20.45658127 -2.47954285 19.71711761 -3.21884155 18.95524597 C-6.51706348 15.33466121 -7.4421473 12.92969116 -7.32421875 8.00390625 C-6.81165729 4.83590593 -5.2877535 3.15702473 -3 1 C-2.01 0.67 -1.02 0.34 0 0 Z " fill="#B54A49" transform="translate(42,264)"/>
</svg>
